M48
; DRILL file {KiCad 8.0.5-dirty} date 2024-12-04T01:41:07-0600
; FORMAT={-:-/ absolute / inch / decimal}
; #@! TF.CreationDate,2024-12-04T01:41:07-06:00
; #@! TF.GenerationSoftware,Kicad,Pcbnew,8.0.5-dirty
; #@! TF.FileFunction,Plated,1,4,PTH
FMAT,2
INCH
; #@! TA.AperFunction,Plated,PTH,ViaDrill
T1C0.0157
; #@! TA.AperFunction,Plated,PTH,ComponentDrill
T2C0.0197
; #@! TA.AperFunction,Plated,PTH,ComponentDrill
T3C0.0236
; #@! TA.AperFunction,Plated,PTH,ComponentDrill
T4C0.0394
%
G90
G05
T1
X4.4272Y-2.1801
X4.4272Y-2.7904
X4.622Y-2.4291
X4.6314Y-2.2323
X4.6353Y-2.1496
X4.6693Y-2.5605
X4.6969Y-2.3504
X4.7717Y-2.2598
X4.8051Y-2.1801
X4.8051Y-2.7549
X4.8071Y-2.4449
X4.937Y-2.0157
X5.0Y-2.2992
X5.0Y-2.5118
X5.0118Y-2.127
X5.0265Y-2.4827
X5.03Y-2.3253
X5.0578Y-2.3531
X5.0583Y-2.4529
X5.0839Y-2.4231
X5.084Y-2.3837
X5.0984Y-2.1978
X5.1772Y-2.2372
X5.1811Y-2.7992
X5.2008Y-2.9291
X5.2579Y-2.9272
X5.2913Y-2.1929
X5.3031Y-2.2441
X5.3063Y-2.7235
X5.3071Y-2.7717
X5.311Y-2.1457
X5.3228Y-2.685
X5.3346Y-2.9478
X5.4488Y-2.7953
X5.5118Y-1.9882
X5.5118Y-2.3012
X5.5118Y-2.4409
X5.5276Y-2.1417
X5.5433Y-2.0118
X5.5709Y-2.1654
X5.6112Y-2.0827
X5.6457Y-2.2421
X5.6457Y-2.3071
X5.6693Y-2.1517
X5.6811Y-2.0827
X5.7047Y-2.811
X5.7913Y-2.5182
X5.8371Y-2.2717
X5.8622Y-2.9213
X5.9134Y-2.3228
X5.9277Y-2.6299
X6.0094Y-2.7835
X6.0094Y-2.8622
X6.0118Y-2.0039
X6.1457Y-2.3661
T4
X6.2323Y-2.3449
X6.2323Y-2.4449
X6.2323Y-2.5449
X6.2323Y-2.6449
X6.2323Y-2.7449
X6.2323Y-2.8449
X6.2323Y-2.9449
T2
G00X5.1663Y-2.0846
M15
G01X5.1663Y-2.0453
M16
G05
G00X5.4537Y-2.0846
M15
G01X5.4537Y-2.0453
M16
G05
T3
G00X5.1449Y-2.8311
M15
G01X5.1449Y-2.8705
M16
G05
G00X5.1449Y-3.0323
M15
G01X5.1449Y-3.0913
M16
G05
G00X5.485Y-2.8311
M15
G01X5.485Y-2.8705
M16
G05
G00X5.485Y-3.0323
M15
G01X5.485Y-3.0913
M16
G05
M30
