%TF.GenerationSoftware,KiCad,Pcbnew,8.0.5-dirty*%
%TF.CreationDate,2024-12-04T01:41:04-06:00*%
%TF.ProjectId,MicroSDV3,4d696372-6f53-4445-9633-2e6b69636164,rev?*%
%TF.SameCoordinates,Original*%
%TF.FileFunction,Copper,L4,Bot*%
%TF.FilePolarity,Positive*%
%FSLAX46Y46*%
G04 Gerber Fmt 4.6, Leading zero omitted, Abs format (unit mm)*
G04 Created by KiCad (PCBNEW 8.0.5-dirty) date 2024-12-04 01:41:04*
%MOMM*%
%LPD*%
G01*
G04 APERTURE LIST*
G04 Aperture macros list*
%AMRoundRect*
0 Rectangle with rounded corners*
0 $1 Rounding radius*
0 $2 $3 $4 $5 $6 $7 $8 $9 X,Y pos of 4 corners*
0 Add a 4 corners polygon primitive as box body*
4,1,4,$2,$3,$4,$5,$6,$7,$8,$9,$2,$3,0*
0 Add four circle primitives for the rounded corners*
1,1,$1+$1,$2,$3*
1,1,$1+$1,$4,$5*
1,1,$1+$1,$6,$7*
1,1,$1+$1,$8,$9*
0 Add four rect primitives between the rounded corners*
20,1,$1+$1,$2,$3,$4,$5,0*
20,1,$1+$1,$4,$5,$6,$7,0*
20,1,$1+$1,$6,$7,$8,$9,0*
20,1,$1+$1,$8,$9,$2,$3,0*%
G04 Aperture macros list end*
%TA.AperFunction,ComponentPad*%
%ADD10O,1.000000X2.000000*%
%TD*%
%TA.AperFunction,ComponentPad*%
%ADD11R,1.700000X1.700000*%
%TD*%
%TA.AperFunction,ComponentPad*%
%ADD12O,1.700000X1.700000*%
%TD*%
%TA.AperFunction,ComponentPad*%
%ADD13O,1.100000X2.100000*%
%TD*%
%TA.AperFunction,ComponentPad*%
%ADD14O,1.100000X2.600000*%
%TD*%
%TA.AperFunction,SMDPad,CuDef*%
%ADD15RoundRect,0.250000X0.350000X0.450000X-0.350000X0.450000X-0.350000X-0.450000X0.350000X-0.450000X0*%
%TD*%
%TA.AperFunction,SMDPad,CuDef*%
%ADD16RoundRect,0.250000X0.450000X-0.350000X0.450000X0.350000X-0.450000X0.350000X-0.450000X-0.350000X0*%
%TD*%
%TA.AperFunction,SMDPad,CuDef*%
%ADD17R,1.200000X0.400000*%
%TD*%
%TA.AperFunction,SMDPad,CuDef*%
%ADD18RoundRect,0.237500X0.237500X-0.250000X0.237500X0.250000X-0.237500X0.250000X-0.237500X-0.250000X0*%
%TD*%
%TA.AperFunction,SMDPad,CuDef*%
%ADD19RoundRect,0.250000X0.337500X0.475000X-0.337500X0.475000X-0.337500X-0.475000X0.337500X-0.475000X0*%
%TD*%
%TA.AperFunction,SMDPad,CuDef*%
%ADD20RoundRect,0.250000X0.475000X-0.337500X0.475000X0.337500X-0.475000X0.337500X-0.475000X-0.337500X0*%
%TD*%
%TA.AperFunction,SMDPad,CuDef*%
%ADD21RoundRect,0.250000X-0.337500X-0.475000X0.337500X-0.475000X0.337500X0.475000X-0.337500X0.475000X0*%
%TD*%
%TA.AperFunction,SMDPad,CuDef*%
%ADD22RoundRect,0.250000X-0.475000X0.337500X-0.475000X-0.337500X0.475000X-0.337500X0.475000X0.337500X0*%
%TD*%
%TA.AperFunction,SMDPad,CuDef*%
%ADD23RoundRect,0.100000X0.100000X-0.712500X0.100000X0.712500X-0.100000X0.712500X-0.100000X-0.712500X0*%
%TD*%
%TA.AperFunction,SMDPad,CuDef*%
%ADD24RoundRect,0.150000X0.150000X-0.512500X0.150000X0.512500X-0.150000X0.512500X-0.150000X-0.512500X0*%
%TD*%
%TA.AperFunction,SMDPad,CuDef*%
%ADD25RoundRect,0.250000X-0.350000X-0.450000X0.350000X-0.450000X0.350000X0.450000X-0.350000X0.450000X0*%
%TD*%
%TA.AperFunction,ViaPad*%
%ADD26C,0.800000*%
%TD*%
%TA.AperFunction,Conductor*%
%ADD27C,0.200000*%
%TD*%
%TA.AperFunction,Conductor*%
%ADD28C,0.500000*%
%TD*%
%TA.AperFunction,Conductor*%
%ADD29C,0.250000*%
%TD*%
%TA.AperFunction,Conductor*%
%ADD30C,0.104502*%
%TD*%
G04 APERTURE END LIST*
D10*
%TO.P,USB_C3.0_UP1,1,SHIELD*%
%TO.N,GND*%
X138525000Y-52450000D03*
X131225000Y-52450000D03*
%TD*%
D11*
%TO.P,J2,1,Pin_1*%
%TO.N,EXTERN3*%
X158300000Y-74800000D03*
D12*
%TO.P,J2,2,Pin_2*%
%TO.N,EXTERN2*%
X158300000Y-72260000D03*
%TO.P,J2,3,Pin_3*%
%TO.N,PROG*%
X158300000Y-69720000D03*
%TO.P,J2,4,Pin_4*%
%TO.N,EXTERN1*%
X158300000Y-67180000D03*
%TO.P,J2,5,Pin_5*%
%TO.N,VBUS*%
X158300000Y-64640000D03*
%TO.P,J2,6,Pin_6*%
%TO.N,3.3V*%
X158300000Y-62100000D03*
%TO.P,J2,7,Pin_7*%
%TO.N,GND*%
X158300000Y-59560000D03*
%TD*%
D13*
%TO.P,U4,S1,SHIELD*%
%TO.N,unconnected-(U4-SHIELD-PadS1)*%
X130680000Y-72410000D03*
D14*
X130680000Y-77770000D03*
D13*
X139320000Y-72410000D03*
D14*
X139320000Y-77770000D03*
%TD*%
D15*
%TO.P,FB1,1*%
%TO.N,VBUS*%
X152600000Y-68725000D03*
%TO.P,FB1,2*%
%TO.N,5V*%
X150600000Y-68725000D03*
%TD*%
D16*
%TO.P,R3,1*%
%TO.N,GND*%
X144900000Y-71400000D03*
%TO.P,R3,2*%
%TO.N,FB*%
X144900000Y-69400000D03*
%TD*%
D17*
%TO.P,U2,1,Vss*%
%TO.N,GND*%
X125900000Y-58900000D03*
%TO.P,U2,2,D1*%
%TO.N,Net-(U2-D1)*%
X125900000Y-59535000D03*
%TO.P,U2,3,D0*%
%TO.N,Net-(U2-D0)*%
X125900000Y-60170000D03*
%TO.P,U2,4,CLK*%
%TO.N,Net-(U2-CLK)*%
X125900000Y-60805000D03*
%TO.P,U2,5,CMD*%
%TO.N,Net-(U2-CMD)*%
X125900000Y-61440000D03*
%TO.P,U2,6,D3*%
%TO.N,Net-(U2-D3)*%
X125900000Y-62075000D03*
%TO.P,U2,7,D2*%
%TO.N,Net-(U2-D2)*%
X125900000Y-62710000D03*
%TO.P,U2,8,PMOS*%
%TO.N,Net-(U2-PMOS)*%
X125900000Y-63345000D03*
%TO.P,U2,9,VDD*%
%TO.N,3.3V*%
X120700000Y-63345000D03*
%TO.P,U2,10,5V*%
%TO.N,VBUS*%
X120700000Y-62710000D03*
%TO.P,U2,11,GPIO*%
%TO.N,unconnected-(U2-GPIO-Pad11)*%
X120700000Y-62075000D03*
%TO.P,U2,12,LED*%
%TO.N,Net-(U2-LED)*%
X120700000Y-61440000D03*
%TO.P,U2,13,VDDA*%
%TO.N,3.3V*%
X120700000Y-60805000D03*
%TO.P,U2,14,Vss*%
%TO.N,GND*%
X120700000Y-60170000D03*
%TO.P,U2,15,DP*%
%TO.N,/D2+*%
X120700000Y-59535000D03*
%TO.P,U2,16,DM*%
%TO.N,/D2-*%
X120700000Y-58900000D03*
%TD*%
D18*
%TO.P,R1,1*%
%TO.N,Net-(U1-XI)*%
X141500000Y-59325000D03*
%TO.P,R1,2*%
%TO.N,GND*%
X141500000Y-57500000D03*
%TD*%
D19*
%TO.P,C10,1*%
%TO.N,VBUS*%
X152637500Y-66800000D03*
%TO.P,C10,2*%
%TO.N,GND*%
X150562500Y-66800000D03*
%TD*%
D20*
%TO.P,C9,1*%
%TO.N,3.3V*%
X147100000Y-66037500D03*
%TO.P,C9,2*%
%TO.N,GND*%
X147100000Y-63962500D03*
%TD*%
D21*
%TO.P,C2,1*%
%TO.N,3.3V*%
X115700000Y-56600000D03*
%TO.P,C2,2*%
%TO.N,GND*%
X117775000Y-56600000D03*
%TD*%
D20*
%TO.P,C3,1*%
%TO.N,GND*%
X118600000Y-65037500D03*
%TO.P,C3,2*%
%TO.N,VBUS*%
X118600000Y-62962500D03*
%TD*%
D22*
%TO.P,C7,1*%
%TO.N,GND*%
X127300000Y-54025000D03*
%TO.P,C7,2*%
%TO.N,3.3V*%
X127300000Y-56100000D03*
%TD*%
D16*
%TO.P,R1,1*%
%TO.N,FB*%
X144900000Y-67500000D03*
%TO.P,R1,2*%
%TO.N,3.3V*%
X144900000Y-65500000D03*
%TD*%
D20*
%TO.P,C5,1*%
%TO.N,3.3V*%
X129500000Y-57900000D03*
%TO.P,C5,2*%
%TO.N,GND*%
X129500000Y-55825000D03*
%TD*%
D21*
%TO.P,C12,1*%
%TO.N,5V*%
X150562500Y-72700000D03*
%TO.P,C12,2*%
%TO.N,GND*%
X152637500Y-72700000D03*
%TD*%
%TO.P,C11,1*%
%TO.N,5V*%
X150562500Y-70700000D03*
%TO.P,C11,2*%
%TO.N,GND*%
X152637500Y-70700000D03*
%TD*%
D23*
%TO.P,U1,1,DM4-*%
%TO.N,/D4-*%
X138370000Y-64175000D03*
%TO.P,U1,2,DP4+*%
%TO.N,/D4+*%
X137735000Y-64175000D03*
%TO.P,U1,3,DM3-*%
%TO.N,/D3-*%
X137100000Y-64175000D03*
%TO.P,U1,4,DP3+*%
%TO.N,/D3+*%
X136465000Y-64175000D03*
%TO.P,U1,5,DM2-*%
%TO.N,/D2-*%
X135830000Y-64175000D03*
%TO.P,U1,6,DP2+*%
%TO.N,/D2+*%
X135195000Y-64175000D03*
%TO.P,U1,7,DM1-*%
%TO.N,/D1-*%
X134560000Y-64175000D03*
%TO.P,U1,8,DP1+*%
%TO.N,/D1+*%
X133925000Y-64175000D03*
%TO.P,U1,9,~{RESET}/CDP*%
%TO.N,unconnected-(U1-~{RESET}{slash}CDP-Pad9)*%
X133925000Y-58900000D03*
%TO.P,U1,10,DMU-*%
%TO.N,/UPD-*%
X134560000Y-58900000D03*
%TO.P,U1,11,DPU+*%
%TO.N,/UPD+*%
X135195000Y-58900000D03*
%TO.P,U1,12,V5*%
%TO.N,3.3V*%
X135830000Y-58900000D03*
%TO.P,U1,13,VDD33*%
X136465000Y-58900000D03*
%TO.P,U1,14,GND*%
%TO.N,GND*%
X137100000Y-58900000D03*
%TO.P,U1,15,XO*%
%TO.N,unconnected-(U1-XO-Pad15)*%
X137735000Y-58900000D03*
%TO.P,U1,16,XI*%
%TO.N,GND*%
X138370000Y-58900000D03*
%TD*%
D21*
%TO.P,C4,1*%
%TO.N,3.3V*%
X115662500Y-54600000D03*
%TO.P,C4,2*%
%TO.N,GND*%
X117737500Y-54600000D03*
%TD*%
D24*
%TO.P,U7,1,Vin*%
%TO.N,5V*%
X148650000Y-70375000D03*
%TO.P,U7,2,GND*%
%TO.N,GND*%
X147700000Y-70375000D03*
%TO.P,U7,3,EN*%
%TO.N,EXTERN1*%
X146750000Y-70375000D03*
%TO.P,U7,4,FB*%
%TO.N,FB*%
X146750000Y-68100000D03*
%TO.P,U7,5,Vout*%
%TO.N,3.3V*%
X148650000Y-68100000D03*
%TD*%
D25*
%TO.P,R2,1*%
%TO.N,Net-(D1-K)*%
X118000000Y-52300000D03*
%TO.P,R2,2*%
%TO.N,Net-(U2-LED)*%
X120000000Y-52300000D03*
%TD*%
D21*
%TO.P,C6,1*%
%TO.N,VBUS*%
X140562500Y-53200000D03*
%TO.P,C6,2*%
%TO.N,GND*%
X142637500Y-53200000D03*
%TD*%
D15*
%TO.P,D1,1,K*%
%TO.N,Net-(D1-K)*%
X115600000Y-52300000D03*
%TO.P,D1,2,A*%
%TO.N,3.3V*%
X113600000Y-52300000D03*
%TD*%
D20*
%TO.P,C1,1*%
%TO.N,3.3V*%
X131500000Y-58900000D03*
%TO.P,C1,2*%
%TO.N,GND*%
X131500000Y-56825000D03*
%TD*%
D26*
%TO.N,GND*%
X127300000Y-54025000D03*
X140000000Y-58450003D03*
X144300000Y-52900000D03*
X150562500Y-66800000D03*
X131600000Y-71100000D03*
X131500000Y-56825000D03*
X117637500Y-56700000D03*
X148262500Y-57700000D03*
X112450000Y-70875000D03*
X140000000Y-62000000D03*
X119300000Y-59700000D03*
X118600000Y-65037500D03*
X147100000Y-63962500D03*
X152637500Y-72700000D03*
X148900000Y-74200000D03*
X127000000Y-58400000D03*
X117737500Y-54600000D03*
X122050000Y-55375000D03*
X144900000Y-71400000D03*
X129500000Y-55825000D03*
X121200000Y-57400000D03*
X156100000Y-60100000D03*
X142525000Y-52900000D03*
X112450000Y-55375000D03*
X122050000Y-69975000D03*
X152637500Y-70700000D03*
X138400000Y-71000000D03*
%TO.N,3.3V*%
X122100000Y-62100000D03*
X150200000Y-59000000D03*
%TO.N,/D1-*%
X135500000Y-74875000D03*
X134780222Y-69176669D03*
%TO.N,/UPD-*%
X134700000Y-57000000D03*
%TO.N,/UPD+*%
X134900000Y-54500000D03*
%TO.N,/D1+*%
X134800000Y-70400000D03*
%TO.N,Net-(U2-CMD)*%
X129131341Y-61546241D03*
%TO.N,Net-(U2-D0)*%
X128469125Y-59769125D03*
%TO.N,Net-(U2-PMOS)*%
X127000000Y-63800000D03*
%TO.N,Net-(U2-CLK)*%
X129132802Y-60546239D03*
%TO.N,Net-(U2-D1)*%
X127762017Y-59062017D03*
%TO.N,Net-(U2-D2)*%
X127674044Y-63061305D03*
%TO.N,Net-(U2-D3)*%
X128479859Y-62304908D03*
%TO.N,VBUS*%
X140400000Y-54400000D03*
X140000000Y-50500000D03*
X152700000Y-50900000D03*
X117400000Y-61700000D03*
X140800000Y-51100000D03*
X125400000Y-51200000D03*
%TO.N,CC1*%
X134400000Y-55700000D03*
X143400000Y-56950000D03*
%TO.N,CC1_DOWN*%
X143400000Y-58600000D03*
X135200000Y-68200000D03*
%TO.N,CC1_PD*%
X141500000Y-55000000D03*
X144000000Y-54652500D03*
%TO.N,/B_RX-*%
X132100000Y-74400000D03*
X133550000Y-74350000D03*
%TD*%
D27*
%TO.N,GND*%
X140950003Y-57500000D02*
X140000000Y-58450003D01*
X140000000Y-58450003D02*
X140100000Y-58550003D01*
X139750003Y-58450003D02*
X139000000Y-57700000D01*
X119770000Y-60170000D02*
X119300000Y-59700000D01*
X127000000Y-58400000D02*
X126500000Y-58900000D01*
D28*
X147700000Y-71900000D02*
X148900000Y-73100000D01*
D27*
X137100000Y-58087501D02*
X137100000Y-58900000D01*
X139000000Y-57700000D02*
X137487501Y-57700000D01*
D28*
X148900000Y-73100000D02*
X148900000Y-74200000D01*
D27*
X137487501Y-57700000D02*
X137100000Y-58087501D01*
X141500000Y-57500000D02*
X140950003Y-57500000D01*
D28*
X147700000Y-70375000D02*
X147700000Y-71900000D01*
D27*
X140100000Y-58550003D02*
X140100000Y-58600000D01*
D29*
X148900000Y-74200000D02*
X148900000Y-74300000D01*
D27*
X126500000Y-58900000D02*
X125900000Y-58900000D01*
X140000000Y-58450003D02*
X139750003Y-58450003D01*
X120700000Y-60170000D02*
X119770000Y-60170000D01*
D29*
%TO.N,Net-(D1-K)*%
X115600000Y-52300000D02*
X118000000Y-52300000D01*
D27*
%TO.N,Net-(U1-XI)*%
X138370000Y-58900000D02*
X138370000Y-58430000D01*
X140075000Y-59325000D02*
X141500000Y-59325000D01*
X138370000Y-58430000D02*
X138500000Y-58300000D01*
X139600000Y-59400000D02*
X140000000Y-59400000D01*
X138500000Y-58300000D02*
X139600000Y-59400000D01*
X140000000Y-59400000D02*
X140075000Y-59325000D01*
X140000000Y-59400000D02*
X140100000Y-59400000D01*
D29*
%TO.N,Net-(U2-LED)*%
X118400000Y-60700000D02*
X119140000Y-61440000D01*
X120000000Y-56800000D02*
X118400000Y-58400000D01*
X118400000Y-58400000D02*
X118400000Y-60700000D01*
X120000000Y-52300000D02*
X120000000Y-56800000D01*
X119140000Y-61440000D02*
X120700000Y-61440000D01*
D27*
%TO.N,/D1-*%
X134467500Y-68863947D02*
X134467500Y-67500000D01*
X134780222Y-69176669D02*
X134467500Y-68863947D01*
X134780222Y-69176669D02*
X135500000Y-69896447D01*
X135500000Y-74875000D02*
X135500000Y-69896447D01*
X134560000Y-65393751D02*
X134560000Y-64175000D01*
X134467500Y-67500000D02*
X134467500Y-65486251D01*
X134467500Y-65486251D02*
X134560000Y-65393751D01*
%TO.N,/UPD-*%
X134560000Y-57140000D02*
X134700000Y-57000000D01*
X134560000Y-58900000D02*
X134560000Y-57140000D01*
%TO.N,/UPD+*%
X135300000Y-56610050D02*
X135400000Y-56710050D01*
X135300000Y-54900000D02*
X135300000Y-56610050D01*
X135400000Y-56710050D02*
X135400000Y-57289950D01*
X135195000Y-57494950D02*
X135195000Y-58900000D01*
X134900000Y-54500000D02*
X135300000Y-54900000D01*
X135400000Y-57289950D02*
X135195000Y-57494950D01*
%TO.N,/D2+*%
X129711144Y-64607056D02*
X128693200Y-65625000D01*
X124024300Y-59442500D02*
X121692501Y-59442500D01*
X135287500Y-63470000D02*
X135287500Y-63205039D01*
X121600001Y-59535000D02*
X120700000Y-59535000D01*
X124375000Y-59793200D02*
X124024300Y-59442500D01*
X125906800Y-65625000D02*
X124375000Y-64093200D01*
X135195000Y-64175000D02*
X135195000Y-63562500D01*
X128693200Y-65625000D02*
X125906800Y-65625000D01*
X135287500Y-63205039D02*
X134902239Y-62819778D01*
X129822891Y-64495309D02*
X129711144Y-64607056D01*
X135195000Y-63562500D02*
X135287500Y-63470000D01*
X131131040Y-63526572D02*
X131200891Y-63596423D01*
X130367366Y-63950838D02*
X130282511Y-64035690D01*
X130282511Y-64035690D02*
X129822891Y-64495309D01*
X134902239Y-62819778D02*
X131498422Y-62819778D01*
X121692501Y-59442500D02*
X121600001Y-59535000D01*
X130776626Y-64020689D02*
X130706776Y-63950839D01*
X131498422Y-62819778D02*
X131131040Y-63187160D01*
X131200890Y-63935835D02*
X131116038Y-64020688D01*
X124375000Y-64093200D02*
X124375000Y-59793200D01*
X131131040Y-63187160D02*
G75*
G03*
X131131006Y-63526606I169660J-169740D01*
G01*
X131116038Y-64020688D02*
G75*
G02*
X130776594Y-64020721I-169738J169688D01*
G01*
X130706776Y-63950839D02*
G75*
G03*
X130367396Y-63950867I-169676J-169661D01*
G01*
X131200891Y-63596423D02*
G75*
G02*
X131200862Y-63935806I-169691J-169677D01*
G01*
%TO.N,/D1+*%
X134800000Y-70186397D02*
X134800000Y-70400000D01*
X134017500Y-69403897D02*
X134800000Y-70186397D01*
X133925000Y-65393751D02*
X134017500Y-65486251D01*
X134017500Y-65486251D02*
X134017500Y-69403897D01*
X133925000Y-64175000D02*
X133925000Y-65393751D01*
%TO.N,/D2-*%
X126093200Y-65175000D02*
X128506800Y-65175000D01*
X135830000Y-63562500D02*
X135830000Y-64175000D01*
X124210700Y-58992500D02*
X124825000Y-59606800D01*
X135737500Y-63470000D02*
X135830000Y-63562500D01*
X124825000Y-63906800D02*
X126093200Y-65175000D01*
X131312022Y-62369778D02*
X135088639Y-62369778D01*
X121692501Y-58992500D02*
X124210700Y-58992500D01*
X121600001Y-58900000D02*
X121692501Y-58992500D01*
X124825000Y-59606800D02*
X124825000Y-63906800D01*
X135737500Y-63018639D02*
X135737500Y-63470000D01*
X128506800Y-65175000D02*
X131312022Y-62369778D01*
X135088639Y-62369778D02*
X135737500Y-63018639D01*
X120700000Y-58900000D02*
X121600001Y-58900000D01*
D29*
%TO.N,Net-(U2-CMD)*%
X129131341Y-61546241D02*
X129025100Y-61440000D01*
X129025100Y-61440000D02*
X125900000Y-61440000D01*
D27*
%TO.N,Net-(U2-D0)*%
X128469125Y-59769125D02*
X128068250Y-60170000D01*
X128068250Y-60170000D02*
X125900000Y-60170000D01*
%TO.N,Net-(U2-PMOS)*%
X125900000Y-63345000D02*
X126545000Y-63345000D01*
X126545000Y-63345000D02*
X127000000Y-63800000D01*
%TO.N,Net-(U2-CLK)*%
X128874041Y-60805000D02*
X125900000Y-60805000D01*
X129132802Y-60546239D02*
X128874041Y-60805000D01*
%TO.N,Net-(U2-D1)*%
X127762017Y-59062017D02*
X127289034Y-59535000D01*
X127289034Y-59535000D02*
X125900000Y-59535000D01*
%TO.N,Net-(U2-D2)*%
X127322739Y-62710000D02*
X125900000Y-62710000D01*
X127674044Y-63061305D02*
X127322739Y-62710000D01*
%TO.N,Net-(U2-D3)*%
X128249951Y-62075000D02*
X125900000Y-62075000D01*
X128479859Y-62304908D02*
X128249951Y-62075000D01*
%TO.N,CC1*%
X142239576Y-56950000D02*
X141977076Y-56687500D01*
X140487500Y-56687500D02*
X137500000Y-53700000D01*
X141977076Y-56687500D02*
X140487500Y-56687500D01*
X134175000Y-55475000D02*
X134400000Y-55700000D01*
X143400000Y-56950000D02*
X142239576Y-56950000D01*
X137500000Y-53700000D02*
X134674695Y-53700000D01*
X134674695Y-53700000D02*
X134175000Y-54199695D01*
X134175000Y-54199695D02*
X134175000Y-55475000D01*
%TO.N,CC1_DOWN*%
X135200000Y-68200000D02*
X135200000Y-66900000D01*
X135200000Y-66900000D02*
X135500000Y-66600000D01*
X135500000Y-66600000D02*
X142600000Y-66600000D01*
X143400000Y-65800000D02*
X143400000Y-58600000D01*
X142600000Y-66600000D02*
X143400000Y-65800000D01*
%TO.N,CC1_PD*%
X141847500Y-54652500D02*
X141500000Y-55000000D01*
X144000000Y-54652500D02*
X141847500Y-54652500D01*
D30*
%TO.N,/B_RX-*%
X133550000Y-74350000D02*
X132150000Y-74350000D01*
X132150000Y-74350000D02*
X132100000Y-74400000D01*
D29*
%TO.N,EXTERN1*%
X153700000Y-68700000D02*
X154600000Y-67800000D01*
X155120000Y-67180000D02*
X158300000Y-67180000D01*
X146750000Y-73075305D02*
X148674695Y-75000000D01*
X146750000Y-70375000D02*
X146750000Y-73075305D01*
X152000000Y-75000000D02*
X153700000Y-73300000D01*
X153700000Y-73300000D02*
X153700000Y-68700000D01*
X154600000Y-67700000D02*
X155120000Y-67180000D01*
X148674695Y-75000000D02*
X152000000Y-75000000D01*
X154600000Y-67800000D02*
X154600000Y-67700000D01*
%TD*%
%TA.AperFunction,Conductor*%
%TO.N,VBUS*%
G36*
X141300236Y-50000002D02*
G01*
X153038344Y-50099477D01*
X153082380Y-50118157D01*
X153100312Y-50161658D01*
X153199681Y-69737183D01*
X153181600Y-69781469D01*
X153137499Y-69799999D01*
X153137182Y-69800000D01*
X153135038Y-69800000D01*
X153114396Y-69796493D01*
X153059701Y-69777354D01*
X153059696Y-69777353D01*
X153039699Y-69775478D01*
X153029266Y-69774500D01*
X152245734Y-69774500D01*
X152236124Y-69775401D01*
X152215303Y-69777353D01*
X152215298Y-69777354D01*
X152160604Y-69796493D01*
X152139962Y-69800000D01*
X151762153Y-69800000D01*
X151717959Y-69781694D01*
X151699654Y-69737848D01*
X151624779Y-56300000D01*
X151600157Y-51880993D01*
X151519794Y-51880361D01*
X141300000Y-51799999D01*
X141300000Y-54391104D01*
X141281694Y-54435298D01*
X141261418Y-54448846D01*
X141197161Y-54475462D01*
X141071717Y-54571717D01*
X140975464Y-54697158D01*
X140975462Y-54697161D01*
X140914957Y-54843234D01*
X140914954Y-54843244D01*
X140894318Y-54999998D01*
X140894318Y-55000001D01*
X140914954Y-55156755D01*
X140914957Y-55156765D01*
X140975462Y-55302838D01*
X140975464Y-55302841D01*
X141071717Y-55428282D01*
X141167971Y-55502139D01*
X141197159Y-55524536D01*
X141343238Y-55585044D01*
X141343242Y-55585044D01*
X141343244Y-55585045D01*
X141499998Y-55605682D01*
X141500000Y-55605682D01*
X141500002Y-55605682D01*
X141656755Y-55585045D01*
X141656755Y-55585044D01*
X141656762Y-55585044D01*
X141768378Y-55538810D01*
X141816214Y-55538810D01*
X141850038Y-55572635D01*
X141853308Y-55610111D01*
X141710876Y-56251058D01*
X141683419Y-56290229D01*
X141649864Y-56300000D01*
X140730038Y-56300000D01*
X140685844Y-56281694D01*
X140681234Y-56276543D01*
X140144545Y-55605682D01*
X139513696Y-54817120D01*
X139500000Y-54778077D01*
X139500000Y-50062500D01*
X139518306Y-50018306D01*
X139562500Y-50000000D01*
X141299706Y-50000000D01*
X141300236Y-50000002D01*
G37*
%TD.AperFunction*%
%TD*%
%TA.AperFunction,Conductor*%
%TO.N,5V*%
G36*
X151181694Y-68018306D02*
G01*
X151200000Y-68062500D01*
X151200000Y-73337500D01*
X151181694Y-73381694D01*
X151137500Y-73400000D01*
X150025888Y-73400000D01*
X149981694Y-73381694D01*
X148318306Y-71718306D01*
X148300000Y-71674112D01*
X148300000Y-69825888D01*
X148318306Y-69781694D01*
X150081694Y-68018306D01*
X150125888Y-68000000D01*
X151137500Y-68000000D01*
X151181694Y-68018306D01*
G37*
%TD.AperFunction*%
%TD*%
%TA.AperFunction,Conductor*%
%TO.N,FB*%
G36*
X145510610Y-66903978D02*
G01*
X147059446Y-67484792D01*
X147094398Y-67517449D01*
X147100000Y-67543312D01*
X147100000Y-68570252D01*
X147081694Y-68614446D01*
X147076912Y-68618759D01*
X145517222Y-69886007D01*
X145477810Y-69900000D01*
X144362500Y-69900000D01*
X144318306Y-69881694D01*
X144300000Y-69837500D01*
X144300000Y-66962500D01*
X144318306Y-66918306D01*
X144362500Y-66900000D01*
X145488666Y-66900000D01*
X145510610Y-66903978D01*
G37*
%TD.AperFunction*%
%TD*%
%TA.AperFunction,Conductor*%
%TO.N,3.3V*%
G36*
X149800000Y-66175580D02*
G01*
X149777354Y-66240298D01*
X149777353Y-66240303D01*
X149774500Y-66270737D01*
X149774500Y-67329262D01*
X149777353Y-67359696D01*
X149777354Y-67359701D01*
X149800000Y-67424418D01*
X149800000Y-67600000D01*
X148900000Y-68700000D01*
X147400000Y-68700000D01*
X147400000Y-67400000D01*
X146300000Y-66900000D01*
X146300000Y-65800000D01*
X149800000Y-65800000D01*
X149800000Y-66175580D01*
G37*
%TD.AperFunction*%
%TD*%
%TA.AperFunction,Conductor*%
%TO.N,VBUS*%
G36*
X118222552Y-61119685D02*
G01*
X118234341Y-61128281D01*
X119900000Y-62500000D01*
X121176000Y-62500000D01*
X121243039Y-62519685D01*
X121288794Y-62572489D01*
X121300000Y-62624000D01*
X121300000Y-62776000D01*
X121280315Y-62843039D01*
X121227511Y-62888794D01*
X121176000Y-62900000D01*
X120000000Y-62900000D01*
X119537090Y-63548074D01*
X119482106Y-63591184D01*
X119436187Y-63600000D01*
X116424000Y-63600000D01*
X116356961Y-63580315D01*
X116311206Y-63527511D01*
X116300000Y-63476000D01*
X116300000Y-61224000D01*
X116319685Y-61156961D01*
X116372489Y-61111206D01*
X116424000Y-61100000D01*
X118155513Y-61100000D01*
X118222552Y-61119685D01*
G37*
%TD.AperFunction*%
%TD*%
%TA.AperFunction,Conductor*%
%TO.N,3.3V*%
G36*
X139237539Y-50019685D02*
G01*
X139283294Y-50072489D01*
X139294500Y-50124000D01*
X139294500Y-51431998D01*
X139274815Y-51499037D01*
X139222011Y-51544792D01*
X139152853Y-51554736D01*
X139089297Y-51525711D01*
X139073464Y-51507766D01*
X139072978Y-51508166D01*
X139069111Y-51503454D01*
X138971545Y-51405888D01*
X138971541Y-51405885D01*
X138856817Y-51329228D01*
X138856804Y-51329221D01*
X138729332Y-51276421D01*
X138729322Y-51276418D01*
X138593995Y-51249500D01*
X138593993Y-51249500D01*
X138456007Y-51249500D01*
X138456005Y-51249500D01*
X138320677Y-51276418D01*
X138320667Y-51276421D01*
X138193195Y-51329221D01*
X138193182Y-51329228D01*
X138078458Y-51405885D01*
X138078454Y-51405888D01*
X137980888Y-51503454D01*
X137980885Y-51503458D01*
X137904228Y-51618182D01*
X137904221Y-51618195D01*
X137851421Y-51745667D01*
X137851418Y-51745677D01*
X137824500Y-51881004D01*
X137824500Y-51881007D01*
X137824500Y-53018993D01*
X137824500Y-53018995D01*
X137824499Y-53018995D01*
X137851418Y-53154322D01*
X137851421Y-53154332D01*
X137904221Y-53281804D01*
X137904228Y-53281817D01*
X137980885Y-53396541D01*
X137980888Y-53396545D01*
X138078454Y-53494111D01*
X138078458Y-53494114D01*
X138193182Y-53570771D01*
X138193195Y-53570778D01*
X138320667Y-53623578D01*
X138320672Y-53623580D01*
X138320676Y-53623580D01*
X138320677Y-53623581D01*
X138456004Y-53650500D01*
X138456007Y-53650500D01*
X138593995Y-53650500D01*
X138685041Y-53632389D01*
X138729328Y-53623580D01*
X138856811Y-53570775D01*
X138971542Y-53494114D01*
X139069114Y-53396542D01*
X139069116Y-53396538D01*
X139072978Y-53391834D01*
X139074557Y-53393130D01*
X139120996Y-53354311D01*
X139190320Y-53345595D01*
X139253351Y-53375742D01*
X139290078Y-53435181D01*
X139294500Y-53468001D01*
X139294500Y-54770167D01*
X139274815Y-54837206D01*
X139222011Y-54882961D01*
X139152853Y-54892905D01*
X139089297Y-54863880D01*
X139082819Y-54857848D01*
X137684512Y-53459541D01*
X137684504Y-53459535D01*
X137650590Y-53439955D01*
X137650586Y-53439954D01*
X137638514Y-53432984D01*
X137615990Y-53419979D01*
X137615991Y-53419979D01*
X137577775Y-53409739D01*
X137539562Y-53399500D01*
X134635133Y-53399500D01*
X134584181Y-53413152D01*
X134558705Y-53419979D01*
X134532375Y-53435181D01*
X134524109Y-53439954D01*
X134524107Y-53439955D01*
X134524105Y-53439955D01*
X134490190Y-53459535D01*
X134490182Y-53459541D01*
X133934541Y-54015182D01*
X133934535Y-54015190D01*
X133894982Y-54083699D01*
X133894979Y-54083704D01*
X133887676Y-54110959D01*
X133878074Y-54146797D01*
X133874500Y-54160134D01*
X133874500Y-55374820D01*
X133865061Y-55422272D01*
X133814957Y-55543234D01*
X133814955Y-55543239D01*
X133794318Y-55699998D01*
X133794318Y-55700001D01*
X133814955Y-55856760D01*
X133814956Y-55856762D01*
X133875464Y-56002841D01*
X133971718Y-56128282D01*
X134097159Y-56224536D01*
X134243238Y-56285044D01*
X134289634Y-56291152D01*
X134353531Y-56319418D01*
X134392002Y-56377743D01*
X134392833Y-56447608D01*
X134355761Y-56506831D01*
X134348936Y-56512466D01*
X134271720Y-56571716D01*
X134271719Y-56571717D01*
X134271718Y-56571718D01*
X134212034Y-56649500D01*
X134175463Y-56697160D01*
X134114956Y-56843237D01*
X134114955Y-56843239D01*
X134094318Y-56999998D01*
X134094318Y-57000001D01*
X134114955Y-57156760D01*
X134114957Y-57156765D01*
X134175461Y-57302836D01*
X134175461Y-57302837D01*
X134175463Y-57302840D01*
X134175464Y-57302841D01*
X134233876Y-57378966D01*
X134259070Y-57444133D01*
X134259500Y-57454450D01*
X134259500Y-57772428D01*
X134239815Y-57839467D01*
X134187011Y-57885222D01*
X134117853Y-57895166D01*
X134102951Y-57892080D01*
X134094994Y-57889915D01*
X134069865Y-57887000D01*
X133780143Y-57887000D01*
X133780117Y-57887002D01*
X133755012Y-57889913D01*
X133755008Y-57889915D01*
X133652235Y-57935293D01*
X133572794Y-58014734D01*
X133527415Y-58117506D01*
X133527415Y-58117508D01*
X133524500Y-58142631D01*
X133524500Y-59657356D01*
X133524502Y-59657382D01*
X133527413Y-59682487D01*
X133527415Y-59682491D01*
X133572793Y-59785264D01*
X133572794Y-59785265D01*
X133652235Y-59864706D01*
X133755009Y-59910085D01*
X133780135Y-59913000D01*
X134069864Y-59912999D01*
X134069879Y-59912997D01*
X134069882Y-59912997D01*
X134094987Y-59910086D01*
X134094987Y-59910085D01*
X134094991Y-59910085D01*
X134192417Y-59867067D01*
X134261690Y-59857996D01*
X134292581Y-59867066D01*
X134390009Y-59910085D01*
X134415135Y-59913000D01*
X134704864Y-59912999D01*
X134704879Y-59912997D01*
X134704882Y-59912997D01*
X134729987Y-59910086D01*
X134729987Y-59910085D01*
X134729991Y-59910085D01*
X134827417Y-59867067D01*
X134896690Y-59857996D01*
X134927581Y-59867066D01*
X135025009Y-59910085D01*
X135050135Y-59913000D01*
X135339864Y-59912999D01*
X135339879Y-59912997D01*
X135339882Y-59912997D01*
X135364987Y-59910086D01*
X135364988Y-59910085D01*
X135364991Y-59910085D01*
X135467765Y-59864706D01*
X135547206Y-59785265D01*
X135592585Y-59682491D01*
X135595500Y-59657365D01*
X135595499Y-58142636D01*
X135595381Y-58141615D01*
X135592586Y-58117512D01*
X135592585Y-58117510D01*
X135592585Y-58117509D01*
X135547206Y-58014735D01*
X135531819Y-57999348D01*
X135498334Y-57938025D01*
X135495500Y-57911667D01*
X135495500Y-57670783D01*
X135515185Y-57603744D01*
X135531819Y-57583102D01*
X135579878Y-57535043D01*
X135640460Y-57474461D01*
X135680022Y-57405938D01*
X135700500Y-57329512D01*
X135700500Y-57250388D01*
X135700500Y-56670488D01*
X135680021Y-56594061D01*
X135680017Y-56594054D01*
X135640464Y-56525545D01*
X135640458Y-56525537D01*
X135636819Y-56521898D01*
X135603334Y-56460575D01*
X135600500Y-56434217D01*
X135600500Y-54860439D01*
X135594275Y-54837206D01*
X135580021Y-54784011D01*
X135569214Y-54765292D01*
X135540464Y-54715495D01*
X135540458Y-54715487D01*
X135527898Y-54702927D01*
X135494413Y-54641604D01*
X135492640Y-54599063D01*
X135505682Y-54500000D01*
X135501165Y-54465693D01*
X135488894Y-54372479D01*
X135485044Y-54343238D01*
X135424536Y-54197159D01*
X135424534Y-54197156D01*
X135420472Y-54190119D01*
X135422448Y-54188977D01*
X135401511Y-54134807D01*
X135415555Y-54066363D01*
X135464373Y-54016377D01*
X135525082Y-54000500D01*
X137324167Y-54000500D01*
X137391206Y-54020185D01*
X137411848Y-54036819D01*
X140247040Y-56872011D01*
X140302989Y-56927960D01*
X140302991Y-56927961D01*
X140302995Y-56927964D01*
X140341165Y-56950001D01*
X140371511Y-56967521D01*
X140447938Y-56988000D01*
X140715376Y-56988000D01*
X140782415Y-57007685D01*
X140828170Y-57060489D01*
X140838114Y-57129647D01*
X140832417Y-57152957D01*
X140827273Y-57167654D01*
X140825665Y-57175020D01*
X140823232Y-57174488D01*
X140801804Y-57228241D01*
X140771742Y-57254329D01*
X140771943Y-57254590D01*
X140767615Y-57257911D01*
X140766229Y-57259114D01*
X140765495Y-57259537D01*
X140765490Y-57259541D01*
X140202926Y-57822104D01*
X140141603Y-57855589D01*
X140099060Y-57857362D01*
X140000001Y-57844321D01*
X139999999Y-57844321D01*
X139843239Y-57864958D01*
X139843234Y-57864960D01*
X139740668Y-57907444D01*
X139671199Y-57914913D01*
X139608720Y-57883637D01*
X139605535Y-57880564D01*
X139184513Y-57459541D01*
X139184511Y-57459539D01*
X139177318Y-57455387D01*
X139177316Y-57455386D01*
X139115989Y-57419979D01*
X139039562Y-57399500D01*
X137447939Y-57399500D01*
X137399950Y-57412359D01*
X137371511Y-57419979D01*
X137331583Y-57443031D01*
X137310184Y-57455386D01*
X137310183Y-57455387D01*
X137302989Y-57459539D01*
X137302987Y-57459541D01*
X136915489Y-57847041D01*
X136859538Y-57902991D01*
X136855094Y-57908783D01*
X136829415Y-57933113D01*
X136747793Y-58014736D01*
X136702415Y-58117506D01*
X136702415Y-58117508D01*
X136699500Y-58142631D01*
X136699500Y-59657356D01*
X136699502Y-59657382D01*
X136702413Y-59682487D01*
X136702415Y-59682491D01*
X136747793Y-59785264D01*
X136747794Y-59785265D01*
X136827235Y-59864706D01*
X136930009Y-59910085D01*
X136955135Y-59913000D01*
X137244864Y-59912999D01*
X137244879Y-59912997D01*
X137244882Y-59912997D01*
X137269987Y-59910086D01*
X137269987Y-59910085D01*
X137269991Y-59910085D01*
X137367417Y-59867067D01*
X137436690Y-59857996D01*
X137467581Y-59867066D01*
X137565009Y-59910085D01*
X137590135Y-59913000D01*
X137879864Y-59912999D01*
X137879879Y-59912997D01*
X137879882Y-59912997D01*
X137904987Y-59910086D01*
X137904987Y-59910085D01*
X137904991Y-59910085D01*
X138002417Y-59867067D01*
X138071690Y-59857996D01*
X138102581Y-59867066D01*
X138200009Y-59910085D01*
X138225135Y-59913000D01*
X138514864Y-59912999D01*
X138514879Y-59912997D01*
X138514882Y-59912997D01*
X138539987Y-59910086D01*
X138539988Y-59910085D01*
X138539991Y-59910085D01*
X138642765Y-59864706D01*
X138722206Y-59785265D01*
X138767585Y-59682491D01*
X138770500Y-59657365D01*
X138770499Y-59294830D01*
X138790183Y-59227793D01*
X138842987Y-59182038D01*
X138912146Y-59172094D01*
X138975701Y-59201119D01*
X138982180Y-59207151D01*
X139359540Y-59584511D01*
X139415489Y-59640460D01*
X139415491Y-59640461D01*
X139415495Y-59640464D01*
X139484004Y-59680017D01*
X139484007Y-59680019D01*
X139484011Y-59680021D01*
X139560438Y-59700500D01*
X139560440Y-59700500D01*
X140139560Y-59700500D01*
X140139562Y-59700500D01*
X140215989Y-59680021D01*
X140281648Y-59642113D01*
X140343648Y-59625500D01*
X140728148Y-59625500D01*
X140795187Y-59645185D01*
X140840942Y-59697989D01*
X140845189Y-59708545D01*
X140870884Y-59781975D01*
X140870884Y-59781976D01*
X140949288Y-59888210D01*
X140949289Y-59888211D01*
X141055523Y-59966615D01*
X141055524Y-59966615D01*
X141055525Y-59966616D01*
X141180151Y-60010225D01*
X141180150Y-60010225D01*
X141209740Y-60013000D01*
X141209744Y-60013000D01*
X141790260Y-60013000D01*
X141819849Y-60010225D01*
X141840951Y-60002841D01*
X141944475Y-59966616D01*
X142050711Y-59888211D01*
X142129116Y-59781975D01*
X142172725Y-59657349D01*
X142173129Y-59653042D01*
X142175500Y-59627760D01*
X142175500Y-59022239D01*
X142172725Y-58992650D01*
X142141298Y-58902839D01*
X142129116Y-58868025D01*
X142050711Y-58761789D01*
X142047172Y-58759177D01*
X141944476Y-58683384D01*
X141819848Y-58639774D01*
X141819849Y-58639774D01*
X141790260Y-58637000D01*
X141790256Y-58637000D01*
X141209744Y-58637000D01*
X141209740Y-58637000D01*
X141180150Y-58639774D01*
X141055523Y-58683384D01*
X140949289Y-58761788D01*
X140949288Y-58761789D01*
X140870884Y-58868023D01*
X140870884Y-58868024D01*
X140845189Y-58941455D01*
X140804467Y-58998231D01*
X140739514Y-59023978D01*
X140728148Y-59024500D01*
X140567534Y-59024500D01*
X140500495Y-59004815D01*
X140454740Y-58952011D01*
X140444796Y-58882853D01*
X140469156Y-58825015D01*
X140524536Y-58752844D01*
X140585044Y-58606765D01*
X140599166Y-58499500D01*
X140605682Y-58450004D01*
X140605682Y-58450003D01*
X140605505Y-58448655D01*
X140592640Y-58350939D01*
X140603405Y-58281905D01*
X140627895Y-58247077D01*
X140794707Y-58080265D01*
X140856028Y-58046782D01*
X140925720Y-58051766D01*
X140956016Y-58068176D01*
X141055525Y-58141616D01*
X141180151Y-58185225D01*
X141180150Y-58185225D01*
X141209740Y-58188000D01*
X141209744Y-58188000D01*
X141790260Y-58188000D01*
X141819849Y-58185225D01*
X141858449Y-58171718D01*
X141944475Y-58141616D01*
X142050711Y-58063211D01*
X142129116Y-57956975D01*
X142172725Y-57832349D01*
X142173106Y-57828282D01*
X142175500Y-57802760D01*
X142175500Y-57699998D01*
X147656818Y-57699998D01*
X147656818Y-57700001D01*
X147677455Y-57856760D01*
X147677456Y-57856762D01*
X147734433Y-57994318D01*
X147737964Y-58002841D01*
X147834218Y-58128282D01*
X147959659Y-58224536D01*
X148105738Y-58285044D01*
X148168001Y-58293241D01*
X148262499Y-58305682D01*
X148262500Y-58305682D01*
X148262501Y-58305682D01*
X148327239Y-58297159D01*
X148419262Y-58285044D01*
X148565341Y-58224536D01*
X148690782Y-58128282D01*
X148787036Y-58002841D01*
X148847544Y-57856762D01*
X148868182Y-57700000D01*
X148866548Y-57687591D01*
X148847544Y-57543239D01*
X148847544Y-57543238D01*
X148787036Y-57397159D01*
X148690782Y-57271718D01*
X148565341Y-57175464D01*
X148564269Y-57175020D01*
X148419262Y-57114956D01*
X148419260Y-57114955D01*
X148262501Y-57094318D01*
X148262499Y-57094318D01*
X148105739Y-57114955D01*
X148105737Y-57114956D01*
X147959660Y-57175463D01*
X147834218Y-57271718D01*
X147737963Y-57397160D01*
X147677456Y-57543237D01*
X147677455Y-57543239D01*
X147656818Y-57699998D01*
X142175500Y-57699998D01*
X142175500Y-57374500D01*
X142195185Y-57307461D01*
X142247989Y-57261706D01*
X142299500Y-57250500D01*
X142812518Y-57250500D01*
X142879557Y-57270185D01*
X142910892Y-57299013D01*
X142934294Y-57329510D01*
X142969492Y-57375382D01*
X142971718Y-57378282D01*
X143097159Y-57474536D01*
X143243238Y-57535044D01*
X143305478Y-57543238D01*
X143399999Y-57555682D01*
X143400000Y-57555682D01*
X143400001Y-57555682D01*
X143494514Y-57543239D01*
X143556762Y-57535044D01*
X143702841Y-57474536D01*
X143828282Y-57378282D01*
X143924536Y-57252841D01*
X143985044Y-57106762D01*
X144005682Y-56950000D01*
X144002780Y-56927960D01*
X143985044Y-56793239D01*
X143985044Y-56793238D01*
X143924536Y-56647159D01*
X143828282Y-56521718D01*
X143702841Y-56425464D01*
X143677472Y-56414956D01*
X143556762Y-56364956D01*
X143556760Y-56364955D01*
X143400001Y-56344318D01*
X143399999Y-56344318D01*
X143243239Y-56364955D01*
X143243237Y-56364956D01*
X143097160Y-56425463D01*
X142971716Y-56521719D01*
X142923066Y-56585122D01*
X142916208Y-56594061D01*
X142910894Y-56600986D01*
X142854466Y-56642189D01*
X142812518Y-56649500D01*
X142415409Y-56649500D01*
X142348370Y-56629815D01*
X142327728Y-56613181D01*
X142161586Y-56447039D01*
X142146855Y-56438534D01*
X142132123Y-56430029D01*
X142093065Y-56407479D01*
X142016638Y-56387000D01*
X142016636Y-56387000D01*
X142012945Y-56386011D01*
X141953285Y-56349645D01*
X141922757Y-56286798D01*
X141923993Y-56239337D01*
X142053913Y-55654696D01*
X142053913Y-55654693D01*
X142053914Y-55654690D01*
X142058030Y-55592248D01*
X142054760Y-55554772D01*
X142044007Y-55504766D01*
X142011371Y-55452824D01*
X141992373Y-55385588D01*
X142012742Y-55318754D01*
X142017983Y-55311380D01*
X142024536Y-55302841D01*
X142085044Y-55156762D01*
X142097676Y-55060814D01*
X142125943Y-54996918D01*
X142184267Y-54958447D01*
X142220615Y-54953000D01*
X143412518Y-54953000D01*
X143479557Y-54972685D01*
X143510892Y-55001513D01*
X143571718Y-55080782D01*
X143697159Y-55177036D01*
X143843238Y-55237544D01*
X143921619Y-55247863D01*
X143999999Y-55258182D01*
X144000000Y-55258182D01*
X144000001Y-55258182D01*
X144052254Y-55251302D01*
X144156762Y-55237544D01*
X144302841Y-55177036D01*
X144428282Y-55080782D01*
X144524536Y-54955341D01*
X144585044Y-54809262D01*
X144605682Y-54652500D01*
X144585044Y-54495738D01*
X144524536Y-54349659D01*
X144428282Y-54224218D01*
X144302841Y-54127964D01*
X144296892Y-54125500D01*
X144156762Y-54067456D01*
X144156760Y-54067455D01*
X144000001Y-54046818D01*
X143999999Y-54046818D01*
X143843239Y-54067455D01*
X143843237Y-54067456D01*
X143697160Y-54127963D01*
X143571716Y-54224219D01*
X143510894Y-54303486D01*
X143454466Y-54344689D01*
X143412518Y-54352000D01*
X143134055Y-54352000D01*
X143067016Y-54332315D01*
X143021261Y-54279511D01*
X143011317Y-54210353D01*
X143040342Y-54146797D01*
X143093100Y-54110959D01*
X143131212Y-54097622D01*
X143187882Y-54077793D01*
X143297150Y-53997150D01*
X143377793Y-53887882D01*
X143407547Y-53802850D01*
X143422646Y-53759701D01*
X143422646Y-53759699D01*
X143425500Y-53729269D01*
X143425500Y-52899998D01*
X143694318Y-52899998D01*
X143694318Y-52900001D01*
X143714955Y-53056760D01*
X143714956Y-53056762D01*
X143721329Y-53072149D01*
X143775464Y-53202841D01*
X143871718Y-53328282D01*
X143997159Y-53424536D01*
X144143238Y-53485044D01*
X144212109Y-53494111D01*
X144299999Y-53505682D01*
X144300000Y-53505682D01*
X144300001Y-53505682D01*
X144352254Y-53498802D01*
X144456762Y-53485044D01*
X144602841Y-53424536D01*
X144728282Y-53328282D01*
X144824536Y-53202841D01*
X144885044Y-53056762D01*
X144905682Y-52900000D01*
X144885044Y-52743238D01*
X144824536Y-52597159D01*
X144728282Y-52471718D01*
X144602841Y-52375464D01*
X144456762Y-52314956D01*
X144456760Y-52314955D01*
X144300001Y-52294318D01*
X144299999Y-52294318D01*
X144143239Y-52314955D01*
X144143237Y-52314956D01*
X143997160Y-52375463D01*
X143871718Y-52471718D01*
X143775463Y-52597160D01*
X143714956Y-52743237D01*
X143714955Y-52743239D01*
X143694318Y-52899998D01*
X143425500Y-52899998D01*
X143425500Y-52670730D01*
X143422646Y-52640300D01*
X143422646Y-52640298D01*
X143377793Y-52512119D01*
X143377792Y-52512117D01*
X143361690Y-52490299D01*
X143297150Y-52402850D01*
X143187882Y-52322207D01*
X143187880Y-52322206D01*
X143059700Y-52277353D01*
X143029270Y-52274500D01*
X143029266Y-52274500D01*
X142245734Y-52274500D01*
X142245730Y-52274500D01*
X142215300Y-52277353D01*
X142215298Y-52277353D01*
X142087119Y-52322206D01*
X142087117Y-52322207D01*
X141977850Y-52402850D01*
X141897207Y-52512117D01*
X141897206Y-52512119D01*
X141852353Y-52640298D01*
X141852353Y-52640300D01*
X141849500Y-52670730D01*
X141849500Y-53729269D01*
X141852353Y-53759699D01*
X141852353Y-53759701D01*
X141897206Y-53887880D01*
X141897207Y-53887882D01*
X141977850Y-53997150D01*
X142087118Y-54077793D01*
X142127535Y-54091935D01*
X142181900Y-54110959D01*
X142238676Y-54151681D01*
X142264423Y-54216633D01*
X142250966Y-54285195D01*
X142202579Y-54335598D01*
X142140945Y-54352000D01*
X141807938Y-54352000D01*
X141769724Y-54362239D01*
X141731509Y-54372479D01*
X141731508Y-54372480D01*
X141694169Y-54394037D01*
X141626268Y-54410507D01*
X141615977Y-54409586D01*
X141613305Y-54409234D01*
X141549410Y-54380962D01*
X141510944Y-54322634D01*
X141505500Y-54286296D01*
X141505500Y-52132099D01*
X141525185Y-52065060D01*
X141577989Y-52019305D01*
X141630471Y-52008103D01*
X151273450Y-52083930D01*
X151340330Y-52104140D01*
X151385668Y-52157302D01*
X151396470Y-52207234D01*
X151419282Y-56301145D01*
X151473130Y-65965397D01*
X151453819Y-66032545D01*
X151401271Y-66078594D01*
X151332169Y-66088922D01*
X151268453Y-66060252D01*
X151249362Y-66039721D01*
X151222151Y-66002851D01*
X151197302Y-65984512D01*
X151112882Y-65922207D01*
X151112880Y-65922206D01*
X150984700Y-65877353D01*
X150954270Y-65874500D01*
X150954266Y-65874500D01*
X150170734Y-65874500D01*
X150170730Y-65874500D01*
X150140300Y-65877353D01*
X150140298Y-65877353D01*
X150012119Y-65922206D01*
X150012117Y-65922207D01*
X149902850Y-66002850D01*
X149822207Y-66112117D01*
X149822206Y-66112119D01*
X149800000Y-66175578D01*
X149800000Y-65800000D01*
X146300000Y-65800000D01*
X146300000Y-66900000D01*
X147400000Y-67400000D01*
X147400000Y-68700000D01*
X148900000Y-68700000D01*
X149800000Y-67600000D01*
X149800000Y-67424419D01*
X149817333Y-67473953D01*
X149822207Y-67487882D01*
X149893112Y-67583956D01*
X149902851Y-67597151D01*
X149972931Y-67648872D01*
X150015182Y-67704519D01*
X150020641Y-67774175D01*
X149987574Y-67835725D01*
X149968191Y-67851743D01*
X149936380Y-67872999D01*
X149936376Y-67873002D01*
X148233961Y-69575417D01*
X148172638Y-69608902D01*
X148102946Y-69603918D01*
X148058599Y-69575417D01*
X148056485Y-69573303D01*
X147951391Y-69521926D01*
X147883261Y-69512000D01*
X147883260Y-69512000D01*
X147516740Y-69512000D01*
X147516739Y-69512000D01*
X147448608Y-69521926D01*
X147343514Y-69573303D01*
X147312681Y-69604137D01*
X147251358Y-69637622D01*
X147181666Y-69632638D01*
X147137319Y-69604137D01*
X147106485Y-69573303D01*
X147001391Y-69521926D01*
X146933261Y-69512000D01*
X146933260Y-69512000D01*
X146652677Y-69512000D01*
X146585638Y-69492315D01*
X146539883Y-69439511D01*
X146529939Y-69370353D01*
X146558964Y-69306797D01*
X146574483Y-69291762D01*
X146716137Y-69176668D01*
X146966518Y-68973233D01*
X146993482Y-68958819D01*
X146992741Y-68957302D01*
X147001390Y-68953073D01*
X147001393Y-68953073D01*
X147106483Y-68901698D01*
X147189198Y-68818983D01*
X147201343Y-68794138D01*
X147215604Y-68772854D01*
X147215353Y-68772677D01*
X147271548Y-68693092D01*
X147271550Y-68693089D01*
X147271551Y-68693088D01*
X147289857Y-68648894D01*
X147305500Y-68570252D01*
X147305500Y-67543312D01*
X147300843Y-67499809D01*
X147295241Y-67473946D01*
X147285952Y-67443035D01*
X147234695Y-67367292D01*
X147199743Y-67334635D01*
X147131602Y-67292376D01*
X146607213Y-67095730D01*
X145582772Y-66711564D01*
X145582757Y-66711559D01*
X145547284Y-66701778D01*
X145547254Y-66701771D01*
X145525324Y-66697796D01*
X145488671Y-66694500D01*
X145488666Y-66694500D01*
X144362500Y-66694500D01*
X144362498Y-66694500D01*
X144283863Y-66710141D01*
X144283857Y-66710143D01*
X144239666Y-66728448D01*
X144239662Y-66728450D01*
X144181373Y-66765075D01*
X144181369Y-66765079D01*
X144158205Y-66797725D01*
X144130720Y-66825731D01*
X144127853Y-66827846D01*
X144127846Y-66827853D01*
X144047209Y-66937113D01*
X144047206Y-66937119D01*
X144002353Y-67065298D01*
X144002353Y-67065300D01*
X143999500Y-67095730D01*
X143999500Y-67904269D01*
X144002353Y-67934699D01*
X144002353Y-67934701D01*
X144047206Y-68062880D01*
X144047207Y-68062882D01*
X144070270Y-68094131D01*
X144094241Y-68159760D01*
X144094500Y-68167765D01*
X144094500Y-68732233D01*
X144074815Y-68799272D01*
X144070272Y-68805865D01*
X144047207Y-68837118D01*
X144002353Y-68965303D01*
X143999500Y-68995730D01*
X143999500Y-69804269D01*
X144002353Y-69834699D01*
X144002353Y-69834701D01*
X144047206Y-69962880D01*
X144047207Y-69962882D01*
X144127850Y-70072150D01*
X144237118Y-70152793D01*
X144264245Y-70162285D01*
X144365299Y-70197646D01*
X144395730Y-70200500D01*
X144395734Y-70200500D01*
X145404270Y-70200500D01*
X145434699Y-70197646D01*
X145434701Y-70197646D01*
X145511609Y-70170734D01*
X145562882Y-70152793D01*
X145672150Y-70072150D01*
X145749889Y-69966816D01*
X145771457Y-69944220D01*
X146047956Y-69719564D01*
X146112398Y-69692569D01*
X146181206Y-69704698D01*
X146232535Y-69752102D01*
X146250086Y-69819732D01*
X146249824Y-69824759D01*
X146249500Y-69829233D01*
X146249500Y-70920760D01*
X146259426Y-70988891D01*
X146259427Y-70988893D01*
X146310802Y-71093983D01*
X146388182Y-71171363D01*
X146421666Y-71232684D01*
X146424500Y-71259043D01*
X146424500Y-73118157D01*
X146446682Y-73200945D01*
X146466477Y-73235230D01*
X146489535Y-73275167D01*
X146489536Y-73275168D01*
X146489537Y-73275169D01*
X148409889Y-75195520D01*
X148409899Y-75195531D01*
X148414229Y-75199861D01*
X148414230Y-75199862D01*
X148474833Y-75260465D01*
X148475068Y-75260601D01*
X148475133Y-75260668D01*
X148475146Y-75260646D01*
X148502199Y-75276264D01*
X148549056Y-75303318D01*
X148631842Y-75325501D01*
X148631844Y-75325501D01*
X148725144Y-75325501D01*
X148725160Y-75325500D01*
X152042851Y-75325500D01*
X152042853Y-75325500D01*
X152125639Y-75303318D01*
X152199862Y-75260465D01*
X153530080Y-73930247D01*
X157249500Y-73930247D01*
X157249500Y-75669752D01*
X157261131Y-75728229D01*
X157261132Y-75728230D01*
X157305447Y-75794552D01*
X157371769Y-75838867D01*
X157371770Y-75838868D01*
X157430247Y-75850499D01*
X157430250Y-75850500D01*
X157430252Y-75850500D01*
X159169750Y-75850500D01*
X159169751Y-75850499D01*
X159184568Y-75847552D01*
X159228229Y-75838868D01*
X159228229Y-75838867D01*
X159228231Y-75838867D01*
X159294552Y-75794552D01*
X159338867Y-75728231D01*
X159338867Y-75728229D01*
X159338868Y-75728229D01*
X159350499Y-75669752D01*
X159350500Y-75669750D01*
X159350500Y-73930249D01*
X159350499Y-73930247D01*
X159338868Y-73871770D01*
X159338867Y-73871769D01*
X159294552Y-73805447D01*
X159228230Y-73761132D01*
X159228229Y-73761131D01*
X159169752Y-73749500D01*
X159169748Y-73749500D01*
X157430252Y-73749500D01*
X157430247Y-73749500D01*
X157371770Y-73761131D01*
X157371769Y-73761132D01*
X157305447Y-73805447D01*
X157261132Y-73871769D01*
X157261131Y-73871770D01*
X157249500Y-73930247D01*
X153530080Y-73930247D01*
X153960465Y-73499862D01*
X154003318Y-73425639D01*
X154025500Y-73342853D01*
X154025500Y-73257147D01*
X154025500Y-72260000D01*
X157244417Y-72260000D01*
X157264699Y-72465932D01*
X157264700Y-72465934D01*
X157324768Y-72663954D01*
X157422315Y-72846450D01*
X157422317Y-72846452D01*
X157553589Y-73006410D01*
X157650209Y-73085702D01*
X157713550Y-73137685D01*
X157896046Y-73235232D01*
X158094066Y-73295300D01*
X158094065Y-73295300D01*
X158112529Y-73297118D01*
X158300000Y-73315583D01*
X158505934Y-73295300D01*
X158703954Y-73235232D01*
X158886450Y-73137685D01*
X159046410Y-73006410D01*
X159177685Y-72846450D01*
X159275232Y-72663954D01*
X159335300Y-72465934D01*
X159355583Y-72260000D01*
X159335300Y-72054066D01*
X159275232Y-71856046D01*
X159177685Y-71673550D01*
X159116633Y-71599157D01*
X159046410Y-71513589D01*
X158886452Y-71382317D01*
X158886453Y-71382317D01*
X158886450Y-71382315D01*
X158703954Y-71284768D01*
X158505934Y-71224700D01*
X158505932Y-71224699D01*
X158505934Y-71224699D01*
X158300000Y-71204417D01*
X158094067Y-71224699D01*
X157896043Y-71284769D01*
X157785898Y-71343643D01*
X157713550Y-71382315D01*
X157713548Y-71382316D01*
X157713547Y-71382317D01*
X157553589Y-71513589D01*
X157430971Y-71663002D01*
X157422315Y-71673550D01*
X157414252Y-71688635D01*
X157324769Y-71856043D01*
X157264699Y-72054067D01*
X157244417Y-72260000D01*
X154025500Y-72260000D01*
X154025500Y-69720000D01*
X157244417Y-69720000D01*
X157264699Y-69925932D01*
X157284091Y-69989858D01*
X157324768Y-70123954D01*
X157422315Y-70306450D01*
X157422317Y-70306452D01*
X157553589Y-70466410D01*
X157650209Y-70545702D01*
X157713550Y-70597685D01*
X157896046Y-70695232D01*
X158094066Y-70755300D01*
X158094065Y-70755300D01*
X158112529Y-70757118D01*
X158300000Y-70775583D01*
X158505934Y-70755300D01*
X158703954Y-70695232D01*
X158886450Y-70597685D01*
X159046410Y-70466410D01*
X159177685Y-70306450D01*
X159275232Y-70123954D01*
X159335300Y-69925934D01*
X159355583Y-69720000D01*
X159335300Y-69514066D01*
X159275232Y-69316046D01*
X159177685Y-69133550D01*
X159084422Y-69019908D01*
X159046410Y-68973589D01*
X158886452Y-68842317D01*
X158886453Y-68842317D01*
X158886450Y-68842315D01*
X158703954Y-68744768D01*
X158505934Y-68684700D01*
X158505932Y-68684699D01*
X158505934Y-68684699D01*
X158300000Y-68664417D01*
X158094067Y-68684699D01*
X157896043Y-68744769D01*
X157795506Y-68798508D01*
X157713550Y-68842315D01*
X157713548Y-68842316D01*
X157713547Y-68842317D01*
X157553589Y-68973589D01*
X157422317Y-69133547D01*
X157324769Y-69316043D01*
X157324768Y-69316045D01*
X157324768Y-69316046D01*
X157319494Y-69333431D01*
X157264699Y-69514067D01*
X157244417Y-69720000D01*
X154025500Y-69720000D01*
X154025500Y-68886189D01*
X154045185Y-68819150D01*
X154061819Y-68798508D01*
X154360189Y-68500138D01*
X154860465Y-67999862D01*
X154903318Y-67925639D01*
X154919838Y-67863982D01*
X154951929Y-67808397D01*
X155218508Y-67541819D01*
X155279831Y-67508334D01*
X155306189Y-67505500D01*
X157209417Y-67505500D01*
X157276456Y-67525185D01*
X157322211Y-67577989D01*
X157323979Y-67582049D01*
X157324768Y-67583954D01*
X157422315Y-67766450D01*
X157445335Y-67794500D01*
X157553589Y-67926410D01*
X157623591Y-67983858D01*
X157713550Y-68057685D01*
X157896046Y-68155232D01*
X158094066Y-68215300D01*
X158094065Y-68215300D01*
X158112529Y-68217118D01*
X158300000Y-68235583D01*
X158505934Y-68215300D01*
X158703954Y-68155232D01*
X158886450Y-68057685D01*
X159046410Y-67926410D01*
X159177685Y-67766450D01*
X159275232Y-67583954D01*
X159335300Y-67385934D01*
X159355583Y-67180000D01*
X159335300Y-66974066D01*
X159275232Y-66776046D01*
X159177685Y-66593550D01*
X159125702Y-66530209D01*
X159046410Y-66433589D01*
X158886452Y-66302317D01*
X158886453Y-66302317D01*
X158886450Y-66302315D01*
X158703954Y-66204768D01*
X158505934Y-66144700D01*
X158505932Y-66144699D01*
X158505934Y-66144699D01*
X158300000Y-66124417D01*
X158094067Y-66144699D01*
X157896043Y-66204769D01*
X157829569Y-66240301D01*
X157713550Y-66302315D01*
X157713548Y-66302316D01*
X157713547Y-66302317D01*
X157553589Y-66433589D01*
X157437529Y-66575011D01*
X157422315Y-66593550D01*
X157410041Y-66616513D01*
X157324768Y-66776045D01*
X157323979Y-66777951D01*
X157323298Y-66778796D01*
X157321896Y-66781419D01*
X157321398Y-66781153D01*
X157280138Y-66832355D01*
X157213844Y-66854421D01*
X157209417Y-66854500D01*
X155077147Y-66854500D01*
X154994359Y-66876682D01*
X154920138Y-66919535D01*
X154920135Y-66919537D01*
X154339537Y-67500135D01*
X154339535Y-67500138D01*
X154296682Y-67574360D01*
X154280162Y-67636016D01*
X154248068Y-67691604D01*
X153612181Y-68327492D01*
X153550858Y-68360977D01*
X153481167Y-68355993D01*
X153425233Y-68314122D01*
X153400816Y-68248657D01*
X153400500Y-68239811D01*
X153400500Y-68220735D01*
X153399990Y-68215300D01*
X153397822Y-68192188D01*
X153397284Y-68181273D01*
X153393645Y-67464274D01*
X153400600Y-67422699D01*
X153422646Y-67359699D01*
X153422647Y-67359689D01*
X153425500Y-67329269D01*
X153425500Y-66270730D01*
X153422646Y-66240300D01*
X153422646Y-66240298D01*
X153393765Y-66157763D01*
X153386808Y-66117441D01*
X153379308Y-64640000D01*
X157244417Y-64640000D01*
X157264699Y-64845932D01*
X157290918Y-64932364D01*
X157324768Y-65043954D01*
X157422315Y-65226450D01*
X157456969Y-65268677D01*
X157553589Y-65386410D01*
X157642893Y-65459699D01*
X157713550Y-65517685D01*
X157896046Y-65615232D01*
X158094066Y-65675300D01*
X158094065Y-65675300D01*
X158112529Y-65677118D01*
X158300000Y-65695583D01*
X158505934Y-65675300D01*
X158703954Y-65615232D01*
X158886450Y-65517685D01*
X159046410Y-65386410D01*
X159177685Y-65226450D01*
X159275232Y-65043954D01*
X159335300Y-64845934D01*
X159355583Y-64640000D01*
X159335300Y-64434066D01*
X159275232Y-64236046D01*
X159177685Y-64053550D01*
X159125702Y-63990209D01*
X159046410Y-63893589D01*
X158922500Y-63791900D01*
X158886450Y-63762315D01*
X158709099Y-63667518D01*
X158703956Y-63664769D01*
X158703955Y-63664768D01*
X158703954Y-63664768D01*
X158505934Y-63604700D01*
X158505932Y-63604699D01*
X158505934Y-63604699D01*
X158300000Y-63584417D01*
X158094067Y-63604699D01*
X157956769Y-63646348D01*
X157904888Y-63662086D01*
X157896043Y-63664769D01*
X157811811Y-63709793D01*
X157713550Y-63762315D01*
X157713548Y-63762316D01*
X157713547Y-63762317D01*
X157553589Y-63893589D01*
X157422317Y-64053547D01*
X157324769Y-64236043D01*
X157264699Y-64434067D01*
X157244417Y-64640000D01*
X153379308Y-64640000D01*
X153356263Y-60099998D01*
X155494318Y-60099998D01*
X155494318Y-60100001D01*
X155514955Y-60256760D01*
X155514956Y-60256762D01*
X155570041Y-60389750D01*
X155575464Y-60402841D01*
X155671718Y-60528282D01*
X155797159Y-60624536D01*
X155943238Y-60685044D01*
X156021619Y-60695363D01*
X156099999Y-60705682D01*
X156100000Y-60705682D01*
X156100001Y-60705682D01*
X156152254Y-60698802D01*
X156256762Y-60685044D01*
X156402841Y-60624536D01*
X156528282Y-60528282D01*
X156624536Y-60402841D01*
X156685044Y-60256762D01*
X156705682Y-60100000D01*
X156685044Y-59943238D01*
X156624536Y-59797159D01*
X156528282Y-59671718D01*
X156402841Y-59575464D01*
X156365508Y-59560000D01*
X157244417Y-59560000D01*
X157264699Y-59765932D01*
X157279047Y-59813231D01*
X157324768Y-59963954D01*
X157422315Y-60146450D01*
X157422317Y-60146452D01*
X157553589Y-60306410D01*
X157622559Y-60363011D01*
X157713550Y-60437685D01*
X157896046Y-60535232D01*
X158094066Y-60595300D01*
X158094065Y-60595300D01*
X158112529Y-60597118D01*
X158300000Y-60615583D01*
X158505934Y-60595300D01*
X158703954Y-60535232D01*
X158886450Y-60437685D01*
X159046410Y-60306410D01*
X159177685Y-60146450D01*
X159275232Y-59963954D01*
X159335300Y-59765934D01*
X159355583Y-59560000D01*
X159335300Y-59354066D01*
X159275232Y-59156046D01*
X159177685Y-58973550D01*
X159119654Y-58902839D01*
X159046410Y-58813589D01*
X158898251Y-58692000D01*
X158886450Y-58682315D01*
X158703954Y-58584768D01*
X158505934Y-58524700D01*
X158505932Y-58524699D01*
X158505934Y-58524699D01*
X158300000Y-58504417D01*
X158094067Y-58524699D01*
X157896043Y-58584769D01*
X157804436Y-58633735D01*
X157713550Y-58682315D01*
X157713548Y-58682316D01*
X157713547Y-58682317D01*
X157553589Y-58813589D01*
X157439991Y-58952011D01*
X157422315Y-58973550D01*
X157393060Y-59028282D01*
X157324769Y-59156043D01*
X157264699Y-59354067D01*
X157244417Y-59560000D01*
X156365508Y-59560000D01*
X156256762Y-59514956D01*
X156256760Y-59514955D01*
X156100001Y-59494318D01*
X156099999Y-59494318D01*
X155943239Y-59514955D01*
X155943237Y-59514956D01*
X155797160Y-59575463D01*
X155671718Y-59671718D01*
X155575463Y-59797160D01*
X155514956Y-59943237D01*
X155514955Y-59943239D01*
X155494318Y-60099998D01*
X153356263Y-60099998D01*
X153323201Y-53586780D01*
X154572500Y-53586780D01*
X154572500Y-53813219D01*
X154572501Y-53813235D01*
X154602056Y-54037731D01*
X154602057Y-54037736D01*
X154602058Y-54037742D01*
X154624808Y-54122646D01*
X154660667Y-54256476D01*
X154747322Y-54465681D01*
X154747329Y-54465696D01*
X154860553Y-54661806D01*
X154998408Y-54841462D01*
X154998414Y-54841469D01*
X155158530Y-55001585D01*
X155158537Y-55001591D01*
X155338193Y-55139446D01*
X155534303Y-55252670D01*
X155534318Y-55252677D01*
X155619306Y-55287880D01*
X155743522Y-55339332D01*
X155962258Y-55397942D01*
X156186774Y-55427500D01*
X156186781Y-55427500D01*
X156413219Y-55427500D01*
X156413226Y-55427500D01*
X156637742Y-55397942D01*
X156856478Y-55339332D01*
X157065693Y-55252672D01*
X157261807Y-55139446D01*
X157441464Y-55001590D01*
X157601590Y-54841464D01*
X157739446Y-54661807D01*
X157852672Y-54465693D01*
X157939332Y-54256478D01*
X157997942Y-54037742D01*
X158027500Y-53813226D01*
X158027500Y-53586774D01*
X157997942Y-53362258D01*
X157939332Y-53143522D01*
X157887750Y-53018993D01*
X157852677Y-52934318D01*
X157852670Y-52934303D01*
X157739446Y-52738193D01*
X157601591Y-52558537D01*
X157601585Y-52558530D01*
X157441469Y-52398414D01*
X157441462Y-52398408D01*
X157261806Y-52260553D01*
X157065696Y-52147329D01*
X157065681Y-52147322D01*
X156856476Y-52060667D01*
X156747110Y-52031363D01*
X156637742Y-52002058D01*
X156637736Y-52002057D01*
X156637731Y-52002056D01*
X156413235Y-51972501D01*
X156413232Y-51972500D01*
X156413226Y-51972500D01*
X156186774Y-51972500D01*
X156186768Y-51972500D01*
X156186764Y-51972501D01*
X155962268Y-52002056D01*
X155962261Y-52002057D01*
X155962258Y-52002058D01*
X155943363Y-52007121D01*
X155743523Y-52060667D01*
X155534318Y-52147322D01*
X155534303Y-52147329D01*
X155338193Y-52260553D01*
X155158537Y-52398408D01*
X155158530Y-52398414D01*
X154998414Y-52558530D01*
X154998408Y-52558537D01*
X154860553Y-52738193D01*
X154747329Y-52934303D01*
X154747322Y-52934318D01*
X154660667Y-53143523D01*
X154623614Y-53281811D01*
X154604188Y-53354311D01*
X154602059Y-53362255D01*
X154602056Y-53362268D01*
X154572501Y-53586764D01*
X154572500Y-53586780D01*
X153323201Y-53586780D01*
X153305809Y-50160615D01*
X153303357Y-50148395D01*
X153309466Y-50078795D01*
X153352236Y-50023545D01*
X153418086Y-50000189D01*
X153424933Y-50000000D01*
X156999118Y-50000000D01*
X157000855Y-50000011D01*
X157162269Y-50002274D01*
X157174390Y-50003041D01*
X157478553Y-50037312D01*
X157495992Y-50039277D01*
X157509700Y-50041606D01*
X157824366Y-50113426D01*
X157837725Y-50117273D01*
X158142392Y-50223881D01*
X158155228Y-50229199D01*
X158446025Y-50369239D01*
X158458195Y-50375965D01*
X158731486Y-50547685D01*
X158742824Y-50555730D01*
X158892965Y-50675463D01*
X158995173Y-50756971D01*
X159005541Y-50766237D01*
X159233762Y-50994458D01*
X159243028Y-51004826D01*
X159444267Y-51257172D01*
X159452314Y-51268513D01*
X159624034Y-51541804D01*
X159630760Y-51553974D01*
X159770798Y-51844766D01*
X159776120Y-51857613D01*
X159882724Y-52162270D01*
X159886573Y-52175633D01*
X159958393Y-52490299D01*
X159960722Y-52504007D01*
X159996957Y-52825597D01*
X159997725Y-52837743D01*
X159999988Y-52999144D01*
X160000000Y-53000882D01*
X160000000Y-76999117D01*
X159999988Y-77000855D01*
X159997725Y-77162256D01*
X159996957Y-77174402D01*
X159960722Y-77495992D01*
X159958393Y-77509700D01*
X159886573Y-77824366D01*
X159882724Y-77837729D01*
X159776120Y-78142386D01*
X159770798Y-78155233D01*
X159630760Y-78446025D01*
X159624034Y-78458195D01*
X159452314Y-78731486D01*
X159444267Y-78742827D01*
X159243028Y-78995173D01*
X159233762Y-79005541D01*
X159005541Y-79233762D01*
X158995173Y-79243028D01*
X158742827Y-79444267D01*
X158731486Y-79452314D01*
X158458195Y-79624034D01*
X158446025Y-79630760D01*
X158155233Y-79770798D01*
X158142386Y-79776120D01*
X157837729Y-79882724D01*
X157824366Y-79886573D01*
X157509700Y-79958393D01*
X157495992Y-79960722D01*
X157174402Y-79996957D01*
X157162256Y-79997725D01*
X157000856Y-79999988D01*
X156999118Y-80000000D01*
X113000882Y-80000000D01*
X112999144Y-79999988D01*
X112837743Y-79997725D01*
X112825597Y-79996957D01*
X112504007Y-79960722D01*
X112490299Y-79958393D01*
X112175633Y-79886573D01*
X112162270Y-79882724D01*
X111857613Y-79776120D01*
X111844766Y-79770798D01*
X111553974Y-79630760D01*
X111541804Y-79624034D01*
X111268513Y-79452314D01*
X111257172Y-79444267D01*
X111004826Y-79243028D01*
X110994458Y-79233762D01*
X110766237Y-79005541D01*
X110756971Y-78995173D01*
X110555732Y-78742827D01*
X110547685Y-78731486D01*
X110461247Y-78593920D01*
X129929499Y-78593920D01*
X129958340Y-78738907D01*
X129958343Y-78738917D01*
X130014912Y-78875488D01*
X130014919Y-78875501D01*
X130097048Y-78998415D01*
X130097051Y-78998419D01*
X130201580Y-79102948D01*
X130201584Y-79102951D01*
X130324498Y-79185080D01*
X130324511Y-79185087D01*
X130442024Y-79233762D01*
X130461087Y-79241658D01*
X130461091Y-79241658D01*
X130461092Y-79241659D01*
X130606079Y-79270500D01*
X130606082Y-79270500D01*
X130753920Y-79270500D01*
X130851462Y-79251096D01*
X130898913Y-79241658D01*
X131035495Y-79185084D01*
X131158416Y-79102951D01*
X131262951Y-78998416D01*
X131345084Y-78875495D01*
X131401658Y-78738913D01*
X131430500Y-78593920D01*
X138569499Y-78593920D01*
X138598340Y-78738907D01*
X138598343Y-78738917D01*
X138654912Y-78875488D01*
X138654919Y-78875501D01*
X138737048Y-78998415D01*
X138737051Y-78998419D01*
X138841580Y-79102948D01*
X138841584Y-79102951D01*
X138964498Y-79185080D01*
X138964511Y-79185087D01*
X139082024Y-79233762D01*
X139101087Y-79241658D01*
X139101091Y-79241658D01*
X139101092Y-79241659D01*
X139246079Y-79270500D01*
X139246082Y-79270500D01*
X139393920Y-79270500D01*
X139491462Y-79251096D01*
X139538913Y-79241658D01*
X139675495Y-79185084D01*
X139798416Y-79102951D01*
X139902951Y-78998416D01*
X139985084Y-78875495D01*
X140041658Y-78738913D01*
X140070500Y-78593918D01*
X140070500Y-76946082D01*
X140070500Y-76946079D01*
X140041659Y-76801092D01*
X140041658Y-76801091D01*
X140041658Y-76801087D01*
X140041656Y-76801082D01*
X139985087Y-76664511D01*
X139985080Y-76664498D01*
X139902951Y-76541584D01*
X139902948Y-76541580D01*
X139798419Y-76437051D01*
X139798415Y-76437048D01*
X139675501Y-76354919D01*
X139675488Y-76354912D01*
X139538917Y-76298343D01*
X139538907Y-76298340D01*
X139393920Y-76269500D01*
X139393918Y-76269500D01*
X139246082Y-76269500D01*
X139246080Y-76269500D01*
X139101092Y-76298340D01*
X139101082Y-76298343D01*
X138964511Y-76354912D01*
X138964498Y-76354919D01*
X138841584Y-76437048D01*
X138841580Y-76437051D01*
X138737051Y-76541580D01*
X138737048Y-76541584D01*
X138654919Y-76664498D01*
X138654912Y-76664511D01*
X138598343Y-76801082D01*
X138598340Y-76801092D01*
X138569500Y-76946079D01*
X138569500Y-76946082D01*
X138569500Y-78593918D01*
X138569500Y-78593920D01*
X138569499Y-78593920D01*
X131430500Y-78593920D01*
X131430500Y-78593918D01*
X131430500Y-76946082D01*
X131430500Y-76946079D01*
X131401659Y-76801092D01*
X131401658Y-76801091D01*
X131401658Y-76801087D01*
X131401656Y-76801082D01*
X131345087Y-76664511D01*
X131345080Y-76664498D01*
X131262951Y-76541584D01*
X131262948Y-76541580D01*
X131158419Y-76437051D01*
X131158415Y-76437048D01*
X131035501Y-76354919D01*
X131035488Y-76354912D01*
X130898917Y-76298343D01*
X130898907Y-76298340D01*
X130753920Y-76269500D01*
X130753918Y-76269500D01*
X130606082Y-76269500D01*
X130606080Y-76269500D01*
X130461092Y-76298340D01*
X130461082Y-76298343D01*
X130324511Y-76354912D01*
X130324498Y-76354919D01*
X130201584Y-76437048D01*
X130201580Y-76437051D01*
X130097051Y-76541580D01*
X130097048Y-76541584D01*
X130014919Y-76664498D01*
X130014912Y-76664511D01*
X129958343Y-76801082D01*
X129958340Y-76801092D01*
X129929500Y-76946079D01*
X129929500Y-76946082D01*
X129929500Y-78593918D01*
X129929500Y-78593920D01*
X129929499Y-78593920D01*
X110461247Y-78593920D01*
X110375965Y-78458195D01*
X110369239Y-78446025D01*
X110229201Y-78155233D01*
X110223879Y-78142386D01*
X110117275Y-77837729D01*
X110113426Y-77824366D01*
X110041606Y-77509700D01*
X110039277Y-77495992D01*
X110021866Y-77341469D01*
X110003041Y-77174390D01*
X110002274Y-77162269D01*
X110000012Y-77000855D01*
X110000000Y-76999117D01*
X110000000Y-76086780D01*
X112072500Y-76086780D01*
X112072500Y-76313219D01*
X112072501Y-76313235D01*
X112102056Y-76537731D01*
X112102057Y-76537736D01*
X112102058Y-76537742D01*
X112131363Y-76647110D01*
X112160667Y-76756476D01*
X112247322Y-76965681D01*
X112247329Y-76965696D01*
X112360553Y-77161806D01*
X112498408Y-77341462D01*
X112498414Y-77341469D01*
X112658530Y-77501585D01*
X112658537Y-77501591D01*
X112838193Y-77639446D01*
X113034303Y-77752670D01*
X113034318Y-77752677D01*
X113142507Y-77797490D01*
X113243522Y-77839332D01*
X113462258Y-77897942D01*
X113686774Y-77927500D01*
X113686781Y-77927500D01*
X113913219Y-77927500D01*
X113913226Y-77927500D01*
X114137742Y-77897942D01*
X114356478Y-77839332D01*
X114565693Y-77752672D01*
X114761807Y-77639446D01*
X114941464Y-77501590D01*
X115101590Y-77341464D01*
X115239446Y-77161807D01*
X115352672Y-76965693D01*
X115439332Y-76756478D01*
X115497942Y-76537742D01*
X115527500Y-76313226D01*
X115527500Y-76086774D01*
X115497942Y-75862258D01*
X115439332Y-75643522D01*
X115363333Y-75460044D01*
X115352677Y-75434318D01*
X115352670Y-75434303D01*
X115239446Y-75238193D01*
X115101591Y-75058537D01*
X115101585Y-75058530D01*
X114941469Y-74898414D01*
X114941462Y-74898408D01*
X114761806Y-74760553D01*
X114565696Y-74647329D01*
X114565681Y-74647322D01*
X114356476Y-74560667D01*
X114247110Y-74531363D01*
X114137742Y-74502058D01*
X114137736Y-74502057D01*
X114137731Y-74502056D01*
X113913235Y-74472501D01*
X113913232Y-74472500D01*
X113913226Y-74472500D01*
X113686774Y-74472500D01*
X113686768Y-74472500D01*
X113686764Y-74472501D01*
X113462268Y-74502056D01*
X113462261Y-74502057D01*
X113462258Y-74502058D01*
X113416031Y-74514444D01*
X113243523Y-74560667D01*
X113034318Y-74647322D01*
X113034303Y-74647329D01*
X112838193Y-74760553D01*
X112658537Y-74898408D01*
X112658530Y-74898414D01*
X112498414Y-75058530D01*
X112498408Y-75058537D01*
X112360553Y-75238193D01*
X112247329Y-75434303D01*
X112247322Y-75434318D01*
X112160667Y-75643523D01*
X112102059Y-75862255D01*
X112102056Y-75862268D01*
X112072501Y-76086764D01*
X112072500Y-76086780D01*
X110000000Y-76086780D01*
X110000000Y-74399998D01*
X131494318Y-74399998D01*
X131494318Y-74400001D01*
X131514955Y-74556760D01*
X131514956Y-74556762D01*
X131565712Y-74679299D01*
X131575464Y-74702841D01*
X131671718Y-74828282D01*
X131797159Y-74924536D01*
X131943238Y-74985044D01*
X132021619Y-74995363D01*
X132099999Y-75005682D01*
X132100000Y-75005682D01*
X132100001Y-75005682D01*
X132152254Y-74998802D01*
X132256762Y-74985044D01*
X132402841Y-74924536D01*
X132528282Y-74828282D01*
X132624536Y-74702841D01*
X132634288Y-74679299D01*
X132678129Y-74624895D01*
X132744423Y-74602830D01*
X132748849Y-74602751D01*
X132925878Y-74602751D01*
X132992917Y-74622436D01*
X133024254Y-74651264D01*
X133025463Y-74652839D01*
X133025464Y-74652841D01*
X133121718Y-74778282D01*
X133247159Y-74874536D01*
X133393238Y-74935044D01*
X133471619Y-74945363D01*
X133549999Y-74955682D01*
X133550000Y-74955682D01*
X133550001Y-74955682D01*
X133602254Y-74948802D01*
X133706762Y-74935044D01*
X133852841Y-74874536D01*
X133978282Y-74778282D01*
X134074536Y-74652841D01*
X134135044Y-74506762D01*
X134149100Y-74399998D01*
X134155682Y-74350001D01*
X134155682Y-74349998D01*
X134135044Y-74193239D01*
X134135044Y-74193238D01*
X134074536Y-74047159D01*
X133978282Y-73921718D01*
X133852841Y-73825464D01*
X133827472Y-73814956D01*
X133706762Y-73764956D01*
X133706760Y-73764955D01*
X133550001Y-73744318D01*
X133549999Y-73744318D01*
X133393239Y-73764955D01*
X133393237Y-73764956D01*
X133247160Y-73825463D01*
X133153728Y-73897156D01*
X133121718Y-73921718D01*
X133028474Y-74043237D01*
X133024254Y-74048736D01*
X132967826Y-74089938D01*
X132925878Y-74097249D01*
X132685755Y-74097249D01*
X132618716Y-74077564D01*
X132587379Y-74048735D01*
X132586170Y-74047160D01*
X132528282Y-73971718D01*
X132402841Y-73875464D01*
X132393920Y-73871769D01*
X132256762Y-73814956D01*
X132256760Y-73814955D01*
X132100001Y-73794318D01*
X132099999Y-73794318D01*
X131943239Y-73814955D01*
X131943237Y-73814956D01*
X131797160Y-73875463D01*
X131671718Y-73971718D01*
X131575463Y-74097160D01*
X131514956Y-74243237D01*
X131514955Y-74243239D01*
X131494318Y-74399998D01*
X110000000Y-74399998D01*
X110000000Y-72983920D01*
X129929499Y-72983920D01*
X129958340Y-73128907D01*
X129958343Y-73128917D01*
X130014912Y-73265488D01*
X130014919Y-73265501D01*
X130097048Y-73388415D01*
X130097051Y-73388419D01*
X130201580Y-73492948D01*
X130201584Y-73492951D01*
X130324498Y-73575080D01*
X130324511Y-73575087D01*
X130439330Y-73622646D01*
X130461087Y-73631658D01*
X130461091Y-73631658D01*
X130461092Y-73631659D01*
X130606079Y-73660500D01*
X130606082Y-73660500D01*
X130753920Y-73660500D01*
X130851462Y-73641096D01*
X130898913Y-73631658D01*
X131035495Y-73575084D01*
X131158416Y-73492951D01*
X131262951Y-73388416D01*
X131345084Y-73265495D01*
X131401658Y-73128913D01*
X131430500Y-72983918D01*
X131430500Y-71836082D01*
X131430500Y-71829990D01*
X131431877Y-71829990D01*
X131443591Y-71768207D01*
X131491653Y-71717494D01*
X131559503Y-71700816D01*
X131570163Y-71701754D01*
X131599999Y-71705682D01*
X131600000Y-71705682D01*
X131600001Y-71705682D01*
X131652254Y-71698802D01*
X131756762Y-71685044D01*
X131902841Y-71624536D01*
X132028282Y-71528282D01*
X132124536Y-71402841D01*
X132185044Y-71256762D01*
X132205682Y-71100000D01*
X132185044Y-70943238D01*
X132124536Y-70797159D01*
X132028282Y-70671718D01*
X131902841Y-70575464D01*
X131894864Y-70572160D01*
X131756762Y-70514956D01*
X131756760Y-70514955D01*
X131600001Y-70494318D01*
X131599999Y-70494318D01*
X131443239Y-70514955D01*
X131443237Y-70514956D01*
X131297160Y-70575463D01*
X131171718Y-70671718D01*
X131075463Y-70797160D01*
X131014956Y-70943237D01*
X131014956Y-70943238D01*
X130997830Y-71073320D01*
X130969563Y-71137216D01*
X130911239Y-71175687D01*
X130850699Y-71178751D01*
X130753920Y-71159500D01*
X130753918Y-71159500D01*
X130606082Y-71159500D01*
X130606080Y-71159500D01*
X130461092Y-71188340D01*
X130461082Y-71188343D01*
X130324511Y-71244912D01*
X130324498Y-71244919D01*
X130201584Y-71327048D01*
X130201580Y-71327051D01*
X130097051Y-71431580D01*
X130097048Y-71431584D01*
X130014919Y-71554498D01*
X130014912Y-71554511D01*
X129958343Y-71691082D01*
X129958340Y-71691092D01*
X129929500Y-71836079D01*
X129929500Y-71836082D01*
X129929500Y-72983918D01*
X129929500Y-72983920D01*
X129929499Y-72983920D01*
X110000000Y-72983920D01*
X110000000Y-70874998D01*
X111844318Y-70874998D01*
X111844318Y-70875001D01*
X111864955Y-71031760D01*
X111864956Y-71031762D01*
X111924990Y-71176698D01*
X111925464Y-71177841D01*
X112021718Y-71303282D01*
X112147159Y-71399536D01*
X112293238Y-71460044D01*
X112371619Y-71470363D01*
X112449999Y-71480682D01*
X112450000Y-71480682D01*
X112450001Y-71480682D01*
X112502254Y-71473802D01*
X112606762Y-71460044D01*
X112752841Y-71399536D01*
X112878282Y-71303282D01*
X112974536Y-71177841D01*
X113035044Y-71031762D01*
X113048802Y-70927254D01*
X113055682Y-70875001D01*
X113055682Y-70874998D01*
X113035044Y-70718239D01*
X113035044Y-70718238D01*
X112974536Y-70572159D01*
X112878282Y-70446718D01*
X112752841Y-70350464D01*
X112606762Y-70289956D01*
X112606760Y-70289955D01*
X112450001Y-70269318D01*
X112449999Y-70269318D01*
X112293239Y-70289955D01*
X112293237Y-70289956D01*
X112147160Y-70350463D01*
X112021718Y-70446718D01*
X111925463Y-70572160D01*
X111864956Y-70718237D01*
X111864955Y-70718239D01*
X111844318Y-70874998D01*
X110000000Y-70874998D01*
X110000000Y-69974998D01*
X121444318Y-69974998D01*
X121444318Y-69975001D01*
X121464955Y-70131760D01*
X121464956Y-70131762D01*
X121521933Y-70269318D01*
X121525464Y-70277841D01*
X121621718Y-70403282D01*
X121747159Y-70499536D01*
X121893238Y-70560044D01*
X121971619Y-70570363D01*
X122049999Y-70580682D01*
X122050000Y-70580682D01*
X122050001Y-70580682D01*
X122114739Y-70572159D01*
X122206762Y-70560044D01*
X122352841Y-70499536D01*
X122478282Y-70403282D01*
X122574536Y-70277841D01*
X122635044Y-70131762D01*
X122653726Y-69989856D01*
X122655682Y-69975001D01*
X122655682Y-69974998D01*
X122636492Y-69829240D01*
X122635044Y-69818238D01*
X122574536Y-69672159D01*
X122478282Y-69546718D01*
X122352841Y-69450464D01*
X122335929Y-69443459D01*
X122206762Y-69389956D01*
X122206760Y-69389955D01*
X122050001Y-69369318D01*
X122049999Y-69369318D01*
X121893239Y-69389955D01*
X121893237Y-69389956D01*
X121747160Y-69450463D01*
X121621718Y-69546718D01*
X121525463Y-69672160D01*
X121464956Y-69818237D01*
X121464955Y-69818239D01*
X121444318Y-69974998D01*
X110000000Y-69974998D01*
X110000000Y-66236805D01*
X111422499Y-66236805D01*
X111446613Y-66358029D01*
X111446616Y-66358039D01*
X111493913Y-66472226D01*
X111493920Y-66472239D01*
X111562588Y-66575007D01*
X111562591Y-66575011D01*
X111649988Y-66662408D01*
X111649992Y-66662411D01*
X111752760Y-66731079D01*
X111752773Y-66731086D01*
X111861318Y-66776046D01*
X111866965Y-66778385D01*
X111866969Y-66778385D01*
X111866970Y-66778386D01*
X111988194Y-66802500D01*
X111988197Y-66802500D01*
X112111805Y-66802500D01*
X112202238Y-66784511D01*
X112233035Y-66778385D01*
X112347233Y-66731083D01*
X112450008Y-66662411D01*
X112537411Y-66575008D01*
X112606083Y-66472233D01*
X112653385Y-66358035D01*
X112670751Y-66270734D01*
X112677500Y-66236805D01*
X112677500Y-66113194D01*
X112653386Y-65991970D01*
X112653385Y-65991969D01*
X112653385Y-65991965D01*
X112650298Y-65984512D01*
X112606086Y-65877773D01*
X112606079Y-65877760D01*
X112537411Y-65774992D01*
X112537408Y-65774988D01*
X112450011Y-65687591D01*
X112450007Y-65687588D01*
X112347239Y-65618920D01*
X112347226Y-65618913D01*
X112233039Y-65571616D01*
X112233029Y-65571613D01*
X112111805Y-65547500D01*
X112111803Y-65547500D01*
X111988197Y-65547500D01*
X111988195Y-65547500D01*
X111866970Y-65571613D01*
X111866960Y-65571616D01*
X111752773Y-65618913D01*
X111752760Y-65618920D01*
X111649992Y-65687588D01*
X111649988Y-65687591D01*
X111562591Y-65774988D01*
X111562588Y-65774992D01*
X111493920Y-65877760D01*
X111493913Y-65877773D01*
X111446616Y-65991960D01*
X111446613Y-65991970D01*
X111422500Y-66113194D01*
X111422500Y-66113197D01*
X111422500Y-66236803D01*
X111422500Y-66236805D01*
X111422499Y-66236805D01*
X110000000Y-66236805D01*
X110000000Y-64645730D01*
X117674500Y-64645730D01*
X117674500Y-65429269D01*
X117677353Y-65459699D01*
X117677353Y-65459701D01*
X117721096Y-65584707D01*
X117722207Y-65587882D01*
X117802850Y-65697150D01*
X117912118Y-65777793D01*
X117954845Y-65792744D01*
X118040299Y-65822646D01*
X118070730Y-65825500D01*
X118070734Y-65825500D01*
X119129270Y-65825500D01*
X119159699Y-65822646D01*
X119159701Y-65822646D01*
X119223790Y-65800219D01*
X119287882Y-65777793D01*
X119397150Y-65697150D01*
X119477793Y-65587882D01*
X119505136Y-65509739D01*
X119522646Y-65459701D01*
X119522646Y-65459699D01*
X119525500Y-65429269D01*
X119525500Y-64645730D01*
X119522646Y-64615300D01*
X119522646Y-64615298D01*
X119477793Y-64487119D01*
X119477792Y-64487117D01*
X119397150Y-64377850D01*
X119287882Y-64297207D01*
X119287880Y-64297206D01*
X119159700Y-64252353D01*
X119129270Y-64249500D01*
X119129266Y-64249500D01*
X118070734Y-64249500D01*
X118070730Y-64249500D01*
X118040300Y-64252353D01*
X118040298Y-64252353D01*
X117912119Y-64297206D01*
X117912117Y-64297207D01*
X117802850Y-64377850D01*
X117722207Y-64487117D01*
X117722206Y-64487119D01*
X117677353Y-64615298D01*
X117677353Y-64615300D01*
X117674500Y-64645730D01*
X110000000Y-64645730D01*
X110000000Y-61224003D01*
X116094500Y-61224003D01*
X116094500Y-63476007D01*
X116099197Y-63519686D01*
X116110397Y-63571174D01*
X116112890Y-63581372D01*
X116112891Y-63581375D01*
X116155899Y-63662083D01*
X116155901Y-63662086D01*
X116201660Y-63714895D01*
X116218438Y-63732018D01*
X116219246Y-63732843D01*
X116219247Y-63732844D01*
X116219249Y-63732845D01*
X116286089Y-63770233D01*
X116299063Y-63777490D01*
X116366102Y-63797175D01*
X116424000Y-63805500D01*
X116424004Y-63805500D01*
X119436182Y-63805500D01*
X119436187Y-63805500D01*
X119474933Y-63801814D01*
X119520852Y-63792998D01*
X119526177Y-63791903D01*
X119608901Y-63752903D01*
X119663885Y-63709793D01*
X119704312Y-63667518D01*
X120065092Y-63162426D01*
X120120076Y-63119316D01*
X120165995Y-63110500D01*
X121319750Y-63110500D01*
X121319751Y-63110499D01*
X121334568Y-63107552D01*
X121378229Y-63098868D01*
X121378229Y-63098867D01*
X121378231Y-63098867D01*
X121444552Y-63054552D01*
X121488867Y-62988231D01*
X121488867Y-62988229D01*
X121488868Y-62988229D01*
X121500499Y-62929752D01*
X121500500Y-62929750D01*
X121500500Y-62819643D01*
X121501762Y-62801995D01*
X121505500Y-62776000D01*
X121505500Y-62624000D01*
X121501210Y-62584110D01*
X121500500Y-62570855D01*
X121500500Y-62490249D01*
X121500499Y-62490247D01*
X121486485Y-62419790D01*
X121490015Y-62419087D01*
X121484786Y-62370495D01*
X121486793Y-62363657D01*
X121488867Y-62353231D01*
X121500500Y-62294748D01*
X121500500Y-61855252D01*
X121500500Y-61855249D01*
X121500499Y-61855247D01*
X121486485Y-61784790D01*
X121490015Y-61784087D01*
X121484786Y-61735495D01*
X121486793Y-61728657D01*
X121500499Y-61659752D01*
X121500500Y-61659750D01*
X121500500Y-61220249D01*
X121500499Y-61220247D01*
X121488868Y-61161770D01*
X121488867Y-61161769D01*
X121444552Y-61095447D01*
X121378230Y-61051132D01*
X121378229Y-61051131D01*
X121319752Y-61039500D01*
X121319748Y-61039500D01*
X120080252Y-61039500D01*
X120080247Y-61039500D01*
X120021770Y-61051131D01*
X120021769Y-61051132D01*
X119958210Y-61093602D01*
X119891533Y-61114480D01*
X119889319Y-61114500D01*
X119326189Y-61114500D01*
X119259150Y-61094815D01*
X119238508Y-61078181D01*
X118761819Y-60601492D01*
X118728334Y-60540169D01*
X118725500Y-60513811D01*
X118725500Y-60267531D01*
X118745185Y-60200492D01*
X118797989Y-60154737D01*
X118867147Y-60144793D01*
X118924985Y-60169155D01*
X118963995Y-60199088D01*
X118997157Y-60224535D01*
X118997158Y-60224535D01*
X118997159Y-60224536D01*
X119143238Y-60285044D01*
X119200936Y-60292640D01*
X119299999Y-60305682D01*
X119300000Y-60305682D01*
X119399061Y-60292640D01*
X119468096Y-60303405D01*
X119502927Y-60327898D01*
X119529540Y-60354511D01*
X119585489Y-60410460D01*
X119585491Y-60410461D01*
X119585495Y-60410464D01*
X119632639Y-60437682D01*
X119654011Y-60450021D01*
X119730438Y-60470500D01*
X119860033Y-60470500D01*
X119927072Y-60490185D01*
X119947714Y-60506819D01*
X119955446Y-60514551D01*
X120021769Y-60558867D01*
X120021770Y-60558868D01*
X120080247Y-60570499D01*
X120080250Y-60570500D01*
X120080252Y-60570500D01*
X121319750Y-60570500D01*
X121319751Y-60570499D01*
X121346529Y-60565173D01*
X121378229Y-60558868D01*
X121378229Y-60558867D01*
X121378231Y-60558867D01*
X121444552Y-60514552D01*
X121488867Y-60448231D01*
X121488867Y-60448229D01*
X121488868Y-60448229D01*
X121500499Y-60389752D01*
X121500500Y-60389750D01*
X121500500Y-59959500D01*
X121520185Y-59892461D01*
X121572989Y-59846706D01*
X121624500Y-59835500D01*
X121639561Y-59835500D01*
X121639563Y-59835500D01*
X121715990Y-59815021D01*
X121784512Y-59775460D01*
X121784517Y-59775454D01*
X121790957Y-59770514D01*
X121792675Y-59772753D01*
X121841976Y-59745834D01*
X121868334Y-59743000D01*
X123848467Y-59743000D01*
X123915506Y-59762685D01*
X123936148Y-59779319D01*
X124038181Y-59881352D01*
X124071666Y-59942675D01*
X124074500Y-59969033D01*
X124074500Y-64132762D01*
X124094979Y-64209189D01*
X124133676Y-64276214D01*
X124133679Y-64276220D01*
X124133683Y-64276227D01*
X124134535Y-64277703D01*
X124134540Y-64277711D01*
X125666340Y-65809511D01*
X125722289Y-65865460D01*
X125722291Y-65865461D01*
X125722295Y-65865464D01*
X125790804Y-65905017D01*
X125790811Y-65905021D01*
X125867238Y-65925500D01*
X125867240Y-65925500D01*
X128732760Y-65925500D01*
X128732762Y-65925500D01*
X128809189Y-65905021D01*
X128877711Y-65865460D01*
X128933660Y-65809511D01*
X129951604Y-64791567D01*
X130063351Y-64679820D01*
X130121901Y-64621270D01*
X130121909Y-64621260D01*
X130451108Y-64292062D01*
X130512428Y-64258581D01*
X130582120Y-64263565D01*
X130604752Y-64274749D01*
X130607186Y-64276278D01*
X130607187Y-64276279D01*
X130710330Y-64341080D01*
X130825307Y-64381302D01*
X130946352Y-64394930D01*
X131067394Y-64381279D01*
X131182364Y-64341034D01*
X131285494Y-64276214D01*
X131328555Y-64233142D01*
X131329132Y-64232563D01*
X131329372Y-64232431D01*
X131329318Y-64232377D01*
X131355591Y-64206104D01*
X131441352Y-64120344D01*
X131441353Y-64120341D01*
X131446943Y-64114752D01*
X131447283Y-64114363D01*
X131456387Y-64105263D01*
X131521200Y-64002140D01*
X131561440Y-63887180D01*
X131575089Y-63766147D01*
X131561462Y-63645112D01*
X131521241Y-63530145D01*
X131456446Y-63427011D01*
X131456445Y-63427010D01*
X131454919Y-63424581D01*
X131435924Y-63357343D01*
X131456295Y-63290509D01*
X131472230Y-63270940D01*
X131586575Y-63156594D01*
X131647897Y-63123112D01*
X131674255Y-63120278D01*
X133457316Y-63120278D01*
X133524355Y-63139963D01*
X133570110Y-63192767D01*
X133580054Y-63261925D01*
X133570750Y-63294365D01*
X133527415Y-63392506D01*
X133527415Y-63392508D01*
X133524500Y-63417631D01*
X133524500Y-64932356D01*
X133524502Y-64932382D01*
X133527413Y-64957487D01*
X133527415Y-64957491D01*
X133572793Y-65060264D01*
X133588181Y-65075652D01*
X133621666Y-65136975D01*
X133624500Y-65163333D01*
X133624500Y-65433313D01*
X133644979Y-65509740D01*
X133649564Y-65517682D01*
X133654257Y-65525809D01*
X133654258Y-65525813D01*
X133684535Y-65578255D01*
X133684538Y-65578260D01*
X133684539Y-65578261D01*
X133689486Y-65584707D01*
X133687246Y-65586425D01*
X133714166Y-65635726D01*
X133717000Y-65662084D01*
X133717000Y-69443459D01*
X133730091Y-69492315D01*
X133737479Y-69519886D01*
X133773433Y-69582161D01*
X133777037Y-69588404D01*
X133777042Y-69588410D01*
X134219902Y-70031270D01*
X134253387Y-70092593D01*
X134248403Y-70162285D01*
X134246782Y-70166404D01*
X134214956Y-70243237D01*
X134214955Y-70243239D01*
X134194318Y-70399998D01*
X134194318Y-70400001D01*
X134214955Y-70556760D01*
X134214956Y-70556762D01*
X134252419Y-70647207D01*
X134275464Y-70702841D01*
X134371718Y-70828282D01*
X134497159Y-70924536D01*
X134643238Y-70985044D01*
X134721619Y-70995363D01*
X134799999Y-71005682D01*
X134800000Y-71005682D01*
X134800001Y-71005682D01*
X134875593Y-70995730D01*
X134956762Y-70985044D01*
X135028049Y-70955515D01*
X135097516Y-70948047D01*
X135159995Y-70979322D01*
X135195648Y-71039410D01*
X135199500Y-71070077D01*
X135199500Y-74287518D01*
X135179815Y-74354557D01*
X135150986Y-74385894D01*
X135071719Y-74446716D01*
X134975463Y-74572160D01*
X134914956Y-74718237D01*
X134914955Y-74718239D01*
X134894318Y-74874998D01*
X134894318Y-74875001D01*
X134914955Y-75031760D01*
X134914956Y-75031762D01*
X134975464Y-75177841D01*
X135071718Y-75303282D01*
X135197159Y-75399536D01*
X135343238Y-75460044D01*
X135421619Y-75470363D01*
X135499999Y-75480682D01*
X135500000Y-75480682D01*
X135500001Y-75480682D01*
X135552254Y-75473802D01*
X135656762Y-75460044D01*
X135802841Y-75399536D01*
X135928282Y-75303282D01*
X136024536Y-75177841D01*
X136085044Y-75031762D01*
X136098802Y-74927254D01*
X136105682Y-74875001D01*
X136105682Y-74874998D01*
X136085044Y-74718239D01*
X136085044Y-74718238D01*
X136024536Y-74572159D01*
X135928282Y-74446718D01*
X135928280Y-74446717D01*
X135928280Y-74446716D01*
X135849014Y-74385894D01*
X135807811Y-74329466D01*
X135800500Y-74287518D01*
X135800500Y-70999998D01*
X137794318Y-70999998D01*
X137794318Y-71000001D01*
X137814955Y-71156760D01*
X137814956Y-71156762D01*
X137856376Y-71256760D01*
X137875464Y-71302841D01*
X137971718Y-71428282D01*
X138097159Y-71524536D01*
X138243238Y-71585044D01*
X138321619Y-71595363D01*
X138399999Y-71605682D01*
X138399999Y-71605681D01*
X138400000Y-71605682D01*
X138449560Y-71599157D01*
X138518593Y-71609922D01*
X138570849Y-71656302D01*
X138589735Y-71723570D01*
X138587361Y-71746288D01*
X138569500Y-71836079D01*
X138569500Y-71836082D01*
X138569500Y-72983918D01*
X138569500Y-72983920D01*
X138569499Y-72983920D01*
X138598340Y-73128907D01*
X138598343Y-73128917D01*
X138654912Y-73265488D01*
X138654919Y-73265501D01*
X138737048Y-73388415D01*
X138737051Y-73388419D01*
X138841580Y-73492948D01*
X138841584Y-73492951D01*
X138964498Y-73575080D01*
X138964511Y-73575087D01*
X139079330Y-73622646D01*
X139101087Y-73631658D01*
X139101091Y-73631658D01*
X139101092Y-73631659D01*
X139246079Y-73660500D01*
X139246082Y-73660500D01*
X139393920Y-73660500D01*
X139491462Y-73641096D01*
X139538913Y-73631658D01*
X139675495Y-73575084D01*
X139798416Y-73492951D01*
X139902951Y-73388416D01*
X139985084Y-73265495D01*
X140041658Y-73128913D01*
X140070500Y-72983918D01*
X140070500Y-71836082D01*
X140070500Y-71836079D01*
X140041659Y-71691092D01*
X140041658Y-71691091D01*
X140041658Y-71691087D01*
X140039155Y-71685044D01*
X139985087Y-71554511D01*
X139985080Y-71554498D01*
X139902951Y-71431584D01*
X139902948Y-71431580D01*
X139798419Y-71327051D01*
X139798415Y-71327048D01*
X139675501Y-71244919D01*
X139675488Y-71244912D01*
X139538917Y-71188343D01*
X139538907Y-71188340D01*
X139393920Y-71159500D01*
X139393918Y-71159500D01*
X139246082Y-71159500D01*
X139246077Y-71159500D01*
X139147370Y-71179134D01*
X139077778Y-71172907D01*
X139022601Y-71130043D01*
X138999357Y-71064154D01*
X139000239Y-71041338D01*
X139005682Y-71000000D01*
X139005120Y-70995734D01*
X139005119Y-70995730D01*
X143999500Y-70995730D01*
X143999500Y-71804269D01*
X144002353Y-71834699D01*
X144002353Y-71834701D01*
X144047206Y-71962880D01*
X144047207Y-71962882D01*
X144127850Y-72072150D01*
X144237118Y-72152793D01*
X144279845Y-72167744D01*
X144365299Y-72197646D01*
X144395730Y-72200500D01*
X144395734Y-72200500D01*
X145404270Y-72200500D01*
X145434699Y-72197646D01*
X145434701Y-72197646D01*
X145511609Y-72170734D01*
X145562882Y-72152793D01*
X145672150Y-72072150D01*
X145752793Y-71962882D01*
X145775219Y-71898790D01*
X145797646Y-71834701D01*
X145797646Y-71834699D01*
X145800500Y-71804269D01*
X145800500Y-70995730D01*
X145797646Y-70965300D01*
X145797646Y-70965298D01*
X145752793Y-70837119D01*
X145752792Y-70837117D01*
X145672150Y-70727850D01*
X145562882Y-70647207D01*
X145562880Y-70647206D01*
X145434700Y-70602353D01*
X145404270Y-70599500D01*
X145404266Y-70599500D01*
X144395734Y-70599500D01*
X144395730Y-70599500D01*
X144365300Y-70602353D01*
X144365298Y-70602353D01*
X144237119Y-70647206D01*
X144237117Y-70647207D01*
X144127850Y-70727850D01*
X144047207Y-70837117D01*
X144047206Y-70837119D01*
X144002353Y-70965298D01*
X144002353Y-70965300D01*
X143999500Y-70995730D01*
X139005119Y-70995730D01*
X138989226Y-70875001D01*
X138985044Y-70843238D01*
X138924536Y-70697159D01*
X138828282Y-70571718D01*
X138702841Y-70475464D01*
X138556762Y-70414956D01*
X138556760Y-70414955D01*
X138400001Y-70394318D01*
X138399999Y-70394318D01*
X138243239Y-70414955D01*
X138243237Y-70414956D01*
X138097160Y-70475463D01*
X137971718Y-70571718D01*
X137875463Y-70697160D01*
X137814956Y-70843237D01*
X137814955Y-70843239D01*
X137794318Y-70999998D01*
X135800500Y-70999998D01*
X135800500Y-69856886D01*
X135796233Y-69840960D01*
X135780021Y-69780458D01*
X135763650Y-69752102D01*
X135740464Y-69711942D01*
X135740458Y-69711934D01*
X135408120Y-69379596D01*
X135374635Y-69318273D01*
X135372862Y-69275732D01*
X135385904Y-69176669D01*
X135365266Y-69019907D01*
X135328435Y-68930991D01*
X135320967Y-68861524D01*
X135352242Y-68799044D01*
X135395543Y-68768980D01*
X135502841Y-68724536D01*
X135628282Y-68628282D01*
X135724536Y-68502841D01*
X135785044Y-68356762D01*
X135805682Y-68200000D01*
X135804656Y-68192209D01*
X135786946Y-68057685D01*
X135785044Y-68043238D01*
X135724536Y-67897159D01*
X135628282Y-67771718D01*
X135628280Y-67771717D01*
X135628280Y-67771716D01*
X135549014Y-67710894D01*
X135507811Y-67654466D01*
X135500500Y-67612518D01*
X135500500Y-67075833D01*
X135520185Y-67008794D01*
X135536819Y-66988152D01*
X135588152Y-66936819D01*
X135649475Y-66903334D01*
X135675833Y-66900500D01*
X142639560Y-66900500D01*
X142639562Y-66900500D01*
X142715989Y-66880021D01*
X142784511Y-66840460D01*
X142840460Y-66784511D01*
X143640460Y-65984511D01*
X143680021Y-65915989D01*
X143700500Y-65839562D01*
X143700500Y-63570730D01*
X146174500Y-63570730D01*
X146174500Y-64354269D01*
X146177353Y-64384699D01*
X146177353Y-64384701D01*
X146213192Y-64487119D01*
X146222207Y-64512882D01*
X146302850Y-64622150D01*
X146412118Y-64702793D01*
X146454845Y-64717744D01*
X146540299Y-64747646D01*
X146570730Y-64750500D01*
X146570734Y-64750500D01*
X147629270Y-64750500D01*
X147659699Y-64747646D01*
X147659701Y-64747646D01*
X147723790Y-64725219D01*
X147787882Y-64702793D01*
X147897150Y-64622150D01*
X147977793Y-64512882D01*
X148000219Y-64448790D01*
X148022646Y-64384701D01*
X148022646Y-64384699D01*
X148025500Y-64354269D01*
X148025500Y-63570730D01*
X148022646Y-63540300D01*
X148022646Y-63540298D01*
X147977793Y-63412119D01*
X147977792Y-63412117D01*
X147963320Y-63392508D01*
X147897150Y-63302850D01*
X147787882Y-63222207D01*
X147787880Y-63222206D01*
X147659700Y-63177353D01*
X147629270Y-63174500D01*
X147629266Y-63174500D01*
X146570734Y-63174500D01*
X146570730Y-63174500D01*
X146540300Y-63177353D01*
X146540298Y-63177353D01*
X146412119Y-63222206D01*
X146412117Y-63222207D01*
X146302850Y-63302850D01*
X146222207Y-63412117D01*
X146222206Y-63412119D01*
X146177353Y-63540298D01*
X146177353Y-63540300D01*
X146174500Y-63570730D01*
X143700500Y-63570730D01*
X143700500Y-59187482D01*
X143720185Y-59120443D01*
X143749014Y-59089106D01*
X143754965Y-59084540D01*
X143828282Y-59028282D01*
X143924536Y-58902841D01*
X143985044Y-58756762D01*
X144005682Y-58600000D01*
X144003863Y-58586187D01*
X143988860Y-58472226D01*
X143985044Y-58443238D01*
X143924536Y-58297159D01*
X143828282Y-58171718D01*
X143702841Y-58075464D01*
X143673257Y-58063210D01*
X143556762Y-58014956D01*
X143556760Y-58014955D01*
X143400001Y-57994318D01*
X143399999Y-57994318D01*
X143243239Y-58014955D01*
X143243237Y-58014956D01*
X143097160Y-58075463D01*
X142971718Y-58171718D01*
X142875463Y-58297160D01*
X142814956Y-58443237D01*
X142814955Y-58443239D01*
X142794318Y-58599998D01*
X142794318Y-58600001D01*
X142814955Y-58756760D01*
X142814956Y-58756762D01*
X142865292Y-58878285D01*
X142875464Y-58902841D01*
X142971718Y-59028282D01*
X143044997Y-59084511D01*
X143050986Y-59089106D01*
X143092189Y-59145534D01*
X143099500Y-59187482D01*
X143099500Y-65624167D01*
X143079815Y-65691206D01*
X143063181Y-65711848D01*
X142511848Y-66263181D01*
X142450525Y-66296666D01*
X142424167Y-66299500D01*
X135460438Y-66299500D01*
X135393039Y-66317559D01*
X135384007Y-66319980D01*
X135318106Y-66358029D01*
X135318096Y-66358035D01*
X135316993Y-66358671D01*
X135315488Y-66359540D01*
X134979681Y-66695348D01*
X134918358Y-66728833D01*
X134848666Y-66723849D01*
X134792733Y-66681977D01*
X134768316Y-66616513D01*
X134768000Y-66607667D01*
X134768000Y-65662084D01*
X134787685Y-65595045D01*
X134795823Y-65584945D01*
X134795513Y-65584708D01*
X134800452Y-65578269D01*
X134800460Y-65578262D01*
X134840022Y-65509739D01*
X134860500Y-65433313D01*
X134860500Y-65354189D01*
X134860500Y-65302571D01*
X134880185Y-65235532D01*
X134932989Y-65189777D01*
X135002147Y-65179833D01*
X135017055Y-65182921D01*
X135025006Y-65185084D01*
X135025009Y-65185085D01*
X135050135Y-65188000D01*
X135339864Y-65187999D01*
X135339879Y-65187997D01*
X135339882Y-65187997D01*
X135364987Y-65185086D01*
X135364987Y-65185085D01*
X135364991Y-65185085D01*
X135462417Y-65142067D01*
X135531690Y-65132996D01*
X135562581Y-65142066D01*
X135660009Y-65185085D01*
X135685135Y-65188000D01*
X135974864Y-65187999D01*
X135974879Y-65187997D01*
X135974882Y-65187997D01*
X135999987Y-65185086D01*
X135999987Y-65185085D01*
X135999991Y-65185085D01*
X136097417Y-65142067D01*
X136166690Y-65132996D01*
X136197581Y-65142066D01*
X136295009Y-65185085D01*
X136320135Y-65188000D01*
X136609864Y-65187999D01*
X136609879Y-65187997D01*
X136609882Y-65187997D01*
X136634987Y-65185086D01*
X136634987Y-65185085D01*
X136634991Y-65185085D01*
X136732417Y-65142067D01*
X136801690Y-65132996D01*
X136832581Y-65142066D01*
X136930009Y-65185085D01*
X136955135Y-65188000D01*
X137244864Y-65187999D01*
X137244879Y-65187997D01*
X137244882Y-65187997D01*
X137269987Y-65185086D01*
X137269987Y-65185085D01*
X137269991Y-65185085D01*
X137367417Y-65142067D01*
X137436690Y-65132996D01*
X137467581Y-65142066D01*
X137565009Y-65185085D01*
X137590135Y-65188000D01*
X137879864Y-65187999D01*
X137879879Y-65187997D01*
X137879882Y-65187997D01*
X137904987Y-65185086D01*
X137904987Y-65185085D01*
X137904991Y-65185085D01*
X138002417Y-65142067D01*
X138071690Y-65132996D01*
X138102581Y-65142066D01*
X138200009Y-65185085D01*
X138225135Y-65188000D01*
X138514864Y-65187999D01*
X138514879Y-65187997D01*
X138514882Y-65187997D01*
X138539987Y-65185086D01*
X138539988Y-65185085D01*
X138539991Y-65185085D01*
X138642765Y-65139706D01*
X138722206Y-65060265D01*
X138767585Y-64957491D01*
X138770500Y-64932365D01*
X138770499Y-63417636D01*
X138769835Y-63411912D01*
X138767586Y-63392512D01*
X138767585Y-63392510D01*
X138767585Y-63392509D01*
X138722206Y-63289735D01*
X138642765Y-63210294D01*
X138577999Y-63181697D01*
X138539992Y-63164915D01*
X138514865Y-63162000D01*
X138225143Y-63162000D01*
X138225117Y-63162002D01*
X138200012Y-63164913D01*
X138200008Y-63164915D01*
X138102586Y-63207931D01*
X138033308Y-63217003D01*
X138002414Y-63207931D01*
X137904995Y-63164916D01*
X137904991Y-63164915D01*
X137879865Y-63162000D01*
X137590143Y-63162000D01*
X137590117Y-63162002D01*
X137565012Y-63164913D01*
X137565008Y-63164915D01*
X137467586Y-63207931D01*
X137398308Y-63217003D01*
X137367414Y-63207931D01*
X137269995Y-63164916D01*
X137269991Y-63164915D01*
X137244865Y-63162000D01*
X136955143Y-63162000D01*
X136955117Y-63162002D01*
X136930012Y-63164913D01*
X136930008Y-63164915D01*
X136832586Y-63207931D01*
X136763308Y-63217003D01*
X136732414Y-63207931D01*
X136634995Y-63164916D01*
X136634991Y-63164915D01*
X136609865Y-63162000D01*
X136320143Y-63162000D01*
X136320117Y-63162002D01*
X136295012Y-63164913D01*
X136295011Y-63164914D01*
X136212085Y-63201529D01*
X136142807Y-63210600D01*
X136079622Y-63180776D01*
X136042592Y-63121526D01*
X136038000Y-63088094D01*
X136038000Y-62979078D01*
X136024783Y-62929752D01*
X136017521Y-62902650D01*
X135989967Y-62854925D01*
X135977964Y-62834134D01*
X135977958Y-62834126D01*
X135273153Y-62129321D01*
X135273150Y-62129318D01*
X135271356Y-62128282D01*
X135204630Y-62089758D01*
X135204629Y-62089757D01*
X135179152Y-62082930D01*
X135128201Y-62069278D01*
X131272460Y-62069278D01*
X131234246Y-62079517D01*
X131196031Y-62089757D01*
X131196030Y-62089758D01*
X131129300Y-62128285D01*
X131127515Y-62129315D01*
X131127507Y-62129321D01*
X128418648Y-64838181D01*
X128357325Y-64871666D01*
X128330967Y-64874500D01*
X126269033Y-64874500D01*
X126201994Y-64854815D01*
X126181352Y-64838181D01*
X125300352Y-63957181D01*
X125266867Y-63895858D01*
X125271851Y-63826166D01*
X125313723Y-63770233D01*
X125379187Y-63745816D01*
X125388033Y-63745500D01*
X126278398Y-63745500D01*
X126345437Y-63765185D01*
X126391192Y-63817989D01*
X126401337Y-63853315D01*
X126414955Y-63956760D01*
X126414956Y-63956762D01*
X126475464Y-64102841D01*
X126571718Y-64228282D01*
X126697159Y-64324536D01*
X126843238Y-64385044D01*
X126918322Y-64394929D01*
X126999999Y-64405682D01*
X127000000Y-64405682D01*
X127000001Y-64405682D01*
X127052254Y-64398802D01*
X127156762Y-64385044D01*
X127302841Y-64324536D01*
X127428282Y-64228282D01*
X127524536Y-64102841D01*
X127585044Y-63956762D01*
X127605682Y-63800000D01*
X127605682Y-63791872D01*
X127607251Y-63791872D01*
X127616577Y-63732018D01*
X127662950Y-63679756D01*
X127712568Y-63661915D01*
X127830806Y-63646349D01*
X127976885Y-63585841D01*
X128102326Y-63489587D01*
X128198580Y-63364146D01*
X128259088Y-63218067D01*
X128279726Y-63061305D01*
X128277097Y-63041335D01*
X128287863Y-62972300D01*
X128334242Y-62920044D01*
X128401511Y-62901159D01*
X128416202Y-62902209D01*
X128479859Y-62910590D01*
X128636621Y-62889952D01*
X128782700Y-62829444D01*
X128908141Y-62733190D01*
X129004395Y-62607749D01*
X129064903Y-62461670D01*
X129085541Y-62304908D01*
X129082708Y-62283394D01*
X129093472Y-62214363D01*
X129139850Y-62162106D01*
X129189460Y-62144271D01*
X129288103Y-62131285D01*
X129434182Y-62070777D01*
X129526423Y-61999998D01*
X139394318Y-61999998D01*
X139394318Y-62000001D01*
X139414955Y-62156760D01*
X139414956Y-62156762D01*
X139472112Y-62294750D01*
X139475464Y-62302841D01*
X139571718Y-62428282D01*
X139697159Y-62524536D01*
X139843238Y-62585044D01*
X139921619Y-62595363D01*
X139999999Y-62605682D01*
X140000000Y-62605682D01*
X140000001Y-62605682D01*
X140052254Y-62598802D01*
X140156762Y-62585044D01*
X140302841Y-62524536D01*
X140428282Y-62428282D01*
X140524536Y-62302841D01*
X140585044Y-62156762D01*
X140605682Y-62000000D01*
X140585044Y-61843238D01*
X140524536Y-61697159D01*
X140428282Y-61571718D01*
X140302841Y-61475464D01*
X140156762Y-61414956D01*
X140156760Y-61414955D01*
X140000001Y-61394318D01*
X139999999Y-61394318D01*
X139843239Y-61414955D01*
X139843237Y-61414956D01*
X139697160Y-61475463D01*
X139571718Y-61571718D01*
X139475463Y-61697160D01*
X139414956Y-61843237D01*
X139414955Y-61843239D01*
X139394318Y-61999998D01*
X129526423Y-61999998D01*
X129559623Y-61974523D01*
X129655877Y-61849082D01*
X129716385Y-61703003D01*
X129737023Y-61546241D01*
X129716385Y-61389479D01*
X129655877Y-61243400D01*
X129655876Y-61243399D01*
X129655876Y-61243398D01*
X129596564Y-61166102D01*
X129563243Y-61122676D01*
X129538049Y-61057510D01*
X129552087Y-60989065D01*
X129563239Y-60971711D01*
X129657338Y-60849080D01*
X129717846Y-60703001D01*
X129738484Y-60546239D01*
X129734312Y-60514552D01*
X129717846Y-60389478D01*
X129717846Y-60389477D01*
X129657338Y-60243398D01*
X129561084Y-60117957D01*
X129435643Y-60021703D01*
X129289564Y-59961195D01*
X129249506Y-59955921D01*
X129176548Y-59946316D01*
X129112652Y-59918049D01*
X129074181Y-59859725D01*
X129069795Y-59807193D01*
X129074807Y-59769125D01*
X129063401Y-59682491D01*
X129058086Y-59642113D01*
X129054169Y-59612363D01*
X128993661Y-59466284D01*
X128897407Y-59340843D01*
X128771966Y-59244589D01*
X128625887Y-59184081D01*
X128581452Y-59178231D01*
X128473832Y-59164062D01*
X128409936Y-59135795D01*
X128371465Y-59077471D01*
X128367079Y-59057308D01*
X128356052Y-58973547D01*
X128347061Y-58905255D01*
X128286553Y-58759176D01*
X128190299Y-58633735D01*
X128064858Y-58537481D01*
X128058448Y-58534826D01*
X127918779Y-58476973D01*
X127918777Y-58476972D01*
X127762018Y-58456335D01*
X127762016Y-58456335D01*
X127738574Y-58459421D01*
X127669538Y-58448655D01*
X127617283Y-58402275D01*
X127599450Y-58352669D01*
X127585044Y-58243238D01*
X127524536Y-58097159D01*
X127428282Y-57971718D01*
X127302841Y-57875464D01*
X127277477Y-57864958D01*
X127156762Y-57814956D01*
X127156760Y-57814955D01*
X127000001Y-57794318D01*
X126999999Y-57794318D01*
X126843239Y-57814955D01*
X126843237Y-57814956D01*
X126697160Y-57875463D01*
X126571718Y-57971718D01*
X126475463Y-58097160D01*
X126414956Y-58243237D01*
X126414955Y-58243239D01*
X126395413Y-58391685D01*
X126367147Y-58455582D01*
X126308822Y-58494053D01*
X126272474Y-58499500D01*
X125280247Y-58499500D01*
X125221770Y-58511131D01*
X125221769Y-58511132D01*
X125155447Y-58555447D01*
X125111132Y-58621769D01*
X125111131Y-58621770D01*
X125099500Y-58680247D01*
X125099500Y-59119749D01*
X125103326Y-59138986D01*
X125097097Y-59208578D01*
X125054233Y-59263754D01*
X124988342Y-59286997D01*
X124920346Y-59270928D01*
X124894027Y-59250856D01*
X124395213Y-58752041D01*
X124392554Y-58750506D01*
X124392555Y-58750506D01*
X124392549Y-58750503D01*
X124326691Y-58712480D01*
X124326690Y-58712479D01*
X124301213Y-58705652D01*
X124250262Y-58692000D01*
X124250260Y-58692000D01*
X121868335Y-58692000D01*
X121801296Y-58672315D01*
X121791200Y-58664179D01*
X121790963Y-58664489D01*
X121784519Y-58659544D01*
X121784167Y-58659341D01*
X121779290Y-58656525D01*
X121779289Y-58656524D01*
X121715992Y-58619980D01*
X121715991Y-58619979D01*
X121690514Y-58613152D01*
X121639563Y-58599500D01*
X121639561Y-58599500D01*
X121539967Y-58599500D01*
X121472928Y-58579815D01*
X121452286Y-58563181D01*
X121444553Y-58555448D01*
X121378230Y-58511132D01*
X121378229Y-58511131D01*
X121319752Y-58499500D01*
X121319748Y-58499500D01*
X120080252Y-58499500D01*
X120080247Y-58499500D01*
X120021770Y-58511131D01*
X120021769Y-58511132D01*
X119955447Y-58555447D01*
X119911132Y-58621769D01*
X119911131Y-58621770D01*
X119899500Y-58680247D01*
X119899500Y-59119752D01*
X119901739Y-59131010D01*
X119895509Y-59200602D01*
X119852644Y-59255777D01*
X119786753Y-59279019D01*
X119718757Y-59262949D01*
X119704635Y-59253573D01*
X119602842Y-59175464D01*
X119456762Y-59114956D01*
X119456760Y-59114955D01*
X119300001Y-59094318D01*
X119299999Y-59094318D01*
X119143239Y-59114955D01*
X119143237Y-59114956D01*
X118997157Y-59175464D01*
X118924986Y-59230844D01*
X118859817Y-59256038D01*
X118791372Y-59242000D01*
X118741383Y-59193186D01*
X118725500Y-59132468D01*
X118725500Y-58586187D01*
X118745185Y-58519148D01*
X118761814Y-58498511D01*
X119860326Y-57399998D01*
X120594318Y-57399998D01*
X120594318Y-57400001D01*
X120614955Y-57556760D01*
X120614956Y-57556762D01*
X120674287Y-57700001D01*
X120675464Y-57702841D01*
X120771718Y-57828282D01*
X120897159Y-57924536D01*
X121043238Y-57985044D01*
X121113681Y-57994318D01*
X121199999Y-58005682D01*
X121200000Y-58005682D01*
X121200001Y-58005682D01*
X121252254Y-57998802D01*
X121356762Y-57985044D01*
X121502841Y-57924536D01*
X121628282Y-57828282D01*
X121724536Y-57702841D01*
X121785044Y-57556762D01*
X121805682Y-57400000D01*
X121785044Y-57243238D01*
X121724536Y-57097159D01*
X121628282Y-56971718D01*
X121502841Y-56875464D01*
X121424106Y-56842851D01*
X121356762Y-56814956D01*
X121356760Y-56814955D01*
X121200001Y-56794318D01*
X121199999Y-56794318D01*
X121043239Y-56814955D01*
X121043237Y-56814956D01*
X120897160Y-56875463D01*
X120771718Y-56971718D01*
X120675463Y-57097160D01*
X120614956Y-57243237D01*
X120614955Y-57243239D01*
X120594318Y-57399998D01*
X119860326Y-57399998D01*
X120189652Y-57070672D01*
X120189657Y-57070669D01*
X120199860Y-57060465D01*
X120199862Y-57060465D01*
X120260465Y-56999862D01*
X120289253Y-56950000D01*
X120303318Y-56925639D01*
X120325501Y-56842853D01*
X120325501Y-56757147D01*
X120325501Y-56749552D01*
X120325500Y-56749534D01*
X120325500Y-55374998D01*
X121444318Y-55374998D01*
X121444318Y-55375001D01*
X121464955Y-55531760D01*
X121464956Y-55531762D01*
X121515874Y-55654690D01*
X121525464Y-55677841D01*
X121621718Y-55803282D01*
X121747159Y-55899536D01*
X121893238Y-55960044D01*
X121971619Y-55970363D01*
X122049999Y-55980682D01*
X122050000Y-55980682D01*
X122050001Y-55980682D01*
X122102254Y-55973802D01*
X122206762Y-55960044D01*
X122352841Y-55899536D01*
X122478282Y-55803282D01*
X122574536Y-55677841D01*
X122635044Y-55531762D01*
X122648016Y-55433230D01*
X128574500Y-55433230D01*
X128574500Y-56216769D01*
X128577353Y-56247199D01*
X128577353Y-56247201D01*
X128622206Y-56375380D01*
X128622207Y-56375382D01*
X128702850Y-56484650D01*
X128812118Y-56565293D01*
X128830480Y-56571718D01*
X128940299Y-56610146D01*
X128970730Y-56613000D01*
X128970734Y-56613000D01*
X130029270Y-56613000D01*
X130059699Y-56610146D01*
X130059701Y-56610146D01*
X130123790Y-56587719D01*
X130187882Y-56565293D01*
X130297150Y-56484650D01*
X130350731Y-56412048D01*
X130406377Y-56369800D01*
X130476033Y-56364341D01*
X130537582Y-56397408D01*
X130571484Y-56458502D01*
X130574500Y-56485684D01*
X130574500Y-57216769D01*
X130577353Y-57247199D01*
X130577353Y-57247201D01*
X130606156Y-57329512D01*
X130622207Y-57375382D01*
X130702850Y-57484650D01*
X130812118Y-57565293D01*
X130854845Y-57580244D01*
X130940299Y-57610146D01*
X130970730Y-57613000D01*
X130970734Y-57613000D01*
X132029270Y-57613000D01*
X132059699Y-57610146D01*
X132059701Y-57610146D01*
X132135863Y-57583495D01*
X132187882Y-57565293D01*
X132297150Y-57484650D01*
X132377793Y-57375382D01*
X132400219Y-57311290D01*
X132422646Y-57247201D01*
X132422646Y-57247199D01*
X132425500Y-57216769D01*
X132425500Y-56433230D01*
X132422646Y-56402800D01*
X132422646Y-56402798D01*
X132377793Y-56274619D01*
X132377792Y-56274617D01*
X132297150Y-56165350D01*
X132187882Y-56084707D01*
X132187880Y-56084706D01*
X132059700Y-56039853D01*
X132029270Y-56037000D01*
X132029266Y-56037000D01*
X130970734Y-56037000D01*
X130970730Y-56037000D01*
X130940300Y-56039853D01*
X130940298Y-56039853D01*
X130812119Y-56084706D01*
X130812117Y-56084707D01*
X130704252Y-56164315D01*
X130702850Y-56165350D01*
X130664904Y-56216766D01*
X130649270Y-56237949D01*
X130593623Y-56280199D01*
X130523966Y-56285658D01*
X130462417Y-56252590D01*
X130428516Y-56191496D01*
X130425500Y-56164315D01*
X130425500Y-55433230D01*
X130422646Y-55402800D01*
X130422646Y-55402798D01*
X130382434Y-55287882D01*
X130377793Y-55274618D01*
X130297150Y-55165350D01*
X130187882Y-55084707D01*
X130187880Y-55084706D01*
X130059700Y-55039853D01*
X130029270Y-55037000D01*
X130029266Y-55037000D01*
X128970734Y-55037000D01*
X128970730Y-55037000D01*
X128940300Y-55039853D01*
X128940298Y-55039853D01*
X128812119Y-55084706D01*
X128812117Y-55084707D01*
X128702850Y-55165350D01*
X128622207Y-55274617D01*
X128622206Y-55274619D01*
X128577353Y-55402798D01*
X128577353Y-55402800D01*
X128574500Y-55433230D01*
X122648016Y-55433230D01*
X122655682Y-55375000D01*
X122655658Y-55374820D01*
X122637586Y-55237544D01*
X122635044Y-55218238D01*
X122574536Y-55072159D01*
X122478282Y-54946718D01*
X122352841Y-54850464D01*
X122331125Y-54841469D01*
X122206762Y-54789956D01*
X122206760Y-54789955D01*
X122050001Y-54769318D01*
X122049999Y-54769318D01*
X121893239Y-54789955D01*
X121893237Y-54789956D01*
X121747160Y-54850463D01*
X121621718Y-54946718D01*
X121525463Y-55072160D01*
X121464956Y-55218237D01*
X121464955Y-55218239D01*
X121444318Y-55374998D01*
X120325500Y-55374998D01*
X120325500Y-53633230D01*
X126374500Y-53633230D01*
X126374500Y-54416769D01*
X126377353Y-54447199D01*
X126377353Y-54447201D01*
X126422206Y-54575380D01*
X126422207Y-54575382D01*
X126502850Y-54684650D01*
X126612118Y-54765293D01*
X126648653Y-54778077D01*
X126740299Y-54810146D01*
X126770730Y-54813000D01*
X126770734Y-54813000D01*
X127829270Y-54813000D01*
X127859699Y-54810146D01*
X127859701Y-54810146D01*
X127923790Y-54787719D01*
X127987882Y-54765293D01*
X128097150Y-54684650D01*
X128177793Y-54575382D01*
X128216179Y-54465681D01*
X128222646Y-54447201D01*
X128222646Y-54447199D01*
X128225500Y-54416769D01*
X128225500Y-53633230D01*
X128222646Y-53602800D01*
X128222646Y-53602798D01*
X128177793Y-53474619D01*
X128177792Y-53474617D01*
X128172909Y-53468001D01*
X128097150Y-53365350D01*
X127987882Y-53284707D01*
X127987880Y-53284706D01*
X127859700Y-53239853D01*
X127829270Y-53237000D01*
X127829266Y-53237000D01*
X126770734Y-53237000D01*
X126770730Y-53237000D01*
X126740300Y-53239853D01*
X126740298Y-53239853D01*
X126612119Y-53284706D01*
X126612117Y-53284707D01*
X126502850Y-53365350D01*
X126422207Y-53474617D01*
X126422206Y-53474619D01*
X126377353Y-53602798D01*
X126377353Y-53602800D01*
X126374500Y-53633230D01*
X120325500Y-53633230D01*
X120325500Y-53320802D01*
X120345185Y-53253763D01*
X120397989Y-53208008D01*
X120427519Y-53200122D01*
X120427330Y-53199256D01*
X120434701Y-53197646D01*
X120498790Y-53175219D01*
X120562882Y-53152793D01*
X120672150Y-53072150D01*
X120711380Y-53018995D01*
X130524499Y-53018995D01*
X130551418Y-53154322D01*
X130551421Y-53154332D01*
X130604221Y-53281804D01*
X130604228Y-53281817D01*
X130680885Y-53396541D01*
X130680888Y-53396545D01*
X130778454Y-53494111D01*
X130778458Y-53494114D01*
X130893182Y-53570771D01*
X130893195Y-53570778D01*
X131020667Y-53623578D01*
X131020672Y-53623580D01*
X131020676Y-53623580D01*
X131020677Y-53623581D01*
X131156004Y-53650500D01*
X131156007Y-53650500D01*
X131293995Y-53650500D01*
X131385041Y-53632389D01*
X131429328Y-53623580D01*
X131556811Y-53570775D01*
X131671542Y-53494114D01*
X131769114Y-53396542D01*
X131845775Y-53281811D01*
X131898580Y-53154328D01*
X131907389Y-53110041D01*
X131925500Y-53018995D01*
X131925500Y-51881004D01*
X131898581Y-51745677D01*
X131898580Y-51745676D01*
X131898580Y-51745672D01*
X131853616Y-51637118D01*
X131845778Y-51618195D01*
X131845771Y-51618182D01*
X131769114Y-51503458D01*
X131769111Y-51503454D01*
X131671545Y-51405888D01*
X131671541Y-51405885D01*
X131556817Y-51329228D01*
X131556804Y-51329221D01*
X131429332Y-51276421D01*
X131429322Y-51276418D01*
X131293995Y-51249500D01*
X131293993Y-51249500D01*
X131156007Y-51249500D01*
X131156005Y-51249500D01*
X131020677Y-51276418D01*
X131020667Y-51276421D01*
X130893195Y-51329221D01*
X130893182Y-51329228D01*
X130778458Y-51405885D01*
X130778454Y-51405888D01*
X130680888Y-51503454D01*
X130680885Y-51503458D01*
X130604228Y-51618182D01*
X130604221Y-51618195D01*
X130551421Y-51745667D01*
X130551418Y-51745677D01*
X130524500Y-51881004D01*
X130524500Y-51881007D01*
X130524500Y-53018993D01*
X130524500Y-53018995D01*
X130524499Y-53018995D01*
X120711380Y-53018995D01*
X120752793Y-52962882D01*
X120775219Y-52898790D01*
X120797646Y-52834701D01*
X120797646Y-52834699D01*
X120800500Y-52804269D01*
X120800500Y-51795730D01*
X120797646Y-51765300D01*
X120797646Y-51765298D01*
X120752793Y-51637119D01*
X120752792Y-51637117D01*
X120672150Y-51527850D01*
X120562882Y-51447207D01*
X120562880Y-51447206D01*
X120434700Y-51402353D01*
X120404270Y-51399500D01*
X120404266Y-51399500D01*
X119595734Y-51399500D01*
X119595730Y-51399500D01*
X119565300Y-51402353D01*
X119565298Y-51402353D01*
X119437119Y-51447206D01*
X119437117Y-51447207D01*
X119327850Y-51527850D01*
X119247207Y-51637117D01*
X119247206Y-51637119D01*
X119202353Y-51765298D01*
X119202353Y-51765300D01*
X119199500Y-51795730D01*
X119199500Y-52804269D01*
X119202353Y-52834699D01*
X119202353Y-52834701D01*
X119247206Y-52962880D01*
X119247207Y-52962882D01*
X119327850Y-53072150D01*
X119437118Y-53152793D01*
X119469163Y-53164006D01*
X119565298Y-53197646D01*
X119572670Y-53199256D01*
X119572206Y-53201379D01*
X119626982Y-53223198D01*
X119667609Y-53280041D01*
X119674500Y-53320802D01*
X119674500Y-56613811D01*
X119654815Y-56680850D01*
X119638181Y-56701492D01*
X118139537Y-58200135D01*
X118139535Y-58200138D01*
X118096681Y-58274361D01*
X118096681Y-58274362D01*
X118089945Y-58299498D01*
X118089946Y-58299499D01*
X118074500Y-58357145D01*
X118074500Y-60742851D01*
X118075561Y-60750909D01*
X118073004Y-60751245D01*
X118071645Y-60808260D01*
X118032481Y-60866121D01*
X117968252Y-60893623D01*
X117953534Y-60894500D01*
X116423992Y-60894500D01*
X116380313Y-60899197D01*
X116328825Y-60910397D01*
X116318627Y-60912890D01*
X116318624Y-60912891D01*
X116237916Y-60955899D01*
X116237913Y-60955901D01*
X116185104Y-61001660D01*
X116167160Y-61019242D01*
X116167154Y-61019249D01*
X116122511Y-61099059D01*
X116122509Y-61099064D01*
X116102826Y-61166096D01*
X116102825Y-61166101D01*
X116102825Y-61166102D01*
X116095040Y-61220249D01*
X116094500Y-61224003D01*
X110000000Y-61224003D01*
X110000000Y-58236805D01*
X111422499Y-58236805D01*
X111446613Y-58358029D01*
X111446616Y-58358039D01*
X111493913Y-58472226D01*
X111493920Y-58472239D01*
X111562588Y-58575007D01*
X111562591Y-58575011D01*
X111649988Y-58662408D01*
X111649992Y-58662411D01*
X111752760Y-58731079D01*
X111752773Y-58731086D01*
X111826898Y-58761789D01*
X111866965Y-58778385D01*
X111866969Y-58778385D01*
X111866970Y-58778386D01*
X111988194Y-58802500D01*
X111988197Y-58802500D01*
X112111805Y-58802500D01*
X112193361Y-58786276D01*
X112233035Y-58778385D01*
X112347233Y-58731083D01*
X112450008Y-58662411D01*
X112537411Y-58575008D01*
X112606083Y-58472233D01*
X112653385Y-58358035D01*
X112666274Y-58293241D01*
X112677500Y-58236805D01*
X112677500Y-58113194D01*
X112653386Y-57991970D01*
X112653385Y-57991969D01*
X112653385Y-57991965D01*
X112648441Y-57980029D01*
X112606086Y-57877773D01*
X112606079Y-57877760D01*
X112537411Y-57774992D01*
X112537408Y-57774988D01*
X112450011Y-57687591D01*
X112450007Y-57687588D01*
X112347239Y-57618920D01*
X112347226Y-57618913D01*
X112233039Y-57571616D01*
X112233029Y-57571613D01*
X112111805Y-57547500D01*
X112111803Y-57547500D01*
X111988197Y-57547500D01*
X111988195Y-57547500D01*
X111866970Y-57571613D01*
X111866960Y-57571616D01*
X111752773Y-57618913D01*
X111752760Y-57618920D01*
X111649992Y-57687588D01*
X111649988Y-57687591D01*
X111562591Y-57774988D01*
X111562588Y-57774992D01*
X111493920Y-57877760D01*
X111493913Y-57877773D01*
X111446616Y-57991960D01*
X111446613Y-57991970D01*
X111422500Y-58113194D01*
X111422500Y-58113197D01*
X111422500Y-58236803D01*
X111422500Y-58236805D01*
X111422499Y-58236805D01*
X110000000Y-58236805D01*
X110000000Y-55374998D01*
X111844318Y-55374998D01*
X111844318Y-55375001D01*
X111864955Y-55531760D01*
X111864956Y-55531762D01*
X111915874Y-55654690D01*
X111925464Y-55677841D01*
X112021718Y-55803282D01*
X112147159Y-55899536D01*
X112293238Y-55960044D01*
X112371619Y-55970363D01*
X112449999Y-55980682D01*
X112450000Y-55980682D01*
X112450001Y-55980682D01*
X112502254Y-55973802D01*
X112606762Y-55960044D01*
X112752841Y-55899536D01*
X112878282Y-55803282D01*
X112974536Y-55677841D01*
X113035044Y-55531762D01*
X113055682Y-55375000D01*
X113055658Y-55374820D01*
X113037586Y-55237544D01*
X113035044Y-55218238D01*
X112974536Y-55072159D01*
X112878282Y-54946718D01*
X112752841Y-54850464D01*
X112731125Y-54841469D01*
X112606762Y-54789956D01*
X112606760Y-54789955D01*
X112450001Y-54769318D01*
X112449999Y-54769318D01*
X112293239Y-54789955D01*
X112293237Y-54789956D01*
X112147160Y-54850463D01*
X112021718Y-54946718D01*
X111925463Y-55072160D01*
X111864956Y-55218237D01*
X111864955Y-55218239D01*
X111844318Y-55374998D01*
X110000000Y-55374998D01*
X110000000Y-54070730D01*
X116949500Y-54070730D01*
X116949500Y-55129269D01*
X116952353Y-55159699D01*
X116952353Y-55159701D01*
X116992566Y-55274619D01*
X116997207Y-55287882D01*
X117077850Y-55397150D01*
X117187118Y-55477793D01*
X117220632Y-55489520D01*
X117277408Y-55530242D01*
X117303154Y-55595195D01*
X117289697Y-55663757D01*
X117241309Y-55714159D01*
X117230543Y-55719075D01*
X117224617Y-55722207D01*
X117115350Y-55802850D01*
X117034707Y-55912117D01*
X117034706Y-55912119D01*
X116989853Y-56040298D01*
X116989853Y-56040300D01*
X116987000Y-56070730D01*
X116987000Y-57129269D01*
X116989853Y-57159699D01*
X116989853Y-57159701D01*
X117029051Y-57271718D01*
X117034707Y-57287882D01*
X117115350Y-57397150D01*
X117224618Y-57477793D01*
X117267345Y-57492744D01*
X117352799Y-57522646D01*
X117383230Y-57525500D01*
X117383234Y-57525500D01*
X118166770Y-57525500D01*
X118197199Y-57522646D01*
X118197201Y-57522646D01*
X118261290Y-57500219D01*
X118325382Y-57477793D01*
X118434650Y-57397150D01*
X118515293Y-57287882D01*
X118540176Y-57216769D01*
X118560146Y-57159701D01*
X118560146Y-57159699D01*
X118563000Y-57129269D01*
X118563000Y-56070730D01*
X118560146Y-56040300D01*
X118560146Y-56040298D01*
X118515293Y-55912119D01*
X118515292Y-55912117D01*
X118506007Y-55899536D01*
X118434650Y-55802850D01*
X118358917Y-55746957D01*
X118325384Y-55722208D01*
X118325382Y-55722207D01*
X118291864Y-55710478D01*
X118235090Y-55669755D01*
X118209345Y-55604802D01*
X118222803Y-55536241D01*
X118271191Y-55485839D01*
X118281956Y-55480923D01*
X118287876Y-55477794D01*
X118287882Y-55477793D01*
X118397150Y-55397150D01*
X118477793Y-55287882D01*
X118520669Y-55165350D01*
X118522646Y-55159701D01*
X118522646Y-55159699D01*
X118525500Y-55129269D01*
X118525500Y-54070730D01*
X118522646Y-54040300D01*
X118522646Y-54040298D01*
X118477793Y-53912119D01*
X118477792Y-53912117D01*
X118459906Y-53887882D01*
X118397150Y-53802850D01*
X118287882Y-53722207D01*
X118287880Y-53722206D01*
X118159700Y-53677353D01*
X118129270Y-53674500D01*
X118129266Y-53674500D01*
X117345734Y-53674500D01*
X117345730Y-53674500D01*
X117315300Y-53677353D01*
X117315298Y-53677353D01*
X117187119Y-53722206D01*
X117187117Y-53722207D01*
X117077850Y-53802850D01*
X116997207Y-53912117D01*
X116997206Y-53912119D01*
X116952353Y-54040298D01*
X116952353Y-54040300D01*
X116949500Y-54070730D01*
X110000000Y-54070730D01*
X110000000Y-53000882D01*
X110000012Y-52999144D01*
X110000921Y-52934303D01*
X110002274Y-52837729D01*
X110003041Y-52825610D01*
X110039277Y-52504005D01*
X110041606Y-52490299D01*
X110090209Y-52277353D01*
X110113427Y-52175627D01*
X110117272Y-52162279D01*
X110223883Y-51857601D01*
X110229196Y-51844777D01*
X110252816Y-51795730D01*
X114799500Y-51795730D01*
X114799500Y-52804269D01*
X114802353Y-52834699D01*
X114802353Y-52834701D01*
X114847206Y-52962880D01*
X114847207Y-52962882D01*
X114927850Y-53072150D01*
X115037118Y-53152793D01*
X115079845Y-53167744D01*
X115165299Y-53197646D01*
X115195730Y-53200500D01*
X115195734Y-53200500D01*
X116004270Y-53200500D01*
X116034699Y-53197646D01*
X116034701Y-53197646D01*
X116098790Y-53175219D01*
X116162882Y-53152793D01*
X116272150Y-53072150D01*
X116352793Y-52962882D01*
X116375219Y-52898790D01*
X116397646Y-52834701D01*
X116397646Y-52834699D01*
X116400500Y-52804269D01*
X116400500Y-52749500D01*
X116420185Y-52682461D01*
X116472989Y-52636706D01*
X116524500Y-52625500D01*
X117075500Y-52625500D01*
X117142539Y-52645185D01*
X117188294Y-52697989D01*
X117199500Y-52749500D01*
X117199500Y-52804269D01*
X117202353Y-52834699D01*
X117202353Y-52834701D01*
X117247206Y-52962880D01*
X117247207Y-52962882D01*
X117327850Y-53072150D01*
X117437118Y-53152793D01*
X117479845Y-53167744D01*
X117565299Y-53197646D01*
X117595730Y-53200500D01*
X117595734Y-53200500D01*
X118404270Y-53200500D01*
X118434699Y-53197646D01*
X118434701Y-53197646D01*
X118498790Y-53175219D01*
X118562882Y-53152793D01*
X118672150Y-53072150D01*
X118752793Y-52962882D01*
X118775219Y-52898790D01*
X118797646Y-52834701D01*
X118797646Y-52834699D01*
X118800500Y-52804269D01*
X118800500Y-51795730D01*
X118797646Y-51765300D01*
X118797646Y-51765298D01*
X118752793Y-51637119D01*
X118752792Y-51637117D01*
X118672150Y-51527850D01*
X118562882Y-51447207D01*
X118562880Y-51447206D01*
X118434700Y-51402353D01*
X118404270Y-51399500D01*
X118404266Y-51399500D01*
X117595734Y-51399500D01*
X117595730Y-51399500D01*
X117565300Y-51402353D01*
X117565298Y-51402353D01*
X117437119Y-51447206D01*
X117437117Y-51447207D01*
X117327850Y-51527850D01*
X117247207Y-51637117D01*
X117247206Y-51637119D01*
X117202353Y-51765298D01*
X117202353Y-51765300D01*
X117199500Y-51795730D01*
X117199500Y-51850500D01*
X117179815Y-51917539D01*
X117127011Y-51963294D01*
X117075500Y-51974500D01*
X116524500Y-51974500D01*
X116457461Y-51954815D01*
X116411706Y-51902011D01*
X116400500Y-51850500D01*
X116400500Y-51795730D01*
X116397646Y-51765300D01*
X116397646Y-51765298D01*
X116352793Y-51637119D01*
X116352792Y-51637117D01*
X116272150Y-51527850D01*
X116162882Y-51447207D01*
X116162880Y-51447206D01*
X116034700Y-51402353D01*
X116004270Y-51399500D01*
X116004266Y-51399500D01*
X115195734Y-51399500D01*
X115195730Y-51399500D01*
X115165300Y-51402353D01*
X115165298Y-51402353D01*
X115037119Y-51447206D01*
X115037117Y-51447207D01*
X114927850Y-51527850D01*
X114847207Y-51637117D01*
X114847206Y-51637119D01*
X114802353Y-51765298D01*
X114802353Y-51765300D01*
X114799500Y-51795730D01*
X110252816Y-51795730D01*
X110369243Y-51553965D01*
X110375959Y-51541813D01*
X110547693Y-51268501D01*
X110555723Y-51257183D01*
X110601327Y-51199998D01*
X124794318Y-51199998D01*
X124794318Y-51200001D01*
X124814955Y-51356760D01*
X124814956Y-51356762D01*
X124852419Y-51447207D01*
X124875464Y-51502841D01*
X124971718Y-51628282D01*
X125097159Y-51724536D01*
X125243238Y-51785044D01*
X125321619Y-51795363D01*
X125399999Y-51805682D01*
X125400000Y-51805682D01*
X125400001Y-51805682D01*
X125475593Y-51795730D01*
X125556762Y-51785044D01*
X125702841Y-51724536D01*
X125828282Y-51628282D01*
X125924536Y-51502841D01*
X125985044Y-51356762D01*
X126005682Y-51200000D01*
X125985044Y-51043238D01*
X125924536Y-50897159D01*
X125828282Y-50771718D01*
X125702841Y-50675464D01*
X125556762Y-50614956D01*
X125556760Y-50614955D01*
X125400001Y-50594318D01*
X125399999Y-50594318D01*
X125243239Y-50614955D01*
X125243237Y-50614956D01*
X125097160Y-50675463D01*
X124971718Y-50771718D01*
X124875463Y-50897160D01*
X124814956Y-51043237D01*
X124814955Y-51043239D01*
X124794318Y-51199998D01*
X110601327Y-51199998D01*
X110756979Y-51004816D01*
X110766228Y-50994467D01*
X110994467Y-50766228D01*
X111004816Y-50756979D01*
X111257183Y-50555723D01*
X111268501Y-50547693D01*
X111541813Y-50375959D01*
X111553965Y-50369243D01*
X111844777Y-50229196D01*
X111857601Y-50223883D01*
X112162279Y-50117272D01*
X112175627Y-50113427D01*
X112393293Y-50063746D01*
X112490299Y-50041606D01*
X112504005Y-50039277D01*
X112825610Y-50003041D01*
X112837729Y-50002274D01*
X112999144Y-50000011D01*
X113000882Y-50000000D01*
X139170500Y-50000000D01*
X139237539Y-50019685D01*
G37*
%TD.AperFunction*%
%TD*%
M02*
