%TF.GenerationSoftware,KiCad,Pcbnew,8.0.5-dirty*%
%TF.CreationDate,2024-12-04T01:41:04-06:00*%
%TF.ProjectId,MicroSDV3,4d696372-6f53-4445-9633-2e6b69636164,rev?*%
%TF.SameCoordinates,Original*%
%TF.FileFunction,Copper,L1,Top*%
%TF.FilePolarity,Positive*%
%FSLAX46Y46*%
G04 Gerber Fmt 4.6, Leading zero omitted, Abs format (unit mm)*
G04 Created by KiCad (PCBNEW 8.0.5-dirty) date 2024-12-04 01:41:04*
%MOMM*%
%LPD*%
G01*
G04 APERTURE LIST*
G04 Aperture macros list*
%AMRoundRect*
0 Rectangle with rounded corners*
0 $1 Rounding radius*
0 $2 $3 $4 $5 $6 $7 $8 $9 X,Y pos of 4 corners*
0 Add a 4 corners polygon primitive as box body*
4,1,4,$2,$3,$4,$5,$6,$7,$8,$9,$2,$3,0*
0 Add four circle primitives for the rounded corners*
1,1,$1+$1,$2,$3*
1,1,$1+$1,$4,$5*
1,1,$1+$1,$6,$7*
1,1,$1+$1,$8,$9*
0 Add four rect primitives between the rounded corners*
20,1,$1+$1,$2,$3,$4,$5,0*
20,1,$1+$1,$4,$5,$6,$7,0*
20,1,$1+$1,$6,$7,$8,$9,0*
20,1,$1+$1,$8,$9,$2,$3,0*%
G04 Aperture macros list end*
%TA.AperFunction,ComponentPad*%
%ADD10O,1.000000X2.000000*%
%TD*%
%TA.AperFunction,SMDPad,CuDef*%
%ADD11R,0.350000X0.800000*%
%TD*%
%TA.AperFunction,ComponentPad*%
%ADD12R,1.700000X1.700000*%
%TD*%
%TA.AperFunction,ComponentPad*%
%ADD13O,1.700000X1.700000*%
%TD*%
%TA.AperFunction,SMDPad,CuDef*%
%ADD14R,1.600000X0.700000*%
%TD*%
%TA.AperFunction,SMDPad,CuDef*%
%ADD15R,1.500000X1.200000*%
%TD*%
%TA.AperFunction,SMDPad,CuDef*%
%ADD16R,2.200000X1.200000*%
%TD*%
%TA.AperFunction,SMDPad,CuDef*%
%ADD17R,1.500000X1.600000*%
%TD*%
%TA.AperFunction,SMDPad,CuDef*%
%ADD18RoundRect,0.075000X0.075000X-0.247500X0.075000X0.247500X-0.075000X0.247500X-0.075000X-0.247500X0*%
%TD*%
%TA.AperFunction,HeatsinkPad*%
%ADD19R,1.700000X1.010000*%
%TD*%
%TA.AperFunction,SMDPad,CuDef*%
%ADD20RoundRect,0.250000X0.337500X0.475000X-0.337500X0.475000X-0.337500X-0.475000X0.337500X-0.475000X0*%
%TD*%
%TA.AperFunction,SMDPad,CuDef*%
%ADD21RoundRect,0.150000X-0.825000X-0.150000X0.825000X-0.150000X0.825000X0.150000X-0.825000X0.150000X0*%
%TD*%
%TA.AperFunction,HeatsinkPad*%
%ADD22R,2.290000X3.000000*%
%TD*%
%TA.AperFunction,SMDPad,CuDef*%
%ADD23R,0.300000X0.700000*%
%TD*%
%TA.AperFunction,SMDPad,CuDef*%
%ADD24R,1.000000X0.700000*%
%TD*%
%TA.AperFunction,ComponentPad*%
%ADD25O,1.100000X2.100000*%
%TD*%
%TA.AperFunction,ComponentPad*%
%ADD26O,1.100000X2.600000*%
%TD*%
%TA.AperFunction,SMDPad,CuDef*%
%ADD27R,1.000000X1.000000*%
%TD*%
%TA.AperFunction,SMDPad,CuDef*%
%ADD28RoundRect,0.150000X-0.512500X-0.150000X0.512500X-0.150000X0.512500X0.150000X-0.512500X0.150000X0*%
%TD*%
%TA.AperFunction,SMDPad,CuDef*%
%ADD29RoundRect,0.250000X-0.350000X-0.450000X0.350000X-0.450000X0.350000X0.450000X-0.350000X0.450000X0*%
%TD*%
%TA.AperFunction,SMDPad,CuDef*%
%ADD30RoundRect,0.250000X-0.337500X-0.475000X0.337500X-0.475000X0.337500X0.475000X-0.337500X0.475000X0*%
%TD*%
%TA.AperFunction,ViaPad*%
%ADD31C,0.800000*%
%TD*%
%TA.AperFunction,Conductor*%
%ADD32C,0.500000*%
%TD*%
%TA.AperFunction,Conductor*%
%ADD33C,0.250000*%
%TD*%
%TA.AperFunction,Conductor*%
%ADD34C,0.600000*%
%TD*%
%TA.AperFunction,Conductor*%
%ADD35C,0.200000*%
%TD*%
%TA.AperFunction,Conductor*%
%ADD36C,0.300000*%
%TD*%
%TA.AperFunction,Conductor*%
%ADD37C,0.104502*%
%TD*%
G04 APERTURE END LIST*
D10*
%TO.P,USB_C3.0_UP1,1,SHIELD*%
%TO.N,GND*%
X138525000Y-52450000D03*
X131225000Y-52450000D03*
D11*
%TO.P,USB_C3.0_UP1,A1,GND*%
X132025000Y-52450000D03*
%TO.P,USB_C3.0_UP1,A2,SSTXp1*%
%TO.N,/A_TX+*%
X132525000Y-52450000D03*
%TO.P,USB_C3.0_UP1,A3,SSTXn1*%
%TO.N,/A_TX-*%
X133025000Y-52450000D03*
%TO.P,USB_C3.0_UP1,A4,V_BUS*%
%TO.N,VBUS*%
X133525000Y-52450000D03*
%TO.P,USB_C3.0_UP1,A5,CC1*%
%TO.N,CC1*%
X134025000Y-52450000D03*
%TO.P,USB_C3.0_UP1,A6,Dp1*%
%TO.N,/UPD+*%
X134525000Y-52450000D03*
%TO.P,USB_C3.0_UP1,A7,Dn1*%
%TO.N,/UPD-*%
X135025000Y-52450000D03*
%TO.P,USB_C3.0_UP1,A8,SBU1*%
%TO.N,SBU1_UP*%
X135525000Y-52450000D03*
%TO.P,USB_C3.0_UP1,A9,V_BUS*%
%TO.N,VBUS*%
X136025000Y-52450000D03*
%TO.P,USB_C3.0_UP1,A10,SSRXn2*%
%TO.N,/A_RX-*%
X136525000Y-52450000D03*
%TO.P,USB_C3.0_UP1,A11,SSRXp2*%
%TO.N,/A_RX+*%
X137025000Y-52450000D03*
%TO.P,USB_C3.0_UP1,A12,GND*%
%TO.N,GND*%
X137525000Y-52450000D03*
%TO.P,USB_C3.0_UP1,B1,GND*%
X137675000Y-50850000D03*
%TO.P,USB_C3.0_UP1,B2,SSTXp2*%
%TO.N,/B_TX+*%
X137175000Y-50850000D03*
%TO.P,USB_C3.0_UP1,B3,SSTXn2*%
%TO.N,/B_TX-*%
X136675000Y-50850000D03*
%TO.P,USB_C3.0_UP1,B4,V_BUS*%
%TO.N,VBUS*%
X136175000Y-50850000D03*
%TO.P,USB_C3.0_UP1,B5,CC2*%
%TO.N,CC2*%
X135675000Y-50850000D03*
%TO.P,USB_C3.0_UP1,B6,Dp2*%
%TO.N,/UPD+*%
X135175000Y-50850000D03*
%TO.P,USB_C3.0_UP1,B7,Dn2*%
%TO.N,/UPD-*%
X134675000Y-50850000D03*
%TO.P,USB_C3.0_UP1,B8,SBU2*%
%TO.N,SBU2_UP*%
X134175000Y-50850000D03*
%TO.P,USB_C3.0_UP1,B9,V_BUS*%
%TO.N,VBUS*%
X133675000Y-50850000D03*
%TO.P,USB_C3.0_UP1,B10,SSRXn1*%
%TO.N,/B_RX-*%
X133175000Y-50850000D03*
%TO.P,USB_C3.0_UP1,B11,SSRXp1*%
%TO.N,/B_RX+*%
X132675000Y-50850000D03*
%TO.P,USB_C3.0_UP1,B12,GND*%
%TO.N,GND*%
X132175000Y-50850000D03*
%TD*%
D12*
%TO.P,J2,1,Pin_1*%
%TO.N,EXTERN3*%
X158300000Y-74800000D03*
D13*
%TO.P,J2,2,Pin_2*%
%TO.N,EXTERN2*%
X158300000Y-72260000D03*
%TO.P,J2,3,Pin_3*%
%TO.N,PROG*%
X158300000Y-69720000D03*
%TO.P,J2,4,Pin_4*%
%TO.N,EXTERN1*%
X158300000Y-67180000D03*
%TO.P,J2,5,Pin_5*%
%TO.N,VBUS*%
X158300000Y-64640000D03*
%TO.P,J2,6,Pin_6*%
%TO.N,3.3V*%
X158300000Y-62100000D03*
%TO.P,J2,7,Pin_7*%
%TO.N,GND*%
X158300000Y-59560000D03*
%TD*%
D14*
%TO.P,U3,1,DAT2*%
%TO.N,Net-(U2-D2)*%
X123050000Y-65375000D03*
%TO.P,U3,2,DAT3*%
%TO.N,Net-(U2-D3)*%
X123050000Y-64275000D03*
%TO.P,U3,3,CMD*%
%TO.N,Net-(U2-CMD)*%
X123050000Y-63175000D03*
%TO.P,U3,4,VDD*%
%TO.N,3.3V*%
X123050000Y-62075000D03*
%TO.P,U3,5,CLK*%
%TO.N,Net-(U2-CLK)*%
X123050000Y-60975000D03*
%TO.P,U3,6,GND*%
%TO.N,GND*%
X123050000Y-59875000D03*
%TO.P,U3,7,DAT0*%
%TO.N,Net-(U2-D0)*%
X123050000Y-58775000D03*
%TO.P,U3,8,DAT1*%
%TO.N,Net-(U2-D1)*%
X123050000Y-57675000D03*
%TO.P,U3,9,CD*%
%TO.N,Net-(U2-PMOS)*%
X123050000Y-56575000D03*
D15*
%TO.P,U3,S1,SHELL*%
%TO.N,GND*%
X122050000Y-55375000D03*
D16*
X112450000Y-55375000D03*
D17*
X122050000Y-69975000D03*
D16*
X112450000Y-70875000D03*
%TD*%
D18*
%TO.P,U5,1,CC1*%
%TO.N,CC1_PD*%
X141875000Y-53927500D03*
%TO.P,U5,2,VBUS*%
%TO.N,VBUS*%
X142525000Y-53927500D03*
%TO.P,U5,3,VSET*%
%TO.N,Net-(U5-VSET)*%
X143175000Y-53927500D03*
%TO.P,U5,4,D+*%
%TO.N,unconnected-(U5-D+-Pad4)*%
X143175000Y-51872500D03*
%TO.P,U5,5,D-*%
%TO.N,unconnected-(U5-D--Pad5)*%
X142525000Y-51872500D03*
%TO.P,U5,6,CC2*%
%TO.N,CC2_PD*%
X141875000Y-51872500D03*
D19*
%TO.P,U5,7,GND_PAD*%
%TO.N,GND*%
X142525000Y-52900000D03*
%TD*%
D20*
%TO.P,R/C1,1*%
%TO.N,Net-(U5-VSET)*%
X147037500Y-51300000D03*
%TO.P,R/C1,2*%
%TO.N,GND*%
X144962500Y-51300000D03*
%TD*%
D21*
%TO.P,U8,1,VDD*%
%TO.N,3.3V*%
X149350000Y-60300000D03*
%TO.P,U8,2,PA6*%
%TO.N,PD_SWITCH1*%
X149350000Y-61570000D03*
%TO.P,U8,3,PA7*%
%TO.N,DOWN_SWITCH1*%
X149350000Y-62840000D03*
%TO.P,U8,4,PA1*%
%TO.N,EXTERN3*%
X149350000Y-64110000D03*
%TO.P,U8,5,PA2*%
%TO.N,EXTERN2*%
X154300000Y-64110000D03*
%TO.P,U8,6,PA0/!RST/UPDI*%
%TO.N,PROG*%
X154300000Y-62840000D03*
%TO.P,U8,7,PA3/EX_CLK*%
%TO.N,EXTERN1*%
X154300000Y-61570000D03*
%TO.P,U8,8,GND*%
%TO.N,GND*%
X154300000Y-60300000D03*
D22*
%TO.P,U8,9,PAD*%
X151825000Y-62205000D03*
%TD*%
D23*
%TO.P,U4,A1,GND*%
%TO.N,GND*%
X132000000Y-72000000D03*
%TO.P,U4,A2,SSTXp1*%
%TO.N,/A_TX+*%
X132500000Y-72000000D03*
%TO.P,U4,A3,SSTXn1*%
%TO.N,/A_TX-*%
X133000000Y-72000000D03*
%TO.P,U4,A4,V_BUS*%
%TO.N,VBUS*%
X133500000Y-72000000D03*
%TO.P,U4,A5,CC1*%
%TO.N,CC1_DOWN*%
X134000000Y-72000000D03*
%TO.P,U4,A6,Dp1*%
%TO.N,/D1+*%
X134500000Y-72000000D03*
%TO.P,U4,A7,Dn1*%
%TO.N,/D1-*%
X135500000Y-72000000D03*
%TO.P,U4,A8,SBU1*%
%TO.N,SBU1_UP*%
X136000000Y-72000000D03*
%TO.P,U4,A9,V_BUS*%
%TO.N,VBUS*%
X136500000Y-72000000D03*
%TO.P,U4,A10,SSRXn2*%
%TO.N,/A_RX-*%
X137000000Y-72000000D03*
%TO.P,U4,A11,SSRXp2*%
%TO.N,/A_RX+*%
X137500000Y-72000000D03*
%TO.P,U4,A12,GND*%
%TO.N,GND*%
X138000000Y-72000000D03*
D24*
%TO.P,U4,B1,GND*%
X138100000Y-73300000D03*
D23*
%TO.P,U4,B2,SSTXp2*%
%TO.N,/B_TX+*%
X137250000Y-73300000D03*
%TO.P,U4,B3,SSTXn2*%
%TO.N,/B_TX-*%
X136750000Y-73300000D03*
%TO.P,U4,B4,V_BUS*%
%TO.N,VBUS*%
X136250000Y-73300000D03*
%TO.P,U4,B5,CC2*%
%TO.N,CC2_DOWN*%
X135750000Y-73300000D03*
%TO.P,U4,B6,Dp2*%
%TO.N,/D1+*%
X135250000Y-73300000D03*
%TO.P,U4,B7,Dn2*%
%TO.N,/D1-*%
X134750000Y-73300000D03*
%TO.P,U4,B8,SBU2*%
%TO.N,SBU1_UP*%
X134250000Y-73300000D03*
%TO.P,U4,B9,V_BUS*%
%TO.N,VBUS*%
X133750000Y-73300000D03*
%TO.P,U4,B10,SSRXn1*%
%TO.N,/B_RX-*%
X133250000Y-73300000D03*
%TO.P,U4,B11,SSRXp1*%
%TO.N,/B_RX+*%
X132750000Y-73300000D03*
D24*
%TO.P,U4,B12,GND*%
%TO.N,GND*%
X131900000Y-73300000D03*
D25*
%TO.P,U4,S1,SHIELD*%
%TO.N,unconnected-(U4-SHIELD-PadS1)*%
X130680000Y-72410000D03*
D26*
X130680000Y-77770000D03*
D25*
X139320000Y-72410000D03*
D26*
X139320000Y-77770000D03*
%TD*%
D27*
%TO.P,TP1,1,1*%
%TO.N,CC1*%
X144800000Y-62200000D03*
%TD*%
D28*
%TO.P,U6,1,S1*%
%TO.N,CC1_PD*%
X143400000Y-56000000D03*
%TO.P,U6,2,D1/D2*%
%TO.N,CC1*%
X143400000Y-56950000D03*
%TO.P,U6,3,S2*%
%TO.N,CC1_DOWN*%
X143400000Y-57900000D03*
%TO.P,U6,4,G2*%
%TO.N,DOWN_SWITCH1*%
X145675000Y-57900000D03*
%TO.P,U6,5,D1/D2*%
%TO.N,unconnected-(U6-D1{slash}D2-Pad5)*%
X145675000Y-56950000D03*
%TO.P,U6,6,G1*%
%TO.N,PD_SWITCH1*%
X145675000Y-56000000D03*
%TD*%
D29*
%TO.P,R4,1*%
%TO.N,GND*%
X140000000Y-62000000D03*
%TO.P,R4,2*%
%TO.N,CC1*%
X142000000Y-62000000D03*
%TD*%
D30*
%TO.P,C8,1*%
%TO.N,GND*%
X148262500Y-57700000D03*
%TO.P,C8,2*%
%TO.N,3.3V*%
X150337500Y-57700000D03*
%TD*%
D31*
%TO.N,GND*%
X127300000Y-54025000D03*
X140000000Y-58450003D03*
X144300000Y-52900000D03*
X150562500Y-66800000D03*
X131600000Y-71100000D03*
X131500000Y-56825000D03*
X117637500Y-56700000D03*
X148262500Y-57700000D03*
X112450000Y-70875000D03*
X140000000Y-62000000D03*
X119300000Y-59700000D03*
X118600000Y-65037500D03*
X147100000Y-63962500D03*
X152637500Y-72700000D03*
X148900000Y-74200000D03*
X127000000Y-58400000D03*
X117737500Y-54600000D03*
X122050000Y-55375000D03*
X144900000Y-71400000D03*
X129500000Y-55825000D03*
X121200000Y-57400000D03*
X156100000Y-60100000D03*
X142525000Y-52900000D03*
X112450000Y-55375000D03*
X122050000Y-69975000D03*
X152637500Y-70700000D03*
X138400000Y-71000000D03*
%TO.N,3.3V*%
X122100000Y-62100000D03*
X150200000Y-59000000D03*
%TO.N,/D1-*%
X135500000Y-74875000D03*
X134780222Y-69176669D03*
%TO.N,/UPD-*%
X134700000Y-57000000D03*
%TO.N,/UPD+*%
X134900000Y-54500000D03*
%TO.N,/D1+*%
X134800000Y-70400000D03*
%TO.N,Net-(U2-CMD)*%
X129131341Y-61546241D03*
%TO.N,Net-(U2-D0)*%
X128469125Y-59769125D03*
%TO.N,Net-(U2-PMOS)*%
X127000000Y-63800000D03*
%TO.N,Net-(U2-CLK)*%
X129132802Y-60546239D03*
%TO.N,Net-(U2-D1)*%
X127762017Y-59062017D03*
%TO.N,Net-(U2-D2)*%
X127674044Y-63061305D03*
%TO.N,Net-(U2-D3)*%
X128479859Y-62304908D03*
%TO.N,VBUS*%
X140400000Y-54400000D03*
X140000000Y-50500000D03*
X152700000Y-50900000D03*
X117400000Y-61700000D03*
X140800000Y-51100000D03*
X125400000Y-51200000D03*
%TO.N,CC1*%
X134400000Y-55700000D03*
X143400000Y-56950000D03*
%TO.N,CC1_DOWN*%
X143400000Y-58600000D03*
X135200000Y-68200000D03*
%TO.N,CC1_PD*%
X141500000Y-55000000D03*
X144000000Y-54652500D03*
%TO.N,/B_RX-*%
X132100000Y-74400000D03*
X133550000Y-74350000D03*
%TD*%
D32*
%TO.N,GND*%
X121700000Y-57800000D02*
X121300000Y-57400000D01*
X123050000Y-59875000D02*
X122000000Y-59875000D01*
X121700000Y-59575000D02*
X121700000Y-57800000D01*
D33*
X154300000Y-60300000D02*
X155900000Y-60300000D01*
D32*
X122000000Y-59875000D02*
X121700000Y-59575000D01*
X121300000Y-57400000D02*
X121200000Y-57400000D01*
D33*
X155900000Y-60300000D02*
X156100000Y-60100000D01*
D34*
%TO.N,3.3V*%
X122100000Y-62100000D02*
X123025000Y-62100000D01*
D33*
X123025000Y-62100000D02*
X123050000Y-62075000D01*
D35*
%TO.N,Net-(U5-VSET)*%
X147037500Y-53562500D02*
X147037500Y-51300000D01*
X146672500Y-53927500D02*
X147037500Y-53562500D01*
X143175000Y-53927500D02*
X146672500Y-53927500D01*
%TO.N,/D1-*%
X134750000Y-74125000D02*
X135500000Y-74875000D01*
X134780222Y-69176669D02*
X135500000Y-69896447D01*
X134750000Y-73300000D02*
X134750000Y-74125000D01*
X135500000Y-71288067D02*
X135500000Y-72000000D01*
X135500000Y-71104755D02*
X135500000Y-71288067D01*
X135500000Y-69896447D02*
X135500000Y-71104755D01*
%TO.N,/UPD-*%
X134700000Y-57000000D02*
X135600000Y-56100000D01*
X135025000Y-53625000D02*
X135025000Y-52450000D01*
X135600000Y-54200000D02*
X135025000Y-53625000D01*
X135600000Y-56100000D02*
X135600000Y-54200000D01*
%TO.N,/UPD+*%
X134525000Y-54125000D02*
X134525000Y-52450000D01*
X134900000Y-54500000D02*
X134525000Y-54125000D01*
%TO.N,/D1+*%
X134800000Y-70400000D02*
X134500000Y-70700000D01*
X134500000Y-70700000D02*
X134500000Y-72000000D01*
X135250000Y-72750000D02*
X135250000Y-73300000D01*
X134500000Y-72000000D02*
X135250000Y-72750000D01*
D33*
%TO.N,Net-(U2-CMD)*%
X129131341Y-61546241D02*
X125728759Y-61546241D01*
X124100000Y-63175000D02*
X123050000Y-63175000D01*
X125728759Y-61546241D02*
X124100000Y-63175000D01*
%TO.N,Net-(U2-D0)*%
X124887017Y-59787017D02*
X123875000Y-58775000D01*
X128451233Y-59787017D02*
X124887017Y-59787017D01*
X123875000Y-58775000D02*
X123050000Y-58775000D01*
X128469125Y-59769125D02*
X128451233Y-59787017D01*
%TO.N,Net-(U2-PMOS)*%
X129000000Y-63800000D02*
X127000000Y-63800000D01*
X126300305Y-56575000D02*
X129857802Y-60132497D01*
X123050000Y-56575000D02*
X126300305Y-56575000D01*
X129857802Y-62942198D02*
X129000000Y-63800000D01*
X129857802Y-60132497D02*
X129857802Y-62942198D01*
%TO.N,Net-(U2-CLK)*%
X124100000Y-60975000D02*
X123050000Y-60975000D01*
X129132802Y-60546239D02*
X124528761Y-60546239D01*
X124528761Y-60546239D02*
X124100000Y-60975000D01*
%TO.N,Net-(U2-D1)*%
X125125000Y-59125000D02*
X123675000Y-57675000D01*
X123675000Y-57675000D02*
X123050000Y-57675000D01*
X127699034Y-59125000D02*
X125125000Y-59125000D01*
X127762017Y-59062017D02*
X127699034Y-59125000D01*
%TO.N,Net-(U2-D2)*%
X126713390Y-63061305D02*
X124399695Y-65375000D01*
X127674044Y-63061305D02*
X126713390Y-63061305D01*
X124399695Y-65375000D02*
X123050000Y-65375000D01*
%TO.N,Net-(U2-D3)*%
X128479859Y-62304908D02*
X126070092Y-62304908D01*
X126070092Y-62304908D02*
X124100000Y-64275000D01*
X124100000Y-64275000D02*
X123050000Y-64275000D01*
D36*
%TO.N,VBUS*%
X142519975Y-55275000D02*
X141994975Y-55800000D01*
X142519975Y-54027500D02*
X142519975Y-55275000D01*
D33*
X136175000Y-51425000D02*
X136175000Y-50850000D01*
X122600000Y-54000000D02*
X125400000Y-51200000D01*
D36*
X140394975Y-54989950D02*
X140394975Y-54500000D01*
D33*
X119300000Y-56600000D02*
X119300000Y-54800000D01*
D36*
X141205025Y-55800000D02*
X140394975Y-54989950D01*
D33*
X133525000Y-51725000D02*
X133675000Y-51575000D01*
X136500000Y-53926714D02*
X136025000Y-53451714D01*
X156825000Y-59025000D02*
X156100000Y-58300000D01*
X136500000Y-72000000D02*
X136500000Y-53926714D01*
X136025000Y-53451714D02*
X136025000Y-52450000D01*
X158300000Y-63761701D02*
X156825000Y-62286701D01*
X136025000Y-52450000D02*
X136025000Y-51575000D01*
X133675000Y-51575000D02*
X133675000Y-50850000D01*
X117400000Y-58500000D02*
X119300000Y-56600000D01*
X119300000Y-54800000D02*
X120100000Y-54000000D01*
X117400000Y-61700000D02*
X117400000Y-58500000D01*
X156825000Y-62286701D02*
X156825000Y-59025000D01*
X152300000Y-55600000D02*
X152300000Y-51300000D01*
X156100000Y-58300000D02*
X155000000Y-58300000D01*
X158300000Y-64640000D02*
X158300000Y-63761701D01*
X120100000Y-54000000D02*
X122600000Y-54000000D01*
X133525000Y-71975000D02*
X133525000Y-52450000D01*
X133500000Y-72000000D02*
X133525000Y-71975000D01*
X155000000Y-58300000D02*
X152300000Y-55600000D01*
X152300000Y-51300000D02*
X152700000Y-50900000D01*
X133525000Y-52450000D02*
X133525000Y-51725000D01*
X136025000Y-51575000D02*
X136175000Y-51425000D01*
D36*
X141994975Y-55800000D02*
X141205025Y-55800000D01*
D35*
%TO.N,SBU1_UP*%
X136000000Y-72000000D02*
X136000000Y-54027754D01*
X135525000Y-53552754D02*
X135525000Y-52450000D01*
X136000000Y-54027754D02*
X135525000Y-53552754D01*
D33*
%TO.N,CC1*%
X142000000Y-62000000D02*
X144600000Y-62000000D01*
D35*
X143753052Y-56950000D02*
X144712500Y-57909448D01*
D33*
X134025000Y-55325000D02*
X134400000Y-55700000D01*
D35*
X144712500Y-62112500D02*
X144800000Y-62200000D01*
D33*
X134025000Y-52450000D02*
X134025000Y-55325000D01*
D35*
X143400000Y-56950000D02*
X143753052Y-56950000D01*
X144712500Y-57909448D02*
X144712500Y-62112500D01*
D33*
X144600000Y-62000000D02*
X144800000Y-62200000D01*
%TO.N,CC1_DOWN*%
X143400000Y-57900000D02*
X143400000Y-58600000D01*
X134000000Y-68931586D02*
X134731586Y-68200000D01*
X134731586Y-68200000D02*
X135200000Y-68200000D01*
X134000000Y-72000000D02*
X134000000Y-68931586D01*
%TO.N,CC1_PD*%
X144000000Y-55400000D02*
X143400000Y-56000000D01*
D35*
X141875000Y-53927500D02*
X141875000Y-54625000D01*
X141875000Y-54625000D02*
X141500000Y-55000000D01*
D33*
X144000000Y-54652500D02*
X144000000Y-55400000D01*
D35*
%TO.N,PD_SWITCH1*%
X146337499Y-56000000D02*
X146900000Y-56562501D01*
X145675000Y-56000000D02*
X146337499Y-56000000D01*
X146900000Y-60600000D02*
X147870000Y-61570000D01*
X146900000Y-56562501D02*
X146900000Y-60600000D01*
X147870000Y-61570000D02*
X149350000Y-61570000D01*
%TO.N,DOWN_SWITCH1*%
X145675000Y-60139999D02*
X145675000Y-57900000D01*
X149350000Y-62840000D02*
X148375001Y-62840000D01*
X148375001Y-62840000D02*
X145675000Y-60139999D01*
D33*
%TO.N,PROG*%
X154300000Y-62840000D02*
X155274999Y-62840000D01*
X156500000Y-64065001D02*
X156500000Y-67920000D01*
X156500000Y-67920000D02*
X158300000Y-69720000D01*
X155274999Y-62840000D02*
X156500000Y-64065001D01*
D37*
%TO.N,/A_TX-*%
X133000000Y-72000000D02*
X133000000Y-63319740D01*
X133025000Y-53050001D02*
X133025000Y-52450000D01*
X133000000Y-60700000D02*
X133000000Y-53075001D01*
X133000000Y-53075001D02*
X133025000Y-53050001D01*
X133000000Y-63319740D02*
X133000000Y-60700000D01*
%TO.N,/A_RX+*%
X137500000Y-72000000D02*
X137500000Y-71474999D01*
X137475000Y-53731800D02*
X137000000Y-53256800D01*
X137025000Y-53050001D02*
X137025000Y-52450000D01*
X137000000Y-53075001D02*
X137025000Y-53050001D01*
X137475000Y-71449999D02*
X137475000Y-53731800D01*
X137000000Y-53256800D02*
X137000000Y-53075001D01*
X137500000Y-71474999D02*
X137475000Y-71449999D01*
%TO.N,/A_TX+*%
X132550000Y-53075001D02*
X132525000Y-53050001D01*
X132550000Y-71950000D02*
X132550000Y-53075001D01*
X132525000Y-53050001D02*
X132525000Y-52450000D01*
X132500000Y-72000000D02*
X132550000Y-71950000D01*
%TO.N,/B_RX-*%
X133250000Y-74050000D02*
X133550000Y-74350000D01*
X133550000Y-74350000D02*
X133600000Y-74400000D01*
X133250000Y-73300000D02*
X133250000Y-74050000D01*
%TO.N,/A_RX-*%
X137025000Y-68032960D02*
X137025000Y-65900368D01*
X137025000Y-68032960D02*
X137025000Y-68048488D01*
X137000000Y-71474999D02*
X137000000Y-72000000D01*
X136525000Y-53050001D02*
X136525000Y-52450000D01*
X136550000Y-53443200D02*
X136550000Y-53075001D01*
X136550000Y-53075001D02*
X136525000Y-53050001D01*
X137025000Y-71449999D02*
X137000000Y-71474999D01*
X137025000Y-65900368D02*
X137025000Y-65884767D01*
X137025000Y-65884767D02*
X137025000Y-53918200D01*
X137025000Y-68048488D02*
X137025000Y-71449999D01*
X137025000Y-53918200D02*
X136550000Y-53443200D01*
D33*
%TO.N,EXTERN3*%
X154400000Y-65100000D02*
X155000000Y-65700000D01*
X155000000Y-65700000D02*
X155000000Y-71500000D01*
X150340000Y-65100000D02*
X154400000Y-65100000D01*
X149350000Y-64110000D02*
X150340000Y-65100000D01*
X155000000Y-71500000D02*
X158300000Y-74800000D01*
%TO.N,EXTERN1*%
X155274999Y-61570000D02*
X157125000Y-63420001D01*
X154300000Y-61570000D02*
X155274999Y-61570000D01*
X157125000Y-63420001D02*
X157125000Y-66005000D01*
X157125000Y-66005000D02*
X158300000Y-67180000D01*
%TO.N,EXTERN2*%
X155800000Y-64500000D02*
X155800000Y-69760000D01*
X155410000Y-64110000D02*
X155800000Y-64500000D01*
X155800000Y-69760000D02*
X158300000Y-72260000D01*
X154300000Y-64110000D02*
X155410000Y-64110000D01*
%TD*%
%TA.AperFunction,Conductor*%
%TO.N,GND*%
G36*
X156442539Y-59519685D02*
G01*
X156488294Y-59572489D01*
X156499500Y-59624000D01*
X156499500Y-60676000D01*
X156479815Y-60743039D01*
X156427011Y-60788794D01*
X156375500Y-60800000D01*
X153200000Y-60800000D01*
X152900000Y-60999999D01*
X152900000Y-63476000D01*
X152880315Y-63543039D01*
X152827511Y-63588794D01*
X152776000Y-63600000D01*
X150824000Y-63600000D01*
X150756961Y-63580315D01*
X150711206Y-63527511D01*
X150700000Y-63476000D01*
X150700000Y-60151362D01*
X150719685Y-60084323D01*
X150736319Y-60063681D01*
X151263681Y-59536319D01*
X151325004Y-59502834D01*
X151351362Y-59500000D01*
X156375500Y-59500000D01*
X156442539Y-59519685D01*
G37*
%TD.AperFunction*%
%TD*%
%TA.AperFunction,Conductor*%
%TO.N,3.3V*%
G36*
X150943039Y-57119685D02*
G01*
X150988794Y-57172489D01*
X151000000Y-57224000D01*
X151000000Y-58279048D01*
X150993118Y-58319785D01*
X150228961Y-60516737D01*
X150188345Y-60573588D01*
X150123440Y-60599456D01*
X150111843Y-60600000D01*
X148524000Y-60600000D01*
X148456961Y-60580315D01*
X148411206Y-60527511D01*
X148400000Y-60476000D01*
X148400000Y-60024000D01*
X148419685Y-59956961D01*
X148472489Y-59911206D01*
X148524000Y-59900000D01*
X149199999Y-59900000D01*
X149200000Y-59900000D01*
X149700000Y-58200000D01*
X149700000Y-57224000D01*
X149719685Y-57156961D01*
X149772489Y-57111206D01*
X149824000Y-57100000D01*
X150876000Y-57100000D01*
X150943039Y-57119685D01*
G37*
%TD.AperFunction*%
%TD*%
%TA.AperFunction,Conductor*%
%TO.N,VBUS*%
G36*
X141181694Y-50018306D02*
G01*
X141200000Y-50062500D01*
X141200000Y-51437500D01*
X141181694Y-51481694D01*
X141137500Y-51500000D01*
X139568000Y-51500000D01*
X139523806Y-51481694D01*
X139505500Y-51437500D01*
X139505500Y-50562500D01*
X139501201Y-50540886D01*
X139500000Y-50528693D01*
X139500000Y-50300000D01*
X139271305Y-50300000D01*
X139259113Y-50298799D01*
X139237500Y-50294500D01*
X139237499Y-50294500D01*
X137997126Y-50294500D01*
X137962402Y-50283966D01*
X137928233Y-50261133D01*
X137928230Y-50261132D01*
X137869748Y-50249500D01*
X137480252Y-50249500D01*
X137480249Y-50249500D01*
X137437192Y-50258064D01*
X137412808Y-50258064D01*
X137369750Y-50249500D01*
X137369748Y-50249500D01*
X136980252Y-50249500D01*
X136980249Y-50249500D01*
X136937192Y-50258064D01*
X136912808Y-50258064D01*
X136869750Y-50249500D01*
X136869748Y-50249500D01*
X136480252Y-50249500D01*
X136421769Y-50261132D01*
X136421767Y-50261133D01*
X136355447Y-50305447D01*
X136311133Y-50371767D01*
X136311132Y-50371769D01*
X136299500Y-50430251D01*
X136299500Y-51137500D01*
X136281194Y-51181694D01*
X136237000Y-51200000D01*
X136113000Y-51200000D01*
X136068806Y-51181694D01*
X136050500Y-51137500D01*
X136050500Y-50430252D01*
X136038867Y-50371769D01*
X136038866Y-50371767D01*
X135994552Y-50305447D01*
X135928232Y-50261133D01*
X135928230Y-50261132D01*
X135869748Y-50249500D01*
X135480252Y-50249500D01*
X135480249Y-50249500D01*
X135437192Y-50258064D01*
X135412808Y-50258064D01*
X135369750Y-50249500D01*
X135369748Y-50249500D01*
X134980252Y-50249500D01*
X134980249Y-50249500D01*
X134937192Y-50258064D01*
X134912808Y-50258064D01*
X134869750Y-50249500D01*
X134869748Y-50249500D01*
X134480252Y-50249500D01*
X134480249Y-50249500D01*
X134437192Y-50258064D01*
X134412808Y-50258064D01*
X134369750Y-50249500D01*
X134369748Y-50249500D01*
X133980252Y-50249500D01*
X133921769Y-50261132D01*
X133921767Y-50261133D01*
X133855447Y-50305447D01*
X133811133Y-50371767D01*
X133811132Y-50371769D01*
X133799500Y-50430251D01*
X133799500Y-51137500D01*
X133781194Y-51181694D01*
X133737000Y-51200000D01*
X133613000Y-51200000D01*
X133568806Y-51181694D01*
X133550500Y-51137500D01*
X133550500Y-50430252D01*
X133538867Y-50371769D01*
X133538866Y-50371767D01*
X133510533Y-50329364D01*
X133502333Y-50302333D01*
X133497666Y-50297666D01*
X133470634Y-50289466D01*
X133428233Y-50261134D01*
X133428230Y-50261132D01*
X133369748Y-50249500D01*
X132980252Y-50249500D01*
X132980249Y-50249500D01*
X132937192Y-50258064D01*
X132912808Y-50258064D01*
X132869750Y-50249500D01*
X132869748Y-50249500D01*
X132480252Y-50249500D01*
X132480249Y-50249500D01*
X132437192Y-50258064D01*
X132412808Y-50258064D01*
X132369750Y-50249500D01*
X132369748Y-50249500D01*
X131980252Y-50249500D01*
X131921769Y-50261132D01*
X131921766Y-50261133D01*
X131887598Y-50283966D01*
X131852874Y-50294500D01*
X130725888Y-50294500D01*
X130704274Y-50298799D01*
X130692083Y-50300000D01*
X125600000Y-50300000D01*
X125600000Y-51337500D01*
X125581694Y-51381694D01*
X125537500Y-51400000D01*
X125162500Y-51400000D01*
X125118306Y-51381694D01*
X125100000Y-51337500D01*
X125100000Y-50062500D01*
X125118306Y-50018306D01*
X125162500Y-50000000D01*
X141137500Y-50000000D01*
X141181694Y-50018306D01*
G37*
%TD.AperFunction*%
%TD*%
%TA.AperFunction,Conductor*%
%TO.N,GND*%
G36*
X132081694Y-70618306D02*
G01*
X132100000Y-70662500D01*
X132100000Y-72300000D01*
X132394447Y-72987042D01*
X132399500Y-73011662D01*
X132399500Y-73569124D01*
X132381194Y-73613318D01*
X132374500Y-73619124D01*
X132155188Y-73783607D01*
X132109532Y-73795572D01*
X132100000Y-73794318D01*
X132099998Y-73794318D01*
X132099997Y-73794318D01*
X131943244Y-73814954D01*
X131943234Y-73814957D01*
X131797161Y-73875462D01*
X131797158Y-73875464D01*
X131671717Y-73971717D01*
X131575464Y-74097158D01*
X131575462Y-74097161D01*
X131514957Y-74243233D01*
X131513897Y-74247191D01*
X131511593Y-74246573D01*
X131491407Y-74281439D01*
X131490921Y-74281807D01*
X131216667Y-74487500D01*
X131179167Y-74500000D01*
X129762500Y-74500000D01*
X129718306Y-74481694D01*
X129700000Y-74437500D01*
X129700000Y-71836080D01*
X129929500Y-71836080D01*
X129929500Y-72983919D01*
X129958341Y-73128911D01*
X129958341Y-73128912D01*
X130014916Y-73265495D01*
X130097049Y-73388416D01*
X130201584Y-73492951D01*
X130324505Y-73575084D01*
X130461087Y-73631658D01*
X130606082Y-73660500D01*
X130753918Y-73660500D01*
X130898913Y-73631658D01*
X131035495Y-73575084D01*
X131158416Y-73492951D01*
X131262951Y-73388416D01*
X131345084Y-73265495D01*
X131401658Y-73128913D01*
X131430500Y-72983918D01*
X131430500Y-71836082D01*
X131401658Y-71691087D01*
X131345084Y-71554505D01*
X131262951Y-71431584D01*
X131158416Y-71327049D01*
X131158415Y-71327048D01*
X131035497Y-71244917D01*
X131035495Y-71244916D01*
X130898911Y-71188341D01*
X130753919Y-71159500D01*
X130753918Y-71159500D01*
X130606082Y-71159500D01*
X130606080Y-71159500D01*
X130461088Y-71188341D01*
X130461087Y-71188341D01*
X130324504Y-71244916D01*
X130324502Y-71244917D01*
X130201584Y-71327048D01*
X130097048Y-71431584D01*
X130014917Y-71554502D01*
X130014916Y-71554504D01*
X129958341Y-71691087D01*
X129958341Y-71691088D01*
X129929500Y-71836080D01*
X129700000Y-71836080D01*
X129700000Y-70662500D01*
X129718306Y-70618306D01*
X129762500Y-70600000D01*
X132037500Y-70600000D01*
X132081694Y-70618306D01*
G37*
%TD.AperFunction*%
%TD*%
%TA.AperFunction,Conductor*%
%TO.N,GND*%
G36*
X140343039Y-70519685D02*
G01*
X140388794Y-70572489D01*
X140400000Y-70624000D01*
X140400000Y-74176000D01*
X140380315Y-74243039D01*
X140327511Y-74288794D01*
X140276000Y-74300000D01*
X138257032Y-74300000D01*
X138189993Y-74280315D01*
X138162884Y-74256698D01*
X137630352Y-73635410D01*
X137601669Y-73571699D01*
X137600500Y-73554712D01*
X137600500Y-73024285D01*
X137608785Y-72983920D01*
X138569499Y-72983920D01*
X138598340Y-73128907D01*
X138598343Y-73128917D01*
X138654912Y-73265488D01*
X138654919Y-73265501D01*
X138737048Y-73388415D01*
X138737051Y-73388419D01*
X138841580Y-73492948D01*
X138841584Y-73492951D01*
X138964498Y-73575080D01*
X138964511Y-73575087D01*
X139101082Y-73631656D01*
X139101087Y-73631658D01*
X139101091Y-73631658D01*
X139101092Y-73631659D01*
X139246079Y-73660500D01*
X139246082Y-73660500D01*
X139393920Y-73660500D01*
X139491462Y-73641096D01*
X139538913Y-73631658D01*
X139675495Y-73575084D01*
X139798416Y-73492951D01*
X139902951Y-73388416D01*
X139985084Y-73265495D01*
X140041658Y-73128913D01*
X140051096Y-73081462D01*
X140070500Y-72983920D01*
X140070500Y-71836079D01*
X140041659Y-71691092D01*
X140041658Y-71691091D01*
X140041658Y-71691087D01*
X140041656Y-71691082D01*
X139985087Y-71554511D01*
X139985080Y-71554498D01*
X139902951Y-71431584D01*
X139902948Y-71431580D01*
X139798419Y-71327051D01*
X139798415Y-71327048D01*
X139675501Y-71244919D01*
X139675488Y-71244912D01*
X139538917Y-71188343D01*
X139538907Y-71188340D01*
X139393920Y-71159500D01*
X139393918Y-71159500D01*
X139246082Y-71159500D01*
X139246080Y-71159500D01*
X139101092Y-71188340D01*
X139101082Y-71188343D01*
X138964511Y-71244912D01*
X138964498Y-71244919D01*
X138841584Y-71327048D01*
X138841580Y-71327051D01*
X138737051Y-71431580D01*
X138737048Y-71431584D01*
X138654919Y-71554498D01*
X138654912Y-71554511D01*
X138598343Y-71691082D01*
X138598340Y-71691092D01*
X138569500Y-71836079D01*
X138569500Y-71836082D01*
X138569500Y-72983918D01*
X138569500Y-72983920D01*
X138569499Y-72983920D01*
X137608785Y-72983920D01*
X137610526Y-72975439D01*
X137900000Y-72299999D01*
X137900000Y-70624000D01*
X137919685Y-70556961D01*
X137972489Y-70511206D01*
X138024000Y-70500000D01*
X140276000Y-70500000D01*
X140343039Y-70519685D01*
G37*
%TD.AperFunction*%
%TD*%
%TA.AperFunction,Conductor*%
%TO.N,GND*%
G36*
X145481694Y-50718306D02*
G01*
X145500000Y-50762500D01*
X145500000Y-51979971D01*
X145488358Y-52016298D01*
X144518695Y-53373827D01*
X144478112Y-53399150D01*
X144467837Y-53400000D01*
X141762500Y-53400000D01*
X141718306Y-53381694D01*
X141700000Y-53337500D01*
X141700000Y-52462500D01*
X141718306Y-52418306D01*
X141762500Y-52400000D01*
X144100000Y-52400000D01*
X144400000Y-51900000D01*
X144400000Y-50762500D01*
X144418306Y-50718306D01*
X144462500Y-50700000D01*
X145437500Y-50700000D01*
X145481694Y-50718306D01*
G37*
%TD.AperFunction*%
%TD*%
%TA.AperFunction,Conductor*%
%TO.N,GND*%
G36*
X139281694Y-50518306D02*
G01*
X139300000Y-50562500D01*
X139300000Y-53637500D01*
X139281694Y-53681694D01*
X139237500Y-53700000D01*
X138020833Y-53700000D01*
X137983333Y-53687500D01*
X137975592Y-53681694D01*
X137600000Y-53400000D01*
X137599999Y-53400000D01*
X137526531Y-53400000D01*
X137482337Y-53381694D01*
X137418304Y-53317661D01*
X137400000Y-53273468D01*
X137400000Y-52877896D01*
X137400301Y-52871770D01*
X137400500Y-52869749D01*
X137400500Y-52099887D01*
X137400983Y-52092135D01*
X137484880Y-51420952D01*
X137494930Y-51393986D01*
X137538867Y-51328231D01*
X137550500Y-51269748D01*
X137550500Y-50562500D01*
X137568806Y-50518306D01*
X137613000Y-50500000D01*
X139237500Y-50500000D01*
X139281694Y-50518306D01*
G37*
%TD.AperFunction*%
%TD*%
%TA.AperFunction,Conductor*%
%TO.N,GND*%
G36*
X132281194Y-50518306D02*
G01*
X132299500Y-50562500D01*
X132299500Y-51201035D01*
X132299118Y-51207937D01*
X132226058Y-51865469D01*
X132208137Y-51902758D01*
X132205448Y-51905446D01*
X132161134Y-51971766D01*
X132161132Y-51971769D01*
X132149500Y-52030251D01*
X132149500Y-52869748D01*
X132161132Y-52928230D01*
X132161133Y-52928233D01*
X132189466Y-52970633D01*
X132200000Y-53005357D01*
X132200000Y-53937500D01*
X132181694Y-53981694D01*
X132137500Y-54000000D01*
X130629274Y-54000000D01*
X130585080Y-53981694D01*
X130581260Y-53977512D01*
X130114486Y-53417383D01*
X130100000Y-53377371D01*
X130100000Y-51125888D01*
X130118306Y-51081694D01*
X130681694Y-50518306D01*
X130725888Y-50500000D01*
X132237000Y-50500000D01*
X132281194Y-50518306D01*
G37*
%TD.AperFunction*%
%TD*%
M02*
