%TF.GenerationSoftware,KiCad,Pcbnew,8.0.5-dirty*%
%TF.CreationDate,2024-12-04T01:41:04-06:00*%
%TF.ProjectId,MicroSDV3,4d696372-6f53-4445-9633-2e6b69636164,rev?*%
%TF.SameCoordinates,Original*%
%TF.FileFunction,Legend,Bot*%
%TF.FilePolarity,Positive*%
%FSLAX46Y46*%
G04 Gerber Fmt 4.6, Leading zero omitted, Abs format (unit mm)*
G04 Created by KiCad (PCBNEW 8.0.5-dirty) date 2024-12-04 01:41:04*
%MOMM*%
%LPD*%
G01*
G04 APERTURE LIST*
%ADD10C,0.150000*%
%ADD11C,0.120000*%
G04 APERTURE END LIST*
D10*
X148933333Y-68756009D02*
X149266666Y-68756009D01*
X149266666Y-69279819D02*
X149266666Y-68279819D01*
X149266666Y-68279819D02*
X148790476Y-68279819D01*
X148076190Y-68756009D02*
X147933333Y-68803628D01*
X147933333Y-68803628D02*
X147885714Y-68851247D01*
X147885714Y-68851247D02*
X147838095Y-68946485D01*
X147838095Y-68946485D02*
X147838095Y-69089342D01*
X147838095Y-69089342D02*
X147885714Y-69184580D01*
X147885714Y-69184580D02*
X147933333Y-69232200D01*
X147933333Y-69232200D02*
X148028571Y-69279819D01*
X148028571Y-69279819D02*
X148409523Y-69279819D01*
X148409523Y-69279819D02*
X148409523Y-68279819D01*
X148409523Y-68279819D02*
X148076190Y-68279819D01*
X148076190Y-68279819D02*
X147980952Y-68327438D01*
X147980952Y-68327438D02*
X147933333Y-68375057D01*
X147933333Y-68375057D02*
X147885714Y-68470295D01*
X147885714Y-68470295D02*
X147885714Y-68565533D01*
X147885714Y-68565533D02*
X147933333Y-68660771D01*
X147933333Y-68660771D02*
X147980952Y-68708390D01*
X147980952Y-68708390D02*
X148076190Y-68756009D01*
X148076190Y-68756009D02*
X148409523Y-68756009D01*
X146885714Y-69279819D02*
X147457142Y-69279819D01*
X147171428Y-69279819D02*
X147171428Y-68279819D01*
X147171428Y-68279819D02*
X147266666Y-68422676D01*
X147266666Y-68422676D02*
X147361904Y-68517914D01*
X147361904Y-68517914D02*
X147457142Y-68565533D01*
X147004819Y-70233333D02*
X146528628Y-69900000D01*
X147004819Y-69661905D02*
X146004819Y-69661905D01*
X146004819Y-69661905D02*
X146004819Y-70042857D01*
X146004819Y-70042857D02*
X146052438Y-70138095D01*
X146052438Y-70138095D02*
X146100057Y-70185714D01*
X146100057Y-70185714D02*
X146195295Y-70233333D01*
X146195295Y-70233333D02*
X146338152Y-70233333D01*
X146338152Y-70233333D02*
X146433390Y-70185714D01*
X146433390Y-70185714D02*
X146481009Y-70138095D01*
X146481009Y-70138095D02*
X146528628Y-70042857D01*
X146528628Y-70042857D02*
X146528628Y-69661905D01*
X146004819Y-70566667D02*
X146004819Y-71185714D01*
X146004819Y-71185714D02*
X146385771Y-70852381D01*
X146385771Y-70852381D02*
X146385771Y-70995238D01*
X146385771Y-70995238D02*
X146433390Y-71090476D01*
X146433390Y-71090476D02*
X146481009Y-71138095D01*
X146481009Y-71138095D02*
X146576247Y-71185714D01*
X146576247Y-71185714D02*
X146814342Y-71185714D01*
X146814342Y-71185714D02*
X146909580Y-71138095D01*
X146909580Y-71138095D02*
X146957200Y-71090476D01*
X146957200Y-71090476D02*
X147004819Y-70995238D01*
X147004819Y-70995238D02*
X147004819Y-70709524D01*
X147004819Y-70709524D02*
X146957200Y-70614286D01*
X146957200Y-70614286D02*
X146909580Y-70566667D01*
X124061904Y-57077319D02*
X124061904Y-57886842D01*
X124061904Y-57886842D02*
X124014285Y-57982080D01*
X124014285Y-57982080D02*
X123966666Y-58029700D01*
X123966666Y-58029700D02*
X123871428Y-58077319D01*
X123871428Y-58077319D02*
X123680952Y-58077319D01*
X123680952Y-58077319D02*
X123585714Y-58029700D01*
X123585714Y-58029700D02*
X123538095Y-57982080D01*
X123538095Y-57982080D02*
X123490476Y-57886842D01*
X123490476Y-57886842D02*
X123490476Y-57077319D01*
X123061904Y-57172557D02*
X123014285Y-57124938D01*
X123014285Y-57124938D02*
X122919047Y-57077319D01*
X122919047Y-57077319D02*
X122680952Y-57077319D01*
X122680952Y-57077319D02*
X122585714Y-57124938D01*
X122585714Y-57124938D02*
X122538095Y-57172557D01*
X122538095Y-57172557D02*
X122490476Y-57267795D01*
X122490476Y-57267795D02*
X122490476Y-57363033D01*
X122490476Y-57363033D02*
X122538095Y-57505890D01*
X122538095Y-57505890D02*
X123109523Y-58077319D01*
X123109523Y-58077319D02*
X122490476Y-58077319D01*
X143754819Y-59233333D02*
X143278628Y-58900000D01*
X143754819Y-58661905D02*
X142754819Y-58661905D01*
X142754819Y-58661905D02*
X142754819Y-59042857D01*
X142754819Y-59042857D02*
X142802438Y-59138095D01*
X142802438Y-59138095D02*
X142850057Y-59185714D01*
X142850057Y-59185714D02*
X142945295Y-59233333D01*
X142945295Y-59233333D02*
X143088152Y-59233333D01*
X143088152Y-59233333D02*
X143183390Y-59185714D01*
X143183390Y-59185714D02*
X143231009Y-59138095D01*
X143231009Y-59138095D02*
X143278628Y-59042857D01*
X143278628Y-59042857D02*
X143278628Y-58661905D01*
X143754819Y-60185714D02*
X143754819Y-59614286D01*
X143754819Y-59900000D02*
X142754819Y-59900000D01*
X142754819Y-59900000D02*
X142897676Y-59804762D01*
X142897676Y-59804762D02*
X142992914Y-59709524D01*
X142992914Y-59709524D02*
X143040533Y-59614286D01*
X152242857Y-65559580D02*
X152290476Y-65607200D01*
X152290476Y-65607200D02*
X152433333Y-65654819D01*
X152433333Y-65654819D02*
X152528571Y-65654819D01*
X152528571Y-65654819D02*
X152671428Y-65607200D01*
X152671428Y-65607200D02*
X152766666Y-65511961D01*
X152766666Y-65511961D02*
X152814285Y-65416723D01*
X152814285Y-65416723D02*
X152861904Y-65226247D01*
X152861904Y-65226247D02*
X152861904Y-65083390D01*
X152861904Y-65083390D02*
X152814285Y-64892914D01*
X152814285Y-64892914D02*
X152766666Y-64797676D01*
X152766666Y-64797676D02*
X152671428Y-64702438D01*
X152671428Y-64702438D02*
X152528571Y-64654819D01*
X152528571Y-64654819D02*
X152433333Y-64654819D01*
X152433333Y-64654819D02*
X152290476Y-64702438D01*
X152290476Y-64702438D02*
X152242857Y-64750057D01*
X151290476Y-65654819D02*
X151861904Y-65654819D01*
X151576190Y-65654819D02*
X151576190Y-64654819D01*
X151576190Y-64654819D02*
X151671428Y-64797676D01*
X151671428Y-64797676D02*
X151766666Y-64892914D01*
X151766666Y-64892914D02*
X151861904Y-64940533D01*
X150671428Y-64654819D02*
X150576190Y-64654819D01*
X150576190Y-64654819D02*
X150480952Y-64702438D01*
X150480952Y-64702438D02*
X150433333Y-64750057D01*
X150433333Y-64750057D02*
X150385714Y-64845295D01*
X150385714Y-64845295D02*
X150338095Y-65035771D01*
X150338095Y-65035771D02*
X150338095Y-65273866D01*
X150338095Y-65273866D02*
X150385714Y-65464342D01*
X150385714Y-65464342D02*
X150433333Y-65559580D01*
X150433333Y-65559580D02*
X150480952Y-65607200D01*
X150480952Y-65607200D02*
X150576190Y-65654819D01*
X150576190Y-65654819D02*
X150671428Y-65654819D01*
X150671428Y-65654819D02*
X150766666Y-65607200D01*
X150766666Y-65607200D02*
X150814285Y-65559580D01*
X150814285Y-65559580D02*
X150861904Y-65464342D01*
X150861904Y-65464342D02*
X150909523Y-65273866D01*
X150909523Y-65273866D02*
X150909523Y-65035771D01*
X150909523Y-65035771D02*
X150861904Y-64845295D01*
X150861904Y-64845295D02*
X150814285Y-64750057D01*
X150814285Y-64750057D02*
X150766666Y-64702438D01*
X150766666Y-64702438D02*
X150671428Y-64654819D01*
X149139580Y-64833333D02*
X149187200Y-64785714D01*
X149187200Y-64785714D02*
X149234819Y-64642857D01*
X149234819Y-64642857D02*
X149234819Y-64547619D01*
X149234819Y-64547619D02*
X149187200Y-64404762D01*
X149187200Y-64404762D02*
X149091961Y-64309524D01*
X149091961Y-64309524D02*
X148996723Y-64261905D01*
X148996723Y-64261905D02*
X148806247Y-64214286D01*
X148806247Y-64214286D02*
X148663390Y-64214286D01*
X148663390Y-64214286D02*
X148472914Y-64261905D01*
X148472914Y-64261905D02*
X148377676Y-64309524D01*
X148377676Y-64309524D02*
X148282438Y-64404762D01*
X148282438Y-64404762D02*
X148234819Y-64547619D01*
X148234819Y-64547619D02*
X148234819Y-64642857D01*
X148234819Y-64642857D02*
X148282438Y-64785714D01*
X148282438Y-64785714D02*
X148330057Y-64833333D01*
X149234819Y-65309524D02*
X149234819Y-65500000D01*
X149234819Y-65500000D02*
X149187200Y-65595238D01*
X149187200Y-65595238D02*
X149139580Y-65642857D01*
X149139580Y-65642857D02*
X148996723Y-65738095D01*
X148996723Y-65738095D02*
X148806247Y-65785714D01*
X148806247Y-65785714D02*
X148425295Y-65785714D01*
X148425295Y-65785714D02*
X148330057Y-65738095D01*
X148330057Y-65738095D02*
X148282438Y-65690476D01*
X148282438Y-65690476D02*
X148234819Y-65595238D01*
X148234819Y-65595238D02*
X148234819Y-65404762D01*
X148234819Y-65404762D02*
X148282438Y-65309524D01*
X148282438Y-65309524D02*
X148330057Y-65261905D01*
X148330057Y-65261905D02*
X148425295Y-65214286D01*
X148425295Y-65214286D02*
X148663390Y-65214286D01*
X148663390Y-65214286D02*
X148758628Y-65261905D01*
X148758628Y-65261905D02*
X148806247Y-65309524D01*
X148806247Y-65309524D02*
X148853866Y-65404762D01*
X148853866Y-65404762D02*
X148853866Y-65595238D01*
X148853866Y-65595238D02*
X148806247Y-65690476D01*
X148806247Y-65690476D02*
X148758628Y-65738095D01*
X148758628Y-65738095D02*
X148663390Y-65785714D01*
X120004166Y-56959580D02*
X120051785Y-57007200D01*
X120051785Y-57007200D02*
X120194642Y-57054819D01*
X120194642Y-57054819D02*
X120289880Y-57054819D01*
X120289880Y-57054819D02*
X120432737Y-57007200D01*
X120432737Y-57007200D02*
X120527975Y-56911961D01*
X120527975Y-56911961D02*
X120575594Y-56816723D01*
X120575594Y-56816723D02*
X120623213Y-56626247D01*
X120623213Y-56626247D02*
X120623213Y-56483390D01*
X120623213Y-56483390D02*
X120575594Y-56292914D01*
X120575594Y-56292914D02*
X120527975Y-56197676D01*
X120527975Y-56197676D02*
X120432737Y-56102438D01*
X120432737Y-56102438D02*
X120289880Y-56054819D01*
X120289880Y-56054819D02*
X120194642Y-56054819D01*
X120194642Y-56054819D02*
X120051785Y-56102438D01*
X120051785Y-56102438D02*
X120004166Y-56150057D01*
X119623213Y-56150057D02*
X119575594Y-56102438D01*
X119575594Y-56102438D02*
X119480356Y-56054819D01*
X119480356Y-56054819D02*
X119242261Y-56054819D01*
X119242261Y-56054819D02*
X119147023Y-56102438D01*
X119147023Y-56102438D02*
X119099404Y-56150057D01*
X119099404Y-56150057D02*
X119051785Y-56245295D01*
X119051785Y-56245295D02*
X119051785Y-56340533D01*
X119051785Y-56340533D02*
X119099404Y-56483390D01*
X119099404Y-56483390D02*
X119670832Y-57054819D01*
X119670832Y-57054819D02*
X119051785Y-57054819D01*
X115859580Y-64033333D02*
X115907200Y-63985714D01*
X115907200Y-63985714D02*
X115954819Y-63842857D01*
X115954819Y-63842857D02*
X115954819Y-63747619D01*
X115954819Y-63747619D02*
X115907200Y-63604762D01*
X115907200Y-63604762D02*
X115811961Y-63509524D01*
X115811961Y-63509524D02*
X115716723Y-63461905D01*
X115716723Y-63461905D02*
X115526247Y-63414286D01*
X115526247Y-63414286D02*
X115383390Y-63414286D01*
X115383390Y-63414286D02*
X115192914Y-63461905D01*
X115192914Y-63461905D02*
X115097676Y-63509524D01*
X115097676Y-63509524D02*
X115002438Y-63604762D01*
X115002438Y-63604762D02*
X114954819Y-63747619D01*
X114954819Y-63747619D02*
X114954819Y-63842857D01*
X114954819Y-63842857D02*
X115002438Y-63985714D01*
X115002438Y-63985714D02*
X115050057Y-64033333D01*
X114954819Y-64366667D02*
X114954819Y-64985714D01*
X114954819Y-64985714D02*
X115335771Y-64652381D01*
X115335771Y-64652381D02*
X115335771Y-64795238D01*
X115335771Y-64795238D02*
X115383390Y-64890476D01*
X115383390Y-64890476D02*
X115431009Y-64938095D01*
X115431009Y-64938095D02*
X115526247Y-64985714D01*
X115526247Y-64985714D02*
X115764342Y-64985714D01*
X115764342Y-64985714D02*
X115859580Y-64938095D01*
X115859580Y-64938095D02*
X115907200Y-64890476D01*
X115907200Y-64890476D02*
X115954819Y-64795238D01*
X115954819Y-64795238D02*
X115954819Y-64509524D01*
X115954819Y-64509524D02*
X115907200Y-64414286D01*
X115907200Y-64414286D02*
X115859580Y-64366667D01*
X125979580Y-54895833D02*
X126027200Y-54848214D01*
X126027200Y-54848214D02*
X126074819Y-54705357D01*
X126074819Y-54705357D02*
X126074819Y-54610119D01*
X126074819Y-54610119D02*
X126027200Y-54467262D01*
X126027200Y-54467262D02*
X125931961Y-54372024D01*
X125931961Y-54372024D02*
X125836723Y-54324405D01*
X125836723Y-54324405D02*
X125646247Y-54276786D01*
X125646247Y-54276786D02*
X125503390Y-54276786D01*
X125503390Y-54276786D02*
X125312914Y-54324405D01*
X125312914Y-54324405D02*
X125217676Y-54372024D01*
X125217676Y-54372024D02*
X125122438Y-54467262D01*
X125122438Y-54467262D02*
X125074819Y-54610119D01*
X125074819Y-54610119D02*
X125074819Y-54705357D01*
X125074819Y-54705357D02*
X125122438Y-54848214D01*
X125122438Y-54848214D02*
X125170057Y-54895833D01*
X125074819Y-55229167D02*
X125074819Y-55895833D01*
X125074819Y-55895833D02*
X126074819Y-55467262D01*
X143654819Y-64433333D02*
X143178628Y-64100000D01*
X143654819Y-63861905D02*
X142654819Y-63861905D01*
X142654819Y-63861905D02*
X142654819Y-64242857D01*
X142654819Y-64242857D02*
X142702438Y-64338095D01*
X142702438Y-64338095D02*
X142750057Y-64385714D01*
X142750057Y-64385714D02*
X142845295Y-64433333D01*
X142845295Y-64433333D02*
X142988152Y-64433333D01*
X142988152Y-64433333D02*
X143083390Y-64385714D01*
X143083390Y-64385714D02*
X143131009Y-64338095D01*
X143131009Y-64338095D02*
X143178628Y-64242857D01*
X143178628Y-64242857D02*
X143178628Y-63861905D01*
X143654819Y-65385714D02*
X143654819Y-64814286D01*
X143654819Y-65100000D02*
X142654819Y-65100000D01*
X142654819Y-65100000D02*
X142797676Y-65004762D01*
X142797676Y-65004762D02*
X142892914Y-64909524D01*
X142892914Y-64909524D02*
X142940533Y-64814286D01*
X129859580Y-53795833D02*
X129907200Y-53748214D01*
X129907200Y-53748214D02*
X129954819Y-53605357D01*
X129954819Y-53605357D02*
X129954819Y-53510119D01*
X129954819Y-53510119D02*
X129907200Y-53367262D01*
X129907200Y-53367262D02*
X129811961Y-53272024D01*
X129811961Y-53272024D02*
X129716723Y-53224405D01*
X129716723Y-53224405D02*
X129526247Y-53176786D01*
X129526247Y-53176786D02*
X129383390Y-53176786D01*
X129383390Y-53176786D02*
X129192914Y-53224405D01*
X129192914Y-53224405D02*
X129097676Y-53272024D01*
X129097676Y-53272024D02*
X129002438Y-53367262D01*
X129002438Y-53367262D02*
X128954819Y-53510119D01*
X128954819Y-53510119D02*
X128954819Y-53605357D01*
X128954819Y-53605357D02*
X129002438Y-53748214D01*
X129002438Y-53748214D02*
X129050057Y-53795833D01*
X128954819Y-54700595D02*
X128954819Y-54224405D01*
X128954819Y-54224405D02*
X129431009Y-54176786D01*
X129431009Y-54176786D02*
X129383390Y-54224405D01*
X129383390Y-54224405D02*
X129335771Y-54319643D01*
X129335771Y-54319643D02*
X129335771Y-54557738D01*
X129335771Y-54557738D02*
X129383390Y-54652976D01*
X129383390Y-54652976D02*
X129431009Y-54700595D01*
X129431009Y-54700595D02*
X129526247Y-54748214D01*
X129526247Y-54748214D02*
X129764342Y-54748214D01*
X129764342Y-54748214D02*
X129859580Y-54700595D01*
X129859580Y-54700595D02*
X129907200Y-54652976D01*
X129907200Y-54652976D02*
X129954819Y-54557738D01*
X129954819Y-54557738D02*
X129954819Y-54319643D01*
X129954819Y-54319643D02*
X129907200Y-54224405D01*
X129907200Y-54224405D02*
X129859580Y-54176786D01*
X148942857Y-73059580D02*
X148990476Y-73107200D01*
X148990476Y-73107200D02*
X149133333Y-73154819D01*
X149133333Y-73154819D02*
X149228571Y-73154819D01*
X149228571Y-73154819D02*
X149371428Y-73107200D01*
X149371428Y-73107200D02*
X149466666Y-73011961D01*
X149466666Y-73011961D02*
X149514285Y-72916723D01*
X149514285Y-72916723D02*
X149561904Y-72726247D01*
X149561904Y-72726247D02*
X149561904Y-72583390D01*
X149561904Y-72583390D02*
X149514285Y-72392914D01*
X149514285Y-72392914D02*
X149466666Y-72297676D01*
X149466666Y-72297676D02*
X149371428Y-72202438D01*
X149371428Y-72202438D02*
X149228571Y-72154819D01*
X149228571Y-72154819D02*
X149133333Y-72154819D01*
X149133333Y-72154819D02*
X148990476Y-72202438D01*
X148990476Y-72202438D02*
X148942857Y-72250057D01*
X147990476Y-73154819D02*
X148561904Y-73154819D01*
X148276190Y-73154819D02*
X148276190Y-72154819D01*
X148276190Y-72154819D02*
X148371428Y-72297676D01*
X148371428Y-72297676D02*
X148466666Y-72392914D01*
X148466666Y-72392914D02*
X148561904Y-72440533D01*
X147609523Y-72250057D02*
X147561904Y-72202438D01*
X147561904Y-72202438D02*
X147466666Y-72154819D01*
X147466666Y-72154819D02*
X147228571Y-72154819D01*
X147228571Y-72154819D02*
X147133333Y-72202438D01*
X147133333Y-72202438D02*
X147085714Y-72250057D01*
X147085714Y-72250057D02*
X147038095Y-72345295D01*
X147038095Y-72345295D02*
X147038095Y-72440533D01*
X147038095Y-72440533D02*
X147085714Y-72583390D01*
X147085714Y-72583390D02*
X147657142Y-73154819D01*
X147657142Y-73154819D02*
X147038095Y-73154819D01*
X148842857Y-70859580D02*
X148890476Y-70907200D01*
X148890476Y-70907200D02*
X149033333Y-70954819D01*
X149033333Y-70954819D02*
X149128571Y-70954819D01*
X149128571Y-70954819D02*
X149271428Y-70907200D01*
X149271428Y-70907200D02*
X149366666Y-70811961D01*
X149366666Y-70811961D02*
X149414285Y-70716723D01*
X149414285Y-70716723D02*
X149461904Y-70526247D01*
X149461904Y-70526247D02*
X149461904Y-70383390D01*
X149461904Y-70383390D02*
X149414285Y-70192914D01*
X149414285Y-70192914D02*
X149366666Y-70097676D01*
X149366666Y-70097676D02*
X149271428Y-70002438D01*
X149271428Y-70002438D02*
X149128571Y-69954819D01*
X149128571Y-69954819D02*
X149033333Y-69954819D01*
X149033333Y-69954819D02*
X148890476Y-70002438D01*
X148890476Y-70002438D02*
X148842857Y-70050057D01*
X147890476Y-70954819D02*
X148461904Y-70954819D01*
X148176190Y-70954819D02*
X148176190Y-69954819D01*
X148176190Y-69954819D02*
X148271428Y-70097676D01*
X148271428Y-70097676D02*
X148366666Y-70192914D01*
X148366666Y-70192914D02*
X148461904Y-70240533D01*
X146938095Y-70954819D02*
X147509523Y-70954819D01*
X147223809Y-70954819D02*
X147223809Y-69954819D01*
X147223809Y-69954819D02*
X147319047Y-70097676D01*
X147319047Y-70097676D02*
X147414285Y-70192914D01*
X147414285Y-70192914D02*
X147509523Y-70240533D01*
X139002319Y-60775595D02*
X139811842Y-60775595D01*
X139811842Y-60775595D02*
X139907080Y-60823214D01*
X139907080Y-60823214D02*
X139954700Y-60870833D01*
X139954700Y-60870833D02*
X140002319Y-60966071D01*
X140002319Y-60966071D02*
X140002319Y-61156547D01*
X140002319Y-61156547D02*
X139954700Y-61251785D01*
X139954700Y-61251785D02*
X139907080Y-61299404D01*
X139907080Y-61299404D02*
X139811842Y-61347023D01*
X139811842Y-61347023D02*
X139002319Y-61347023D01*
X140002319Y-62347023D02*
X140002319Y-61775595D01*
X140002319Y-62061309D02*
X139002319Y-62061309D01*
X139002319Y-62061309D02*
X139145176Y-61966071D01*
X139145176Y-61966071D02*
X139240414Y-61870833D01*
X139240414Y-61870833D02*
X139288033Y-61775595D01*
X119766666Y-54959580D02*
X119814285Y-55007200D01*
X119814285Y-55007200D02*
X119957142Y-55054819D01*
X119957142Y-55054819D02*
X120052380Y-55054819D01*
X120052380Y-55054819D02*
X120195237Y-55007200D01*
X120195237Y-55007200D02*
X120290475Y-54911961D01*
X120290475Y-54911961D02*
X120338094Y-54816723D01*
X120338094Y-54816723D02*
X120385713Y-54626247D01*
X120385713Y-54626247D02*
X120385713Y-54483390D01*
X120385713Y-54483390D02*
X120338094Y-54292914D01*
X120338094Y-54292914D02*
X120290475Y-54197676D01*
X120290475Y-54197676D02*
X120195237Y-54102438D01*
X120195237Y-54102438D02*
X120052380Y-54054819D01*
X120052380Y-54054819D02*
X119957142Y-54054819D01*
X119957142Y-54054819D02*
X119814285Y-54102438D01*
X119814285Y-54102438D02*
X119766666Y-54150057D01*
X118909523Y-54388152D02*
X118909523Y-55054819D01*
X119147618Y-54007200D02*
X119385713Y-54721485D01*
X119385713Y-54721485D02*
X118766666Y-54721485D01*
X149554819Y-68475595D02*
X150364342Y-68475595D01*
X150364342Y-68475595D02*
X150459580Y-68523214D01*
X150459580Y-68523214D02*
X150507200Y-68570833D01*
X150507200Y-68570833D02*
X150554819Y-68666071D01*
X150554819Y-68666071D02*
X150554819Y-68856547D01*
X150554819Y-68856547D02*
X150507200Y-68951785D01*
X150507200Y-68951785D02*
X150459580Y-68999404D01*
X150459580Y-68999404D02*
X150364342Y-69047023D01*
X150364342Y-69047023D02*
X149554819Y-69047023D01*
X149554819Y-69427976D02*
X149554819Y-70094642D01*
X149554819Y-70094642D02*
X150554819Y-69666071D01*
X121966666Y-52854819D02*
X122299999Y-52378628D01*
X122538094Y-52854819D02*
X122538094Y-51854819D01*
X122538094Y-51854819D02*
X122157142Y-51854819D01*
X122157142Y-51854819D02*
X122061904Y-51902438D01*
X122061904Y-51902438D02*
X122014285Y-51950057D01*
X122014285Y-51950057D02*
X121966666Y-52045295D01*
X121966666Y-52045295D02*
X121966666Y-52188152D01*
X121966666Y-52188152D02*
X122014285Y-52283390D01*
X122014285Y-52283390D02*
X122061904Y-52331009D01*
X122061904Y-52331009D02*
X122157142Y-52378628D01*
X122157142Y-52378628D02*
X122538094Y-52378628D01*
X121585713Y-51950057D02*
X121538094Y-51902438D01*
X121538094Y-51902438D02*
X121442856Y-51854819D01*
X121442856Y-51854819D02*
X121204761Y-51854819D01*
X121204761Y-51854819D02*
X121109523Y-51902438D01*
X121109523Y-51902438D02*
X121061904Y-51950057D01*
X121061904Y-51950057D02*
X121014285Y-52045295D01*
X121014285Y-52045295D02*
X121014285Y-52140533D01*
X121014285Y-52140533D02*
X121061904Y-52283390D01*
X121061904Y-52283390D02*
X121633332Y-52854819D01*
X121633332Y-52854819D02*
X121014285Y-52854819D01*
X141766666Y-55239580D02*
X141814285Y-55287200D01*
X141814285Y-55287200D02*
X141957142Y-55334819D01*
X141957142Y-55334819D02*
X142052380Y-55334819D01*
X142052380Y-55334819D02*
X142195237Y-55287200D01*
X142195237Y-55287200D02*
X142290475Y-55191961D01*
X142290475Y-55191961D02*
X142338094Y-55096723D01*
X142338094Y-55096723D02*
X142385713Y-54906247D01*
X142385713Y-54906247D02*
X142385713Y-54763390D01*
X142385713Y-54763390D02*
X142338094Y-54572914D01*
X142338094Y-54572914D02*
X142290475Y-54477676D01*
X142290475Y-54477676D02*
X142195237Y-54382438D01*
X142195237Y-54382438D02*
X142052380Y-54334819D01*
X142052380Y-54334819D02*
X141957142Y-54334819D01*
X141957142Y-54334819D02*
X141814285Y-54382438D01*
X141814285Y-54382438D02*
X141766666Y-54430057D01*
X140909523Y-54334819D02*
X141099999Y-54334819D01*
X141099999Y-54334819D02*
X141195237Y-54382438D01*
X141195237Y-54382438D02*
X141242856Y-54430057D01*
X141242856Y-54430057D02*
X141338094Y-54572914D01*
X141338094Y-54572914D02*
X141385713Y-54763390D01*
X141385713Y-54763390D02*
X141385713Y-55144342D01*
X141385713Y-55144342D02*
X141338094Y-55239580D01*
X141338094Y-55239580D02*
X141290475Y-55287200D01*
X141290475Y-55287200D02*
X141195237Y-55334819D01*
X141195237Y-55334819D02*
X141004761Y-55334819D01*
X141004761Y-55334819D02*
X140909523Y-55287200D01*
X140909523Y-55287200D02*
X140861904Y-55239580D01*
X140861904Y-55239580D02*
X140814285Y-55144342D01*
X140814285Y-55144342D02*
X140814285Y-54906247D01*
X140814285Y-54906247D02*
X140861904Y-54811009D01*
X140861904Y-54811009D02*
X140909523Y-54763390D01*
X140909523Y-54763390D02*
X141004761Y-54715771D01*
X141004761Y-54715771D02*
X141195237Y-54715771D01*
X141195237Y-54715771D02*
X141290475Y-54763390D01*
X141290475Y-54763390D02*
X141338094Y-54811009D01*
X141338094Y-54811009D02*
X141385713Y-54906247D01*
X112438094Y-52854819D02*
X112438094Y-51854819D01*
X112438094Y-51854819D02*
X112199999Y-51854819D01*
X112199999Y-51854819D02*
X112057142Y-51902438D01*
X112057142Y-51902438D02*
X111961904Y-51997676D01*
X111961904Y-51997676D02*
X111914285Y-52092914D01*
X111914285Y-52092914D02*
X111866666Y-52283390D01*
X111866666Y-52283390D02*
X111866666Y-52426247D01*
X111866666Y-52426247D02*
X111914285Y-52616723D01*
X111914285Y-52616723D02*
X111961904Y-52711961D01*
X111961904Y-52711961D02*
X112057142Y-52807200D01*
X112057142Y-52807200D02*
X112199999Y-52854819D01*
X112199999Y-52854819D02*
X112438094Y-52854819D01*
X110914285Y-52854819D02*
X111485713Y-52854819D01*
X111199999Y-52854819D02*
X111199999Y-51854819D01*
X111199999Y-51854819D02*
X111295237Y-51997676D01*
X111295237Y-51997676D02*
X111390475Y-52092914D01*
X111390475Y-52092914D02*
X111485713Y-52140533D01*
X131759580Y-54895833D02*
X131807200Y-54848214D01*
X131807200Y-54848214D02*
X131854819Y-54705357D01*
X131854819Y-54705357D02*
X131854819Y-54610119D01*
X131854819Y-54610119D02*
X131807200Y-54467262D01*
X131807200Y-54467262D02*
X131711961Y-54372024D01*
X131711961Y-54372024D02*
X131616723Y-54324405D01*
X131616723Y-54324405D02*
X131426247Y-54276786D01*
X131426247Y-54276786D02*
X131283390Y-54276786D01*
X131283390Y-54276786D02*
X131092914Y-54324405D01*
X131092914Y-54324405D02*
X130997676Y-54372024D01*
X130997676Y-54372024D02*
X130902438Y-54467262D01*
X130902438Y-54467262D02*
X130854819Y-54610119D01*
X130854819Y-54610119D02*
X130854819Y-54705357D01*
X130854819Y-54705357D02*
X130902438Y-54848214D01*
X130902438Y-54848214D02*
X130950057Y-54895833D01*
X131854819Y-55848214D02*
X131854819Y-55276786D01*
X131854819Y-55562500D02*
X130854819Y-55562500D01*
X130854819Y-55562500D02*
X130997676Y-55467262D01*
X130997676Y-55467262D02*
X131092914Y-55372024D01*
X131092914Y-55372024D02*
X131140533Y-55276786D01*
D11*
%TO.C,FB1*%
X151372936Y-67990000D02*
X151827064Y-67990000D01*
X151372936Y-69460000D02*
X151827064Y-69460000D01*
%TO.C,R3*%
X144165000Y-70172936D02*
X144165000Y-70627064D01*
X145635000Y-70172936D02*
X145635000Y-70627064D01*
D10*
%TO.C,U2*%
X121300000Y-58422500D02*
X125300000Y-58422500D01*
X121300000Y-63822500D02*
X125300000Y-63822500D01*
D11*
X125650000Y-58422500D02*
X125410000Y-58092500D01*
X125890000Y-58092500D01*
X125650000Y-58422500D01*
G36*
X125650000Y-58422500D02*
G01*
X125410000Y-58092500D01*
X125890000Y-58092500D01*
X125650000Y-58422500D01*
G37*
%TO.C,R1*%
X140977500Y-58157776D02*
X140977500Y-58667224D01*
X142022500Y-58157776D02*
X142022500Y-58667224D01*
%TO.C,C10*%
X151338748Y-66065000D02*
X151861252Y-66065000D01*
X151338748Y-67535000D02*
X151861252Y-67535000D01*
%TO.C,C9*%
X146365000Y-64738748D02*
X146365000Y-65261252D01*
X147835000Y-64738748D02*
X147835000Y-65261252D01*
%TO.C,C2*%
X116998752Y-55865000D02*
X116476248Y-55865000D01*
X116998752Y-57335000D02*
X116476248Y-57335000D01*
%TO.C,C3*%
X117865000Y-63738748D02*
X117865000Y-64261252D01*
X119335000Y-63738748D02*
X119335000Y-64261252D01*
%TO.C,C7*%
X126565000Y-55323752D02*
X126565000Y-54801248D01*
X128035000Y-55323752D02*
X128035000Y-54801248D01*
%TO.C,R1*%
X144165000Y-66272936D02*
X144165000Y-66727064D01*
X145635000Y-66272936D02*
X145635000Y-66727064D01*
%TO.C,C5*%
X128765000Y-56601248D02*
X128765000Y-57123752D01*
X130235000Y-56601248D02*
X130235000Y-57123752D01*
%TO.C,C12*%
X151861252Y-71965000D02*
X151338748Y-71965000D01*
X151861252Y-73435000D02*
X151338748Y-73435000D01*
%TO.C,C11*%
X151861252Y-69965000D02*
X151338748Y-69965000D01*
X151861252Y-71435000D02*
X151338748Y-71435000D01*
%TO.C,U1*%
X133465000Y-59587500D02*
X133465000Y-61537500D01*
X133465000Y-63487500D02*
X133465000Y-61537500D01*
X138830000Y-59587500D02*
X138830000Y-61537500D01*
X138830000Y-63487500D02*
X138830000Y-61537500D01*
X138610000Y-65577500D02*
X138130000Y-65577500D01*
X138370000Y-65247500D01*
X138610000Y-65577500D01*
G36*
X138610000Y-65577500D02*
G01*
X138130000Y-65577500D01*
X138370000Y-65247500D01*
X138610000Y-65577500D01*
G37*
%TO.C,C4*%
X116961252Y-53865000D02*
X116438748Y-53865000D01*
X116961252Y-55335000D02*
X116438748Y-55335000D01*
%TO.C,U7*%
X146140000Y-68437500D02*
X146140000Y-69237500D01*
X146140000Y-70037500D02*
X146140000Y-69237500D01*
X149260000Y-68437500D02*
X149260000Y-69237500D01*
X149260000Y-70037500D02*
X149260000Y-69237500D01*
X149540000Y-70777500D02*
X149210000Y-70537500D01*
X149540000Y-70297500D01*
X149540000Y-70777500D01*
G36*
X149540000Y-70777500D02*
G01*
X149210000Y-70537500D01*
X149540000Y-70297500D01*
X149540000Y-70777500D01*
G37*
%TO.C,R2*%
X119227064Y-51565000D02*
X118772936Y-51565000D01*
X119227064Y-53035000D02*
X118772936Y-53035000D01*
%TO.C,C6*%
X141861252Y-52465000D02*
X141338748Y-52465000D01*
X141861252Y-53935000D02*
X141338748Y-53935000D01*
%TO.C,D1*%
X114372936Y-51565000D02*
X114827064Y-51565000D01*
X114372936Y-53035000D02*
X114827064Y-53035000D01*
%TO.C,C1*%
X130765000Y-57601248D02*
X130765000Y-58123752D01*
X132235000Y-57601248D02*
X132235000Y-58123752D01*
%TD*%
M02*
