%TF.GenerationSoftware,KiCad,Pcbnew,8.0.5-dirty*%
%TF.CreationDate,2024-12-04T01:41:04-06:00*%
%TF.ProjectId,MicroSDV3,4d696372-6f53-4445-9633-2e6b69636164,rev?*%
%TF.SameCoordinates,Original*%
%TF.FileFunction,Soldermask,Bot*%
%TF.FilePolarity,Negative*%
%FSLAX46Y46*%
G04 Gerber Fmt 4.6, Leading zero omitted, Abs format (unit mm)*
G04 Created by KiCad (PCBNEW 8.0.5-dirty) date 2024-12-04 01:41:04*
%MOMM*%
%LPD*%
G01*
G04 APERTURE LIST*
G04 Aperture macros list*
%AMRoundRect*
0 Rectangle with rounded corners*
0 $1 Rounding radius*
0 $2 $3 $4 $5 $6 $7 $8 $9 X,Y pos of 4 corners*
0 Add a 4 corners polygon primitive as box body*
4,1,4,$2,$3,$4,$5,$6,$7,$8,$9,$2,$3,0*
0 Add four circle primitives for the rounded corners*
1,1,$1+$1,$2,$3*
1,1,$1+$1,$4,$5*
1,1,$1+$1,$6,$7*
1,1,$1+$1,$8,$9*
0 Add four rect primitives between the rounded corners*
20,1,$1+$1,$2,$3,$4,$5,0*
20,1,$1+$1,$4,$5,$6,$7,0*
20,1,$1+$1,$6,$7,$8,$9,0*
20,1,$1+$1,$8,$9,$2,$3,0*%
G04 Aperture macros list end*
%ADD10O,1.000000X2.000000*%
%ADD11R,1.700000X1.700000*%
%ADD12O,1.700000X1.700000*%
%ADD13C,1.000000*%
%ADD14C,3.200000*%
%ADD15O,1.100000X2.100000*%
%ADD16O,1.100000X2.600000*%
%ADD17RoundRect,0.250000X0.350000X0.450000X-0.350000X0.450000X-0.350000X-0.450000X0.350000X-0.450000X0*%
%ADD18RoundRect,0.250000X0.450000X-0.350000X0.450000X0.350000X-0.450000X0.350000X-0.450000X-0.350000X0*%
%ADD19R,1.200000X0.400000*%
%ADD20RoundRect,0.237500X0.237500X-0.250000X0.237500X0.250000X-0.237500X0.250000X-0.237500X-0.250000X0*%
%ADD21RoundRect,0.250000X0.337500X0.475000X-0.337500X0.475000X-0.337500X-0.475000X0.337500X-0.475000X0*%
%ADD22RoundRect,0.250000X0.475000X-0.337500X0.475000X0.337500X-0.475000X0.337500X-0.475000X-0.337500X0*%
%ADD23RoundRect,0.250000X-0.337500X-0.475000X0.337500X-0.475000X0.337500X0.475000X-0.337500X0.475000X0*%
%ADD24RoundRect,0.250000X-0.475000X0.337500X-0.475000X-0.337500X0.475000X-0.337500X0.475000X0.337500X0*%
%ADD25RoundRect,0.100000X0.100000X-0.712500X0.100000X0.712500X-0.100000X0.712500X-0.100000X-0.712500X0*%
%ADD26RoundRect,0.150000X0.150000X-0.512500X0.150000X0.512500X-0.150000X0.512500X-0.150000X-0.512500X0*%
%ADD27RoundRect,0.250000X-0.350000X-0.450000X0.350000X-0.450000X0.350000X0.450000X-0.350000X0.450000X0*%
G04 APERTURE END LIST*
D10*
%TO.C,USB_C3.0_UP1*%
X138525000Y-52450000D03*
X131225000Y-52450000D03*
%TD*%
D11*
%TO.C,J2*%
X158300000Y-74800000D03*
D12*
X158300000Y-72260000D03*
X158300000Y-69720000D03*
X158300000Y-67180000D03*
X158300000Y-64640000D03*
X158300000Y-62100000D03*
X158300000Y-59560000D03*
%TD*%
D13*
%TO.C,U3*%
X112050000Y-58175000D03*
X112050000Y-66175000D03*
%TD*%
D14*
%TO.C,H3*%
X156300000Y-53700000D03*
%TD*%
D15*
%TO.C,U4*%
X130680000Y-72410000D03*
D16*
X130680000Y-77770000D03*
D15*
X139320000Y-72410000D03*
D16*
X139320000Y-77770000D03*
%TD*%
D14*
%TO.C,H1*%
X113800000Y-76200000D03*
%TD*%
D17*
%TO.C,FB1*%
X152600000Y-68725000D03*
X150600000Y-68725000D03*
%TD*%
D18*
%TO.C,R3*%
X144900000Y-71400000D03*
X144900000Y-69400000D03*
%TD*%
D19*
%TO.C,U2*%
X125900000Y-58900000D03*
X125900000Y-59535000D03*
X125900000Y-60170000D03*
X125900000Y-60805000D03*
X125900000Y-61440000D03*
X125900000Y-62075000D03*
X125900000Y-62710000D03*
X125900000Y-63345000D03*
X120700000Y-63345000D03*
X120700000Y-62710000D03*
X120700000Y-62075000D03*
X120700000Y-61440000D03*
X120700000Y-60805000D03*
X120700000Y-60170000D03*
X120700000Y-59535000D03*
X120700000Y-58900000D03*
%TD*%
D20*
%TO.C,R1*%
X141500000Y-59325000D03*
X141500000Y-57500000D03*
%TD*%
D21*
%TO.C,C10*%
X152637500Y-66800000D03*
X150562500Y-66800000D03*
%TD*%
D22*
%TO.C,C9*%
X147100000Y-66037500D03*
X147100000Y-63962500D03*
%TD*%
D23*
%TO.C,C2*%
X115700000Y-56600000D03*
X117775000Y-56600000D03*
%TD*%
D22*
%TO.C,C3*%
X118600000Y-65037500D03*
X118600000Y-62962500D03*
%TD*%
D24*
%TO.C,C7*%
X127300000Y-54025000D03*
X127300000Y-56100000D03*
%TD*%
D18*
%TO.C,R1*%
X144900000Y-67500000D03*
X144900000Y-65500000D03*
%TD*%
D22*
%TO.C,C5*%
X129500000Y-57900000D03*
X129500000Y-55825000D03*
%TD*%
D23*
%TO.C,C12*%
X150562500Y-72700000D03*
X152637500Y-72700000D03*
%TD*%
%TO.C,C11*%
X150562500Y-70700000D03*
X152637500Y-70700000D03*
%TD*%
D25*
%TO.C,U1*%
X138370000Y-64175000D03*
X137735000Y-64175000D03*
X137100000Y-64175000D03*
X136465000Y-64175000D03*
X135830000Y-64175000D03*
X135195000Y-64175000D03*
X134560000Y-64175000D03*
X133925000Y-64175000D03*
X133925000Y-58900000D03*
X134560000Y-58900000D03*
X135195000Y-58900000D03*
X135830000Y-58900000D03*
X136465000Y-58900000D03*
X137100000Y-58900000D03*
X137735000Y-58900000D03*
X138370000Y-58900000D03*
%TD*%
D23*
%TO.C,C4*%
X115662500Y-54600000D03*
X117737500Y-54600000D03*
%TD*%
D26*
%TO.C,U7*%
X148650000Y-70375000D03*
X147700000Y-70375000D03*
X146750000Y-70375000D03*
X146750000Y-68100000D03*
X148650000Y-68100000D03*
%TD*%
D27*
%TO.C,R2*%
X118000000Y-52300000D03*
X120000000Y-52300000D03*
%TD*%
D23*
%TO.C,C6*%
X140562500Y-53200000D03*
X142637500Y-53200000D03*
%TD*%
D17*
%TO.C,D1*%
X115600000Y-52300000D03*
X113600000Y-52300000D03*
%TD*%
D22*
%TO.C,C1*%
X131500000Y-58900000D03*
X131500000Y-56825000D03*
%TD*%
M02*
