%TF.GenerationSoftware,KiCad,Pcbnew,8.0.5-dirty*%
%TF.CreationDate,2024-12-04T01:41:04-06:00*%
%TF.ProjectId,MicroSDV3,4d696372-6f53-4445-9633-2e6b69636164,rev?*%
%TF.SameCoordinates,Original*%
%TF.FileFunction,Paste,Top*%
%TF.FilePolarity,Positive*%
%FSLAX46Y46*%
G04 Gerber Fmt 4.6, Leading zero omitted, Abs format (unit mm)*
G04 Created by KiCad (PCBNEW 8.0.5-dirty) date 2024-12-04 01:41:04*
%MOMM*%
%LPD*%
G01*
G04 APERTURE LIST*
G04 Aperture macros list*
%AMRoundRect*
0 Rectangle with rounded corners*
0 $1 Rounding radius*
0 $2 $3 $4 $5 $6 $7 $8 $9 X,Y pos of 4 corners*
0 Add a 4 corners polygon primitive as box body*
4,1,4,$2,$3,$4,$5,$6,$7,$8,$9,$2,$3,0*
0 Add four circle primitives for the rounded corners*
1,1,$1+$1,$2,$3*
1,1,$1+$1,$4,$5*
1,1,$1+$1,$6,$7*
1,1,$1+$1,$8,$9*
0 Add four rect primitives between the rounded corners*
20,1,$1+$1,$2,$3,$4,$5,0*
20,1,$1+$1,$4,$5,$6,$7,0*
20,1,$1+$1,$6,$7,$8,$9,0*
20,1,$1+$1,$8,$9,$2,$3,0*%
G04 Aperture macros list end*
%ADD10R,0.350000X0.800000*%
%ADD11R,1.600000X0.700000*%
%ADD12R,1.500000X1.200000*%
%ADD13R,2.200000X1.200000*%
%ADD14R,1.500000X1.600000*%
%ADD15RoundRect,0.172500X0.172500X-0.232500X0.172500X0.232500X-0.172500X0.232500X-0.172500X-0.232500X0*%
%ADD16RoundRect,0.075000X0.075000X-0.247500X0.075000X0.247500X-0.075000X0.247500X-0.075000X-0.247500X0*%
%ADD17RoundRect,0.250000X0.337500X0.475000X-0.337500X0.475000X-0.337500X-0.475000X0.337500X-0.475000X0*%
%ADD18RoundRect,0.230000X-0.230000X-0.375000X0.230000X-0.375000X0.230000X0.375000X-0.230000X0.375000X0*%
%ADD19RoundRect,0.150000X-0.825000X-0.150000X0.825000X-0.150000X0.825000X0.150000X-0.825000X0.150000X0*%
%ADD20R,0.300000X0.700000*%
%ADD21R,1.000000X0.700000*%
%ADD22RoundRect,0.150000X-0.512500X-0.150000X0.512500X-0.150000X0.512500X0.150000X-0.512500X0.150000X0*%
%ADD23RoundRect,0.250000X-0.350000X-0.450000X0.350000X-0.450000X0.350000X0.450000X-0.350000X0.450000X0*%
%ADD24RoundRect,0.250000X-0.337500X-0.475000X0.337500X-0.475000X0.337500X0.475000X-0.337500X0.475000X0*%
G04 APERTURE END LIST*
D10*
%TO.C,USB_C3.0_UP1*%
X132025000Y-52450000D03*
X132525000Y-52450000D03*
X133025000Y-52450000D03*
X133525000Y-52450000D03*
X134025000Y-52450000D03*
X134525000Y-52450000D03*
X135025000Y-52450000D03*
X135525000Y-52450000D03*
X136025000Y-52450000D03*
X136525000Y-52450000D03*
X137025000Y-52450000D03*
X137525000Y-52450000D03*
X137675000Y-50850000D03*
X137175000Y-50850000D03*
X136675000Y-50850000D03*
X136175000Y-50850000D03*
X135675000Y-50850000D03*
X135175000Y-50850000D03*
X134675000Y-50850000D03*
X134175000Y-50850000D03*
X133675000Y-50850000D03*
X133175000Y-50850000D03*
X132675000Y-50850000D03*
X132175000Y-50850000D03*
%TD*%
D11*
%TO.C,U3*%
X123050000Y-65375000D03*
X123050000Y-64275000D03*
X123050000Y-63175000D03*
X123050000Y-62075000D03*
X123050000Y-60975000D03*
X123050000Y-59875000D03*
X123050000Y-58775000D03*
X123050000Y-57675000D03*
X123050000Y-56575000D03*
D12*
X122050000Y-55375000D03*
D13*
X112450000Y-55375000D03*
D14*
X122050000Y-69975000D03*
D13*
X112450000Y-70875000D03*
%TD*%
D15*
%TO.C,U5*%
X142100000Y-52900000D03*
X142950000Y-52900000D03*
D16*
X141875000Y-53927500D03*
X142525000Y-53927500D03*
X143175000Y-53927500D03*
X143175000Y-51872500D03*
X142525000Y-51872500D03*
X141875000Y-51872500D03*
%TD*%
D17*
%TO.C,R/C1*%
X147037500Y-51300000D03*
X144962500Y-51300000D03*
%TD*%
D18*
%TO.C,U8*%
X151255000Y-61455000D03*
X151255000Y-62955000D03*
X152395000Y-61455000D03*
X152395000Y-62955000D03*
D19*
X149350000Y-60300000D03*
X149350000Y-61570000D03*
X149350000Y-62840000D03*
X149350000Y-64110000D03*
X154300000Y-64110000D03*
X154300000Y-62840000D03*
X154300000Y-61570000D03*
X154300000Y-60300000D03*
%TD*%
D20*
%TO.C,U4*%
X132000000Y-72000000D03*
X132500000Y-72000000D03*
X133000000Y-72000000D03*
X133500000Y-72000000D03*
X134000000Y-72000000D03*
X134500000Y-72000000D03*
X135500000Y-72000000D03*
X136000000Y-72000000D03*
X136500000Y-72000000D03*
X137000000Y-72000000D03*
X137500000Y-72000000D03*
X138000000Y-72000000D03*
D21*
X138100000Y-73300000D03*
D20*
X137250000Y-73300000D03*
X136750000Y-73300000D03*
X136250000Y-73300000D03*
X135750000Y-73300000D03*
X135250000Y-73300000D03*
X134750000Y-73300000D03*
X134250000Y-73300000D03*
X133750000Y-73300000D03*
X133250000Y-73300000D03*
X132750000Y-73300000D03*
D21*
X131900000Y-73300000D03*
%TD*%
D22*
%TO.C,U6*%
X143400000Y-56000000D03*
X143400000Y-56950000D03*
X143400000Y-57900000D03*
X145675000Y-57900000D03*
X145675000Y-56950000D03*
X145675000Y-56000000D03*
%TD*%
D23*
%TO.C,R4*%
X140000000Y-62000000D03*
X142000000Y-62000000D03*
%TD*%
D24*
%TO.C,C8*%
X148262500Y-57700000D03*
X150337500Y-57700000D03*
%TD*%
M02*
