%TF.GenerationSoftware,KiCad,Pcbnew,8.0.5-dirty*%
%TF.CreationDate,2024-12-04T01:41:04-06:00*%
%TF.ProjectId,MicroSDV3,4d696372-6f53-4445-9633-2e6b69636164,rev?*%
%TF.SameCoordinates,Original*%
%TF.FileFunction,Copper,L2,Inr*%
%TF.FilePolarity,Positive*%
%FSLAX46Y46*%
G04 Gerber Fmt 4.6, Leading zero omitted, Abs format (unit mm)*
G04 Created by KiCad (PCBNEW 8.0.5-dirty) date 2024-12-04 01:41:04*
%MOMM*%
%LPD*%
G01*
G04 APERTURE LIST*
%TA.AperFunction,ComponentPad*%
%ADD10O,1.000000X2.000000*%
%TD*%
%TA.AperFunction,ComponentPad*%
%ADD11R,1.700000X1.700000*%
%TD*%
%TA.AperFunction,ComponentPad*%
%ADD12O,1.700000X1.700000*%
%TD*%
%TA.AperFunction,ComponentPad*%
%ADD13O,1.100000X2.100000*%
%TD*%
%TA.AperFunction,ComponentPad*%
%ADD14O,1.100000X2.600000*%
%TD*%
%TA.AperFunction,ViaPad*%
%ADD15C,0.800000*%
%TD*%
G04 APERTURE END LIST*
D10*
%TO.N,GND*%
%TO.C,USB_C3.0_UP1*%
X138525000Y-52450000D03*
X131225000Y-52450000D03*
%TD*%
D11*
%TO.N,EXTERN3*%
%TO.C,J2*%
X158300000Y-74800000D03*
D12*
%TO.N,EXTERN2*%
X158300000Y-72260000D03*
%TO.N,PROG*%
X158300000Y-69720000D03*
%TO.N,EXTERN1*%
X158300000Y-67180000D03*
%TO.N,VBUS*%
X158300000Y-64640000D03*
%TO.N,3.3V*%
X158300000Y-62100000D03*
%TO.N,GND*%
X158300000Y-59560000D03*
%TD*%
D13*
%TO.N,unconnected-(U4-SHIELD-PadS1)*%
%TO.C,U4*%
X130680000Y-72410000D03*
D14*
X130680000Y-77770000D03*
D13*
X139320000Y-72410000D03*
D14*
X139320000Y-77770000D03*
%TD*%
D15*
%TO.N,GND*%
X127300000Y-54025000D03*
X140000000Y-58450003D03*
X144300000Y-52900000D03*
X150562500Y-66800000D03*
X131600000Y-71100000D03*
X131500000Y-56825000D03*
X117637500Y-56700000D03*
X148262500Y-57700000D03*
X112450000Y-70875000D03*
X140000000Y-62000000D03*
X119300000Y-59700000D03*
X118600000Y-65037500D03*
X147100000Y-63962500D03*
X152637500Y-72700000D03*
X148900000Y-74200000D03*
X127000000Y-58400000D03*
X117737500Y-54600000D03*
X122050000Y-55375000D03*
X144900000Y-71400000D03*
X129500000Y-55825000D03*
X121200000Y-57400000D03*
X156100000Y-60100000D03*
X142525000Y-52900000D03*
X112450000Y-55375000D03*
X122050000Y-69975000D03*
X152637500Y-70700000D03*
X138400000Y-71000000D03*
%TO.N,3.3V*%
X122100000Y-62100000D03*
X150200000Y-59000000D03*
%TO.N,/D1-*%
X135500000Y-74875000D03*
X134780222Y-69176669D03*
%TO.N,/UPD-*%
X134700000Y-57000000D03*
%TO.N,/UPD+*%
X134900000Y-54500000D03*
%TO.N,/D1+*%
X134800000Y-70400000D03*
%TO.N,Net-(U2-CMD)*%
X129131341Y-61546241D03*
%TO.N,Net-(U2-D0)*%
X128469125Y-59769125D03*
%TO.N,Net-(U2-PMOS)*%
X127000000Y-63800000D03*
%TO.N,Net-(U2-CLK)*%
X129132802Y-60546239D03*
%TO.N,Net-(U2-D1)*%
X127762017Y-59062017D03*
%TO.N,Net-(U2-D2)*%
X127674044Y-63061305D03*
%TO.N,Net-(U2-D3)*%
X128479859Y-62304908D03*
%TO.N,VBUS*%
X140400000Y-54400000D03*
X140000000Y-50500000D03*
X152700000Y-50900000D03*
X117400000Y-61700000D03*
X140800000Y-51100000D03*
X125400000Y-51200000D03*
%TO.N,CC1*%
X134400000Y-55700000D03*
X143400000Y-56950000D03*
%TO.N,CC1_DOWN*%
X143400000Y-58600000D03*
X135200000Y-68200000D03*
%TO.N,CC1_PD*%
X141500000Y-55000000D03*
X144000000Y-54652500D03*
%TO.N,/B_RX-*%
X132100000Y-74400000D03*
X133550000Y-74350000D03*
%TD*%
%TA.AperFunction,Conductor*%
%TO.N,GND*%
G36*
X139442341Y-50019685D02*
G01*
X139488096Y-50072489D01*
X139498040Y-50141647D01*
X139477996Y-50189234D01*
X139479528Y-50190119D01*
X139475465Y-50197156D01*
X139414956Y-50343237D01*
X139414955Y-50343239D01*
X139394318Y-50499998D01*
X139394318Y-50500001D01*
X139414955Y-50656760D01*
X139414956Y-50656762D01*
X139450775Y-50743238D01*
X139475464Y-50802841D01*
X139571718Y-50928282D01*
X139697159Y-51024536D01*
X139843238Y-51085044D01*
X140000000Y-51105682D01*
X140068805Y-51096623D01*
X140137837Y-51107388D01*
X140190093Y-51153767D01*
X140207927Y-51203375D01*
X140214956Y-51256761D01*
X140214956Y-51256762D01*
X140256376Y-51356760D01*
X140275464Y-51402841D01*
X140371718Y-51528282D01*
X140497159Y-51624536D01*
X140643238Y-51685044D01*
X140721619Y-51695363D01*
X140799999Y-51705682D01*
X140800000Y-51705682D01*
X140800001Y-51705682D01*
X140852254Y-51698802D01*
X140956762Y-51685044D01*
X141102841Y-51624536D01*
X141228282Y-51528282D01*
X141324536Y-51402841D01*
X141385044Y-51256762D01*
X141405682Y-51100000D01*
X141405237Y-51096623D01*
X141385044Y-50943239D01*
X141385044Y-50943238D01*
X141367133Y-50899998D01*
X152094318Y-50899998D01*
X152094318Y-50900001D01*
X152114955Y-51056760D01*
X152114956Y-51056762D01*
X152174287Y-51200001D01*
X152175464Y-51202841D01*
X152271718Y-51328282D01*
X152397159Y-51424536D01*
X152543238Y-51485044D01*
X152621619Y-51495363D01*
X152699999Y-51505682D01*
X152700000Y-51505682D01*
X152700001Y-51505682D01*
X152752254Y-51498802D01*
X152856762Y-51485044D01*
X153002841Y-51424536D01*
X153128282Y-51328282D01*
X153224536Y-51202841D01*
X153285044Y-51056762D01*
X153305682Y-50900000D01*
X153285044Y-50743238D01*
X153224536Y-50597159D01*
X153128282Y-50471718D01*
X153002841Y-50375464D01*
X152987822Y-50369243D01*
X152856762Y-50314956D01*
X152856760Y-50314955D01*
X152700001Y-50294318D01*
X152699999Y-50294318D01*
X152543239Y-50314955D01*
X152543237Y-50314956D01*
X152397160Y-50375463D01*
X152271718Y-50471718D01*
X152175463Y-50597160D01*
X152114956Y-50743237D01*
X152114955Y-50743239D01*
X152094318Y-50899998D01*
X141367133Y-50899998D01*
X141324536Y-50797159D01*
X141228282Y-50671718D01*
X141102841Y-50575464D01*
X140998566Y-50532272D01*
X140956762Y-50514956D01*
X140956760Y-50514955D01*
X140800001Y-50494318D01*
X140799999Y-50494318D01*
X140731196Y-50503376D01*
X140662161Y-50492610D01*
X140609905Y-50446230D01*
X140592072Y-50396622D01*
X140589352Y-50375959D01*
X140585044Y-50343238D01*
X140524536Y-50197159D01*
X140524534Y-50197156D01*
X140520472Y-50190119D01*
X140522293Y-50189067D01*
X140501128Y-50134314D01*
X140515168Y-50065870D01*
X140563983Y-50015881D01*
X140624698Y-50000000D01*
X156999118Y-50000000D01*
X157000855Y-50000011D01*
X157162269Y-50002274D01*
X157174390Y-50003041D01*
X157478553Y-50037312D01*
X157495992Y-50039277D01*
X157509700Y-50041606D01*
X157824366Y-50113426D01*
X157837725Y-50117273D01*
X158142392Y-50223881D01*
X158155228Y-50229199D01*
X158333303Y-50314955D01*
X158446025Y-50369239D01*
X158458193Y-50375964D01*
X158660968Y-50503376D01*
X158731486Y-50547685D01*
X158742824Y-50555730D01*
X158995173Y-50756971D01*
X159005541Y-50766237D01*
X159233762Y-50994458D01*
X159243028Y-51004826D01*
X159444267Y-51257172D01*
X159452314Y-51268513D01*
X159624034Y-51541804D01*
X159630760Y-51553974D01*
X159770798Y-51844766D01*
X159776120Y-51857613D01*
X159882724Y-52162270D01*
X159886573Y-52175633D01*
X159958393Y-52490299D01*
X159960722Y-52504007D01*
X159996957Y-52825597D01*
X159997725Y-52837743D01*
X159999988Y-52999144D01*
X160000000Y-53000882D01*
X160000000Y-76999117D01*
X159999988Y-77000855D01*
X159997725Y-77162256D01*
X159996957Y-77174402D01*
X159960722Y-77495992D01*
X159958393Y-77509700D01*
X159886573Y-77824366D01*
X159882724Y-77837729D01*
X159776120Y-78142386D01*
X159770798Y-78155233D01*
X159630760Y-78446025D01*
X159624034Y-78458195D01*
X159452314Y-78731486D01*
X159444267Y-78742827D01*
X159243028Y-78995173D01*
X159233762Y-79005541D01*
X159005541Y-79233762D01*
X158995173Y-79243028D01*
X158742827Y-79444267D01*
X158731486Y-79452314D01*
X158458195Y-79624034D01*
X158446025Y-79630760D01*
X158155233Y-79770798D01*
X158142386Y-79776120D01*
X157837729Y-79882724D01*
X157824366Y-79886573D01*
X157509700Y-79958393D01*
X157495992Y-79960722D01*
X157174402Y-79996957D01*
X157162256Y-79997725D01*
X157000856Y-79999988D01*
X156999118Y-80000000D01*
X113000882Y-80000000D01*
X112999144Y-79999988D01*
X112837743Y-79997725D01*
X112825597Y-79996957D01*
X112504007Y-79960722D01*
X112490299Y-79958393D01*
X112175633Y-79886573D01*
X112162270Y-79882724D01*
X111857613Y-79776120D01*
X111844766Y-79770798D01*
X111553974Y-79630760D01*
X111541804Y-79624034D01*
X111268513Y-79452314D01*
X111257172Y-79444267D01*
X111004826Y-79243028D01*
X110994458Y-79233762D01*
X110766237Y-79005541D01*
X110756971Y-78995173D01*
X110555732Y-78742827D01*
X110547685Y-78731486D01*
X110461247Y-78593920D01*
X129929499Y-78593920D01*
X129958340Y-78738907D01*
X129958343Y-78738917D01*
X130014912Y-78875488D01*
X130014919Y-78875501D01*
X130097048Y-78998415D01*
X130097051Y-78998419D01*
X130201580Y-79102948D01*
X130201584Y-79102951D01*
X130324498Y-79185080D01*
X130324511Y-79185087D01*
X130442024Y-79233762D01*
X130461087Y-79241658D01*
X130461091Y-79241658D01*
X130461092Y-79241659D01*
X130606079Y-79270500D01*
X130606082Y-79270500D01*
X130753920Y-79270500D01*
X130851462Y-79251096D01*
X130898913Y-79241658D01*
X131035495Y-79185084D01*
X131158416Y-79102951D01*
X131262951Y-78998416D01*
X131345084Y-78875495D01*
X131401658Y-78738913D01*
X131430500Y-78593920D01*
X138569499Y-78593920D01*
X138598340Y-78738907D01*
X138598343Y-78738917D01*
X138654912Y-78875488D01*
X138654919Y-78875501D01*
X138737048Y-78998415D01*
X138737051Y-78998419D01*
X138841580Y-79102948D01*
X138841584Y-79102951D01*
X138964498Y-79185080D01*
X138964511Y-79185087D01*
X139082024Y-79233762D01*
X139101087Y-79241658D01*
X139101091Y-79241658D01*
X139101092Y-79241659D01*
X139246079Y-79270500D01*
X139246082Y-79270500D01*
X139393920Y-79270500D01*
X139491462Y-79251096D01*
X139538913Y-79241658D01*
X139675495Y-79185084D01*
X139798416Y-79102951D01*
X139902951Y-78998416D01*
X139985084Y-78875495D01*
X140041658Y-78738913D01*
X140070500Y-78593918D01*
X140070500Y-76946082D01*
X140070500Y-76946079D01*
X140041659Y-76801092D01*
X140041658Y-76801091D01*
X140041658Y-76801087D01*
X140041656Y-76801082D01*
X139985087Y-76664511D01*
X139985080Y-76664498D01*
X139902951Y-76541584D01*
X139902948Y-76541580D01*
X139798419Y-76437051D01*
X139798415Y-76437048D01*
X139675501Y-76354919D01*
X139675488Y-76354912D01*
X139538917Y-76298343D01*
X139538907Y-76298340D01*
X139393920Y-76269500D01*
X139393918Y-76269500D01*
X139246082Y-76269500D01*
X139246080Y-76269500D01*
X139101092Y-76298340D01*
X139101082Y-76298343D01*
X138964511Y-76354912D01*
X138964498Y-76354919D01*
X138841584Y-76437048D01*
X138841580Y-76437051D01*
X138737051Y-76541580D01*
X138737048Y-76541584D01*
X138654919Y-76664498D01*
X138654912Y-76664511D01*
X138598343Y-76801082D01*
X138598340Y-76801092D01*
X138569500Y-76946079D01*
X138569500Y-76946082D01*
X138569500Y-78593918D01*
X138569500Y-78593920D01*
X138569499Y-78593920D01*
X131430500Y-78593920D01*
X131430500Y-78593918D01*
X131430500Y-76946082D01*
X131430500Y-76946079D01*
X131401659Y-76801092D01*
X131401658Y-76801091D01*
X131401658Y-76801087D01*
X131401656Y-76801082D01*
X131345087Y-76664511D01*
X131345080Y-76664498D01*
X131262951Y-76541584D01*
X131262948Y-76541580D01*
X131158419Y-76437051D01*
X131158415Y-76437048D01*
X131035501Y-76354919D01*
X131035488Y-76354912D01*
X130898917Y-76298343D01*
X130898907Y-76298340D01*
X130753920Y-76269500D01*
X130753918Y-76269500D01*
X130606082Y-76269500D01*
X130606080Y-76269500D01*
X130461092Y-76298340D01*
X130461082Y-76298343D01*
X130324511Y-76354912D01*
X130324498Y-76354919D01*
X130201584Y-76437048D01*
X130201580Y-76437051D01*
X130097051Y-76541580D01*
X130097048Y-76541584D01*
X130014919Y-76664498D01*
X130014912Y-76664511D01*
X129958343Y-76801082D01*
X129958340Y-76801092D01*
X129929500Y-76946079D01*
X129929500Y-76946082D01*
X129929500Y-78593918D01*
X129929500Y-78593920D01*
X129929499Y-78593920D01*
X110461247Y-78593920D01*
X110375965Y-78458195D01*
X110369239Y-78446025D01*
X110229201Y-78155233D01*
X110223879Y-78142386D01*
X110117275Y-77837729D01*
X110113426Y-77824366D01*
X110041606Y-77509700D01*
X110039277Y-77495992D01*
X110021866Y-77341469D01*
X110003041Y-77174390D01*
X110002274Y-77162269D01*
X110000012Y-77000855D01*
X110000000Y-76999117D01*
X110000000Y-76086780D01*
X112072500Y-76086780D01*
X112072500Y-76313219D01*
X112072501Y-76313235D01*
X112102056Y-76537731D01*
X112102057Y-76537736D01*
X112102058Y-76537742D01*
X112131363Y-76647110D01*
X112160667Y-76756476D01*
X112247322Y-76965681D01*
X112247329Y-76965696D01*
X112360553Y-77161806D01*
X112498408Y-77341462D01*
X112498414Y-77341469D01*
X112658530Y-77501585D01*
X112658537Y-77501591D01*
X112838193Y-77639446D01*
X113034303Y-77752670D01*
X113034318Y-77752677D01*
X113142507Y-77797490D01*
X113243522Y-77839332D01*
X113462258Y-77897942D01*
X113686774Y-77927500D01*
X113686781Y-77927500D01*
X113913219Y-77927500D01*
X113913226Y-77927500D01*
X114137742Y-77897942D01*
X114356478Y-77839332D01*
X114565693Y-77752672D01*
X114761807Y-77639446D01*
X114941464Y-77501590D01*
X115101590Y-77341464D01*
X115239446Y-77161807D01*
X115352672Y-76965693D01*
X115439332Y-76756478D01*
X115497942Y-76537742D01*
X115527500Y-76313226D01*
X115527500Y-76086774D01*
X115497942Y-75862258D01*
X115439332Y-75643522D01*
X115363333Y-75460044D01*
X115352677Y-75434318D01*
X115352670Y-75434303D01*
X115239446Y-75238193D01*
X115101591Y-75058537D01*
X115101585Y-75058530D01*
X114941469Y-74898414D01*
X114941462Y-74898408D01*
X114761806Y-74760553D01*
X114565696Y-74647329D01*
X114565681Y-74647322D01*
X114356476Y-74560667D01*
X114247110Y-74531363D01*
X114137742Y-74502058D01*
X114137736Y-74502057D01*
X114137731Y-74502056D01*
X113913235Y-74472501D01*
X113913232Y-74472500D01*
X113913226Y-74472500D01*
X113686774Y-74472500D01*
X113686768Y-74472500D01*
X113686764Y-74472501D01*
X113462268Y-74502056D01*
X113462261Y-74502057D01*
X113462258Y-74502058D01*
X113416031Y-74514444D01*
X113243523Y-74560667D01*
X113034318Y-74647322D01*
X113034303Y-74647329D01*
X112838193Y-74760553D01*
X112658537Y-74898408D01*
X112658530Y-74898414D01*
X112498414Y-75058530D01*
X112498408Y-75058537D01*
X112360553Y-75238193D01*
X112247329Y-75434303D01*
X112247322Y-75434318D01*
X112160667Y-75643523D01*
X112102059Y-75862255D01*
X112102056Y-75862268D01*
X112072501Y-76086764D01*
X112072500Y-76086780D01*
X110000000Y-76086780D01*
X110000000Y-74399998D01*
X131494318Y-74399998D01*
X131494318Y-74400001D01*
X131514955Y-74556760D01*
X131514956Y-74556762D01*
X131575464Y-74702841D01*
X131671718Y-74828282D01*
X131797159Y-74924536D01*
X131943238Y-74985044D01*
X132021619Y-74995363D01*
X132099999Y-75005682D01*
X132100000Y-75005682D01*
X132100001Y-75005682D01*
X132152254Y-74998802D01*
X132256762Y-74985044D01*
X132402841Y-74924536D01*
X132528282Y-74828282D01*
X132624536Y-74702841D01*
X132685044Y-74556762D01*
X132705352Y-74402504D01*
X132714251Y-74382386D01*
X132707291Y-74367612D01*
X132935747Y-74367612D01*
X132950810Y-74399584D01*
X132951230Y-74402504D01*
X132964956Y-74506762D01*
X133025464Y-74652841D01*
X133121718Y-74778282D01*
X133247159Y-74874536D01*
X133393238Y-74935044D01*
X133471619Y-74945363D01*
X133549999Y-74955682D01*
X133550000Y-74955682D01*
X133550001Y-74955682D01*
X133602254Y-74948802D01*
X133706762Y-74935044D01*
X133851726Y-74874998D01*
X134894318Y-74874998D01*
X134894318Y-74875001D01*
X134914955Y-75031760D01*
X134914956Y-75031762D01*
X134975464Y-75177841D01*
X135071718Y-75303282D01*
X135197159Y-75399536D01*
X135343238Y-75460044D01*
X135421619Y-75470363D01*
X135499999Y-75480682D01*
X135500000Y-75480682D01*
X135500001Y-75480682D01*
X135552254Y-75473802D01*
X135656762Y-75460044D01*
X135802841Y-75399536D01*
X135928282Y-75303282D01*
X136024536Y-75177841D01*
X136085044Y-75031762D01*
X136098802Y-74927254D01*
X136105682Y-74875001D01*
X136105682Y-74874998D01*
X136085044Y-74718239D01*
X136085044Y-74718238D01*
X136024536Y-74572159D01*
X135928282Y-74446718D01*
X135802841Y-74350464D01*
X135801723Y-74350001D01*
X135656762Y-74289956D01*
X135656760Y-74289955D01*
X135500001Y-74269318D01*
X135499999Y-74269318D01*
X135343239Y-74289955D01*
X135343237Y-74289956D01*
X135197160Y-74350463D01*
X135071718Y-74446718D01*
X134975463Y-74572160D01*
X134914956Y-74718237D01*
X134914955Y-74718239D01*
X134894318Y-74874998D01*
X133851726Y-74874998D01*
X133852841Y-74874536D01*
X133978282Y-74778282D01*
X134074536Y-74652841D01*
X134135044Y-74506762D01*
X134155682Y-74350000D01*
X134135044Y-74193238D01*
X134074536Y-74047159D01*
X133984827Y-73930247D01*
X157249500Y-73930247D01*
X157249500Y-75669752D01*
X157261131Y-75728229D01*
X157261132Y-75728230D01*
X157305447Y-75794552D01*
X157371769Y-75838867D01*
X157371770Y-75838868D01*
X157430247Y-75850499D01*
X157430250Y-75850500D01*
X157430252Y-75850500D01*
X159169750Y-75850500D01*
X159169751Y-75850499D01*
X159184568Y-75847552D01*
X159228229Y-75838868D01*
X159228229Y-75838867D01*
X159228231Y-75838867D01*
X159294552Y-75794552D01*
X159338867Y-75728231D01*
X159338867Y-75728229D01*
X159338868Y-75728229D01*
X159350499Y-75669752D01*
X159350500Y-75669750D01*
X159350500Y-73930249D01*
X159350499Y-73930247D01*
X159338868Y-73871770D01*
X159338867Y-73871769D01*
X159294552Y-73805447D01*
X159228230Y-73761132D01*
X159228229Y-73761131D01*
X159169752Y-73749500D01*
X159169748Y-73749500D01*
X157430252Y-73749500D01*
X157430247Y-73749500D01*
X157371770Y-73761131D01*
X157371769Y-73761132D01*
X157305447Y-73805447D01*
X157261132Y-73871769D01*
X157261131Y-73871770D01*
X157249500Y-73930247D01*
X133984827Y-73930247D01*
X133978282Y-73921718D01*
X133852841Y-73825464D01*
X133827472Y-73814956D01*
X133706762Y-73764956D01*
X133706760Y-73764955D01*
X133550001Y-73744318D01*
X133549999Y-73744318D01*
X133393239Y-73764955D01*
X133393237Y-73764956D01*
X133247160Y-73825463D01*
X133121718Y-73921718D01*
X133025463Y-74047160D01*
X132964956Y-74193237D01*
X132964956Y-74193239D01*
X132944647Y-74347495D01*
X132935747Y-74367612D01*
X132707291Y-74367612D01*
X132699189Y-74350415D01*
X132698774Y-74347534D01*
X132685044Y-74243238D01*
X132624536Y-74097159D01*
X132528282Y-73971718D01*
X132402841Y-73875464D01*
X132393920Y-73871769D01*
X132256762Y-73814956D01*
X132256760Y-73814955D01*
X132100001Y-73794318D01*
X132099999Y-73794318D01*
X131943239Y-73814955D01*
X131943237Y-73814956D01*
X131797160Y-73875463D01*
X131671718Y-73971718D01*
X131575463Y-74097160D01*
X131514956Y-74243237D01*
X131514955Y-74243239D01*
X131494318Y-74399998D01*
X110000000Y-74399998D01*
X110000000Y-72983920D01*
X129929499Y-72983920D01*
X129958340Y-73128907D01*
X129958343Y-73128917D01*
X130014912Y-73265488D01*
X130014919Y-73265501D01*
X130097048Y-73388415D01*
X130097051Y-73388419D01*
X130201580Y-73492948D01*
X130201584Y-73492951D01*
X130324498Y-73575080D01*
X130324511Y-73575087D01*
X130461082Y-73631656D01*
X130461087Y-73631658D01*
X130461091Y-73631658D01*
X130461092Y-73631659D01*
X130606079Y-73660500D01*
X130606082Y-73660500D01*
X130753920Y-73660500D01*
X130851462Y-73641096D01*
X130898913Y-73631658D01*
X131035495Y-73575084D01*
X131158416Y-73492951D01*
X131262951Y-73388416D01*
X131345084Y-73265495D01*
X131401658Y-73128913D01*
X131430500Y-72983920D01*
X138569499Y-72983920D01*
X138598340Y-73128907D01*
X138598343Y-73128917D01*
X138654912Y-73265488D01*
X138654919Y-73265501D01*
X138737048Y-73388415D01*
X138737051Y-73388419D01*
X138841580Y-73492948D01*
X138841584Y-73492951D01*
X138964498Y-73575080D01*
X138964511Y-73575087D01*
X139101082Y-73631656D01*
X139101087Y-73631658D01*
X139101091Y-73631658D01*
X139101092Y-73631659D01*
X139246079Y-73660500D01*
X139246082Y-73660500D01*
X139393920Y-73660500D01*
X139491462Y-73641096D01*
X139538913Y-73631658D01*
X139675495Y-73575084D01*
X139798416Y-73492951D01*
X139902951Y-73388416D01*
X139985084Y-73265495D01*
X140041658Y-73128913D01*
X140070500Y-72983918D01*
X140070500Y-72260000D01*
X157244417Y-72260000D01*
X157264699Y-72465932D01*
X157264700Y-72465934D01*
X157324768Y-72663954D01*
X157422315Y-72846450D01*
X157422317Y-72846452D01*
X157553589Y-73006410D01*
X157650209Y-73085702D01*
X157713550Y-73137685D01*
X157896046Y-73235232D01*
X158094066Y-73295300D01*
X158094065Y-73295300D01*
X158112529Y-73297118D01*
X158300000Y-73315583D01*
X158505934Y-73295300D01*
X158703954Y-73235232D01*
X158886450Y-73137685D01*
X159046410Y-73006410D01*
X159177685Y-72846450D01*
X159275232Y-72663954D01*
X159335300Y-72465934D01*
X159355583Y-72260000D01*
X159335300Y-72054066D01*
X159275232Y-71856046D01*
X159177685Y-71673550D01*
X159079988Y-71554505D01*
X159046410Y-71513589D01*
X158886452Y-71382317D01*
X158886453Y-71382317D01*
X158886450Y-71382315D01*
X158703954Y-71284768D01*
X158505934Y-71224700D01*
X158505932Y-71224699D01*
X158505934Y-71224699D01*
X158300000Y-71204417D01*
X158094067Y-71224699D01*
X157896043Y-71284769D01*
X157785898Y-71343643D01*
X157713550Y-71382315D01*
X157713548Y-71382316D01*
X157713547Y-71382317D01*
X157553589Y-71513589D01*
X157422317Y-71673547D01*
X157324769Y-71856043D01*
X157264699Y-72054067D01*
X157244417Y-72260000D01*
X140070500Y-72260000D01*
X140070500Y-71836082D01*
X140070500Y-71836079D01*
X140041659Y-71691092D01*
X140041658Y-71691091D01*
X140041658Y-71691087D01*
X140034393Y-71673547D01*
X139985087Y-71554511D01*
X139985080Y-71554498D01*
X139902951Y-71431584D01*
X139902948Y-71431580D01*
X139798419Y-71327051D01*
X139798415Y-71327048D01*
X139675501Y-71244919D01*
X139675488Y-71244912D01*
X139538917Y-71188343D01*
X139538907Y-71188340D01*
X139393920Y-71159500D01*
X139393918Y-71159500D01*
X139246082Y-71159500D01*
X139246080Y-71159500D01*
X139101092Y-71188340D01*
X139101082Y-71188343D01*
X138964511Y-71244912D01*
X138964498Y-71244919D01*
X138841584Y-71327048D01*
X138841580Y-71327051D01*
X138737051Y-71431580D01*
X138737048Y-71431584D01*
X138654919Y-71554498D01*
X138654912Y-71554511D01*
X138598343Y-71691082D01*
X138598340Y-71691092D01*
X138569500Y-71836079D01*
X138569500Y-71836082D01*
X138569500Y-72983918D01*
X138569500Y-72983920D01*
X138569499Y-72983920D01*
X131430500Y-72983920D01*
X131430500Y-72983918D01*
X131430500Y-71836082D01*
X131430500Y-71836079D01*
X131401659Y-71691092D01*
X131401658Y-71691091D01*
X131401658Y-71691087D01*
X131394393Y-71673547D01*
X131345087Y-71554511D01*
X131345080Y-71554498D01*
X131262951Y-71431584D01*
X131262948Y-71431580D01*
X131158419Y-71327051D01*
X131158415Y-71327048D01*
X131035501Y-71244919D01*
X131035488Y-71244912D01*
X130898917Y-71188343D01*
X130898907Y-71188340D01*
X130753920Y-71159500D01*
X130753918Y-71159500D01*
X130606082Y-71159500D01*
X130606080Y-71159500D01*
X130461092Y-71188340D01*
X130461082Y-71188343D01*
X130324511Y-71244912D01*
X130324498Y-71244919D01*
X130201584Y-71327048D01*
X130201580Y-71327051D01*
X130097051Y-71431580D01*
X130097048Y-71431584D01*
X130014919Y-71554498D01*
X130014912Y-71554511D01*
X129958343Y-71691082D01*
X129958340Y-71691092D01*
X129929500Y-71836079D01*
X129929500Y-71836082D01*
X129929500Y-72983918D01*
X129929500Y-72983920D01*
X129929499Y-72983920D01*
X110000000Y-72983920D01*
X110000000Y-69176667D01*
X134174540Y-69176667D01*
X134174540Y-69176670D01*
X134195177Y-69333429D01*
X134195178Y-69333431D01*
X134255686Y-69479510D01*
X134351940Y-69604951D01*
X134472613Y-69697546D01*
X134513815Y-69753974D01*
X134517970Y-69823720D01*
X134483757Y-69884641D01*
X134472613Y-69894297D01*
X134371720Y-69971715D01*
X134275463Y-70097160D01*
X134214956Y-70243237D01*
X134214955Y-70243239D01*
X134194318Y-70399998D01*
X134194318Y-70400001D01*
X134214955Y-70556760D01*
X134214956Y-70556762D01*
X134275464Y-70702841D01*
X134371718Y-70828282D01*
X134497159Y-70924536D01*
X134643238Y-70985044D01*
X134721619Y-70995363D01*
X134799999Y-71005682D01*
X134800000Y-71005682D01*
X134800001Y-71005682D01*
X134852254Y-70998802D01*
X134956762Y-70985044D01*
X135102841Y-70924536D01*
X135228282Y-70828282D01*
X135324536Y-70702841D01*
X135385044Y-70556762D01*
X135405682Y-70400000D01*
X135385044Y-70243238D01*
X135324536Y-70097159D01*
X135228282Y-69971718D01*
X135107607Y-69879121D01*
X135066406Y-69822694D01*
X135062251Y-69752948D01*
X135080754Y-69720000D01*
X157244417Y-69720000D01*
X157264699Y-69925932D01*
X157264700Y-69925934D01*
X157324768Y-70123954D01*
X157422315Y-70306450D01*
X157422317Y-70306452D01*
X157553589Y-70466410D01*
X157650209Y-70545702D01*
X157713550Y-70597685D01*
X157896046Y-70695232D01*
X158094066Y-70755300D01*
X158094065Y-70755300D01*
X158112529Y-70757118D01*
X158300000Y-70775583D01*
X158505934Y-70755300D01*
X158703954Y-70695232D01*
X158886450Y-70597685D01*
X159046410Y-70466410D01*
X159177685Y-70306450D01*
X159275232Y-70123954D01*
X159335300Y-69925934D01*
X159355583Y-69720000D01*
X159335300Y-69514066D01*
X159275232Y-69316046D01*
X159177685Y-69133550D01*
X159084422Y-69019908D01*
X159046410Y-68973589D01*
X158886452Y-68842317D01*
X158886453Y-68842317D01*
X158886450Y-68842315D01*
X158703954Y-68744768D01*
X158505934Y-68684700D01*
X158505932Y-68684699D01*
X158505934Y-68684699D01*
X158300000Y-68664417D01*
X158094067Y-68684699D01*
X157896043Y-68744769D01*
X157794504Y-68799044D01*
X157713550Y-68842315D01*
X157713548Y-68842316D01*
X157713547Y-68842317D01*
X157553589Y-68973589D01*
X157422317Y-69133547D01*
X157324769Y-69316043D01*
X157264699Y-69514067D01*
X157244417Y-69720000D01*
X135080754Y-69720000D01*
X135096464Y-69692027D01*
X135107609Y-69682370D01*
X135208504Y-69604951D01*
X135304758Y-69479510D01*
X135365266Y-69333431D01*
X135385904Y-69176669D01*
X135365266Y-69019907D01*
X135328435Y-68930991D01*
X135320967Y-68861524D01*
X135352242Y-68799044D01*
X135395543Y-68768980D01*
X135502841Y-68724536D01*
X135628282Y-68628282D01*
X135724536Y-68502841D01*
X135785044Y-68356762D01*
X135805682Y-68200000D01*
X135785044Y-68043238D01*
X135724536Y-67897159D01*
X135628282Y-67771718D01*
X135502841Y-67675464D01*
X135356762Y-67614956D01*
X135356760Y-67614955D01*
X135200001Y-67594318D01*
X135199999Y-67594318D01*
X135043239Y-67614955D01*
X135043237Y-67614956D01*
X134897160Y-67675463D01*
X134771718Y-67771718D01*
X134675463Y-67897160D01*
X134614956Y-68043237D01*
X134614955Y-68043239D01*
X134594318Y-68199998D01*
X134594318Y-68200001D01*
X134614955Y-68356760D01*
X134614957Y-68356765D01*
X134651785Y-68445676D01*
X134659254Y-68515145D01*
X134627979Y-68577624D01*
X134584677Y-68607689D01*
X134477382Y-68652132D01*
X134351940Y-68748387D01*
X134255685Y-68873829D01*
X134195178Y-69019906D01*
X134195177Y-69019908D01*
X134174540Y-69176667D01*
X110000000Y-69176667D01*
X110000000Y-67180000D01*
X157244417Y-67180000D01*
X157264699Y-67385932D01*
X157264700Y-67385934D01*
X157324768Y-67583954D01*
X157422315Y-67766450D01*
X157456969Y-67808677D01*
X157553589Y-67926410D01*
X157650209Y-68005702D01*
X157713550Y-68057685D01*
X157896046Y-68155232D01*
X158094066Y-68215300D01*
X158094065Y-68215300D01*
X158112529Y-68217118D01*
X158300000Y-68235583D01*
X158505934Y-68215300D01*
X158703954Y-68155232D01*
X158886450Y-68057685D01*
X159046410Y-67926410D01*
X159177685Y-67766450D01*
X159275232Y-67583954D01*
X159335300Y-67385934D01*
X159355583Y-67180000D01*
X159335300Y-66974066D01*
X159275232Y-66776046D01*
X159177685Y-66593550D01*
X159125702Y-66530209D01*
X159046410Y-66433589D01*
X158886452Y-66302317D01*
X158886453Y-66302317D01*
X158886450Y-66302315D01*
X158703954Y-66204768D01*
X158505934Y-66144700D01*
X158505932Y-66144699D01*
X158505934Y-66144699D01*
X158300000Y-66124417D01*
X158094067Y-66144699D01*
X157896043Y-66204769D01*
X157785898Y-66263643D01*
X157713550Y-66302315D01*
X157713548Y-66302316D01*
X157713547Y-66302317D01*
X157553589Y-66433589D01*
X157422317Y-66593547D01*
X157324769Y-66776043D01*
X157324768Y-66776045D01*
X157324768Y-66776046D01*
X157324058Y-66778386D01*
X157264699Y-66974067D01*
X157244417Y-67180000D01*
X110000000Y-67180000D01*
X110000000Y-66236805D01*
X111422499Y-66236805D01*
X111446613Y-66358029D01*
X111446616Y-66358039D01*
X111493913Y-66472226D01*
X111493920Y-66472239D01*
X111562588Y-66575007D01*
X111562591Y-66575011D01*
X111649988Y-66662408D01*
X111649992Y-66662411D01*
X111752760Y-66731079D01*
X111752773Y-66731086D01*
X111861311Y-66776043D01*
X111866965Y-66778385D01*
X111866969Y-66778385D01*
X111866970Y-66778386D01*
X111988194Y-66802500D01*
X111988197Y-66802500D01*
X112111805Y-66802500D01*
X112193361Y-66786276D01*
X112233035Y-66778385D01*
X112347233Y-66731083D01*
X112450008Y-66662411D01*
X112537411Y-66575008D01*
X112606083Y-66472233D01*
X112653385Y-66358035D01*
X112677500Y-66236803D01*
X112677500Y-66113197D01*
X112677500Y-66113194D01*
X112653386Y-65991970D01*
X112653385Y-65991969D01*
X112653385Y-65991965D01*
X112653383Y-65991960D01*
X112606086Y-65877773D01*
X112606079Y-65877760D01*
X112537411Y-65774992D01*
X112537408Y-65774988D01*
X112450011Y-65687591D01*
X112450007Y-65687588D01*
X112347239Y-65618920D01*
X112347226Y-65618913D01*
X112233039Y-65571616D01*
X112233029Y-65571613D01*
X112111805Y-65547500D01*
X112111803Y-65547500D01*
X111988197Y-65547500D01*
X111988195Y-65547500D01*
X111866970Y-65571613D01*
X111866960Y-65571616D01*
X111752773Y-65618913D01*
X111752760Y-65618920D01*
X111649992Y-65687588D01*
X111649988Y-65687591D01*
X111562591Y-65774988D01*
X111562588Y-65774992D01*
X111493920Y-65877760D01*
X111493913Y-65877773D01*
X111446616Y-65991960D01*
X111446613Y-65991970D01*
X111422500Y-66113194D01*
X111422500Y-66113197D01*
X111422500Y-66236803D01*
X111422500Y-66236805D01*
X111422499Y-66236805D01*
X110000000Y-66236805D01*
X110000000Y-64640000D01*
X157244417Y-64640000D01*
X157264699Y-64845932D01*
X157264700Y-64845934D01*
X157324768Y-65043954D01*
X157422315Y-65226450D01*
X157422317Y-65226452D01*
X157553589Y-65386410D01*
X157650209Y-65465702D01*
X157713550Y-65517685D01*
X157896046Y-65615232D01*
X158094066Y-65675300D01*
X158094065Y-65675300D01*
X158112529Y-65677118D01*
X158300000Y-65695583D01*
X158505934Y-65675300D01*
X158703954Y-65615232D01*
X158886450Y-65517685D01*
X159046410Y-65386410D01*
X159177685Y-65226450D01*
X159275232Y-65043954D01*
X159335300Y-64845934D01*
X159355583Y-64640000D01*
X159335300Y-64434066D01*
X159275232Y-64236046D01*
X159177685Y-64053550D01*
X159098252Y-63956760D01*
X159046410Y-63893589D01*
X158928677Y-63796969D01*
X158886450Y-63762315D01*
X158716554Y-63671502D01*
X158703956Y-63664769D01*
X158703955Y-63664768D01*
X158703954Y-63664768D01*
X158505934Y-63604700D01*
X158505932Y-63604699D01*
X158505934Y-63604699D01*
X158300000Y-63584417D01*
X158094067Y-63604699D01*
X157967018Y-63643239D01*
X157905455Y-63661914D01*
X157896043Y-63664769D01*
X157785898Y-63723643D01*
X157713550Y-63762315D01*
X157713548Y-63762316D01*
X157713547Y-63762317D01*
X157553589Y-63893589D01*
X157422317Y-64053547D01*
X157324769Y-64236043D01*
X157264699Y-64434067D01*
X157244417Y-64640000D01*
X110000000Y-64640000D01*
X110000000Y-63799998D01*
X126394318Y-63799998D01*
X126394318Y-63800001D01*
X126414955Y-63956760D01*
X126414956Y-63956762D01*
X126475464Y-64102841D01*
X126571718Y-64228282D01*
X126697159Y-64324536D01*
X126843238Y-64385044D01*
X126921619Y-64395363D01*
X126999999Y-64405682D01*
X127000000Y-64405682D01*
X127000001Y-64405682D01*
X127052254Y-64398802D01*
X127156762Y-64385044D01*
X127302841Y-64324536D01*
X127428282Y-64228282D01*
X127524536Y-64102841D01*
X127585044Y-63956762D01*
X127605682Y-63800000D01*
X127605682Y-63799998D01*
X127605682Y-63791872D01*
X127607251Y-63791872D01*
X127616577Y-63732018D01*
X127662950Y-63679756D01*
X127712568Y-63661915D01*
X127830806Y-63646349D01*
X127976885Y-63585841D01*
X128102326Y-63489587D01*
X128198580Y-63364146D01*
X128259088Y-63218067D01*
X128272846Y-63113559D01*
X128279726Y-63061306D01*
X128279726Y-63061304D01*
X128277097Y-63041335D01*
X128287863Y-62972300D01*
X128334242Y-62920044D01*
X128401511Y-62901159D01*
X128416202Y-62902209D01*
X128479859Y-62910590D01*
X128636621Y-62889952D01*
X128782700Y-62829444D01*
X128908141Y-62733190D01*
X129004395Y-62607749D01*
X129064903Y-62461670D01*
X129085541Y-62304908D01*
X129082708Y-62283394D01*
X129093472Y-62214363D01*
X129139850Y-62162106D01*
X129189460Y-62144271D01*
X129288103Y-62131285D01*
X129434182Y-62070777D01*
X129559623Y-61974523D01*
X129655877Y-61849082D01*
X129716385Y-61703003D01*
X129737023Y-61546241D01*
X129716385Y-61389479D01*
X129655877Y-61243400D01*
X129655876Y-61243399D01*
X129655876Y-61243398D01*
X129564848Y-61124769D01*
X129563243Y-61122676D01*
X129538049Y-61057510D01*
X129552087Y-60989065D01*
X129563239Y-60971711D01*
X129657338Y-60849080D01*
X129717846Y-60703001D01*
X129738484Y-60546239D01*
X129717846Y-60389477D01*
X129657338Y-60243398D01*
X129561084Y-60117957D01*
X129435643Y-60021703D01*
X129289564Y-59961195D01*
X129249506Y-59955921D01*
X129176548Y-59946316D01*
X129112652Y-59918049D01*
X129074181Y-59859725D01*
X129069795Y-59807193D01*
X129074807Y-59769125D01*
X129072772Y-59753670D01*
X129054169Y-59612364D01*
X129054169Y-59612363D01*
X128993661Y-59466284D01*
X128897407Y-59340843D01*
X128771966Y-59244589D01*
X128625887Y-59184081D01*
X128585926Y-59178820D01*
X128473832Y-59164062D01*
X128409936Y-59135795D01*
X128371465Y-59077471D01*
X128367079Y-59057308D01*
X128347061Y-58905256D01*
X128347061Y-58905255D01*
X128286553Y-58759176D01*
X128190299Y-58633735D01*
X128146332Y-58599998D01*
X142794318Y-58599998D01*
X142794318Y-58600001D01*
X142814955Y-58756760D01*
X142814956Y-58756762D01*
X142850775Y-58843238D01*
X142875464Y-58902841D01*
X142971718Y-59028282D01*
X143097159Y-59124536D01*
X143243238Y-59185044D01*
X143321619Y-59195363D01*
X143399999Y-59205682D01*
X143400000Y-59205682D01*
X143400001Y-59205682D01*
X143452254Y-59198802D01*
X143556762Y-59185044D01*
X143702841Y-59124536D01*
X143828282Y-59028282D01*
X143849985Y-58999998D01*
X149594318Y-58999998D01*
X149594318Y-59000001D01*
X149614955Y-59156760D01*
X149614956Y-59156762D01*
X149675464Y-59302841D01*
X149771718Y-59428282D01*
X149897159Y-59524536D01*
X150043238Y-59585044D01*
X150121619Y-59595363D01*
X150199999Y-59605682D01*
X150200000Y-59605682D01*
X150200001Y-59605682D01*
X150252254Y-59598802D01*
X150356762Y-59585044D01*
X150502841Y-59524536D01*
X150628282Y-59428282D01*
X150719043Y-59309999D01*
X156969364Y-59309999D01*
X156969364Y-59310000D01*
X157866988Y-59310000D01*
X157834075Y-59367007D01*
X157800000Y-59494174D01*
X157800000Y-59625826D01*
X157834075Y-59752993D01*
X157866988Y-59810000D01*
X156969364Y-59810000D01*
X157026567Y-60023486D01*
X157026570Y-60023492D01*
X157126399Y-60237578D01*
X157261894Y-60431082D01*
X157428917Y-60598105D01*
X157622421Y-60733600D01*
X157836507Y-60833429D01*
X157836516Y-60833433D01*
X157958649Y-60866158D01*
X158018310Y-60902523D01*
X158048839Y-60965369D01*
X158040545Y-61034745D01*
X157996059Y-61088623D01*
X157962552Y-61104593D01*
X157896046Y-61124767D01*
X157801203Y-61175463D01*
X157713550Y-61222315D01*
X157713548Y-61222316D01*
X157713547Y-61222317D01*
X157553589Y-61353589D01*
X157438098Y-61494318D01*
X157422315Y-61513550D01*
X157406446Y-61543239D01*
X157324769Y-61696043D01*
X157324768Y-61696045D01*
X157324768Y-61696046D01*
X157321063Y-61708259D01*
X157264699Y-61894067D01*
X157244417Y-62100000D01*
X157264699Y-62305932D01*
X157264700Y-62305934D01*
X157324768Y-62503954D01*
X157422315Y-62686450D01*
X157422317Y-62686452D01*
X157553589Y-62846410D01*
X157624427Y-62904544D01*
X157713550Y-62977685D01*
X157896046Y-63075232D01*
X158094066Y-63135300D01*
X158094065Y-63135300D01*
X158112529Y-63137118D01*
X158300000Y-63155583D01*
X158505934Y-63135300D01*
X158703954Y-63075232D01*
X158886450Y-62977685D01*
X159046410Y-62846410D01*
X159177685Y-62686450D01*
X159275232Y-62503954D01*
X159335300Y-62305934D01*
X159355583Y-62100000D01*
X159335300Y-61894066D01*
X159275232Y-61696046D01*
X159177685Y-61513550D01*
X159082166Y-61397159D01*
X159046410Y-61353589D01*
X158886452Y-61222317D01*
X158886453Y-61222317D01*
X158886450Y-61222315D01*
X158703954Y-61124768D01*
X158637447Y-61104593D01*
X158579009Y-61066296D01*
X158550553Y-61002484D01*
X158561113Y-60933417D01*
X158607337Y-60881023D01*
X158641350Y-60866158D01*
X158763483Y-60833433D01*
X158763492Y-60833429D01*
X158977578Y-60733600D01*
X159171082Y-60598105D01*
X159338105Y-60431082D01*
X159473600Y-60237578D01*
X159573429Y-60023492D01*
X159573432Y-60023486D01*
X159630636Y-59810000D01*
X158733012Y-59810000D01*
X158765925Y-59752993D01*
X158800000Y-59625826D01*
X158800000Y-59494174D01*
X158765925Y-59367007D01*
X158733012Y-59310000D01*
X159630636Y-59310000D01*
X159630635Y-59309999D01*
X159573432Y-59096513D01*
X159573429Y-59096507D01*
X159473600Y-58882422D01*
X159473599Y-58882420D01*
X159338113Y-58688926D01*
X159338108Y-58688920D01*
X159171082Y-58521894D01*
X158977578Y-58386399D01*
X158763492Y-58286570D01*
X158763486Y-58286567D01*
X158550000Y-58229364D01*
X158550000Y-59126988D01*
X158492993Y-59094075D01*
X158365826Y-59060000D01*
X158234174Y-59060000D01*
X158107007Y-59094075D01*
X158050000Y-59126988D01*
X158050000Y-58229364D01*
X158049999Y-58229364D01*
X157836513Y-58286567D01*
X157836507Y-58286570D01*
X157622422Y-58386399D01*
X157622420Y-58386400D01*
X157428926Y-58521886D01*
X157428920Y-58521891D01*
X157261891Y-58688920D01*
X157261886Y-58688926D01*
X157126400Y-58882420D01*
X157126399Y-58882422D01*
X157026570Y-59096507D01*
X157026567Y-59096513D01*
X156969364Y-59309999D01*
X150719043Y-59309999D01*
X150724536Y-59302841D01*
X150785044Y-59156762D01*
X150805682Y-59000000D01*
X150785044Y-58843238D01*
X150724536Y-58697159D01*
X150628282Y-58571718D01*
X150502841Y-58475464D01*
X150495055Y-58472239D01*
X150356762Y-58414956D01*
X150356760Y-58414955D01*
X150200001Y-58394318D01*
X150199999Y-58394318D01*
X150043239Y-58414955D01*
X150043237Y-58414956D01*
X149897160Y-58475463D01*
X149771718Y-58571718D01*
X149675463Y-58697160D01*
X149614956Y-58843237D01*
X149614955Y-58843239D01*
X149594318Y-58999998D01*
X143849985Y-58999998D01*
X143924536Y-58902841D01*
X143985044Y-58756762D01*
X144005682Y-58600000D01*
X143985044Y-58443238D01*
X143924536Y-58297159D01*
X143828282Y-58171718D01*
X143702841Y-58075464D01*
X143556762Y-58014956D01*
X143556760Y-58014955D01*
X143400001Y-57994318D01*
X143399999Y-57994318D01*
X143243239Y-58014955D01*
X143243237Y-58014956D01*
X143097160Y-58075463D01*
X142971718Y-58171718D01*
X142875463Y-58297160D01*
X142814956Y-58443237D01*
X142814955Y-58443239D01*
X142794318Y-58599998D01*
X128146332Y-58599998D01*
X128064858Y-58537481D01*
X128027220Y-58521891D01*
X127918779Y-58476973D01*
X127918777Y-58476972D01*
X127762018Y-58456335D01*
X127762016Y-58456335D01*
X127605256Y-58476972D01*
X127605254Y-58476973D01*
X127459177Y-58537480D01*
X127333735Y-58633735D01*
X127237480Y-58759177D01*
X127176973Y-58905254D01*
X127176972Y-58905256D01*
X127156335Y-59062015D01*
X127156335Y-59062018D01*
X127176972Y-59218777D01*
X127176973Y-59218779D01*
X127237481Y-59364858D01*
X127333735Y-59490299D01*
X127459176Y-59586553D01*
X127605255Y-59647061D01*
X127757308Y-59667079D01*
X127821205Y-59695345D01*
X127859676Y-59753670D01*
X127864062Y-59773832D01*
X127884081Y-59925886D01*
X127884081Y-59925887D01*
X127939632Y-60060000D01*
X127944589Y-60071966D01*
X128040843Y-60197407D01*
X128166284Y-60293661D01*
X128312363Y-60354169D01*
X128425378Y-60369047D01*
X128489273Y-60397313D01*
X128527745Y-60455637D01*
X128532131Y-60508170D01*
X128527120Y-60546236D01*
X128527120Y-60546240D01*
X128547757Y-60702999D01*
X128547758Y-60703001D01*
X128608266Y-60849080D01*
X128700900Y-60969804D01*
X128726093Y-61034969D01*
X128712055Y-61103414D01*
X128700899Y-61120773D01*
X128606805Y-61243398D01*
X128546297Y-61389478D01*
X128546296Y-61389480D01*
X128525659Y-61546239D01*
X128525659Y-61546242D01*
X128528491Y-61567753D01*
X128517725Y-61636788D01*
X128471346Y-61689044D01*
X128421738Y-61706877D01*
X128338091Y-61717889D01*
X128323097Y-61719864D01*
X128323096Y-61719864D01*
X128177019Y-61780371D01*
X128051577Y-61876626D01*
X127955322Y-62002068D01*
X127894815Y-62148145D01*
X127894814Y-62148147D01*
X127876792Y-62285043D01*
X127874177Y-62304908D01*
X127874279Y-62305682D01*
X127876806Y-62324880D01*
X127866038Y-62393915D01*
X127819656Y-62446170D01*
X127752387Y-62465053D01*
X127737683Y-62464001D01*
X127674044Y-62455623D01*
X127674043Y-62455623D01*
X127517283Y-62476260D01*
X127517281Y-62476261D01*
X127371204Y-62536768D01*
X127245762Y-62633023D01*
X127149507Y-62758465D01*
X127089000Y-62904542D01*
X127088999Y-62904544D01*
X127068362Y-63061303D01*
X127068362Y-63069432D01*
X127066796Y-63069432D01*
X127057459Y-63129302D01*
X127011078Y-63181557D01*
X126961472Y-63199390D01*
X126843238Y-63214956D01*
X126843237Y-63214956D01*
X126697160Y-63275463D01*
X126571718Y-63371718D01*
X126475463Y-63497160D01*
X126414956Y-63643237D01*
X126414955Y-63643239D01*
X126394318Y-63799998D01*
X110000000Y-63799998D01*
X110000000Y-61699998D01*
X116794318Y-61699998D01*
X116794318Y-61700001D01*
X116814955Y-61856760D01*
X116814956Y-61856762D01*
X116850775Y-61943238D01*
X116875464Y-62002841D01*
X116971718Y-62128282D01*
X117097159Y-62224536D01*
X117243238Y-62285044D01*
X117321619Y-62295363D01*
X117399999Y-62305682D01*
X117400000Y-62305682D01*
X117400001Y-62305682D01*
X117452254Y-62298802D01*
X117556762Y-62285044D01*
X117702841Y-62224536D01*
X117828282Y-62128282D01*
X117849985Y-62099998D01*
X121494318Y-62099998D01*
X121494318Y-62100001D01*
X121514955Y-62256760D01*
X121514956Y-62256762D01*
X121575464Y-62402841D01*
X121671718Y-62528282D01*
X121797159Y-62624536D01*
X121943238Y-62685044D01*
X122021619Y-62695363D01*
X122099999Y-62705682D01*
X122100000Y-62705682D01*
X122100001Y-62705682D01*
X122152254Y-62698802D01*
X122256762Y-62685044D01*
X122402841Y-62624536D01*
X122528282Y-62528282D01*
X122624536Y-62402841D01*
X122685044Y-62256762D01*
X122699343Y-62148147D01*
X122705682Y-62100001D01*
X122705682Y-62099998D01*
X122685044Y-61943239D01*
X122685044Y-61943238D01*
X122624536Y-61797159D01*
X122528282Y-61671718D01*
X122402841Y-61575464D01*
X122256762Y-61514956D01*
X122256760Y-61514955D01*
X122100001Y-61494318D01*
X122099999Y-61494318D01*
X121943239Y-61514955D01*
X121943237Y-61514956D01*
X121797160Y-61575463D01*
X121671718Y-61671718D01*
X121575463Y-61797160D01*
X121514956Y-61943237D01*
X121514955Y-61943239D01*
X121494318Y-62099998D01*
X117849985Y-62099998D01*
X117924536Y-62002841D01*
X117985044Y-61856762D01*
X118005682Y-61700000D01*
X118005161Y-61696046D01*
X117985044Y-61543239D01*
X117985044Y-61543238D01*
X117924536Y-61397159D01*
X117828282Y-61271718D01*
X117702841Y-61175464D01*
X117556762Y-61114956D01*
X117556760Y-61114955D01*
X117400001Y-61094318D01*
X117399999Y-61094318D01*
X117243239Y-61114955D01*
X117243237Y-61114956D01*
X117097160Y-61175463D01*
X116971718Y-61271718D01*
X116875463Y-61397160D01*
X116814956Y-61543237D01*
X116814955Y-61543239D01*
X116794318Y-61699998D01*
X110000000Y-61699998D01*
X110000000Y-58236805D01*
X111422499Y-58236805D01*
X111446613Y-58358029D01*
X111446616Y-58358039D01*
X111493913Y-58472226D01*
X111493920Y-58472239D01*
X111562588Y-58575007D01*
X111562591Y-58575011D01*
X111649988Y-58662408D01*
X111649992Y-58662411D01*
X111752760Y-58731079D01*
X111752773Y-58731086D01*
X111820592Y-58759177D01*
X111866965Y-58778385D01*
X111866969Y-58778385D01*
X111866970Y-58778386D01*
X111988194Y-58802500D01*
X111988197Y-58802500D01*
X112111805Y-58802500D01*
X112193361Y-58786276D01*
X112233035Y-58778385D01*
X112347233Y-58731083D01*
X112450008Y-58662411D01*
X112537411Y-58575008D01*
X112606083Y-58472233D01*
X112653385Y-58358035D01*
X112677500Y-58236803D01*
X112677500Y-58113197D01*
X112677500Y-58113194D01*
X112653386Y-57991970D01*
X112653385Y-57991969D01*
X112653385Y-57991965D01*
X112653383Y-57991960D01*
X112606086Y-57877773D01*
X112606079Y-57877760D01*
X112537411Y-57774992D01*
X112537408Y-57774988D01*
X112450011Y-57687591D01*
X112450007Y-57687588D01*
X112347239Y-57618920D01*
X112347226Y-57618913D01*
X112233039Y-57571616D01*
X112233029Y-57571613D01*
X112111805Y-57547500D01*
X112111803Y-57547500D01*
X111988197Y-57547500D01*
X111988195Y-57547500D01*
X111866970Y-57571613D01*
X111866960Y-57571616D01*
X111752773Y-57618913D01*
X111752760Y-57618920D01*
X111649992Y-57687588D01*
X111649988Y-57687591D01*
X111562591Y-57774988D01*
X111562588Y-57774992D01*
X111493920Y-57877760D01*
X111493913Y-57877773D01*
X111446616Y-57991960D01*
X111446613Y-57991970D01*
X111422500Y-58113194D01*
X111422500Y-58113197D01*
X111422500Y-58236803D01*
X111422500Y-58236805D01*
X111422499Y-58236805D01*
X110000000Y-58236805D01*
X110000000Y-55699998D01*
X133794318Y-55699998D01*
X133794318Y-55700001D01*
X133814955Y-55856760D01*
X133814956Y-55856762D01*
X133875464Y-56002841D01*
X133971718Y-56128282D01*
X134097159Y-56224536D01*
X134243238Y-56285044D01*
X134289634Y-56291152D01*
X134353531Y-56319418D01*
X134392002Y-56377743D01*
X134392833Y-56447608D01*
X134355761Y-56506831D01*
X134348936Y-56512466D01*
X134271720Y-56571716D01*
X134271719Y-56571717D01*
X134271718Y-56571718D01*
X134207548Y-56655345D01*
X134175463Y-56697160D01*
X134114956Y-56843237D01*
X134114955Y-56843239D01*
X134094318Y-56999998D01*
X134094318Y-57000001D01*
X134114955Y-57156760D01*
X134114956Y-57156762D01*
X134175464Y-57302841D01*
X134271718Y-57428282D01*
X134397159Y-57524536D01*
X134543238Y-57585044D01*
X134621619Y-57595363D01*
X134699999Y-57605682D01*
X134700000Y-57605682D01*
X134700001Y-57605682D01*
X134752254Y-57598802D01*
X134856762Y-57585044D01*
X135002841Y-57524536D01*
X135128282Y-57428282D01*
X135224536Y-57302841D01*
X135285044Y-57156762D01*
X135305682Y-57000000D01*
X135299099Y-56950000D01*
X135299099Y-56949998D01*
X142794318Y-56949998D01*
X142794318Y-56950001D01*
X142814955Y-57106760D01*
X142814956Y-57106762D01*
X142875464Y-57252841D01*
X142971718Y-57378282D01*
X143097159Y-57474536D01*
X143243238Y-57535044D01*
X143321619Y-57545363D01*
X143399999Y-57555682D01*
X143400000Y-57555682D01*
X143400001Y-57555682D01*
X143462149Y-57547500D01*
X143556762Y-57535044D01*
X143702841Y-57474536D01*
X143828282Y-57378282D01*
X143924536Y-57252841D01*
X143985044Y-57106762D01*
X144005682Y-56950000D01*
X143985044Y-56793238D01*
X143924536Y-56647159D01*
X143828282Y-56521718D01*
X143702841Y-56425464D01*
X143677472Y-56414956D01*
X143556762Y-56364956D01*
X143556760Y-56364955D01*
X143400001Y-56344318D01*
X143399999Y-56344318D01*
X143243239Y-56364955D01*
X143243237Y-56364956D01*
X143097160Y-56425463D01*
X142971718Y-56521718D01*
X142875463Y-56647160D01*
X142814956Y-56793237D01*
X142814955Y-56793239D01*
X142794318Y-56949998D01*
X135299099Y-56949998D01*
X135285044Y-56843239D01*
X135285044Y-56843238D01*
X135224536Y-56697159D01*
X135128282Y-56571718D01*
X135002841Y-56475464D01*
X134856762Y-56414956D01*
X134846902Y-56413658D01*
X134810363Y-56408847D01*
X134746467Y-56380579D01*
X134707996Y-56322254D01*
X134707166Y-56252390D01*
X134744239Y-56193167D01*
X134751041Y-56187550D01*
X134828282Y-56128282D01*
X134924536Y-56002841D01*
X134985044Y-55856762D01*
X135005682Y-55700000D01*
X134985044Y-55543238D01*
X134924536Y-55397159D01*
X134924535Y-55397158D01*
X134924535Y-55397157D01*
X134852163Y-55302841D01*
X134849893Y-55299882D01*
X134824699Y-55234715D01*
X134838737Y-55166270D01*
X134887551Y-55116280D01*
X134932083Y-55101458D01*
X135056762Y-55085044D01*
X135202841Y-55024536D01*
X135328282Y-54928282D01*
X135424536Y-54802841D01*
X135485044Y-54656762D01*
X135505682Y-54500000D01*
X135501165Y-54465693D01*
X135492516Y-54399998D01*
X139794318Y-54399998D01*
X139794318Y-54400001D01*
X139814955Y-54556760D01*
X139814956Y-54556762D01*
X139856376Y-54656760D01*
X139875464Y-54702841D01*
X139971718Y-54828282D01*
X140097159Y-54924536D01*
X140243238Y-54985044D01*
X140321619Y-54995363D01*
X140399999Y-55005682D01*
X140400000Y-55005682D01*
X140400001Y-55005682D01*
X140452254Y-54998802D01*
X140556762Y-54985044D01*
X140702841Y-54924536D01*
X140702845Y-54924532D01*
X140709881Y-54920472D01*
X140711510Y-54923293D01*
X140762425Y-54903574D01*
X140830878Y-54917569D01*
X140880899Y-54966351D01*
X140895759Y-55010951D01*
X140914956Y-55156760D01*
X140914956Y-55156762D01*
X140956965Y-55258182D01*
X140975464Y-55302841D01*
X141071718Y-55428282D01*
X141197159Y-55524536D01*
X141343238Y-55585044D01*
X141421619Y-55595363D01*
X141499999Y-55605682D01*
X141500000Y-55605682D01*
X141500001Y-55605682D01*
X141552254Y-55598802D01*
X141656762Y-55585044D01*
X141802841Y-55524536D01*
X141928282Y-55428282D01*
X142024536Y-55302841D01*
X142085044Y-55156762D01*
X142105682Y-55000000D01*
X142085044Y-54843238D01*
X142024536Y-54697159D01*
X141990267Y-54652498D01*
X143394318Y-54652498D01*
X143394318Y-54652501D01*
X143414955Y-54809260D01*
X143414956Y-54809262D01*
X143452588Y-54900115D01*
X143475464Y-54955341D01*
X143571718Y-55080782D01*
X143697159Y-55177036D01*
X143843238Y-55237544D01*
X143921619Y-55247863D01*
X143999999Y-55258182D01*
X144000000Y-55258182D01*
X144000001Y-55258182D01*
X144052254Y-55251302D01*
X144156762Y-55237544D01*
X144302841Y-55177036D01*
X144428282Y-55080782D01*
X144524536Y-54955341D01*
X144585044Y-54809262D01*
X144605682Y-54652500D01*
X144585044Y-54495738D01*
X144524536Y-54349659D01*
X144428282Y-54224218D01*
X144302841Y-54127964D01*
X144156762Y-54067456D01*
X144156760Y-54067455D01*
X144000001Y-54046818D01*
X143999999Y-54046818D01*
X143843239Y-54067455D01*
X143843237Y-54067456D01*
X143697160Y-54127963D01*
X143571718Y-54224218D01*
X143475463Y-54349660D01*
X143414956Y-54495737D01*
X143414955Y-54495739D01*
X143394318Y-54652498D01*
X141990267Y-54652498D01*
X141928282Y-54571718D01*
X141802841Y-54475464D01*
X141701579Y-54433520D01*
X141656762Y-54414956D01*
X141656760Y-54414955D01*
X141500001Y-54394318D01*
X141499999Y-54394318D01*
X141343239Y-54414955D01*
X141343237Y-54414956D01*
X141197156Y-54475465D01*
X141190119Y-54479528D01*
X141188500Y-54476725D01*
X141137428Y-54496438D01*
X141068991Y-54482362D01*
X141019028Y-54433520D01*
X141004240Y-54389047D01*
X140999055Y-54349660D01*
X140985044Y-54243238D01*
X140924536Y-54097159D01*
X140828282Y-53971718D01*
X140702841Y-53875464D01*
X140556762Y-53814956D01*
X140556760Y-53814955D01*
X140400001Y-53794318D01*
X140399999Y-53794318D01*
X140243239Y-53814955D01*
X140243237Y-53814956D01*
X140097160Y-53875463D01*
X139971718Y-53971718D01*
X139875463Y-54097160D01*
X139814956Y-54243237D01*
X139814955Y-54243239D01*
X139794318Y-54399998D01*
X135492516Y-54399998D01*
X135485044Y-54343239D01*
X135485044Y-54343238D01*
X135424536Y-54197159D01*
X135328282Y-54071718D01*
X135202841Y-53975464D01*
X135193797Y-53971718D01*
X135056762Y-53914956D01*
X135056760Y-53914955D01*
X134900001Y-53894318D01*
X134899999Y-53894318D01*
X134743239Y-53914955D01*
X134743237Y-53914956D01*
X134597160Y-53975463D01*
X134471718Y-54071718D01*
X134375463Y-54197160D01*
X134314956Y-54343237D01*
X134314955Y-54343239D01*
X134294318Y-54499998D01*
X134294318Y-54500001D01*
X134314955Y-54656760D01*
X134314956Y-54656762D01*
X134375464Y-54802841D01*
X134450107Y-54900118D01*
X134475300Y-54965284D01*
X134461262Y-55033729D01*
X134412448Y-55083719D01*
X134367916Y-55098541D01*
X134258899Y-55112894D01*
X134243238Y-55114956D01*
X134243237Y-55114956D01*
X134097160Y-55175463D01*
X133971718Y-55271718D01*
X133875463Y-55397160D01*
X133814956Y-55543237D01*
X133814955Y-55543239D01*
X133794318Y-55699998D01*
X110000000Y-55699998D01*
X110000000Y-53000882D01*
X110000012Y-52999144D01*
X110000921Y-52934303D01*
X110002274Y-52837729D01*
X110003041Y-52825610D01*
X110039277Y-52504005D01*
X110041606Y-52490299D01*
X110094044Y-52260553D01*
X110113427Y-52175627D01*
X110117272Y-52162279D01*
X110223883Y-51857601D01*
X110226409Y-51851504D01*
X130225000Y-51851504D01*
X130225000Y-52200000D01*
X130975000Y-52200000D01*
X130975000Y-52700000D01*
X130225000Y-52700000D01*
X130225000Y-53048495D01*
X130263427Y-53241681D01*
X130263430Y-53241693D01*
X130338807Y-53423671D01*
X130338814Y-53423684D01*
X130448248Y-53587462D01*
X130448251Y-53587466D01*
X130587533Y-53726748D01*
X130587537Y-53726751D01*
X130751315Y-53836185D01*
X130751328Y-53836192D01*
X130933308Y-53911569D01*
X130975000Y-53919862D01*
X130975000Y-52999728D01*
X131013060Y-53091614D01*
X131083386Y-53161940D01*
X131175272Y-53200000D01*
X131274728Y-53200000D01*
X131366614Y-53161940D01*
X131436940Y-53091614D01*
X131475000Y-52999728D01*
X131475000Y-53919862D01*
X131516690Y-53911569D01*
X131516692Y-53911569D01*
X131698671Y-53836192D01*
X131698684Y-53836185D01*
X131862462Y-53726751D01*
X131862466Y-53726748D01*
X132001748Y-53587466D01*
X132001751Y-53587462D01*
X132111185Y-53423684D01*
X132111192Y-53423671D01*
X132186569Y-53241693D01*
X132186572Y-53241681D01*
X132224999Y-53048495D01*
X132225000Y-53048492D01*
X132225000Y-52700000D01*
X131475000Y-52700000D01*
X131475000Y-52200000D01*
X132225000Y-52200000D01*
X132225000Y-51851508D01*
X132224999Y-51851504D01*
X137525000Y-51851504D01*
X137525000Y-52200000D01*
X138275000Y-52200000D01*
X138275000Y-52700000D01*
X137525000Y-52700000D01*
X137525000Y-53048495D01*
X137563427Y-53241681D01*
X137563430Y-53241693D01*
X137638807Y-53423671D01*
X137638814Y-53423684D01*
X137748248Y-53587462D01*
X137748251Y-53587466D01*
X137887533Y-53726748D01*
X137887537Y-53726751D01*
X138051315Y-53836185D01*
X138051328Y-53836192D01*
X138233308Y-53911569D01*
X138275000Y-53919862D01*
X138275000Y-52999728D01*
X138313060Y-53091614D01*
X138383386Y-53161940D01*
X138475272Y-53200000D01*
X138574728Y-53200000D01*
X138666614Y-53161940D01*
X138736940Y-53091614D01*
X138775000Y-52999728D01*
X138775000Y-53919862D01*
X138816690Y-53911569D01*
X138816692Y-53911569D01*
X138998671Y-53836192D01*
X138998684Y-53836185D01*
X139162462Y-53726751D01*
X139162466Y-53726748D01*
X139301748Y-53587466D01*
X139301751Y-53587462D01*
X139302207Y-53586780D01*
X154572500Y-53586780D01*
X154572500Y-53813219D01*
X154572501Y-53813235D01*
X154602056Y-54037731D01*
X154602057Y-54037736D01*
X154602058Y-54037742D01*
X154602059Y-54037744D01*
X154660667Y-54256476D01*
X154747322Y-54465681D01*
X154747329Y-54465696D01*
X154860553Y-54661806D01*
X154998408Y-54841462D01*
X154998414Y-54841469D01*
X155158530Y-55001585D01*
X155158537Y-55001591D01*
X155338193Y-55139446D01*
X155534303Y-55252670D01*
X155534318Y-55252677D01*
X155642507Y-55297490D01*
X155743522Y-55339332D01*
X155962258Y-55397942D01*
X156186774Y-55427500D01*
X156186781Y-55427500D01*
X156413219Y-55427500D01*
X156413226Y-55427500D01*
X156637742Y-55397942D01*
X156856478Y-55339332D01*
X157065693Y-55252672D01*
X157261807Y-55139446D01*
X157441464Y-55001590D01*
X157601590Y-54841464D01*
X157739446Y-54661807D01*
X157852672Y-54465693D01*
X157939332Y-54256478D01*
X157997942Y-54037742D01*
X158027500Y-53813226D01*
X158027500Y-53586774D01*
X157997942Y-53362258D01*
X157939332Y-53143522D01*
X157897490Y-53042507D01*
X157852677Y-52934318D01*
X157852670Y-52934303D01*
X157739446Y-52738193D01*
X157601591Y-52558537D01*
X157601585Y-52558530D01*
X157441469Y-52398414D01*
X157441462Y-52398408D01*
X157261806Y-52260553D01*
X157065696Y-52147329D01*
X157065681Y-52147322D01*
X156856476Y-52060667D01*
X156747110Y-52031363D01*
X156637742Y-52002058D01*
X156637736Y-52002057D01*
X156637731Y-52002056D01*
X156413235Y-51972501D01*
X156413232Y-51972500D01*
X156413226Y-51972500D01*
X156186774Y-51972500D01*
X156186768Y-51972500D01*
X156186764Y-51972501D01*
X155962268Y-52002056D01*
X155962261Y-52002057D01*
X155962258Y-52002058D01*
X155916031Y-52014444D01*
X155743523Y-52060667D01*
X155534318Y-52147322D01*
X155534303Y-52147329D01*
X155338193Y-52260553D01*
X155158537Y-52398408D01*
X155158530Y-52398414D01*
X154998414Y-52558530D01*
X154998408Y-52558537D01*
X154860553Y-52738193D01*
X154747329Y-52934303D01*
X154747322Y-52934318D01*
X154660667Y-53143523D01*
X154602059Y-53362255D01*
X154602056Y-53362268D01*
X154572501Y-53586764D01*
X154572500Y-53586780D01*
X139302207Y-53586780D01*
X139411185Y-53423684D01*
X139411192Y-53423671D01*
X139486569Y-53241693D01*
X139486572Y-53241681D01*
X139524999Y-53048495D01*
X139525000Y-53048492D01*
X139525000Y-52700000D01*
X138775000Y-52700000D01*
X138775000Y-52200000D01*
X139525000Y-52200000D01*
X139525000Y-51851508D01*
X139524999Y-51851504D01*
X139486572Y-51658318D01*
X139486569Y-51658306D01*
X139411192Y-51476328D01*
X139411185Y-51476315D01*
X139301751Y-51312537D01*
X139301748Y-51312533D01*
X139162466Y-51173251D01*
X139162462Y-51173248D01*
X138998684Y-51063814D01*
X138998671Y-51063807D01*
X138816691Y-50988429D01*
X138816683Y-50988427D01*
X138775000Y-50980135D01*
X138775000Y-51900272D01*
X138736940Y-51808386D01*
X138666614Y-51738060D01*
X138574728Y-51700000D01*
X138475272Y-51700000D01*
X138383386Y-51738060D01*
X138313060Y-51808386D01*
X138275000Y-51900272D01*
X138275000Y-50980136D01*
X138274999Y-50980135D01*
X138233316Y-50988427D01*
X138233308Y-50988429D01*
X138051328Y-51063807D01*
X138051315Y-51063814D01*
X137887537Y-51173248D01*
X137887533Y-51173251D01*
X137748251Y-51312533D01*
X137748248Y-51312537D01*
X137638814Y-51476315D01*
X137638807Y-51476328D01*
X137563430Y-51658306D01*
X137563427Y-51658318D01*
X137525000Y-51851504D01*
X132224999Y-51851504D01*
X132186572Y-51658318D01*
X132186569Y-51658306D01*
X132111192Y-51476328D01*
X132111185Y-51476315D01*
X132001751Y-51312537D01*
X132001748Y-51312533D01*
X131862466Y-51173251D01*
X131862462Y-51173248D01*
X131698684Y-51063814D01*
X131698671Y-51063807D01*
X131516691Y-50988429D01*
X131516683Y-50988427D01*
X131475000Y-50980135D01*
X131475000Y-51900272D01*
X131436940Y-51808386D01*
X131366614Y-51738060D01*
X131274728Y-51700000D01*
X131175272Y-51700000D01*
X131083386Y-51738060D01*
X131013060Y-51808386D01*
X130975000Y-51900272D01*
X130975000Y-50980136D01*
X130974999Y-50980135D01*
X130933316Y-50988427D01*
X130933308Y-50988429D01*
X130751328Y-51063807D01*
X130751315Y-51063814D01*
X130587537Y-51173248D01*
X130587533Y-51173251D01*
X130448251Y-51312533D01*
X130448248Y-51312537D01*
X130338814Y-51476315D01*
X130338807Y-51476328D01*
X130263430Y-51658306D01*
X130263427Y-51658318D01*
X130225000Y-51851504D01*
X110226409Y-51851504D01*
X110229196Y-51844777D01*
X110369243Y-51553965D01*
X110375959Y-51541813D01*
X110547693Y-51268501D01*
X110555723Y-51257183D01*
X110601327Y-51199998D01*
X124794318Y-51199998D01*
X124794318Y-51200001D01*
X124814955Y-51356760D01*
X124814956Y-51356762D01*
X124864476Y-51476315D01*
X124875464Y-51502841D01*
X124971718Y-51628282D01*
X125097159Y-51724536D01*
X125243238Y-51785044D01*
X125321619Y-51795363D01*
X125399999Y-51805682D01*
X125400000Y-51805682D01*
X125400001Y-51805682D01*
X125452254Y-51798802D01*
X125556762Y-51785044D01*
X125702841Y-51724536D01*
X125828282Y-51628282D01*
X125924536Y-51502841D01*
X125985044Y-51356762D01*
X126005682Y-51200000D01*
X126002160Y-51173251D01*
X125985044Y-51043239D01*
X125985044Y-51043238D01*
X125924536Y-50897159D01*
X125828282Y-50771718D01*
X125702841Y-50675464D01*
X125693797Y-50671718D01*
X125556762Y-50614956D01*
X125556760Y-50614955D01*
X125400001Y-50594318D01*
X125399999Y-50594318D01*
X125243239Y-50614955D01*
X125243237Y-50614956D01*
X125097160Y-50675463D01*
X124971718Y-50771718D01*
X124875463Y-50897160D01*
X124814956Y-51043237D01*
X124814955Y-51043239D01*
X124794318Y-51199998D01*
X110601327Y-51199998D01*
X110756979Y-51004816D01*
X110766228Y-50994467D01*
X110994467Y-50766228D01*
X111004816Y-50756979D01*
X111257183Y-50555723D01*
X111268501Y-50547693D01*
X111541813Y-50375959D01*
X111553965Y-50369243D01*
X111844777Y-50229196D01*
X111857601Y-50223883D01*
X112162279Y-50117272D01*
X112175627Y-50113427D01*
X112393293Y-50063746D01*
X112490299Y-50041606D01*
X112504005Y-50039277D01*
X112825610Y-50003041D01*
X112837729Y-50002274D01*
X112999144Y-50000011D01*
X113000882Y-50000000D01*
X139375302Y-50000000D01*
X139442341Y-50019685D01*
G37*
%TD.AperFunction*%
%TD*%
M02*
