%TF.GenerationSoftware,KiCad,Pcbnew,8.0.5-dirty*%
%TF.CreationDate,2024-12-04T01:41:04-06:00*%
%TF.ProjectId,MicroSDV3,4d696372-6f53-4445-9633-2e6b69636164,rev?*%
%TF.SameCoordinates,Original*%
%TF.FileFunction,Copper,L3,Inr*%
%TF.FilePolarity,Positive*%
%FSLAX46Y46*%
G04 Gerber Fmt 4.6, Leading zero omitted, Abs format (unit mm)*
G04 Created by KiCad (PCBNEW 8.0.5-dirty) date 2024-12-04 01:41:04*
%MOMM*%
%LPD*%
G01*
G04 APERTURE LIST*
%TA.AperFunction,ComponentPad*%
%ADD10O,1.000000X2.000000*%
%TD*%
%TA.AperFunction,ComponentPad*%
%ADD11R,1.700000X1.700000*%
%TD*%
%TA.AperFunction,ComponentPad*%
%ADD12O,1.700000X1.700000*%
%TD*%
%TA.AperFunction,ComponentPad*%
%ADD13O,1.100000X2.100000*%
%TD*%
%TA.AperFunction,ComponentPad*%
%ADD14O,1.100000X2.600000*%
%TD*%
%TA.AperFunction,ViaPad*%
%ADD15C,0.800000*%
%TD*%
G04 APERTURE END LIST*
D10*
%TO.N,GND*%
%TO.C,USB_C3.0_UP1*%
X138525000Y-52450000D03*
X131225000Y-52450000D03*
%TD*%
D11*
%TO.N,EXTERN3*%
%TO.C,J2*%
X158300000Y-74800000D03*
D12*
%TO.N,EXTERN2*%
X158300000Y-72260000D03*
%TO.N,PROG*%
X158300000Y-69720000D03*
%TO.N,EXTERN1*%
X158300000Y-67180000D03*
%TO.N,VBUS*%
X158300000Y-64640000D03*
%TO.N,3.3V*%
X158300000Y-62100000D03*
%TO.N,GND*%
X158300000Y-59560000D03*
%TD*%
D13*
%TO.N,unconnected-(U4-SHIELD-PadS1)*%
%TO.C,U4*%
X130680000Y-72410000D03*
D14*
X130680000Y-77770000D03*
D13*
X139320000Y-72410000D03*
D14*
X139320000Y-77770000D03*
%TD*%
D15*
%TO.N,GND*%
X127300000Y-54025000D03*
X140000000Y-58450003D03*
X144300000Y-52900000D03*
X150562500Y-66800000D03*
X131600000Y-71100000D03*
X131500000Y-56825000D03*
X117637500Y-56700000D03*
X148262500Y-57700000D03*
X112450000Y-70875000D03*
X140000000Y-62000000D03*
X119300000Y-59700000D03*
X118600000Y-65037500D03*
X147100000Y-63962500D03*
X152637500Y-72700000D03*
X148900000Y-74200000D03*
X127000000Y-58400000D03*
X117737500Y-54600000D03*
X122050000Y-55375000D03*
X144900000Y-71400000D03*
X129500000Y-55825000D03*
X121200000Y-57400000D03*
X156100000Y-60100000D03*
X142525000Y-52900000D03*
X112450000Y-55375000D03*
X122050000Y-69975000D03*
X152637500Y-70700000D03*
X138400000Y-71000000D03*
%TO.N,3.3V*%
X122100000Y-62100000D03*
X150200000Y-59000000D03*
%TO.N,/D1-*%
X135500000Y-74875000D03*
X134780222Y-69176669D03*
%TO.N,/UPD-*%
X134700000Y-57000000D03*
%TO.N,/UPD+*%
X134900000Y-54500000D03*
%TO.N,/D1+*%
X134800000Y-70400000D03*
%TO.N,Net-(U2-CMD)*%
X129131341Y-61546241D03*
%TO.N,Net-(U2-D0)*%
X128469125Y-59769125D03*
%TO.N,Net-(U2-PMOS)*%
X127000000Y-63800000D03*
%TO.N,Net-(U2-CLK)*%
X129132802Y-60546239D03*
%TO.N,Net-(U2-D1)*%
X127762017Y-59062017D03*
%TO.N,Net-(U2-D2)*%
X127674044Y-63061305D03*
%TO.N,Net-(U2-D3)*%
X128479859Y-62304908D03*
%TO.N,VBUS*%
X140400000Y-54400000D03*
X140000000Y-50500000D03*
X152700000Y-50900000D03*
X117400000Y-61700000D03*
X140800000Y-51100000D03*
X125400000Y-51200000D03*
%TO.N,CC1*%
X134400000Y-55700000D03*
X143400000Y-56950000D03*
%TO.N,CC1_DOWN*%
X143400000Y-58600000D03*
X135200000Y-68200000D03*
%TO.N,CC1_PD*%
X141500000Y-55000000D03*
X144000000Y-54652500D03*
%TO.N,/B_RX-*%
X132100000Y-74400000D03*
X133550000Y-74350000D03*
%TD*%
M02*
