%TF.GenerationSoftware,KiCad,Pcbnew,8.0.8*%
%TF.CreationDate,2025-02-18T10:56:21-06:00*%
%TF.ProjectId,MicroSDV004_USB2.0,4d696372-6f53-4445-9630-30345f555342,rev?*%
%TF.SameCoordinates,Original*%
%TF.FileFunction,Paste,Top*%
%TF.FilePolarity,Positive*%
%FSLAX46Y46*%
G04 Gerber Fmt 4.6, Leading zero omitted, Abs format (unit mm)*
G04 Created by KiCad (PCBNEW 8.0.8) date 2025-02-18 10:56:21*
%MOMM*%
%LPD*%
G01*
G04 APERTURE LIST*
G04 Aperture macros list*
%AMRoundRect*
0 Rectangle with rounded corners*
0 $1 Rounding radius*
0 $2 $3 $4 $5 $6 $7 $8 $9 X,Y pos of 4 corners*
0 Add a 4 corners polygon primitive as box body*
4,1,4,$2,$3,$4,$5,$6,$7,$8,$9,$2,$3,0*
0 Add four circle primitives for the rounded corners*
1,1,$1+$1,$2,$3*
1,1,$1+$1,$4,$5*
1,1,$1+$1,$6,$7*
1,1,$1+$1,$8,$9*
0 Add four rect primitives between the rounded corners*
20,1,$1+$1,$2,$3,$4,$5,0*
20,1,$1+$1,$4,$5,$6,$7,0*
20,1,$1+$1,$6,$7,$8,$9,0*
20,1,$1+$1,$8,$9,$2,$3,0*%
G04 Aperture macros list end*
%ADD10RoundRect,0.250000X-0.450000X0.350000X-0.450000X-0.350000X0.450000X-0.350000X0.450000X0.350000X0*%
%ADD11RoundRect,0.250000X0.337500X0.475000X-0.337500X0.475000X-0.337500X-0.475000X0.337500X-0.475000X0*%
%ADD12RoundRect,0.250000X-0.565685X-0.070711X-0.070711X-0.565685X0.565685X0.070711X0.070711X0.565685X0*%
%ADD13RoundRect,0.250000X0.450000X-0.350000X0.450000X0.350000X-0.450000X0.350000X-0.450000X-0.350000X0*%
%ADD14R,0.600000X1.240000*%
%ADD15R,0.300000X1.240000*%
%ADD16R,1.200000X0.400000*%
%ADD17RoundRect,0.100000X0.100000X-0.712500X0.100000X0.712500X-0.100000X0.712500X-0.100000X-0.712500X0*%
%ADD18RoundRect,0.250000X-0.070711X0.565685X-0.565685X0.070711X0.070711X-0.565685X0.565685X-0.070711X0*%
%ADD19RoundRect,0.250000X-0.350000X-0.450000X0.350000X-0.450000X0.350000X0.450000X-0.350000X0.450000X0*%
%ADD20RoundRect,0.250000X-0.475000X0.337500X-0.475000X-0.337500X0.475000X-0.337500X0.475000X0.337500X0*%
%ADD21RoundRect,0.250000X0.070711X-0.565685X0.565685X-0.070711X-0.070711X0.565685X-0.565685X0.070711X0*%
%ADD22R,1.600000X0.700000*%
%ADD23R,1.500000X1.200000*%
%ADD24R,2.200000X1.200000*%
%ADD25R,1.500000X1.600000*%
%ADD26RoundRect,0.150000X-0.512500X-0.150000X0.512500X-0.150000X0.512500X0.150000X-0.512500X0.150000X0*%
%ADD27RoundRect,0.250000X0.565685X0.070711X0.070711X0.565685X-0.565685X-0.070711X-0.070711X-0.565685X0*%
%ADD28RoundRect,0.250000X-0.337500X-0.475000X0.337500X-0.475000X0.337500X0.475000X-0.337500X0.475000X0*%
G04 APERTURE END LIST*
D10*
%TO.C,D1*%
X151600000Y-84600000D03*
X151600000Y-86600000D03*
%TD*%
D11*
%TO.C,C3*%
X154437500Y-75000000D03*
X152362500Y-75000000D03*
%TD*%
%TO.C,C2*%
X154437500Y-78400000D03*
X152362500Y-78400000D03*
%TD*%
D12*
%TO.C,R7*%
X161292893Y-114892893D03*
X162707107Y-116307107D03*
%TD*%
D13*
%TO.C,R8*%
X142000000Y-118000000D03*
X142000000Y-116000000D03*
%TD*%
D14*
%TO.C,J1*%
X148230000Y-67550000D03*
X147430000Y-67550000D03*
D15*
X146280000Y-67550000D03*
X145280000Y-67550000D03*
X144780000Y-67550000D03*
X143780000Y-67550000D03*
D14*
X142630000Y-67550000D03*
X141830000Y-67550000D03*
X141830000Y-67550000D03*
X142630000Y-67550000D03*
D15*
X143280000Y-67550000D03*
X144280000Y-67550000D03*
X145780000Y-67550000D03*
X146780000Y-67550000D03*
D14*
X147430000Y-67550000D03*
X148230000Y-67550000D03*
%TD*%
D10*
%TO.C,R9*%
X145600000Y-116000000D03*
X145600000Y-118000000D03*
%TD*%
%TO.C,R4*%
X148200000Y-76000000D03*
X148200000Y-78000000D03*
%TD*%
D13*
%TO.C,R2*%
X162400000Y-76600000D03*
X162400000Y-74600000D03*
%TD*%
D14*
%TO.C,J4*%
X120280000Y-122400000D03*
X121080000Y-122400000D03*
D15*
X122230000Y-122400000D03*
X123230000Y-122400000D03*
X123730000Y-122400000D03*
X124730000Y-122400000D03*
D14*
X125880000Y-122400000D03*
X126680000Y-122400000D03*
X126680000Y-122400000D03*
X125880000Y-122400000D03*
D15*
X125230000Y-122400000D03*
X124230000Y-122400000D03*
X122730000Y-122400000D03*
X121730000Y-122400000D03*
D14*
X121080000Y-122400000D03*
X120280000Y-122400000D03*
%TD*%
D13*
%TO.C,R1*%
X162200000Y-70600000D03*
X162200000Y-68600000D03*
%TD*%
D16*
%TO.C,U3*%
X158000000Y-94560000D03*
X158000000Y-93925000D03*
X158000000Y-93290000D03*
X158000000Y-92655000D03*
X158000000Y-92020000D03*
X158000000Y-91385000D03*
X158000000Y-90750000D03*
X158000000Y-90115000D03*
X152800000Y-90115000D03*
X152800000Y-90750000D03*
X152800000Y-91385000D03*
X152800000Y-92020000D03*
X152800000Y-92655000D03*
X152800000Y-93290000D03*
X152800000Y-93925000D03*
X152800000Y-94560000D03*
%TD*%
D11*
%TO.C,C6*%
X144200000Y-82800000D03*
X142125000Y-82800000D03*
%TD*%
D17*
%TO.C,U2*%
X142305000Y-91875000D03*
X142940000Y-91875000D03*
X143575000Y-91875000D03*
X144210000Y-91875000D03*
X144845000Y-91875000D03*
X145480000Y-91875000D03*
X146115000Y-91875000D03*
X146750000Y-91875000D03*
X146750000Y-86600000D03*
X146115000Y-86600000D03*
X145480000Y-86600000D03*
X144845000Y-86600000D03*
X144210000Y-86600000D03*
X143575000Y-86600000D03*
X142940000Y-86600000D03*
X142305000Y-86600000D03*
%TD*%
D18*
%TO.C,R11*%
X129307107Y-117092893D03*
X127892893Y-118507107D03*
%TD*%
D19*
%TO.C,FB1*%
X152400000Y-71400000D03*
X154400000Y-71400000D03*
%TD*%
D20*
%TO.C,C8*%
X162800000Y-81762500D03*
X162800000Y-83837500D03*
%TD*%
%TO.C,C9*%
X147600000Y-80400000D03*
X147600000Y-82475000D03*
%TD*%
%TO.C,C10*%
X158000000Y-81725000D03*
X158000000Y-83800000D03*
%TD*%
D13*
%TO.C,R5*%
X143600000Y-74600000D03*
X143600000Y-72600000D03*
%TD*%
D20*
%TO.C,C1*%
X149600000Y-71362500D03*
X149600000Y-73437500D03*
%TD*%
D21*
%TO.C,R10*%
X123400000Y-118200000D03*
X124814214Y-116785786D03*
%TD*%
D22*
%TO.C,U4*%
X165000000Y-93400000D03*
X165000000Y-94500000D03*
X165000000Y-95600000D03*
X165000000Y-96700000D03*
X165000000Y-97800000D03*
X165000000Y-98900000D03*
X165000000Y-100000000D03*
X165000000Y-101100000D03*
X165000000Y-102200000D03*
D23*
X166000000Y-103400000D03*
D24*
X175600000Y-103400000D03*
D25*
X166000000Y-88800000D03*
D24*
X175600000Y-87900000D03*
%TD*%
D26*
%TO.C,U1*%
X157925000Y-71700000D03*
X157925000Y-72650000D03*
X157925000Y-73600000D03*
X160200000Y-73600000D03*
X160200000Y-71700000D03*
%TD*%
D20*
%TO.C,C4*%
X165800000Y-71362500D03*
X165800000Y-73437500D03*
%TD*%
D11*
%TO.C,C5*%
X144237500Y-79600000D03*
X142162500Y-79600000D03*
%TD*%
D10*
%TO.C,R3*%
X154800000Y-84600000D03*
X154800000Y-86600000D03*
%TD*%
D14*
%TO.C,J2*%
X163230000Y-122400000D03*
X164030000Y-122400000D03*
D15*
X165180000Y-122400000D03*
X166180000Y-122400000D03*
X166680000Y-122400000D03*
X167680000Y-122400000D03*
D14*
X168830000Y-122400000D03*
X169630000Y-122400000D03*
X169630000Y-122400000D03*
X168830000Y-122400000D03*
D15*
X168180000Y-122400000D03*
X167180000Y-122400000D03*
X165680000Y-122400000D03*
X164680000Y-122400000D03*
D14*
X164030000Y-122400000D03*
X163230000Y-122400000D03*
%TD*%
%TO.C,J3*%
X141680000Y-122400000D03*
X142480000Y-122400000D03*
D15*
X143630000Y-122400000D03*
X144630000Y-122400000D03*
X145130000Y-122400000D03*
X146130000Y-122400000D03*
D14*
X147280000Y-122400000D03*
X148080000Y-122400000D03*
X148080000Y-122400000D03*
X147280000Y-122400000D03*
D15*
X146630000Y-122400000D03*
X145630000Y-122400000D03*
X144130000Y-122400000D03*
X143130000Y-122400000D03*
D14*
X142480000Y-122400000D03*
X141680000Y-122400000D03*
%TD*%
D27*
%TO.C,R6*%
X160107107Y-118707107D03*
X158692893Y-117292893D03*
%TD*%
D28*
%TO.C,C7*%
X137962500Y-79600000D03*
X140037500Y-79600000D03*
%TD*%
M02*
