%TF.GenerationSoftware,KiCad,Pcbnew,8.0.8*%
%TF.CreationDate,2025-02-18T10:56:21-06:00*%
%TF.ProjectId,MicroSDV004_USB2.0,4d696372-6f53-4445-9630-30345f555342,rev?*%
%TF.SameCoordinates,Original*%
%TF.FileFunction,Copper,L1,Top*%
%TF.FilePolarity,Positive*%
%FSLAX46Y46*%
G04 Gerber Fmt 4.6, Leading zero omitted, Abs format (unit mm)*
G04 Created by KiCad (PCBNEW 8.0.8) date 2025-02-18 10:56:21*
%MOMM*%
%LPD*%
G01*
G04 APERTURE LIST*
G04 Aperture macros list*
%AMRoundRect*
0 Rectangle with rounded corners*
0 $1 Rounding radius*
0 $2 $3 $4 $5 $6 $7 $8 $9 X,Y pos of 4 corners*
0 Add a 4 corners polygon primitive as box body*
4,1,4,$2,$3,$4,$5,$6,$7,$8,$9,$2,$3,0*
0 Add four circle primitives for the rounded corners*
1,1,$1+$1,$2,$3*
1,1,$1+$1,$4,$5*
1,1,$1+$1,$6,$7*
1,1,$1+$1,$8,$9*
0 Add four rect primitives between the rounded corners*
20,1,$1+$1,$2,$3,$4,$5,0*
20,1,$1+$1,$4,$5,$6,$7,0*
20,1,$1+$1,$6,$7,$8,$9,0*
20,1,$1+$1,$8,$9,$2,$3,0*%
G04 Aperture macros list end*
%TA.AperFunction,SMDPad,CuDef*%
%ADD10RoundRect,0.250000X-0.450000X0.350000X-0.450000X-0.350000X0.450000X-0.350000X0.450000X0.350000X0*%
%TD*%
%TA.AperFunction,SMDPad,CuDef*%
%ADD11RoundRect,0.250000X0.337500X0.475000X-0.337500X0.475000X-0.337500X-0.475000X0.337500X-0.475000X0*%
%TD*%
%TA.AperFunction,SMDPad,CuDef*%
%ADD12RoundRect,0.250000X-0.565685X-0.070711X-0.070711X-0.565685X0.565685X0.070711X0.070711X0.565685X0*%
%TD*%
%TA.AperFunction,SMDPad,CuDef*%
%ADD13RoundRect,0.250000X0.450000X-0.350000X0.450000X0.350000X-0.450000X0.350000X-0.450000X-0.350000X0*%
%TD*%
%TA.AperFunction,SMDPad,CuDef*%
%ADD14R,0.600000X1.240000*%
%TD*%
%TA.AperFunction,SMDPad,CuDef*%
%ADD15R,0.300000X1.240000*%
%TD*%
%TA.AperFunction,HeatsinkPad*%
%ADD16O,1.000000X2.100000*%
%TD*%
%TA.AperFunction,HeatsinkPad*%
%ADD17O,1.000000X1.800000*%
%TD*%
%TA.AperFunction,SMDPad,CuDef*%
%ADD18R,1.200000X0.400000*%
%TD*%
%TA.AperFunction,SMDPad,CuDef*%
%ADD19RoundRect,0.100000X0.100000X-0.712500X0.100000X0.712500X-0.100000X0.712500X-0.100000X-0.712500X0*%
%TD*%
%TA.AperFunction,SMDPad,CuDef*%
%ADD20RoundRect,0.250000X-0.070711X0.565685X-0.565685X0.070711X0.070711X-0.565685X0.565685X-0.070711X0*%
%TD*%
%TA.AperFunction,SMDPad,CuDef*%
%ADD21RoundRect,0.250000X-0.350000X-0.450000X0.350000X-0.450000X0.350000X0.450000X-0.350000X0.450000X0*%
%TD*%
%TA.AperFunction,SMDPad,CuDef*%
%ADD22RoundRect,0.250000X-0.475000X0.337500X-0.475000X-0.337500X0.475000X-0.337500X0.475000X0.337500X0*%
%TD*%
%TA.AperFunction,SMDPad,CuDef*%
%ADD23RoundRect,0.250000X0.070711X-0.565685X0.565685X-0.070711X-0.070711X0.565685X-0.565685X0.070711X0*%
%TD*%
%TA.AperFunction,SMDPad,CuDef*%
%ADD24R,1.600000X0.700000*%
%TD*%
%TA.AperFunction,SMDPad,CuDef*%
%ADD25R,1.500000X1.200000*%
%TD*%
%TA.AperFunction,SMDPad,CuDef*%
%ADD26R,2.200000X1.200000*%
%TD*%
%TA.AperFunction,SMDPad,CuDef*%
%ADD27R,1.500000X1.600000*%
%TD*%
%TA.AperFunction,SMDPad,CuDef*%
%ADD28RoundRect,0.150000X-0.512500X-0.150000X0.512500X-0.150000X0.512500X0.150000X-0.512500X0.150000X0*%
%TD*%
%TA.AperFunction,SMDPad,CuDef*%
%ADD29RoundRect,0.250000X0.565685X0.070711X0.070711X0.565685X-0.565685X-0.070711X-0.070711X-0.565685X0*%
%TD*%
%TA.AperFunction,SMDPad,CuDef*%
%ADD30RoundRect,0.250000X-0.337500X-0.475000X0.337500X-0.475000X0.337500X0.475000X-0.337500X0.475000X0*%
%TD*%
%TA.AperFunction,ViaPad*%
%ADD31C,0.600000*%
%TD*%
%TA.AperFunction,ViaPad*%
%ADD32C,0.500000*%
%TD*%
%TA.AperFunction,Conductor*%
%ADD33C,0.500000*%
%TD*%
%TA.AperFunction,Conductor*%
%ADD34C,0.200000*%
%TD*%
%TA.AperFunction,Conductor*%
%ADD35C,0.400000*%
%TD*%
G04 APERTURE END LIST*
D10*
%TO.P,D1,1,K*%
%TO.N,Net-(D1-K)*%
X151600000Y-84600000D03*
%TO.P,D1,2,A*%
%TO.N,3.3V*%
X151600000Y-86600000D03*
%TD*%
D11*
%TO.P,C3,1*%
%TO.N,5V*%
X154437500Y-75000000D03*
%TO.P,C3,2*%
%TO.N,GND*%
X152362500Y-75000000D03*
%TD*%
%TO.P,C2,1*%
%TO.N,5V*%
X154437500Y-78400000D03*
%TO.P,C2,2*%
%TO.N,GND*%
X152362500Y-78400000D03*
%TD*%
D12*
%TO.P,R7,1*%
%TO.N,GND*%
X161292893Y-114892893D03*
%TO.P,R7,2*%
%TO.N,Net-(J2-CC2)*%
X162707107Y-116307107D03*
%TD*%
D13*
%TO.P,R8,1*%
%TO.N,Net-(J3-CC1)*%
X142000000Y-118000000D03*
%TO.P,R8,2*%
%TO.N,GND*%
X142000000Y-116000000D03*
%TD*%
D14*
%TO.P,J1,A1,GND*%
%TO.N,GND*%
X148230000Y-67550000D03*
%TO.P,J1,A4,VBUS*%
%TO.N,VBUS*%
X147430000Y-67550000D03*
D15*
%TO.P,J1,A5,CC1*%
%TO.N,Net-(J1-CC1)*%
X146280000Y-67550000D03*
%TO.P,J1,A6,D+*%
%TO.N,/UPD-*%
X145280000Y-67550000D03*
%TO.P,J1,A7,D-*%
%TO.N,/UPD+*%
X144780000Y-67550000D03*
%TO.P,J1,A8,SBU1*%
%TO.N,unconnected-(J1-SBU1-PadA8)*%
X143780000Y-67550000D03*
D14*
%TO.P,J1,A9,VBUS*%
%TO.N,VBUS*%
X142630000Y-67550000D03*
%TO.P,J1,A12,GND*%
%TO.N,GND*%
X141830000Y-67550000D03*
%TO.P,J1,B1,GND*%
X141830000Y-67550000D03*
%TO.P,J1,B4,VBUS*%
%TO.N,VBUS*%
X142630000Y-67550000D03*
D15*
%TO.P,J1,B5,CC2*%
%TO.N,Net-(J1-CC2)*%
X143280000Y-67550000D03*
%TO.P,J1,B6,D+*%
%TO.N,/UPD-*%
X144280000Y-67550000D03*
%TO.P,J1,B7,D-*%
%TO.N,/UPD+*%
X145780000Y-67550000D03*
%TO.P,J1,B8,SBU2*%
%TO.N,unconnected-(J1-SBU2-PadB8)*%
X146780000Y-67550000D03*
D14*
%TO.P,J1,B9,VBUS*%
%TO.N,VBUS*%
X147430000Y-67550000D03*
%TO.P,J1,B12,GND*%
%TO.N,GND*%
X148230000Y-67550000D03*
D16*
%TO.P,J1,S1,SHIELD*%
%TO.N,unconnected-(J1-SHIELD-PadS1)*%
X149350000Y-66950000D03*
D17*
X149350000Y-62750000D03*
D16*
X140710000Y-66950000D03*
D17*
X140710000Y-62750000D03*
%TD*%
D10*
%TO.P,R9,1*%
%TO.N,GND*%
X145600000Y-116000000D03*
%TO.P,R9,2*%
%TO.N,Net-(J3-CC2)*%
X145600000Y-118000000D03*
%TD*%
%TO.P,R4,1*%
%TO.N,Net-(J1-CC1)*%
X148200000Y-76000000D03*
%TO.P,R4,2*%
%TO.N,GND*%
X148200000Y-78000000D03*
%TD*%
D13*
%TO.P,R2,1*%
%TO.N,GND*%
X162400000Y-76600000D03*
%TO.P,R2,2*%
%TO.N,FB*%
X162400000Y-74600000D03*
%TD*%
D14*
%TO.P,J4,A1,GND*%
%TO.N,GND*%
X120280000Y-122400000D03*
%TO.P,J4,A4,VBUS*%
%TO.N,5V*%
X121080000Y-122400000D03*
D15*
%TO.P,J4,A5,CC1*%
%TO.N,Net-(J4-CC1)*%
X122230000Y-122400000D03*
%TO.P,J4,A6,D+*%
%TO.N,/D4+*%
X123230000Y-122400000D03*
%TO.P,J4,A7,D-*%
%TO.N,/D4-*%
X123730000Y-122400000D03*
%TO.P,J4,A8,SBU1*%
%TO.N,unconnected-(J4-SBU1-PadA8)*%
X124730000Y-122400000D03*
D14*
%TO.P,J4,A9,VBUS*%
%TO.N,5V*%
X125880000Y-122400000D03*
%TO.P,J4,A12,GND*%
%TO.N,GND*%
X126680000Y-122400000D03*
%TO.P,J4,B1,GND*%
X126680000Y-122400000D03*
%TO.P,J4,B4,VBUS*%
%TO.N,5V*%
X125880000Y-122400000D03*
D15*
%TO.P,J4,B5,CC2*%
%TO.N,Net-(J4-CC2)*%
X125230000Y-122400000D03*
%TO.P,J4,B6,D+*%
%TO.N,/D4+*%
X124230000Y-122400000D03*
%TO.P,J4,B7,D-*%
%TO.N,/D4-*%
X122730000Y-122400000D03*
%TO.P,J4,B8,SBU2*%
%TO.N,unconnected-(J4-SBU2-PadB8)*%
X121730000Y-122400000D03*
D14*
%TO.P,J4,B9,VBUS*%
%TO.N,5V*%
X121080000Y-122400000D03*
%TO.P,J4,B12,GND*%
%TO.N,GND*%
X120280000Y-122400000D03*
D16*
%TO.P,J4,S1,SHIELD*%
%TO.N,unconnected-(J4-SHIELD-PadS1)*%
X119160000Y-123000000D03*
D17*
X119160000Y-127200000D03*
D16*
X127800000Y-123000000D03*
D17*
X127800000Y-127200000D03*
%TD*%
D13*
%TO.P,R1,1*%
%TO.N,FB*%
X162200000Y-70600000D03*
%TO.P,R1,2*%
%TO.N,3.3V*%
X162200000Y-68600000D03*
%TD*%
D18*
%TO.P,U3,1,Vss*%
%TO.N,GND*%
X158000000Y-94560000D03*
%TO.P,U3,2,D1*%
%TO.N,Net-(U3-D1)*%
X158000000Y-93925000D03*
%TO.P,U3,3,D0*%
%TO.N,Net-(U3-D0)*%
X158000000Y-93290000D03*
%TO.P,U3,4,CLK*%
%TO.N,Net-(U3-CLK)*%
X158000000Y-92655000D03*
%TO.P,U3,5,CMD*%
%TO.N,Net-(U3-CMD)*%
X158000000Y-92020000D03*
%TO.P,U3,6,D3*%
%TO.N,Net-(U3-D3)*%
X158000000Y-91385000D03*
%TO.P,U3,7,D2*%
%TO.N,Net-(U3-D2)*%
X158000000Y-90750000D03*
%TO.P,U3,8,PMOS*%
%TO.N,Net-(U3-PMOS)*%
X158000000Y-90115000D03*
%TO.P,U3,9,VDD*%
%TO.N,3.3V*%
X152800000Y-90115000D03*
%TO.P,U3,10,5V*%
%TO.N,5V*%
X152800000Y-90750000D03*
%TO.P,U3,11,GPIO*%
%TO.N,unconnected-(U3-GPIO-Pad11)*%
X152800000Y-91385000D03*
%TO.P,U3,12,LED*%
%TO.N,Net-(U3-LED)*%
X152800000Y-92020000D03*
%TO.P,U3,13,VDDA*%
%TO.N,3.3V*%
X152800000Y-92655000D03*
%TO.P,U3,14,Vss*%
%TO.N,GND*%
X152800000Y-93290000D03*
%TO.P,U3,15,DP*%
%TO.N,/D1+*%
X152800000Y-93925000D03*
%TO.P,U3,16,DM*%
%TO.N,/D1-*%
X152800000Y-94560000D03*
%TD*%
D11*
%TO.P,C6,1*%
%TO.N,3.3V*%
X144200000Y-82800000D03*
%TO.P,C6,2*%
%TO.N,GND*%
X142125000Y-82800000D03*
%TD*%
D19*
%TO.P,U2,1,DM4-*%
%TO.N,/D4-*%
X142305000Y-91875000D03*
%TO.P,U2,2,DP4+*%
%TO.N,/D4+*%
X142940000Y-91875000D03*
%TO.P,U2,3,DM3-*%
%TO.N,/D3-*%
X143575000Y-91875000D03*
%TO.P,U2,4,DP3+*%
%TO.N,/D3+*%
X144210000Y-91875000D03*
%TO.P,U2,5,DM2-*%
%TO.N,/D2-*%
X144845000Y-91875000D03*
%TO.P,U2,6,DP2+*%
%TO.N,/D2+*%
X145480000Y-91875000D03*
%TO.P,U2,7,DM1-*%
%TO.N,/D1-*%
X146115000Y-91875000D03*
%TO.P,U2,8,DP1+*%
%TO.N,/D1+*%
X146750000Y-91875000D03*
%TO.P,U2,9,~{RESET}/CDP*%
%TO.N,unconnected-(U2-~{RESET}{slash}CDP-Pad9)*%
X146750000Y-86600000D03*
%TO.P,U2,10,DMU-*%
%TO.N,/UPD-*%
X146115000Y-86600000D03*
%TO.P,U2,11,DPU+*%
%TO.N,/UPD+*%
X145480000Y-86600000D03*
%TO.P,U2,12,V5*%
%TO.N,3.3V*%
X144845000Y-86600000D03*
%TO.P,U2,13,VDD33*%
X144210000Y-86600000D03*
%TO.P,U2,14,GND*%
%TO.N,GND*%
X143575000Y-86600000D03*
%TO.P,U2,15,XO*%
%TO.N,unconnected-(U2-XO-Pad15)*%
X142940000Y-86600000D03*
%TO.P,U2,16,XI*%
%TO.N,GND*%
X142305000Y-86600000D03*
%TD*%
D20*
%TO.P,R11,1*%
%TO.N,GND*%
X129307107Y-117092893D03*
%TO.P,R11,2*%
%TO.N,Net-(J4-CC2)*%
X127892893Y-118507107D03*
%TD*%
D21*
%TO.P,FB1,1*%
%TO.N,VBUS*%
X152400000Y-71400000D03*
%TO.P,FB1,2*%
%TO.N,5V*%
X154400000Y-71400000D03*
%TD*%
D22*
%TO.P,C8,1*%
%TO.N,3.3V*%
X162800000Y-81762500D03*
%TO.P,C8,2*%
%TO.N,GND*%
X162800000Y-83837500D03*
%TD*%
%TO.P,C9,1*%
%TO.N,GND*%
X147600000Y-80400000D03*
%TO.P,C9,2*%
%TO.N,5V*%
X147600000Y-82475000D03*
%TD*%
%TO.P,C10,1*%
%TO.N,3.3V*%
X158000000Y-81725000D03*
%TO.P,C10,2*%
%TO.N,GND*%
X158000000Y-83800000D03*
%TD*%
D13*
%TO.P,R5,1*%
%TO.N,GND*%
X143600000Y-74600000D03*
%TO.P,R5,2*%
%TO.N,Net-(J1-CC2)*%
X143600000Y-72600000D03*
%TD*%
D22*
%TO.P,C1,1*%
%TO.N,VBUS*%
X149600000Y-71362500D03*
%TO.P,C1,2*%
%TO.N,GND*%
X149600000Y-73437500D03*
%TD*%
D23*
%TO.P,R10,1*%
%TO.N,Net-(J4-CC1)*%
X123400000Y-118200000D03*
%TO.P,R10,2*%
%TO.N,GND*%
X124814214Y-116785786D03*
%TD*%
D24*
%TO.P,U4,1,DAT2*%
%TO.N,Net-(U3-D2)*%
X165000000Y-93400000D03*
%TO.P,U4,2,DAT3*%
%TO.N,Net-(U3-D3)*%
X165000000Y-94500000D03*
%TO.P,U4,3,CMD*%
%TO.N,Net-(U3-CMD)*%
X165000000Y-95600000D03*
%TO.P,U4,4,VDD*%
%TO.N,3.3V*%
X165000000Y-96700000D03*
%TO.P,U4,5,CLK*%
%TO.N,Net-(U3-CLK)*%
X165000000Y-97800000D03*
%TO.P,U4,6,GND*%
%TO.N,GND*%
X165000000Y-98900000D03*
%TO.P,U4,7,DAT0*%
%TO.N,Net-(U3-D0)*%
X165000000Y-100000000D03*
%TO.P,U4,8,DAT1*%
%TO.N,Net-(U3-D1)*%
X165000000Y-101100000D03*
%TO.P,U4,9,CD*%
%TO.N,Net-(U3-PMOS)*%
X165000000Y-102200000D03*
D25*
%TO.P,U4,S1,SHELL*%
%TO.N,GND*%
X166000000Y-103400000D03*
D26*
X175600000Y-103400000D03*
D27*
X166000000Y-88800000D03*
D26*
X175600000Y-87900000D03*
%TD*%
D28*
%TO.P,U1,1,Vin*%
%TO.N,5V*%
X157925000Y-71700000D03*
%TO.P,U1,2,GND*%
%TO.N,GND*%
X157925000Y-72650000D03*
%TO.P,U1,3,EN*%
%TO.N,5V*%
X157925000Y-73600000D03*
%TO.P,U1,4,FB*%
%TO.N,FB*%
X160200000Y-73600000D03*
%TO.P,U1,5,Vout*%
%TO.N,3.3V*%
X160200000Y-71700000D03*
%TD*%
D22*
%TO.P,C4,1*%
%TO.N,3.3V*%
X165800000Y-71362500D03*
%TO.P,C4,2*%
%TO.N,GND*%
X165800000Y-73437500D03*
%TD*%
D11*
%TO.P,C5,1*%
%TO.N,3.3V*%
X144237500Y-79600000D03*
%TO.P,C5,2*%
%TO.N,GND*%
X142162500Y-79600000D03*
%TD*%
D10*
%TO.P,R3,1*%
%TO.N,Net-(D1-K)*%
X154800000Y-84600000D03*
%TO.P,R3,2*%
%TO.N,Net-(U3-LED)*%
X154800000Y-86600000D03*
%TD*%
D14*
%TO.P,J2,A1,GND*%
%TO.N,GND*%
X163230000Y-122400000D03*
%TO.P,J2,A4,VBUS*%
%TO.N,5V*%
X164030000Y-122400000D03*
D15*
%TO.P,J2,A5,CC1*%
%TO.N,Net-(J2-CC1)*%
X165180000Y-122400000D03*
%TO.P,J2,A6,D+*%
%TO.N,/D2+*%
X166180000Y-122400000D03*
%TO.P,J2,A7,D-*%
%TO.N,/D2-*%
X166680000Y-122400000D03*
%TO.P,J2,A8,SBU1*%
%TO.N,unconnected-(J2-SBU1-PadA8)*%
X167680000Y-122400000D03*
D14*
%TO.P,J2,A9,VBUS*%
%TO.N,5V*%
X168830000Y-122400000D03*
%TO.P,J2,A12,GND*%
%TO.N,GND*%
X169630000Y-122400000D03*
%TO.P,J2,B1,GND*%
X169630000Y-122400000D03*
%TO.P,J2,B4,VBUS*%
%TO.N,5V*%
X168830000Y-122400000D03*
D15*
%TO.P,J2,B5,CC2*%
%TO.N,Net-(J2-CC2)*%
X168180000Y-122400000D03*
%TO.P,J2,B6,D+*%
%TO.N,/D2+*%
X167180000Y-122400000D03*
%TO.P,J2,B7,D-*%
%TO.N,/D2-*%
X165680000Y-122400000D03*
%TO.P,J2,B8,SBU2*%
%TO.N,unconnected-(J2-SBU2-PadB8)*%
X164680000Y-122400000D03*
D14*
%TO.P,J2,B9,VBUS*%
%TO.N,5V*%
X164030000Y-122400000D03*
%TO.P,J2,B12,GND*%
%TO.N,GND*%
X163230000Y-122400000D03*
D16*
%TO.P,J2,S1,SHIELD*%
%TO.N,unconnected-(J2-SHIELD-PadS1)*%
X162110000Y-123000000D03*
D17*
X162110000Y-127200000D03*
D16*
X170750000Y-123000000D03*
D17*
X170750000Y-127200000D03*
%TD*%
D14*
%TO.P,J3,A1,GND*%
%TO.N,GND*%
X141680000Y-122400000D03*
%TO.P,J3,A4,VBUS*%
%TO.N,5V*%
X142480000Y-122400000D03*
D15*
%TO.P,J3,A5,CC1*%
%TO.N,Net-(J3-CC1)*%
X143630000Y-122400000D03*
%TO.P,J3,A6,D+*%
%TO.N,/D3+*%
X144630000Y-122400000D03*
%TO.P,J3,A7,D-*%
%TO.N,/D3-*%
X145130000Y-122400000D03*
%TO.P,J3,A8,SBU1*%
%TO.N,unconnected-(J3-SBU1-PadA8)*%
X146130000Y-122400000D03*
D14*
%TO.P,J3,A9,VBUS*%
%TO.N,5V*%
X147280000Y-122400000D03*
%TO.P,J3,A12,GND*%
%TO.N,GND*%
X148080000Y-122400000D03*
%TO.P,J3,B1,GND*%
X148080000Y-122400000D03*
%TO.P,J3,B4,VBUS*%
%TO.N,5V*%
X147280000Y-122400000D03*
D15*
%TO.P,J3,B5,CC2*%
%TO.N,Net-(J3-CC2)*%
X146630000Y-122400000D03*
%TO.P,J3,B6,D+*%
%TO.N,/D3+*%
X145630000Y-122400000D03*
%TO.P,J3,B7,D-*%
%TO.N,/D3-*%
X144130000Y-122400000D03*
%TO.P,J3,B8,SBU2*%
%TO.N,unconnected-(J3-SBU2-PadB8)*%
X143130000Y-122400000D03*
D14*
%TO.P,J3,B9,VBUS*%
%TO.N,5V*%
X142480000Y-122400000D03*
%TO.P,J3,B12,GND*%
%TO.N,GND*%
X141680000Y-122400000D03*
D16*
%TO.P,J3,S1,SHIELD*%
%TO.N,unconnected-(J3-SHIELD-PadS1)*%
X140560000Y-123000000D03*
D17*
X140560000Y-127200000D03*
D16*
X149200000Y-123000000D03*
D17*
X149200000Y-127200000D03*
%TD*%
D29*
%TO.P,R6,1*%
%TO.N,Net-(J2-CC1)*%
X160107107Y-118707107D03*
%TO.P,R6,2*%
%TO.N,GND*%
X158692893Y-117292893D03*
%TD*%
D30*
%TO.P,C7,1*%
%TO.N,GND*%
X137962500Y-79600000D03*
%TO.P,C7,2*%
%TO.N,3.3V*%
X140037500Y-79600000D03*
%TD*%
D31*
%TO.N,*%
X193800000Y-122200000D03*
D32*
%TO.N,VBUS*%
X142600000Y-69400000D03*
X147780000Y-69020000D03*
D31*
%TO.N,GND*%
X120600000Y-120800000D03*
X142125000Y-82800000D03*
X152362500Y-78400000D03*
X159800000Y-95200000D03*
D32*
X149600000Y-73437500D03*
D31*
X142000000Y-116000000D03*
X166000000Y-88800000D03*
D32*
X152362500Y-75000000D03*
D31*
X149400000Y-93000000D03*
X129307107Y-117092893D03*
X175600000Y-87900000D03*
X163400000Y-98800000D03*
X166000000Y-103400000D03*
X148200000Y-78000000D03*
X143600000Y-74600000D03*
X143000000Y-84600000D03*
X169800000Y-120600000D03*
X162800000Y-83837500D03*
X162400000Y-76600000D03*
X163230000Y-122400000D03*
X161292893Y-114892893D03*
X145600000Y-116000000D03*
X148200000Y-79962500D03*
X156200000Y-73200000D03*
X141600000Y-84800000D03*
X142162500Y-79600000D03*
X127200000Y-121200000D03*
X137962500Y-79600000D03*
X150600000Y-69400000D03*
X158692893Y-117292893D03*
X175600000Y-103400000D03*
X140800000Y-69400000D03*
X158000000Y-83800000D03*
X124814214Y-116785786D03*
%TO.N,5V*%
X141400000Y-120400000D03*
X147280000Y-120080000D03*
X150400000Y-90400000D03*
X128800000Y-120400000D03*
X160800000Y-120800000D03*
X121400000Y-119400000D03*
X168600000Y-119600000D03*
%TO.N,3.3V*%
X154800000Y-92200000D03*
X154000000Y-89000000D03*
%TO.N,/UPD-*%
X144600000Y-69200000D03*
X146022500Y-69400000D03*
%TO.N,Net-(U3-PMOS)*%
X166800000Y-101600000D03*
X160200000Y-89800000D03*
%TD*%
D33*
%TO.N,VBUS*%
X152362500Y-71362500D02*
X152400000Y-71400000D01*
X149600000Y-71362500D02*
X152362500Y-71362500D01*
X142630000Y-67550000D02*
X142630000Y-68570000D01*
X149600000Y-70840000D02*
X149600000Y-71362500D01*
X147780000Y-69020000D02*
X149600000Y-70840000D01*
X147430000Y-67550000D02*
X147430000Y-68670000D01*
X142600000Y-68600000D02*
X142600000Y-69400000D01*
X142630000Y-68570000D02*
X142600000Y-68600000D01*
X147430000Y-68670000D02*
X147780000Y-69020000D01*
%TO.N,GND*%
X141830000Y-68370000D02*
X140800000Y-69400000D01*
X149760000Y-69400000D02*
X150600000Y-69400000D01*
D34*
X159160000Y-94560000D02*
X159800000Y-95200000D01*
D33*
X169630000Y-122400000D02*
X169630000Y-120770000D01*
D34*
X165000000Y-98900000D02*
X163500000Y-98900000D01*
D35*
X143575000Y-86600000D02*
X143575000Y-85175000D01*
D33*
X169630000Y-120770000D02*
X169800000Y-120600000D01*
X157925000Y-72650000D02*
X156750000Y-72650000D01*
X148230000Y-67550000D02*
X148230000Y-67870000D01*
D35*
X143575000Y-85175000D02*
X143000000Y-84600000D01*
D33*
X156750000Y-72650000D02*
X156200000Y-73200000D01*
D35*
X126680000Y-121720000D02*
X126680000Y-122400000D01*
D34*
X158000000Y-94560000D02*
X159160000Y-94560000D01*
D35*
X152800000Y-93290000D02*
X149690000Y-93290000D01*
X127200000Y-121200000D02*
X126680000Y-121720000D01*
D33*
X148230000Y-67870000D02*
X149760000Y-69400000D01*
X141830000Y-67550000D02*
X141830000Y-68370000D01*
D34*
X163500000Y-98900000D02*
X163400000Y-98800000D01*
D35*
X149690000Y-93290000D02*
X149400000Y-93000000D01*
X120280000Y-122400000D02*
X120280000Y-121120000D01*
X120280000Y-121120000D02*
X120600000Y-120800000D01*
X142305000Y-85505000D02*
X141600000Y-84800000D01*
X142305000Y-86600000D02*
X142305000Y-85505000D01*
D33*
%TO.N,5V*%
X164030000Y-121430000D02*
X163600000Y-121000000D01*
X125880000Y-122400000D02*
X125880000Y-121459339D01*
X142480000Y-121480000D02*
X141400000Y-120400000D01*
X163600000Y-121000000D02*
X161000000Y-121000000D01*
X125880000Y-121459339D02*
X126939339Y-120400000D01*
X121080000Y-122400000D02*
X121080000Y-121380661D01*
X126939339Y-120400000D02*
X128800000Y-120400000D01*
X168830000Y-119830000D02*
X168600000Y-119600000D01*
X161000000Y-121000000D02*
X160800000Y-120800000D01*
X168830000Y-122400000D02*
X168830000Y-119830000D01*
X121400000Y-121060661D02*
X121400000Y-119400000D01*
D35*
X150400000Y-90400000D02*
X150750000Y-90750000D01*
D33*
X147280000Y-122400000D02*
X147280000Y-120080000D01*
D35*
X150750000Y-90750000D02*
X152800000Y-90750000D01*
D33*
X142480000Y-122400000D02*
X142480000Y-121480000D01*
X164030000Y-122400000D02*
X164030000Y-121430000D01*
X121080000Y-121380661D02*
X121400000Y-121060661D01*
D35*
%TO.N,3.3V*%
X144845000Y-87487378D02*
X145170122Y-87812500D01*
X167200000Y-83400000D02*
X165400000Y-81600000D01*
X162800000Y-81762500D02*
X165237500Y-81762500D01*
D33*
X164000000Y-68800000D02*
X163800000Y-68600000D01*
D35*
X165000000Y-96700000D02*
X166300000Y-96700000D01*
X144210000Y-87412499D02*
X144610001Y-87812500D01*
D33*
X165800000Y-70000000D02*
X164600000Y-68800000D01*
D35*
X149800000Y-88200000D02*
X149200000Y-87600000D01*
X149200000Y-87600000D02*
X149200000Y-83400000D01*
X144210000Y-86600000D02*
X144210000Y-79627500D01*
X144210000Y-79627500D02*
X144237500Y-79600000D01*
X144610001Y-87812500D02*
X145170122Y-87812500D01*
X145170122Y-87812500D02*
X148987500Y-87812500D01*
X152800000Y-90115000D02*
X153685000Y-90115000D01*
X162762500Y-81725000D02*
X162800000Y-81762500D01*
X152800000Y-90115000D02*
X151715000Y-90115000D01*
X158000000Y-81725000D02*
X162762500Y-81725000D01*
D33*
X165800000Y-71362500D02*
X165800000Y-70000000D01*
D35*
X166300000Y-96700000D02*
X167200000Y-95800000D01*
D33*
X164600000Y-68800000D02*
X164000000Y-68800000D01*
D35*
X154000000Y-89800000D02*
X154000000Y-89000000D01*
D33*
X162200000Y-68600000D02*
X160200000Y-70600000D01*
D35*
X144845000Y-86600000D02*
X144845000Y-87487378D01*
X168200000Y-78800000D02*
X168200000Y-72600000D01*
X149200000Y-83400000D02*
X150875000Y-81725000D01*
X144210000Y-86600000D02*
X144210000Y-87412499D01*
X151600000Y-87800000D02*
X151200000Y-88200000D01*
D33*
X163800000Y-68600000D02*
X162200000Y-68600000D01*
D35*
X168200000Y-72600000D02*
X166962500Y-71362500D01*
X148987500Y-87812500D02*
X149200000Y-87600000D01*
X165400000Y-81600000D02*
X168200000Y-78800000D01*
D33*
X160200000Y-70600000D02*
X160200000Y-71700000D01*
D35*
X167200000Y-95800000D02*
X167200000Y-83400000D01*
X143112500Y-78475000D02*
X141162500Y-78475000D01*
X151200000Y-88200000D02*
X149800000Y-88200000D01*
X151600000Y-86600000D02*
X151600000Y-87800000D01*
X153685000Y-90115000D02*
X154000000Y-89800000D01*
X152800000Y-92655000D02*
X154345000Y-92655000D01*
X154345000Y-92655000D02*
X154800000Y-92200000D01*
X141162500Y-78475000D02*
X140037500Y-79600000D01*
X150875000Y-81725000D02*
X158000000Y-81725000D01*
X144237500Y-79600000D02*
X143112500Y-78475000D01*
X165237500Y-81762500D02*
X165400000Y-81600000D01*
X151715000Y-90115000D02*
X149800000Y-88200000D01*
X166962500Y-71362500D02*
X165800000Y-71362500D01*
D34*
%TO.N,Net-(D1-K)*%
X152000000Y-83600000D02*
X151600000Y-84000000D01*
X154800000Y-84200000D02*
X154200000Y-83600000D01*
X151600000Y-84000000D02*
X151600000Y-84600000D01*
X154800000Y-84600000D02*
X154800000Y-84200000D01*
X154200000Y-83600000D02*
X152000000Y-83600000D01*
%TO.N,/UPD-*%
X145280000Y-68354314D02*
X146022500Y-69096814D01*
X144280000Y-67550000D02*
X144280000Y-68880000D01*
X146782500Y-71615715D02*
X146262500Y-71615715D01*
X146022500Y-70941066D02*
X146022500Y-70572500D01*
X144280000Y-68880000D02*
X144600000Y-69200000D01*
X146022500Y-70572500D02*
X146022500Y-69400000D01*
X146022500Y-69096814D02*
X146022500Y-69400000D01*
X145280000Y-67550000D02*
X145280000Y-68354314D01*
X146115000Y-86600000D02*
X146115000Y-85381249D01*
X146115000Y-85381249D02*
X146022500Y-85288749D01*
X146262500Y-72215715D02*
X146782500Y-72215715D01*
X146022500Y-71375715D02*
X146022500Y-71255715D01*
X146022500Y-71255715D02*
X146022500Y-70941066D01*
X147022500Y-71975715D02*
X147022500Y-71855715D01*
X146022500Y-85288749D02*
X146022500Y-72455715D01*
X146782500Y-72215715D02*
G75*
G03*
X147022515Y-71975715I0J240015D01*
G01*
X146262500Y-71615715D02*
G75*
G02*
X146022485Y-71375715I0J240015D01*
G01*
X147022500Y-71855715D02*
G75*
G03*
X146782500Y-71615700I-240000J15D01*
G01*
X146022500Y-72455715D02*
G75*
G02*
X146262500Y-72215700I240000J15D01*
G01*
%TO.N,/UPD+*%
X145572500Y-72614428D02*
X145572500Y-85288749D01*
X144780000Y-68420000D02*
X144780000Y-67550000D01*
X144780000Y-66680000D02*
X144780000Y-67550000D01*
X145572500Y-70941066D02*
X145572500Y-72022862D01*
X145780000Y-67550000D02*
X145780000Y-66680000D01*
X145400000Y-70400000D02*
X145400000Y-69040000D01*
X145572500Y-70941066D02*
X145572500Y-70572500D01*
X145480000Y-85381249D02*
X145480000Y-86600000D01*
X145730000Y-66630000D02*
X144830000Y-66630000D01*
X145572500Y-70572500D02*
X145400000Y-70400000D01*
X145572500Y-72022862D02*
X145572500Y-72614428D01*
X145572500Y-85288749D02*
X145480000Y-85381249D01*
X145780000Y-66680000D02*
X145730000Y-66630000D01*
X144830000Y-66630000D02*
X144780000Y-66680000D01*
X145400000Y-69040000D02*
X144780000Y-68420000D01*
%TO.N,Net-(J1-CC1)*%
X146280000Y-68788628D02*
X148000000Y-70508628D01*
X148200000Y-71800000D02*
X148200000Y-76000000D01*
X148000000Y-71600000D02*
X148200000Y-71800000D01*
X146280000Y-67550000D02*
X146280000Y-68788628D01*
X148000000Y-70508628D02*
X148000000Y-71600000D01*
%TO.N,Net-(J1-CC2)*%
X143280000Y-67550000D02*
X143280000Y-72280000D01*
X143280000Y-72280000D02*
X143600000Y-72600000D01*
%TO.N,Net-(J2-CC2)*%
X168180000Y-122400000D02*
X168180000Y-120380000D01*
X164200000Y-117800000D02*
X162707107Y-116307107D01*
X168180000Y-120380000D02*
X165600000Y-117800000D01*
X165600000Y-117800000D02*
X164200000Y-117800000D01*
%TO.N,/D2-*%
X163200000Y-119800000D02*
X165375000Y-119800000D01*
X144937500Y-101537500D02*
X163200000Y-119800000D01*
X166630000Y-121480000D02*
X165730000Y-121480000D01*
X166680000Y-121530000D02*
X166630000Y-121480000D01*
X166630000Y-121055000D02*
X166630000Y-121480000D01*
X166680000Y-122400000D02*
X166680000Y-121530000D01*
X165375000Y-119800000D02*
X166630000Y-121055000D01*
X165730000Y-121480000D02*
X165680000Y-121530000D01*
X144937500Y-93186251D02*
X144937500Y-101537500D01*
X144845000Y-91875000D02*
X144845000Y-93093751D01*
X165680000Y-121530000D02*
X165680000Y-122400000D01*
X144845000Y-93093751D02*
X144937500Y-93186251D01*
%TO.N,Net-(J2-CC1)*%
X164050000Y-120400000D02*
X161800000Y-120400000D01*
X165180000Y-121530000D02*
X164050000Y-120400000D01*
X161800000Y-120400000D02*
X160107107Y-118707107D01*
X165180000Y-122400000D02*
X165180000Y-121530000D01*
%TO.N,/D2+*%
X145480000Y-91875000D02*
X145480000Y-93093751D01*
X167180000Y-123270000D02*
X167180000Y-122400000D01*
X163400000Y-119400000D02*
X165540686Y-119400000D01*
X145387500Y-101387500D02*
X163400000Y-119400000D01*
X167130000Y-123320000D02*
X167180000Y-123270000D01*
X167180000Y-121039314D02*
X167180000Y-122400000D01*
X145387500Y-93186251D02*
X145387500Y-101387500D01*
X166180000Y-122400000D02*
X166180000Y-123270000D01*
X166180000Y-123270000D02*
X166230000Y-123320000D01*
X145480000Y-93093751D02*
X145387500Y-93186251D01*
X166230000Y-123320000D02*
X167130000Y-123320000D01*
X165540686Y-119400000D02*
X167180000Y-121039314D01*
%TO.N,/D3-*%
X143667500Y-120314986D02*
X144176257Y-120823743D01*
X144176257Y-120823743D02*
X144176257Y-122353743D01*
X145080000Y-123320000D02*
X145130000Y-123270000D01*
X143575000Y-93093751D02*
X143667500Y-93186251D01*
X144180000Y-123320000D02*
X145080000Y-123320000D01*
X144130000Y-122400000D02*
X144130000Y-123270000D01*
X144130000Y-123270000D02*
X144180000Y-123320000D01*
X143575000Y-91875000D02*
X143575000Y-93093751D01*
X143667500Y-93186251D02*
X143667500Y-120314986D01*
X145130000Y-123270000D02*
X145130000Y-122400000D01*
X144176257Y-122353743D02*
X144130000Y-122400000D01*
%TO.N,Net-(J3-CC2)*%
X146630000Y-120830000D02*
X146630000Y-122400000D01*
X145600000Y-119800000D02*
X146630000Y-120830000D01*
X145600000Y-118000000D02*
X145600000Y-119800000D01*
%TO.N,Net-(J3-CC1)*%
X142000000Y-118000000D02*
X142000000Y-119800000D01*
X142000000Y-119800000D02*
X143630000Y-121430000D01*
X143630000Y-121430000D02*
X143630000Y-122400000D01*
%TO.N,/D3+*%
X145580000Y-121480000D02*
X145630000Y-121530000D01*
X144117500Y-93186251D02*
X144117500Y-120199300D01*
X144640900Y-120722700D02*
X144640900Y-121519100D01*
X144210000Y-93093751D02*
X144117500Y-93186251D01*
X144640900Y-121519100D02*
X144630000Y-121530000D01*
X144680000Y-121480000D02*
X145580000Y-121480000D01*
X144117500Y-120199300D02*
X144640900Y-120722700D01*
X144630000Y-122400000D02*
X144630000Y-121530000D01*
X144630000Y-121530000D02*
X144680000Y-121480000D01*
X145630000Y-121530000D02*
X145630000Y-122400000D01*
X144210000Y-91875000D02*
X144210000Y-93093751D01*
%TO.N,/D4+*%
X123230000Y-122400000D02*
X123230000Y-121370000D01*
X123400000Y-121200000D02*
X123800000Y-121200000D01*
X123800000Y-121200000D02*
X124230000Y-121630000D01*
X142940000Y-93093751D02*
X142940000Y-91875000D01*
X124230000Y-121630000D02*
X124230000Y-122400000D01*
X124600000Y-119833758D02*
X142847500Y-101586258D01*
X124600000Y-120000000D02*
X124600000Y-119833758D01*
X142847500Y-93186251D02*
X142940000Y-93093751D01*
X123230000Y-121370000D02*
X124600000Y-120000000D01*
X142847500Y-101586258D02*
X142847500Y-93186251D01*
%TO.N,/D4-*%
X142397500Y-101399858D02*
X142397500Y-93186251D01*
X122730000Y-122400000D02*
X122730000Y-121304314D01*
X122780000Y-123320000D02*
X123680000Y-123320000D01*
X142305000Y-93093751D02*
X142305000Y-91875000D01*
X124200000Y-119597358D02*
X142397500Y-101399858D01*
X122730000Y-123270000D02*
X122780000Y-123320000D01*
X123730000Y-123270000D02*
X123730000Y-122400000D01*
X123680000Y-123320000D02*
X123730000Y-123270000D01*
X142397500Y-93186251D02*
X142305000Y-93093751D01*
X124200000Y-119834314D02*
X124200000Y-119597358D01*
X122730000Y-121304314D02*
X124200000Y-119834314D01*
X122730000Y-122400000D02*
X122730000Y-123270000D01*
%TO.N,Net-(J4-CC1)*%
X122230000Y-122400000D02*
X122230000Y-119370000D01*
X122230000Y-119370000D02*
X123400000Y-118200000D01*
%TO.N,Net-(J4-CC2)*%
X125230000Y-122400000D02*
X125230000Y-121170000D01*
X125230000Y-121170000D02*
X127892893Y-118507107D01*
D33*
%TO.N,FB*%
X162200000Y-73000000D02*
X161600000Y-73600000D01*
X162400000Y-74600000D02*
X162400000Y-74400000D01*
X162400000Y-74400000D02*
X161600000Y-73600000D01*
X161600000Y-73600000D02*
X160200000Y-73600000D01*
X162200000Y-70600000D02*
X162200000Y-73000000D01*
D34*
%TO.N,Net-(U3-LED)*%
X152800000Y-92020000D02*
X153600000Y-92020000D01*
X153600000Y-92020000D02*
X154800000Y-90820000D01*
X154800000Y-90820000D02*
X154800000Y-86600000D01*
%TO.N,/D1+*%
X146657500Y-93339300D02*
X147335700Y-94017500D01*
X146750000Y-93093751D02*
X146657500Y-93186251D01*
X146750000Y-91875000D02*
X146750000Y-93093751D01*
X147335700Y-94017500D02*
X151807499Y-94017500D01*
X151807499Y-94017500D02*
X151899999Y-93925000D01*
X146657500Y-93186251D02*
X146657500Y-93339300D01*
X151899999Y-93925000D02*
X152800000Y-93925000D01*
%TO.N,/D1-*%
X146207500Y-93525700D02*
X147149300Y-94467500D01*
X151899999Y-94560000D02*
X152800000Y-94560000D01*
X146115000Y-93093751D02*
X146207500Y-93186251D01*
X147149300Y-94467500D02*
X151807499Y-94467500D01*
X151807499Y-94467500D02*
X151899999Y-94560000D01*
X146115000Y-91875000D02*
X146115000Y-93093751D01*
X146207500Y-93186251D02*
X146207500Y-93525700D01*
%TO.N,Net-(U3-D2)*%
X165000000Y-93400000D02*
X164200000Y-93400000D01*
X164200000Y-93400000D02*
X161550000Y-90750000D01*
X161550000Y-90750000D02*
X158000000Y-90750000D01*
%TO.N,Net-(U3-CMD)*%
X159980000Y-92020000D02*
X158000000Y-92020000D01*
X164400000Y-95600000D02*
X160800000Y-92000000D01*
X160800000Y-92000000D02*
X160000000Y-92000000D01*
X160000000Y-92000000D02*
X159980000Y-92020000D01*
X165000000Y-95600000D02*
X164400000Y-95600000D01*
%TO.N,Net-(U3-D0)*%
X162000000Y-99000000D02*
X163000000Y-100000000D01*
X162000000Y-95000000D02*
X162000000Y-99000000D01*
X160290000Y-93290000D02*
X162000000Y-95000000D01*
X158000000Y-93290000D02*
X160290000Y-93290000D01*
X163000000Y-100000000D02*
X165000000Y-100000000D01*
%TO.N,Net-(U3-D3)*%
X165000000Y-94500000D02*
X164300000Y-94500000D01*
X164300000Y-94500000D02*
X161185000Y-91385000D01*
X161185000Y-91385000D02*
X158000000Y-91385000D01*
%TO.N,Net-(U3-CLK)*%
X163200000Y-97800000D02*
X165000000Y-97800000D01*
X162600000Y-94800000D02*
X162600000Y-97200000D01*
X160455000Y-92655000D02*
X162600000Y-94800000D01*
X162600000Y-97200000D02*
X163200000Y-97800000D01*
X158000000Y-92655000D02*
X160455000Y-92655000D01*
%TO.N,Net-(U3-D1)*%
X158000000Y-93925000D02*
X159925000Y-93925000D01*
X161400000Y-99000000D02*
X163500000Y-101100000D01*
X159925000Y-93925000D02*
X161400000Y-95400000D01*
X161400000Y-95400000D02*
X161400000Y-99000000D01*
X163500000Y-101100000D02*
X165000000Y-101100000D01*
%TO.N,Net-(U3-PMOS)*%
X165000000Y-102200000D02*
X166200000Y-102200000D01*
X166200000Y-102200000D02*
X166800000Y-101600000D01*
X159885000Y-90115000D02*
X160200000Y-89800000D01*
X158000000Y-90115000D02*
X159885000Y-90115000D01*
%TD*%
%TA.AperFunction,Conductor*%
%TO.N,5V*%
G36*
X179442539Y-60520185D02*
G01*
X179488294Y-60572989D01*
X179499500Y-60624500D01*
X179499500Y-129375500D01*
X179479815Y-129442539D01*
X179427011Y-129488294D01*
X179375500Y-129499500D01*
X110624500Y-129499500D01*
X110557461Y-129479815D01*
X110511706Y-129427011D01*
X110500500Y-129375500D01*
X110500500Y-127698543D01*
X118159499Y-127698543D01*
X118197947Y-127891829D01*
X118197950Y-127891839D01*
X118273364Y-128073907D01*
X118273371Y-128073920D01*
X118382860Y-128237781D01*
X118382863Y-128237785D01*
X118522214Y-128377136D01*
X118522218Y-128377139D01*
X118686079Y-128486628D01*
X118686092Y-128486635D01*
X118868160Y-128562049D01*
X118868165Y-128562051D01*
X118868169Y-128562051D01*
X118868170Y-128562052D01*
X119061456Y-128600500D01*
X119061459Y-128600500D01*
X119258543Y-128600500D01*
X119388582Y-128574632D01*
X119451835Y-128562051D01*
X119633914Y-128486632D01*
X119797782Y-128377139D01*
X119937139Y-128237782D01*
X120046632Y-128073914D01*
X120122051Y-127891835D01*
X120160500Y-127698543D01*
X126799499Y-127698543D01*
X126837947Y-127891829D01*
X126837950Y-127891839D01*
X126913364Y-128073907D01*
X126913371Y-128073920D01*
X127022860Y-128237781D01*
X127022863Y-128237785D01*
X127162214Y-128377136D01*
X127162218Y-128377139D01*
X127326079Y-128486628D01*
X127326092Y-128486635D01*
X127508160Y-128562049D01*
X127508165Y-128562051D01*
X127508169Y-128562051D01*
X127508170Y-128562052D01*
X127701456Y-128600500D01*
X127701459Y-128600500D01*
X127898543Y-128600500D01*
X128028582Y-128574632D01*
X128091835Y-128562051D01*
X128273914Y-128486632D01*
X128437782Y-128377139D01*
X128577139Y-128237782D01*
X128686632Y-128073914D01*
X128762051Y-127891835D01*
X128800500Y-127698543D01*
X139559499Y-127698543D01*
X139597947Y-127891829D01*
X139597950Y-127891839D01*
X139673364Y-128073907D01*
X139673371Y-128073920D01*
X139782860Y-128237781D01*
X139782863Y-128237785D01*
X139922214Y-128377136D01*
X139922218Y-128377139D01*
X140086079Y-128486628D01*
X140086092Y-128486635D01*
X140268160Y-128562049D01*
X140268165Y-128562051D01*
X140268169Y-128562051D01*
X140268170Y-128562052D01*
X140461456Y-128600500D01*
X140461459Y-128600500D01*
X140658543Y-128600500D01*
X140788582Y-128574632D01*
X140851835Y-128562051D01*
X141033914Y-128486632D01*
X141197782Y-128377139D01*
X141337139Y-128237782D01*
X141446632Y-128073914D01*
X141522051Y-127891835D01*
X141560500Y-127698543D01*
X148199499Y-127698543D01*
X148237947Y-127891829D01*
X148237950Y-127891839D01*
X148313364Y-128073907D01*
X148313371Y-128073920D01*
X148422860Y-128237781D01*
X148422863Y-128237785D01*
X148562214Y-128377136D01*
X148562218Y-128377139D01*
X148726079Y-128486628D01*
X148726092Y-128486635D01*
X148908160Y-128562049D01*
X148908165Y-128562051D01*
X148908169Y-128562051D01*
X148908170Y-128562052D01*
X149101456Y-128600500D01*
X149101459Y-128600500D01*
X149298543Y-128600500D01*
X149428582Y-128574632D01*
X149491835Y-128562051D01*
X149673914Y-128486632D01*
X149837782Y-128377139D01*
X149977139Y-128237782D01*
X150086632Y-128073914D01*
X150162051Y-127891835D01*
X150200500Y-127698543D01*
X161109499Y-127698543D01*
X161147947Y-127891829D01*
X161147950Y-127891839D01*
X161223364Y-128073907D01*
X161223371Y-128073920D01*
X161332860Y-128237781D01*
X161332863Y-128237785D01*
X161472214Y-128377136D01*
X161472218Y-128377139D01*
X161636079Y-128486628D01*
X161636092Y-128486635D01*
X161818160Y-128562049D01*
X161818165Y-128562051D01*
X161818169Y-128562051D01*
X161818170Y-128562052D01*
X162011456Y-128600500D01*
X162011459Y-128600500D01*
X162208543Y-128600500D01*
X162338582Y-128574632D01*
X162401835Y-128562051D01*
X162583914Y-128486632D01*
X162747782Y-128377139D01*
X162887139Y-128237782D01*
X162996632Y-128073914D01*
X163072051Y-127891835D01*
X163110500Y-127698543D01*
X169749499Y-127698543D01*
X169787947Y-127891829D01*
X169787950Y-127891839D01*
X169863364Y-128073907D01*
X169863371Y-128073920D01*
X169972860Y-128237781D01*
X169972863Y-128237785D01*
X170112214Y-128377136D01*
X170112218Y-128377139D01*
X170276079Y-128486628D01*
X170276092Y-128486635D01*
X170458160Y-128562049D01*
X170458165Y-128562051D01*
X170458169Y-128562051D01*
X170458170Y-128562052D01*
X170651456Y-128600500D01*
X170651459Y-128600500D01*
X170848543Y-128600500D01*
X170978582Y-128574632D01*
X171041835Y-128562051D01*
X171223914Y-128486632D01*
X171387782Y-128377139D01*
X171527139Y-128237782D01*
X171636632Y-128073914D01*
X171712051Y-127891835D01*
X171750500Y-127698541D01*
X171750500Y-126701459D01*
X171750500Y-126701456D01*
X171712052Y-126508170D01*
X171712051Y-126508169D01*
X171712051Y-126508165D01*
X171712049Y-126508160D01*
X171636635Y-126326092D01*
X171636628Y-126326079D01*
X171527139Y-126162218D01*
X171527136Y-126162214D01*
X171387785Y-126022863D01*
X171387781Y-126022860D01*
X171223920Y-125913371D01*
X171223907Y-125913364D01*
X171041839Y-125837950D01*
X171041829Y-125837947D01*
X170848543Y-125799500D01*
X170848541Y-125799500D01*
X170651459Y-125799500D01*
X170651457Y-125799500D01*
X170458170Y-125837947D01*
X170458160Y-125837950D01*
X170276092Y-125913364D01*
X170276079Y-125913371D01*
X170112218Y-126022860D01*
X170112214Y-126022863D01*
X169972863Y-126162214D01*
X169972860Y-126162218D01*
X169863371Y-126326079D01*
X169863364Y-126326092D01*
X169787950Y-126508160D01*
X169787947Y-126508170D01*
X169749500Y-126701456D01*
X169749500Y-126701459D01*
X169749500Y-127698541D01*
X169749500Y-127698543D01*
X169749499Y-127698543D01*
X163110500Y-127698543D01*
X163110500Y-127698541D01*
X163110500Y-126701459D01*
X163110500Y-126701456D01*
X163072052Y-126508170D01*
X163072051Y-126508169D01*
X163072051Y-126508165D01*
X163072049Y-126508160D01*
X162996635Y-126326092D01*
X162996628Y-126326079D01*
X162887139Y-126162218D01*
X162887136Y-126162214D01*
X162747785Y-126022863D01*
X162747781Y-126022860D01*
X162583920Y-125913371D01*
X162583907Y-125913364D01*
X162401839Y-125837950D01*
X162401829Y-125837947D01*
X162208543Y-125799500D01*
X162208541Y-125799500D01*
X162011459Y-125799500D01*
X162011457Y-125799500D01*
X161818170Y-125837947D01*
X161818160Y-125837950D01*
X161636092Y-125913364D01*
X161636079Y-125913371D01*
X161472218Y-126022860D01*
X161472214Y-126022863D01*
X161332863Y-126162214D01*
X161332860Y-126162218D01*
X161223371Y-126326079D01*
X161223364Y-126326092D01*
X161147950Y-126508160D01*
X161147947Y-126508170D01*
X161109500Y-126701456D01*
X161109500Y-126701459D01*
X161109500Y-127698541D01*
X161109500Y-127698543D01*
X161109499Y-127698543D01*
X150200500Y-127698543D01*
X150200500Y-127698541D01*
X150200500Y-126701459D01*
X150200500Y-126701456D01*
X150162052Y-126508170D01*
X150162051Y-126508169D01*
X150162051Y-126508165D01*
X150162049Y-126508160D01*
X150086635Y-126326092D01*
X150086628Y-126326079D01*
X149977139Y-126162218D01*
X149977136Y-126162214D01*
X149837785Y-126022863D01*
X149837781Y-126022860D01*
X149673920Y-125913371D01*
X149673907Y-125913364D01*
X149491839Y-125837950D01*
X149491829Y-125837947D01*
X149298543Y-125799500D01*
X149298541Y-125799500D01*
X149101459Y-125799500D01*
X149101457Y-125799500D01*
X148908170Y-125837947D01*
X148908160Y-125837950D01*
X148726092Y-125913364D01*
X148726079Y-125913371D01*
X148562218Y-126022860D01*
X148562214Y-126022863D01*
X148422863Y-126162214D01*
X148422860Y-126162218D01*
X148313371Y-126326079D01*
X148313364Y-126326092D01*
X148237950Y-126508160D01*
X148237947Y-126508170D01*
X148199500Y-126701456D01*
X148199500Y-126701459D01*
X148199500Y-127698541D01*
X148199500Y-127698543D01*
X148199499Y-127698543D01*
X141560500Y-127698543D01*
X141560500Y-127698541D01*
X141560500Y-126701459D01*
X141560500Y-126701456D01*
X141522052Y-126508170D01*
X141522051Y-126508169D01*
X141522051Y-126508165D01*
X141522049Y-126508160D01*
X141446635Y-126326092D01*
X141446628Y-126326079D01*
X141337139Y-126162218D01*
X141337136Y-126162214D01*
X141197785Y-126022863D01*
X141197781Y-126022860D01*
X141033920Y-125913371D01*
X141033907Y-125913364D01*
X140851839Y-125837950D01*
X140851829Y-125837947D01*
X140658543Y-125799500D01*
X140658541Y-125799500D01*
X140461459Y-125799500D01*
X140461457Y-125799500D01*
X140268170Y-125837947D01*
X140268160Y-125837950D01*
X140086092Y-125913364D01*
X140086079Y-125913371D01*
X139922218Y-126022860D01*
X139922214Y-126022863D01*
X139782863Y-126162214D01*
X139782860Y-126162218D01*
X139673371Y-126326079D01*
X139673364Y-126326092D01*
X139597950Y-126508160D01*
X139597947Y-126508170D01*
X139559500Y-126701456D01*
X139559500Y-126701459D01*
X139559500Y-127698541D01*
X139559500Y-127698543D01*
X139559499Y-127698543D01*
X128800500Y-127698543D01*
X128800500Y-127698541D01*
X128800500Y-126701459D01*
X128800500Y-126701456D01*
X128762052Y-126508170D01*
X128762051Y-126508169D01*
X128762051Y-126508165D01*
X128762049Y-126508160D01*
X128686635Y-126326092D01*
X128686628Y-126326079D01*
X128577139Y-126162218D01*
X128577136Y-126162214D01*
X128437785Y-126022863D01*
X128437781Y-126022860D01*
X128273920Y-125913371D01*
X128273907Y-125913364D01*
X128091839Y-125837950D01*
X128091829Y-125837947D01*
X127898543Y-125799500D01*
X127898541Y-125799500D01*
X127701459Y-125799500D01*
X127701457Y-125799500D01*
X127508170Y-125837947D01*
X127508160Y-125837950D01*
X127326092Y-125913364D01*
X127326079Y-125913371D01*
X127162218Y-126022860D01*
X127162214Y-126022863D01*
X127022863Y-126162214D01*
X127022860Y-126162218D01*
X126913371Y-126326079D01*
X126913364Y-126326092D01*
X126837950Y-126508160D01*
X126837947Y-126508170D01*
X126799500Y-126701456D01*
X126799500Y-126701459D01*
X126799500Y-127698541D01*
X126799500Y-127698543D01*
X126799499Y-127698543D01*
X120160500Y-127698543D01*
X120160500Y-127698541D01*
X120160500Y-126701459D01*
X120160500Y-126701456D01*
X120122052Y-126508170D01*
X120122051Y-126508169D01*
X120122051Y-126508165D01*
X120122049Y-126508160D01*
X120046635Y-126326092D01*
X120046628Y-126326079D01*
X119937139Y-126162218D01*
X119937136Y-126162214D01*
X119797785Y-126022863D01*
X119797781Y-126022860D01*
X119633920Y-125913371D01*
X119633907Y-125913364D01*
X119451839Y-125837950D01*
X119451829Y-125837947D01*
X119258543Y-125799500D01*
X119258541Y-125799500D01*
X119061459Y-125799500D01*
X119061457Y-125799500D01*
X118868170Y-125837947D01*
X118868160Y-125837950D01*
X118686092Y-125913364D01*
X118686079Y-125913371D01*
X118522218Y-126022860D01*
X118522214Y-126022863D01*
X118382863Y-126162214D01*
X118382860Y-126162218D01*
X118273371Y-126326079D01*
X118273364Y-126326092D01*
X118197950Y-126508160D01*
X118197947Y-126508170D01*
X118159500Y-126701456D01*
X118159500Y-126701459D01*
X118159500Y-127698541D01*
X118159500Y-127698543D01*
X118159499Y-127698543D01*
X110500500Y-127698543D01*
X110500500Y-123648543D01*
X118159499Y-123648543D01*
X118197947Y-123841829D01*
X118197950Y-123841839D01*
X118273364Y-124023907D01*
X118273371Y-124023920D01*
X118382860Y-124187781D01*
X118382863Y-124187785D01*
X118522214Y-124327136D01*
X118522218Y-124327139D01*
X118686079Y-124436628D01*
X118686092Y-124436635D01*
X118868160Y-124512049D01*
X118868165Y-124512051D01*
X118868169Y-124512051D01*
X118868170Y-124512052D01*
X119061456Y-124550500D01*
X119061459Y-124550500D01*
X119258543Y-124550500D01*
X119388582Y-124524632D01*
X119451835Y-124512051D01*
X119633914Y-124436632D01*
X119797782Y-124327139D01*
X119937139Y-124187782D01*
X120046632Y-124023914D01*
X120046635Y-124023906D01*
X120049446Y-124018648D01*
X120098405Y-123968800D01*
X120166542Y-123953335D01*
X120232223Y-123977163D01*
X120234300Y-123978722D01*
X120236632Y-123980512D01*
X120236635Y-123980515D01*
X120367865Y-124056281D01*
X120514234Y-124095500D01*
X120514236Y-124095500D01*
X120665764Y-124095500D01*
X120665766Y-124095500D01*
X120812135Y-124056281D01*
X120943365Y-123980515D01*
X121050515Y-123873365D01*
X121126281Y-123742135D01*
X121165500Y-123595766D01*
X121165500Y-123578174D01*
X121185185Y-123511135D01*
X121237989Y-123465380D01*
X121307147Y-123455436D01*
X121332833Y-123461992D01*
X121337668Y-123463795D01*
X121337669Y-123463796D01*
X121472517Y-123514091D01*
X121532127Y-123520500D01*
X121927872Y-123520499D01*
X121927873Y-123520498D01*
X121927885Y-123520498D01*
X121966744Y-123516320D01*
X121993252Y-123516320D01*
X122032127Y-123520500D01*
X122109635Y-123520499D01*
X122176674Y-123540183D01*
X122217023Y-123582499D01*
X122249477Y-123638712D01*
X122249479Y-123638715D01*
X122249480Y-123638716D01*
X122299480Y-123688716D01*
X122352899Y-123742135D01*
X122411284Y-123800520D01*
X122411286Y-123800521D01*
X122411290Y-123800524D01*
X122501656Y-123852696D01*
X122548216Y-123879577D01*
X122700943Y-123920501D01*
X122700945Y-123920501D01*
X122866654Y-123920501D01*
X122866670Y-123920500D01*
X123593331Y-123920500D01*
X123593347Y-123920501D01*
X123600943Y-123920501D01*
X123759054Y-123920501D01*
X123759057Y-123920501D01*
X123911785Y-123879577D01*
X123961904Y-123850639D01*
X124048716Y-123800520D01*
X124160520Y-123688716D01*
X124210520Y-123638716D01*
X124242975Y-123582501D01*
X124293541Y-123534284D01*
X124350363Y-123520499D01*
X124427872Y-123520499D01*
X124427885Y-123520498D01*
X124466744Y-123516320D01*
X124493252Y-123516320D01*
X124532127Y-123520500D01*
X124927872Y-123520499D01*
X124927873Y-123520498D01*
X124927885Y-123520498D01*
X124966744Y-123516320D01*
X124993252Y-123516320D01*
X125032127Y-123520500D01*
X125427872Y-123520499D01*
X125487483Y-123514091D01*
X125622331Y-123463796D01*
X125622331Y-123463795D01*
X125627167Y-123461992D01*
X125696858Y-123457008D01*
X125758181Y-123490493D01*
X125791666Y-123551816D01*
X125794500Y-123578174D01*
X125794500Y-123595765D01*
X125833719Y-123742136D01*
X125867427Y-123800518D01*
X125909485Y-123873365D01*
X126016635Y-123980515D01*
X126147865Y-124056281D01*
X126294234Y-124095500D01*
X126294236Y-124095500D01*
X126445764Y-124095500D01*
X126445766Y-124095500D01*
X126592135Y-124056281D01*
X126723365Y-123980515D01*
X126723372Y-123980507D01*
X126725694Y-123978726D01*
X126728021Y-123977825D01*
X126730403Y-123976451D01*
X126730617Y-123976822D01*
X126790861Y-123953525D01*
X126859307Y-123967556D01*
X126909302Y-124016365D01*
X126910551Y-124018644D01*
X126913369Y-124023916D01*
X127022860Y-124187781D01*
X127022863Y-124187785D01*
X127162214Y-124327136D01*
X127162218Y-124327139D01*
X127326079Y-124436628D01*
X127326092Y-124436635D01*
X127508160Y-124512049D01*
X127508165Y-124512051D01*
X127508169Y-124512051D01*
X127508170Y-124512052D01*
X127701456Y-124550500D01*
X127701459Y-124550500D01*
X127898543Y-124550500D01*
X128028582Y-124524632D01*
X128091835Y-124512051D01*
X128273914Y-124436632D01*
X128437782Y-124327139D01*
X128577139Y-124187782D01*
X128686632Y-124023914D01*
X128762051Y-123841835D01*
X128800500Y-123648541D01*
X128800500Y-122351459D01*
X128800500Y-122351456D01*
X128762052Y-122158170D01*
X128762051Y-122158169D01*
X128762051Y-122158165D01*
X128762049Y-122158160D01*
X128686635Y-121976092D01*
X128686628Y-121976079D01*
X128577139Y-121812218D01*
X128577136Y-121812214D01*
X128437785Y-121672863D01*
X128437781Y-121672860D01*
X128273920Y-121563371D01*
X128273907Y-121563364D01*
X128091839Y-121487950D01*
X128091827Y-121487947D01*
X128087514Y-121487089D01*
X128025603Y-121454704D01*
X127991029Y-121393989D01*
X127988485Y-121351588D01*
X127990219Y-121336204D01*
X128005565Y-121200000D01*
X128003341Y-121180263D01*
X127985369Y-121020750D01*
X127985368Y-121020745D01*
X127960325Y-120949177D01*
X127925789Y-120850478D01*
X127829816Y-120697738D01*
X127702262Y-120570184D01*
X127676480Y-120553984D01*
X127549523Y-120474211D01*
X127379254Y-120414631D01*
X127379249Y-120414630D01*
X127200004Y-120394435D01*
X127199996Y-120394435D01*
X127163108Y-120398591D01*
X127094286Y-120386536D01*
X127042907Y-120339187D01*
X127025283Y-120271576D01*
X127047010Y-120205171D01*
X127061544Y-120187690D01*
X127266402Y-119982832D01*
X127482912Y-119766321D01*
X127544233Y-119732838D01*
X127613924Y-119737822D01*
X127626233Y-119743189D01*
X127705170Y-119782832D01*
X127705172Y-119782833D01*
X127847715Y-119816617D01*
X127875883Y-119823293D01*
X127875886Y-119823293D01*
X128051322Y-119823293D01*
X128051325Y-119823293D01*
X128173082Y-119794435D01*
X128222034Y-119782833D01*
X128222035Y-119782832D01*
X128222037Y-119782832D01*
X128378818Y-119704095D01*
X128458926Y-119638838D01*
X129024622Y-119073140D01*
X129089881Y-118993032D01*
X129168618Y-118836251D01*
X129177329Y-118799500D01*
X129196447Y-118718834D01*
X129209079Y-118665539D01*
X129209079Y-118533079D01*
X129228764Y-118466040D01*
X129281568Y-118420285D01*
X129333079Y-118409079D01*
X129465536Y-118409079D01*
X129465539Y-118409079D01*
X129571727Y-118383911D01*
X129636248Y-118368619D01*
X129636249Y-118368618D01*
X129636251Y-118368618D01*
X129793032Y-118289881D01*
X129873140Y-118224624D01*
X130438836Y-117658926D01*
X130504095Y-117578818D01*
X130582832Y-117422037D01*
X130623293Y-117251325D01*
X130623293Y-117075883D01*
X130599061Y-116973642D01*
X130582833Y-116905172D01*
X130543500Y-116826853D01*
X130504095Y-116748389D01*
X130438838Y-116668282D01*
X129731718Y-115961164D01*
X129651611Y-115895905D01*
X129651607Y-115895903D01*
X129651606Y-115895902D01*
X129628977Y-115884538D01*
X129577902Y-115836861D01*
X129560711Y-115769140D01*
X129582862Y-115702874D01*
X129596939Y-115686052D01*
X142855321Y-102427671D01*
X142916642Y-102394188D01*
X142986334Y-102399172D01*
X143042267Y-102441044D01*
X143066684Y-102506508D01*
X143067000Y-102515354D01*
X143067000Y-114926613D01*
X143047315Y-114993652D01*
X142994511Y-115039407D01*
X142925353Y-115049351D01*
X142877904Y-115032152D01*
X142769334Y-114965186D01*
X142602797Y-114910001D01*
X142602795Y-114910000D01*
X142500010Y-114899500D01*
X141499998Y-114899500D01*
X141499980Y-114899501D01*
X141397203Y-114910000D01*
X141397200Y-114910001D01*
X141230668Y-114965185D01*
X141230663Y-114965187D01*
X141081342Y-115057289D01*
X140957289Y-115181342D01*
X140865187Y-115330663D01*
X140865186Y-115330666D01*
X140810001Y-115497203D01*
X140810001Y-115497204D01*
X140810000Y-115497204D01*
X140799500Y-115599983D01*
X140799500Y-116400001D01*
X140799501Y-116400019D01*
X140810000Y-116502796D01*
X140810001Y-116502799D01*
X140865185Y-116669331D01*
X140865187Y-116669336D01*
X140957289Y-116818657D01*
X141050951Y-116912319D01*
X141084436Y-116973642D01*
X141079452Y-117043334D01*
X141050951Y-117087681D01*
X140957289Y-117181342D01*
X140865187Y-117330663D01*
X140865186Y-117330666D01*
X140810001Y-117497203D01*
X140810001Y-117497204D01*
X140810000Y-117497204D01*
X140799500Y-117599983D01*
X140799500Y-118400001D01*
X140799501Y-118400019D01*
X140810000Y-118502796D01*
X140810001Y-118502799D01*
X140865185Y-118669331D01*
X140865187Y-118669336D01*
X140880912Y-118694830D01*
X140957288Y-118818656D01*
X141081344Y-118942712D01*
X141230666Y-119034814D01*
X141314505Y-119062595D01*
X141371948Y-119102366D01*
X141398772Y-119166882D01*
X141399500Y-119180300D01*
X141399500Y-119713330D01*
X141399499Y-119713348D01*
X141399499Y-119879054D01*
X141399498Y-119879054D01*
X141440423Y-120031785D01*
X141455499Y-120057898D01*
X141464918Y-120074211D01*
X141496855Y-120129528D01*
X141519479Y-120168714D01*
X141519481Y-120168717D01*
X141638349Y-120287585D01*
X141638355Y-120287590D01*
X142611022Y-121260257D01*
X142644507Y-121321580D01*
X142639523Y-121391272D01*
X142622607Y-121422250D01*
X142622454Y-121422453D01*
X142622454Y-121422454D01*
X142620677Y-121424828D01*
X142579266Y-121480145D01*
X142523332Y-121522015D01*
X142453640Y-121526999D01*
X142392317Y-121493513D01*
X142380734Y-121480145D01*
X142342661Y-121429287D01*
X142337546Y-121422454D01*
X142337544Y-121422453D01*
X142337544Y-121422452D01*
X142222335Y-121336206D01*
X142222328Y-121336202D01*
X142087486Y-121285910D01*
X142087485Y-121285909D01*
X142087483Y-121285909D01*
X142027873Y-121279500D01*
X142027863Y-121279500D01*
X141332129Y-121279500D01*
X141332123Y-121279501D01*
X141272516Y-121285908D01*
X141137671Y-121336202D01*
X141137664Y-121336206D01*
X141022457Y-121422451D01*
X141022449Y-121422459D01*
X141002369Y-121449282D01*
X140946435Y-121491152D01*
X140876743Y-121496135D01*
X140855650Y-121489529D01*
X140851839Y-121487950D01*
X140851829Y-121487947D01*
X140658543Y-121449500D01*
X140658541Y-121449500D01*
X140461459Y-121449500D01*
X140461457Y-121449500D01*
X140268170Y-121487947D01*
X140268160Y-121487950D01*
X140086092Y-121563364D01*
X140086079Y-121563371D01*
X139922218Y-121672860D01*
X139922214Y-121672863D01*
X139782863Y-121812214D01*
X139782860Y-121812218D01*
X139673371Y-121976079D01*
X139673364Y-121976092D01*
X139597950Y-122158160D01*
X139597947Y-122158170D01*
X139559500Y-122351456D01*
X139559500Y-122351459D01*
X139559500Y-123648541D01*
X139559500Y-123648543D01*
X139559499Y-123648543D01*
X139597947Y-123841829D01*
X139597950Y-123841839D01*
X139673364Y-124023907D01*
X139673371Y-124023920D01*
X139782860Y-124187781D01*
X139782863Y-124187785D01*
X139922214Y-124327136D01*
X139922218Y-124327139D01*
X140086079Y-124436628D01*
X140086092Y-124436635D01*
X140268160Y-124512049D01*
X140268165Y-124512051D01*
X140268169Y-124512051D01*
X140268170Y-124512052D01*
X140461456Y-124550500D01*
X140461459Y-124550500D01*
X140658543Y-124550500D01*
X140788582Y-124524632D01*
X140851835Y-124512051D01*
X141033914Y-124436632D01*
X141197782Y-124327139D01*
X141337139Y-124187782D01*
X141446632Y-124023914D01*
X141446635Y-124023906D01*
X141449446Y-124018648D01*
X141498405Y-123968800D01*
X141566542Y-123953335D01*
X141632223Y-123977163D01*
X141634300Y-123978722D01*
X141636632Y-123980512D01*
X141636635Y-123980515D01*
X141767865Y-124056281D01*
X141914234Y-124095500D01*
X141914236Y-124095500D01*
X142065764Y-124095500D01*
X142065766Y-124095500D01*
X142212135Y-124056281D01*
X142343365Y-123980515D01*
X142450515Y-123873365D01*
X142526281Y-123742135D01*
X142565500Y-123595766D01*
X142565500Y-123578174D01*
X142585185Y-123511135D01*
X142637989Y-123465380D01*
X142707147Y-123455436D01*
X142732833Y-123461992D01*
X142737668Y-123463795D01*
X142737669Y-123463796D01*
X142872517Y-123514091D01*
X142932127Y-123520500D01*
X143327872Y-123520499D01*
X143327873Y-123520498D01*
X143327885Y-123520498D01*
X143366744Y-123516320D01*
X143393252Y-123516320D01*
X143432127Y-123520500D01*
X143509635Y-123520499D01*
X143576674Y-123540183D01*
X143617023Y-123582499D01*
X143649477Y-123638712D01*
X143649479Y-123638715D01*
X143649480Y-123638716D01*
X143699480Y-123688716D01*
X143752899Y-123742135D01*
X143811284Y-123800520D01*
X143811286Y-123800521D01*
X143811290Y-123800524D01*
X143901656Y-123852696D01*
X143948216Y-123879577D01*
X144100943Y-123920501D01*
X144100945Y-123920501D01*
X144266654Y-123920501D01*
X144266670Y-123920500D01*
X144993331Y-123920500D01*
X144993347Y-123920501D01*
X145000943Y-123920501D01*
X145159054Y-123920501D01*
X145159057Y-123920501D01*
X145311785Y-123879577D01*
X145361904Y-123850639D01*
X145448716Y-123800520D01*
X145560520Y-123688716D01*
X145610520Y-123638716D01*
X145642975Y-123582501D01*
X145693541Y-123534284D01*
X145750363Y-123520499D01*
X145827872Y-123520499D01*
X145827885Y-123520498D01*
X145866744Y-123516320D01*
X145893252Y-123516320D01*
X145932127Y-123520500D01*
X146327872Y-123520499D01*
X146327873Y-123520498D01*
X146327885Y-123520498D01*
X146366744Y-123516320D01*
X146393252Y-123516320D01*
X146432127Y-123520500D01*
X146827872Y-123520499D01*
X146887483Y-123514091D01*
X147022331Y-123463796D01*
X147022331Y-123463795D01*
X147027167Y-123461992D01*
X147096858Y-123457008D01*
X147158181Y-123490493D01*
X147191666Y-123551816D01*
X147194500Y-123578174D01*
X147194500Y-123595765D01*
X147233719Y-123742136D01*
X147267427Y-123800518D01*
X147309485Y-123873365D01*
X147416635Y-123980515D01*
X147547865Y-124056281D01*
X147694234Y-124095500D01*
X147694236Y-124095500D01*
X147845764Y-124095500D01*
X147845766Y-124095500D01*
X147992135Y-124056281D01*
X148123365Y-123980515D01*
X148123372Y-123980507D01*
X148125694Y-123978726D01*
X148128021Y-123977825D01*
X148130403Y-123976451D01*
X148130617Y-123976822D01*
X148190861Y-123953525D01*
X148259307Y-123967556D01*
X148309302Y-124016365D01*
X148310551Y-124018644D01*
X148313369Y-124023916D01*
X148422860Y-124187781D01*
X148422863Y-124187785D01*
X148562214Y-124327136D01*
X148562218Y-124327139D01*
X148726079Y-124436628D01*
X148726092Y-124436635D01*
X148908160Y-124512049D01*
X148908165Y-124512051D01*
X148908169Y-124512051D01*
X148908170Y-124512052D01*
X149101456Y-124550500D01*
X149101459Y-124550500D01*
X149298543Y-124550500D01*
X149428582Y-124524632D01*
X149491835Y-124512051D01*
X149673914Y-124436632D01*
X149837782Y-124327139D01*
X149977139Y-124187782D01*
X150086632Y-124023914D01*
X150162051Y-123841835D01*
X150200500Y-123648541D01*
X150200500Y-122351459D01*
X150200500Y-122351456D01*
X150162052Y-122158170D01*
X150162051Y-122158169D01*
X150162051Y-122158165D01*
X150162049Y-122158160D01*
X150086635Y-121976092D01*
X150086628Y-121976079D01*
X149977139Y-121812218D01*
X149977136Y-121812214D01*
X149837785Y-121672863D01*
X149837781Y-121672860D01*
X149673920Y-121563371D01*
X149673907Y-121563364D01*
X149491839Y-121487950D01*
X149491829Y-121487947D01*
X149298543Y-121449500D01*
X149298541Y-121449500D01*
X149101459Y-121449500D01*
X149101457Y-121449500D01*
X148908171Y-121487947D01*
X148908165Y-121487949D01*
X148904336Y-121489535D01*
X148834866Y-121496997D01*
X148772389Y-121465716D01*
X148757629Y-121449282D01*
X148737546Y-121422454D01*
X148737544Y-121422452D01*
X148737543Y-121422451D01*
X148622335Y-121336206D01*
X148622328Y-121336202D01*
X148487486Y-121285910D01*
X148487485Y-121285909D01*
X148487483Y-121285909D01*
X148427873Y-121279500D01*
X148427863Y-121279500D01*
X147732129Y-121279500D01*
X147732123Y-121279501D01*
X147672516Y-121285908D01*
X147537671Y-121336202D01*
X147537669Y-121336204D01*
X147428811Y-121417695D01*
X147363347Y-121442112D01*
X147295074Y-121427260D01*
X147245668Y-121377855D01*
X147230500Y-121318428D01*
X147230500Y-120919059D01*
X147230501Y-120919046D01*
X147230501Y-120750945D01*
X147230501Y-120750943D01*
X147189577Y-120598215D01*
X147147931Y-120526083D01*
X147147931Y-120526081D01*
X147110524Y-120461290D01*
X147110521Y-120461286D01*
X147110520Y-120461284D01*
X146998716Y-120349480D01*
X146998715Y-120349479D01*
X146994385Y-120345149D01*
X146994374Y-120345139D01*
X146236819Y-119587584D01*
X146203334Y-119526261D01*
X146200500Y-119499903D01*
X146200500Y-119180300D01*
X146220185Y-119113261D01*
X146272989Y-119067506D01*
X146285482Y-119062599D01*
X146369334Y-119034814D01*
X146518656Y-118942712D01*
X146642712Y-118818656D01*
X146734814Y-118669334D01*
X146789999Y-118502797D01*
X146800500Y-118400009D01*
X146800499Y-117599992D01*
X146793420Y-117530697D01*
X146789999Y-117497203D01*
X146789998Y-117497200D01*
X146774799Y-117451332D01*
X146734814Y-117330666D01*
X146642712Y-117181344D01*
X146549049Y-117087681D01*
X146515564Y-117026358D01*
X146520548Y-116956666D01*
X146549049Y-116912319D01*
X146593090Y-116868278D01*
X146642712Y-116818656D01*
X146734814Y-116669334D01*
X146789999Y-116502797D01*
X146800500Y-116400009D01*
X146800499Y-115599992D01*
X146799355Y-115588797D01*
X146789999Y-115497203D01*
X146789998Y-115497200D01*
X146734814Y-115330666D01*
X146642712Y-115181344D01*
X146518656Y-115057288D01*
X146369334Y-114965186D01*
X146202797Y-114910001D01*
X146202795Y-114910000D01*
X146100010Y-114899500D01*
X145099998Y-114899500D01*
X145099980Y-114899501D01*
X144997203Y-114910000D01*
X144997199Y-114910001D01*
X144881004Y-114948505D01*
X144811175Y-114950907D01*
X144751134Y-114915175D01*
X144719941Y-114852654D01*
X144718000Y-114830799D01*
X144718000Y-102466597D01*
X144737685Y-102399558D01*
X144790489Y-102353803D01*
X144859647Y-102343859D01*
X144923203Y-102372884D01*
X144929681Y-102378916D01*
X158425525Y-115874760D01*
X158459010Y-115936083D01*
X158454026Y-116005775D01*
X158412154Y-116061708D01*
X158393497Y-116073251D01*
X158348389Y-116095905D01*
X158348382Y-116095910D01*
X158268292Y-116161153D01*
X158268274Y-116161169D01*
X157561167Y-116868278D01*
X157561158Y-116868288D01*
X157495904Y-116948390D01*
X157417166Y-117105172D01*
X157376708Y-117275875D01*
X157376707Y-117275886D01*
X157376707Y-117451321D01*
X157376708Y-117451332D01*
X157417166Y-117622034D01*
X157443413Y-117674297D01*
X157495905Y-117778818D01*
X157495907Y-117778821D01*
X157495909Y-117778824D01*
X157561152Y-117858914D01*
X157561162Y-117858926D01*
X158126860Y-118424622D01*
X158206968Y-118489881D01*
X158363749Y-118568618D01*
X158363751Y-118568619D01*
X158496071Y-118599980D01*
X158534461Y-118609079D01*
X158534464Y-118609079D01*
X158666921Y-118609079D01*
X158733960Y-118628764D01*
X158779715Y-118681568D01*
X158790921Y-118733079D01*
X158790921Y-118865535D01*
X158790922Y-118865546D01*
X158831380Y-119036248D01*
X158857627Y-119088511D01*
X158910119Y-119193032D01*
X158910121Y-119193035D01*
X158910123Y-119193038D01*
X158975366Y-119273128D01*
X158975376Y-119273140D01*
X159541074Y-119838836D01*
X159621182Y-119904095D01*
X159777963Y-119982832D01*
X159777965Y-119982833D01*
X159912133Y-120014632D01*
X159948675Y-120023293D01*
X159948678Y-120023293D01*
X160124114Y-120023293D01*
X160124117Y-120023293D01*
X160294830Y-119982832D01*
X160373758Y-119943193D01*
X160442498Y-119930697D01*
X160507085Y-119957349D01*
X160517088Y-119966323D01*
X161315139Y-120764374D01*
X161315149Y-120764385D01*
X161319479Y-120768715D01*
X161319480Y-120768716D01*
X161431284Y-120880520D01*
X161431286Y-120880521D01*
X161431290Y-120880524D01*
X161500394Y-120920421D01*
X161500398Y-120920422D01*
X161500399Y-120920423D01*
X161531215Y-120938215D01*
X161568212Y-120959576D01*
X161568214Y-120959576D01*
X161568215Y-120959577D01*
X161720942Y-121000500D01*
X161720943Y-121000500D01*
X163749903Y-121000500D01*
X163816942Y-121020185D01*
X163837584Y-121036819D01*
X163996767Y-121196002D01*
X164030252Y-121257325D01*
X164025268Y-121327017D01*
X163983396Y-121382950D01*
X163917932Y-121407367D01*
X163849659Y-121392515D01*
X163834775Y-121382949D01*
X163772335Y-121336206D01*
X163772328Y-121336202D01*
X163637486Y-121285910D01*
X163637485Y-121285909D01*
X163637483Y-121285909D01*
X163577873Y-121279500D01*
X163577863Y-121279500D01*
X162882129Y-121279500D01*
X162882123Y-121279501D01*
X162822516Y-121285908D01*
X162687671Y-121336202D01*
X162687664Y-121336206D01*
X162572457Y-121422451D01*
X162572449Y-121422459D01*
X162552369Y-121449282D01*
X162496435Y-121491152D01*
X162426743Y-121496135D01*
X162405650Y-121489529D01*
X162401839Y-121487950D01*
X162401829Y-121487947D01*
X162208543Y-121449500D01*
X162208541Y-121449500D01*
X162011459Y-121449500D01*
X162011457Y-121449500D01*
X161818170Y-121487947D01*
X161818160Y-121487950D01*
X161636092Y-121563364D01*
X161636079Y-121563371D01*
X161472218Y-121672860D01*
X161472214Y-121672863D01*
X161332863Y-121812214D01*
X161332860Y-121812218D01*
X161223371Y-121976079D01*
X161223364Y-121976092D01*
X161147950Y-122158160D01*
X161147947Y-122158170D01*
X161109500Y-122351456D01*
X161109500Y-122351459D01*
X161109500Y-123648541D01*
X161109500Y-123648543D01*
X161109499Y-123648543D01*
X161147947Y-123841829D01*
X161147950Y-123841839D01*
X161223364Y-124023907D01*
X161223371Y-124023920D01*
X161332860Y-124187781D01*
X161332863Y-124187785D01*
X161472214Y-124327136D01*
X161472218Y-124327139D01*
X161636079Y-124436628D01*
X161636092Y-124436635D01*
X161818160Y-124512049D01*
X161818165Y-124512051D01*
X161818169Y-124512051D01*
X161818170Y-124512052D01*
X162011456Y-124550500D01*
X162011459Y-124550500D01*
X162208543Y-124550500D01*
X162338582Y-124524632D01*
X162401835Y-124512051D01*
X162583914Y-124436632D01*
X162747782Y-124327139D01*
X162887139Y-124187782D01*
X162996632Y-124023914D01*
X162996635Y-124023906D01*
X162999446Y-124018648D01*
X163048405Y-123968800D01*
X163116542Y-123953335D01*
X163182223Y-123977163D01*
X163184300Y-123978722D01*
X163186632Y-123980512D01*
X163186635Y-123980515D01*
X163317865Y-124056281D01*
X163464234Y-124095500D01*
X163464236Y-124095500D01*
X163615764Y-124095500D01*
X163615766Y-124095500D01*
X163762135Y-124056281D01*
X163893365Y-123980515D01*
X164000515Y-123873365D01*
X164076281Y-123742135D01*
X164115500Y-123595766D01*
X164115500Y-123578174D01*
X164135185Y-123511135D01*
X164187989Y-123465380D01*
X164257147Y-123455436D01*
X164282833Y-123461992D01*
X164287668Y-123463795D01*
X164287669Y-123463796D01*
X164422517Y-123514091D01*
X164482127Y-123520500D01*
X164877872Y-123520499D01*
X164877873Y-123520498D01*
X164877885Y-123520498D01*
X164916744Y-123516320D01*
X164943252Y-123516320D01*
X164982127Y-123520500D01*
X165377872Y-123520499D01*
X165377873Y-123520498D01*
X165377885Y-123520498D01*
X165416744Y-123516320D01*
X165443252Y-123516320D01*
X165482127Y-123520500D01*
X165559635Y-123520499D01*
X165626674Y-123540183D01*
X165667023Y-123582499D01*
X165699477Y-123638712D01*
X165699479Y-123638715D01*
X165699480Y-123638716D01*
X165749480Y-123688716D01*
X165802899Y-123742135D01*
X165861284Y-123800520D01*
X165861286Y-123800521D01*
X165861290Y-123800524D01*
X165951656Y-123852696D01*
X165998216Y-123879577D01*
X166150943Y-123920501D01*
X166150945Y-123920501D01*
X166316654Y-123920501D01*
X166316670Y-123920500D01*
X167043331Y-123920500D01*
X167043347Y-123920501D01*
X167050943Y-123920501D01*
X167209054Y-123920501D01*
X167209057Y-123920501D01*
X167361785Y-123879577D01*
X167411904Y-123850639D01*
X167498716Y-123800520D01*
X167610520Y-123688716D01*
X167660520Y-123638716D01*
X167692975Y-123582501D01*
X167743541Y-123534284D01*
X167800363Y-123520499D01*
X167877872Y-123520499D01*
X167877885Y-123520498D01*
X167916744Y-123516320D01*
X167943252Y-123516320D01*
X167982127Y-123520500D01*
X168377872Y-123520499D01*
X168437483Y-123514091D01*
X168572331Y-123463796D01*
X168572331Y-123463795D01*
X168577167Y-123461992D01*
X168646858Y-123457008D01*
X168708181Y-123490493D01*
X168741666Y-123551816D01*
X168744500Y-123578174D01*
X168744500Y-123595765D01*
X168783719Y-123742136D01*
X168817427Y-123800518D01*
X168859485Y-123873365D01*
X168966635Y-123980515D01*
X169097865Y-124056281D01*
X169244234Y-124095500D01*
X169244236Y-124095500D01*
X169395764Y-124095500D01*
X169395766Y-124095500D01*
X169542135Y-124056281D01*
X169673365Y-123980515D01*
X169673372Y-123980507D01*
X169675694Y-123978726D01*
X169678021Y-123977825D01*
X169680403Y-123976451D01*
X169680617Y-123976822D01*
X169740861Y-123953525D01*
X169809307Y-123967556D01*
X169859302Y-124016365D01*
X169860551Y-124018644D01*
X169863369Y-124023916D01*
X169972860Y-124187781D01*
X169972863Y-124187785D01*
X170112214Y-124327136D01*
X170112218Y-124327139D01*
X170276079Y-124436628D01*
X170276092Y-124436635D01*
X170458160Y-124512049D01*
X170458165Y-124512051D01*
X170458169Y-124512051D01*
X170458170Y-124512052D01*
X170651456Y-124550500D01*
X170651459Y-124550500D01*
X170848543Y-124550500D01*
X170978582Y-124524632D01*
X171041835Y-124512051D01*
X171223914Y-124436632D01*
X171387782Y-124327139D01*
X171527139Y-124187782D01*
X171636632Y-124023914D01*
X171712051Y-123841835D01*
X171750500Y-123648541D01*
X171750500Y-122351459D01*
X171750500Y-122351456D01*
X171712052Y-122158170D01*
X171712051Y-122158169D01*
X171712051Y-122158165D01*
X171712049Y-122158160D01*
X171636635Y-121976092D01*
X171636628Y-121976079D01*
X171527139Y-121812218D01*
X171527136Y-121812214D01*
X171387785Y-121672863D01*
X171387781Y-121672860D01*
X171223920Y-121563371D01*
X171223907Y-121563364D01*
X171041839Y-121487950D01*
X171041829Y-121487947D01*
X170848543Y-121449500D01*
X170848541Y-121449500D01*
X170651459Y-121449500D01*
X170651454Y-121449500D01*
X170528691Y-121473919D01*
X170459099Y-121467692D01*
X170403922Y-121424828D01*
X170380678Y-121358939D01*
X170380500Y-121352302D01*
X170380500Y-121202940D01*
X170400185Y-121135901D01*
X170416819Y-121115259D01*
X170429816Y-121102262D01*
X170525789Y-120949522D01*
X170585368Y-120779255D01*
X170585369Y-120779249D01*
X170605565Y-120600003D01*
X170605565Y-120599996D01*
X170585369Y-120420750D01*
X170585368Y-120420745D01*
X170567162Y-120368716D01*
X170525789Y-120250478D01*
X170429816Y-120097738D01*
X170302262Y-119970184D01*
X170231245Y-119925561D01*
X170149523Y-119874211D01*
X169979254Y-119814631D01*
X169979249Y-119814630D01*
X169800004Y-119794435D01*
X169799996Y-119794435D01*
X169620750Y-119814630D01*
X169620745Y-119814631D01*
X169450476Y-119874211D01*
X169297737Y-119970184D01*
X169170184Y-120097737D01*
X169074212Y-120250475D01*
X169071191Y-120256750D01*
X169069371Y-120255873D01*
X169050234Y-120286310D01*
X169050916Y-120286870D01*
X169047047Y-120291584D01*
X169012546Y-120343221D01*
X169012541Y-120343228D01*
X169006379Y-120352449D01*
X168952765Y-120397252D01*
X168883439Y-120405955D01*
X168820414Y-120375797D01*
X168783697Y-120316352D01*
X168780844Y-120302228D01*
X168780501Y-120300947D01*
X168780501Y-120300943D01*
X168739577Y-120148215D01*
X168698967Y-120077877D01*
X168662453Y-120014632D01*
X168660522Y-120011287D01*
X168660521Y-120011286D01*
X168660520Y-120011284D01*
X168548716Y-119899480D01*
X168548715Y-119899479D01*
X168544385Y-119895149D01*
X168544374Y-119895139D01*
X166087590Y-117438355D01*
X166087588Y-117438352D01*
X165968717Y-117319481D01*
X165968716Y-117319480D01*
X165881904Y-117269360D01*
X165881904Y-117269359D01*
X165881900Y-117269358D01*
X165831785Y-117240423D01*
X165679057Y-117199499D01*
X165520943Y-117199499D01*
X165513347Y-117199499D01*
X165513331Y-117199500D01*
X164500098Y-117199500D01*
X164433059Y-117179815D01*
X164412417Y-117163181D01*
X163966323Y-116717088D01*
X163932838Y-116655765D01*
X163937822Y-116586074D01*
X163943186Y-116573771D01*
X163982832Y-116494830D01*
X164023293Y-116324117D01*
X164023293Y-116148675D01*
X163989274Y-116005142D01*
X163982833Y-115977965D01*
X163961799Y-115936083D01*
X163904095Y-115821182D01*
X163904091Y-115821177D01*
X163904090Y-115821175D01*
X163838847Y-115741085D01*
X163838846Y-115741084D01*
X163838838Y-115741074D01*
X163273140Y-115175378D01*
X163193032Y-115110119D01*
X163087835Y-115057288D01*
X163036248Y-115031380D01*
X162865546Y-114990922D01*
X162865541Y-114990921D01*
X162865539Y-114990921D01*
X162733079Y-114990921D01*
X162666040Y-114971236D01*
X162620285Y-114918432D01*
X162609079Y-114866921D01*
X162609079Y-114734464D01*
X162609079Y-114734461D01*
X162602137Y-114705170D01*
X162568619Y-114563751D01*
X162568618Y-114563749D01*
X162489881Y-114406968D01*
X162489877Y-114406963D01*
X162489876Y-114406961D01*
X162424633Y-114326871D01*
X162424632Y-114326870D01*
X162424624Y-114326860D01*
X161858926Y-113761164D01*
X161778818Y-113695905D01*
X161700076Y-113656360D01*
X161622034Y-113617166D01*
X161451332Y-113576708D01*
X161451327Y-113576707D01*
X161451325Y-113576707D01*
X161275883Y-113576707D01*
X161275881Y-113576707D01*
X161275875Y-113576708D01*
X161105172Y-113617166D01*
X161000649Y-113669659D01*
X160948389Y-113695905D01*
X160948388Y-113695906D01*
X160948382Y-113695910D01*
X160868292Y-113761153D01*
X160868274Y-113761169D01*
X160161167Y-114468278D01*
X160161158Y-114468288D01*
X160095904Y-114548390D01*
X160017166Y-114705172D01*
X159979740Y-114863083D01*
X159945125Y-114923776D01*
X159883193Y-114956120D01*
X159813605Y-114949845D01*
X159771402Y-114922167D01*
X146024319Y-101175083D01*
X145990834Y-101113760D01*
X145988000Y-101087402D01*
X145988000Y-94454797D01*
X146007685Y-94387758D01*
X146060489Y-94342003D01*
X146129647Y-94332059D01*
X146193203Y-94361084D01*
X146199681Y-94367116D01*
X146664439Y-94831874D01*
X146664449Y-94831885D01*
X146668779Y-94836215D01*
X146668780Y-94836216D01*
X146780584Y-94948020D01*
X146780586Y-94948021D01*
X146780590Y-94948024D01*
X146874649Y-95002328D01*
X146917516Y-95027077D01*
X147029319Y-95057034D01*
X147070242Y-95068000D01*
X147070243Y-95068000D01*
X151545656Y-95068000D01*
X151607653Y-95084612D01*
X151668215Y-95119577D01*
X151820942Y-95160501D01*
X151858562Y-95160501D01*
X151925601Y-95180186D01*
X151932872Y-95185234D01*
X151957664Y-95203793D01*
X151957671Y-95203797D01*
X152092517Y-95254091D01*
X152092516Y-95254091D01*
X152099444Y-95254835D01*
X152152127Y-95260500D01*
X153447872Y-95260499D01*
X153507483Y-95254091D01*
X153642331Y-95203796D01*
X153757546Y-95117546D01*
X153843796Y-95002331D01*
X153894091Y-94867483D01*
X153900500Y-94807873D01*
X153900499Y-94312128D01*
X153894439Y-94255754D01*
X153894439Y-94229244D01*
X153900499Y-94172880D01*
X153900500Y-94172873D01*
X153900499Y-93677128D01*
X153894439Y-93620754D01*
X153894439Y-93594244D01*
X153900499Y-93537880D01*
X153900500Y-93537873D01*
X153900500Y-93479500D01*
X153920185Y-93412461D01*
X153972989Y-93366706D01*
X154024500Y-93355500D01*
X154413996Y-93355500D01*
X154505040Y-93337389D01*
X154549328Y-93328580D01*
X154613069Y-93302177D01*
X154676807Y-93275777D01*
X154676808Y-93275776D01*
X154676811Y-93275775D01*
X154791543Y-93199114D01*
X154999292Y-92991363D01*
X155046013Y-92962007D01*
X155149522Y-92925789D01*
X155302262Y-92829816D01*
X155429816Y-92702262D01*
X155525789Y-92549522D01*
X155585368Y-92379255D01*
X155590073Y-92337500D01*
X155605565Y-92200003D01*
X155605565Y-92199996D01*
X155585369Y-92020750D01*
X155585368Y-92020745D01*
X155525788Y-91850476D01*
X155486582Y-91788080D01*
X155429816Y-91697738D01*
X155302262Y-91570184D01*
X155186298Y-91497318D01*
X155140008Y-91444985D01*
X155129360Y-91375932D01*
X155157735Y-91312083D01*
X155164590Y-91304644D01*
X155168713Y-91300521D01*
X155168716Y-91300520D01*
X155280520Y-91188716D01*
X155318403Y-91123099D01*
X155356285Y-91057487D01*
X155356287Y-91057483D01*
X155359577Y-91051785D01*
X155400500Y-90899058D01*
X155400500Y-90740943D01*
X155400500Y-87780300D01*
X155420185Y-87713261D01*
X155472989Y-87667506D01*
X155485482Y-87662599D01*
X155569334Y-87634814D01*
X155718656Y-87542712D01*
X155842712Y-87418656D01*
X155934814Y-87269334D01*
X155989999Y-87102797D01*
X156000500Y-87000009D01*
X156000499Y-86199992D01*
X155989999Y-86097203D01*
X155934814Y-85930666D01*
X155842712Y-85781344D01*
X155749049Y-85687681D01*
X155715564Y-85626358D01*
X155720548Y-85556666D01*
X155749049Y-85512319D01*
X155842712Y-85418656D01*
X155934814Y-85269334D01*
X155989999Y-85102797D01*
X156000500Y-85000009D01*
X156000499Y-84199992D01*
X155989999Y-84097203D01*
X155934814Y-83930666D01*
X155842712Y-83781344D01*
X155718656Y-83657288D01*
X155569334Y-83565186D01*
X155402797Y-83510001D01*
X155402795Y-83510000D01*
X155300016Y-83499500D01*
X155300009Y-83499500D01*
X155000097Y-83499500D01*
X154933058Y-83479815D01*
X154912416Y-83463181D01*
X154687590Y-83238355D01*
X154687588Y-83238352D01*
X154568717Y-83119481D01*
X154568709Y-83119475D01*
X154452066Y-83052132D01*
X154452066Y-83052131D01*
X154452061Y-83052130D01*
X154444985Y-83048044D01*
X154431786Y-83040423D01*
X154393603Y-83030192D01*
X154279057Y-82999499D01*
X154120943Y-82999499D01*
X154113347Y-82999499D01*
X154113331Y-82999500D01*
X151920940Y-82999500D01*
X151880019Y-83010464D01*
X151880019Y-83010465D01*
X151842751Y-83020451D01*
X151768214Y-83040423D01*
X151768209Y-83040426D01*
X151631290Y-83119475D01*
X151631282Y-83119481D01*
X151519478Y-83231286D01*
X151287582Y-83463181D01*
X151226259Y-83496666D01*
X151199902Y-83499500D01*
X151099999Y-83499500D01*
X151099980Y-83499501D01*
X150997203Y-83510000D01*
X150997200Y-83510001D01*
X150830668Y-83565185D01*
X150830663Y-83565187D01*
X150681342Y-83657289D01*
X150557289Y-83781342D01*
X150465187Y-83930663D01*
X150465185Y-83930668D01*
X150444056Y-83994433D01*
X150410001Y-84097203D01*
X150410001Y-84097204D01*
X150410000Y-84097204D01*
X150399500Y-84199983D01*
X150399500Y-85000001D01*
X150399501Y-85000019D01*
X150410000Y-85102796D01*
X150410001Y-85102799D01*
X150425465Y-85149465D01*
X150465186Y-85269334D01*
X150522936Y-85362963D01*
X150557289Y-85418657D01*
X150650951Y-85512319D01*
X150684436Y-85573642D01*
X150679452Y-85643334D01*
X150650951Y-85687681D01*
X150557289Y-85781342D01*
X150465187Y-85930663D01*
X150465186Y-85930666D01*
X150410001Y-86097203D01*
X150410001Y-86097204D01*
X150410000Y-86097204D01*
X150399500Y-86199983D01*
X150399500Y-87000001D01*
X150399501Y-87000019D01*
X150410000Y-87102796D01*
X150410001Y-87102799D01*
X150459483Y-87252123D01*
X150465186Y-87269334D01*
X150490518Y-87310404D01*
X150508958Y-87377796D01*
X150488035Y-87444459D01*
X150434393Y-87489229D01*
X150384979Y-87499500D01*
X150141519Y-87499500D01*
X150074480Y-87479815D01*
X150053838Y-87463181D01*
X149936819Y-87346162D01*
X149903334Y-87284839D01*
X149900500Y-87258481D01*
X149900500Y-83741519D01*
X149920185Y-83674480D01*
X149936819Y-83653838D01*
X151128838Y-82461819D01*
X151190161Y-82428334D01*
X151216519Y-82425500D01*
X156797912Y-82425500D01*
X156864951Y-82445185D01*
X156903451Y-82484403D01*
X156932289Y-82531157D01*
X157056346Y-82655214D01*
X157059182Y-82656963D01*
X157060717Y-82658670D01*
X157062011Y-82659693D01*
X157061836Y-82659914D01*
X157105905Y-82708911D01*
X157117126Y-82777874D01*
X157089282Y-82841956D01*
X157059182Y-82868037D01*
X157056346Y-82869785D01*
X156932289Y-82993842D01*
X156840187Y-83143163D01*
X156840185Y-83143168D01*
X156785002Y-83309701D01*
X156785000Y-83309704D01*
X156774500Y-83412483D01*
X156774500Y-84187501D01*
X156774501Y-84187519D01*
X156785000Y-84290296D01*
X156785001Y-84290299D01*
X156838079Y-84450476D01*
X156840186Y-84456834D01*
X156932288Y-84606156D01*
X157056344Y-84730212D01*
X157205666Y-84822314D01*
X157372203Y-84877499D01*
X157474991Y-84888000D01*
X158525008Y-84887999D01*
X158525016Y-84887998D01*
X158525019Y-84887998D01*
X158581302Y-84882248D01*
X158627797Y-84877499D01*
X158794334Y-84822314D01*
X158943656Y-84730212D01*
X159067712Y-84606156D01*
X159159814Y-84456834D01*
X159214999Y-84290297D01*
X159225500Y-84187509D01*
X159225499Y-83412492D01*
X159218829Y-83347200D01*
X159214999Y-83309701D01*
X159214998Y-83309700D01*
X159159814Y-83143166D01*
X159067712Y-82993844D01*
X158943656Y-82869788D01*
X158940819Y-82868038D01*
X158939283Y-82866330D01*
X158937989Y-82865307D01*
X158938163Y-82865085D01*
X158894096Y-82816094D01*
X158882872Y-82747132D01*
X158910713Y-82683049D01*
X158940817Y-82656962D01*
X158943656Y-82655212D01*
X159067712Y-82531156D01*
X159096549Y-82484402D01*
X159148497Y-82437679D01*
X159202088Y-82425500D01*
X161574782Y-82425500D01*
X161641821Y-82445185D01*
X161680321Y-82484403D01*
X161732289Y-82568657D01*
X161856346Y-82692714D01*
X161859182Y-82694463D01*
X161860717Y-82696170D01*
X161862011Y-82697193D01*
X161861836Y-82697414D01*
X161905905Y-82746411D01*
X161917126Y-82815374D01*
X161889282Y-82879456D01*
X161859182Y-82905537D01*
X161856346Y-82907285D01*
X161732289Y-83031342D01*
X161640187Y-83180663D01*
X161640186Y-83180665D01*
X161640186Y-83180666D01*
X161585001Y-83347203D01*
X161585001Y-83347204D01*
X161585000Y-83347204D01*
X161574500Y-83449983D01*
X161574500Y-84225001D01*
X161574501Y-84225019D01*
X161585000Y-84327796D01*
X161585001Y-84327799D01*
X161627759Y-84456831D01*
X161640186Y-84494334D01*
X161732288Y-84643656D01*
X161856344Y-84767712D01*
X162005666Y-84859814D01*
X162172203Y-84914999D01*
X162274991Y-84925500D01*
X163325008Y-84925499D01*
X163325016Y-84925498D01*
X163325019Y-84925498D01*
X163381302Y-84919748D01*
X163427797Y-84914999D01*
X163594334Y-84859814D01*
X163743656Y-84767712D01*
X163867712Y-84643656D01*
X163959814Y-84494334D01*
X164014999Y-84327797D01*
X164025500Y-84225009D01*
X164025499Y-83449992D01*
X164021667Y-83412483D01*
X164014999Y-83347203D01*
X164014998Y-83347200D01*
X164009631Y-83331004D01*
X163959814Y-83180666D01*
X163867712Y-83031344D01*
X163743656Y-82907288D01*
X163740819Y-82905538D01*
X163739283Y-82903830D01*
X163737989Y-82902807D01*
X163738163Y-82902585D01*
X163694096Y-82853594D01*
X163682872Y-82784632D01*
X163710713Y-82720549D01*
X163740817Y-82694462D01*
X163743656Y-82692712D01*
X163867712Y-82568656D01*
X163896549Y-82521902D01*
X163948497Y-82475179D01*
X164002088Y-82463000D01*
X165168506Y-82463000D01*
X165220981Y-82463000D01*
X165288020Y-82482685D01*
X165308662Y-82499319D01*
X166463181Y-83653837D01*
X166496666Y-83715160D01*
X166499500Y-83741518D01*
X166499500Y-87375500D01*
X166479815Y-87442539D01*
X166427011Y-87488294D01*
X166375500Y-87499500D01*
X165202129Y-87499500D01*
X165202123Y-87499501D01*
X165142516Y-87505908D01*
X165007671Y-87556202D01*
X165007664Y-87556206D01*
X164892455Y-87642452D01*
X164892452Y-87642455D01*
X164806206Y-87757664D01*
X164806202Y-87757671D01*
X164755908Y-87892517D01*
X164749501Y-87952116D01*
X164749500Y-87952135D01*
X164749500Y-89647870D01*
X164749501Y-89647876D01*
X164755908Y-89707483D01*
X164806202Y-89842328D01*
X164806206Y-89842335D01*
X164892452Y-89957544D01*
X164892455Y-89957547D01*
X165007664Y-90043793D01*
X165007671Y-90043797D01*
X165142517Y-90094091D01*
X165142516Y-90094091D01*
X165149444Y-90094835D01*
X165202127Y-90100500D01*
X166375500Y-90100499D01*
X166442539Y-90120184D01*
X166488294Y-90172987D01*
X166499500Y-90224499D01*
X166499500Y-92805951D01*
X166479815Y-92872990D01*
X166427011Y-92918745D01*
X166357853Y-92928689D01*
X166294297Y-92899664D01*
X166259318Y-92849284D01*
X166243797Y-92807671D01*
X166243793Y-92807664D01*
X166157547Y-92692455D01*
X166157544Y-92692452D01*
X166042335Y-92606206D01*
X166042328Y-92606202D01*
X165907482Y-92555908D01*
X165907483Y-92555908D01*
X165847883Y-92549501D01*
X165847881Y-92549500D01*
X165847873Y-92549500D01*
X165847865Y-92549500D01*
X164250097Y-92549500D01*
X164183058Y-92529815D01*
X164162416Y-92513181D01*
X162037590Y-90388355D01*
X162037588Y-90388352D01*
X161918717Y-90269481D01*
X161918716Y-90269480D01*
X161831904Y-90219360D01*
X161831904Y-90219359D01*
X161831900Y-90219358D01*
X161781785Y-90190423D01*
X161629057Y-90149499D01*
X161470943Y-90149499D01*
X161463347Y-90149499D01*
X161463331Y-90149500D01*
X161100559Y-90149500D01*
X161033520Y-90129815D01*
X160987765Y-90077011D01*
X160977821Y-90007853D01*
X160983517Y-89984546D01*
X160985367Y-89979257D01*
X160985368Y-89979255D01*
X160987814Y-89957546D01*
X161005565Y-89800003D01*
X161005565Y-89799996D01*
X160985369Y-89620750D01*
X160985368Y-89620745D01*
X160963222Y-89557455D01*
X160925789Y-89450478D01*
X160829816Y-89297738D01*
X160702262Y-89170184D01*
X160549523Y-89074211D01*
X160379254Y-89014631D01*
X160379249Y-89014630D01*
X160200004Y-88994435D01*
X160199996Y-88994435D01*
X160020750Y-89014630D01*
X160020745Y-89014631D01*
X159850476Y-89074211D01*
X159697737Y-89170184D01*
X159570184Y-89297737D01*
X159470506Y-89456374D01*
X159467784Y-89454664D01*
X159430533Y-89496057D01*
X159365465Y-89514500D01*
X158941439Y-89514500D01*
X158874400Y-89494815D01*
X158867128Y-89489767D01*
X158842331Y-89471204D01*
X158842328Y-89471202D01*
X158707482Y-89420908D01*
X158707483Y-89420908D01*
X158647883Y-89414501D01*
X158647881Y-89414500D01*
X158647873Y-89414500D01*
X158647864Y-89414500D01*
X157352129Y-89414500D01*
X157352123Y-89414501D01*
X157292516Y-89420908D01*
X157157671Y-89471202D01*
X157157664Y-89471206D01*
X157042455Y-89557452D01*
X157042452Y-89557455D01*
X156956206Y-89672664D01*
X156956202Y-89672671D01*
X156905910Y-89807513D01*
X156905909Y-89807517D01*
X156899500Y-89867127D01*
X156899500Y-89867134D01*
X156899500Y-89867135D01*
X156899500Y-90362870D01*
X156899501Y-90362876D01*
X156905561Y-90419249D01*
X156905561Y-90445753D01*
X156899500Y-90502127D01*
X156899500Y-90502132D01*
X156899500Y-90502133D01*
X156899500Y-90997870D01*
X156899501Y-90997876D01*
X156905561Y-91054249D01*
X156905561Y-91080753D01*
X156899500Y-91137127D01*
X156899500Y-91137132D01*
X156899500Y-91137133D01*
X156899500Y-91632870D01*
X156899501Y-91632876D01*
X156905561Y-91689249D01*
X156905561Y-91715753D01*
X156899500Y-91772127D01*
X156899500Y-91772132D01*
X156899500Y-91772133D01*
X156899500Y-92267870D01*
X156899501Y-92267876D01*
X156905561Y-92324249D01*
X156905561Y-92350753D01*
X156899500Y-92407127D01*
X156899500Y-92407132D01*
X156899500Y-92407133D01*
X156899500Y-92902870D01*
X156899501Y-92902876D01*
X156905561Y-92959249D01*
X156905561Y-92985753D01*
X156899500Y-93042127D01*
X156899500Y-93042132D01*
X156899500Y-93042133D01*
X156899500Y-93537870D01*
X156899501Y-93537876D01*
X156905561Y-93594249D01*
X156905561Y-93620753D01*
X156899500Y-93677127D01*
X156899500Y-93677129D01*
X156899500Y-93677133D01*
X156899500Y-94172870D01*
X156899501Y-94172876D01*
X156905561Y-94229249D01*
X156905561Y-94255753D01*
X156899500Y-94312127D01*
X156899500Y-94312129D01*
X156899500Y-94312133D01*
X156899500Y-94807870D01*
X156899501Y-94807876D01*
X156905908Y-94867483D01*
X156956202Y-95002328D01*
X156956206Y-95002335D01*
X157042452Y-95117544D01*
X157042455Y-95117547D01*
X157157664Y-95203793D01*
X157157671Y-95203797D01*
X157292517Y-95254091D01*
X157292516Y-95254091D01*
X157299444Y-95254835D01*
X157352127Y-95260500D01*
X158647872Y-95260499D01*
X158707483Y-95254091D01*
X158839936Y-95204688D01*
X158909627Y-95199705D01*
X158970950Y-95233190D01*
X159004435Y-95294513D01*
X159006489Y-95306988D01*
X159014630Y-95379249D01*
X159074210Y-95549521D01*
X159074211Y-95549522D01*
X159170184Y-95702262D01*
X159297738Y-95829816D01*
X159450478Y-95925789D01*
X159573159Y-95968717D01*
X159620745Y-95985368D01*
X159620750Y-95985369D01*
X159799996Y-96005565D01*
X159800000Y-96005565D01*
X159800004Y-96005565D01*
X159979249Y-95985369D01*
X159979252Y-95985368D01*
X159979255Y-95985368D01*
X160149522Y-95925789D01*
X160302262Y-95829816D01*
X160429816Y-95702262D01*
X160510398Y-95574015D01*
X160562731Y-95527725D01*
X160631785Y-95517076D01*
X160695633Y-95545451D01*
X160703072Y-95552307D01*
X160763181Y-95612416D01*
X160796666Y-95673739D01*
X160799500Y-95700097D01*
X160799500Y-98913330D01*
X160799499Y-98913348D01*
X160799499Y-99079054D01*
X160799498Y-99079054D01*
X160840423Y-99231785D01*
X160869358Y-99281900D01*
X160869359Y-99281904D01*
X160869360Y-99281904D01*
X160919479Y-99368714D01*
X160919481Y-99368717D01*
X161038349Y-99487585D01*
X161038355Y-99487590D01*
X163015139Y-101464374D01*
X163015149Y-101464385D01*
X163019479Y-101468715D01*
X163019480Y-101468716D01*
X163131284Y-101580520D01*
X163131286Y-101580521D01*
X163131290Y-101580524D01*
X163268209Y-101659573D01*
X163268216Y-101659577D01*
X163380019Y-101689534D01*
X163420942Y-101700500D01*
X163420943Y-101700500D01*
X163575500Y-101700500D01*
X163642539Y-101720185D01*
X163688294Y-101772989D01*
X163699500Y-101824500D01*
X163699500Y-102597870D01*
X163699501Y-102597876D01*
X163705908Y-102657483D01*
X163756202Y-102792328D01*
X163756206Y-102792335D01*
X163842452Y-102907544D01*
X163842455Y-102907547D01*
X163957664Y-102993793D01*
X163957671Y-102993797D01*
X164002618Y-103010561D01*
X164092517Y-103044091D01*
X164152127Y-103050500D01*
X164625500Y-103050499D01*
X164692539Y-103070183D01*
X164738294Y-103122987D01*
X164749500Y-103174499D01*
X164749500Y-104047870D01*
X164749501Y-104047876D01*
X164755908Y-104107483D01*
X164806202Y-104242328D01*
X164806206Y-104242335D01*
X164892452Y-104357544D01*
X164892455Y-104357547D01*
X165007664Y-104443793D01*
X165007671Y-104443797D01*
X165142517Y-104494091D01*
X165142516Y-104494091D01*
X165149444Y-104494835D01*
X165202127Y-104500500D01*
X166797872Y-104500499D01*
X166857483Y-104494091D01*
X166992331Y-104443796D01*
X167107546Y-104357546D01*
X167193796Y-104242331D01*
X167244091Y-104107483D01*
X167250500Y-104047873D01*
X167250499Y-102752135D01*
X173999500Y-102752135D01*
X173999500Y-104047870D01*
X173999501Y-104047876D01*
X174005908Y-104107483D01*
X174056202Y-104242328D01*
X174056206Y-104242335D01*
X174142452Y-104357544D01*
X174142455Y-104357547D01*
X174257664Y-104443793D01*
X174257671Y-104443797D01*
X174392517Y-104494091D01*
X174392516Y-104494091D01*
X174399444Y-104494835D01*
X174452127Y-104500500D01*
X176747872Y-104500499D01*
X176807483Y-104494091D01*
X176942331Y-104443796D01*
X177057546Y-104357546D01*
X177143796Y-104242331D01*
X177194091Y-104107483D01*
X177200500Y-104047873D01*
X177200499Y-102752128D01*
X177194091Y-102692517D01*
X177181024Y-102657483D01*
X177143797Y-102557671D01*
X177143793Y-102557664D01*
X177057547Y-102442455D01*
X177057544Y-102442452D01*
X176942335Y-102356206D01*
X176942328Y-102356202D01*
X176807482Y-102305908D01*
X176807483Y-102305908D01*
X176747883Y-102299501D01*
X176747881Y-102299500D01*
X176747873Y-102299500D01*
X176747864Y-102299500D01*
X174452129Y-102299500D01*
X174452123Y-102299501D01*
X174392516Y-102305908D01*
X174257671Y-102356202D01*
X174257664Y-102356206D01*
X174142455Y-102442452D01*
X174142452Y-102442455D01*
X174056206Y-102557664D01*
X174056202Y-102557671D01*
X174005908Y-102692517D01*
X173999501Y-102752116D01*
X173999501Y-102752123D01*
X173999500Y-102752135D01*
X167250499Y-102752135D01*
X167250499Y-102752128D01*
X167244091Y-102692517D01*
X167231024Y-102657483D01*
X167193797Y-102557671D01*
X167193793Y-102557664D01*
X167142215Y-102488765D01*
X167117797Y-102423301D01*
X167132648Y-102355028D01*
X167175509Y-102309460D01*
X167302262Y-102229816D01*
X167429816Y-102102262D01*
X167525789Y-101949522D01*
X167585368Y-101779255D01*
X167586074Y-101772989D01*
X167605565Y-101600003D01*
X167605565Y-101599996D01*
X167585369Y-101420750D01*
X167585368Y-101420745D01*
X167525788Y-101250476D01*
X167478415Y-101175083D01*
X167429816Y-101097738D01*
X167302262Y-100970184D01*
X167278885Y-100955495D01*
X167149523Y-100874211D01*
X166979254Y-100814631D01*
X166979249Y-100814630D01*
X166800004Y-100794435D01*
X166799996Y-100794435D01*
X166620750Y-100814630D01*
X166620742Y-100814632D01*
X166465453Y-100868970D01*
X166395674Y-100872531D01*
X166335047Y-100837802D01*
X166302820Y-100775809D01*
X166300499Y-100751928D01*
X166300499Y-100702129D01*
X166300498Y-100702123D01*
X166297466Y-100673920D01*
X175249499Y-100673920D01*
X175278340Y-100818907D01*
X175278343Y-100818917D01*
X175334912Y-100955488D01*
X175334919Y-100955501D01*
X175417048Y-101078415D01*
X175417051Y-101078419D01*
X175521580Y-101182948D01*
X175521584Y-101182951D01*
X175644498Y-101265080D01*
X175644511Y-101265087D01*
X175781082Y-101321656D01*
X175781087Y-101321658D01*
X175781091Y-101321658D01*
X175781092Y-101321659D01*
X175926079Y-101350500D01*
X175926082Y-101350500D01*
X176073920Y-101350500D01*
X176171462Y-101331096D01*
X176218913Y-101321658D01*
X176355495Y-101265084D01*
X176478416Y-101182951D01*
X176582951Y-101078416D01*
X176665084Y-100955495D01*
X176721658Y-100818913D01*
X176731096Y-100771462D01*
X176750500Y-100673920D01*
X176750500Y-100526079D01*
X176721659Y-100381092D01*
X176721658Y-100381091D01*
X176721658Y-100381087D01*
X176721656Y-100381082D01*
X176665087Y-100244511D01*
X176665080Y-100244498D01*
X176582951Y-100121584D01*
X176582948Y-100121580D01*
X176478419Y-100017051D01*
X176478415Y-100017048D01*
X176355501Y-99934919D01*
X176355488Y-99934912D01*
X176218917Y-99878343D01*
X176218907Y-99878340D01*
X176073920Y-99849500D01*
X176073918Y-99849500D01*
X175926082Y-99849500D01*
X175926080Y-99849500D01*
X175781092Y-99878340D01*
X175781082Y-99878343D01*
X175644511Y-99934912D01*
X175644498Y-99934919D01*
X175521584Y-100017048D01*
X175521580Y-100017051D01*
X175417051Y-100121580D01*
X175417048Y-100121584D01*
X175334919Y-100244498D01*
X175334912Y-100244511D01*
X175278343Y-100381082D01*
X175278340Y-100381092D01*
X175249500Y-100526079D01*
X175249500Y-100526082D01*
X175249500Y-100673918D01*
X175249500Y-100673920D01*
X175249499Y-100673920D01*
X166297466Y-100673920D01*
X166294091Y-100642517D01*
X166275747Y-100593334D01*
X166270762Y-100523643D01*
X166275747Y-100506665D01*
X166294089Y-100457488D01*
X166294091Y-100457483D01*
X166300500Y-100397873D01*
X166300499Y-99602128D01*
X166294091Y-99542517D01*
X166275747Y-99493334D01*
X166270762Y-99423643D01*
X166275747Y-99406665D01*
X166294089Y-99357488D01*
X166294091Y-99357483D01*
X166300500Y-99297873D01*
X166300499Y-98502128D01*
X166294091Y-98442517D01*
X166275747Y-98393334D01*
X166270762Y-98323643D01*
X166275747Y-98306665D01*
X166294089Y-98257488D01*
X166294091Y-98257483D01*
X166300500Y-98197873D01*
X166300499Y-97515887D01*
X166320183Y-97448849D01*
X166372987Y-97403094D01*
X166400306Y-97394271D01*
X166504328Y-97373580D01*
X166568069Y-97347177D01*
X166631807Y-97320777D01*
X166631808Y-97320776D01*
X166631811Y-97320775D01*
X166746543Y-97244114D01*
X167744114Y-96246543D01*
X167820775Y-96131811D01*
X167873580Y-96004329D01*
X167880664Y-95968716D01*
X167900500Y-95868993D01*
X167900500Y-92673920D01*
X175249499Y-92673920D01*
X175278340Y-92818907D01*
X175278343Y-92818917D01*
X175334912Y-92955488D01*
X175334919Y-92955501D01*
X175417048Y-93078415D01*
X175417051Y-93078419D01*
X175521580Y-93182948D01*
X175521584Y-93182951D01*
X175644498Y-93265080D01*
X175644511Y-93265087D01*
X175781082Y-93321656D01*
X175781087Y-93321658D01*
X175781091Y-93321658D01*
X175781092Y-93321659D01*
X175926079Y-93350500D01*
X175926082Y-93350500D01*
X176073920Y-93350500D01*
X176171462Y-93331096D01*
X176218913Y-93321658D01*
X176355495Y-93265084D01*
X176478416Y-93182951D01*
X176582951Y-93078416D01*
X176665084Y-92955495D01*
X176721658Y-92818913D01*
X176746813Y-92692454D01*
X176750500Y-92673920D01*
X176750500Y-92526079D01*
X176721659Y-92381092D01*
X176721658Y-92381091D01*
X176721658Y-92381087D01*
X176674763Y-92267872D01*
X176665087Y-92244511D01*
X176665080Y-92244498D01*
X176582951Y-92121584D01*
X176582948Y-92121580D01*
X176478419Y-92017051D01*
X176478415Y-92017048D01*
X176355501Y-91934919D01*
X176355488Y-91934912D01*
X176218917Y-91878343D01*
X176218907Y-91878340D01*
X176073920Y-91849500D01*
X176073918Y-91849500D01*
X175926082Y-91849500D01*
X175926080Y-91849500D01*
X175781092Y-91878340D01*
X175781082Y-91878343D01*
X175644511Y-91934912D01*
X175644498Y-91934919D01*
X175521584Y-92017048D01*
X175521580Y-92017051D01*
X175417051Y-92121580D01*
X175417048Y-92121584D01*
X175334919Y-92244498D01*
X175334912Y-92244511D01*
X175278343Y-92381082D01*
X175278340Y-92381092D01*
X175249500Y-92526079D01*
X175249500Y-92526082D01*
X175249500Y-92673918D01*
X175249500Y-92673920D01*
X175249499Y-92673920D01*
X167900500Y-92673920D01*
X167900500Y-87252135D01*
X173999500Y-87252135D01*
X173999500Y-88547870D01*
X173999501Y-88547876D01*
X174005908Y-88607483D01*
X174056202Y-88742328D01*
X174056206Y-88742335D01*
X174142452Y-88857544D01*
X174142455Y-88857547D01*
X174257664Y-88943793D01*
X174257671Y-88943797D01*
X174392517Y-88994091D01*
X174392516Y-88994091D01*
X174399444Y-88994835D01*
X174452127Y-89000500D01*
X176747872Y-89000499D01*
X176807483Y-88994091D01*
X176942331Y-88943796D01*
X177057546Y-88857546D01*
X177143796Y-88742331D01*
X177194091Y-88607483D01*
X177200500Y-88547873D01*
X177200499Y-87252128D01*
X177194091Y-87192517D01*
X177160628Y-87102799D01*
X177143797Y-87057671D01*
X177143793Y-87057664D01*
X177057547Y-86942455D01*
X177057544Y-86942452D01*
X176942335Y-86856206D01*
X176942328Y-86856202D01*
X176807482Y-86805908D01*
X176807483Y-86805908D01*
X176747883Y-86799501D01*
X176747881Y-86799500D01*
X176747873Y-86799500D01*
X176747864Y-86799500D01*
X174452129Y-86799500D01*
X174452123Y-86799501D01*
X174392516Y-86805908D01*
X174257671Y-86856202D01*
X174257664Y-86856206D01*
X174142455Y-86942452D01*
X174142452Y-86942455D01*
X174056206Y-87057664D01*
X174056202Y-87057671D01*
X174005908Y-87192517D01*
X173999501Y-87252116D01*
X173999501Y-87252123D01*
X173999500Y-87252135D01*
X167900500Y-87252135D01*
X167900500Y-83331007D01*
X167900500Y-83331004D01*
X167900499Y-83331002D01*
X167873581Y-83195678D01*
X167873580Y-83195674D01*
X167873580Y-83195672D01*
X167867364Y-83180666D01*
X167851830Y-83143163D01*
X167823269Y-83074210D01*
X167823267Y-83074206D01*
X167820774Y-83068187D01*
X167744115Y-82953459D01*
X167696193Y-82905537D01*
X167646542Y-82855886D01*
X166478337Y-81687681D01*
X166444852Y-81626358D01*
X166449836Y-81556666D01*
X166478337Y-81512319D01*
X167596321Y-80394336D01*
X168744114Y-79246543D01*
X168820775Y-79131811D01*
X168833745Y-79100500D01*
X168863859Y-79027796D01*
X168873580Y-79004328D01*
X168889356Y-78925019D01*
X168900500Y-78868996D01*
X168900500Y-72531004D01*
X168900499Y-72531002D01*
X168873582Y-72395681D01*
X168873581Y-72395679D01*
X168873580Y-72395672D01*
X168871884Y-72391578D01*
X168837481Y-72308522D01*
X168820775Y-72268189D01*
X168762728Y-72181316D01*
X168762727Y-72181314D01*
X168762726Y-72181312D01*
X168744118Y-72153462D01*
X168744112Y-72153455D01*
X167409046Y-70818388D01*
X167409045Y-70818387D01*
X167294307Y-70741722D01*
X167166832Y-70688921D01*
X167166822Y-70688918D01*
X167031496Y-70662000D01*
X167031494Y-70662000D01*
X167031493Y-70662000D01*
X167002088Y-70662000D01*
X166935049Y-70642315D01*
X166896549Y-70603097D01*
X166867712Y-70556344D01*
X166743656Y-70432288D01*
X166609402Y-70349480D01*
X166562679Y-70297533D01*
X166550500Y-70243942D01*
X166550500Y-69926079D01*
X166521659Y-69781092D01*
X166521658Y-69781091D01*
X166521658Y-69781087D01*
X166521656Y-69781082D01*
X166465087Y-69644511D01*
X166465080Y-69644498D01*
X166382952Y-69521585D01*
X166335285Y-69473918D01*
X166278416Y-69417049D01*
X166082112Y-69220745D01*
X165078421Y-68217052D01*
X165078414Y-68217046D01*
X165004729Y-68167812D01*
X165004729Y-68167813D01*
X164955491Y-68134913D01*
X164818917Y-68078343D01*
X164818907Y-68078340D01*
X164673920Y-68049500D01*
X164673918Y-68049500D01*
X164362231Y-68049500D01*
X164295192Y-68029815D01*
X164283536Y-68020422D01*
X164283131Y-68020917D01*
X164278420Y-68017051D01*
X164213849Y-67973907D01*
X164168967Y-67943918D01*
X164155495Y-67934916D01*
X164155490Y-67934913D01*
X164018917Y-67878343D01*
X164018907Y-67878340D01*
X163873920Y-67849500D01*
X163873918Y-67849500D01*
X163353958Y-67849500D01*
X163286919Y-67829815D01*
X163248420Y-67790598D01*
X163242712Y-67781344D01*
X163118657Y-67657289D01*
X163118656Y-67657288D01*
X162969334Y-67565186D01*
X162802797Y-67510001D01*
X162802795Y-67510000D01*
X162700010Y-67499500D01*
X161699998Y-67499500D01*
X161699980Y-67499501D01*
X161597203Y-67510000D01*
X161597200Y-67510001D01*
X161430668Y-67565185D01*
X161430663Y-67565187D01*
X161281342Y-67657289D01*
X161157289Y-67781342D01*
X161065187Y-67930663D01*
X161065185Y-67930668D01*
X161050857Y-67973907D01*
X161010001Y-68097203D01*
X161010001Y-68097204D01*
X161010000Y-68097204D01*
X160999500Y-68199983D01*
X160999500Y-68687769D01*
X160979815Y-68754808D01*
X160963181Y-68775450D01*
X159617045Y-70121586D01*
X159596861Y-70151797D01*
X159585891Y-70168215D01*
X159563727Y-70201386D01*
X159534914Y-70244507D01*
X159478343Y-70381082D01*
X159478340Y-70381092D01*
X159449500Y-70526079D01*
X159449500Y-70864281D01*
X159429815Y-70931320D01*
X159388621Y-70971013D01*
X159285638Y-71031916D01*
X159285629Y-71031923D01*
X159169423Y-71148129D01*
X159169417Y-71148137D01*
X159085755Y-71289603D01*
X159085754Y-71289606D01*
X159039902Y-71447426D01*
X159039901Y-71447432D01*
X159037000Y-71484298D01*
X159037000Y-71882104D01*
X159017315Y-71949143D01*
X158964511Y-71994898D01*
X158895353Y-72004842D01*
X158847002Y-71984330D01*
X158846080Y-71985890D01*
X158752704Y-71930668D01*
X158697898Y-71898256D01*
X158697897Y-71898255D01*
X158697896Y-71898255D01*
X158697893Y-71898254D01*
X158540073Y-71852402D01*
X158540067Y-71852401D01*
X158503201Y-71849500D01*
X158503194Y-71849500D01*
X157346806Y-71849500D01*
X157346798Y-71849500D01*
X157309932Y-71852401D01*
X157309926Y-71852402D01*
X157164767Y-71894576D01*
X157130172Y-71899500D01*
X156676080Y-71899500D01*
X156531092Y-71928340D01*
X156531082Y-71928343D01*
X156394511Y-71984912D01*
X156394498Y-71984919D01*
X156271584Y-72067048D01*
X156271580Y-72067051D01*
X155891937Y-72446693D01*
X155855873Y-72469370D01*
X155856750Y-72471191D01*
X155850475Y-72474212D01*
X155697737Y-72570184D01*
X155570184Y-72697737D01*
X155474211Y-72850476D01*
X155414631Y-73020745D01*
X155414630Y-73020750D01*
X155394435Y-73199996D01*
X155394435Y-73200003D01*
X155414630Y-73379249D01*
X155414631Y-73379254D01*
X155474211Y-73549523D01*
X155561022Y-73687681D01*
X155570184Y-73702262D01*
X155697738Y-73829816D01*
X155850478Y-73925789D01*
X155987394Y-73973698D01*
X156020745Y-73985368D01*
X156020750Y-73985369D01*
X156199996Y-74005565D01*
X156200000Y-74005565D01*
X156200004Y-74005565D01*
X156379249Y-73985369D01*
X156379252Y-73985368D01*
X156379255Y-73985368D01*
X156549522Y-73925789D01*
X156702262Y-73829816D01*
X156829816Y-73702262D01*
X156925789Y-73549522D01*
X156925792Y-73549510D01*
X156928810Y-73543248D01*
X156930650Y-73544134D01*
X156953303Y-73508063D01*
X157024550Y-73436816D01*
X157085872Y-73403334D01*
X157112229Y-73400500D01*
X157130172Y-73400500D01*
X157164767Y-73405424D01*
X157309926Y-73447597D01*
X157309929Y-73447597D01*
X157309931Y-73447598D01*
X157346806Y-73450500D01*
X157346814Y-73450500D01*
X158503186Y-73450500D01*
X158503194Y-73450500D01*
X158540069Y-73447598D01*
X158540071Y-73447597D01*
X158540073Y-73447597D01*
X158622742Y-73423579D01*
X158697898Y-73401744D01*
X158822548Y-73328026D01*
X158846080Y-73314110D01*
X158847155Y-73315928D01*
X158902032Y-73294381D01*
X158970550Y-73308059D01*
X159020796Y-73356609D01*
X159037000Y-73417895D01*
X159037000Y-73815701D01*
X159039901Y-73852567D01*
X159039902Y-73852573D01*
X159085754Y-74010393D01*
X159085755Y-74010396D01*
X159169417Y-74151862D01*
X159169423Y-74151870D01*
X159285629Y-74268076D01*
X159285633Y-74268079D01*
X159285635Y-74268081D01*
X159427102Y-74351744D01*
X159439769Y-74355424D01*
X159584926Y-74397597D01*
X159584929Y-74397597D01*
X159584931Y-74397598D01*
X159621806Y-74400500D01*
X159621814Y-74400500D01*
X160778186Y-74400500D01*
X160778194Y-74400500D01*
X160815069Y-74397598D01*
X160815071Y-74397597D01*
X160815073Y-74397597D01*
X160960233Y-74355424D01*
X160994828Y-74350500D01*
X161075500Y-74350500D01*
X161142539Y-74370185D01*
X161188294Y-74422989D01*
X161199500Y-74474500D01*
X161199500Y-75000001D01*
X161199501Y-75000019D01*
X161210000Y-75102796D01*
X161210001Y-75102799D01*
X161265185Y-75269331D01*
X161265187Y-75269336D01*
X161357289Y-75418657D01*
X161450951Y-75512319D01*
X161484436Y-75573642D01*
X161479452Y-75643334D01*
X161450951Y-75687681D01*
X161357289Y-75781342D01*
X161265187Y-75930663D01*
X161265185Y-75930668D01*
X161260881Y-75943657D01*
X161210001Y-76097203D01*
X161210001Y-76097204D01*
X161210000Y-76097204D01*
X161199500Y-76199983D01*
X161199500Y-77000001D01*
X161199501Y-77000019D01*
X161210000Y-77102796D01*
X161210001Y-77102799D01*
X161255527Y-77240185D01*
X161265186Y-77269334D01*
X161357288Y-77418656D01*
X161481344Y-77542712D01*
X161630666Y-77634814D01*
X161797203Y-77689999D01*
X161899991Y-77700500D01*
X162900008Y-77700499D01*
X162900016Y-77700498D01*
X162900019Y-77700498D01*
X162956302Y-77694748D01*
X163002797Y-77689999D01*
X163169334Y-77634814D01*
X163318656Y-77542712D01*
X163442712Y-77418656D01*
X163534814Y-77269334D01*
X163589999Y-77102797D01*
X163600500Y-77000009D01*
X163600499Y-76199992D01*
X163589999Y-76097203D01*
X163534814Y-75930666D01*
X163442712Y-75781344D01*
X163349049Y-75687681D01*
X163315564Y-75626358D01*
X163320548Y-75556666D01*
X163349049Y-75512319D01*
X163364168Y-75497200D01*
X163442712Y-75418656D01*
X163534814Y-75269334D01*
X163589999Y-75102797D01*
X163600500Y-75000009D01*
X163600499Y-74199992D01*
X163595582Y-74151862D01*
X163589999Y-74097203D01*
X163589998Y-74097200D01*
X163589047Y-74094331D01*
X163534814Y-73930666D01*
X163442712Y-73781344D01*
X163318656Y-73657288D01*
X163225777Y-73600000D01*
X163169336Y-73565187D01*
X163169331Y-73565185D01*
X163105803Y-73544134D01*
X163002797Y-73510001D01*
X163002795Y-73510000D01*
X162974972Y-73507158D01*
X162910280Y-73480761D01*
X162870130Y-73423579D01*
X162867268Y-73353768D01*
X162873015Y-73336347D01*
X162921658Y-73218913D01*
X162944755Y-73102799D01*
X162950500Y-73073920D01*
X162950500Y-71715638D01*
X162970185Y-71648599D01*
X163009401Y-71610100D01*
X163118656Y-71542712D01*
X163242712Y-71418656D01*
X163334814Y-71269334D01*
X163389999Y-71102797D01*
X163400500Y-71000009D01*
X163400499Y-70199992D01*
X163395928Y-70155249D01*
X163389999Y-70097203D01*
X163389998Y-70097200D01*
X163367382Y-70028949D01*
X163334814Y-69930666D01*
X163242712Y-69781344D01*
X163149049Y-69687681D01*
X163115564Y-69626358D01*
X163120548Y-69556666D01*
X163149049Y-69512319D01*
X163187450Y-69473918D01*
X163242712Y-69418656D01*
X163248420Y-69409402D01*
X163300368Y-69362678D01*
X163353958Y-69350500D01*
X163437770Y-69350500D01*
X163504809Y-69370185D01*
X163516469Y-69379581D01*
X163516875Y-69379087D01*
X163521584Y-69382952D01*
X163572615Y-69417049D01*
X163644505Y-69465084D01*
X163678239Y-69479057D01*
X163781088Y-69521659D01*
X163886930Y-69542712D01*
X163913031Y-69547904D01*
X163926081Y-69550500D01*
X163926082Y-69550500D01*
X163926083Y-69550500D01*
X164073918Y-69550500D01*
X164237770Y-69550500D01*
X164304809Y-69570185D01*
X164325451Y-69586819D01*
X164669300Y-69930668D01*
X164940019Y-70201386D01*
X164973504Y-70262709D01*
X164968520Y-70332400D01*
X164926649Y-70388334D01*
X164917436Y-70394605D01*
X164856344Y-70432287D01*
X164732289Y-70556342D01*
X164640187Y-70705663D01*
X164640186Y-70705666D01*
X164585001Y-70872203D01*
X164585001Y-70872204D01*
X164585000Y-70872204D01*
X164574500Y-70974983D01*
X164574500Y-71750001D01*
X164574501Y-71750019D01*
X164585000Y-71852796D01*
X164585001Y-71852799D01*
X164634706Y-72002797D01*
X164640186Y-72019334D01*
X164729681Y-72164430D01*
X164732289Y-72168657D01*
X164856346Y-72292714D01*
X164859182Y-72294463D01*
X164860717Y-72296170D01*
X164862011Y-72297193D01*
X164861836Y-72297414D01*
X164905905Y-72346411D01*
X164917126Y-72415374D01*
X164889282Y-72479456D01*
X164859182Y-72505537D01*
X164856346Y-72507285D01*
X164732289Y-72631342D01*
X164640187Y-72780663D01*
X164640185Y-72780668D01*
X164615939Y-72853838D01*
X164585001Y-72947203D01*
X164585001Y-72947204D01*
X164585000Y-72947204D01*
X164574500Y-73049983D01*
X164574500Y-73825001D01*
X164574501Y-73825019D01*
X164585000Y-73927796D01*
X164585001Y-73927799D01*
X164640185Y-74094331D01*
X164640187Y-74094336D01*
X164641956Y-74097204D01*
X164732288Y-74243656D01*
X164856344Y-74367712D01*
X165005666Y-74459814D01*
X165172203Y-74514999D01*
X165274991Y-74525500D01*
X166325008Y-74525499D01*
X166325016Y-74525498D01*
X166325019Y-74525498D01*
X166407934Y-74517028D01*
X166427797Y-74514999D01*
X166594334Y-74459814D01*
X166743656Y-74367712D01*
X166867712Y-74243656D01*
X166959814Y-74094334D01*
X167014999Y-73927797D01*
X167025500Y-73825009D01*
X167025499Y-73049992D01*
X167025309Y-73048135D01*
X167014999Y-72947203D01*
X167014998Y-72947200D01*
X167013252Y-72941931D01*
X166959814Y-72780666D01*
X166867712Y-72631344D01*
X166743656Y-72507288D01*
X166740819Y-72505538D01*
X166739283Y-72503830D01*
X166737989Y-72502807D01*
X166738163Y-72502585D01*
X166694096Y-72453594D01*
X166682872Y-72384632D01*
X166710713Y-72320549D01*
X166740817Y-72294462D01*
X166743656Y-72292712D01*
X166743661Y-72292707D01*
X166745548Y-72291216D01*
X166747086Y-72290595D01*
X166749806Y-72288918D01*
X166750092Y-72289382D01*
X166810342Y-72265074D01*
X166878985Y-72278112D01*
X166910142Y-72300799D01*
X167463181Y-72853838D01*
X167496666Y-72915161D01*
X167499500Y-72941519D01*
X167499500Y-78458481D01*
X167479815Y-78525520D01*
X167463181Y-78546162D01*
X164983662Y-81025681D01*
X164922339Y-81059166D01*
X164895981Y-81062000D01*
X164002088Y-81062000D01*
X163935049Y-81042315D01*
X163896549Y-81003097D01*
X163867712Y-80956344D01*
X163743656Y-80832288D01*
X163594334Y-80740186D01*
X163427797Y-80685001D01*
X163427795Y-80685000D01*
X163325010Y-80674500D01*
X162274998Y-80674500D01*
X162274980Y-80674501D01*
X162172203Y-80685000D01*
X162172200Y-80685001D01*
X162005668Y-80740185D01*
X162005663Y-80740187D01*
X161856342Y-80832289D01*
X161732287Y-80956344D01*
X161726580Y-80965598D01*
X161674632Y-81012322D01*
X161621042Y-81024500D01*
X159202088Y-81024500D01*
X159135049Y-81004815D01*
X159096549Y-80965597D01*
X159090842Y-80956344D01*
X159067712Y-80918844D01*
X158943656Y-80794788D01*
X158794334Y-80702686D01*
X158627797Y-80647501D01*
X158627795Y-80647500D01*
X158525010Y-80637000D01*
X157474998Y-80637000D01*
X157474980Y-80637001D01*
X157372203Y-80647500D01*
X157372200Y-80647501D01*
X157205668Y-80702685D01*
X157205663Y-80702687D01*
X157056342Y-80794789D01*
X156932289Y-80918842D01*
X156903451Y-80965597D01*
X156851503Y-81012321D01*
X156797912Y-81024500D01*
X150806004Y-81024500D01*
X150670677Y-81051418D01*
X150670667Y-81051421D01*
X150543192Y-81104222D01*
X150428454Y-81180887D01*
X148655887Y-82953454D01*
X148579222Y-83068192D01*
X148526421Y-83195667D01*
X148526418Y-83195679D01*
X148503738Y-83309701D01*
X148503738Y-83309705D01*
X148499500Y-83331007D01*
X148499500Y-86988000D01*
X148479815Y-87055039D01*
X148427011Y-87100794D01*
X148375500Y-87112000D01*
X147574500Y-87112000D01*
X147507461Y-87092315D01*
X147461706Y-87039511D01*
X147450500Y-86988000D01*
X147450499Y-85848136D01*
X147435046Y-85730746D01*
X147435044Y-85730741D01*
X147435044Y-85730738D01*
X147374536Y-85584659D01*
X147278282Y-85459218D01*
X147152841Y-85362964D01*
X147006762Y-85302456D01*
X147006760Y-85302455D01*
X146889370Y-85287001D01*
X146889367Y-85287000D01*
X146889361Y-85287000D01*
X146889354Y-85287000D01*
X146806578Y-85287000D01*
X146739539Y-85267315D01*
X146693784Y-85214511D01*
X146686803Y-85195094D01*
X146674577Y-85149465D01*
X146639612Y-85088904D01*
X146623000Y-85026905D01*
X146623000Y-81531776D01*
X146642685Y-81464737D01*
X146695489Y-81418982D01*
X146764647Y-81409038D01*
X146799405Y-81419394D01*
X146805662Y-81422311D01*
X146805666Y-81422314D01*
X146972203Y-81477499D01*
X147074991Y-81488000D01*
X148125008Y-81487999D01*
X148125016Y-81487998D01*
X148125019Y-81487998D01*
X148181302Y-81482248D01*
X148227797Y-81477499D01*
X148394334Y-81422314D01*
X148543656Y-81330212D01*
X148667712Y-81206156D01*
X148759814Y-81056834D01*
X148814999Y-80890297D01*
X148825500Y-80787509D01*
X148825499Y-80507354D01*
X148844505Y-80441383D01*
X148925789Y-80312022D01*
X148985368Y-80141755D01*
X149005565Y-79962500D01*
X148985368Y-79783245D01*
X148925789Y-79612978D01*
X148829816Y-79460238D01*
X148702262Y-79332684D01*
X148689233Y-79324497D01*
X148642944Y-79272162D01*
X148632297Y-79203108D01*
X148660673Y-79139260D01*
X148719064Y-79100890D01*
X148742604Y-79096147D01*
X148802797Y-79089999D01*
X148969334Y-79034814D01*
X149118656Y-78942712D01*
X149242712Y-78818656D01*
X149334814Y-78669334D01*
X149389999Y-78502797D01*
X149400500Y-78400009D01*
X149400499Y-77874983D01*
X151274500Y-77874983D01*
X151274500Y-78925001D01*
X151274501Y-78925019D01*
X151285000Y-79027796D01*
X151285001Y-79027799D01*
X151319468Y-79131811D01*
X151340186Y-79194334D01*
X151432288Y-79343656D01*
X151556344Y-79467712D01*
X151705666Y-79559814D01*
X151872203Y-79614999D01*
X151974991Y-79625500D01*
X152750008Y-79625499D01*
X152750016Y-79625498D01*
X152750019Y-79625498D01*
X152806302Y-79619748D01*
X152852797Y-79614999D01*
X153019334Y-79559814D01*
X153168656Y-79467712D01*
X153292712Y-79343656D01*
X153384814Y-79194334D01*
X153439999Y-79027797D01*
X153450500Y-78925009D01*
X153450499Y-77874992D01*
X153448377Y-77854222D01*
X153439999Y-77772203D01*
X153439998Y-77772200D01*
X153416239Y-77700500D01*
X153384814Y-77605666D01*
X153292712Y-77456344D01*
X153168656Y-77332288D01*
X153019334Y-77240186D01*
X152852797Y-77185001D01*
X152852795Y-77185000D01*
X152750010Y-77174500D01*
X151974998Y-77174500D01*
X151974980Y-77174501D01*
X151872203Y-77185000D01*
X151872200Y-77185001D01*
X151705668Y-77240185D01*
X151705663Y-77240187D01*
X151556342Y-77332289D01*
X151432289Y-77456342D01*
X151340187Y-77605663D01*
X151340186Y-77605666D01*
X151285001Y-77772203D01*
X151285001Y-77772204D01*
X151285000Y-77772204D01*
X151274500Y-77874983D01*
X149400499Y-77874983D01*
X149400499Y-77599992D01*
X149389999Y-77497203D01*
X149334814Y-77330666D01*
X149242712Y-77181344D01*
X149149049Y-77087681D01*
X149115564Y-77026358D01*
X149120548Y-76956666D01*
X149149049Y-76912319D01*
X149242712Y-76818656D01*
X149334814Y-76669334D01*
X149389999Y-76502797D01*
X149400500Y-76400009D01*
X149400499Y-75599992D01*
X149389999Y-75497203D01*
X149334814Y-75330666D01*
X149242712Y-75181344D01*
X149118656Y-75057288D01*
X148969334Y-74965186D01*
X148885495Y-74937404D01*
X148828051Y-74897632D01*
X148801228Y-74833116D01*
X148800500Y-74819699D01*
X148800500Y-74629822D01*
X148820185Y-74562783D01*
X148872989Y-74517028D01*
X148942147Y-74507084D01*
X148963499Y-74512114D01*
X148972203Y-74514999D01*
X149074991Y-74525500D01*
X150125008Y-74525499D01*
X150125016Y-74525498D01*
X150125019Y-74525498D01*
X150207934Y-74517028D01*
X150227797Y-74514999D01*
X150348557Y-74474983D01*
X151274500Y-74474983D01*
X151274500Y-75525001D01*
X151274501Y-75525019D01*
X151285000Y-75627796D01*
X151285001Y-75627799D01*
X151340185Y-75794331D01*
X151340186Y-75794334D01*
X151432288Y-75943656D01*
X151556344Y-76067712D01*
X151705666Y-76159814D01*
X151872203Y-76214999D01*
X151974991Y-76225500D01*
X152750008Y-76225499D01*
X152750016Y-76225498D01*
X152750019Y-76225498D01*
X152806302Y-76219748D01*
X152852797Y-76214999D01*
X153019334Y-76159814D01*
X153168656Y-76067712D01*
X153292712Y-75943656D01*
X153384814Y-75794334D01*
X153439999Y-75627797D01*
X153450500Y-75525009D01*
X153450499Y-74474992D01*
X153448948Y-74459812D01*
X153439999Y-74372203D01*
X153439998Y-74372200D01*
X153433220Y-74351745D01*
X153384814Y-74205666D01*
X153292712Y-74056344D01*
X153168656Y-73932288D01*
X153019334Y-73840186D01*
X152852797Y-73785001D01*
X152852795Y-73785000D01*
X152750010Y-73774500D01*
X151974998Y-73774500D01*
X151974980Y-73774501D01*
X151872203Y-73785000D01*
X151872200Y-73785001D01*
X151705668Y-73840185D01*
X151705663Y-73840187D01*
X151556342Y-73932289D01*
X151432289Y-74056342D01*
X151340187Y-74205663D01*
X151340186Y-74205666D01*
X151285001Y-74372203D01*
X151285001Y-74372204D01*
X151285000Y-74372204D01*
X151274500Y-74474983D01*
X150348557Y-74474983D01*
X150394334Y-74459814D01*
X150543656Y-74367712D01*
X150667712Y-74243656D01*
X150759814Y-74094334D01*
X150814999Y-73927797D01*
X150825500Y-73825009D01*
X150825499Y-73049992D01*
X150825309Y-73048135D01*
X150814999Y-72947203D01*
X150814998Y-72947200D01*
X150813252Y-72941931D01*
X150759814Y-72780666D01*
X150667712Y-72631344D01*
X150543656Y-72507288D01*
X150540819Y-72505538D01*
X150539283Y-72503830D01*
X150537989Y-72502807D01*
X150538163Y-72502585D01*
X150494096Y-72453594D01*
X150482872Y-72384632D01*
X150510713Y-72320549D01*
X150540817Y-72294462D01*
X150543656Y-72292712D01*
X150667712Y-72168656D01*
X150667715Y-72168650D01*
X150672193Y-72162989D01*
X150674015Y-72164430D01*
X150717665Y-72125175D01*
X150771248Y-72113000D01*
X151261232Y-72113000D01*
X151328271Y-72132685D01*
X151366769Y-72171901D01*
X151457288Y-72318656D01*
X151581344Y-72442712D01*
X151730666Y-72534814D01*
X151897203Y-72589999D01*
X151999991Y-72600500D01*
X152800008Y-72600499D01*
X152800016Y-72600498D01*
X152800019Y-72600498D01*
X152856302Y-72594748D01*
X152902797Y-72589999D01*
X153069334Y-72534814D01*
X153218656Y-72442712D01*
X153342712Y-72318656D01*
X153434814Y-72169334D01*
X153489999Y-72002797D01*
X153500500Y-71900009D01*
X153500499Y-70899992D01*
X153499602Y-70891215D01*
X153489999Y-70797203D01*
X153489998Y-70797200D01*
X153459667Y-70705668D01*
X153434814Y-70630666D01*
X153342712Y-70481344D01*
X153218656Y-70357288D01*
X153121777Y-70297533D01*
X153069336Y-70265187D01*
X153069331Y-70265185D01*
X153061859Y-70262709D01*
X152902797Y-70210001D01*
X152902795Y-70210000D01*
X152800010Y-70199500D01*
X151999998Y-70199500D01*
X151999980Y-70199501D01*
X151897203Y-70210000D01*
X151897200Y-70210001D01*
X151730668Y-70265185D01*
X151730663Y-70265187D01*
X151581342Y-70357289D01*
X151457289Y-70481342D01*
X151457288Y-70481344D01*
X151429694Y-70526082D01*
X151413031Y-70553097D01*
X151361083Y-70599821D01*
X151307492Y-70612000D01*
X150771248Y-70612000D01*
X150704209Y-70592315D01*
X150673468Y-70561002D01*
X150672193Y-70562011D01*
X150667711Y-70556343D01*
X150543656Y-70432288D01*
X150537989Y-70427807D01*
X150539499Y-70425897D01*
X150500507Y-70382534D01*
X150489295Y-70313569D01*
X150517147Y-70249491D01*
X150575222Y-70210644D01*
X150598453Y-70205739D01*
X150599998Y-70205564D01*
X150600000Y-70205565D01*
X150685889Y-70195887D01*
X150779249Y-70185369D01*
X150779252Y-70185368D01*
X150779255Y-70185368D01*
X150949522Y-70125789D01*
X151102262Y-70029816D01*
X151229816Y-69902262D01*
X151325789Y-69749522D01*
X151385368Y-69579255D01*
X151386390Y-69570185D01*
X151405565Y-69400003D01*
X151405565Y-69399996D01*
X151385369Y-69220750D01*
X151385368Y-69220745D01*
X151325788Y-69050476D01*
X151229815Y-68897737D01*
X151102262Y-68770184D01*
X150949523Y-68674211D01*
X150779254Y-68614631D01*
X150779249Y-68614630D01*
X150600004Y-68594435D01*
X150599996Y-68594435D01*
X150420750Y-68614630D01*
X150420745Y-68614631D01*
X150340983Y-68642542D01*
X150300028Y-68649500D01*
X150122230Y-68649500D01*
X150055191Y-68629815D01*
X150034549Y-68613181D01*
X149921214Y-68499846D01*
X149887729Y-68438523D01*
X149892713Y-68368831D01*
X149934585Y-68312898D01*
X149939991Y-68309071D01*
X149987782Y-68277139D01*
X150127139Y-68137782D01*
X150236632Y-67973914D01*
X150312051Y-67791835D01*
X150338814Y-67657289D01*
X150350500Y-67598543D01*
X150350500Y-66301456D01*
X150312052Y-66108170D01*
X150312051Y-66108169D01*
X150312051Y-66108165D01*
X150308404Y-66099360D01*
X150236635Y-65926092D01*
X150236628Y-65926079D01*
X150127139Y-65762218D01*
X150127136Y-65762214D01*
X149987785Y-65622863D01*
X149987781Y-65622860D01*
X149823920Y-65513371D01*
X149823907Y-65513364D01*
X149641839Y-65437950D01*
X149641829Y-65437947D01*
X149448543Y-65399500D01*
X149448541Y-65399500D01*
X149251459Y-65399500D01*
X149251457Y-65399500D01*
X149058170Y-65437947D01*
X149058160Y-65437950D01*
X148876092Y-65513364D01*
X148876079Y-65513371D01*
X148712218Y-65622860D01*
X148712214Y-65622863D01*
X148572863Y-65762214D01*
X148572860Y-65762218D01*
X148463368Y-65926084D01*
X148460549Y-65931359D01*
X148411586Y-65981203D01*
X148343448Y-65996663D01*
X148277769Y-65972831D01*
X148275701Y-65971278D01*
X148273369Y-65969489D01*
X148273365Y-65969485D01*
X148190169Y-65921451D01*
X148142136Y-65893719D01*
X148068950Y-65874109D01*
X147995766Y-65854500D01*
X147844234Y-65854500D01*
X147697863Y-65893719D01*
X147566635Y-65969485D01*
X147566632Y-65969487D01*
X147459487Y-66076632D01*
X147459485Y-66076635D01*
X147383719Y-66207863D01*
X147348959Y-66337593D01*
X147312594Y-66397254D01*
X147249747Y-66427783D01*
X147229185Y-66429500D01*
X147082131Y-66429500D01*
X147082119Y-66429501D01*
X147043253Y-66433679D01*
X147016748Y-66433679D01*
X146977874Y-66429500D01*
X146582130Y-66429500D01*
X146582119Y-66429501D01*
X146543253Y-66433679D01*
X146516748Y-66433679D01*
X146477875Y-66429500D01*
X146477873Y-66429500D01*
X146400363Y-66429500D01*
X146333324Y-66409815D01*
X146292975Y-66367499D01*
X146286920Y-66357011D01*
X146260520Y-66311284D01*
X146210520Y-66261284D01*
X146148716Y-66199480D01*
X146098716Y-66149480D01*
X146011904Y-66099360D01*
X146011904Y-66099359D01*
X146011900Y-66099358D01*
X145961785Y-66070423D01*
X145809057Y-66029499D01*
X145650943Y-66029499D01*
X145643347Y-66029499D01*
X145643331Y-66029500D01*
X144916670Y-66029500D01*
X144916654Y-66029499D01*
X144909058Y-66029499D01*
X144750943Y-66029499D01*
X144674579Y-66049961D01*
X144598214Y-66070423D01*
X144598209Y-66070426D01*
X144461290Y-66149475D01*
X144461282Y-66149481D01*
X144299481Y-66311282D01*
X144299477Y-66311287D01*
X144267023Y-66367500D01*
X144216456Y-66415716D01*
X144159638Y-66429500D01*
X144082132Y-66429500D01*
X144082118Y-66429501D01*
X144043253Y-66433679D01*
X144016748Y-66433679D01*
X143977874Y-66429500D01*
X143582130Y-66429500D01*
X143582119Y-66429501D01*
X143543253Y-66433679D01*
X143516748Y-66433679D01*
X143477874Y-66429500D01*
X143082130Y-66429500D01*
X143082119Y-66429501D01*
X143043253Y-66433679D01*
X143016748Y-66433679D01*
X142977875Y-66429500D01*
X142977873Y-66429500D01*
X142830816Y-66429500D01*
X142763777Y-66409815D01*
X142718022Y-66357011D01*
X142711041Y-66337593D01*
X142676281Y-66207865D01*
X142600515Y-66076635D01*
X142493365Y-65969485D01*
X142427315Y-65931351D01*
X142362136Y-65893719D01*
X142288950Y-65874109D01*
X142215766Y-65854500D01*
X142064234Y-65854500D01*
X141917863Y-65893719D01*
X141786631Y-65969487D01*
X141784293Y-65971282D01*
X141781964Y-65972182D01*
X141779597Y-65973549D01*
X141779383Y-65973179D01*
X141719123Y-65996475D01*
X141650678Y-65982436D01*
X141600690Y-65933621D01*
X141599446Y-65931351D01*
X141596630Y-65926082D01*
X141487139Y-65762218D01*
X141487136Y-65762214D01*
X141347785Y-65622863D01*
X141347781Y-65622860D01*
X141183920Y-65513371D01*
X141183907Y-65513364D01*
X141001839Y-65437950D01*
X141001829Y-65437947D01*
X140808543Y-65399500D01*
X140808541Y-65399500D01*
X140611459Y-65399500D01*
X140611457Y-65399500D01*
X140418170Y-65437947D01*
X140418160Y-65437950D01*
X140236092Y-65513364D01*
X140236079Y-65513371D01*
X140072218Y-65622860D01*
X140072214Y-65622863D01*
X139932863Y-65762214D01*
X139932860Y-65762218D01*
X139823371Y-65926079D01*
X139823364Y-65926092D01*
X139747950Y-66108160D01*
X139747947Y-66108170D01*
X139709500Y-66301456D01*
X139709500Y-66301459D01*
X139709500Y-67598541D01*
X139709500Y-67598543D01*
X139709499Y-67598543D01*
X139747947Y-67791829D01*
X139747950Y-67791839D01*
X139823364Y-67973907D01*
X139823371Y-67973920D01*
X139932860Y-68137781D01*
X139932863Y-68137785D01*
X140072214Y-68277136D01*
X140072218Y-68277139D01*
X140236079Y-68386628D01*
X140236092Y-68386635D01*
X140346917Y-68432539D01*
X140418165Y-68462051D01*
X140418166Y-68462051D01*
X140419385Y-68462556D01*
X140473789Y-68506396D01*
X140495854Y-68572690D01*
X140478575Y-68640390D01*
X140437905Y-68682111D01*
X140297737Y-68770184D01*
X140170184Y-68897737D01*
X140074211Y-69050476D01*
X140014631Y-69220745D01*
X140014630Y-69220750D01*
X139994435Y-69399996D01*
X139994435Y-69400003D01*
X140014630Y-69579249D01*
X140014631Y-69579254D01*
X140074211Y-69749523D01*
X140150471Y-69870889D01*
X140170184Y-69902262D01*
X140297738Y-70029816D01*
X140353862Y-70065081D01*
X140443906Y-70121660D01*
X140450478Y-70125789D01*
X140620745Y-70185368D01*
X140620750Y-70185369D01*
X140799996Y-70205565D01*
X140800000Y-70205565D01*
X140800004Y-70205565D01*
X140979249Y-70185369D01*
X140979252Y-70185368D01*
X140979255Y-70185368D01*
X141149522Y-70125789D01*
X141302262Y-70029816D01*
X141429816Y-69902262D01*
X141525789Y-69749522D01*
X141525790Y-69749518D01*
X141528811Y-69743246D01*
X141530655Y-69744134D01*
X141553305Y-69708061D01*
X141678030Y-69583336D01*
X141739351Y-69549853D01*
X141809043Y-69554837D01*
X141864976Y-69596709D01*
X141880269Y-69623566D01*
X141888942Y-69644505D01*
X141897235Y-69664526D01*
X141899708Y-69671003D01*
X141912675Y-69708059D01*
X141919543Y-69727687D01*
X141919546Y-69727694D01*
X141925295Y-69736844D01*
X141934851Y-69755340D01*
X141934912Y-69755488D01*
X141934916Y-69755495D01*
X141969169Y-69806760D01*
X141971054Y-69809669D01*
X142009523Y-69870890D01*
X142129110Y-69990477D01*
X142190338Y-70028949D01*
X142193247Y-70030834D01*
X142244505Y-70065084D01*
X142244648Y-70065143D01*
X142263162Y-70074708D01*
X142272310Y-70080456D01*
X142320163Y-70097200D01*
X142328979Y-70100285D01*
X142335477Y-70102766D01*
X142381087Y-70121658D01*
X142381095Y-70121660D01*
X142393332Y-70124094D01*
X142410101Y-70128671D01*
X142431938Y-70136312D01*
X142431941Y-70136313D01*
X142479398Y-70141659D01*
X142489689Y-70143260D01*
X142501926Y-70145694D01*
X142526081Y-70150500D01*
X142526082Y-70150500D01*
X142550890Y-70150500D01*
X142564751Y-70151277D01*
X142569375Y-70151798D01*
X142633789Y-70178858D01*
X142673349Y-70236450D01*
X142679500Y-70275019D01*
X142679500Y-71607770D01*
X142659815Y-71674809D01*
X142643181Y-71695451D01*
X142557289Y-71781342D01*
X142465187Y-71930663D01*
X142465185Y-71930668D01*
X142444604Y-71992779D01*
X142410001Y-72097203D01*
X142410001Y-72097204D01*
X142410000Y-72097204D01*
X142399500Y-72199983D01*
X142399500Y-73000001D01*
X142399501Y-73000019D01*
X142410000Y-73102796D01*
X142410001Y-73102799D01*
X142465185Y-73269331D01*
X142465187Y-73269336D01*
X142480635Y-73294381D01*
X142549126Y-73405424D01*
X142557289Y-73418657D01*
X142650951Y-73512319D01*
X142684436Y-73573642D01*
X142679452Y-73643334D01*
X142650951Y-73687681D01*
X142557289Y-73781342D01*
X142465187Y-73930663D01*
X142465185Y-73930668D01*
X142447059Y-73985369D01*
X142410001Y-74097203D01*
X142410001Y-74097204D01*
X142410000Y-74097204D01*
X142399500Y-74199983D01*
X142399500Y-75000001D01*
X142399501Y-75000019D01*
X142410000Y-75102796D01*
X142410001Y-75102799D01*
X142465185Y-75269331D01*
X142465187Y-75269336D01*
X142496445Y-75320014D01*
X142557288Y-75418656D01*
X142681344Y-75542712D01*
X142830666Y-75634814D01*
X142997203Y-75689999D01*
X143099991Y-75700500D01*
X144100008Y-75700499D01*
X144100016Y-75700498D01*
X144100019Y-75700498D01*
X144156302Y-75694748D01*
X144202797Y-75689999D01*
X144369334Y-75634814D01*
X144518656Y-75542712D01*
X144642712Y-75418656D01*
X144734814Y-75269334D01*
X144734817Y-75269323D01*
X144735616Y-75267613D01*
X144736481Y-75266630D01*
X144738605Y-75263187D01*
X144739193Y-75263549D01*
X144781786Y-75215172D01*
X144848979Y-75196018D01*
X144915861Y-75216231D01*
X144961198Y-75269395D01*
X144972000Y-75320014D01*
X144972000Y-78294202D01*
X144952315Y-78361241D01*
X144899511Y-78406996D01*
X144830353Y-78416940D01*
X144808998Y-78411908D01*
X144727797Y-78385001D01*
X144727795Y-78385000D01*
X144625016Y-78374500D01*
X144625009Y-78374500D01*
X144054019Y-78374500D01*
X143986980Y-78354815D01*
X143966338Y-78338181D01*
X143559046Y-77930888D01*
X143559045Y-77930887D01*
X143444307Y-77854222D01*
X143316832Y-77801421D01*
X143316822Y-77801418D01*
X143181496Y-77774500D01*
X143181494Y-77774500D01*
X143181493Y-77774500D01*
X141093507Y-77774500D01*
X141093503Y-77774500D01*
X140985090Y-77796065D01*
X140985089Y-77796065D01*
X140958181Y-77801418D01*
X140958171Y-77801420D01*
X140830690Y-77854224D01*
X140715954Y-77930887D01*
X140308660Y-78338181D01*
X140247337Y-78371666D01*
X140220979Y-78374500D01*
X139649998Y-78374500D01*
X139649980Y-78374501D01*
X139547203Y-78385000D01*
X139547200Y-78385001D01*
X139380668Y-78440185D01*
X139380663Y-78440187D01*
X139231342Y-78532289D01*
X139107285Y-78656346D01*
X139105537Y-78659182D01*
X139103829Y-78660717D01*
X139102807Y-78662011D01*
X139102585Y-78661836D01*
X139053589Y-78705905D01*
X138984626Y-78717126D01*
X138920544Y-78689282D01*
X138894463Y-78659182D01*
X138892714Y-78656346D01*
X138768657Y-78532289D01*
X138768656Y-78532288D01*
X138619334Y-78440186D01*
X138452797Y-78385001D01*
X138452795Y-78385000D01*
X138350010Y-78374500D01*
X137574998Y-78374500D01*
X137574980Y-78374501D01*
X137472203Y-78385000D01*
X137472200Y-78385001D01*
X137305668Y-78440185D01*
X137305663Y-78440187D01*
X137156342Y-78532289D01*
X137032289Y-78656342D01*
X136940187Y-78805663D01*
X136940185Y-78805668D01*
X136935881Y-78818657D01*
X136885001Y-78972203D01*
X136885001Y-78972204D01*
X136885000Y-78972204D01*
X136874500Y-79074983D01*
X136874500Y-80125001D01*
X136874501Y-80125019D01*
X136885000Y-80227796D01*
X136885001Y-80227799D01*
X136912910Y-80312022D01*
X136940186Y-80394334D01*
X137032288Y-80543656D01*
X137156344Y-80667712D01*
X137305666Y-80759814D01*
X137472203Y-80814999D01*
X137574991Y-80825500D01*
X138350008Y-80825499D01*
X138350016Y-80825498D01*
X138350019Y-80825498D01*
X138406302Y-80819748D01*
X138452797Y-80814999D01*
X138619334Y-80759814D01*
X138768656Y-80667712D01*
X138892712Y-80543656D01*
X138894461Y-80540819D01*
X138896169Y-80539283D01*
X138897193Y-80537989D01*
X138897414Y-80538163D01*
X138946406Y-80494096D01*
X139015368Y-80482872D01*
X139079451Y-80510713D01*
X139105537Y-80540817D01*
X139107288Y-80543656D01*
X139231344Y-80667712D01*
X139380666Y-80759814D01*
X139547203Y-80814999D01*
X139649991Y-80825500D01*
X140425008Y-80825499D01*
X140425016Y-80825498D01*
X140425019Y-80825498D01*
X140481302Y-80819748D01*
X140527797Y-80814999D01*
X140694334Y-80759814D01*
X140843656Y-80667712D01*
X140967712Y-80543656D01*
X140994461Y-80500287D01*
X141046408Y-80453563D01*
X141115370Y-80442340D01*
X141179453Y-80470183D01*
X141205537Y-80500286D01*
X141211969Y-80510713D01*
X141229590Y-80539283D01*
X141232288Y-80543656D01*
X141356344Y-80667712D01*
X141505666Y-80759814D01*
X141672203Y-80814999D01*
X141774991Y-80825500D01*
X142550008Y-80825499D01*
X142550016Y-80825498D01*
X142550019Y-80825498D01*
X142606302Y-80819748D01*
X142652797Y-80814999D01*
X142819334Y-80759814D01*
X142968656Y-80667712D01*
X143092712Y-80543656D01*
X143094461Y-80540819D01*
X143096169Y-80539283D01*
X143097193Y-80537989D01*
X143097414Y-80538163D01*
X143146406Y-80494096D01*
X143215368Y-80482872D01*
X143279451Y-80510713D01*
X143305537Y-80540817D01*
X143307288Y-80543656D01*
X143431344Y-80667712D01*
X143450594Y-80679585D01*
X143497320Y-80731530D01*
X143509500Y-80785125D01*
X143509500Y-81591743D01*
X143489815Y-81658782D01*
X143450598Y-81697281D01*
X143393844Y-81732287D01*
X143269785Y-81856346D01*
X143268037Y-81859182D01*
X143266329Y-81860717D01*
X143265307Y-81862011D01*
X143265085Y-81861836D01*
X143216089Y-81905905D01*
X143147126Y-81917126D01*
X143083044Y-81889282D01*
X143056963Y-81859182D01*
X143055214Y-81856346D01*
X142931157Y-81732289D01*
X142931156Y-81732288D01*
X142781834Y-81640186D01*
X142615297Y-81585001D01*
X142615295Y-81585000D01*
X142512510Y-81574500D01*
X141737498Y-81574500D01*
X141737480Y-81574501D01*
X141634703Y-81585000D01*
X141634700Y-81585001D01*
X141468168Y-81640185D01*
X141468163Y-81640187D01*
X141318842Y-81732289D01*
X141194789Y-81856342D01*
X141102687Y-82005663D01*
X141102686Y-82005666D01*
X141047501Y-82172203D01*
X141047501Y-82172204D01*
X141047500Y-82172204D01*
X141037000Y-82274983D01*
X141037000Y-83325001D01*
X141037001Y-83325019D01*
X141047500Y-83427796D01*
X141047501Y-83427799D01*
X141087500Y-83548505D01*
X141102686Y-83594334D01*
X141193469Y-83741518D01*
X141194789Y-83743657D01*
X141314550Y-83863418D01*
X141348035Y-83924741D01*
X141343051Y-83994433D01*
X141301179Y-84050366D01*
X141267825Y-84068140D01*
X141250479Y-84074209D01*
X141097737Y-84170184D01*
X140970184Y-84297737D01*
X140874211Y-84450476D01*
X140814631Y-84620745D01*
X140814630Y-84620750D01*
X140794435Y-84799996D01*
X140794435Y-84800003D01*
X140814630Y-84979249D01*
X140814631Y-84979254D01*
X140874211Y-85149523D01*
X140915046Y-85214511D01*
X140970184Y-85302262D01*
X141097738Y-85429816D01*
X141144531Y-85459218D01*
X141229040Y-85512319D01*
X141250478Y-85525789D01*
X141353984Y-85562007D01*
X141400710Y-85591367D01*
X141568181Y-85758838D01*
X141601666Y-85820161D01*
X141604500Y-85846519D01*
X141604500Y-87351863D01*
X141619953Y-87469253D01*
X141619956Y-87469262D01*
X141680464Y-87615341D01*
X141776718Y-87740782D01*
X141902159Y-87837036D01*
X142048238Y-87897544D01*
X142165639Y-87913000D01*
X142444360Y-87912999D01*
X142444363Y-87912999D01*
X142561753Y-87897546D01*
X142561756Y-87897544D01*
X142561762Y-87897544D01*
X142575047Y-87892040D01*
X142644514Y-87884572D01*
X142669951Y-87892041D01*
X142683236Y-87897543D01*
X142683238Y-87897544D01*
X142800639Y-87913000D01*
X143079360Y-87912999D01*
X143079363Y-87912999D01*
X143196753Y-87897546D01*
X143196756Y-87897544D01*
X143196762Y-87897544D01*
X143210047Y-87892040D01*
X143279514Y-87884572D01*
X143304951Y-87892041D01*
X143318236Y-87897543D01*
X143318238Y-87897544D01*
X143435639Y-87913000D01*
X143668480Y-87912999D01*
X143735520Y-87932683D01*
X143756162Y-87949318D01*
X144163454Y-88356611D01*
X144163455Y-88356612D01*
X144278193Y-88433277D01*
X144405668Y-88486078D01*
X144405673Y-88486080D01*
X144405677Y-88486080D01*
X144405678Y-88486081D01*
X144541004Y-88513000D01*
X144541007Y-88513000D01*
X149056496Y-88513000D01*
X149058069Y-88512845D01*
X149058887Y-88513000D01*
X149062586Y-88513000D01*
X149062586Y-88513701D01*
X149126715Y-88525860D01*
X149157909Y-88548566D01*
X149255886Y-88646543D01*
X151268453Y-90659111D01*
X151268454Y-90659112D01*
X151383192Y-90735777D01*
X151510667Y-90788578D01*
X151510672Y-90788580D01*
X151610525Y-90808442D01*
X151649836Y-90816262D01*
X151711747Y-90848647D01*
X151746321Y-90909362D01*
X151742582Y-90979132D01*
X151741827Y-90981211D01*
X151705910Y-91077511D01*
X151705909Y-91077515D01*
X151705909Y-91077517D01*
X151699500Y-91137127D01*
X151699500Y-91137133D01*
X151699500Y-91137135D01*
X151699500Y-91632870D01*
X151699501Y-91632876D01*
X151705561Y-91689249D01*
X151705561Y-91715753D01*
X151699500Y-91772127D01*
X151699500Y-91772132D01*
X151699500Y-91772133D01*
X151699500Y-92267870D01*
X151699501Y-92267876D01*
X151705561Y-92324249D01*
X151705561Y-92350753D01*
X151699500Y-92407127D01*
X151699500Y-92407132D01*
X151699500Y-92465500D01*
X151679815Y-92532539D01*
X151627011Y-92578294D01*
X151575500Y-92589500D01*
X150156006Y-92589500D01*
X150088967Y-92569815D01*
X150051013Y-92531473D01*
X150029816Y-92497738D01*
X149902262Y-92370184D01*
X149829157Y-92324249D01*
X149749523Y-92274211D01*
X149579254Y-92214631D01*
X149579249Y-92214630D01*
X149400004Y-92194435D01*
X149399996Y-92194435D01*
X149220750Y-92214630D01*
X149220745Y-92214631D01*
X149050476Y-92274211D01*
X148897737Y-92370184D01*
X148770184Y-92497737D01*
X148674211Y-92650476D01*
X148614631Y-92820745D01*
X148614630Y-92820750D01*
X148594435Y-92999996D01*
X148594435Y-93000003D01*
X148614630Y-93179249D01*
X148614632Y-93179257D01*
X148640102Y-93252046D01*
X148643663Y-93321825D01*
X148608934Y-93382452D01*
X148546941Y-93414679D01*
X148523060Y-93417000D01*
X147635798Y-93417000D01*
X147568759Y-93397315D01*
X147548117Y-93380681D01*
X147386820Y-93219384D01*
X147353335Y-93158061D01*
X147350501Y-93131703D01*
X147350501Y-93007090D01*
X147350500Y-93007080D01*
X147350500Y-92963757D01*
X147370185Y-92896718D01*
X147373924Y-92891400D01*
X147374532Y-92890345D01*
X147374536Y-92890341D01*
X147435044Y-92744262D01*
X147450500Y-92626861D01*
X147450499Y-91123140D01*
X147450499Y-91123139D01*
X147450499Y-91123136D01*
X147435046Y-91005746D01*
X147435044Y-91005739D01*
X147435044Y-91005738D01*
X147374536Y-90859659D01*
X147278282Y-90734218D01*
X147152841Y-90637964D01*
X147006762Y-90577456D01*
X147006760Y-90577455D01*
X146889361Y-90562000D01*
X146610636Y-90562000D01*
X146493241Y-90577454D01*
X146493235Y-90577456D01*
X146479947Y-90582960D01*
X146410477Y-90590426D01*
X146385052Y-90582960D01*
X146371763Y-90577456D01*
X146254361Y-90562000D01*
X145975636Y-90562000D01*
X145858241Y-90577454D01*
X145858235Y-90577456D01*
X145844947Y-90582960D01*
X145775477Y-90590426D01*
X145750052Y-90582960D01*
X145736763Y-90577456D01*
X145619361Y-90562000D01*
X145340636Y-90562000D01*
X145223241Y-90577454D01*
X145223235Y-90577456D01*
X145209947Y-90582960D01*
X145140477Y-90590426D01*
X145115052Y-90582960D01*
X145101763Y-90577456D01*
X144984361Y-90562000D01*
X144705636Y-90562000D01*
X144588241Y-90577454D01*
X144588235Y-90577456D01*
X144574947Y-90582960D01*
X144505477Y-90590426D01*
X144480052Y-90582960D01*
X144466763Y-90577456D01*
X144349361Y-90562000D01*
X144070636Y-90562000D01*
X143953241Y-90577454D01*
X143953235Y-90577456D01*
X143939947Y-90582960D01*
X143870477Y-90590426D01*
X143845052Y-90582960D01*
X143831763Y-90577456D01*
X143714361Y-90562000D01*
X143435636Y-90562000D01*
X143318241Y-90577454D01*
X143318235Y-90577456D01*
X143304947Y-90582960D01*
X143235477Y-90590426D01*
X143210052Y-90582960D01*
X143196763Y-90577456D01*
X143079361Y-90562000D01*
X142800636Y-90562000D01*
X142683241Y-90577454D01*
X142683235Y-90577456D01*
X142669947Y-90582960D01*
X142600477Y-90590426D01*
X142575052Y-90582960D01*
X142561763Y-90577456D01*
X142444361Y-90562000D01*
X142165636Y-90562000D01*
X142048246Y-90577453D01*
X142048237Y-90577456D01*
X141902160Y-90637963D01*
X141776718Y-90734218D01*
X141680463Y-90859660D01*
X141619956Y-91005737D01*
X141619955Y-91005739D01*
X141604501Y-91123129D01*
X141604501Y-91123136D01*
X141604500Y-91123145D01*
X141604500Y-92626863D01*
X141619953Y-92744253D01*
X141619957Y-92744265D01*
X141680461Y-92890336D01*
X141684526Y-92897376D01*
X141682783Y-92898382D01*
X141704069Y-92953432D01*
X141704500Y-92963757D01*
X141704500Y-93007081D01*
X141704499Y-93007099D01*
X141704499Y-93172805D01*
X141704498Y-93172805D01*
X141745423Y-93325536D01*
X141762722Y-93355499D01*
X141780386Y-93386093D01*
X141797000Y-93448094D01*
X141797000Y-101099761D01*
X141777315Y-101166800D01*
X141760681Y-101187442D01*
X126296878Y-116651244D01*
X126235555Y-116684729D01*
X126165863Y-116679745D01*
X126109930Y-116637873D01*
X126094181Y-116604202D01*
X126092409Y-116604848D01*
X126089941Y-116598069D01*
X126089939Y-116598066D01*
X126089939Y-116598063D01*
X126011202Y-116441282D01*
X125945945Y-116361175D01*
X125238825Y-115654057D01*
X125238810Y-115654045D01*
X125172466Y-115599998D01*
X125158718Y-115588798D01*
X125157323Y-115588097D01*
X125001934Y-115510059D01*
X124831231Y-115469601D01*
X124831226Y-115469600D01*
X124831224Y-115469600D01*
X124655782Y-115469600D01*
X124655780Y-115469600D01*
X124655774Y-115469601D01*
X124485072Y-115510059D01*
X124379608Y-115563024D01*
X124328289Y-115588798D01*
X124328287Y-115588799D01*
X124328282Y-115588802D01*
X124248192Y-115654045D01*
X124248174Y-115654061D01*
X123682492Y-116219745D01*
X123682481Y-116219757D01*
X123617228Y-116299858D01*
X123617227Y-116299859D01*
X123538487Y-116456644D01*
X123498029Y-116627346D01*
X123498028Y-116627357D01*
X123498028Y-116759814D01*
X123478343Y-116826853D01*
X123425539Y-116872608D01*
X123374028Y-116883814D01*
X123241568Y-116883814D01*
X123241566Y-116883814D01*
X123241560Y-116883815D01*
X123070858Y-116924273D01*
X122965394Y-116977238D01*
X122914075Y-117003012D01*
X122914073Y-117003013D01*
X122914068Y-117003016D01*
X122833978Y-117068259D01*
X122833960Y-117068275D01*
X122268278Y-117633959D01*
X122268267Y-117633971D01*
X122203014Y-117714072D01*
X122203013Y-117714073D01*
X122124273Y-117870858D01*
X122083815Y-118041560D01*
X122083814Y-118041571D01*
X122083814Y-118217006D01*
X122083815Y-118217017D01*
X122124274Y-118387722D01*
X122163912Y-118466650D01*
X122176408Y-118535394D01*
X122149754Y-118599980D01*
X122140782Y-118609981D01*
X121861286Y-118889478D01*
X121749481Y-119001282D01*
X121749477Y-119001287D01*
X121730125Y-119034809D01*
X121728409Y-119037781D01*
X121670423Y-119138215D01*
X121629499Y-119290943D01*
X121629499Y-119290945D01*
X121629499Y-119459046D01*
X121629500Y-119459059D01*
X121629500Y-120589824D01*
X121609815Y-120656863D01*
X121557011Y-120702618D01*
X121487853Y-120712562D01*
X121424297Y-120683537D01*
X121388075Y-120627175D01*
X121387668Y-120627318D01*
X121387070Y-120625611D01*
X121386523Y-120624759D01*
X121385793Y-120621960D01*
X121378109Y-120600000D01*
X121325789Y-120450478D01*
X121307106Y-120420745D01*
X121274414Y-120368716D01*
X121229816Y-120297738D01*
X121102262Y-120170184D01*
X121067299Y-120148215D01*
X120949523Y-120074211D01*
X120779254Y-120014631D01*
X120779249Y-120014630D01*
X120600004Y-119994435D01*
X120599996Y-119994435D01*
X120420750Y-120014630D01*
X120420745Y-120014631D01*
X120250476Y-120074211D01*
X120097737Y-120170184D01*
X119970184Y-120297737D01*
X119874212Y-120450475D01*
X119874211Y-120450476D01*
X119837992Y-120553984D01*
X119808633Y-120600708D01*
X119735889Y-120673453D01*
X119735885Y-120673457D01*
X119659223Y-120788191D01*
X119606421Y-120915667D01*
X119606418Y-120915679D01*
X119581058Y-121043174D01*
X119581057Y-121043179D01*
X119579500Y-121051004D01*
X119579500Y-121362248D01*
X119559815Y-121429287D01*
X119507011Y-121475042D01*
X119437853Y-121484986D01*
X119431309Y-121483865D01*
X119258545Y-121449500D01*
X119258541Y-121449500D01*
X119061459Y-121449500D01*
X119061457Y-121449500D01*
X118868170Y-121487947D01*
X118868160Y-121487950D01*
X118686092Y-121563364D01*
X118686079Y-121563371D01*
X118522218Y-121672860D01*
X118522214Y-121672863D01*
X118382863Y-121812214D01*
X118382860Y-121812218D01*
X118273371Y-121976079D01*
X118273364Y-121976092D01*
X118197950Y-122158160D01*
X118197947Y-122158170D01*
X118159500Y-122351456D01*
X118159500Y-122351459D01*
X118159500Y-123648541D01*
X118159500Y-123648543D01*
X118159499Y-123648543D01*
X110500500Y-123648543D01*
X110500500Y-63248543D01*
X139709499Y-63248543D01*
X139747947Y-63441829D01*
X139747950Y-63441839D01*
X139823364Y-63623907D01*
X139823371Y-63623920D01*
X139932860Y-63787781D01*
X139932863Y-63787785D01*
X140072214Y-63927136D01*
X140072218Y-63927139D01*
X140236079Y-64036628D01*
X140236092Y-64036635D01*
X140418160Y-64112049D01*
X140418165Y-64112051D01*
X140418169Y-64112051D01*
X140418170Y-64112052D01*
X140611456Y-64150500D01*
X140611459Y-64150500D01*
X140808543Y-64150500D01*
X140938582Y-64124632D01*
X141001835Y-64112051D01*
X141183914Y-64036632D01*
X141347782Y-63927139D01*
X141487139Y-63787782D01*
X141596632Y-63623914D01*
X141672051Y-63441835D01*
X141710500Y-63248543D01*
X148349499Y-63248543D01*
X148387947Y-63441829D01*
X148387950Y-63441839D01*
X148463364Y-63623907D01*
X148463371Y-63623920D01*
X148572860Y-63787781D01*
X148572863Y-63787785D01*
X148712214Y-63927136D01*
X148712218Y-63927139D01*
X148876079Y-64036628D01*
X148876092Y-64036635D01*
X149058160Y-64112049D01*
X149058165Y-64112051D01*
X149058169Y-64112051D01*
X149058170Y-64112052D01*
X149251456Y-64150500D01*
X149251459Y-64150500D01*
X149448543Y-64150500D01*
X149578582Y-64124632D01*
X149641835Y-64112051D01*
X149823914Y-64036632D01*
X149987782Y-63927139D01*
X150127139Y-63787782D01*
X150236632Y-63623914D01*
X150312051Y-63441835D01*
X150350500Y-63248541D01*
X150350500Y-62251459D01*
X150350500Y-62251456D01*
X150312052Y-62058170D01*
X150312051Y-62058169D01*
X150312051Y-62058165D01*
X150312049Y-62058160D01*
X150236635Y-61876092D01*
X150236628Y-61876079D01*
X150127139Y-61712218D01*
X150127136Y-61712214D01*
X149987785Y-61572863D01*
X149987781Y-61572860D01*
X149823920Y-61463371D01*
X149823907Y-61463364D01*
X149641839Y-61387950D01*
X149641829Y-61387947D01*
X149448543Y-61349500D01*
X149448541Y-61349500D01*
X149251459Y-61349500D01*
X149251457Y-61349500D01*
X149058170Y-61387947D01*
X149058160Y-61387950D01*
X148876092Y-61463364D01*
X148876079Y-61463371D01*
X148712218Y-61572860D01*
X148712214Y-61572863D01*
X148572863Y-61712214D01*
X148572860Y-61712218D01*
X148463371Y-61876079D01*
X148463364Y-61876092D01*
X148387950Y-62058160D01*
X148387947Y-62058170D01*
X148349500Y-62251456D01*
X148349500Y-62251459D01*
X148349500Y-63248541D01*
X148349500Y-63248543D01*
X148349499Y-63248543D01*
X141710500Y-63248543D01*
X141710500Y-63248541D01*
X141710500Y-62251459D01*
X141710500Y-62251456D01*
X141672052Y-62058170D01*
X141672051Y-62058169D01*
X141672051Y-62058165D01*
X141672049Y-62058160D01*
X141596635Y-61876092D01*
X141596628Y-61876079D01*
X141487139Y-61712218D01*
X141487136Y-61712214D01*
X141347785Y-61572863D01*
X141347781Y-61572860D01*
X141183920Y-61463371D01*
X141183907Y-61463364D01*
X141001839Y-61387950D01*
X141001829Y-61387947D01*
X140808543Y-61349500D01*
X140808541Y-61349500D01*
X140611459Y-61349500D01*
X140611457Y-61349500D01*
X140418170Y-61387947D01*
X140418160Y-61387950D01*
X140236092Y-61463364D01*
X140236079Y-61463371D01*
X140072218Y-61572860D01*
X140072214Y-61572863D01*
X139932863Y-61712214D01*
X139932860Y-61712218D01*
X139823371Y-61876079D01*
X139823364Y-61876092D01*
X139747950Y-62058160D01*
X139747947Y-62058170D01*
X139709500Y-62251456D01*
X139709500Y-62251459D01*
X139709500Y-63248541D01*
X139709500Y-63248543D01*
X139709499Y-63248543D01*
X110500500Y-63248543D01*
X110500500Y-60624500D01*
X110520185Y-60557461D01*
X110572989Y-60511706D01*
X110624500Y-60500500D01*
X179375500Y-60500500D01*
X179442539Y-60520185D01*
G37*
%TD.AperFunction*%
%TD*%
M02*
