M48
; DRILL file {KiCad 8.0.8} date 2025-02-18T10:56:18-0600
; FORMAT={-:-/ absolute / metric / decimal}
; #@! TF.CreationDate,2025-02-18T10:56:18-06:00
; #@! TF.GenerationSoftware,Kicad,Pcbnew,8.0.8
; #@! TF.FileFunction,Plated,1,2,PTH
FMAT,2
METRIC
; #@! TA.AperFunction,Plated,PTH,ViaDrill
T1C0.300
; #@! TA.AperFunction,Plated,PTH,ComponentDrill
T2C0.600
%
G90
G05
T1
X120.6Y-120.8
X121.4Y-119.4
X124.814Y-116.786
X127.2Y-121.2
X128.8Y-120.4
X129.307Y-117.093
X137.963Y-79.6
X140.8Y-69.4
X141.4Y-120.4
X141.6Y-84.8
X142.0Y-116.0
X142.125Y-82.8
X142.162Y-79.6
X142.6Y-69.4
X143.0Y-84.6
X143.6Y-74.6
X144.6Y-69.2
X145.6Y-116.0
X146.022Y-69.4
X147.28Y-120.08
X147.78Y-69.02
X148.2Y-78.0
X148.2Y-79.962
X149.4Y-93.0
X149.6Y-73.438
X150.4Y-90.4
X150.6Y-69.4
X152.362Y-75.0
X152.362Y-78.4
X154.0Y-89.0
X154.8Y-92.2
X156.2Y-73.2
X158.0Y-83.8
X158.693Y-117.293
X159.8Y-95.2
X160.2Y-89.8
X160.8Y-120.8
X161.293Y-114.893
X162.4Y-76.6
X162.8Y-83.837
X163.23Y-122.4
X163.4Y-98.8
X166.0Y-88.8
X166.0Y-103.4
X166.8Y-101.6
X168.6Y-119.6
X169.8Y-120.6
X175.6Y-87.9
X175.6Y-103.4
X193.8Y-122.2
T2
G00X119.16Y-122.45
M15
G01X119.16Y-123.55
M16
G05
G00X119.16Y-126.8
M15
G01X119.16Y-127.6
M16
G05
G00X127.8Y-122.45
M15
G01X127.8Y-123.55
M16
G05
G00X127.8Y-126.8
M15
G01X127.8Y-127.6
M16
G05
G00X140.56Y-122.45
M15
G01X140.56Y-123.55
M16
G05
G00X140.56Y-126.8
M15
G01X140.56Y-127.6
M16
G05
G00X140.71Y-63.15
M15
G01X140.71Y-62.35
M16
G05
G00X140.71Y-67.5
M15
G01X140.71Y-66.4
M16
G05
G00X149.2Y-122.45
M15
G01X149.2Y-123.55
M16
G05
G00X149.2Y-126.8
M15
G01X149.2Y-127.6
M16
G05
G00X149.35Y-63.15
M15
G01X149.35Y-62.35
M16
G05
G00X149.35Y-67.5
M15
G01X149.35Y-66.4
M16
G05
G00X162.11Y-122.45
M15
G01X162.11Y-123.55
M16
G05
G00X162.11Y-126.8
M15
G01X162.11Y-127.6
M16
G05
G00X170.75Y-122.45
M15
G01X170.75Y-123.55
M16
G05
G00X170.75Y-126.8
M15
G01X170.75Y-127.6
M16
G05
M30
