%TF.GenerationSoftware,KiCad,Pcbnew,8.0.8*%
%TF.CreationDate,2025-02-18T10:56:21-06:00*%
%TF.ProjectId,MicroSDV004_USB2.0,4d696372-6f53-4445-9630-30345f555342,rev?*%
%TF.SameCoordinates,Original*%
%TF.FileFunction,Copper,L2,Bot*%
%TF.FilePolarity,Positive*%
%FSLAX46Y46*%
G04 Gerber Fmt 4.6, Leading zero omitted, Abs format (unit mm)*
G04 Created by KiCad (PCBNEW 8.0.8) date 2025-02-18 10:56:21*
%MOMM*%
%LPD*%
G01*
G04 APERTURE LIST*
%TA.AperFunction,HeatsinkPad*%
%ADD10O,1.000000X2.100000*%
%TD*%
%TA.AperFunction,HeatsinkPad*%
%ADD11O,1.000000X1.800000*%
%TD*%
%TA.AperFunction,ViaPad*%
%ADD12C,0.600000*%
%TD*%
%TA.AperFunction,ViaPad*%
%ADD13C,0.500000*%
%TD*%
%TA.AperFunction,Conductor*%
%ADD14C,0.500000*%
%TD*%
%TA.AperFunction,Conductor*%
%ADD15C,0.400000*%
%TD*%
%TA.AperFunction,Conductor*%
%ADD16C,0.200000*%
%TD*%
G04 APERTURE END LIST*
D10*
%TO.P,J1,S1,SHIELD*%
%TO.N,unconnected-(J1-SHIELD-PadS1)*%
X149350000Y-66950000D03*
D11*
X149350000Y-62750000D03*
D10*
X140710000Y-66950000D03*
D11*
X140710000Y-62750000D03*
%TD*%
D10*
%TO.P,J4,S1,SHIELD*%
%TO.N,unconnected-(J4-SHIELD-PadS1)*%
X119160000Y-123000000D03*
D11*
X119160000Y-127200000D03*
D10*
X127800000Y-123000000D03*
D11*
X127800000Y-127200000D03*
%TD*%
D10*
%TO.P,J2,S1,SHIELD*%
%TO.N,unconnected-(J2-SHIELD-PadS1)*%
X162110000Y-123000000D03*
D11*
X162110000Y-127200000D03*
D10*
X170750000Y-123000000D03*
D11*
X170750000Y-127200000D03*
%TD*%
D10*
%TO.P,J3,S1,SHIELD*%
%TO.N,unconnected-(J3-SHIELD-PadS1)*%
X140560000Y-123000000D03*
D11*
X140560000Y-127200000D03*
D10*
X149200000Y-123000000D03*
D11*
X149200000Y-127200000D03*
%TD*%
D12*
%TO.N,*%
X193800000Y-122200000D03*
D13*
%TO.N,VBUS*%
X142600000Y-69400000D03*
X147780000Y-69020000D03*
D12*
%TO.N,GND*%
X120600000Y-120800000D03*
X142125000Y-82800000D03*
X152362500Y-78400000D03*
X159800000Y-95200000D03*
D13*
X149600000Y-73437500D03*
D12*
X142000000Y-116000000D03*
X166000000Y-88800000D03*
D13*
X152362500Y-75000000D03*
D12*
X149400000Y-93000000D03*
X129307107Y-117092893D03*
X175600000Y-87900000D03*
X163400000Y-98800000D03*
X166000000Y-103400000D03*
X148200000Y-78000000D03*
X143600000Y-74600000D03*
X143000000Y-84600000D03*
X169800000Y-120600000D03*
X162800000Y-83837500D03*
X162400000Y-76600000D03*
X163230000Y-122400000D03*
X161292893Y-114892893D03*
X145600000Y-116000000D03*
X148200000Y-79962500D03*
X156200000Y-73200000D03*
X141600000Y-84800000D03*
X142162500Y-79600000D03*
X127200000Y-121200000D03*
X137962500Y-79600000D03*
X150600000Y-69400000D03*
X158692893Y-117292893D03*
X175600000Y-103400000D03*
X140800000Y-69400000D03*
X158000000Y-83800000D03*
X124814214Y-116785786D03*
%TO.N,5V*%
X141400000Y-120400000D03*
X147280000Y-120080000D03*
X150400000Y-90400000D03*
X128800000Y-120400000D03*
X160800000Y-120800000D03*
X121400000Y-119400000D03*
X168600000Y-119600000D03*
%TO.N,3.3V*%
X154800000Y-92200000D03*
X154000000Y-89000000D03*
%TO.N,/UPD-*%
X144600000Y-69200000D03*
X146022500Y-69400000D03*
%TO.N,Net-(U3-PMOS)*%
X166800000Y-101600000D03*
X160200000Y-89800000D03*
%TD*%
D14*
%TO.N,VBUS*%
X147400000Y-68600000D02*
X147780000Y-68980000D01*
X142965000Y-66835000D02*
X143800000Y-66000000D01*
X147780000Y-68980000D02*
X147780000Y-69020000D01*
X146323274Y-66000000D02*
X147400000Y-67076726D01*
X142965000Y-69035000D02*
X142965000Y-66835000D01*
X142600000Y-69400000D02*
X142965000Y-69035000D01*
X147400000Y-67076726D02*
X147400000Y-68600000D01*
X143800000Y-66000000D02*
X146323274Y-66000000D01*
D15*
%TO.N,3.3V*%
X155000000Y-92000000D02*
X154800000Y-92200000D01*
X154600000Y-89000000D02*
X155000000Y-89400000D01*
X154000000Y-89000000D02*
X154600000Y-89000000D01*
X155000000Y-89400000D02*
X155000000Y-92000000D01*
D16*
%TO.N,/UPD-*%
X144800000Y-69400000D02*
X144600000Y-69200000D01*
X146022500Y-69400000D02*
X144800000Y-69400000D01*
%TO.N,Net-(U3-PMOS)*%
X165800000Y-92200000D02*
X166600000Y-93000000D01*
X166600000Y-100000000D02*
X166800000Y-100200000D01*
X166600000Y-93000000D02*
X166600000Y-100000000D01*
X166800000Y-100200000D02*
X166800000Y-101600000D01*
X164200000Y-92200000D02*
X165800000Y-92200000D01*
X161800000Y-89800000D02*
X164200000Y-92200000D01*
X160200000Y-89800000D02*
X161800000Y-89800000D01*
%TD*%
%TA.AperFunction,Conductor*%
%TO.N,GND*%
G36*
X179442539Y-60520185D02*
G01*
X179488294Y-60572989D01*
X179499500Y-60624500D01*
X179499500Y-129375500D01*
X179479815Y-129442539D01*
X179427011Y-129488294D01*
X179375500Y-129499500D01*
X110624500Y-129499500D01*
X110557461Y-129479815D01*
X110511706Y-129427011D01*
X110500500Y-129375500D01*
X110500500Y-127698543D01*
X118159499Y-127698543D01*
X118197947Y-127891829D01*
X118197950Y-127891839D01*
X118273364Y-128073907D01*
X118273371Y-128073920D01*
X118382860Y-128237781D01*
X118382863Y-128237785D01*
X118522214Y-128377136D01*
X118522218Y-128377139D01*
X118686079Y-128486628D01*
X118686092Y-128486635D01*
X118868160Y-128562049D01*
X118868165Y-128562051D01*
X118868169Y-128562051D01*
X118868170Y-128562052D01*
X119061456Y-128600500D01*
X119061459Y-128600500D01*
X119258543Y-128600500D01*
X119388582Y-128574632D01*
X119451835Y-128562051D01*
X119633914Y-128486632D01*
X119797782Y-128377139D01*
X119937139Y-128237782D01*
X120046632Y-128073914D01*
X120122051Y-127891835D01*
X120160500Y-127698543D01*
X126799499Y-127698543D01*
X126837947Y-127891829D01*
X126837950Y-127891839D01*
X126913364Y-128073907D01*
X126913371Y-128073920D01*
X127022860Y-128237781D01*
X127022863Y-128237785D01*
X127162214Y-128377136D01*
X127162218Y-128377139D01*
X127326079Y-128486628D01*
X127326092Y-128486635D01*
X127508160Y-128562049D01*
X127508165Y-128562051D01*
X127508169Y-128562051D01*
X127508170Y-128562052D01*
X127701456Y-128600500D01*
X127701459Y-128600500D01*
X127898543Y-128600500D01*
X128028582Y-128574632D01*
X128091835Y-128562051D01*
X128273914Y-128486632D01*
X128437782Y-128377139D01*
X128577139Y-128237782D01*
X128686632Y-128073914D01*
X128762051Y-127891835D01*
X128800500Y-127698543D01*
X139559499Y-127698543D01*
X139597947Y-127891829D01*
X139597950Y-127891839D01*
X139673364Y-128073907D01*
X139673371Y-128073920D01*
X139782860Y-128237781D01*
X139782863Y-128237785D01*
X139922214Y-128377136D01*
X139922218Y-128377139D01*
X140086079Y-128486628D01*
X140086092Y-128486635D01*
X140268160Y-128562049D01*
X140268165Y-128562051D01*
X140268169Y-128562051D01*
X140268170Y-128562052D01*
X140461456Y-128600500D01*
X140461459Y-128600500D01*
X140658543Y-128600500D01*
X140788582Y-128574632D01*
X140851835Y-128562051D01*
X141033914Y-128486632D01*
X141197782Y-128377139D01*
X141337139Y-128237782D01*
X141446632Y-128073914D01*
X141522051Y-127891835D01*
X141560500Y-127698543D01*
X148199499Y-127698543D01*
X148237947Y-127891829D01*
X148237950Y-127891839D01*
X148313364Y-128073907D01*
X148313371Y-128073920D01*
X148422860Y-128237781D01*
X148422863Y-128237785D01*
X148562214Y-128377136D01*
X148562218Y-128377139D01*
X148726079Y-128486628D01*
X148726092Y-128486635D01*
X148908160Y-128562049D01*
X148908165Y-128562051D01*
X148908169Y-128562051D01*
X148908170Y-128562052D01*
X149101456Y-128600500D01*
X149101459Y-128600500D01*
X149298543Y-128600500D01*
X149428582Y-128574632D01*
X149491835Y-128562051D01*
X149673914Y-128486632D01*
X149837782Y-128377139D01*
X149977139Y-128237782D01*
X150086632Y-128073914D01*
X150162051Y-127891835D01*
X150200500Y-127698543D01*
X161109499Y-127698543D01*
X161147947Y-127891829D01*
X161147950Y-127891839D01*
X161223364Y-128073907D01*
X161223371Y-128073920D01*
X161332860Y-128237781D01*
X161332863Y-128237785D01*
X161472214Y-128377136D01*
X161472218Y-128377139D01*
X161636079Y-128486628D01*
X161636092Y-128486635D01*
X161818160Y-128562049D01*
X161818165Y-128562051D01*
X161818169Y-128562051D01*
X161818170Y-128562052D01*
X162011456Y-128600500D01*
X162011459Y-128600500D01*
X162208543Y-128600500D01*
X162338582Y-128574632D01*
X162401835Y-128562051D01*
X162583914Y-128486632D01*
X162747782Y-128377139D01*
X162887139Y-128237782D01*
X162996632Y-128073914D01*
X163072051Y-127891835D01*
X163110500Y-127698543D01*
X169749499Y-127698543D01*
X169787947Y-127891829D01*
X169787950Y-127891839D01*
X169863364Y-128073907D01*
X169863371Y-128073920D01*
X169972860Y-128237781D01*
X169972863Y-128237785D01*
X170112214Y-128377136D01*
X170112218Y-128377139D01*
X170276079Y-128486628D01*
X170276092Y-128486635D01*
X170458160Y-128562049D01*
X170458165Y-128562051D01*
X170458169Y-128562051D01*
X170458170Y-128562052D01*
X170651456Y-128600500D01*
X170651459Y-128600500D01*
X170848543Y-128600500D01*
X170978582Y-128574632D01*
X171041835Y-128562051D01*
X171223914Y-128486632D01*
X171387782Y-128377139D01*
X171527139Y-128237782D01*
X171636632Y-128073914D01*
X171712051Y-127891835D01*
X171750500Y-127698541D01*
X171750500Y-126701459D01*
X171750500Y-126701456D01*
X171712052Y-126508170D01*
X171712051Y-126508169D01*
X171712051Y-126508165D01*
X171712049Y-126508160D01*
X171636635Y-126326092D01*
X171636628Y-126326079D01*
X171527139Y-126162218D01*
X171527136Y-126162214D01*
X171387785Y-126022863D01*
X171387781Y-126022860D01*
X171223920Y-125913371D01*
X171223907Y-125913364D01*
X171041839Y-125837950D01*
X171041829Y-125837947D01*
X170848543Y-125799500D01*
X170848541Y-125799500D01*
X170651459Y-125799500D01*
X170651457Y-125799500D01*
X170458170Y-125837947D01*
X170458160Y-125837950D01*
X170276092Y-125913364D01*
X170276079Y-125913371D01*
X170112218Y-126022860D01*
X170112214Y-126022863D01*
X169972863Y-126162214D01*
X169972860Y-126162218D01*
X169863371Y-126326079D01*
X169863364Y-126326092D01*
X169787950Y-126508160D01*
X169787947Y-126508170D01*
X169749500Y-126701456D01*
X169749500Y-126701459D01*
X169749500Y-127698541D01*
X169749500Y-127698543D01*
X169749499Y-127698543D01*
X163110500Y-127698543D01*
X163110500Y-127698541D01*
X163110500Y-126701459D01*
X163110500Y-126701456D01*
X163072052Y-126508170D01*
X163072051Y-126508169D01*
X163072051Y-126508165D01*
X163072049Y-126508160D01*
X162996635Y-126326092D01*
X162996628Y-126326079D01*
X162887139Y-126162218D01*
X162887136Y-126162214D01*
X162747785Y-126022863D01*
X162747781Y-126022860D01*
X162583920Y-125913371D01*
X162583907Y-125913364D01*
X162401839Y-125837950D01*
X162401829Y-125837947D01*
X162208543Y-125799500D01*
X162208541Y-125799500D01*
X162011459Y-125799500D01*
X162011457Y-125799500D01*
X161818170Y-125837947D01*
X161818160Y-125837950D01*
X161636092Y-125913364D01*
X161636079Y-125913371D01*
X161472218Y-126022860D01*
X161472214Y-126022863D01*
X161332863Y-126162214D01*
X161332860Y-126162218D01*
X161223371Y-126326079D01*
X161223364Y-126326092D01*
X161147950Y-126508160D01*
X161147947Y-126508170D01*
X161109500Y-126701456D01*
X161109500Y-126701459D01*
X161109500Y-127698541D01*
X161109500Y-127698543D01*
X161109499Y-127698543D01*
X150200500Y-127698543D01*
X150200500Y-127698541D01*
X150200500Y-126701459D01*
X150200500Y-126701456D01*
X150162052Y-126508170D01*
X150162051Y-126508169D01*
X150162051Y-126508165D01*
X150162049Y-126508160D01*
X150086635Y-126326092D01*
X150086628Y-126326079D01*
X149977139Y-126162218D01*
X149977136Y-126162214D01*
X149837785Y-126022863D01*
X149837781Y-126022860D01*
X149673920Y-125913371D01*
X149673907Y-125913364D01*
X149491839Y-125837950D01*
X149491829Y-125837947D01*
X149298543Y-125799500D01*
X149298541Y-125799500D01*
X149101459Y-125799500D01*
X149101457Y-125799500D01*
X148908170Y-125837947D01*
X148908160Y-125837950D01*
X148726092Y-125913364D01*
X148726079Y-125913371D01*
X148562218Y-126022860D01*
X148562214Y-126022863D01*
X148422863Y-126162214D01*
X148422860Y-126162218D01*
X148313371Y-126326079D01*
X148313364Y-126326092D01*
X148237950Y-126508160D01*
X148237947Y-126508170D01*
X148199500Y-126701456D01*
X148199500Y-126701459D01*
X148199500Y-127698541D01*
X148199500Y-127698543D01*
X148199499Y-127698543D01*
X141560500Y-127698543D01*
X141560500Y-127698541D01*
X141560500Y-126701459D01*
X141560500Y-126701456D01*
X141522052Y-126508170D01*
X141522051Y-126508169D01*
X141522051Y-126508165D01*
X141522049Y-126508160D01*
X141446635Y-126326092D01*
X141446628Y-126326079D01*
X141337139Y-126162218D01*
X141337136Y-126162214D01*
X141197785Y-126022863D01*
X141197781Y-126022860D01*
X141033920Y-125913371D01*
X141033907Y-125913364D01*
X140851839Y-125837950D01*
X140851829Y-125837947D01*
X140658543Y-125799500D01*
X140658541Y-125799500D01*
X140461459Y-125799500D01*
X140461457Y-125799500D01*
X140268170Y-125837947D01*
X140268160Y-125837950D01*
X140086092Y-125913364D01*
X140086079Y-125913371D01*
X139922218Y-126022860D01*
X139922214Y-126022863D01*
X139782863Y-126162214D01*
X139782860Y-126162218D01*
X139673371Y-126326079D01*
X139673364Y-126326092D01*
X139597950Y-126508160D01*
X139597947Y-126508170D01*
X139559500Y-126701456D01*
X139559500Y-126701459D01*
X139559500Y-127698541D01*
X139559500Y-127698543D01*
X139559499Y-127698543D01*
X128800500Y-127698543D01*
X128800500Y-127698541D01*
X128800500Y-126701459D01*
X128800500Y-126701456D01*
X128762052Y-126508170D01*
X128762051Y-126508169D01*
X128762051Y-126508165D01*
X128762049Y-126508160D01*
X128686635Y-126326092D01*
X128686628Y-126326079D01*
X128577139Y-126162218D01*
X128577136Y-126162214D01*
X128437785Y-126022863D01*
X128437781Y-126022860D01*
X128273920Y-125913371D01*
X128273907Y-125913364D01*
X128091839Y-125837950D01*
X128091829Y-125837947D01*
X127898543Y-125799500D01*
X127898541Y-125799500D01*
X127701459Y-125799500D01*
X127701457Y-125799500D01*
X127508170Y-125837947D01*
X127508160Y-125837950D01*
X127326092Y-125913364D01*
X127326079Y-125913371D01*
X127162218Y-126022860D01*
X127162214Y-126022863D01*
X127022863Y-126162214D01*
X127022860Y-126162218D01*
X126913371Y-126326079D01*
X126913364Y-126326092D01*
X126837950Y-126508160D01*
X126837947Y-126508170D01*
X126799500Y-126701456D01*
X126799500Y-126701459D01*
X126799500Y-127698541D01*
X126799500Y-127698543D01*
X126799499Y-127698543D01*
X120160500Y-127698543D01*
X120160500Y-127698541D01*
X120160500Y-126701459D01*
X120160500Y-126701456D01*
X120122052Y-126508170D01*
X120122051Y-126508169D01*
X120122051Y-126508165D01*
X120122049Y-126508160D01*
X120046635Y-126326092D01*
X120046628Y-126326079D01*
X119937139Y-126162218D01*
X119937136Y-126162214D01*
X119797785Y-126022863D01*
X119797781Y-126022860D01*
X119633920Y-125913371D01*
X119633907Y-125913364D01*
X119451839Y-125837950D01*
X119451829Y-125837947D01*
X119258543Y-125799500D01*
X119258541Y-125799500D01*
X119061459Y-125799500D01*
X119061457Y-125799500D01*
X118868170Y-125837947D01*
X118868160Y-125837950D01*
X118686092Y-125913364D01*
X118686079Y-125913371D01*
X118522218Y-126022860D01*
X118522214Y-126022863D01*
X118382863Y-126162214D01*
X118382860Y-126162218D01*
X118273371Y-126326079D01*
X118273364Y-126326092D01*
X118197950Y-126508160D01*
X118197947Y-126508170D01*
X118159500Y-126701456D01*
X118159500Y-126701459D01*
X118159500Y-127698541D01*
X118159500Y-127698543D01*
X118159499Y-127698543D01*
X110500500Y-127698543D01*
X110500500Y-123648543D01*
X118159499Y-123648543D01*
X118197947Y-123841829D01*
X118197950Y-123841839D01*
X118273364Y-124023907D01*
X118273371Y-124023920D01*
X118382860Y-124187781D01*
X118382863Y-124187785D01*
X118522214Y-124327136D01*
X118522218Y-124327139D01*
X118686079Y-124436628D01*
X118686092Y-124436635D01*
X118868160Y-124512049D01*
X118868165Y-124512051D01*
X118868169Y-124512051D01*
X118868170Y-124512052D01*
X119061456Y-124550500D01*
X119061459Y-124550500D01*
X119258543Y-124550500D01*
X119388582Y-124524632D01*
X119451835Y-124512051D01*
X119633914Y-124436632D01*
X119797782Y-124327139D01*
X119937139Y-124187782D01*
X120046632Y-124023914D01*
X120046635Y-124023906D01*
X120049446Y-124018648D01*
X120098405Y-123968800D01*
X120166542Y-123953335D01*
X120232223Y-123977163D01*
X120234300Y-123978722D01*
X120236632Y-123980512D01*
X120236635Y-123980515D01*
X120367865Y-124056281D01*
X120514234Y-124095500D01*
X120514236Y-124095500D01*
X120665764Y-124095500D01*
X120665766Y-124095500D01*
X120812135Y-124056281D01*
X120943365Y-123980515D01*
X121050515Y-123873365D01*
X121126281Y-123742135D01*
X121165500Y-123595766D01*
X121165500Y-123444234D01*
X125794500Y-123444234D01*
X125794500Y-123595765D01*
X125833719Y-123742136D01*
X125871602Y-123807750D01*
X125909485Y-123873365D01*
X126016635Y-123980515D01*
X126147865Y-124056281D01*
X126294234Y-124095500D01*
X126294236Y-124095500D01*
X126445764Y-124095500D01*
X126445766Y-124095500D01*
X126592135Y-124056281D01*
X126723365Y-123980515D01*
X126723372Y-123980507D01*
X126725694Y-123978726D01*
X126728021Y-123977825D01*
X126730403Y-123976451D01*
X126730617Y-123976822D01*
X126790861Y-123953525D01*
X126859307Y-123967556D01*
X126909302Y-124016365D01*
X126910551Y-124018644D01*
X126913369Y-124023916D01*
X127022860Y-124187781D01*
X127022863Y-124187785D01*
X127162214Y-124327136D01*
X127162218Y-124327139D01*
X127326079Y-124436628D01*
X127326092Y-124436635D01*
X127508160Y-124512049D01*
X127508165Y-124512051D01*
X127508169Y-124512051D01*
X127508170Y-124512052D01*
X127701456Y-124550500D01*
X127701459Y-124550500D01*
X127898543Y-124550500D01*
X128028582Y-124524632D01*
X128091835Y-124512051D01*
X128273914Y-124436632D01*
X128437782Y-124327139D01*
X128577139Y-124187782D01*
X128686632Y-124023914D01*
X128762051Y-123841835D01*
X128800500Y-123648543D01*
X139559499Y-123648543D01*
X139597947Y-123841829D01*
X139597950Y-123841839D01*
X139673364Y-124023907D01*
X139673371Y-124023920D01*
X139782860Y-124187781D01*
X139782863Y-124187785D01*
X139922214Y-124327136D01*
X139922218Y-124327139D01*
X140086079Y-124436628D01*
X140086092Y-124436635D01*
X140268160Y-124512049D01*
X140268165Y-124512051D01*
X140268169Y-124512051D01*
X140268170Y-124512052D01*
X140461456Y-124550500D01*
X140461459Y-124550500D01*
X140658543Y-124550500D01*
X140788582Y-124524632D01*
X140851835Y-124512051D01*
X141033914Y-124436632D01*
X141197782Y-124327139D01*
X141337139Y-124187782D01*
X141446632Y-124023914D01*
X141446635Y-124023906D01*
X141449446Y-124018648D01*
X141498405Y-123968800D01*
X141566542Y-123953335D01*
X141632223Y-123977163D01*
X141634300Y-123978722D01*
X141636632Y-123980512D01*
X141636635Y-123980515D01*
X141767865Y-124056281D01*
X141914234Y-124095500D01*
X141914236Y-124095500D01*
X142065764Y-124095500D01*
X142065766Y-124095500D01*
X142212135Y-124056281D01*
X142343365Y-123980515D01*
X142450515Y-123873365D01*
X142526281Y-123742135D01*
X142565500Y-123595766D01*
X142565500Y-123444234D01*
X147194500Y-123444234D01*
X147194500Y-123595765D01*
X147233719Y-123742136D01*
X147271602Y-123807750D01*
X147309485Y-123873365D01*
X147416635Y-123980515D01*
X147547865Y-124056281D01*
X147694234Y-124095500D01*
X147694236Y-124095500D01*
X147845764Y-124095500D01*
X147845766Y-124095500D01*
X147992135Y-124056281D01*
X148123365Y-123980515D01*
X148123372Y-123980507D01*
X148125694Y-123978726D01*
X148128021Y-123977825D01*
X148130403Y-123976451D01*
X148130617Y-123976822D01*
X148190861Y-123953525D01*
X148259307Y-123967556D01*
X148309302Y-124016365D01*
X148310551Y-124018644D01*
X148313369Y-124023916D01*
X148422860Y-124187781D01*
X148422863Y-124187785D01*
X148562214Y-124327136D01*
X148562218Y-124327139D01*
X148726079Y-124436628D01*
X148726092Y-124436635D01*
X148908160Y-124512049D01*
X148908165Y-124512051D01*
X148908169Y-124512051D01*
X148908170Y-124512052D01*
X149101456Y-124550500D01*
X149101459Y-124550500D01*
X149298543Y-124550500D01*
X149428582Y-124524632D01*
X149491835Y-124512051D01*
X149673914Y-124436632D01*
X149837782Y-124327139D01*
X149977139Y-124187782D01*
X150086632Y-124023914D01*
X150162051Y-123841835D01*
X150200500Y-123648543D01*
X161109499Y-123648543D01*
X161147947Y-123841829D01*
X161147950Y-123841839D01*
X161223364Y-124023907D01*
X161223371Y-124023920D01*
X161332860Y-124187781D01*
X161332863Y-124187785D01*
X161472214Y-124327136D01*
X161472218Y-124327139D01*
X161636079Y-124436628D01*
X161636092Y-124436635D01*
X161818160Y-124512049D01*
X161818165Y-124512051D01*
X161818169Y-124512051D01*
X161818170Y-124512052D01*
X162011456Y-124550500D01*
X162011459Y-124550500D01*
X162208543Y-124550500D01*
X162338582Y-124524632D01*
X162401835Y-124512051D01*
X162583914Y-124436632D01*
X162747782Y-124327139D01*
X162887139Y-124187782D01*
X162996632Y-124023914D01*
X162996635Y-124023906D01*
X162999446Y-124018648D01*
X163048405Y-123968800D01*
X163116542Y-123953335D01*
X163182223Y-123977163D01*
X163184300Y-123978722D01*
X163186632Y-123980512D01*
X163186635Y-123980515D01*
X163317865Y-124056281D01*
X163464234Y-124095500D01*
X163464236Y-124095500D01*
X163615764Y-124095500D01*
X163615766Y-124095500D01*
X163762135Y-124056281D01*
X163893365Y-123980515D01*
X164000515Y-123873365D01*
X164076281Y-123742135D01*
X164115500Y-123595766D01*
X164115500Y-123444234D01*
X168744500Y-123444234D01*
X168744500Y-123595765D01*
X168783719Y-123742136D01*
X168821602Y-123807750D01*
X168859485Y-123873365D01*
X168966635Y-123980515D01*
X169097865Y-124056281D01*
X169244234Y-124095500D01*
X169244236Y-124095500D01*
X169395764Y-124095500D01*
X169395766Y-124095500D01*
X169542135Y-124056281D01*
X169673365Y-123980515D01*
X169673372Y-123980507D01*
X169675694Y-123978726D01*
X169678021Y-123977825D01*
X169680403Y-123976451D01*
X169680617Y-123976822D01*
X169740861Y-123953525D01*
X169809307Y-123967556D01*
X169859302Y-124016365D01*
X169860551Y-124018644D01*
X169863369Y-124023916D01*
X169972860Y-124187781D01*
X169972863Y-124187785D01*
X170112214Y-124327136D01*
X170112218Y-124327139D01*
X170276079Y-124436628D01*
X170276092Y-124436635D01*
X170458160Y-124512049D01*
X170458165Y-124512051D01*
X170458169Y-124512051D01*
X170458170Y-124512052D01*
X170651456Y-124550500D01*
X170651459Y-124550500D01*
X170848543Y-124550500D01*
X170978582Y-124524632D01*
X171041835Y-124512051D01*
X171223914Y-124436632D01*
X171387782Y-124327139D01*
X171527139Y-124187782D01*
X171636632Y-124023914D01*
X171712051Y-123841835D01*
X171750500Y-123648541D01*
X171750500Y-122351459D01*
X171750500Y-122351456D01*
X171712052Y-122158170D01*
X171712051Y-122158169D01*
X171712051Y-122158165D01*
X171712049Y-122158160D01*
X171636635Y-121976092D01*
X171636628Y-121976079D01*
X171527139Y-121812218D01*
X171527136Y-121812214D01*
X171387785Y-121672863D01*
X171387781Y-121672860D01*
X171223920Y-121563371D01*
X171223907Y-121563364D01*
X171041839Y-121487950D01*
X171041829Y-121487947D01*
X170848543Y-121449500D01*
X170848541Y-121449500D01*
X170651459Y-121449500D01*
X170651457Y-121449500D01*
X170458170Y-121487947D01*
X170458160Y-121487950D01*
X170276092Y-121563364D01*
X170276079Y-121563371D01*
X170112218Y-121672860D01*
X170112214Y-121672863D01*
X169972863Y-121812214D01*
X169972860Y-121812218D01*
X169863371Y-121976079D01*
X169863364Y-121976092D01*
X169787950Y-122158160D01*
X169787947Y-122158170D01*
X169749500Y-122351456D01*
X169749500Y-122888666D01*
X169729815Y-122955705D01*
X169677011Y-123001460D01*
X169607853Y-123011404D01*
X169563501Y-122996054D01*
X169542137Y-122983719D01*
X169437584Y-122955705D01*
X169395766Y-122944500D01*
X169244234Y-122944500D01*
X169097863Y-122983719D01*
X168966635Y-123059485D01*
X168966632Y-123059487D01*
X168859487Y-123166632D01*
X168859485Y-123166635D01*
X168783719Y-123297863D01*
X168744500Y-123444234D01*
X164115500Y-123444234D01*
X164076281Y-123297865D01*
X164000515Y-123166635D01*
X163893365Y-123059485D01*
X163810087Y-123011404D01*
X163762136Y-122983719D01*
X163657584Y-122955705D01*
X163615766Y-122944500D01*
X163464234Y-122944500D01*
X163317862Y-122983719D01*
X163296499Y-122996054D01*
X163228598Y-123012525D01*
X163162572Y-122989673D01*
X163119382Y-122934751D01*
X163110500Y-122888666D01*
X163110500Y-122351456D01*
X163072052Y-122158170D01*
X163072051Y-122158169D01*
X163072051Y-122158165D01*
X163072049Y-122158160D01*
X162996635Y-121976092D01*
X162996628Y-121976079D01*
X162887139Y-121812218D01*
X162887136Y-121812214D01*
X162747785Y-121672863D01*
X162747781Y-121672860D01*
X162583920Y-121563371D01*
X162583907Y-121563364D01*
X162401839Y-121487950D01*
X162401829Y-121487947D01*
X162208543Y-121449500D01*
X162208541Y-121449500D01*
X162011459Y-121449500D01*
X162011457Y-121449500D01*
X161818170Y-121487947D01*
X161818160Y-121487950D01*
X161636092Y-121563364D01*
X161636079Y-121563371D01*
X161472218Y-121672860D01*
X161472214Y-121672863D01*
X161332863Y-121812214D01*
X161332860Y-121812218D01*
X161223371Y-121976079D01*
X161223364Y-121976092D01*
X161147950Y-122158160D01*
X161147947Y-122158170D01*
X161109500Y-122351456D01*
X161109500Y-122351459D01*
X161109500Y-123648541D01*
X161109500Y-123648543D01*
X161109499Y-123648543D01*
X150200500Y-123648543D01*
X150200500Y-123648541D01*
X150200500Y-122351459D01*
X150200500Y-122351456D01*
X150162052Y-122158170D01*
X150162051Y-122158169D01*
X150162051Y-122158165D01*
X150162049Y-122158160D01*
X150086635Y-121976092D01*
X150086628Y-121976079D01*
X149977139Y-121812218D01*
X149977136Y-121812214D01*
X149837785Y-121672863D01*
X149837781Y-121672860D01*
X149673920Y-121563371D01*
X149673907Y-121563364D01*
X149491839Y-121487950D01*
X149491829Y-121487947D01*
X149298543Y-121449500D01*
X149298541Y-121449500D01*
X149101459Y-121449500D01*
X149101457Y-121449500D01*
X148908170Y-121487947D01*
X148908160Y-121487950D01*
X148726092Y-121563364D01*
X148726079Y-121563371D01*
X148562218Y-121672860D01*
X148562214Y-121672863D01*
X148422863Y-121812214D01*
X148422860Y-121812218D01*
X148313371Y-121976079D01*
X148313364Y-121976092D01*
X148237950Y-122158160D01*
X148237947Y-122158170D01*
X148199500Y-122351456D01*
X148199500Y-122888666D01*
X148179815Y-122955705D01*
X148127011Y-123001460D01*
X148057853Y-123011404D01*
X148013501Y-122996054D01*
X147992137Y-122983719D01*
X147887584Y-122955705D01*
X147845766Y-122944500D01*
X147694234Y-122944500D01*
X147547863Y-122983719D01*
X147416635Y-123059485D01*
X147416632Y-123059487D01*
X147309487Y-123166632D01*
X147309485Y-123166635D01*
X147233719Y-123297863D01*
X147194500Y-123444234D01*
X142565500Y-123444234D01*
X142526281Y-123297865D01*
X142450515Y-123166635D01*
X142343365Y-123059485D01*
X142260087Y-123011404D01*
X142212136Y-122983719D01*
X142107584Y-122955705D01*
X142065766Y-122944500D01*
X141914234Y-122944500D01*
X141767862Y-122983719D01*
X141746499Y-122996054D01*
X141678598Y-123012525D01*
X141612572Y-122989673D01*
X141569382Y-122934751D01*
X141560500Y-122888666D01*
X141560500Y-122351456D01*
X141522052Y-122158170D01*
X141522051Y-122158169D01*
X141522051Y-122158165D01*
X141522049Y-122158160D01*
X141446635Y-121976092D01*
X141446628Y-121976079D01*
X141337139Y-121812218D01*
X141337136Y-121812214D01*
X141197785Y-121672863D01*
X141197781Y-121672860D01*
X141033920Y-121563371D01*
X141033907Y-121563364D01*
X140851839Y-121487950D01*
X140851829Y-121487947D01*
X140658543Y-121449500D01*
X140658541Y-121449500D01*
X140461459Y-121449500D01*
X140461457Y-121449500D01*
X140268170Y-121487947D01*
X140268160Y-121487950D01*
X140086092Y-121563364D01*
X140086079Y-121563371D01*
X139922218Y-121672860D01*
X139922214Y-121672863D01*
X139782863Y-121812214D01*
X139782860Y-121812218D01*
X139673371Y-121976079D01*
X139673364Y-121976092D01*
X139597950Y-122158160D01*
X139597947Y-122158170D01*
X139559500Y-122351456D01*
X139559500Y-122351459D01*
X139559500Y-123648541D01*
X139559500Y-123648543D01*
X139559499Y-123648543D01*
X128800500Y-123648543D01*
X128800500Y-123648541D01*
X128800500Y-122351459D01*
X128800500Y-122351456D01*
X128762052Y-122158170D01*
X128762051Y-122158169D01*
X128762051Y-122158165D01*
X128762049Y-122158160D01*
X128686635Y-121976092D01*
X128686628Y-121976079D01*
X128577139Y-121812218D01*
X128577136Y-121812214D01*
X128437785Y-121672863D01*
X128437781Y-121672860D01*
X128273920Y-121563371D01*
X128273907Y-121563364D01*
X128091839Y-121487950D01*
X128091829Y-121487947D01*
X127898543Y-121449500D01*
X127898541Y-121449500D01*
X127701459Y-121449500D01*
X127701457Y-121449500D01*
X127508170Y-121487947D01*
X127508160Y-121487950D01*
X127326092Y-121563364D01*
X127326079Y-121563371D01*
X127162218Y-121672860D01*
X127162214Y-121672863D01*
X127022863Y-121812214D01*
X127022860Y-121812218D01*
X126913371Y-121976079D01*
X126913364Y-121976092D01*
X126837950Y-122158160D01*
X126837947Y-122158170D01*
X126799500Y-122351456D01*
X126799500Y-122888666D01*
X126779815Y-122955705D01*
X126727011Y-123001460D01*
X126657853Y-123011404D01*
X126613501Y-122996054D01*
X126592137Y-122983719D01*
X126487584Y-122955705D01*
X126445766Y-122944500D01*
X126294234Y-122944500D01*
X126147863Y-122983719D01*
X126016635Y-123059485D01*
X126016632Y-123059487D01*
X125909487Y-123166632D01*
X125909485Y-123166635D01*
X125833719Y-123297863D01*
X125794500Y-123444234D01*
X121165500Y-123444234D01*
X121126281Y-123297865D01*
X121050515Y-123166635D01*
X120943365Y-123059485D01*
X120860087Y-123011404D01*
X120812136Y-122983719D01*
X120707584Y-122955705D01*
X120665766Y-122944500D01*
X120514234Y-122944500D01*
X120367862Y-122983719D01*
X120346499Y-122996054D01*
X120278598Y-123012525D01*
X120212572Y-122989673D01*
X120169382Y-122934751D01*
X120160500Y-122888666D01*
X120160500Y-122351456D01*
X120122052Y-122158170D01*
X120122051Y-122158169D01*
X120122051Y-122158165D01*
X120122049Y-122158160D01*
X120046635Y-121976092D01*
X120046628Y-121976079D01*
X119937139Y-121812218D01*
X119937136Y-121812214D01*
X119797785Y-121672863D01*
X119797781Y-121672860D01*
X119633920Y-121563371D01*
X119633907Y-121563364D01*
X119451839Y-121487950D01*
X119451829Y-121487947D01*
X119258543Y-121449500D01*
X119258541Y-121449500D01*
X119061459Y-121449500D01*
X119061457Y-121449500D01*
X118868170Y-121487947D01*
X118868160Y-121487950D01*
X118686092Y-121563364D01*
X118686079Y-121563371D01*
X118522218Y-121672860D01*
X118522214Y-121672863D01*
X118382863Y-121812214D01*
X118382860Y-121812218D01*
X118273371Y-121976079D01*
X118273364Y-121976092D01*
X118197950Y-122158160D01*
X118197947Y-122158170D01*
X118159500Y-122351456D01*
X118159500Y-122351459D01*
X118159500Y-123648541D01*
X118159500Y-123648543D01*
X118159499Y-123648543D01*
X110500500Y-123648543D01*
X110500500Y-120399996D01*
X127994435Y-120399996D01*
X127994435Y-120400003D01*
X128014630Y-120579249D01*
X128014631Y-120579254D01*
X128074211Y-120749523D01*
X128159693Y-120885565D01*
X128170184Y-120902262D01*
X128297738Y-121029816D01*
X128450478Y-121125789D01*
X128518306Y-121149523D01*
X128620745Y-121185368D01*
X128620750Y-121185369D01*
X128799996Y-121205565D01*
X128800000Y-121205565D01*
X128800004Y-121205565D01*
X128979249Y-121185369D01*
X128979252Y-121185368D01*
X128979255Y-121185368D01*
X129149522Y-121125789D01*
X129302262Y-121029816D01*
X129429816Y-120902262D01*
X129525789Y-120749522D01*
X129585368Y-120579255D01*
X129605565Y-120400000D01*
X129605565Y-120399996D01*
X140594435Y-120399996D01*
X140594435Y-120400003D01*
X140614630Y-120579249D01*
X140614631Y-120579254D01*
X140674211Y-120749523D01*
X140759693Y-120885565D01*
X140770184Y-120902262D01*
X140897738Y-121029816D01*
X141050478Y-121125789D01*
X141118306Y-121149523D01*
X141220745Y-121185368D01*
X141220750Y-121185369D01*
X141399996Y-121205565D01*
X141400000Y-121205565D01*
X141400004Y-121205565D01*
X141579249Y-121185369D01*
X141579252Y-121185368D01*
X141579255Y-121185368D01*
X141749522Y-121125789D01*
X141902262Y-121029816D01*
X142029816Y-120902262D01*
X142125789Y-120749522D01*
X142185368Y-120579255D01*
X142205565Y-120400000D01*
X142203916Y-120385369D01*
X142185369Y-120220750D01*
X142185368Y-120220745D01*
X142136118Y-120079996D01*
X146474435Y-120079996D01*
X146474435Y-120080003D01*
X146494630Y-120259249D01*
X146494631Y-120259254D01*
X146554211Y-120429523D01*
X146648291Y-120579249D01*
X146650184Y-120582262D01*
X146777738Y-120709816D01*
X146840930Y-120749522D01*
X146921269Y-120800003D01*
X146930478Y-120805789D01*
X147100745Y-120865368D01*
X147100750Y-120865369D01*
X147279996Y-120885565D01*
X147280000Y-120885565D01*
X147280004Y-120885565D01*
X147459249Y-120865369D01*
X147459252Y-120865368D01*
X147459255Y-120865368D01*
X147629522Y-120805789D01*
X147638741Y-120799996D01*
X159994435Y-120799996D01*
X159994435Y-120800003D01*
X160014630Y-120979249D01*
X160014631Y-120979254D01*
X160074211Y-121149523D01*
X160096735Y-121185369D01*
X160170184Y-121302262D01*
X160297738Y-121429816D01*
X160450478Y-121525789D01*
X160620745Y-121585368D01*
X160620750Y-121585369D01*
X160799996Y-121605565D01*
X160800000Y-121605565D01*
X160800004Y-121605565D01*
X160979249Y-121585369D01*
X160979252Y-121585368D01*
X160979255Y-121585368D01*
X161149522Y-121525789D01*
X161302262Y-121429816D01*
X161429816Y-121302262D01*
X161525789Y-121149522D01*
X161585368Y-120979255D01*
X161594043Y-120902262D01*
X161605565Y-120800003D01*
X161605565Y-120799996D01*
X161585369Y-120620750D01*
X161585368Y-120620745D01*
X161525788Y-120450476D01*
X161484878Y-120385368D01*
X161429816Y-120297738D01*
X161302262Y-120170184D01*
X161231608Y-120125789D01*
X161149523Y-120074211D01*
X160979254Y-120014631D01*
X160979249Y-120014630D01*
X160800004Y-119994435D01*
X160799996Y-119994435D01*
X160620750Y-120014630D01*
X160620745Y-120014631D01*
X160450476Y-120074211D01*
X160297737Y-120170184D01*
X160170184Y-120297737D01*
X160074211Y-120450476D01*
X160014631Y-120620745D01*
X160014630Y-120620750D01*
X159994435Y-120799996D01*
X147638741Y-120799996D01*
X147782262Y-120709816D01*
X147909816Y-120582262D01*
X148005789Y-120429522D01*
X148065368Y-120259255D01*
X148068685Y-120229815D01*
X148085565Y-120080003D01*
X148085565Y-120079996D01*
X148065369Y-119900750D01*
X148065368Y-119900745D01*
X148022856Y-119779254D01*
X148005789Y-119730478D01*
X147923802Y-119599996D01*
X167794435Y-119599996D01*
X167794435Y-119600003D01*
X167814630Y-119779249D01*
X167814631Y-119779254D01*
X167874211Y-119949523D01*
X167937646Y-120050478D01*
X167970184Y-120102262D01*
X168097738Y-120229816D01*
X168144590Y-120259255D01*
X168205833Y-120297737D01*
X168250478Y-120325789D01*
X168420745Y-120385368D01*
X168420750Y-120385369D01*
X168599996Y-120405565D01*
X168600000Y-120405565D01*
X168600004Y-120405565D01*
X168779249Y-120385369D01*
X168779252Y-120385368D01*
X168779255Y-120385368D01*
X168949522Y-120325789D01*
X169102262Y-120229816D01*
X169229816Y-120102262D01*
X169325789Y-119949522D01*
X169385368Y-119779255D01*
X169397204Y-119674211D01*
X169405565Y-119600003D01*
X169405565Y-119599996D01*
X169385369Y-119420750D01*
X169385368Y-119420745D01*
X169325788Y-119250476D01*
X169229815Y-119097737D01*
X169102262Y-118970184D01*
X168949523Y-118874211D01*
X168779254Y-118814631D01*
X168779249Y-118814630D01*
X168600004Y-118794435D01*
X168599996Y-118794435D01*
X168420750Y-118814630D01*
X168420745Y-118814631D01*
X168250476Y-118874211D01*
X168097737Y-118970184D01*
X167970184Y-119097737D01*
X167874211Y-119250476D01*
X167814631Y-119420745D01*
X167814630Y-119420750D01*
X167794435Y-119599996D01*
X147923802Y-119599996D01*
X147909816Y-119577738D01*
X147782262Y-119450184D01*
X147735410Y-119420745D01*
X147629523Y-119354211D01*
X147459254Y-119294631D01*
X147459249Y-119294630D01*
X147280004Y-119274435D01*
X147279996Y-119274435D01*
X147100750Y-119294630D01*
X147100745Y-119294631D01*
X146930476Y-119354211D01*
X146777737Y-119450184D01*
X146650184Y-119577737D01*
X146554211Y-119730476D01*
X146494631Y-119900745D01*
X146494630Y-119900750D01*
X146474435Y-120079996D01*
X142136118Y-120079996D01*
X142125789Y-120050478D01*
X142103265Y-120014632D01*
X142062354Y-119949522D01*
X142029816Y-119897738D01*
X141902262Y-119770184D01*
X141869379Y-119749522D01*
X141749523Y-119674211D01*
X141579254Y-119614631D01*
X141579249Y-119614630D01*
X141400004Y-119594435D01*
X141399996Y-119594435D01*
X141220750Y-119614630D01*
X141220745Y-119614631D01*
X141050476Y-119674211D01*
X140897737Y-119770184D01*
X140770184Y-119897737D01*
X140674211Y-120050476D01*
X140614631Y-120220745D01*
X140614630Y-120220750D01*
X140594435Y-120399996D01*
X129605565Y-120399996D01*
X129603916Y-120385369D01*
X129585369Y-120220750D01*
X129585368Y-120220745D01*
X129536118Y-120079996D01*
X129525789Y-120050478D01*
X129503265Y-120014632D01*
X129462354Y-119949522D01*
X129429816Y-119897738D01*
X129302262Y-119770184D01*
X129269379Y-119749522D01*
X129149523Y-119674211D01*
X128979254Y-119614631D01*
X128979249Y-119614630D01*
X128800004Y-119594435D01*
X128799996Y-119594435D01*
X128620750Y-119614630D01*
X128620745Y-119614631D01*
X128450476Y-119674211D01*
X128297737Y-119770184D01*
X128170184Y-119897737D01*
X128074211Y-120050476D01*
X128014631Y-120220745D01*
X128014630Y-120220750D01*
X127994435Y-120399996D01*
X110500500Y-120399996D01*
X110500500Y-119399996D01*
X120594435Y-119399996D01*
X120594435Y-119400003D01*
X120614630Y-119579249D01*
X120614631Y-119579254D01*
X120674211Y-119749523D01*
X120767341Y-119897737D01*
X120770184Y-119902262D01*
X120897738Y-120029816D01*
X121050478Y-120125789D01*
X121177352Y-120170184D01*
X121220745Y-120185368D01*
X121220750Y-120185369D01*
X121399996Y-120205565D01*
X121400000Y-120205565D01*
X121400004Y-120205565D01*
X121579249Y-120185369D01*
X121579252Y-120185368D01*
X121579255Y-120185368D01*
X121749522Y-120125789D01*
X121902262Y-120029816D01*
X122029816Y-119902262D01*
X122125789Y-119749522D01*
X122185368Y-119579255D01*
X122205565Y-119400000D01*
X122191417Y-119274435D01*
X122185369Y-119220750D01*
X122185368Y-119220745D01*
X122142326Y-119097738D01*
X122125789Y-119050478D01*
X122029816Y-118897738D01*
X121902262Y-118770184D01*
X121749523Y-118674211D01*
X121579254Y-118614631D01*
X121579249Y-118614630D01*
X121400004Y-118594435D01*
X121399996Y-118594435D01*
X121220750Y-118614630D01*
X121220745Y-118614631D01*
X121050476Y-118674211D01*
X120897737Y-118770184D01*
X120770184Y-118897737D01*
X120674211Y-119050476D01*
X120614631Y-119220745D01*
X120614630Y-119220750D01*
X120594435Y-119399996D01*
X110500500Y-119399996D01*
X110500500Y-90399996D01*
X149594435Y-90399996D01*
X149594435Y-90400003D01*
X149614630Y-90579249D01*
X149614631Y-90579254D01*
X149674211Y-90749523D01*
X149770184Y-90902262D01*
X149897738Y-91029816D01*
X150050478Y-91125789D01*
X150220745Y-91185368D01*
X150220750Y-91185369D01*
X150399996Y-91205565D01*
X150400000Y-91205565D01*
X150400004Y-91205565D01*
X150579249Y-91185369D01*
X150579252Y-91185368D01*
X150579255Y-91185368D01*
X150749522Y-91125789D01*
X150902262Y-91029816D01*
X151029816Y-90902262D01*
X151125789Y-90749522D01*
X151185368Y-90579255D01*
X151191392Y-90525789D01*
X151205565Y-90400003D01*
X151205565Y-90399996D01*
X151185369Y-90220750D01*
X151185368Y-90220745D01*
X151125788Y-90050476D01*
X151081033Y-89979249D01*
X151029816Y-89897738D01*
X150902262Y-89770184D01*
X150831608Y-89725789D01*
X150749523Y-89674211D01*
X150579254Y-89614631D01*
X150579249Y-89614630D01*
X150400004Y-89594435D01*
X150399996Y-89594435D01*
X150220750Y-89614630D01*
X150220745Y-89614631D01*
X150050476Y-89674211D01*
X149897737Y-89770184D01*
X149770184Y-89897737D01*
X149674211Y-90050476D01*
X149614631Y-90220745D01*
X149614630Y-90220750D01*
X149594435Y-90399996D01*
X110500500Y-90399996D01*
X110500500Y-88999996D01*
X153194435Y-88999996D01*
X153194435Y-89000003D01*
X153214630Y-89179249D01*
X153214631Y-89179254D01*
X153274211Y-89349523D01*
X153337646Y-89450478D01*
X153370184Y-89502262D01*
X153497738Y-89629816D01*
X153650478Y-89725789D01*
X153700499Y-89743292D01*
X153820745Y-89785368D01*
X153820750Y-89785369D01*
X153999996Y-89805565D01*
X154000000Y-89805565D01*
X154000004Y-89805565D01*
X154161617Y-89787356D01*
X154230439Y-89799411D01*
X154281818Y-89846760D01*
X154299500Y-89910576D01*
X154299500Y-91517059D01*
X154279815Y-91584098D01*
X154263182Y-91604740D01*
X154170183Y-91697739D01*
X154074211Y-91850476D01*
X154014631Y-92020745D01*
X154014630Y-92020750D01*
X153994435Y-92199996D01*
X153994435Y-92200003D01*
X154014630Y-92379249D01*
X154014631Y-92379254D01*
X154074211Y-92549523D01*
X154156525Y-92680524D01*
X154170184Y-92702262D01*
X154297738Y-92829816D01*
X154388080Y-92886582D01*
X154442768Y-92920945D01*
X154450478Y-92925789D01*
X154535353Y-92955488D01*
X154620745Y-92985368D01*
X154620750Y-92985369D01*
X154799996Y-93005565D01*
X154800000Y-93005565D01*
X154800004Y-93005565D01*
X154979249Y-92985369D01*
X154979252Y-92985368D01*
X154979255Y-92985368D01*
X155149522Y-92925789D01*
X155302262Y-92829816D01*
X155429816Y-92702262D01*
X155525789Y-92549522D01*
X155576097Y-92405746D01*
X155590036Y-92377814D01*
X155620775Y-92331811D01*
X155673580Y-92204328D01*
X155700500Y-92068994D01*
X155700500Y-91931006D01*
X155700500Y-89799996D01*
X159394435Y-89799996D01*
X159394435Y-89800003D01*
X159414630Y-89979249D01*
X159414631Y-89979254D01*
X159474211Y-90149523D01*
X159570184Y-90302262D01*
X159697738Y-90429816D01*
X159850478Y-90525789D01*
X160003258Y-90579249D01*
X160020745Y-90585368D01*
X160020750Y-90585369D01*
X160199996Y-90605565D01*
X160200000Y-90605565D01*
X160200004Y-90605565D01*
X160379249Y-90585369D01*
X160379252Y-90585368D01*
X160379255Y-90585368D01*
X160549522Y-90525789D01*
X160702262Y-90429816D01*
X160702267Y-90429810D01*
X160705097Y-90427555D01*
X160707275Y-90426665D01*
X160708158Y-90426111D01*
X160708255Y-90426265D01*
X160769783Y-90401145D01*
X160782412Y-90400500D01*
X161499903Y-90400500D01*
X161566942Y-90420185D01*
X161587583Y-90436818D01*
X163831284Y-92680520D01*
X163831286Y-92680521D01*
X163831290Y-92680524D01*
X163868944Y-92702263D01*
X163968216Y-92759577D01*
X164120943Y-92800501D01*
X164120945Y-92800501D01*
X164286654Y-92800501D01*
X164286670Y-92800500D01*
X165499903Y-92800500D01*
X165566942Y-92820185D01*
X165587584Y-92836819D01*
X165963181Y-93212416D01*
X165996666Y-93273739D01*
X165999500Y-93300097D01*
X165999500Y-99913330D01*
X165999499Y-99913348D01*
X165999499Y-100079054D01*
X165999498Y-100079054D01*
X166040423Y-100231785D01*
X166047767Y-100244505D01*
X166119477Y-100368712D01*
X166119481Y-100368717D01*
X166163181Y-100412417D01*
X166196666Y-100473740D01*
X166199500Y-100500098D01*
X166199500Y-101017587D01*
X166179815Y-101084626D01*
X166172450Y-101094896D01*
X166170186Y-101097734D01*
X166074211Y-101250476D01*
X166014631Y-101420745D01*
X166014630Y-101420750D01*
X165994435Y-101599996D01*
X165994435Y-101600003D01*
X166014630Y-101779249D01*
X166014631Y-101779254D01*
X166074211Y-101949523D01*
X166170184Y-102102262D01*
X166297738Y-102229816D01*
X166450478Y-102325789D01*
X166620745Y-102385368D01*
X166620750Y-102385369D01*
X166799996Y-102405565D01*
X166800000Y-102405565D01*
X166800004Y-102405565D01*
X166979249Y-102385369D01*
X166979252Y-102385368D01*
X166979255Y-102385368D01*
X167149522Y-102325789D01*
X167302262Y-102229816D01*
X167429816Y-102102262D01*
X167525789Y-101949522D01*
X167585368Y-101779255D01*
X167605565Y-101600000D01*
X167585368Y-101420745D01*
X167525789Y-101250478D01*
X167429816Y-101097738D01*
X167429814Y-101097736D01*
X167429813Y-101097734D01*
X167427550Y-101094896D01*
X167426659Y-101092715D01*
X167426111Y-101091842D01*
X167426264Y-101091745D01*
X167401144Y-101030209D01*
X167400500Y-101017587D01*
X167400500Y-100673920D01*
X175249499Y-100673920D01*
X175278340Y-100818907D01*
X175278343Y-100818917D01*
X175334912Y-100955488D01*
X175334919Y-100955501D01*
X175417048Y-101078415D01*
X175417051Y-101078419D01*
X175521580Y-101182948D01*
X175521584Y-101182951D01*
X175644498Y-101265080D01*
X175644511Y-101265087D01*
X175781082Y-101321656D01*
X175781087Y-101321658D01*
X175781091Y-101321658D01*
X175781092Y-101321659D01*
X175926079Y-101350500D01*
X175926082Y-101350500D01*
X176073920Y-101350500D01*
X176171462Y-101331096D01*
X176218913Y-101321658D01*
X176355495Y-101265084D01*
X176478416Y-101182951D01*
X176582951Y-101078416D01*
X176665084Y-100955495D01*
X176721658Y-100818913D01*
X176750500Y-100673918D01*
X176750500Y-100526082D01*
X176750500Y-100526079D01*
X176721659Y-100381092D01*
X176721658Y-100381091D01*
X176721658Y-100381087D01*
X176716532Y-100368712D01*
X176665087Y-100244511D01*
X176665080Y-100244498D01*
X176582951Y-100121584D01*
X176582948Y-100121580D01*
X176478419Y-100017051D01*
X176478415Y-100017048D01*
X176355501Y-99934919D01*
X176355488Y-99934912D01*
X176218917Y-99878343D01*
X176218907Y-99878340D01*
X176073920Y-99849500D01*
X176073918Y-99849500D01*
X175926082Y-99849500D01*
X175926080Y-99849500D01*
X175781092Y-99878340D01*
X175781082Y-99878343D01*
X175644511Y-99934912D01*
X175644498Y-99934919D01*
X175521584Y-100017048D01*
X175521580Y-100017051D01*
X175417051Y-100121580D01*
X175417048Y-100121584D01*
X175334919Y-100244498D01*
X175334912Y-100244511D01*
X175278343Y-100381082D01*
X175278340Y-100381092D01*
X175249500Y-100526079D01*
X175249500Y-100526082D01*
X175249500Y-100673918D01*
X175249500Y-100673920D01*
X175249499Y-100673920D01*
X167400500Y-100673920D01*
X167400500Y-100289060D01*
X167400501Y-100289047D01*
X167400501Y-100120944D01*
X167389277Y-100079057D01*
X167359577Y-99968216D01*
X167340353Y-99934919D01*
X167280524Y-99831290D01*
X167280518Y-99831282D01*
X167236819Y-99787583D01*
X167203334Y-99726260D01*
X167200500Y-99699902D01*
X167200500Y-93089059D01*
X167200501Y-93089046D01*
X167200501Y-92920945D01*
X167200501Y-92920943D01*
X167159577Y-92768215D01*
X167121499Y-92702262D01*
X167121499Y-92702261D01*
X167105136Y-92673920D01*
X175249499Y-92673920D01*
X175278340Y-92818907D01*
X175278343Y-92818917D01*
X175334912Y-92955488D01*
X175334919Y-92955501D01*
X175417048Y-93078415D01*
X175417051Y-93078419D01*
X175521580Y-93182948D01*
X175521584Y-93182951D01*
X175644498Y-93265080D01*
X175644511Y-93265087D01*
X175781082Y-93321656D01*
X175781087Y-93321658D01*
X175781091Y-93321658D01*
X175781092Y-93321659D01*
X175926079Y-93350500D01*
X175926082Y-93350500D01*
X176073920Y-93350500D01*
X176171462Y-93331096D01*
X176218913Y-93321658D01*
X176355495Y-93265084D01*
X176478416Y-93182951D01*
X176582951Y-93078416D01*
X176665084Y-92955495D01*
X176721658Y-92818913D01*
X176749187Y-92680520D01*
X176750500Y-92673920D01*
X176750500Y-92526079D01*
X176721659Y-92381092D01*
X176721658Y-92381091D01*
X176721658Y-92381087D01*
X176701245Y-92331806D01*
X176665087Y-92244511D01*
X176665080Y-92244498D01*
X176582951Y-92121584D01*
X176582948Y-92121580D01*
X176478419Y-92017051D01*
X176478415Y-92017048D01*
X176355501Y-91934919D01*
X176355488Y-91934912D01*
X176218917Y-91878343D01*
X176218907Y-91878340D01*
X176073920Y-91849500D01*
X176073918Y-91849500D01*
X175926082Y-91849500D01*
X175926080Y-91849500D01*
X175781092Y-91878340D01*
X175781082Y-91878343D01*
X175644511Y-91934912D01*
X175644498Y-91934919D01*
X175521584Y-92017048D01*
X175521580Y-92017051D01*
X175417051Y-92121580D01*
X175417048Y-92121584D01*
X175334919Y-92244498D01*
X175334912Y-92244511D01*
X175278343Y-92381082D01*
X175278340Y-92381092D01*
X175249500Y-92526079D01*
X175249500Y-92526082D01*
X175249500Y-92673918D01*
X175249500Y-92673920D01*
X175249499Y-92673920D01*
X167105136Y-92673920D01*
X167080524Y-92631290D01*
X167080521Y-92631286D01*
X167080520Y-92631284D01*
X166968716Y-92519480D01*
X166968715Y-92519479D01*
X166964385Y-92515149D01*
X166964374Y-92515139D01*
X166287590Y-91838355D01*
X166287588Y-91838352D01*
X166168717Y-91719481D01*
X166168709Y-91719475D01*
X166066936Y-91660717D01*
X166066934Y-91660716D01*
X166031790Y-91640425D01*
X166031789Y-91640424D01*
X166019263Y-91637067D01*
X165879057Y-91599499D01*
X165720943Y-91599499D01*
X165713347Y-91599499D01*
X165713331Y-91599500D01*
X164500098Y-91599500D01*
X164433059Y-91579815D01*
X164412417Y-91563181D01*
X162287590Y-89438355D01*
X162287588Y-89438352D01*
X162168717Y-89319481D01*
X162168709Y-89319475D01*
X162066936Y-89260717D01*
X162066934Y-89260716D01*
X162031790Y-89240425D01*
X162031789Y-89240424D01*
X162019263Y-89237067D01*
X161879057Y-89199499D01*
X161720943Y-89199499D01*
X161713347Y-89199499D01*
X161713331Y-89199500D01*
X160782412Y-89199500D01*
X160715373Y-89179815D01*
X160705097Y-89172445D01*
X160702263Y-89170185D01*
X160702262Y-89170184D01*
X160645496Y-89134515D01*
X160549523Y-89074211D01*
X160379254Y-89014631D01*
X160379249Y-89014630D01*
X160200004Y-88994435D01*
X160199996Y-88994435D01*
X160020750Y-89014630D01*
X160020745Y-89014631D01*
X159850476Y-89074211D01*
X159697737Y-89170184D01*
X159570184Y-89297737D01*
X159474211Y-89450476D01*
X159414631Y-89620745D01*
X159414630Y-89620750D01*
X159394435Y-89799996D01*
X155700500Y-89799996D01*
X155700500Y-89331007D01*
X155700500Y-89331004D01*
X155675302Y-89204329D01*
X155675301Y-89204324D01*
X155673580Y-89195671D01*
X155621108Y-89068994D01*
X155621086Y-89068940D01*
X155620776Y-89068190D01*
X155620773Y-89068185D01*
X155544115Y-88953459D01*
X155544114Y-88953458D01*
X155446542Y-88855886D01*
X155241133Y-88650476D01*
X155046546Y-88455888D01*
X155046545Y-88455887D01*
X154931807Y-88379222D01*
X154804332Y-88326421D01*
X154804322Y-88326418D01*
X154668996Y-88299500D01*
X154668994Y-88299500D01*
X154668993Y-88299500D01*
X154425494Y-88299500D01*
X154359523Y-88280494D01*
X154349525Y-88274212D01*
X154179254Y-88214631D01*
X154179249Y-88214630D01*
X154000004Y-88194435D01*
X153999996Y-88194435D01*
X153820750Y-88214630D01*
X153820745Y-88214631D01*
X153650476Y-88274211D01*
X153497737Y-88370184D01*
X153370184Y-88497737D01*
X153274211Y-88650476D01*
X153214631Y-88820745D01*
X153214630Y-88820750D01*
X153194435Y-88999996D01*
X110500500Y-88999996D01*
X110500500Y-67598543D01*
X139709499Y-67598543D01*
X139747947Y-67791829D01*
X139747950Y-67791839D01*
X139823364Y-67973907D01*
X139823371Y-67973920D01*
X139932860Y-68137781D01*
X139932863Y-68137785D01*
X140072214Y-68277136D01*
X140072218Y-68277139D01*
X140236079Y-68386628D01*
X140236092Y-68386635D01*
X140418160Y-68462049D01*
X140418165Y-68462051D01*
X140418169Y-68462051D01*
X140418170Y-68462052D01*
X140611456Y-68500500D01*
X140611459Y-68500500D01*
X140808543Y-68500500D01*
X140940703Y-68474211D01*
X141001835Y-68462051D01*
X141183914Y-68386632D01*
X141347782Y-68277139D01*
X141487139Y-68137782D01*
X141596632Y-67973914D01*
X141672051Y-67791835D01*
X141710500Y-67598541D01*
X141710500Y-67061333D01*
X141730185Y-66994294D01*
X141782989Y-66948539D01*
X141852147Y-66938595D01*
X141896501Y-66953947D01*
X141917859Y-66966278D01*
X141917860Y-66966278D01*
X141917865Y-66966281D01*
X142064234Y-67005500D01*
X142090500Y-67005500D01*
X142157539Y-67025185D01*
X142203294Y-67077989D01*
X142214500Y-67129500D01*
X142214500Y-68672770D01*
X142194815Y-68739809D01*
X142178181Y-68760451D01*
X142017045Y-68921586D01*
X142017045Y-68921587D01*
X142009523Y-68929110D01*
X142009522Y-68929111D01*
X141971049Y-68990339D01*
X141969160Y-68993253D01*
X141934917Y-69044503D01*
X141934914Y-69044508D01*
X141934856Y-69044651D01*
X141925296Y-69063154D01*
X141919543Y-69072309D01*
X141899712Y-69128984D01*
X141897233Y-69135478D01*
X141878342Y-69181086D01*
X141878342Y-69181087D01*
X141875905Y-69193336D01*
X141871333Y-69210084D01*
X141863688Y-69231935D01*
X141863685Y-69231946D01*
X141858340Y-69279391D01*
X141856737Y-69289698D01*
X141849500Y-69326079D01*
X141849500Y-69350890D01*
X141848720Y-69364774D01*
X141845536Y-69393036D01*
X141844751Y-69400000D01*
X141848332Y-69431785D01*
X141848720Y-69435223D01*
X141849500Y-69449108D01*
X141849500Y-69473921D01*
X141856737Y-69510303D01*
X141858340Y-69520610D01*
X141863685Y-69568053D01*
X141863686Y-69568055D01*
X141863686Y-69568057D01*
X141863687Y-69568059D01*
X141871330Y-69589902D01*
X141875902Y-69606652D01*
X141878340Y-69618907D01*
X141878343Y-69618915D01*
X141897231Y-69664514D01*
X141899712Y-69671013D01*
X141919544Y-69727691D01*
X141925293Y-69736841D01*
X141934852Y-69755342D01*
X141934913Y-69755491D01*
X141969164Y-69806751D01*
X141971054Y-69809668D01*
X142009521Y-69870888D01*
X142013922Y-69875289D01*
X142013951Y-69875320D01*
X142125903Y-69987272D01*
X142125925Y-69987292D01*
X142129110Y-69990477D01*
X142188120Y-70027555D01*
X142190329Y-70028943D01*
X142193238Y-70030828D01*
X142244506Y-70065084D01*
X142244638Y-70065138D01*
X142263163Y-70074708D01*
X142272310Y-70080456D01*
X142329028Y-70100301D01*
X142335464Y-70102759D01*
X142381088Y-70121658D01*
X142389866Y-70123404D01*
X142393339Y-70124095D01*
X142410104Y-70128672D01*
X142431935Y-70136311D01*
X142431941Y-70136313D01*
X142479404Y-70141660D01*
X142489693Y-70143261D01*
X142526079Y-70150500D01*
X142526083Y-70150500D01*
X142550890Y-70150500D01*
X142564774Y-70151280D01*
X142599998Y-70155249D01*
X142600000Y-70155249D01*
X142600002Y-70155249D01*
X142635226Y-70151280D01*
X142649110Y-70150500D01*
X142673912Y-70150500D01*
X142673917Y-70150500D01*
X142710320Y-70143257D01*
X142720590Y-70141660D01*
X142768059Y-70136313D01*
X142789906Y-70128667D01*
X142806664Y-70124093D01*
X142818912Y-70121658D01*
X142864547Y-70102753D01*
X142870987Y-70100295D01*
X142927690Y-70080456D01*
X142936838Y-70074706D01*
X142955355Y-70065141D01*
X142955494Y-70065084D01*
X143006799Y-70030802D01*
X143009617Y-70028976D01*
X143070890Y-69990477D01*
X143071335Y-69990031D01*
X143071349Y-69990021D01*
X143071348Y-69990020D01*
X143547947Y-69513421D01*
X143547952Y-69513416D01*
X143602495Y-69431785D01*
X143615721Y-69411991D01*
X143669334Y-69367187D01*
X143738659Y-69358481D01*
X143801686Y-69388638D01*
X143835863Y-69439930D01*
X143874210Y-69549521D01*
X143937861Y-69650821D01*
X143970184Y-69702262D01*
X144097738Y-69829816D01*
X144250478Y-69925789D01*
X144413846Y-69982954D01*
X144420745Y-69985368D01*
X144420750Y-69985369D01*
X144599997Y-70005565D01*
X144600000Y-70005565D01*
X144675129Y-69997099D01*
X144712817Y-69999924D01*
X144712881Y-69999440D01*
X144720940Y-70000501D01*
X144720943Y-70000501D01*
X144886654Y-70000501D01*
X144886670Y-70000500D01*
X145440088Y-70000500D01*
X145507127Y-70020185D01*
X145517403Y-70027555D01*
X145520236Y-70029814D01*
X145520238Y-70029816D01*
X145600831Y-70080456D01*
X145670278Y-70124093D01*
X145672978Y-70125789D01*
X145757170Y-70155249D01*
X145843245Y-70185368D01*
X145843250Y-70185369D01*
X146022496Y-70205565D01*
X146022500Y-70205565D01*
X146022504Y-70205565D01*
X146201749Y-70185369D01*
X146201752Y-70185368D01*
X146201755Y-70185368D01*
X146372022Y-70125789D01*
X146524762Y-70029816D01*
X146652316Y-69902262D01*
X146748289Y-69749522D01*
X146807868Y-69579255D01*
X146807869Y-69579249D01*
X146828065Y-69400003D01*
X146828065Y-69393036D01*
X146829902Y-69393036D01*
X146840357Y-69333324D01*
X146887703Y-69281941D01*
X146955312Y-69264313D01*
X147021719Y-69286035D01*
X147039207Y-69300574D01*
X147107864Y-69369231D01*
X147123286Y-69388022D01*
X147149169Y-69426759D01*
X147151054Y-69429668D01*
X147152388Y-69431791D01*
X147178860Y-69473921D01*
X147189523Y-69490890D01*
X147309110Y-69610477D01*
X147322539Y-69618915D01*
X147370338Y-69648949D01*
X147373247Y-69650834D01*
X147424505Y-69685084D01*
X147424648Y-69685143D01*
X147443162Y-69694708D01*
X147452310Y-69700456D01*
X147506332Y-69719358D01*
X147508979Y-69720285D01*
X147515477Y-69722766D01*
X147561087Y-69741658D01*
X147561095Y-69741660D01*
X147573332Y-69744094D01*
X147590101Y-69748671D01*
X147611938Y-69756312D01*
X147611941Y-69756313D01*
X147659398Y-69761659D01*
X147669689Y-69763260D01*
X147681926Y-69765694D01*
X147706081Y-69770500D01*
X147706082Y-69770500D01*
X147730890Y-69770500D01*
X147744774Y-69771280D01*
X147779998Y-69775249D01*
X147780000Y-69775249D01*
X147780002Y-69775249D01*
X147815226Y-69771280D01*
X147829110Y-69770500D01*
X147853918Y-69770500D01*
X147890317Y-69763259D01*
X147900599Y-69761659D01*
X147948059Y-69756313D01*
X147969911Y-69748665D01*
X147986660Y-69744094D01*
X147998913Y-69741658D01*
X148016313Y-69734450D01*
X148044531Y-69722762D01*
X148050988Y-69720295D01*
X148107690Y-69700456D01*
X148116836Y-69694708D01*
X148135365Y-69685138D01*
X148135415Y-69685116D01*
X148135495Y-69685084D01*
X148186780Y-69650815D01*
X148189618Y-69648975D01*
X148250890Y-69610477D01*
X148370477Y-69490890D01*
X148408975Y-69429618D01*
X148410821Y-69426772D01*
X148410830Y-69426759D01*
X148445084Y-69375495D01*
X148445138Y-69375365D01*
X148454708Y-69356836D01*
X148460456Y-69347690D01*
X148480295Y-69290988D01*
X148482762Y-69284531D01*
X148501655Y-69238920D01*
X148501654Y-69238920D01*
X148501658Y-69238913D01*
X148504094Y-69226660D01*
X148508665Y-69209911D01*
X148516313Y-69188059D01*
X148521659Y-69140599D01*
X148523259Y-69130317D01*
X148530500Y-69093918D01*
X148530500Y-69069108D01*
X148531280Y-69055223D01*
X148531384Y-69054306D01*
X148535249Y-69020000D01*
X148533528Y-69004729D01*
X148531280Y-68984774D01*
X148530500Y-68970890D01*
X148530500Y-68906079D01*
X148501659Y-68761092D01*
X148501658Y-68761091D01*
X148501658Y-68761087D01*
X148493534Y-68741473D01*
X148445087Y-68624511D01*
X148445080Y-68624498D01*
X148362952Y-68501585D01*
X148323416Y-68462049D01*
X148258416Y-68397049D01*
X148186818Y-68325450D01*
X148153334Y-68264126D01*
X148150500Y-68237769D01*
X148150500Y-67841972D01*
X148170185Y-67774933D01*
X148222989Y-67729178D01*
X148292147Y-67719234D01*
X148355703Y-67748259D01*
X148389061Y-67794520D01*
X148463364Y-67973907D01*
X148463371Y-67973920D01*
X148572860Y-68137781D01*
X148572863Y-68137785D01*
X148712214Y-68277136D01*
X148712218Y-68277139D01*
X148876079Y-68386628D01*
X148876092Y-68386635D01*
X149058160Y-68462049D01*
X149058165Y-68462051D01*
X149058169Y-68462051D01*
X149058170Y-68462052D01*
X149251456Y-68500500D01*
X149251459Y-68500500D01*
X149448543Y-68500500D01*
X149580703Y-68474211D01*
X149641835Y-68462051D01*
X149823914Y-68386632D01*
X149987782Y-68277139D01*
X150127139Y-68137782D01*
X150236632Y-67973914D01*
X150312051Y-67791835D01*
X150350500Y-67598541D01*
X150350500Y-66301459D01*
X150350500Y-66301456D01*
X150312052Y-66108170D01*
X150312051Y-66108169D01*
X150312051Y-66108165D01*
X150275406Y-66019695D01*
X150236635Y-65926092D01*
X150236628Y-65926079D01*
X150127139Y-65762218D01*
X150127136Y-65762214D01*
X149987785Y-65622863D01*
X149987781Y-65622860D01*
X149823920Y-65513371D01*
X149823907Y-65513364D01*
X149641839Y-65437950D01*
X149641829Y-65437947D01*
X149448543Y-65399500D01*
X149448541Y-65399500D01*
X149251459Y-65399500D01*
X149251457Y-65399500D01*
X149058170Y-65437947D01*
X149058160Y-65437950D01*
X148876092Y-65513364D01*
X148876079Y-65513371D01*
X148712218Y-65622860D01*
X148712214Y-65622863D01*
X148572863Y-65762214D01*
X148572860Y-65762218D01*
X148463368Y-65926084D01*
X148460549Y-65931359D01*
X148411586Y-65981203D01*
X148343448Y-65996663D01*
X148277769Y-65972831D01*
X148275701Y-65971278D01*
X148273368Y-65969488D01*
X148273365Y-65969485D01*
X148190169Y-65921451D01*
X148142136Y-65893719D01*
X148068950Y-65874109D01*
X147995766Y-65854500D01*
X147844234Y-65854500D01*
X147697863Y-65893719D01*
X147566635Y-65969485D01*
X147566631Y-65969488D01*
X147548059Y-65988060D01*
X147486736Y-66021544D01*
X147417044Y-66016558D01*
X147372699Y-65988058D01*
X146801695Y-65417052D01*
X146801688Y-65417046D01*
X146728003Y-65367812D01*
X146728003Y-65367813D01*
X146678765Y-65334913D01*
X146542191Y-65278343D01*
X146542181Y-65278340D01*
X146397194Y-65249500D01*
X146397192Y-65249500D01*
X143873917Y-65249500D01*
X143726082Y-65249500D01*
X143726080Y-65249500D01*
X143581092Y-65278340D01*
X143581082Y-65278343D01*
X143444511Y-65334912D01*
X143444498Y-65334919D01*
X143321584Y-65417048D01*
X143321580Y-65417051D01*
X142718937Y-66019695D01*
X142657614Y-66053180D01*
X142587922Y-66048196D01*
X142543575Y-66019695D01*
X142493367Y-65969487D01*
X142493365Y-65969485D01*
X142427315Y-65931351D01*
X142362136Y-65893719D01*
X142288950Y-65874109D01*
X142215766Y-65854500D01*
X142064234Y-65854500D01*
X141917863Y-65893719D01*
X141786631Y-65969487D01*
X141784293Y-65971282D01*
X141781964Y-65972182D01*
X141779597Y-65973549D01*
X141779383Y-65973179D01*
X141719123Y-65996475D01*
X141650678Y-65982436D01*
X141600690Y-65933621D01*
X141599446Y-65931351D01*
X141596630Y-65926082D01*
X141487139Y-65762218D01*
X141487136Y-65762214D01*
X141347785Y-65622863D01*
X141347781Y-65622860D01*
X141183920Y-65513371D01*
X141183907Y-65513364D01*
X141001839Y-65437950D01*
X141001829Y-65437947D01*
X140808543Y-65399500D01*
X140808541Y-65399500D01*
X140611459Y-65399500D01*
X140611457Y-65399500D01*
X140418170Y-65437947D01*
X140418160Y-65437950D01*
X140236092Y-65513364D01*
X140236079Y-65513371D01*
X140072218Y-65622860D01*
X140072214Y-65622863D01*
X139932863Y-65762214D01*
X139932860Y-65762218D01*
X139823371Y-65926079D01*
X139823364Y-65926092D01*
X139747950Y-66108160D01*
X139747947Y-66108170D01*
X139709500Y-66301456D01*
X139709500Y-66301459D01*
X139709500Y-67598541D01*
X139709500Y-67598543D01*
X139709499Y-67598543D01*
X110500500Y-67598543D01*
X110500500Y-63248543D01*
X139709499Y-63248543D01*
X139747947Y-63441829D01*
X139747950Y-63441839D01*
X139823364Y-63623907D01*
X139823371Y-63623920D01*
X139932860Y-63787781D01*
X139932863Y-63787785D01*
X140072214Y-63927136D01*
X140072218Y-63927139D01*
X140236079Y-64036628D01*
X140236092Y-64036635D01*
X140418160Y-64112049D01*
X140418165Y-64112051D01*
X140418169Y-64112051D01*
X140418170Y-64112052D01*
X140611456Y-64150500D01*
X140611459Y-64150500D01*
X140808543Y-64150500D01*
X140938582Y-64124632D01*
X141001835Y-64112051D01*
X141183914Y-64036632D01*
X141347782Y-63927139D01*
X141487139Y-63787782D01*
X141596632Y-63623914D01*
X141672051Y-63441835D01*
X141710500Y-63248543D01*
X148349499Y-63248543D01*
X148387947Y-63441829D01*
X148387950Y-63441839D01*
X148463364Y-63623907D01*
X148463371Y-63623920D01*
X148572860Y-63787781D01*
X148572863Y-63787785D01*
X148712214Y-63927136D01*
X148712218Y-63927139D01*
X148876079Y-64036628D01*
X148876092Y-64036635D01*
X149058160Y-64112049D01*
X149058165Y-64112051D01*
X149058169Y-64112051D01*
X149058170Y-64112052D01*
X149251456Y-64150500D01*
X149251459Y-64150500D01*
X149448543Y-64150500D01*
X149578582Y-64124632D01*
X149641835Y-64112051D01*
X149823914Y-64036632D01*
X149987782Y-63927139D01*
X150127139Y-63787782D01*
X150236632Y-63623914D01*
X150312051Y-63441835D01*
X150350500Y-63248541D01*
X150350500Y-62251459D01*
X150350500Y-62251456D01*
X150312052Y-62058170D01*
X150312051Y-62058169D01*
X150312051Y-62058165D01*
X150312049Y-62058160D01*
X150236635Y-61876092D01*
X150236628Y-61876079D01*
X150127139Y-61712218D01*
X150127136Y-61712214D01*
X149987785Y-61572863D01*
X149987781Y-61572860D01*
X149823920Y-61463371D01*
X149823907Y-61463364D01*
X149641839Y-61387950D01*
X149641829Y-61387947D01*
X149448543Y-61349500D01*
X149448541Y-61349500D01*
X149251459Y-61349500D01*
X149251457Y-61349500D01*
X149058170Y-61387947D01*
X149058160Y-61387950D01*
X148876092Y-61463364D01*
X148876079Y-61463371D01*
X148712218Y-61572860D01*
X148712214Y-61572863D01*
X148572863Y-61712214D01*
X148572860Y-61712218D01*
X148463371Y-61876079D01*
X148463364Y-61876092D01*
X148387950Y-62058160D01*
X148387947Y-62058170D01*
X148349500Y-62251456D01*
X148349500Y-62251459D01*
X148349500Y-63248541D01*
X148349500Y-63248543D01*
X148349499Y-63248543D01*
X141710500Y-63248543D01*
X141710500Y-63248541D01*
X141710500Y-62251459D01*
X141710500Y-62251456D01*
X141672052Y-62058170D01*
X141672051Y-62058169D01*
X141672051Y-62058165D01*
X141672049Y-62058160D01*
X141596635Y-61876092D01*
X141596628Y-61876079D01*
X141487139Y-61712218D01*
X141487136Y-61712214D01*
X141347785Y-61572863D01*
X141347781Y-61572860D01*
X141183920Y-61463371D01*
X141183907Y-61463364D01*
X141001839Y-61387950D01*
X141001829Y-61387947D01*
X140808543Y-61349500D01*
X140808541Y-61349500D01*
X140611459Y-61349500D01*
X140611457Y-61349500D01*
X140418170Y-61387947D01*
X140418160Y-61387950D01*
X140236092Y-61463364D01*
X140236079Y-61463371D01*
X140072218Y-61572860D01*
X140072214Y-61572863D01*
X139932863Y-61712214D01*
X139932860Y-61712218D01*
X139823371Y-61876079D01*
X139823364Y-61876092D01*
X139747950Y-62058160D01*
X139747947Y-62058170D01*
X139709500Y-62251456D01*
X139709500Y-62251459D01*
X139709500Y-63248541D01*
X139709500Y-63248543D01*
X139709499Y-63248543D01*
X110500500Y-63248543D01*
X110500500Y-60624500D01*
X110520185Y-60557461D01*
X110572989Y-60511706D01*
X110624500Y-60500500D01*
X179375500Y-60500500D01*
X179442539Y-60520185D01*
G37*
%TD.AperFunction*%
%TD*%
M02*
