M48
; DRILL file {KiCad 7.0.10-7.0.10~ubuntu22.04.1} date Fri 16 Aug 2024 01:30:31 PM CDT
; FORMAT={-:-/ absolute / metric / decimal}
; #@! TF.CreationDate,2024-08-16T13:30:31-05:00
; #@! TF.GenerationSoftware,Kicad,Pcbnew,7.0.10-7.0.10~ubuntu22.04.1
; #@! TF.FileFunction,Plated,1,2,PTH
FMAT,2
METRIC
; #@! TA.AperFunction,Plated,PTH,ViaDrill
T1C0.400
; #@! TA.AperFunction,Plated,PTH,ComponentDrill
T2C0.500
; #@! TA.AperFunction,Plated,PTH,ComponentDrill
T3C0.600
; #@! TA.AperFunction,Plated,PTH,ComponentDrill
T4C1.000
%
G90
G05
T1
X149.098Y-118.11
X151.892Y-101.092
X155.448Y-101.092
X157.48Y-108.712
X159.766Y-117.094
X160.782Y-102.616
X161.29Y-105.156
X162.052Y-114.808
X162.052Y-116.332
X162.052Y-117.856
X162.052Y-119.634
X162.052Y-121.412
X164.084Y-109.22
X165.1Y-113.792
X165.608Y-109.474
X166.116Y-113.792
X166.878Y-121.412
X168.148Y-113.284
X170.434Y-122.936
X170.688Y-115.57
X171.958Y-110.49
X174.498Y-120.904
X176.276Y-100.838
X177.546Y-117.348
X179.897Y-102.008
X181.356Y-120.904
X181.61Y-116.078
X182.539Y-102.252
X185.674Y-125.476
X187.452Y-104.14
X188.09Y-114.554
X189.14Y-114.554
X190.483Y-118.761
X190.483Y-119.811
X197.612Y-113.792
X197.612Y-114.808
X198.882Y-113.792
X198.882Y-114.808
X199.39Y-125.984
X200.152Y-113.792
X200.152Y-114.808
X200.66Y-125.984
X201.3Y-104.5
X203.454Y-124.46
X203.9Y-99.0
X204.216Y-125.222
X204.9Y-99.0
X204.978Y-124.46
X205.4Y-99.8
X205.9Y-99.0
X206.071Y-117.162
X206.4Y-100.2
X206.8Y-99.3
X207.087Y-117.162
X207.087Y-118.432
X207.087Y-119.702
X207.1Y-100.9
X207.325Y-113.098
X207.7Y-100.0
X208.103Y-117.162
X208.103Y-118.432
X208.2Y-100.9
X209.373Y-118.432
X210.643Y-117.162
X211.1Y-100.7
X211.405Y-117.924
X211.659Y-116.908
X211.913Y-119.702
X212.1Y-100.7
X212.1Y-101.8
X212.1Y-102.9
X212.1Y-104.1
X212.421Y-117.924
X213.2Y-100.7
X213.2Y-101.8
X213.2Y-102.9
X213.2Y-104.1
X213.691Y-122.242
X214.199Y-118.94
T2
X180.594Y-106.426
X180.594Y-109.474
X185.674Y-106.426
X185.674Y-109.474
T4
X192.786Y-103.124
X195.326Y-103.124
X197.866Y-103.124
T2
G00X177.7Y-101.16
M15
G01X177.7Y-100.16
M16
G05
G00X185.0Y-101.16
M15
G01X185.0Y-100.16
M16
G05
T3
G00X173.478Y-126.086
M15
G01X173.478Y-127.386
M16
G05
G00X173.488Y-121.706
M15
G01X173.488Y-122.706
M16
G05
G00X173.488Y-122.706
M15
G01X174.088Y-122.706
M16
G05
G00X181.518Y-122.706
M15
G01X182.118Y-122.706
M16
G05
G00X182.118Y-121.706
M15
G01X182.118Y-122.706
M16
G05
G00X182.118Y-126.096
M15
G01X182.118Y-127.396
M16
G05
M30
