%TF.GenerationSoftware,KiCad,Pcbnew,7.0.10-7.0.10~ubuntu22.04.1*%
%TF.CreationDate,2024-08-16T13:28:15-05:00*%
%TF.ProjectId,MicroSDV2,4d696372-6f53-4445-9632-2e6b69636164,rev?*%
%TF.SameCoordinates,Original*%
%TF.FileFunction,Copper,L1,Top*%
%TF.FilePolarity,Positive*%
%FSLAX46Y46*%
G04 Gerber Fmt 4.6, Leading zero omitted, Abs format (unit mm)*
G04 Created by KiCad (PCBNEW 7.0.10-7.0.10~ubuntu22.04.1) date 2024-08-16 13:28:15*
%MOMM*%
%LPD*%
G01*
G04 APERTURE LIST*
G04 Aperture macros list*
%AMRoundRect*
0 Rectangle with rounded corners*
0 $1 Rounding radius*
0 $2 $3 $4 $5 $6 $7 $8 $9 X,Y pos of 4 corners*
0 Add a 4 corners polygon primitive as box body*
4,1,4,$2,$3,$4,$5,$6,$7,$8,$9,$2,$3,0*
0 Add four circle primitives for the rounded corners*
1,1,$1+$1,$2,$3*
1,1,$1+$1,$4,$5*
1,1,$1+$1,$6,$7*
1,1,$1+$1,$8,$9*
0 Add four rect primitives between the rounded corners*
20,1,$1+$1,$2,$3,$4,$5,0*
20,1,$1+$1,$4,$5,$6,$7,0*
20,1,$1+$1,$6,$7,$8,$9,0*
20,1,$1+$1,$8,$9,$2,$3,0*%
G04 Aperture macros list end*
%ADD10C,0.100000*%
%ADD11C,0.150000*%
%ADD12C,0.300000*%
%ADD13C,0.400000*%
%TA.AperFunction,NonConductor*%
%ADD14C,0.300000*%
%TD*%
%TA.AperFunction,NonConductor*%
%ADD15C,0.200000*%
%TD*%
%TA.AperFunction,SMDPad,CuDef*%
%ADD16RoundRect,0.250000X-0.412500X-1.100000X0.412500X-1.100000X0.412500X1.100000X-0.412500X1.100000X0*%
%TD*%
%TA.AperFunction,SMDPad,CuDef*%
%ADD17RoundRect,0.237500X-0.250000X-0.237500X0.250000X-0.237500X0.250000X0.237500X-0.250000X0.237500X0*%
%TD*%
%TA.AperFunction,SMDPad,CuDef*%
%ADD18RoundRect,0.250000X0.475000X-0.250000X0.475000X0.250000X-0.475000X0.250000X-0.475000X-0.250000X0*%
%TD*%
%TA.AperFunction,SMDPad,CuDef*%
%ADD19RoundRect,0.250000X0.450000X0.800000X-0.450000X0.800000X-0.450000X-0.800000X0.450000X-0.800000X0*%
%TD*%
%TA.AperFunction,ComponentPad*%
%ADD20R,0.850000X0.850000*%
%TD*%
%TA.AperFunction,SMDPad,CuDef*%
%ADD21RoundRect,0.250000X-0.475000X0.337500X-0.475000X-0.337500X0.475000X-0.337500X0.475000X0.337500X0*%
%TD*%
%TA.AperFunction,SMDPad,CuDef*%
%ADD22RoundRect,0.250000X0.475000X-0.337500X0.475000X0.337500X-0.475000X0.337500X-0.475000X-0.337500X0*%
%TD*%
%TA.AperFunction,SMDPad,CuDef*%
%ADD23RoundRect,0.250000X0.450000X-0.350000X0.450000X0.350000X-0.450000X0.350000X-0.450000X-0.350000X0*%
%TD*%
%TA.AperFunction,SMDPad,CuDef*%
%ADD24R,1.600000X0.700000*%
%TD*%
%TA.AperFunction,SMDPad,CuDef*%
%ADD25R,1.500000X1.200000*%
%TD*%
%TA.AperFunction,SMDPad,CuDef*%
%ADD26R,2.200000X1.200000*%
%TD*%
%TA.AperFunction,SMDPad,CuDef*%
%ADD27R,1.500000X1.600000*%
%TD*%
%TA.AperFunction,ComponentPad*%
%ADD28R,1.700000X1.700000*%
%TD*%
%TA.AperFunction,ComponentPad*%
%ADD29O,1.700000X1.700000*%
%TD*%
%TA.AperFunction,SMDPad,CuDef*%
%ADD30RoundRect,0.250000X0.337500X0.475000X-0.337500X0.475000X-0.337500X-0.475000X0.337500X-0.475000X0*%
%TD*%
%TA.AperFunction,SMDPad,CuDef*%
%ADD31R,1.200000X3.500000*%
%TD*%
%TA.AperFunction,SMDPad,CuDef*%
%ADD32RoundRect,0.237500X-0.237500X0.250000X-0.237500X-0.250000X0.237500X-0.250000X0.237500X0.250000X0*%
%TD*%
%TA.AperFunction,SMDPad,CuDef*%
%ADD33R,0.400000X1.200000*%
%TD*%
%TA.AperFunction,SMDPad,CuDef*%
%ADD34R,5.100000X2.350000*%
%TD*%
%TA.AperFunction,SMDPad,CuDef*%
%ADD35R,0.600000X1.550000*%
%TD*%
%TA.AperFunction,SMDPad,CuDef*%
%ADD36RoundRect,0.250000X-0.325000X-1.100000X0.325000X-1.100000X0.325000X1.100000X-0.325000X1.100000X0*%
%TD*%
%TA.AperFunction,SMDPad,CuDef*%
%ADD37RoundRect,0.250000X-0.475000X0.250000X-0.475000X-0.250000X0.475000X-0.250000X0.475000X0.250000X0*%
%TD*%
%TA.AperFunction,SMDPad,CuDef*%
%ADD38RoundRect,0.250000X0.350000X0.450000X-0.350000X0.450000X-0.350000X-0.450000X0.350000X-0.450000X0*%
%TD*%
%TA.AperFunction,SMDPad,CuDef*%
%ADD39RoundRect,0.250000X-0.337500X-0.475000X0.337500X-0.475000X0.337500X0.475000X-0.337500X0.475000X0*%
%TD*%
%TA.AperFunction,SMDPad,CuDef*%
%ADD40R,1.600000X0.410000*%
%TD*%
%TA.AperFunction,SMDPad,CuDef*%
%ADD41R,0.300000X1.100000*%
%TD*%
%TA.AperFunction,SMDPad,CuDef*%
%ADD42R,0.300000X0.850000*%
%TD*%
%TA.AperFunction,ComponentPad*%
%ADD43O,1.000000X2.300000*%
%TD*%
%TA.AperFunction,ComponentPad*%
%ADD44O,1.000000X2.000000*%
%TD*%
%TA.AperFunction,ComponentPad*%
%ADD45O,1.540000X1.000000*%
%TD*%
%TA.AperFunction,SMDPad,CuDef*%
%ADD46RoundRect,0.375000X0.625000X0.375000X-0.625000X0.375000X-0.625000X-0.375000X0.625000X-0.375000X0*%
%TD*%
%TA.AperFunction,SMDPad,CuDef*%
%ADD47RoundRect,0.500000X0.500000X1.400000X-0.500000X1.400000X-0.500000X-1.400000X0.500000X-1.400000X0*%
%TD*%
%TA.AperFunction,SMDPad,CuDef*%
%ADD48RoundRect,0.250000X-0.350000X-0.450000X0.350000X-0.450000X0.350000X0.450000X-0.350000X0.450000X0*%
%TD*%
%TA.AperFunction,SMDPad,CuDef*%
%ADD49R,0.350000X0.800000*%
%TD*%
%TA.AperFunction,ViaPad*%
%ADD50C,0.800000*%
%TD*%
%TA.AperFunction,Conductor*%
%ADD51C,1.000000*%
%TD*%
%TA.AperFunction,Conductor*%
%ADD52C,0.350000*%
%TD*%
%TA.AperFunction,Conductor*%
%ADD53C,0.250000*%
%TD*%
%TA.AperFunction,Conductor*%
%ADD54C,0.600000*%
%TD*%
%TA.AperFunction,Conductor*%
%ADD55C,0.500000*%
%TD*%
%TA.AperFunction,Conductor*%
%ADD56C,0.700000*%
%TD*%
%TA.AperFunction,Conductor*%
%ADD57C,0.200000*%
%TD*%
%TA.AperFunction,Conductor*%
%ADD58C,0.370000*%
%TD*%
G04 APERTURE END LIST*
D10*
D11*
X177002200Y-166007200D02*
X285002200Y-166007200D01*
X285002200Y-198007200D01*
X177002200Y-198007200D01*
X177002200Y-166007200D01*
D10*
D11*
X10000000Y-10000000D02*
X287002200Y-10000000D01*
X287002200Y-200007200D01*
X10000000Y-200007200D01*
X10000000Y-10000000D01*
D10*
D11*
X12000000Y-12000000D02*
X285002200Y-12000000D01*
X285002200Y-198007200D01*
X12000000Y-198007200D01*
X12000000Y-12000000D01*
D10*
D11*
X60000000Y-12000000D02*
X60000000Y-10000000D01*
D10*
D11*
X110000000Y-12000000D02*
X110000000Y-10000000D01*
D10*
D11*
X160000000Y-12000000D02*
X160000000Y-10000000D01*
D10*
D11*
X210000000Y-12000000D02*
X210000000Y-10000000D01*
D10*
D11*
X260000000Y-12000000D02*
X260000000Y-10000000D01*
D10*
D11*
X36089160Y-11593604D02*
X35346303Y-11593604D01*
X35717731Y-11593604D02*
X35717731Y-10293604D01*
X35717731Y-10293604D02*
X35593922Y-10479319D01*
X35593922Y-10479319D02*
X35470112Y-10603128D01*
X35470112Y-10603128D02*
X35346303Y-10665033D01*
D10*
D11*
X85346303Y-10417414D02*
X85408207Y-10355509D01*
X85408207Y-10355509D02*
X85532017Y-10293604D01*
X85532017Y-10293604D02*
X85841541Y-10293604D01*
X85841541Y-10293604D02*
X85965350Y-10355509D01*
X85965350Y-10355509D02*
X86027255Y-10417414D01*
X86027255Y-10417414D02*
X86089160Y-10541223D01*
X86089160Y-10541223D02*
X86089160Y-10665033D01*
X86089160Y-10665033D02*
X86027255Y-10850747D01*
X86027255Y-10850747D02*
X85284398Y-11593604D01*
X85284398Y-11593604D02*
X86089160Y-11593604D01*
D10*
D11*
X135284398Y-10293604D02*
X136089160Y-10293604D01*
X136089160Y-10293604D02*
X135655826Y-10788842D01*
X135655826Y-10788842D02*
X135841541Y-10788842D01*
X135841541Y-10788842D02*
X135965350Y-10850747D01*
X135965350Y-10850747D02*
X136027255Y-10912652D01*
X136027255Y-10912652D02*
X136089160Y-11036461D01*
X136089160Y-11036461D02*
X136089160Y-11345985D01*
X136089160Y-11345985D02*
X136027255Y-11469795D01*
X136027255Y-11469795D02*
X135965350Y-11531700D01*
X135965350Y-11531700D02*
X135841541Y-11593604D01*
X135841541Y-11593604D02*
X135470112Y-11593604D01*
X135470112Y-11593604D02*
X135346303Y-11531700D01*
X135346303Y-11531700D02*
X135284398Y-11469795D01*
D10*
D11*
X185965350Y-10726938D02*
X185965350Y-11593604D01*
X185655826Y-10231700D02*
X185346303Y-11160271D01*
X185346303Y-11160271D02*
X186151064Y-11160271D01*
D10*
D11*
X236027255Y-10293604D02*
X235408207Y-10293604D01*
X235408207Y-10293604D02*
X235346303Y-10912652D01*
X235346303Y-10912652D02*
X235408207Y-10850747D01*
X235408207Y-10850747D02*
X235532017Y-10788842D01*
X235532017Y-10788842D02*
X235841541Y-10788842D01*
X235841541Y-10788842D02*
X235965350Y-10850747D01*
X235965350Y-10850747D02*
X236027255Y-10912652D01*
X236027255Y-10912652D02*
X236089160Y-11036461D01*
X236089160Y-11036461D02*
X236089160Y-11345985D01*
X236089160Y-11345985D02*
X236027255Y-11469795D01*
X236027255Y-11469795D02*
X235965350Y-11531700D01*
X235965350Y-11531700D02*
X235841541Y-11593604D01*
X235841541Y-11593604D02*
X235532017Y-11593604D01*
X235532017Y-11593604D02*
X235408207Y-11531700D01*
X235408207Y-11531700D02*
X235346303Y-11469795D01*
D10*
D11*
X285965350Y-10293604D02*
X285717731Y-10293604D01*
X285717731Y-10293604D02*
X285593922Y-10355509D01*
X285593922Y-10355509D02*
X285532017Y-10417414D01*
X285532017Y-10417414D02*
X285408207Y-10603128D01*
X285408207Y-10603128D02*
X285346303Y-10850747D01*
X285346303Y-10850747D02*
X285346303Y-11345985D01*
X285346303Y-11345985D02*
X285408207Y-11469795D01*
X285408207Y-11469795D02*
X285470112Y-11531700D01*
X285470112Y-11531700D02*
X285593922Y-11593604D01*
X285593922Y-11593604D02*
X285841541Y-11593604D01*
X285841541Y-11593604D02*
X285965350Y-11531700D01*
X285965350Y-11531700D02*
X286027255Y-11469795D01*
X286027255Y-11469795D02*
X286089160Y-11345985D01*
X286089160Y-11345985D02*
X286089160Y-11036461D01*
X286089160Y-11036461D02*
X286027255Y-10912652D01*
X286027255Y-10912652D02*
X285965350Y-10850747D01*
X285965350Y-10850747D02*
X285841541Y-10788842D01*
X285841541Y-10788842D02*
X285593922Y-10788842D01*
X285593922Y-10788842D02*
X285470112Y-10850747D01*
X285470112Y-10850747D02*
X285408207Y-10912652D01*
X285408207Y-10912652D02*
X285346303Y-11036461D01*
D10*
D11*
X60000000Y-198007200D02*
X60000000Y-200007200D01*
D10*
D11*
X110000000Y-198007200D02*
X110000000Y-200007200D01*
D10*
D11*
X160000000Y-198007200D02*
X160000000Y-200007200D01*
D10*
D11*
X210000000Y-198007200D02*
X210000000Y-200007200D01*
D10*
D11*
X260000000Y-198007200D02*
X260000000Y-200007200D01*
D10*
D11*
X36089160Y-199600804D02*
X35346303Y-199600804D01*
X35717731Y-199600804D02*
X35717731Y-198300804D01*
X35717731Y-198300804D02*
X35593922Y-198486519D01*
X35593922Y-198486519D02*
X35470112Y-198610328D01*
X35470112Y-198610328D02*
X35346303Y-198672233D01*
D10*
D11*
X85346303Y-198424614D02*
X85408207Y-198362709D01*
X85408207Y-198362709D02*
X85532017Y-198300804D01*
X85532017Y-198300804D02*
X85841541Y-198300804D01*
X85841541Y-198300804D02*
X85965350Y-198362709D01*
X85965350Y-198362709D02*
X86027255Y-198424614D01*
X86027255Y-198424614D02*
X86089160Y-198548423D01*
X86089160Y-198548423D02*
X86089160Y-198672233D01*
X86089160Y-198672233D02*
X86027255Y-198857947D01*
X86027255Y-198857947D02*
X85284398Y-199600804D01*
X85284398Y-199600804D02*
X86089160Y-199600804D01*
D10*
D11*
X135284398Y-198300804D02*
X136089160Y-198300804D01*
X136089160Y-198300804D02*
X135655826Y-198796042D01*
X135655826Y-198796042D02*
X135841541Y-198796042D01*
X135841541Y-198796042D02*
X135965350Y-198857947D01*
X135965350Y-198857947D02*
X136027255Y-198919852D01*
X136027255Y-198919852D02*
X136089160Y-199043661D01*
X136089160Y-199043661D02*
X136089160Y-199353185D01*
X136089160Y-199353185D02*
X136027255Y-199476995D01*
X136027255Y-199476995D02*
X135965350Y-199538900D01*
X135965350Y-199538900D02*
X135841541Y-199600804D01*
X135841541Y-199600804D02*
X135470112Y-199600804D01*
X135470112Y-199600804D02*
X135346303Y-199538900D01*
X135346303Y-199538900D02*
X135284398Y-199476995D01*
D10*
D11*
X185965350Y-198734138D02*
X185965350Y-199600804D01*
X185655826Y-198238900D02*
X185346303Y-199167471D01*
X185346303Y-199167471D02*
X186151064Y-199167471D01*
D10*
D11*
X236027255Y-198300804D02*
X235408207Y-198300804D01*
X235408207Y-198300804D02*
X235346303Y-198919852D01*
X235346303Y-198919852D02*
X235408207Y-198857947D01*
X235408207Y-198857947D02*
X235532017Y-198796042D01*
X235532017Y-198796042D02*
X235841541Y-198796042D01*
X235841541Y-198796042D02*
X235965350Y-198857947D01*
X235965350Y-198857947D02*
X236027255Y-198919852D01*
X236027255Y-198919852D02*
X236089160Y-199043661D01*
X236089160Y-199043661D02*
X236089160Y-199353185D01*
X236089160Y-199353185D02*
X236027255Y-199476995D01*
X236027255Y-199476995D02*
X235965350Y-199538900D01*
X235965350Y-199538900D02*
X235841541Y-199600804D01*
X235841541Y-199600804D02*
X235532017Y-199600804D01*
X235532017Y-199600804D02*
X235408207Y-199538900D01*
X235408207Y-199538900D02*
X235346303Y-199476995D01*
D10*
D11*
X285965350Y-198300804D02*
X285717731Y-198300804D01*
X285717731Y-198300804D02*
X285593922Y-198362709D01*
X285593922Y-198362709D02*
X285532017Y-198424614D01*
X285532017Y-198424614D02*
X285408207Y-198610328D01*
X285408207Y-198610328D02*
X285346303Y-198857947D01*
X285346303Y-198857947D02*
X285346303Y-199353185D01*
X285346303Y-199353185D02*
X285408207Y-199476995D01*
X285408207Y-199476995D02*
X285470112Y-199538900D01*
X285470112Y-199538900D02*
X285593922Y-199600804D01*
X285593922Y-199600804D02*
X285841541Y-199600804D01*
X285841541Y-199600804D02*
X285965350Y-199538900D01*
X285965350Y-199538900D02*
X286027255Y-199476995D01*
X286027255Y-199476995D02*
X286089160Y-199353185D01*
X286089160Y-199353185D02*
X286089160Y-199043661D01*
X286089160Y-199043661D02*
X286027255Y-198919852D01*
X286027255Y-198919852D02*
X285965350Y-198857947D01*
X285965350Y-198857947D02*
X285841541Y-198796042D01*
X285841541Y-198796042D02*
X285593922Y-198796042D01*
X285593922Y-198796042D02*
X285470112Y-198857947D01*
X285470112Y-198857947D02*
X285408207Y-198919852D01*
X285408207Y-198919852D02*
X285346303Y-199043661D01*
D10*
D11*
X10000000Y-60000000D02*
X12000000Y-60000000D01*
D10*
D11*
X10000000Y-110000000D02*
X12000000Y-110000000D01*
D10*
D11*
X10000000Y-160000000D02*
X12000000Y-160000000D01*
D10*
D11*
X10690476Y-35222176D02*
X11309523Y-35222176D01*
X10566666Y-35593604D02*
X10999999Y-34293604D01*
X10999999Y-34293604D02*
X11433333Y-35593604D01*
D10*
D11*
X11092857Y-84912652D02*
X11278571Y-84974557D01*
X11278571Y-84974557D02*
X11340476Y-85036461D01*
X11340476Y-85036461D02*
X11402380Y-85160271D01*
X11402380Y-85160271D02*
X11402380Y-85345985D01*
X11402380Y-85345985D02*
X11340476Y-85469795D01*
X11340476Y-85469795D02*
X11278571Y-85531700D01*
X11278571Y-85531700D02*
X11154761Y-85593604D01*
X11154761Y-85593604D02*
X10659523Y-85593604D01*
X10659523Y-85593604D02*
X10659523Y-84293604D01*
X10659523Y-84293604D02*
X11092857Y-84293604D01*
X11092857Y-84293604D02*
X11216666Y-84355509D01*
X11216666Y-84355509D02*
X11278571Y-84417414D01*
X11278571Y-84417414D02*
X11340476Y-84541223D01*
X11340476Y-84541223D02*
X11340476Y-84665033D01*
X11340476Y-84665033D02*
X11278571Y-84788842D01*
X11278571Y-84788842D02*
X11216666Y-84850747D01*
X11216666Y-84850747D02*
X11092857Y-84912652D01*
X11092857Y-84912652D02*
X10659523Y-84912652D01*
D10*
D11*
X11402380Y-135469795D02*
X11340476Y-135531700D01*
X11340476Y-135531700D02*
X11154761Y-135593604D01*
X11154761Y-135593604D02*
X11030952Y-135593604D01*
X11030952Y-135593604D02*
X10845238Y-135531700D01*
X10845238Y-135531700D02*
X10721428Y-135407890D01*
X10721428Y-135407890D02*
X10659523Y-135284080D01*
X10659523Y-135284080D02*
X10597619Y-135036461D01*
X10597619Y-135036461D02*
X10597619Y-134850747D01*
X10597619Y-134850747D02*
X10659523Y-134603128D01*
X10659523Y-134603128D02*
X10721428Y-134479319D01*
X10721428Y-134479319D02*
X10845238Y-134355509D01*
X10845238Y-134355509D02*
X11030952Y-134293604D01*
X11030952Y-134293604D02*
X11154761Y-134293604D01*
X11154761Y-134293604D02*
X11340476Y-134355509D01*
X11340476Y-134355509D02*
X11402380Y-134417414D01*
D10*
D11*
X10659523Y-185593604D02*
X10659523Y-184293604D01*
X10659523Y-184293604D02*
X10969047Y-184293604D01*
X10969047Y-184293604D02*
X11154761Y-184355509D01*
X11154761Y-184355509D02*
X11278571Y-184479319D01*
X11278571Y-184479319D02*
X11340476Y-184603128D01*
X11340476Y-184603128D02*
X11402380Y-184850747D01*
X11402380Y-184850747D02*
X11402380Y-185036461D01*
X11402380Y-185036461D02*
X11340476Y-185284080D01*
X11340476Y-185284080D02*
X11278571Y-185407890D01*
X11278571Y-185407890D02*
X11154761Y-185531700D01*
X11154761Y-185531700D02*
X10969047Y-185593604D01*
X10969047Y-185593604D02*
X10659523Y-185593604D01*
D10*
D11*
X287002200Y-60000000D02*
X285002200Y-60000000D01*
D10*
D11*
X287002200Y-110000000D02*
X285002200Y-110000000D01*
D10*
D11*
X287002200Y-160000000D02*
X285002200Y-160000000D01*
D10*
D11*
X285692676Y-35222176D02*
X286311723Y-35222176D01*
X285568866Y-35593604D02*
X286002199Y-34293604D01*
X286002199Y-34293604D02*
X286435533Y-35593604D01*
D10*
D11*
X286095057Y-84912652D02*
X286280771Y-84974557D01*
X286280771Y-84974557D02*
X286342676Y-85036461D01*
X286342676Y-85036461D02*
X286404580Y-85160271D01*
X286404580Y-85160271D02*
X286404580Y-85345985D01*
X286404580Y-85345985D02*
X286342676Y-85469795D01*
X286342676Y-85469795D02*
X286280771Y-85531700D01*
X286280771Y-85531700D02*
X286156961Y-85593604D01*
X286156961Y-85593604D02*
X285661723Y-85593604D01*
X285661723Y-85593604D02*
X285661723Y-84293604D01*
X285661723Y-84293604D02*
X286095057Y-84293604D01*
X286095057Y-84293604D02*
X286218866Y-84355509D01*
X286218866Y-84355509D02*
X286280771Y-84417414D01*
X286280771Y-84417414D02*
X286342676Y-84541223D01*
X286342676Y-84541223D02*
X286342676Y-84665033D01*
X286342676Y-84665033D02*
X286280771Y-84788842D01*
X286280771Y-84788842D02*
X286218866Y-84850747D01*
X286218866Y-84850747D02*
X286095057Y-84912652D01*
X286095057Y-84912652D02*
X285661723Y-84912652D01*
D10*
D11*
X286404580Y-135469795D02*
X286342676Y-135531700D01*
X286342676Y-135531700D02*
X286156961Y-135593604D01*
X286156961Y-135593604D02*
X286033152Y-135593604D01*
X286033152Y-135593604D02*
X285847438Y-135531700D01*
X285847438Y-135531700D02*
X285723628Y-135407890D01*
X285723628Y-135407890D02*
X285661723Y-135284080D01*
X285661723Y-135284080D02*
X285599819Y-135036461D01*
X285599819Y-135036461D02*
X285599819Y-134850747D01*
X285599819Y-134850747D02*
X285661723Y-134603128D01*
X285661723Y-134603128D02*
X285723628Y-134479319D01*
X285723628Y-134479319D02*
X285847438Y-134355509D01*
X285847438Y-134355509D02*
X286033152Y-134293604D01*
X286033152Y-134293604D02*
X286156961Y-134293604D01*
X286156961Y-134293604D02*
X286342676Y-134355509D01*
X286342676Y-134355509D02*
X286404580Y-134417414D01*
D10*
D11*
X285661723Y-185593604D02*
X285661723Y-184293604D01*
X285661723Y-184293604D02*
X285971247Y-184293604D01*
X285971247Y-184293604D02*
X286156961Y-184355509D01*
X286156961Y-184355509D02*
X286280771Y-184479319D01*
X286280771Y-184479319D02*
X286342676Y-184603128D01*
X286342676Y-184603128D02*
X286404580Y-184850747D01*
X286404580Y-184850747D02*
X286404580Y-185036461D01*
X286404580Y-185036461D02*
X286342676Y-185284080D01*
X286342676Y-185284080D02*
X286280771Y-185407890D01*
X286280771Y-185407890D02*
X286156961Y-185531700D01*
X286156961Y-185531700D02*
X285971247Y-185593604D01*
X285971247Y-185593604D02*
X285661723Y-185593604D01*
D10*
D11*
X200458026Y-193793328D02*
X200458026Y-192293328D01*
X200458026Y-192293328D02*
X200815169Y-192293328D01*
X200815169Y-192293328D02*
X201029455Y-192364757D01*
X201029455Y-192364757D02*
X201172312Y-192507614D01*
X201172312Y-192507614D02*
X201243741Y-192650471D01*
X201243741Y-192650471D02*
X201315169Y-192936185D01*
X201315169Y-192936185D02*
X201315169Y-193150471D01*
X201315169Y-193150471D02*
X201243741Y-193436185D01*
X201243741Y-193436185D02*
X201172312Y-193579042D01*
X201172312Y-193579042D02*
X201029455Y-193721900D01*
X201029455Y-193721900D02*
X200815169Y-193793328D01*
X200815169Y-193793328D02*
X200458026Y-193793328D01*
X202600884Y-193793328D02*
X202600884Y-193007614D01*
X202600884Y-193007614D02*
X202529455Y-192864757D01*
X202529455Y-192864757D02*
X202386598Y-192793328D01*
X202386598Y-192793328D02*
X202100884Y-192793328D01*
X202100884Y-192793328D02*
X201958026Y-192864757D01*
X202600884Y-193721900D02*
X202458026Y-193793328D01*
X202458026Y-193793328D02*
X202100884Y-193793328D01*
X202100884Y-193793328D02*
X201958026Y-193721900D01*
X201958026Y-193721900D02*
X201886598Y-193579042D01*
X201886598Y-193579042D02*
X201886598Y-193436185D01*
X201886598Y-193436185D02*
X201958026Y-193293328D01*
X201958026Y-193293328D02*
X202100884Y-193221900D01*
X202100884Y-193221900D02*
X202458026Y-193221900D01*
X202458026Y-193221900D02*
X202600884Y-193150471D01*
X203100884Y-192793328D02*
X203672312Y-192793328D01*
X203315169Y-192293328D02*
X203315169Y-193579042D01*
X203315169Y-193579042D02*
X203386598Y-193721900D01*
X203386598Y-193721900D02*
X203529455Y-193793328D01*
X203529455Y-193793328D02*
X203672312Y-193793328D01*
X204743741Y-193721900D02*
X204600884Y-193793328D01*
X204600884Y-193793328D02*
X204315170Y-193793328D01*
X204315170Y-193793328D02*
X204172312Y-193721900D01*
X204172312Y-193721900D02*
X204100884Y-193579042D01*
X204100884Y-193579042D02*
X204100884Y-193007614D01*
X204100884Y-193007614D02*
X204172312Y-192864757D01*
X204172312Y-192864757D02*
X204315170Y-192793328D01*
X204315170Y-192793328D02*
X204600884Y-192793328D01*
X204600884Y-192793328D02*
X204743741Y-192864757D01*
X204743741Y-192864757D02*
X204815170Y-193007614D01*
X204815170Y-193007614D02*
X204815170Y-193150471D01*
X204815170Y-193150471D02*
X204100884Y-193293328D01*
X205458026Y-193650471D02*
X205529455Y-193721900D01*
X205529455Y-193721900D02*
X205458026Y-193793328D01*
X205458026Y-193793328D02*
X205386598Y-193721900D01*
X205386598Y-193721900D02*
X205458026Y-193650471D01*
X205458026Y-193650471D02*
X205458026Y-193793328D01*
X205458026Y-192864757D02*
X205529455Y-192936185D01*
X205529455Y-192936185D02*
X205458026Y-193007614D01*
X205458026Y-193007614D02*
X205386598Y-192936185D01*
X205386598Y-192936185D02*
X205458026Y-192864757D01*
X205458026Y-192864757D02*
X205458026Y-193007614D01*
D10*
D11*
X177002200Y-194507200D02*
X285002200Y-194507200D01*
D10*
D11*
X178458026Y-196593328D02*
X178458026Y-195093328D01*
X179315169Y-196593328D02*
X178672312Y-195736185D01*
X179315169Y-195093328D02*
X178458026Y-195950471D01*
X179958026Y-196593328D02*
X179958026Y-195593328D01*
X179958026Y-195093328D02*
X179886598Y-195164757D01*
X179886598Y-195164757D02*
X179958026Y-195236185D01*
X179958026Y-195236185D02*
X180029455Y-195164757D01*
X180029455Y-195164757D02*
X179958026Y-195093328D01*
X179958026Y-195093328D02*
X179958026Y-195236185D01*
X181529455Y-196450471D02*
X181458027Y-196521900D01*
X181458027Y-196521900D02*
X181243741Y-196593328D01*
X181243741Y-196593328D02*
X181100884Y-196593328D01*
X181100884Y-196593328D02*
X180886598Y-196521900D01*
X180886598Y-196521900D02*
X180743741Y-196379042D01*
X180743741Y-196379042D02*
X180672312Y-196236185D01*
X180672312Y-196236185D02*
X180600884Y-195950471D01*
X180600884Y-195950471D02*
X180600884Y-195736185D01*
X180600884Y-195736185D02*
X180672312Y-195450471D01*
X180672312Y-195450471D02*
X180743741Y-195307614D01*
X180743741Y-195307614D02*
X180886598Y-195164757D01*
X180886598Y-195164757D02*
X181100884Y-195093328D01*
X181100884Y-195093328D02*
X181243741Y-195093328D01*
X181243741Y-195093328D02*
X181458027Y-195164757D01*
X181458027Y-195164757D02*
X181529455Y-195236185D01*
X182815170Y-196593328D02*
X182815170Y-195807614D01*
X182815170Y-195807614D02*
X182743741Y-195664757D01*
X182743741Y-195664757D02*
X182600884Y-195593328D01*
X182600884Y-195593328D02*
X182315170Y-195593328D01*
X182315170Y-195593328D02*
X182172312Y-195664757D01*
X182815170Y-196521900D02*
X182672312Y-196593328D01*
X182672312Y-196593328D02*
X182315170Y-196593328D01*
X182315170Y-196593328D02*
X182172312Y-196521900D01*
X182172312Y-196521900D02*
X182100884Y-196379042D01*
X182100884Y-196379042D02*
X182100884Y-196236185D01*
X182100884Y-196236185D02*
X182172312Y-196093328D01*
X182172312Y-196093328D02*
X182315170Y-196021900D01*
X182315170Y-196021900D02*
X182672312Y-196021900D01*
X182672312Y-196021900D02*
X182815170Y-195950471D01*
X184172313Y-196593328D02*
X184172313Y-195093328D01*
X184172313Y-196521900D02*
X184029455Y-196593328D01*
X184029455Y-196593328D02*
X183743741Y-196593328D01*
X183743741Y-196593328D02*
X183600884Y-196521900D01*
X183600884Y-196521900D02*
X183529455Y-196450471D01*
X183529455Y-196450471D02*
X183458027Y-196307614D01*
X183458027Y-196307614D02*
X183458027Y-195879042D01*
X183458027Y-195879042D02*
X183529455Y-195736185D01*
X183529455Y-195736185D02*
X183600884Y-195664757D01*
X183600884Y-195664757D02*
X183743741Y-195593328D01*
X183743741Y-195593328D02*
X184029455Y-195593328D01*
X184029455Y-195593328D02*
X184172313Y-195664757D01*
X186029455Y-195807614D02*
X186529455Y-195807614D01*
X186743741Y-196593328D02*
X186029455Y-196593328D01*
X186029455Y-196593328D02*
X186029455Y-195093328D01*
X186029455Y-195093328D02*
X186743741Y-195093328D01*
X187386598Y-196450471D02*
X187458027Y-196521900D01*
X187458027Y-196521900D02*
X187386598Y-196593328D01*
X187386598Y-196593328D02*
X187315170Y-196521900D01*
X187315170Y-196521900D02*
X187386598Y-196450471D01*
X187386598Y-196450471D02*
X187386598Y-196593328D01*
X188100884Y-196593328D02*
X188100884Y-195093328D01*
X188100884Y-195093328D02*
X188458027Y-195093328D01*
X188458027Y-195093328D02*
X188672313Y-195164757D01*
X188672313Y-195164757D02*
X188815170Y-195307614D01*
X188815170Y-195307614D02*
X188886599Y-195450471D01*
X188886599Y-195450471D02*
X188958027Y-195736185D01*
X188958027Y-195736185D02*
X188958027Y-195950471D01*
X188958027Y-195950471D02*
X188886599Y-196236185D01*
X188886599Y-196236185D02*
X188815170Y-196379042D01*
X188815170Y-196379042D02*
X188672313Y-196521900D01*
X188672313Y-196521900D02*
X188458027Y-196593328D01*
X188458027Y-196593328D02*
X188100884Y-196593328D01*
X189600884Y-196450471D02*
X189672313Y-196521900D01*
X189672313Y-196521900D02*
X189600884Y-196593328D01*
X189600884Y-196593328D02*
X189529456Y-196521900D01*
X189529456Y-196521900D02*
X189600884Y-196450471D01*
X189600884Y-196450471D02*
X189600884Y-196593328D01*
X190243742Y-196164757D02*
X190958028Y-196164757D01*
X190100885Y-196593328D02*
X190600885Y-195093328D01*
X190600885Y-195093328D02*
X191100885Y-196593328D01*
X191600884Y-196450471D02*
X191672313Y-196521900D01*
X191672313Y-196521900D02*
X191600884Y-196593328D01*
X191600884Y-196593328D02*
X191529456Y-196521900D01*
X191529456Y-196521900D02*
X191600884Y-196450471D01*
X191600884Y-196450471D02*
X191600884Y-196593328D01*
X194600884Y-196593328D02*
X194600884Y-195093328D01*
X194743742Y-196021900D02*
X195172313Y-196593328D01*
X195172313Y-195593328D02*
X194600884Y-196164757D01*
X195815170Y-196593328D02*
X195815170Y-195593328D01*
X195815170Y-195093328D02*
X195743742Y-195164757D01*
X195743742Y-195164757D02*
X195815170Y-195236185D01*
X195815170Y-195236185D02*
X195886599Y-195164757D01*
X195886599Y-195164757D02*
X195815170Y-195093328D01*
X195815170Y-195093328D02*
X195815170Y-195236185D01*
X197172314Y-196521900D02*
X197029456Y-196593328D01*
X197029456Y-196593328D02*
X196743742Y-196593328D01*
X196743742Y-196593328D02*
X196600885Y-196521900D01*
X196600885Y-196521900D02*
X196529456Y-196450471D01*
X196529456Y-196450471D02*
X196458028Y-196307614D01*
X196458028Y-196307614D02*
X196458028Y-195879042D01*
X196458028Y-195879042D02*
X196529456Y-195736185D01*
X196529456Y-195736185D02*
X196600885Y-195664757D01*
X196600885Y-195664757D02*
X196743742Y-195593328D01*
X196743742Y-195593328D02*
X197029456Y-195593328D01*
X197029456Y-195593328D02*
X197172314Y-195664757D01*
X198458028Y-196593328D02*
X198458028Y-195807614D01*
X198458028Y-195807614D02*
X198386599Y-195664757D01*
X198386599Y-195664757D02*
X198243742Y-195593328D01*
X198243742Y-195593328D02*
X197958028Y-195593328D01*
X197958028Y-195593328D02*
X197815170Y-195664757D01*
X198458028Y-196521900D02*
X198315170Y-196593328D01*
X198315170Y-196593328D02*
X197958028Y-196593328D01*
X197958028Y-196593328D02*
X197815170Y-196521900D01*
X197815170Y-196521900D02*
X197743742Y-196379042D01*
X197743742Y-196379042D02*
X197743742Y-196236185D01*
X197743742Y-196236185D02*
X197815170Y-196093328D01*
X197815170Y-196093328D02*
X197958028Y-196021900D01*
X197958028Y-196021900D02*
X198315170Y-196021900D01*
X198315170Y-196021900D02*
X198458028Y-195950471D01*
X199815171Y-196593328D02*
X199815171Y-195093328D01*
X199815171Y-196521900D02*
X199672313Y-196593328D01*
X199672313Y-196593328D02*
X199386599Y-196593328D01*
X199386599Y-196593328D02*
X199243742Y-196521900D01*
X199243742Y-196521900D02*
X199172313Y-196450471D01*
X199172313Y-196450471D02*
X199100885Y-196307614D01*
X199100885Y-196307614D02*
X199100885Y-195879042D01*
X199100885Y-195879042D02*
X199172313Y-195736185D01*
X199172313Y-195736185D02*
X199243742Y-195664757D01*
X199243742Y-195664757D02*
X199386599Y-195593328D01*
X199386599Y-195593328D02*
X199672313Y-195593328D01*
X199672313Y-195593328D02*
X199815171Y-195664757D01*
X201529456Y-195093328D02*
X202529456Y-195093328D01*
X202529456Y-195093328D02*
X201886599Y-196593328D01*
X203100884Y-196450471D02*
X203172313Y-196521900D01*
X203172313Y-196521900D02*
X203100884Y-196593328D01*
X203100884Y-196593328D02*
X203029456Y-196521900D01*
X203029456Y-196521900D02*
X203100884Y-196450471D01*
X203100884Y-196450471D02*
X203100884Y-196593328D01*
X204100885Y-195093328D02*
X204243742Y-195093328D01*
X204243742Y-195093328D02*
X204386599Y-195164757D01*
X204386599Y-195164757D02*
X204458028Y-195236185D01*
X204458028Y-195236185D02*
X204529456Y-195379042D01*
X204529456Y-195379042D02*
X204600885Y-195664757D01*
X204600885Y-195664757D02*
X204600885Y-196021900D01*
X204600885Y-196021900D02*
X204529456Y-196307614D01*
X204529456Y-196307614D02*
X204458028Y-196450471D01*
X204458028Y-196450471D02*
X204386599Y-196521900D01*
X204386599Y-196521900D02*
X204243742Y-196593328D01*
X204243742Y-196593328D02*
X204100885Y-196593328D01*
X204100885Y-196593328D02*
X203958028Y-196521900D01*
X203958028Y-196521900D02*
X203886599Y-196450471D01*
X203886599Y-196450471D02*
X203815170Y-196307614D01*
X203815170Y-196307614D02*
X203743742Y-196021900D01*
X203743742Y-196021900D02*
X203743742Y-195664757D01*
X203743742Y-195664757D02*
X203815170Y-195379042D01*
X203815170Y-195379042D02*
X203886599Y-195236185D01*
X203886599Y-195236185D02*
X203958028Y-195164757D01*
X203958028Y-195164757D02*
X204100885Y-195093328D01*
X205243741Y-196450471D02*
X205315170Y-196521900D01*
X205315170Y-196521900D02*
X205243741Y-196593328D01*
X205243741Y-196593328D02*
X205172313Y-196521900D01*
X205172313Y-196521900D02*
X205243741Y-196450471D01*
X205243741Y-196450471D02*
X205243741Y-196593328D01*
X206743742Y-196593328D02*
X205886599Y-196593328D01*
X206315170Y-196593328D02*
X206315170Y-195093328D01*
X206315170Y-195093328D02*
X206172313Y-195307614D01*
X206172313Y-195307614D02*
X206029456Y-195450471D01*
X206029456Y-195450471D02*
X205886599Y-195521900D01*
X207672313Y-195093328D02*
X207815170Y-195093328D01*
X207815170Y-195093328D02*
X207958027Y-195164757D01*
X207958027Y-195164757D02*
X208029456Y-195236185D01*
X208029456Y-195236185D02*
X208100884Y-195379042D01*
X208100884Y-195379042D02*
X208172313Y-195664757D01*
X208172313Y-195664757D02*
X208172313Y-196021900D01*
X208172313Y-196021900D02*
X208100884Y-196307614D01*
X208100884Y-196307614D02*
X208029456Y-196450471D01*
X208029456Y-196450471D02*
X207958027Y-196521900D01*
X207958027Y-196521900D02*
X207815170Y-196593328D01*
X207815170Y-196593328D02*
X207672313Y-196593328D01*
X207672313Y-196593328D02*
X207529456Y-196521900D01*
X207529456Y-196521900D02*
X207458027Y-196450471D01*
X207458027Y-196450471D02*
X207386598Y-196307614D01*
X207386598Y-196307614D02*
X207315170Y-196021900D01*
X207315170Y-196021900D02*
X207315170Y-195664757D01*
X207315170Y-195664757D02*
X207386598Y-195379042D01*
X207386598Y-195379042D02*
X207458027Y-195236185D01*
X207458027Y-195236185D02*
X207529456Y-195164757D01*
X207529456Y-195164757D02*
X207672313Y-195093328D01*
X208815169Y-196021900D02*
X209958027Y-196021900D01*
X210529455Y-195093328D02*
X211529455Y-195093328D01*
X211529455Y-195093328D02*
X210886598Y-196593328D01*
X212100883Y-196450471D02*
X212172312Y-196521900D01*
X212172312Y-196521900D02*
X212100883Y-196593328D01*
X212100883Y-196593328D02*
X212029455Y-196521900D01*
X212029455Y-196521900D02*
X212100883Y-196450471D01*
X212100883Y-196450471D02*
X212100883Y-196593328D01*
X213100884Y-195093328D02*
X213243741Y-195093328D01*
X213243741Y-195093328D02*
X213386598Y-195164757D01*
X213386598Y-195164757D02*
X213458027Y-195236185D01*
X213458027Y-195236185D02*
X213529455Y-195379042D01*
X213529455Y-195379042D02*
X213600884Y-195664757D01*
X213600884Y-195664757D02*
X213600884Y-196021900D01*
X213600884Y-196021900D02*
X213529455Y-196307614D01*
X213529455Y-196307614D02*
X213458027Y-196450471D01*
X213458027Y-196450471D02*
X213386598Y-196521900D01*
X213386598Y-196521900D02*
X213243741Y-196593328D01*
X213243741Y-196593328D02*
X213100884Y-196593328D01*
X213100884Y-196593328D02*
X212958027Y-196521900D01*
X212958027Y-196521900D02*
X212886598Y-196450471D01*
X212886598Y-196450471D02*
X212815169Y-196307614D01*
X212815169Y-196307614D02*
X212743741Y-196021900D01*
X212743741Y-196021900D02*
X212743741Y-195664757D01*
X212743741Y-195664757D02*
X212815169Y-195379042D01*
X212815169Y-195379042D02*
X212886598Y-195236185D01*
X212886598Y-195236185D02*
X212958027Y-195164757D01*
X212958027Y-195164757D02*
X213100884Y-195093328D01*
X214243740Y-196450471D02*
X214315169Y-196521900D01*
X214315169Y-196521900D02*
X214243740Y-196593328D01*
X214243740Y-196593328D02*
X214172312Y-196521900D01*
X214172312Y-196521900D02*
X214243740Y-196450471D01*
X214243740Y-196450471D02*
X214243740Y-196593328D01*
X215743741Y-196593328D02*
X214886598Y-196593328D01*
X215315169Y-196593328D02*
X215315169Y-195093328D01*
X215315169Y-195093328D02*
X215172312Y-195307614D01*
X215172312Y-195307614D02*
X215029455Y-195450471D01*
X215029455Y-195450471D02*
X214886598Y-195521900D01*
X216672312Y-195093328D02*
X216815169Y-195093328D01*
X216815169Y-195093328D02*
X216958026Y-195164757D01*
X216958026Y-195164757D02*
X217029455Y-195236185D01*
X217029455Y-195236185D02*
X217100883Y-195379042D01*
X217100883Y-195379042D02*
X217172312Y-195664757D01*
X217172312Y-195664757D02*
X217172312Y-196021900D01*
X217172312Y-196021900D02*
X217100883Y-196307614D01*
X217100883Y-196307614D02*
X217029455Y-196450471D01*
X217029455Y-196450471D02*
X216958026Y-196521900D01*
X216958026Y-196521900D02*
X216815169Y-196593328D01*
X216815169Y-196593328D02*
X216672312Y-196593328D01*
X216672312Y-196593328D02*
X216529455Y-196521900D01*
X216529455Y-196521900D02*
X216458026Y-196450471D01*
X216458026Y-196450471D02*
X216386597Y-196307614D01*
X216386597Y-196307614D02*
X216315169Y-196021900D01*
X216315169Y-196021900D02*
X216315169Y-195664757D01*
X216315169Y-195664757D02*
X216386597Y-195379042D01*
X216386597Y-195379042D02*
X216458026Y-195236185D01*
X216458026Y-195236185D02*
X216529455Y-195164757D01*
X216529455Y-195164757D02*
X216672312Y-195093328D01*
X217600883Y-196021900D02*
X217672311Y-195950471D01*
X217672311Y-195950471D02*
X217815168Y-195879042D01*
X217815168Y-195879042D02*
X218100883Y-196021900D01*
X218100883Y-196021900D02*
X218243740Y-195950471D01*
X218243740Y-195950471D02*
X218315168Y-195879042D01*
X219529455Y-195593328D02*
X219529455Y-196593328D01*
X218886597Y-195593328D02*
X218886597Y-196379042D01*
X218886597Y-196379042D02*
X218958026Y-196521900D01*
X218958026Y-196521900D02*
X219100883Y-196593328D01*
X219100883Y-196593328D02*
X219315169Y-196593328D01*
X219315169Y-196593328D02*
X219458026Y-196521900D01*
X219458026Y-196521900D02*
X219529455Y-196450471D01*
X220243740Y-196593328D02*
X220243740Y-195093328D01*
X220243740Y-195664757D02*
X220386598Y-195593328D01*
X220386598Y-195593328D02*
X220672312Y-195593328D01*
X220672312Y-195593328D02*
X220815169Y-195664757D01*
X220815169Y-195664757D02*
X220886598Y-195736185D01*
X220886598Y-195736185D02*
X220958026Y-195879042D01*
X220958026Y-195879042D02*
X220958026Y-196307614D01*
X220958026Y-196307614D02*
X220886598Y-196450471D01*
X220886598Y-196450471D02*
X220815169Y-196521900D01*
X220815169Y-196521900D02*
X220672312Y-196593328D01*
X220672312Y-196593328D02*
X220386598Y-196593328D01*
X220386598Y-196593328D02*
X220243740Y-196521900D01*
X222243741Y-195593328D02*
X222243741Y-196593328D01*
X221600883Y-195593328D02*
X221600883Y-196379042D01*
X221600883Y-196379042D02*
X221672312Y-196521900D01*
X221672312Y-196521900D02*
X221815169Y-196593328D01*
X221815169Y-196593328D02*
X222029455Y-196593328D01*
X222029455Y-196593328D02*
X222172312Y-196521900D01*
X222172312Y-196521900D02*
X222243741Y-196450471D01*
X222958026Y-195593328D02*
X222958026Y-196593328D01*
X222958026Y-195736185D02*
X223029455Y-195664757D01*
X223029455Y-195664757D02*
X223172312Y-195593328D01*
X223172312Y-195593328D02*
X223386598Y-195593328D01*
X223386598Y-195593328D02*
X223529455Y-195664757D01*
X223529455Y-195664757D02*
X223600884Y-195807614D01*
X223600884Y-195807614D02*
X223600884Y-196593328D01*
X224100884Y-195593328D02*
X224672312Y-195593328D01*
X224315169Y-195093328D02*
X224315169Y-196379042D01*
X224315169Y-196379042D02*
X224386598Y-196521900D01*
X224386598Y-196521900D02*
X224529455Y-196593328D01*
X224529455Y-196593328D02*
X224672312Y-196593328D01*
X225815170Y-195593328D02*
X225815170Y-196593328D01*
X225172312Y-195593328D02*
X225172312Y-196379042D01*
X225172312Y-196379042D02*
X225243741Y-196521900D01*
X225243741Y-196521900D02*
X225386598Y-196593328D01*
X225386598Y-196593328D02*
X225600884Y-196593328D01*
X225600884Y-196593328D02*
X225743741Y-196521900D01*
X225743741Y-196521900D02*
X225815170Y-196450471D01*
X226458027Y-195236185D02*
X226529455Y-195164757D01*
X226529455Y-195164757D02*
X226672313Y-195093328D01*
X226672313Y-195093328D02*
X227029455Y-195093328D01*
X227029455Y-195093328D02*
X227172313Y-195164757D01*
X227172313Y-195164757D02*
X227243741Y-195236185D01*
X227243741Y-195236185D02*
X227315170Y-195379042D01*
X227315170Y-195379042D02*
X227315170Y-195521900D01*
X227315170Y-195521900D02*
X227243741Y-195736185D01*
X227243741Y-195736185D02*
X226386598Y-196593328D01*
X226386598Y-196593328D02*
X227315170Y-196593328D01*
X227886598Y-195236185D02*
X227958026Y-195164757D01*
X227958026Y-195164757D02*
X228100884Y-195093328D01*
X228100884Y-195093328D02*
X228458026Y-195093328D01*
X228458026Y-195093328D02*
X228600884Y-195164757D01*
X228600884Y-195164757D02*
X228672312Y-195236185D01*
X228672312Y-195236185D02*
X228743741Y-195379042D01*
X228743741Y-195379042D02*
X228743741Y-195521900D01*
X228743741Y-195521900D02*
X228672312Y-195736185D01*
X228672312Y-195736185D02*
X227815169Y-196593328D01*
X227815169Y-196593328D02*
X228743741Y-196593328D01*
X229386597Y-196450471D02*
X229458026Y-196521900D01*
X229458026Y-196521900D02*
X229386597Y-196593328D01*
X229386597Y-196593328D02*
X229315169Y-196521900D01*
X229315169Y-196521900D02*
X229386597Y-196450471D01*
X229386597Y-196450471D02*
X229386597Y-196593328D01*
X230386598Y-195093328D02*
X230529455Y-195093328D01*
X230529455Y-195093328D02*
X230672312Y-195164757D01*
X230672312Y-195164757D02*
X230743741Y-195236185D01*
X230743741Y-195236185D02*
X230815169Y-195379042D01*
X230815169Y-195379042D02*
X230886598Y-195664757D01*
X230886598Y-195664757D02*
X230886598Y-196021900D01*
X230886598Y-196021900D02*
X230815169Y-196307614D01*
X230815169Y-196307614D02*
X230743741Y-196450471D01*
X230743741Y-196450471D02*
X230672312Y-196521900D01*
X230672312Y-196521900D02*
X230529455Y-196593328D01*
X230529455Y-196593328D02*
X230386598Y-196593328D01*
X230386598Y-196593328D02*
X230243741Y-196521900D01*
X230243741Y-196521900D02*
X230172312Y-196450471D01*
X230172312Y-196450471D02*
X230100883Y-196307614D01*
X230100883Y-196307614D02*
X230029455Y-196021900D01*
X230029455Y-196021900D02*
X230029455Y-195664757D01*
X230029455Y-195664757D02*
X230100883Y-195379042D01*
X230100883Y-195379042D02*
X230172312Y-195236185D01*
X230172312Y-195236185D02*
X230243741Y-195164757D01*
X230243741Y-195164757D02*
X230386598Y-195093328D01*
X232172312Y-195593328D02*
X232172312Y-196593328D01*
X231815169Y-195021900D02*
X231458026Y-196093328D01*
X231458026Y-196093328D02*
X232386597Y-196093328D01*
X232958025Y-196450471D02*
X233029454Y-196521900D01*
X233029454Y-196521900D02*
X232958025Y-196593328D01*
X232958025Y-196593328D02*
X232886597Y-196521900D01*
X232886597Y-196521900D02*
X232958025Y-196450471D01*
X232958025Y-196450471D02*
X232958025Y-196593328D01*
X234458026Y-196593328D02*
X233600883Y-196593328D01*
X234029454Y-196593328D02*
X234029454Y-195093328D01*
X234029454Y-195093328D02*
X233886597Y-195307614D01*
X233886597Y-195307614D02*
X233743740Y-195450471D01*
X233743740Y-195450471D02*
X233600883Y-195521900D01*
D10*
D11*
X177002200Y-191507200D02*
X285002200Y-191507200D01*
D10*
D12*
X264413853Y-193785528D02*
X263913853Y-193071242D01*
X263556710Y-193785528D02*
X263556710Y-192285528D01*
X263556710Y-192285528D02*
X264128139Y-192285528D01*
X264128139Y-192285528D02*
X264270996Y-192356957D01*
X264270996Y-192356957D02*
X264342425Y-192428385D01*
X264342425Y-192428385D02*
X264413853Y-192571242D01*
X264413853Y-192571242D02*
X264413853Y-192785528D01*
X264413853Y-192785528D02*
X264342425Y-192928385D01*
X264342425Y-192928385D02*
X264270996Y-192999814D01*
X264270996Y-192999814D02*
X264128139Y-193071242D01*
X264128139Y-193071242D02*
X263556710Y-193071242D01*
X265628139Y-193714100D02*
X265485282Y-193785528D01*
X265485282Y-193785528D02*
X265199568Y-193785528D01*
X265199568Y-193785528D02*
X265056710Y-193714100D01*
X265056710Y-193714100D02*
X264985282Y-193571242D01*
X264985282Y-193571242D02*
X264985282Y-192999814D01*
X264985282Y-192999814D02*
X265056710Y-192856957D01*
X265056710Y-192856957D02*
X265199568Y-192785528D01*
X265199568Y-192785528D02*
X265485282Y-192785528D01*
X265485282Y-192785528D02*
X265628139Y-192856957D01*
X265628139Y-192856957D02*
X265699568Y-192999814D01*
X265699568Y-192999814D02*
X265699568Y-193142671D01*
X265699568Y-193142671D02*
X264985282Y-193285528D01*
X266199567Y-192785528D02*
X266556710Y-193785528D01*
X266556710Y-193785528D02*
X266913853Y-192785528D01*
X267485281Y-193642671D02*
X267556710Y-193714100D01*
X267556710Y-193714100D02*
X267485281Y-193785528D01*
X267485281Y-193785528D02*
X267413853Y-193714100D01*
X267413853Y-193714100D02*
X267485281Y-193642671D01*
X267485281Y-193642671D02*
X267485281Y-193785528D01*
X267485281Y-192856957D02*
X267556710Y-192928385D01*
X267556710Y-192928385D02*
X267485281Y-192999814D01*
X267485281Y-192999814D02*
X267413853Y-192928385D01*
X267413853Y-192928385D02*
X267485281Y-192856957D01*
X267485281Y-192856957D02*
X267485281Y-192999814D01*
D10*
D11*
X178386598Y-193721900D02*
X178600884Y-193793328D01*
X178600884Y-193793328D02*
X178958026Y-193793328D01*
X178958026Y-193793328D02*
X179100884Y-193721900D01*
X179100884Y-193721900D02*
X179172312Y-193650471D01*
X179172312Y-193650471D02*
X179243741Y-193507614D01*
X179243741Y-193507614D02*
X179243741Y-193364757D01*
X179243741Y-193364757D02*
X179172312Y-193221900D01*
X179172312Y-193221900D02*
X179100884Y-193150471D01*
X179100884Y-193150471D02*
X178958026Y-193079042D01*
X178958026Y-193079042D02*
X178672312Y-193007614D01*
X178672312Y-193007614D02*
X178529455Y-192936185D01*
X178529455Y-192936185D02*
X178458026Y-192864757D01*
X178458026Y-192864757D02*
X178386598Y-192721900D01*
X178386598Y-192721900D02*
X178386598Y-192579042D01*
X178386598Y-192579042D02*
X178458026Y-192436185D01*
X178458026Y-192436185D02*
X178529455Y-192364757D01*
X178529455Y-192364757D02*
X178672312Y-192293328D01*
X178672312Y-192293328D02*
X179029455Y-192293328D01*
X179029455Y-192293328D02*
X179243741Y-192364757D01*
X179886597Y-193793328D02*
X179886597Y-192793328D01*
X179886597Y-192293328D02*
X179815169Y-192364757D01*
X179815169Y-192364757D02*
X179886597Y-192436185D01*
X179886597Y-192436185D02*
X179958026Y-192364757D01*
X179958026Y-192364757D02*
X179886597Y-192293328D01*
X179886597Y-192293328D02*
X179886597Y-192436185D01*
X180458026Y-192793328D02*
X181243741Y-192793328D01*
X181243741Y-192793328D02*
X180458026Y-193793328D01*
X180458026Y-193793328D02*
X181243741Y-193793328D01*
X182386598Y-193721900D02*
X182243741Y-193793328D01*
X182243741Y-193793328D02*
X181958027Y-193793328D01*
X181958027Y-193793328D02*
X181815169Y-193721900D01*
X181815169Y-193721900D02*
X181743741Y-193579042D01*
X181743741Y-193579042D02*
X181743741Y-193007614D01*
X181743741Y-193007614D02*
X181815169Y-192864757D01*
X181815169Y-192864757D02*
X181958027Y-192793328D01*
X181958027Y-192793328D02*
X182243741Y-192793328D01*
X182243741Y-192793328D02*
X182386598Y-192864757D01*
X182386598Y-192864757D02*
X182458027Y-193007614D01*
X182458027Y-193007614D02*
X182458027Y-193150471D01*
X182458027Y-193150471D02*
X181743741Y-193293328D01*
X183100883Y-193650471D02*
X183172312Y-193721900D01*
X183172312Y-193721900D02*
X183100883Y-193793328D01*
X183100883Y-193793328D02*
X183029455Y-193721900D01*
X183029455Y-193721900D02*
X183100883Y-193650471D01*
X183100883Y-193650471D02*
X183100883Y-193793328D01*
X183100883Y-192864757D02*
X183172312Y-192936185D01*
X183172312Y-192936185D02*
X183100883Y-193007614D01*
X183100883Y-193007614D02*
X183029455Y-192936185D01*
X183029455Y-192936185D02*
X183100883Y-192864757D01*
X183100883Y-192864757D02*
X183100883Y-193007614D01*
X184886598Y-193364757D02*
X185600884Y-193364757D01*
X184743741Y-193793328D02*
X185243741Y-192293328D01*
X185243741Y-192293328D02*
X185743741Y-193793328D01*
X186886598Y-192793328D02*
X186886598Y-193793328D01*
X186529455Y-192221900D02*
X186172312Y-193293328D01*
X186172312Y-193293328D02*
X187100883Y-193293328D01*
D10*
D11*
X263458026Y-196593328D02*
X263458026Y-195093328D01*
X264815170Y-196593328D02*
X264815170Y-195093328D01*
X264815170Y-196521900D02*
X264672312Y-196593328D01*
X264672312Y-196593328D02*
X264386598Y-196593328D01*
X264386598Y-196593328D02*
X264243741Y-196521900D01*
X264243741Y-196521900D02*
X264172312Y-196450471D01*
X264172312Y-196450471D02*
X264100884Y-196307614D01*
X264100884Y-196307614D02*
X264100884Y-195879042D01*
X264100884Y-195879042D02*
X264172312Y-195736185D01*
X264172312Y-195736185D02*
X264243741Y-195664757D01*
X264243741Y-195664757D02*
X264386598Y-195593328D01*
X264386598Y-195593328D02*
X264672312Y-195593328D01*
X264672312Y-195593328D02*
X264815170Y-195664757D01*
X265529455Y-196450471D02*
X265600884Y-196521900D01*
X265600884Y-196521900D02*
X265529455Y-196593328D01*
X265529455Y-196593328D02*
X265458027Y-196521900D01*
X265458027Y-196521900D02*
X265529455Y-196450471D01*
X265529455Y-196450471D02*
X265529455Y-196593328D01*
X265529455Y-195664757D02*
X265600884Y-195736185D01*
X265600884Y-195736185D02*
X265529455Y-195807614D01*
X265529455Y-195807614D02*
X265458027Y-195736185D01*
X265458027Y-195736185D02*
X265529455Y-195664757D01*
X265529455Y-195664757D02*
X265529455Y-195807614D01*
X268172313Y-196593328D02*
X267315170Y-196593328D01*
X267743741Y-196593328D02*
X267743741Y-195093328D01*
X267743741Y-195093328D02*
X267600884Y-195307614D01*
X267600884Y-195307614D02*
X267458027Y-195450471D01*
X267458027Y-195450471D02*
X267315170Y-195521900D01*
X269886598Y-195021900D02*
X268600884Y-196950471D01*
X271172313Y-196593328D02*
X270315170Y-196593328D01*
X270743741Y-196593328D02*
X270743741Y-195093328D01*
X270743741Y-195093328D02*
X270600884Y-195307614D01*
X270600884Y-195307614D02*
X270458027Y-195450471D01*
X270458027Y-195450471D02*
X270315170Y-195521900D01*
D10*
D11*
X177002200Y-187507200D02*
X285002200Y-187507200D01*
D10*
D13*
X178693928Y-188211638D02*
X179836785Y-188211638D01*
X179015357Y-190211638D02*
X179265357Y-188211638D01*
X180253452Y-190211638D02*
X180420119Y-188878304D01*
X180503452Y-188211638D02*
X180396309Y-188306876D01*
X180396309Y-188306876D02*
X180479643Y-188402114D01*
X180479643Y-188402114D02*
X180586786Y-188306876D01*
X180586786Y-188306876D02*
X180503452Y-188211638D01*
X180503452Y-188211638D02*
X180479643Y-188402114D01*
X181086786Y-188878304D02*
X181848690Y-188878304D01*
X181455833Y-188211638D02*
X181241548Y-189925923D01*
X181241548Y-189925923D02*
X181312976Y-190116400D01*
X181312976Y-190116400D02*
X181491548Y-190211638D01*
X181491548Y-190211638D02*
X181682024Y-190211638D01*
X182634405Y-190211638D02*
X182455833Y-190116400D01*
X182455833Y-190116400D02*
X182384405Y-189925923D01*
X182384405Y-189925923D02*
X182598690Y-188211638D01*
X184170119Y-190116400D02*
X183967738Y-190211638D01*
X183967738Y-190211638D02*
X183586785Y-190211638D01*
X183586785Y-190211638D02*
X183408214Y-190116400D01*
X183408214Y-190116400D02*
X183336785Y-189925923D01*
X183336785Y-189925923D02*
X183432024Y-189164019D01*
X183432024Y-189164019D02*
X183551071Y-188973542D01*
X183551071Y-188973542D02*
X183753452Y-188878304D01*
X183753452Y-188878304D02*
X184134404Y-188878304D01*
X184134404Y-188878304D02*
X184312976Y-188973542D01*
X184312976Y-188973542D02*
X184384404Y-189164019D01*
X184384404Y-189164019D02*
X184360595Y-189354495D01*
X184360595Y-189354495D02*
X183384404Y-189544971D01*
X185134405Y-190021161D02*
X185217738Y-190116400D01*
X185217738Y-190116400D02*
X185110595Y-190211638D01*
X185110595Y-190211638D02*
X185027262Y-190116400D01*
X185027262Y-190116400D02*
X185134405Y-190021161D01*
X185134405Y-190021161D02*
X185110595Y-190211638D01*
X185265357Y-188973542D02*
X185348690Y-189068780D01*
X185348690Y-189068780D02*
X185241548Y-189164019D01*
X185241548Y-189164019D02*
X185158214Y-189068780D01*
X185158214Y-189068780D02*
X185265357Y-188973542D01*
X185265357Y-188973542D02*
X185241548Y-189164019D01*
D10*
D11*
X178958026Y-185607614D02*
X178458026Y-185607614D01*
X178458026Y-186393328D02*
X178458026Y-184893328D01*
X178458026Y-184893328D02*
X179172312Y-184893328D01*
X179743740Y-186393328D02*
X179743740Y-185393328D01*
X179743740Y-184893328D02*
X179672312Y-184964757D01*
X179672312Y-184964757D02*
X179743740Y-185036185D01*
X179743740Y-185036185D02*
X179815169Y-184964757D01*
X179815169Y-184964757D02*
X179743740Y-184893328D01*
X179743740Y-184893328D02*
X179743740Y-185036185D01*
X180672312Y-186393328D02*
X180529455Y-186321900D01*
X180529455Y-186321900D02*
X180458026Y-186179042D01*
X180458026Y-186179042D02*
X180458026Y-184893328D01*
X181815169Y-186321900D02*
X181672312Y-186393328D01*
X181672312Y-186393328D02*
X181386598Y-186393328D01*
X181386598Y-186393328D02*
X181243740Y-186321900D01*
X181243740Y-186321900D02*
X181172312Y-186179042D01*
X181172312Y-186179042D02*
X181172312Y-185607614D01*
X181172312Y-185607614D02*
X181243740Y-185464757D01*
X181243740Y-185464757D02*
X181386598Y-185393328D01*
X181386598Y-185393328D02*
X181672312Y-185393328D01*
X181672312Y-185393328D02*
X181815169Y-185464757D01*
X181815169Y-185464757D02*
X181886598Y-185607614D01*
X181886598Y-185607614D02*
X181886598Y-185750471D01*
X181886598Y-185750471D02*
X181172312Y-185893328D01*
X182529454Y-186250471D02*
X182600883Y-186321900D01*
X182600883Y-186321900D02*
X182529454Y-186393328D01*
X182529454Y-186393328D02*
X182458026Y-186321900D01*
X182458026Y-186321900D02*
X182529454Y-186250471D01*
X182529454Y-186250471D02*
X182529454Y-186393328D01*
X182529454Y-185464757D02*
X182600883Y-185536185D01*
X182600883Y-185536185D02*
X182529454Y-185607614D01*
X182529454Y-185607614D02*
X182458026Y-185536185D01*
X182458026Y-185536185D02*
X182529454Y-185464757D01*
X182529454Y-185464757D02*
X182529454Y-185607614D01*
X184386597Y-186393328D02*
X184386597Y-184893328D01*
X184386597Y-184893328D02*
X184886597Y-185964757D01*
X184886597Y-185964757D02*
X185386597Y-184893328D01*
X185386597Y-184893328D02*
X185386597Y-186393328D01*
X186100883Y-186393328D02*
X186100883Y-185393328D01*
X186100883Y-184893328D02*
X186029455Y-184964757D01*
X186029455Y-184964757D02*
X186100883Y-185036185D01*
X186100883Y-185036185D02*
X186172312Y-184964757D01*
X186172312Y-184964757D02*
X186100883Y-184893328D01*
X186100883Y-184893328D02*
X186100883Y-185036185D01*
X187458027Y-186321900D02*
X187315169Y-186393328D01*
X187315169Y-186393328D02*
X187029455Y-186393328D01*
X187029455Y-186393328D02*
X186886598Y-186321900D01*
X186886598Y-186321900D02*
X186815169Y-186250471D01*
X186815169Y-186250471D02*
X186743741Y-186107614D01*
X186743741Y-186107614D02*
X186743741Y-185679042D01*
X186743741Y-185679042D02*
X186815169Y-185536185D01*
X186815169Y-185536185D02*
X186886598Y-185464757D01*
X186886598Y-185464757D02*
X187029455Y-185393328D01*
X187029455Y-185393328D02*
X187315169Y-185393328D01*
X187315169Y-185393328D02*
X187458027Y-185464757D01*
X188100883Y-186393328D02*
X188100883Y-185393328D01*
X188100883Y-185679042D02*
X188172312Y-185536185D01*
X188172312Y-185536185D02*
X188243741Y-185464757D01*
X188243741Y-185464757D02*
X188386598Y-185393328D01*
X188386598Y-185393328D02*
X188529455Y-185393328D01*
X189243740Y-186393328D02*
X189100883Y-186321900D01*
X189100883Y-186321900D02*
X189029454Y-186250471D01*
X189029454Y-186250471D02*
X188958026Y-186107614D01*
X188958026Y-186107614D02*
X188958026Y-185679042D01*
X188958026Y-185679042D02*
X189029454Y-185536185D01*
X189029454Y-185536185D02*
X189100883Y-185464757D01*
X189100883Y-185464757D02*
X189243740Y-185393328D01*
X189243740Y-185393328D02*
X189458026Y-185393328D01*
X189458026Y-185393328D02*
X189600883Y-185464757D01*
X189600883Y-185464757D02*
X189672312Y-185536185D01*
X189672312Y-185536185D02*
X189743740Y-185679042D01*
X189743740Y-185679042D02*
X189743740Y-186107614D01*
X189743740Y-186107614D02*
X189672312Y-186250471D01*
X189672312Y-186250471D02*
X189600883Y-186321900D01*
X189600883Y-186321900D02*
X189458026Y-186393328D01*
X189458026Y-186393328D02*
X189243740Y-186393328D01*
X190315169Y-186321900D02*
X190529455Y-186393328D01*
X190529455Y-186393328D02*
X190886597Y-186393328D01*
X190886597Y-186393328D02*
X191029455Y-186321900D01*
X191029455Y-186321900D02*
X191100883Y-186250471D01*
X191100883Y-186250471D02*
X191172312Y-186107614D01*
X191172312Y-186107614D02*
X191172312Y-185964757D01*
X191172312Y-185964757D02*
X191100883Y-185821900D01*
X191100883Y-185821900D02*
X191029455Y-185750471D01*
X191029455Y-185750471D02*
X190886597Y-185679042D01*
X190886597Y-185679042D02*
X190600883Y-185607614D01*
X190600883Y-185607614D02*
X190458026Y-185536185D01*
X190458026Y-185536185D02*
X190386597Y-185464757D01*
X190386597Y-185464757D02*
X190315169Y-185321900D01*
X190315169Y-185321900D02*
X190315169Y-185179042D01*
X190315169Y-185179042D02*
X190386597Y-185036185D01*
X190386597Y-185036185D02*
X190458026Y-184964757D01*
X190458026Y-184964757D02*
X190600883Y-184893328D01*
X190600883Y-184893328D02*
X190958026Y-184893328D01*
X190958026Y-184893328D02*
X191172312Y-184964757D01*
X191815168Y-186393328D02*
X191815168Y-184893328D01*
X191815168Y-184893328D02*
X192172311Y-184893328D01*
X192172311Y-184893328D02*
X192386597Y-184964757D01*
X192386597Y-184964757D02*
X192529454Y-185107614D01*
X192529454Y-185107614D02*
X192600883Y-185250471D01*
X192600883Y-185250471D02*
X192672311Y-185536185D01*
X192672311Y-185536185D02*
X192672311Y-185750471D01*
X192672311Y-185750471D02*
X192600883Y-186036185D01*
X192600883Y-186036185D02*
X192529454Y-186179042D01*
X192529454Y-186179042D02*
X192386597Y-186321900D01*
X192386597Y-186321900D02*
X192172311Y-186393328D01*
X192172311Y-186393328D02*
X191815168Y-186393328D01*
X193100883Y-184893328D02*
X193600883Y-186393328D01*
X193600883Y-186393328D02*
X194100883Y-184893328D01*
X194529454Y-185036185D02*
X194600882Y-184964757D01*
X194600882Y-184964757D02*
X194743740Y-184893328D01*
X194743740Y-184893328D02*
X195100882Y-184893328D01*
X195100882Y-184893328D02*
X195243740Y-184964757D01*
X195243740Y-184964757D02*
X195315168Y-185036185D01*
X195315168Y-185036185D02*
X195386597Y-185179042D01*
X195386597Y-185179042D02*
X195386597Y-185321900D01*
X195386597Y-185321900D02*
X195315168Y-185536185D01*
X195315168Y-185536185D02*
X194458025Y-186393328D01*
X194458025Y-186393328D02*
X195386597Y-186393328D01*
X196029453Y-186250471D02*
X196100882Y-186321900D01*
X196100882Y-186321900D02*
X196029453Y-186393328D01*
X196029453Y-186393328D02*
X195958025Y-186321900D01*
X195958025Y-186321900D02*
X196029453Y-186250471D01*
X196029453Y-186250471D02*
X196029453Y-186393328D01*
X196743739Y-186393328D02*
X196743739Y-184893328D01*
X196886597Y-185821900D02*
X197315168Y-186393328D01*
X197315168Y-185393328D02*
X196743739Y-185964757D01*
X197958025Y-186393328D02*
X197958025Y-185393328D01*
X197958025Y-184893328D02*
X197886597Y-184964757D01*
X197886597Y-184964757D02*
X197958025Y-185036185D01*
X197958025Y-185036185D02*
X198029454Y-184964757D01*
X198029454Y-184964757D02*
X197958025Y-184893328D01*
X197958025Y-184893328D02*
X197958025Y-185036185D01*
X199315169Y-186321900D02*
X199172311Y-186393328D01*
X199172311Y-186393328D02*
X198886597Y-186393328D01*
X198886597Y-186393328D02*
X198743740Y-186321900D01*
X198743740Y-186321900D02*
X198672311Y-186250471D01*
X198672311Y-186250471D02*
X198600883Y-186107614D01*
X198600883Y-186107614D02*
X198600883Y-185679042D01*
X198600883Y-185679042D02*
X198672311Y-185536185D01*
X198672311Y-185536185D02*
X198743740Y-185464757D01*
X198743740Y-185464757D02*
X198886597Y-185393328D01*
X198886597Y-185393328D02*
X199172311Y-185393328D01*
X199172311Y-185393328D02*
X199315169Y-185464757D01*
X200600883Y-186393328D02*
X200600883Y-185607614D01*
X200600883Y-185607614D02*
X200529454Y-185464757D01*
X200529454Y-185464757D02*
X200386597Y-185393328D01*
X200386597Y-185393328D02*
X200100883Y-185393328D01*
X200100883Y-185393328D02*
X199958025Y-185464757D01*
X200600883Y-186321900D02*
X200458025Y-186393328D01*
X200458025Y-186393328D02*
X200100883Y-186393328D01*
X200100883Y-186393328D02*
X199958025Y-186321900D01*
X199958025Y-186321900D02*
X199886597Y-186179042D01*
X199886597Y-186179042D02*
X199886597Y-186036185D01*
X199886597Y-186036185D02*
X199958025Y-185893328D01*
X199958025Y-185893328D02*
X200100883Y-185821900D01*
X200100883Y-185821900D02*
X200458025Y-185821900D01*
X200458025Y-185821900D02*
X200600883Y-185750471D01*
X201958026Y-186393328D02*
X201958026Y-184893328D01*
X201958026Y-186321900D02*
X201815168Y-186393328D01*
X201815168Y-186393328D02*
X201529454Y-186393328D01*
X201529454Y-186393328D02*
X201386597Y-186321900D01*
X201386597Y-186321900D02*
X201315168Y-186250471D01*
X201315168Y-186250471D02*
X201243740Y-186107614D01*
X201243740Y-186107614D02*
X201243740Y-185679042D01*
X201243740Y-185679042D02*
X201315168Y-185536185D01*
X201315168Y-185536185D02*
X201386597Y-185464757D01*
X201386597Y-185464757D02*
X201529454Y-185393328D01*
X201529454Y-185393328D02*
X201815168Y-185393328D01*
X201815168Y-185393328D02*
X201958026Y-185464757D01*
X202315169Y-186536185D02*
X203458026Y-186536185D01*
X203815168Y-185393328D02*
X203815168Y-186893328D01*
X203815168Y-185464757D02*
X203958026Y-185393328D01*
X203958026Y-185393328D02*
X204243740Y-185393328D01*
X204243740Y-185393328D02*
X204386597Y-185464757D01*
X204386597Y-185464757D02*
X204458026Y-185536185D01*
X204458026Y-185536185D02*
X204529454Y-185679042D01*
X204529454Y-185679042D02*
X204529454Y-186107614D01*
X204529454Y-186107614D02*
X204458026Y-186250471D01*
X204458026Y-186250471D02*
X204386597Y-186321900D01*
X204386597Y-186321900D02*
X204243740Y-186393328D01*
X204243740Y-186393328D02*
X203958026Y-186393328D01*
X203958026Y-186393328D02*
X203815168Y-186321900D01*
X205815169Y-186321900D02*
X205672311Y-186393328D01*
X205672311Y-186393328D02*
X205386597Y-186393328D01*
X205386597Y-186393328D02*
X205243740Y-186321900D01*
X205243740Y-186321900D02*
X205172311Y-186250471D01*
X205172311Y-186250471D02*
X205100883Y-186107614D01*
X205100883Y-186107614D02*
X205100883Y-185679042D01*
X205100883Y-185679042D02*
X205172311Y-185536185D01*
X205172311Y-185536185D02*
X205243740Y-185464757D01*
X205243740Y-185464757D02*
X205386597Y-185393328D01*
X205386597Y-185393328D02*
X205672311Y-185393328D01*
X205672311Y-185393328D02*
X205815169Y-185464757D01*
X206458025Y-186393328D02*
X206458025Y-184893328D01*
X206458025Y-185464757D02*
X206600883Y-185393328D01*
X206600883Y-185393328D02*
X206886597Y-185393328D01*
X206886597Y-185393328D02*
X207029454Y-185464757D01*
X207029454Y-185464757D02*
X207100883Y-185536185D01*
X207100883Y-185536185D02*
X207172311Y-185679042D01*
X207172311Y-185679042D02*
X207172311Y-186107614D01*
X207172311Y-186107614D02*
X207100883Y-186250471D01*
X207100883Y-186250471D02*
X207029454Y-186321900D01*
X207029454Y-186321900D02*
X206886597Y-186393328D01*
X206886597Y-186393328D02*
X206600883Y-186393328D01*
X206600883Y-186393328D02*
X206458025Y-186321900D01*
D10*
D11*
X177002200Y-181507200D02*
X285002200Y-181507200D01*
D10*
D11*
X178386598Y-183621900D02*
X178600884Y-183693328D01*
X178600884Y-183693328D02*
X178958026Y-183693328D01*
X178958026Y-183693328D02*
X179100884Y-183621900D01*
X179100884Y-183621900D02*
X179172312Y-183550471D01*
X179172312Y-183550471D02*
X179243741Y-183407614D01*
X179243741Y-183407614D02*
X179243741Y-183264757D01*
X179243741Y-183264757D02*
X179172312Y-183121900D01*
X179172312Y-183121900D02*
X179100884Y-183050471D01*
X179100884Y-183050471D02*
X178958026Y-182979042D01*
X178958026Y-182979042D02*
X178672312Y-182907614D01*
X178672312Y-182907614D02*
X178529455Y-182836185D01*
X178529455Y-182836185D02*
X178458026Y-182764757D01*
X178458026Y-182764757D02*
X178386598Y-182621900D01*
X178386598Y-182621900D02*
X178386598Y-182479042D01*
X178386598Y-182479042D02*
X178458026Y-182336185D01*
X178458026Y-182336185D02*
X178529455Y-182264757D01*
X178529455Y-182264757D02*
X178672312Y-182193328D01*
X178672312Y-182193328D02*
X179029455Y-182193328D01*
X179029455Y-182193328D02*
X179243741Y-182264757D01*
X179886597Y-183693328D02*
X179886597Y-182193328D01*
X180529455Y-183693328D02*
X180529455Y-182907614D01*
X180529455Y-182907614D02*
X180458026Y-182764757D01*
X180458026Y-182764757D02*
X180315169Y-182693328D01*
X180315169Y-182693328D02*
X180100883Y-182693328D01*
X180100883Y-182693328D02*
X179958026Y-182764757D01*
X179958026Y-182764757D02*
X179886597Y-182836185D01*
X181815169Y-183621900D02*
X181672312Y-183693328D01*
X181672312Y-183693328D02*
X181386598Y-183693328D01*
X181386598Y-183693328D02*
X181243740Y-183621900D01*
X181243740Y-183621900D02*
X181172312Y-183479042D01*
X181172312Y-183479042D02*
X181172312Y-182907614D01*
X181172312Y-182907614D02*
X181243740Y-182764757D01*
X181243740Y-182764757D02*
X181386598Y-182693328D01*
X181386598Y-182693328D02*
X181672312Y-182693328D01*
X181672312Y-182693328D02*
X181815169Y-182764757D01*
X181815169Y-182764757D02*
X181886598Y-182907614D01*
X181886598Y-182907614D02*
X181886598Y-183050471D01*
X181886598Y-183050471D02*
X181172312Y-183193328D01*
X183100883Y-183621900D02*
X182958026Y-183693328D01*
X182958026Y-183693328D02*
X182672312Y-183693328D01*
X182672312Y-183693328D02*
X182529454Y-183621900D01*
X182529454Y-183621900D02*
X182458026Y-183479042D01*
X182458026Y-183479042D02*
X182458026Y-182907614D01*
X182458026Y-182907614D02*
X182529454Y-182764757D01*
X182529454Y-182764757D02*
X182672312Y-182693328D01*
X182672312Y-182693328D02*
X182958026Y-182693328D01*
X182958026Y-182693328D02*
X183100883Y-182764757D01*
X183100883Y-182764757D02*
X183172312Y-182907614D01*
X183172312Y-182907614D02*
X183172312Y-183050471D01*
X183172312Y-183050471D02*
X182458026Y-183193328D01*
X183600883Y-182693328D02*
X184172311Y-182693328D01*
X183815168Y-182193328D02*
X183815168Y-183479042D01*
X183815168Y-183479042D02*
X183886597Y-183621900D01*
X183886597Y-183621900D02*
X184029454Y-183693328D01*
X184029454Y-183693328D02*
X184172311Y-183693328D01*
X184672311Y-183550471D02*
X184743740Y-183621900D01*
X184743740Y-183621900D02*
X184672311Y-183693328D01*
X184672311Y-183693328D02*
X184600883Y-183621900D01*
X184600883Y-183621900D02*
X184672311Y-183550471D01*
X184672311Y-183550471D02*
X184672311Y-183693328D01*
X184672311Y-182764757D02*
X184743740Y-182836185D01*
X184743740Y-182836185D02*
X184672311Y-182907614D01*
X184672311Y-182907614D02*
X184600883Y-182836185D01*
X184600883Y-182836185D02*
X184672311Y-182764757D01*
X184672311Y-182764757D02*
X184672311Y-182907614D01*
D10*
D12*
D10*
D11*
D10*
D11*
D10*
D11*
D10*
D11*
D10*
D11*
X197002200Y-191507200D02*
X197002200Y-194507200D01*
D10*
D11*
X261002200Y-191507200D02*
X261002200Y-198007200D01*
D12*
D14*
X191654001Y-87421329D02*
X192582573Y-87421329D01*
X192582573Y-87421329D02*
X192082573Y-87992758D01*
X192082573Y-87992758D02*
X192296858Y-87992758D01*
X192296858Y-87992758D02*
X192439716Y-88064186D01*
X192439716Y-88064186D02*
X192511144Y-88135615D01*
X192511144Y-88135615D02*
X192582573Y-88278472D01*
X192582573Y-88278472D02*
X192582573Y-88635615D01*
X192582573Y-88635615D02*
X192511144Y-88778472D01*
X192511144Y-88778472D02*
X192439716Y-88849901D01*
X192439716Y-88849901D02*
X192296858Y-88921329D01*
X192296858Y-88921329D02*
X191868287Y-88921329D01*
X191868287Y-88921329D02*
X191725430Y-88849901D01*
X191725430Y-88849901D02*
X191654001Y-88778472D01*
X193939715Y-87421329D02*
X193225429Y-87421329D01*
X193225429Y-87421329D02*
X193154001Y-88135615D01*
X193154001Y-88135615D02*
X193225429Y-88064186D01*
X193225429Y-88064186D02*
X193368287Y-87992758D01*
X193368287Y-87992758D02*
X193725429Y-87992758D01*
X193725429Y-87992758D02*
X193868287Y-88064186D01*
X193868287Y-88064186D02*
X193939715Y-88135615D01*
X193939715Y-88135615D02*
X194011144Y-88278472D01*
X194011144Y-88278472D02*
X194011144Y-88635615D01*
X194011144Y-88635615D02*
X193939715Y-88778472D01*
X193939715Y-88778472D02*
X193868287Y-88849901D01*
X193868287Y-88849901D02*
X193725429Y-88921329D01*
X193725429Y-88921329D02*
X193368287Y-88921329D01*
X193368287Y-88921329D02*
X193225429Y-88849901D01*
X193225429Y-88849901D02*
X193154001Y-88778472D01*
X194654000Y-88778472D02*
X194725429Y-88849901D01*
X194725429Y-88849901D02*
X194654000Y-88921329D01*
X194654000Y-88921329D02*
X194582572Y-88849901D01*
X194582572Y-88849901D02*
X194654000Y-88778472D01*
X194654000Y-88778472D02*
X194654000Y-88921329D01*
X195654001Y-87421329D02*
X195796858Y-87421329D01*
X195796858Y-87421329D02*
X195939715Y-87492758D01*
X195939715Y-87492758D02*
X196011144Y-87564186D01*
X196011144Y-87564186D02*
X196082572Y-87707043D01*
X196082572Y-87707043D02*
X196154001Y-87992758D01*
X196154001Y-87992758D02*
X196154001Y-88349901D01*
X196154001Y-88349901D02*
X196082572Y-88635615D01*
X196082572Y-88635615D02*
X196011144Y-88778472D01*
X196011144Y-88778472D02*
X195939715Y-88849901D01*
X195939715Y-88849901D02*
X195796858Y-88921329D01*
X195796858Y-88921329D02*
X195654001Y-88921329D01*
X195654001Y-88921329D02*
X195511144Y-88849901D01*
X195511144Y-88849901D02*
X195439715Y-88778472D01*
X195439715Y-88778472D02*
X195368286Y-88635615D01*
X195368286Y-88635615D02*
X195296858Y-88349901D01*
X195296858Y-88349901D02*
X195296858Y-87992758D01*
X195296858Y-87992758D02*
X195368286Y-87707043D01*
X195368286Y-87707043D02*
X195439715Y-87564186D01*
X195439715Y-87564186D02*
X195511144Y-87492758D01*
X195511144Y-87492758D02*
X195654001Y-87421329D01*
X197082572Y-87421329D02*
X197225429Y-87421329D01*
X197225429Y-87421329D02*
X197368286Y-87492758D01*
X197368286Y-87492758D02*
X197439715Y-87564186D01*
X197439715Y-87564186D02*
X197511143Y-87707043D01*
X197511143Y-87707043D02*
X197582572Y-87992758D01*
X197582572Y-87992758D02*
X197582572Y-88349901D01*
X197582572Y-88349901D02*
X197511143Y-88635615D01*
X197511143Y-88635615D02*
X197439715Y-88778472D01*
X197439715Y-88778472D02*
X197368286Y-88849901D01*
X197368286Y-88849901D02*
X197225429Y-88921329D01*
X197225429Y-88921329D02*
X197082572Y-88921329D01*
X197082572Y-88921329D02*
X196939715Y-88849901D01*
X196939715Y-88849901D02*
X196868286Y-88778472D01*
X196868286Y-88778472D02*
X196796857Y-88635615D01*
X196796857Y-88635615D02*
X196725429Y-88349901D01*
X196725429Y-88349901D02*
X196725429Y-87992758D01*
X196725429Y-87992758D02*
X196796857Y-87707043D01*
X196796857Y-87707043D02*
X196868286Y-87564186D01*
X196868286Y-87564186D02*
X196939715Y-87492758D01*
X196939715Y-87492758D02*
X197082572Y-87421329D01*
X198511143Y-87421329D02*
X198654000Y-87421329D01*
X198654000Y-87421329D02*
X198796857Y-87492758D01*
X198796857Y-87492758D02*
X198868286Y-87564186D01*
X198868286Y-87564186D02*
X198939714Y-87707043D01*
X198939714Y-87707043D02*
X199011143Y-87992758D01*
X199011143Y-87992758D02*
X199011143Y-88349901D01*
X199011143Y-88349901D02*
X198939714Y-88635615D01*
X198939714Y-88635615D02*
X198868286Y-88778472D01*
X198868286Y-88778472D02*
X198796857Y-88849901D01*
X198796857Y-88849901D02*
X198654000Y-88921329D01*
X198654000Y-88921329D02*
X198511143Y-88921329D01*
X198511143Y-88921329D02*
X198368286Y-88849901D01*
X198368286Y-88849901D02*
X198296857Y-88778472D01*
X198296857Y-88778472D02*
X198225428Y-88635615D01*
X198225428Y-88635615D02*
X198154000Y-88349901D01*
X198154000Y-88349901D02*
X198154000Y-87992758D01*
X198154000Y-87992758D02*
X198225428Y-87707043D01*
X198225428Y-87707043D02*
X198296857Y-87564186D01*
X198296857Y-87564186D02*
X198368286Y-87492758D01*
X198368286Y-87492758D02*
X198511143Y-87421329D01*
X199939714Y-87421329D02*
X200082571Y-87421329D01*
X200082571Y-87421329D02*
X200225428Y-87492758D01*
X200225428Y-87492758D02*
X200296857Y-87564186D01*
X200296857Y-87564186D02*
X200368285Y-87707043D01*
X200368285Y-87707043D02*
X200439714Y-87992758D01*
X200439714Y-87992758D02*
X200439714Y-88349901D01*
X200439714Y-88349901D02*
X200368285Y-88635615D01*
X200368285Y-88635615D02*
X200296857Y-88778472D01*
X200296857Y-88778472D02*
X200225428Y-88849901D01*
X200225428Y-88849901D02*
X200082571Y-88921329D01*
X200082571Y-88921329D02*
X199939714Y-88921329D01*
X199939714Y-88921329D02*
X199796857Y-88849901D01*
X199796857Y-88849901D02*
X199725428Y-88778472D01*
X199725428Y-88778472D02*
X199653999Y-88635615D01*
X199653999Y-88635615D02*
X199582571Y-88349901D01*
X199582571Y-88349901D02*
X199582571Y-87992758D01*
X199582571Y-87992758D02*
X199653999Y-87707043D01*
X199653999Y-87707043D02*
X199725428Y-87564186D01*
X199725428Y-87564186D02*
X199796857Y-87492758D01*
X199796857Y-87492758D02*
X199939714Y-87421329D01*
X202225427Y-88921329D02*
X202225427Y-87921329D01*
X202225427Y-88064186D02*
X202296856Y-87992758D01*
X202296856Y-87992758D02*
X202439713Y-87921329D01*
X202439713Y-87921329D02*
X202653999Y-87921329D01*
X202653999Y-87921329D02*
X202796856Y-87992758D01*
X202796856Y-87992758D02*
X202868285Y-88135615D01*
X202868285Y-88135615D02*
X202868285Y-88921329D01*
X202868285Y-88135615D02*
X202939713Y-87992758D01*
X202939713Y-87992758D02*
X203082570Y-87921329D01*
X203082570Y-87921329D02*
X203296856Y-87921329D01*
X203296856Y-87921329D02*
X203439713Y-87992758D01*
X203439713Y-87992758D02*
X203511142Y-88135615D01*
X203511142Y-88135615D02*
X203511142Y-88921329D01*
X204225427Y-88921329D02*
X204225427Y-87921329D01*
X204225427Y-88064186D02*
X204296856Y-87992758D01*
X204296856Y-87992758D02*
X204439713Y-87921329D01*
X204439713Y-87921329D02*
X204653999Y-87921329D01*
X204653999Y-87921329D02*
X204796856Y-87992758D01*
X204796856Y-87992758D02*
X204868285Y-88135615D01*
X204868285Y-88135615D02*
X204868285Y-88921329D01*
X204868285Y-88135615D02*
X204939713Y-87992758D01*
X204939713Y-87992758D02*
X205082570Y-87921329D01*
X205082570Y-87921329D02*
X205296856Y-87921329D01*
X205296856Y-87921329D02*
X205439713Y-87992758D01*
X205439713Y-87992758D02*
X205511142Y-88135615D01*
X205511142Y-88135615D02*
X205511142Y-88921329D01*
D15*
X216154000Y-97897000D02*
X216154000Y-89456581D01*
X181154000Y-97897000D02*
X181154000Y-89456581D01*
X216154000Y-90043001D02*
X181154000Y-90043001D01*
X216154000Y-90043001D02*
X181154000Y-90043001D01*
X216154000Y-90043001D02*
X215027496Y-90629422D01*
X216154000Y-90043001D02*
X215027496Y-89456580D01*
X181154000Y-90043001D02*
X182280504Y-89456580D01*
X181154000Y-90043001D02*
X182280504Y-90629422D01*
D16*
%TO.P,C5,1*%
%TO.N,5V*%
X202692000Y-119380000D03*
%TO.P,C5,2*%
%TO.N,GND*%
X205817000Y-119380000D03*
%TD*%
D17*
%TO.P,R7,1*%
%TO.N,5V*%
X163679500Y-110714000D03*
%TO.P,R7,2*%
%TO.N,Net-(U6-VDD)*%
X165504500Y-110714000D03*
%TD*%
D18*
%TO.P,C2,1*%
%TO.N,Net-(D2-K)*%
X212929000Y-108206000D03*
%TO.P,C2,2*%
%TO.N,Net-(U3-BOOT)*%
X212929000Y-106306000D03*
%TD*%
D19*
%TO.P,D2,1,K*%
%TO.N,Net-(D2-K)*%
X212589000Y-115130000D03*
%TO.P,D2,2,A*%
%TO.N,GND*%
X208189000Y-115130000D03*
%TD*%
D20*
%TO.P,J1,1,Pin_1*%
%TO.N,Net-(J1-Pin_1)*%
X180594000Y-106426000D03*
%TD*%
%TO.P,J2,1,Pin_1*%
%TO.N,5V*%
X185674000Y-106426000D03*
%TD*%
D21*
%TO.P,C8,1*%
%TO.N,GND*%
X187430500Y-104372500D03*
%TO.P,C8,2*%
%TO.N,5V*%
X187430500Y-106447500D03*
%TD*%
D22*
%TO.P,C6,1*%
%TO.N,GND*%
X200229000Y-125057500D03*
%TO.P,C6,2*%
%TO.N,5V*%
X200229000Y-122982500D03*
%TD*%
D17*
%TO.P,R6,1*%
%TO.N,3.3V*%
X163679500Y-108204000D03*
%TO.P,R6,2*%
%TO.N,Net-(U6-VDD)*%
X165504500Y-108204000D03*
%TD*%
D23*
%TO.P,R5,1*%
%TO.N,Net-(D1-K)*%
X168910000Y-121396000D03*
%TO.P,R5,2*%
%TO.N,Net-(U2-LED)*%
X168910000Y-119396000D03*
%TD*%
D24*
%TO.P,U6,1,DAT2*%
%TO.N,Net-(U2-D2)*%
X159496000Y-111346000D03*
%TO.P,U6,2,DAT3*%
%TO.N,Net-(U2-D3)*%
X159496000Y-110246000D03*
%TO.P,U6,3,CMD*%
%TO.N,Net-(U2-CMD)*%
X159496000Y-109146000D03*
%TO.P,U6,4,VDD*%
%TO.N,Net-(U6-VDD)*%
X159496000Y-108046000D03*
%TO.P,U6,5,CLK*%
%TO.N,Net-(U2-CLK)*%
X159496000Y-106946000D03*
%TO.P,U6,6,GND*%
%TO.N,GND*%
X159496000Y-105846000D03*
%TO.P,U6,7,DAT0*%
%TO.N,Net-(U2-D0)*%
X159496000Y-104746000D03*
%TO.P,U6,8,DAT1*%
%TO.N,Net-(U2-D1)*%
X159496000Y-103646000D03*
%TO.P,U6,9,CD*%
%TO.N,Net-(U2-PMOS)*%
X159496000Y-102546000D03*
D25*
%TO.P,U6,S1,SHELL*%
%TO.N,GND*%
X158496000Y-101346000D03*
D26*
X148896000Y-101346000D03*
D27*
X158496000Y-115946000D03*
D26*
X148896000Y-116846000D03*
%TD*%
D16*
%TO.P,C3,1*%
%TO.N,5V*%
X202692000Y-115130000D03*
%TO.P,C3,2*%
%TO.N,GND*%
X205817000Y-115130000D03*
%TD*%
D28*
%TO.P,SW2,1,A*%
%TO.N,VBUS*%
X197866000Y-103124000D03*
D29*
%TO.P,SW2,2,B*%
%TO.N,SIGNAL*%
X195326000Y-103124000D03*
%TO.P,SW2,3,C*%
%TO.N,GND*%
X192786000Y-103124000D03*
%TD*%
D30*
%TO.P,C10,1*%
%TO.N,3.3V*%
X165629500Y-117856000D03*
%TO.P,C10,2*%
%TO.N,GND*%
X163554500Y-117856000D03*
%TD*%
D31*
%TO.P,Y1,1,1*%
%TO.N,Net-(U1-XO)*%
X176600000Y-107050000D03*
%TO.P,Y1,2,2*%
%TO.N,Net-(U1-XI)*%
X176600000Y-112550000D03*
%TD*%
D30*
%TO.P,C11,1*%
%TO.N,3.3V*%
X165629500Y-121412000D03*
%TO.P,C11,2*%
%TO.N,GND*%
X163554500Y-121412000D03*
%TD*%
D32*
%TO.P,R4,1*%
%TO.N,Net-(U1-XI)*%
X177700000Y-115387500D03*
%TO.P,R4,2*%
%TO.N,GND*%
X177700000Y-117212500D03*
%TD*%
D33*
%TO.P,U2,1,Vss*%
%TO.N,GND*%
X171704000Y-111954000D03*
%TO.P,U2,2,D1*%
%TO.N,Net-(U2-D1)*%
X171069000Y-111954000D03*
%TO.P,U2,3,D0*%
%TO.N,Net-(U2-D0)*%
X170434000Y-111954000D03*
%TO.P,U2,4,CLK*%
%TO.N,Net-(U2-CLK)*%
X169799000Y-111954000D03*
%TO.P,U2,5,CMD*%
%TO.N,Net-(U2-CMD)*%
X169164000Y-111954000D03*
%TO.P,U2,6,D3*%
%TO.N,Net-(U2-D3)*%
X168529000Y-111954000D03*
%TO.P,U2,7,D2*%
%TO.N,Net-(U2-D2)*%
X167894000Y-111954000D03*
%TO.P,U2,8,PMOS*%
%TO.N,Net-(U2-PMOS)*%
X167259000Y-111954000D03*
%TO.P,U2,9,VDD*%
%TO.N,3.3V*%
X167259000Y-117154000D03*
%TO.P,U2,10,5V*%
%TO.N,5V*%
X167894000Y-117154000D03*
%TO.P,U2,11,GPIO*%
%TO.N,unconnected-(U2-GPIO-Pad11)*%
X168529000Y-117154000D03*
%TO.P,U2,12,LED*%
%TO.N,Net-(U2-LED)*%
X169164000Y-117154000D03*
%TO.P,U2,13,VDDA*%
%TO.N,3.3V*%
X169799000Y-117154000D03*
%TO.P,U2,14,Vss*%
%TO.N,GND*%
X170434000Y-117154000D03*
%TO.P,U2,15,DP*%
%TO.N,/D2+*%
X171069000Y-117154000D03*
%TO.P,U2,16,DM*%
%TO.N,/D2-*%
X171704000Y-117154000D03*
%TD*%
D34*
%TO.P,L1,1,1*%
%TO.N,Net-(D2-K)*%
X199975000Y-107213000D03*
%TO.P,L1,2,2*%
%TO.N,5V*%
X199975000Y-111363000D03*
%TD*%
D20*
%TO.P,J3,1,Pin_1*%
%TO.N,3.3V*%
X185674000Y-109474000D03*
%TD*%
D35*
%TO.P,U3,1,BOOT*%
%TO.N,Net-(U3-BOOT)*%
X209422000Y-105826000D03*
%TO.P,U3,2,VIN*%
%TO.N,VBUS*%
X208152000Y-105826000D03*
%TO.P,U3,3,EN*%
%TO.N,SIGNAL*%
X206882000Y-105826000D03*
%TO.P,U3,4,RT/SYNC*%
%TO.N,Net-(U3-RT{slash}SYNC)*%
X205612000Y-105826000D03*
%TO.P,U3,5,FB*%
%TO.N,Net-(U3-FB)*%
X205612000Y-111226000D03*
%TO.P,U3,6,SS*%
%TO.N,Net-(U3-SS)*%
X206882000Y-111226000D03*
%TO.P,U3,7,GND*%
%TO.N,GND*%
X208152000Y-111226000D03*
%TO.P,U3,8,SW*%
%TO.N,Net-(D2-K)*%
X209422000Y-111226000D03*
%TD*%
D36*
%TO.P,C1,1*%
%TO.N,VBUS*%
X208103000Y-102938000D03*
%TO.P,C1,2*%
%TO.N,GND*%
X211053000Y-102938000D03*
%TD*%
D30*
%TO.P,C7,1*%
%TO.N,3.3V*%
X188566500Y-125544000D03*
%TO.P,C7,2*%
%TO.N,GND*%
X186491500Y-125544000D03*
%TD*%
D20*
%TO.P,J4,1,Pin_1*%
%TO.N,Net-(J4-Pin_1)*%
X180594000Y-109474000D03*
%TD*%
D37*
%TO.P,C4,1*%
%TO.N,Net-(U3-SS)*%
X214199000Y-119006000D03*
%TO.P,C4,2*%
%TO.N,GND*%
X214199000Y-120906000D03*
%TD*%
D38*
%TO.P,R3,1*%
%TO.N,Net-(U3-FB)*%
X210357000Y-119956000D03*
%TO.P,R3,2*%
%TO.N,GND*%
X208357000Y-119956000D03*
%TD*%
D39*
%TO.P,C9,1*%
%TO.N,GND*%
X163533000Y-115316000D03*
%TO.P,C9,2*%
%TO.N,5V*%
X165608000Y-115316000D03*
%TD*%
D40*
%TO.P,U1,1,DM4-*%
%TO.N,DM4_DOWN*%
X185508600Y-117100000D03*
%TO.P,U1,2,DP4+*%
%TO.N,DP4_DOWN*%
X185508600Y-116465000D03*
%TO.P,U1,3,DM3-*%
%TO.N,DM3_DOWN*%
X185508600Y-115830000D03*
%TO.P,U1,4,DP3+*%
%TO.N,DP3_DOWN*%
X185508600Y-115195000D03*
%TO.P,U1,5,DM2-*%
%TO.N,/D2-*%
X185508600Y-114560000D03*
%TO.P,U1,6,DP2+*%
%TO.N,/D2+*%
X185508600Y-113925000D03*
%TO.P,U1,7,DM1-*%
%TO.N,/D1-*%
X185508600Y-113290000D03*
%TO.P,U1,8,DP1+*%
%TO.N,/D1+*%
X185508600Y-112655000D03*
%TO.P,U1,9,~{RESET}/CDP*%
%TO.N,unconnected-(U1-~{RESET}{slash}CDP-Pad9)*%
X180200000Y-112655000D03*
%TO.P,U1,10,DMU-*%
%TO.N,/UPD-*%
X180200000Y-113290000D03*
%TO.P,U1,11,DPU+*%
%TO.N,/UPD+*%
X180200000Y-113925000D03*
%TO.P,U1,12,V5*%
%TO.N,Net-(J1-Pin_1)*%
X180200000Y-114560000D03*
%TO.P,U1,13,VDD33*%
%TO.N,Net-(J4-Pin_1)*%
X180200000Y-115195000D03*
%TO.P,U1,14,GND*%
%TO.N,GND*%
X180200000Y-115830000D03*
%TO.P,U1,15,XO*%
%TO.N,Net-(U1-XO)*%
X180200000Y-116465000D03*
%TO.P,U1,16,XI*%
%TO.N,Net-(U1-XI)*%
X180200000Y-117100000D03*
%TD*%
D41*
%TO.P,U8,A1,GND*%
%TO.N,GND*%
X175138000Y-121616000D03*
%TO.P,U8,A2,SSTXp1*%
%TO.N,/TX+*%
X175638000Y-121616000D03*
%TO.P,U8,A3,SSTXn1*%
%TO.N,/TX-*%
X176138000Y-121616000D03*
%TO.P,U8,A4,V_BUS*%
%TO.N,VBUS*%
X176638000Y-121616000D03*
%TO.P,U8,A5,CC1*%
%TO.N,CC1*%
X177138000Y-121616000D03*
%TO.P,U8,A6,Dp1*%
%TO.N,/D1+*%
X177638000Y-121616000D03*
%TO.P,U8,A7,Dn1*%
%TO.N,/D1-*%
X178138000Y-121616000D03*
%TO.P,U8,A8,SBU1*%
%TO.N,SBU1_UP*%
X178638000Y-121616000D03*
%TO.P,U8,A9,V_BUS*%
%TO.N,VBUS*%
X179138000Y-121616000D03*
%TO.P,U8,A10,SSRXn2*%
%TO.N,/RX-*%
X179638000Y-121616000D03*
%TO.P,U8,A11,SSRXp2*%
%TO.N,/RX+*%
X180138000Y-121616000D03*
%TO.P,U8,A12,GND*%
%TO.N,GND*%
X180638000Y-121616000D03*
D42*
%TO.P,U8,B1,GND*%
X180388000Y-122891000D03*
%TO.P,U8,B2,SSTXp2*%
%TO.N,/TX+*%
X179888000Y-122891000D03*
%TO.P,U8,B3,SSTXn2*%
%TO.N,/TX-*%
X179388000Y-122891000D03*
%TO.P,U8,B4,V_BUS*%
%TO.N,VBUS*%
X178888000Y-122891000D03*
%TO.P,U8,B5,CC2*%
%TO.N,CC1*%
X178388000Y-122891000D03*
%TO.P,U8,B8,SBU2*%
%TO.N,SBU1_UP*%
X176888000Y-122891000D03*
%TO.P,U8,B9,V_BUS*%
%TO.N,VBUS*%
X176388000Y-122891000D03*
%TO.P,U8,B10,SSRXn1*%
%TO.N,/RX-*%
X175888000Y-122891000D03*
%TO.P,U8,B11,SSRXp1*%
%TO.N,/RX+*%
X175388000Y-122891000D03*
%TO.P,U8,B12,GND*%
%TO.N,GND*%
X174888000Y-122891000D03*
D43*
%TO.P,U8,S1,SHIELD*%
%TO.N,unconnected-(U8-SHIELD-PadS1)*%
X173478000Y-126736000D03*
D44*
X173488000Y-122206000D03*
D45*
X173788000Y-122706000D03*
X181818000Y-122706000D03*
D44*
X182118000Y-122206000D03*
D43*
X182118000Y-126746000D03*
%TD*%
D38*
%TO.P,R1,1*%
%TO.N,Net-(U3-RT{slash}SYNC)*%
X204800000Y-104200000D03*
%TO.P,R1,2*%
%TO.N,GND*%
X202800000Y-104200000D03*
%TD*%
D46*
%TO.P,U7,1,GND*%
%TO.N,GND*%
X197791000Y-125812000D03*
%TO.P,U7,2,VO*%
%TO.N,3.3V*%
X197791000Y-123512000D03*
D47*
X191491000Y-123512000D03*
D46*
%TO.P,U7,3,VI*%
%TO.N,5V*%
X197791000Y-121212000D03*
%TD*%
D48*
%TO.P,D1,1,K*%
%TO.N,Net-(D1-K)*%
X168672000Y-124714000D03*
%TO.P,D1,2,A*%
%TO.N,3.3V*%
X170672000Y-124714000D03*
%TD*%
D44*
%TO.P,USB_C3.0_UP1,1,SHIELD*%
%TO.N,unconnected-(USB_C3.0_UP1-SHIELD-Pad1)*%
X185000000Y-100660000D03*
X177700000Y-100660000D03*
D49*
%TO.P,USB_C3.0_UP1,A1,GND*%
%TO.N,GND*%
X178500000Y-100660000D03*
%TO.P,USB_C3.0_UP1,A2,SSTXp1*%
%TO.N,/TX+*%
X179000000Y-100660000D03*
%TO.P,USB_C3.0_UP1,A3,SSTXn1*%
%TO.N,/TX-*%
X179500000Y-100660000D03*
%TO.P,USB_C3.0_UP1,A4,V_BUS*%
%TO.N,VBUS*%
X180000000Y-100660000D03*
%TO.P,USB_C3.0_UP1,A5,CC1*%
%TO.N,CC1*%
X180500000Y-100660000D03*
%TO.P,USB_C3.0_UP1,A6,Dp1*%
%TO.N,/UPD+*%
X181000000Y-100660000D03*
%TO.P,USB_C3.0_UP1,A7,Dn1*%
%TO.N,/UPD-*%
X181500000Y-100660000D03*
%TO.P,USB_C3.0_UP1,A8,SBU1*%
%TO.N,SBU1_UP*%
X182000000Y-100660000D03*
%TO.P,USB_C3.0_UP1,A9,V_BUS*%
%TO.N,VBUS*%
X182500000Y-100660000D03*
%TO.P,USB_C3.0_UP1,A10,SSRXn2*%
%TO.N,/RX-*%
X183000000Y-100660000D03*
%TO.P,USB_C3.0_UP1,A11,SSRXp2*%
%TO.N,/RX+*%
X183500000Y-100660000D03*
%TO.P,USB_C3.0_UP1,A12,GND*%
%TO.N,GND*%
X184000000Y-100660000D03*
%TO.P,USB_C3.0_UP1,B1,GND*%
X184150000Y-99060000D03*
%TO.P,USB_C3.0_UP1,B2,SSTXp2*%
%TO.N,unconnected-(USB_C3.0_UP1-SSTXp2-PadB2)*%
X183650000Y-99060000D03*
%TO.P,USB_C3.0_UP1,B3,SSTXn2*%
%TO.N,unconnected-(USB_C3.0_UP1-SSTXn2-PadB3)*%
X183150000Y-99060000D03*
%TO.P,USB_C3.0_UP1,B4,V_BUS*%
%TO.N,VBUS*%
X182650000Y-99060000D03*
%TO.P,USB_C3.0_UP1,B5,CC2*%
%TO.N,unconnected-(USB_C3.0_UP1-CC2-PadB5)*%
X182150000Y-99060000D03*
%TO.P,USB_C3.0_UP1,B6,Dp2*%
%TO.N,unconnected-(USB_C3.0_UP1-Dp2-PadB6)*%
X181650000Y-99060000D03*
%TO.P,USB_C3.0_UP1,B7,Dn2*%
%TO.N,unconnected-(USB_C3.0_UP1-Dn2-PadB7)*%
X181150000Y-99060000D03*
%TO.P,USB_C3.0_UP1,B8,SBU2*%
%TO.N,unconnected-(USB_C3.0_UP1-SBU2-PadB8)*%
X180650000Y-99060000D03*
%TO.P,USB_C3.0_UP1,B9,V_BUS*%
%TO.N,VBUS*%
X180150000Y-99060000D03*
%TO.P,USB_C3.0_UP1,B10,SSRXn1*%
%TO.N,unconnected-(USB_C3.0_UP1-SSRXn1-PadB10)*%
X179650000Y-99060000D03*
%TO.P,USB_C3.0_UP1,B11,SSRXp1*%
%TO.N,unconnected-(USB_C3.0_UP1-SSRXp1-PadB11)*%
X179150000Y-99060000D03*
%TO.P,USB_C3.0_UP1,B12,GND*%
%TO.N,GND*%
X178650000Y-99060000D03*
%TD*%
D48*
%TO.P,R2,1*%
%TO.N,5V*%
X208373000Y-124528000D03*
%TO.P,R2,2*%
%TO.N,Net-(U3-FB)*%
X210373000Y-124528000D03*
%TD*%
D50*
%TO.N,GND*%
X200660000Y-125984000D03*
X199390000Y-125984000D03*
%TO.N,5V*%
X204216000Y-125222000D03*
X204978000Y-124460000D03*
X203454000Y-124460000D03*
%TO.N,VBUS*%
X208200000Y-100900000D03*
X179897220Y-102007693D03*
X206800000Y-99300000D03*
X203900000Y-99000000D03*
X207100000Y-100900000D03*
X204900000Y-99000000D03*
X207700000Y-100000000D03*
X206400000Y-100200000D03*
X205900000Y-99000000D03*
X205400000Y-99800000D03*
X182538856Y-102252144D03*
%TO.N,GND*%
X185674000Y-125476000D03*
X207087000Y-119702000D03*
X213200000Y-101800000D03*
X213691000Y-122242000D03*
X159766000Y-117094000D03*
X213200000Y-100700000D03*
X171958000Y-110490000D03*
X181610000Y-116078000D03*
X170688000Y-115570000D03*
X211659000Y-116908000D03*
X212100000Y-100700000D03*
X207087000Y-118432000D03*
X210643000Y-117162000D03*
X162052000Y-116332000D03*
X212100000Y-102900000D03*
X208103000Y-118432000D03*
X161290000Y-105156000D03*
X162052000Y-117856000D03*
X212100000Y-101800000D03*
X213200000Y-104100000D03*
X155448000Y-101092000D03*
X206071000Y-117162000D03*
X177546000Y-117348000D03*
X201300000Y-104500000D03*
X176276000Y-100838000D03*
X181356000Y-120904000D03*
X212100000Y-104100000D03*
X187452000Y-104140000D03*
X149098000Y-118110000D03*
X174498000Y-120904000D03*
X162052000Y-121412000D03*
X213200000Y-102900000D03*
X208103000Y-117162000D03*
X207087000Y-117162000D03*
X209373000Y-118432000D03*
X211913000Y-119702000D03*
X212421000Y-117924000D03*
X162052000Y-114808000D03*
X151892000Y-101092000D03*
X211405000Y-117924000D03*
X162052000Y-119634000D03*
X211100000Y-100700000D03*
%TO.N,5V*%
X166116000Y-113792000D03*
X200152000Y-114808000D03*
X197612000Y-114808000D03*
X198882000Y-114808000D03*
X165100000Y-113792000D03*
X197612000Y-113792000D03*
X198882000Y-113792000D03*
X200152000Y-113792000D03*
%TO.N,Net-(U3-SS)*%
X214199000Y-118940000D03*
X207325000Y-113098000D03*
%TO.N,3.3V*%
X166878000Y-121412000D03*
X164084000Y-109220000D03*
X170434000Y-122936000D03*
%TO.N,Net-(U2-PMOS)*%
X168148000Y-113284000D03*
X160782000Y-102616000D03*
%TO.N,/D2-*%
X190483452Y-118761044D03*
X189140000Y-114554000D03*
%TO.N,/D2+*%
X188090000Y-114554000D03*
X190483452Y-119811044D03*
%TO.N,Net-(U6-VDD)*%
X165608000Y-109474000D03*
X157480000Y-108712000D03*
%TD*%
D51*
%TO.N,3.3V*%
X197791000Y-123512000D02*
X191491000Y-123512000D01*
D52*
%TO.N,5V*%
X187409000Y-106426000D02*
X186690000Y-106426000D01*
X186690000Y-106426000D02*
X185420000Y-106426000D01*
D53*
X185674000Y-106426000D02*
X186690000Y-106426000D01*
D52*
%TO.N,VBUS*%
X178300000Y-104300000D02*
X175500000Y-104300000D01*
X181998000Y-118402000D02*
X180289503Y-118402000D01*
X182538856Y-102252144D02*
X182538856Y-102528856D01*
X179897220Y-102007693D02*
X179700000Y-102204913D01*
X180000000Y-100660000D02*
X180000000Y-101904913D01*
X179132000Y-120142000D02*
X179138000Y-120148000D01*
X182500000Y-102000000D02*
X182500000Y-101600000D01*
X182500000Y-100660000D02*
X182500000Y-99762000D01*
X174700000Y-117000000D02*
X176632000Y-118932000D01*
X180150000Y-99612000D02*
X180150000Y-99060000D01*
X180289503Y-118402000D02*
X179132000Y-119559503D01*
X179132000Y-119559503D02*
X179132000Y-120679500D01*
X182500000Y-99762000D02*
X182650000Y-99612000D01*
X180000000Y-101904913D02*
X179897220Y-102007693D01*
X179700000Y-102204913D02*
X179700000Y-102900000D01*
X179897220Y-102007693D02*
X179897220Y-101702780D01*
D54*
X208152000Y-105826000D02*
X208152000Y-102987000D01*
D52*
X179138000Y-120148000D02*
X179138000Y-121616000D01*
X176638000Y-121616000D02*
X176638000Y-120552000D01*
X182538856Y-102252144D02*
X182500000Y-102213288D01*
X180000000Y-100660000D02*
X180000000Y-99762000D01*
X176638000Y-120552000D02*
X176632000Y-120546000D01*
X174700000Y-105100000D02*
X174700000Y-117000000D01*
X179897220Y-101702780D02*
X180000000Y-101600000D01*
X176632000Y-118932000D02*
X176632000Y-120546000D01*
X179700000Y-102900000D02*
X178300000Y-104300000D01*
X175500000Y-104300000D02*
X174700000Y-105100000D01*
X182538856Y-102528856D02*
X182700000Y-102690000D01*
X182650000Y-99612000D02*
X182650000Y-99060000D01*
X182500000Y-102213288D02*
X182500000Y-102000000D01*
X208152000Y-102987000D02*
X208103000Y-102938000D01*
X182700000Y-117700000D02*
X181998000Y-118402000D01*
X182700000Y-102690000D02*
X182700000Y-117700000D01*
X182500000Y-100660000D02*
X182500000Y-102000000D01*
X180000000Y-99762000D02*
X180150000Y-99612000D01*
%TO.N,GND*%
X186830000Y-104140000D02*
X187452000Y-104140000D01*
D54*
X208152000Y-115093000D02*
X208189000Y-115130000D01*
D55*
X176276000Y-99568000D02*
X176784000Y-99060000D01*
D56*
X202800000Y-104200000D02*
X201600000Y-104200000D01*
D52*
X178500000Y-99210000D02*
X178500000Y-100660000D01*
X184001500Y-99970500D02*
X184001500Y-100660000D01*
D55*
X160600000Y-105846000D02*
X159496000Y-105846000D01*
D52*
X187452000Y-101346000D02*
X187452000Y-104140000D01*
D53*
X180200000Y-115830000D02*
X181362000Y-115830000D01*
X171958000Y-110490000D02*
X172212000Y-110490000D01*
D52*
X184150000Y-99822000D02*
X184638500Y-99333500D01*
D53*
X172466000Y-111506000D02*
X172466000Y-110744000D01*
D52*
X184150000Y-99060000D02*
X184150000Y-99822000D01*
X185439500Y-99333500D02*
X187452000Y-101346000D01*
D53*
X172466000Y-110744000D02*
X171958000Y-110490000D01*
D54*
X208152000Y-111226000D02*
X208152000Y-115093000D01*
D56*
X201600000Y-104200000D02*
X201300000Y-104500000D01*
D55*
X176784000Y-99060000D02*
X178598000Y-99060000D01*
D53*
X170434000Y-115824000D02*
X170688000Y-115570000D01*
X181362000Y-115830000D02*
X181610000Y-116078000D01*
D52*
X184638500Y-99333500D02*
X185439500Y-99333500D01*
D53*
X171704000Y-111954000D02*
X172018000Y-111954000D01*
X172018000Y-111954000D02*
X172466000Y-111506000D01*
D55*
X176276000Y-100838000D02*
X176276000Y-99568000D01*
D52*
X178650000Y-99060000D02*
X178500000Y-99210000D01*
X184150000Y-99822000D02*
X184001500Y-99970500D01*
D53*
X180388000Y-122891000D02*
X180388000Y-122888000D01*
D55*
X161290000Y-105156000D02*
X160600000Y-105846000D01*
D53*
X170434000Y-117154000D02*
X170434000Y-115824000D01*
D56*
%TO.N,Net-(U3-BOOT)*%
X211151000Y-106240000D02*
X213183000Y-106240000D01*
X210737000Y-105826000D02*
X211151000Y-106240000D01*
X209627000Y-105826000D02*
X210737000Y-105826000D01*
D52*
%TO.N,5V*%
X193348000Y-121212000D02*
X192532000Y-120396000D01*
X197791000Y-121212000D02*
X193348000Y-121212000D01*
X192532000Y-120396000D02*
X192532000Y-114046000D01*
D55*
X165608000Y-115316000D02*
X167386000Y-115316000D01*
D52*
X187430500Y-108944500D02*
X187430500Y-106447500D01*
D55*
X167894000Y-115824000D02*
X167894000Y-117154000D01*
D52*
X192532000Y-114046000D02*
X187430500Y-108944500D01*
D55*
X167386000Y-115316000D02*
X167894000Y-115824000D01*
D53*
X199356000Y-110744000D02*
X199975000Y-111363000D01*
D52*
X187430500Y-106447500D02*
X187409000Y-106426000D01*
%TO.N,Net-(U3-SS)*%
X206882000Y-112655000D02*
X206882000Y-111226000D01*
X207325000Y-113098000D02*
X206882000Y-112655000D01*
D55*
%TO.N,3.3V*%
X170434000Y-118639000D02*
X170434000Y-122936000D01*
X169799000Y-117154000D02*
X169799000Y-118004000D01*
D52*
X191491000Y-114021000D02*
X186944000Y-109474000D01*
D55*
X169799000Y-118004000D02*
X170434000Y-118639000D01*
D52*
X170434000Y-124476000D02*
X170672000Y-124714000D01*
X191491000Y-123512000D02*
X191491000Y-114021000D01*
X186944000Y-109474000D02*
X185420000Y-109474000D01*
D53*
%TO.N,Net-(D1-K)*%
X168910000Y-121396000D02*
X168910000Y-124476000D01*
X168910000Y-124476000D02*
X168672000Y-124714000D01*
D56*
%TO.N,Net-(U3-RT{slash}SYNC)*%
X205612000Y-105781000D02*
X204800000Y-104969000D01*
X205612000Y-105826000D02*
X205612000Y-105781000D01*
X204800000Y-104969000D02*
X204800000Y-104200000D01*
D53*
%TO.N,Net-(U3-FB)*%
X210373000Y-119972000D02*
X210357000Y-119956000D01*
D56*
X210373000Y-122242000D02*
X210373000Y-119972000D01*
X210373000Y-122242000D02*
X205817000Y-122242000D01*
X204293000Y-112545000D02*
X205612000Y-111226000D01*
X205817000Y-122242000D02*
X204293000Y-120718000D01*
X210373000Y-124528000D02*
X210373000Y-122242000D01*
X204293000Y-120718000D02*
X204293000Y-112545000D01*
D53*
%TO.N,Net-(U1-XI)*%
X179412500Y-117100000D02*
X180200000Y-117100000D01*
X177700000Y-115387500D02*
X179412500Y-117100000D01*
X176600000Y-112550000D02*
X176600000Y-114878000D01*
X176600000Y-114878000D02*
X177109500Y-115387500D01*
X177109500Y-115387500D02*
X177700000Y-115387500D01*
%TO.N,Net-(U2-LED)*%
X169164000Y-119142000D02*
X168910000Y-119396000D01*
X169164000Y-117154000D02*
X169164000Y-119142000D01*
%TO.N,Net-(U2-PMOS)*%
X159496000Y-102546000D02*
X160712000Y-102546000D01*
X167259000Y-112804000D02*
X167739000Y-113284000D01*
X160712000Y-102546000D02*
X160782000Y-102616000D01*
X167739000Y-113284000D02*
X168148000Y-113284000D01*
X167259000Y-111954000D02*
X167259000Y-112804000D01*
D57*
%TO.N,/D2-*%
X187329800Y-115004000D02*
X186700801Y-114375001D01*
X171704000Y-118054001D02*
X171704000Y-117154000D01*
X189140000Y-114554000D02*
X188690000Y-115004000D01*
X171611500Y-118146501D02*
X171704000Y-118054001D01*
X176608726Y-124821726D02*
X176608726Y-124821725D01*
X185693599Y-114375001D02*
X185508600Y-114560000D01*
X190483452Y-118761044D02*
X190183453Y-119061043D01*
X174337200Y-124997000D02*
X171611500Y-122271300D01*
X188349712Y-115181000D02*
X187830288Y-115181000D01*
X189738757Y-119061043D02*
X183802800Y-124997000D01*
X188526712Y-115004000D02*
X188349712Y-115181000D01*
X175584000Y-124997000D02*
X174337200Y-124997000D01*
X175833452Y-124997000D02*
X175584000Y-124997000D01*
X183802800Y-124997000D02*
X176784000Y-124997000D01*
X188690000Y-115004000D02*
X188526712Y-115004000D01*
X186700801Y-114375001D02*
X185693599Y-114375001D01*
X176433452Y-124646451D02*
X176184000Y-124646451D01*
X176008726Y-124821725D02*
X176008726Y-124821726D01*
X190183453Y-119061043D02*
X189738757Y-119061043D01*
X187653288Y-115004000D02*
X187329800Y-115004000D01*
X187830288Y-115181000D02*
X187653288Y-115004000D01*
X171611500Y-122271300D02*
X171611500Y-118146501D01*
X176608700Y-124821726D02*
G75*
G03*
X176784000Y-124997000I175300J26D01*
G01*
X176608749Y-124821725D02*
G75*
G03*
X176433452Y-124646451I-175249J25D01*
G01*
X175833452Y-124996926D02*
G75*
G03*
X176008726Y-124821726I48J175226D01*
G01*
X176184000Y-124646426D02*
G75*
G03*
X176008726Y-124821725I0J-175274D01*
G01*
%TO.N,/D2+*%
X181738867Y-125447000D02*
X181816867Y-125369000D01*
X183989200Y-125447000D02*
X189925155Y-119511045D01*
X188090000Y-114554000D02*
X187516200Y-114554000D01*
X171161500Y-118146501D02*
X171161500Y-122457700D01*
X187516200Y-114554000D02*
X186887200Y-113925000D01*
X182497133Y-125447000D02*
X183989200Y-125447000D01*
X190183453Y-119511045D02*
X190483452Y-119811044D01*
X174150800Y-125447000D02*
X181738867Y-125447000D01*
X181816867Y-125369000D02*
X182419133Y-125369000D01*
X171161500Y-122457700D02*
X174150800Y-125447000D01*
X186887200Y-113925000D02*
X185508600Y-113925000D01*
X182419133Y-125369000D02*
X182497133Y-125447000D01*
X171069000Y-118054001D02*
X171161500Y-118146501D01*
X189925155Y-119511045D02*
X190183453Y-119511045D01*
X171069000Y-117154000D02*
X171069000Y-118054001D01*
D53*
%TO.N,Net-(U1-XO)*%
X177800000Y-107950000D02*
X177500000Y-107950000D01*
X177800000Y-113538000D02*
X177800000Y-107950000D01*
X178427000Y-115435000D02*
X178427000Y-114165000D01*
X179457000Y-116465000D02*
X178427000Y-115435000D01*
X180200000Y-116465000D02*
X179457000Y-116465000D01*
X177500000Y-107950000D02*
X176600000Y-107050000D01*
X178427000Y-114165000D02*
X177800000Y-113538000D01*
%TO.N,Net-(U2-D1)*%
X171069000Y-110617000D02*
X169164000Y-108712000D01*
X166130000Y-103646000D02*
X159496000Y-103646000D01*
X169164000Y-106680000D02*
X166130000Y-103646000D01*
X171069000Y-111954000D02*
X171069000Y-110617000D01*
X169164000Y-108712000D02*
X169164000Y-106680000D01*
%TO.N,Net-(U2-D0)*%
X160684000Y-104746000D02*
X159496000Y-104746000D01*
X168656000Y-106934000D02*
X166116000Y-104394000D01*
X168656000Y-108966000D02*
X168656000Y-106934000D01*
X170434000Y-111954000D02*
X170434000Y-110744000D01*
X161036000Y-104394000D02*
X160684000Y-104746000D01*
X170434000Y-110744000D02*
X168656000Y-108966000D01*
X166116000Y-104394000D02*
X161036000Y-104394000D01*
%TO.N,Net-(U2-CLK)*%
X169799000Y-110871000D02*
X168148000Y-109220000D01*
X160516000Y-106946000D02*
X159496000Y-106946000D01*
X168148000Y-109220000D02*
X168148000Y-107188000D01*
X168148000Y-107188000D02*
X166116000Y-105156000D01*
X162306000Y-105156000D02*
X160516000Y-106946000D01*
X166116000Y-105156000D02*
X162306000Y-105156000D01*
X169799000Y-111954000D02*
X169799000Y-110871000D01*
%TO.N,Net-(U2-CMD)*%
X160782000Y-108892000D02*
X160528000Y-109146000D01*
X162814000Y-105918000D02*
X160782000Y-107950000D01*
X160782000Y-107950000D02*
X160782000Y-108892000D01*
X169164000Y-111954000D02*
X169164000Y-110998000D01*
X169164000Y-110998000D02*
X167640000Y-109474000D01*
X166116000Y-105918000D02*
X162814000Y-105918000D01*
X160528000Y-109146000D02*
X159496000Y-109146000D01*
X167640000Y-109474000D02*
X167640000Y-107442000D01*
X167640000Y-107442000D02*
X166116000Y-105918000D01*
%TO.N,Net-(U2-D3)*%
X161544000Y-109748000D02*
X161310000Y-109982000D01*
X167132000Y-107696000D02*
X166116000Y-106680000D01*
X168529000Y-111125000D02*
X167132000Y-109728000D01*
X168529000Y-111954000D02*
X168529000Y-111125000D01*
X159760000Y-109982000D02*
X159496000Y-110246000D01*
X162814000Y-106680000D02*
X161544000Y-107950000D01*
X161544000Y-107950000D02*
X161544000Y-109748000D01*
X161310000Y-109982000D02*
X159760000Y-109982000D01*
X166116000Y-106680000D02*
X162814000Y-106680000D01*
X167132000Y-109728000D02*
X167132000Y-107696000D01*
%TO.N,Net-(U2-D2)*%
X167894000Y-111954000D02*
X167894000Y-111252000D01*
X163068000Y-107442000D02*
X162052000Y-108458000D01*
X166624000Y-109982000D02*
X166624000Y-107950000D01*
X162052000Y-110584000D02*
X161290000Y-111346000D01*
X162052000Y-108458000D02*
X162052000Y-110584000D01*
X166116000Y-107442000D02*
X163068000Y-107442000D01*
X166624000Y-107950000D02*
X166116000Y-107442000D01*
X167894000Y-111252000D02*
X166624000Y-109982000D01*
X161290000Y-111346000D02*
X159496000Y-111346000D01*
D57*
%TO.N,CC1*%
X177150000Y-120650000D02*
X177150000Y-118881486D01*
D53*
X177138000Y-120662000D02*
X177150000Y-120650000D01*
X177138000Y-121616000D02*
X177138000Y-120662000D01*
D57*
X175200000Y-105200000D02*
X175698000Y-104702000D01*
X180500000Y-101260000D02*
X180500000Y-100660000D01*
X177150000Y-120697500D02*
X177150000Y-120650000D01*
X175698000Y-104702000D02*
X178501870Y-104702000D01*
X178501870Y-104702000D02*
X180600000Y-102603870D01*
X180600000Y-101360000D02*
X180500000Y-101260000D01*
X175200000Y-116931486D02*
X175200000Y-105200000D01*
X177150000Y-118881486D02*
X175200000Y-116931486D01*
X180600000Y-102603870D02*
X180600000Y-101360000D01*
%TO.N,SBU1_UP*%
X181802000Y-102402000D02*
X181802000Y-101420449D01*
D53*
X178638000Y-121616000D02*
X178638000Y-120552000D01*
D57*
X178632000Y-120546000D02*
X178632000Y-119468000D01*
X181802000Y-101420449D02*
X182000000Y-101222449D01*
X182000000Y-101222449D02*
X182000000Y-100660000D01*
X182298000Y-102898000D02*
X181802000Y-102402000D01*
X178632000Y-119468000D02*
X180100000Y-118000000D01*
X181800000Y-118000000D02*
X182298000Y-117502000D01*
X182298000Y-117502000D02*
X182298000Y-102898000D01*
D53*
X178638000Y-120552000D02*
X178632000Y-120546000D01*
D57*
X180100000Y-118000000D02*
X181800000Y-118000000D01*
%TO.N,/UPD-*%
X179030557Y-113474999D02*
X178787000Y-113231442D01*
X180966628Y-103577571D02*
X181475000Y-103069200D01*
X181500000Y-101260001D02*
X181500000Y-100660000D01*
X178787000Y-105757200D02*
X180118100Y-104426100D01*
X180200000Y-113290000D02*
X180015001Y-113474999D01*
X181475000Y-101285001D02*
X181500000Y-101260001D01*
X180542364Y-104426100D02*
X180556329Y-104440065D01*
X178787000Y-113231442D02*
X178787000Y-105757200D01*
X180980593Y-104015799D02*
X180980593Y-104015800D01*
X180980593Y-104015800D02*
X180966627Y-104001834D01*
X180966627Y-103577570D02*
X180966628Y-103577571D01*
X180015001Y-113474999D02*
X179030557Y-113474999D01*
X181475000Y-103069200D02*
X181475000Y-101285001D01*
X180980561Y-104440033D02*
G75*
G03*
X180980593Y-104015799I-212061J212133D01*
G01*
X180556330Y-104440064D02*
G75*
G03*
X180980592Y-104440064I212131J212131D01*
G01*
X180542363Y-104426101D02*
G75*
G03*
X180118101Y-104426101I-212131J-212131D01*
G01*
X180966625Y-103577568D02*
G75*
G03*
X180966627Y-104001834I212175J-212132D01*
G01*
%TO.N,/UPD+*%
X181000000Y-100660000D02*
X181000000Y-101260001D01*
X178337000Y-105570800D02*
X178337000Y-113417842D01*
X178844158Y-113925000D02*
X180200000Y-113925000D01*
X178337000Y-113417842D02*
X178844158Y-113925000D01*
X181025000Y-102882800D02*
X178337000Y-105570800D01*
X181000000Y-101260001D02*
X181025000Y-101285001D01*
X181025000Y-101285001D02*
X181025000Y-102882800D01*
%TO.N,/D1-*%
X185433961Y-122095842D02*
X185433960Y-122095841D01*
X178138000Y-121616000D02*
X178138000Y-122239000D01*
X180939117Y-124181000D02*
X181456883Y-124181000D01*
X184479613Y-121990025D02*
X184479615Y-121990024D01*
X178562000Y-123887800D02*
X178562000Y-123952000D01*
X186931325Y-112747000D02*
X186480825Y-113197500D01*
X186480825Y-113197500D02*
X186196100Y-113197500D01*
X183631146Y-122838618D02*
X183631148Y-122838617D01*
X183548800Y-123981000D02*
X183736900Y-123792900D01*
X184585430Y-122944371D02*
X184585430Y-122944370D01*
X184055412Y-122838617D02*
X184161167Y-122944372D01*
X184903879Y-121990024D02*
X185009697Y-122095842D01*
X186103600Y-113290000D02*
X185508600Y-113290000D01*
X180710117Y-123952000D02*
X180939117Y-124181000D01*
X186196100Y-113197500D02*
X186103600Y-113290000D01*
X178011000Y-122239000D02*
X178011000Y-123543000D01*
X178011000Y-123543000D02*
X178217200Y-123543000D01*
X188882800Y-112747000D02*
X186931325Y-112747000D01*
X183736900Y-123368636D02*
X183631146Y-123262882D01*
X181656883Y-123981000D02*
X183548800Y-123981000D01*
X178562000Y-123952000D02*
X180710117Y-123952000D01*
X181456883Y-124181000D02*
X181656883Y-123981000D01*
X178138000Y-122239000D02*
X178011000Y-122239000D01*
X184585430Y-122520106D02*
X184479613Y-122414289D01*
X185433960Y-122095841D02*
X189767000Y-117762800D01*
X189767000Y-117762800D02*
X189767000Y-113631200D01*
X184585431Y-122944372D02*
X184585430Y-122944371D01*
X178217200Y-123543000D02*
X178562000Y-123887800D01*
X189767000Y-113631200D02*
X188882800Y-112747000D01*
X184479657Y-121990069D02*
G75*
G03*
X184479614Y-122414288I212043J-212131D01*
G01*
X184903878Y-121990025D02*
G75*
G03*
X184479616Y-121990025I-212131J-212131D01*
G01*
X184161168Y-122944371D02*
G75*
G03*
X184585430Y-122944371I212131J212131D01*
G01*
X184585392Y-122944332D02*
G75*
G03*
X184585430Y-122520106I-212092J212132D01*
G01*
X184055411Y-122838618D02*
G75*
G03*
X183631149Y-122838618I-212131J-212131D01*
G01*
X183631196Y-122838668D02*
G75*
G03*
X183631146Y-123262882I212104J-212132D01*
G01*
X185009698Y-122095841D02*
G75*
G03*
X185433960Y-122095841I212131J212131D01*
G01*
X183736931Y-123792931D02*
G75*
G03*
X183736899Y-123368637I-212131J212131D01*
G01*
%TO.N,/D1+*%
X189037100Y-112297000D02*
X186744925Y-112297000D01*
X180552749Y-124431000D02*
X180629749Y-124508000D01*
X180629749Y-124508000D02*
X183658200Y-124508000D01*
X177638000Y-121616000D02*
X177638000Y-121975632D01*
X177561020Y-122052612D02*
X177561020Y-123729388D01*
X186294425Y-112747500D02*
X186196100Y-112747500D01*
X186103600Y-112655000D02*
X185508600Y-112655000D01*
X178468800Y-124431000D02*
X180552749Y-124431000D01*
X183658200Y-124508000D02*
X190217000Y-117949200D01*
X177824612Y-123992980D02*
X178030780Y-123992980D01*
X178030780Y-123992980D02*
X178468800Y-124431000D01*
X190217000Y-113476900D02*
X189037100Y-112297000D01*
X186196100Y-112747500D02*
X186103600Y-112655000D01*
X190217000Y-117949200D02*
X190217000Y-113476900D01*
X177561020Y-123729388D02*
X177824612Y-123992980D01*
X177638000Y-121975632D02*
X177561020Y-122052612D01*
X186744925Y-112297000D02*
X186294425Y-112747500D01*
%TO.N,/TX+*%
X175638000Y-121616000D02*
X175638000Y-120408000D01*
D58*
X175638000Y-120790999D02*
X175638000Y-121616000D01*
D57*
X175638000Y-120408000D02*
X175650000Y-120396000D01*
D58*
X179000000Y-100660000D02*
X179000000Y-101195156D01*
X178688240Y-101506916D02*
X178688240Y-102138326D01*
D57*
X175650000Y-120697500D02*
X175650000Y-120396000D01*
D58*
X178688240Y-102138326D02*
X177510546Y-103316020D01*
X175639500Y-120789499D02*
X175638000Y-120790999D01*
X175639500Y-119331058D02*
X175639500Y-120789499D01*
X177510546Y-103316020D02*
X175092422Y-103316020D01*
X173716020Y-117407578D02*
X175639500Y-119331058D01*
X179000000Y-101195156D02*
X178688240Y-101506916D01*
X175092422Y-103316020D02*
X173716020Y-104692422D01*
X173716020Y-104692422D02*
X173716020Y-117407578D01*
%TO.N,/TX-*%
X179206020Y-102323414D02*
X177716434Y-103813000D01*
X175298278Y-103813000D02*
X174213000Y-104898278D01*
X177716434Y-103813000D02*
X175298278Y-103813000D01*
X174213000Y-117201722D02*
X176136500Y-119125222D01*
X176138000Y-120790999D02*
X176138000Y-121616000D01*
X176136500Y-120789499D02*
X176138000Y-120790999D01*
X179185220Y-101712772D02*
X179185220Y-102302614D01*
X176136500Y-119125222D02*
X176136500Y-120789499D01*
X179498500Y-101261501D02*
X179498500Y-101399492D01*
X174213000Y-104898278D02*
X174213000Y-117201722D01*
X179500000Y-100660000D02*
X179500000Y-101260001D01*
X179498500Y-101399492D02*
X179185220Y-101712772D01*
X179185220Y-102302614D02*
X179206020Y-102323414D01*
X179500000Y-101260001D02*
X179498500Y-101261501D01*
%TO.N,/RX-*%
X183001500Y-101261501D02*
X183001500Y-101707867D01*
X180890156Y-118888980D02*
X179638000Y-120141136D01*
X183001500Y-101707867D02*
X183250856Y-101957223D01*
X183250856Y-101957223D02*
X183250856Y-117837838D01*
X182199714Y-118888980D02*
X180890156Y-118888980D01*
X179638000Y-120141136D02*
X179638000Y-121616000D01*
X183250856Y-117837838D02*
X182199714Y-118888980D01*
X183000000Y-101260001D02*
X183001500Y-101261501D01*
X183000000Y-100660000D02*
X183000000Y-101260001D01*
%TO.N,/RX+*%
X181096020Y-119385980D02*
X180138000Y-120344000D01*
X183747836Y-101507837D02*
X183747836Y-118043722D01*
X180138000Y-120344000D02*
X180138000Y-121616000D01*
X182405578Y-119385980D02*
X181096020Y-119385980D01*
X183747836Y-118043722D02*
X182405578Y-119385980D01*
X183500000Y-100660000D02*
X183500000Y-101260001D01*
X183500000Y-101260001D02*
X183747836Y-101507837D01*
D53*
%TO.N,Net-(J1-Pin_1)*%
X180340000Y-106680000D02*
X180594000Y-106426000D01*
X179832000Y-106680000D02*
X180340000Y-106680000D01*
X180200000Y-114560000D02*
X181250000Y-114560000D01*
X181250000Y-114560000D02*
X181356000Y-114454000D01*
X179578000Y-106934000D02*
X179832000Y-106680000D01*
X181356000Y-114454000D02*
X181356000Y-111760000D01*
X179578000Y-109982000D02*
X179578000Y-106934000D01*
X181356000Y-111760000D02*
X179578000Y-109982000D01*
%TO.N,Net-(J4-Pin_1)*%
X181250000Y-115195000D02*
X180200000Y-115195000D01*
X180594000Y-109474000D02*
X180594000Y-110236000D01*
X181864000Y-114581000D02*
X181250000Y-115195000D01*
X181864000Y-111506000D02*
X181864000Y-114581000D01*
X180594000Y-110236000D02*
X181864000Y-111506000D01*
D55*
%TO.N,SIGNAL*%
X206882000Y-105282000D02*
X206882000Y-105826000D01*
X206248000Y-102362000D02*
X206248000Y-104648000D01*
X195326000Y-103124000D02*
X195326000Y-102108000D01*
X205232000Y-101346000D02*
X206248000Y-102362000D01*
X206248000Y-104648000D02*
X206882000Y-105282000D01*
X196088000Y-101346000D02*
X205232000Y-101346000D01*
X195326000Y-102108000D02*
X196088000Y-101346000D01*
%TO.N,Net-(U6-VDD)*%
X165504500Y-109577500D02*
X165504500Y-110714000D01*
X165504500Y-109370500D02*
X165608000Y-109474000D01*
X157480000Y-108712000D02*
X158146000Y-108046000D01*
X158146000Y-108046000D02*
X159496000Y-108046000D01*
X165608000Y-109474000D02*
X165504500Y-109577500D01*
X165504500Y-108204000D02*
X165504500Y-109370500D01*
%TD*%
%TA.AperFunction,Conductor*%
%TO.N,3.3V*%
G36*
X164080832Y-107715685D02*
G01*
X164120122Y-107756203D01*
X164828329Y-108936548D01*
X164846000Y-109000345D01*
X164846000Y-109604000D01*
X164826315Y-109671039D01*
X164773511Y-109716794D01*
X164722000Y-109728000D01*
X163192000Y-109728000D01*
X163124961Y-109708315D01*
X163079206Y-109655511D01*
X163068000Y-109604000D01*
X163068000Y-107850451D01*
X163087685Y-107783412D01*
X163104319Y-107762770D01*
X163134770Y-107732319D01*
X163196093Y-107698834D01*
X163222451Y-107696000D01*
X164013793Y-107696000D01*
X164080832Y-107715685D01*
G37*
%TD.AperFunction*%
%TD*%
%TA.AperFunction,Conductor*%
%TO.N,GND*%
G36*
X164027039Y-114319685D02*
G01*
X164072794Y-114372489D01*
X164084000Y-114424000D01*
X164084000Y-122304000D01*
X164064315Y-122371039D01*
X164011511Y-122416794D01*
X163960000Y-122428000D01*
X161668000Y-122428000D01*
X161600961Y-122408315D01*
X161555206Y-122355511D01*
X161544000Y-122304000D01*
X161544000Y-114424000D01*
X161563685Y-114356961D01*
X161616489Y-114311206D01*
X161668000Y-114300000D01*
X163960000Y-114300000D01*
X164027039Y-114319685D01*
G37*
%TD.AperFunction*%
%TD*%
%TA.AperFunction,Conductor*%
%TO.N,3.3V*%
G36*
X192336694Y-121752306D02*
G01*
X192355000Y-121796500D01*
X192355000Y-126243500D01*
X192336694Y-126287694D01*
X192292500Y-126306000D01*
X192278000Y-126306000D01*
X192278000Y-125730000D01*
X189992000Y-125730000D01*
X189992000Y-126306000D01*
X188099500Y-126306000D01*
X188055306Y-126287694D01*
X188037000Y-126243500D01*
X188037000Y-123280628D01*
X188051485Y-123240617D01*
X189288260Y-121756488D01*
X189330616Y-121734257D01*
X189336274Y-121734000D01*
X192292500Y-121734000D01*
X192336694Y-121752306D01*
G37*
%TD.AperFunction*%
%TD*%
%TA.AperFunction,Conductor*%
%TO.N,VBUS*%
G36*
X206517383Y-98814486D02*
G01*
X208277512Y-100281260D01*
X208299743Y-100323616D01*
X208300000Y-100329274D01*
X208300000Y-104337500D01*
X208281694Y-104381694D01*
X208237500Y-104400000D01*
X206962500Y-104400000D01*
X206918306Y-104381694D01*
X206900000Y-104337500D01*
X206900000Y-100800000D01*
X206100000Y-100100000D01*
X203562500Y-100100000D01*
X203518306Y-100081694D01*
X203500000Y-100037500D01*
X203500000Y-98862500D01*
X203518306Y-98818306D01*
X203562500Y-98800000D01*
X206477371Y-98800000D01*
X206517383Y-98814486D01*
G37*
%TD.AperFunction*%
%TD*%
%TA.AperFunction,Conductor*%
%TO.N,GND*%
G36*
X150311039Y-116097685D02*
G01*
X150356794Y-116150489D01*
X150368000Y-116202000D01*
X150368000Y-118494000D01*
X150348315Y-118561039D01*
X150295511Y-118606794D01*
X150244000Y-118618000D01*
X147190000Y-118618000D01*
X147122961Y-118598315D01*
X147077206Y-118545511D01*
X147066000Y-118494000D01*
X147066000Y-116202000D01*
X147085685Y-116134961D01*
X147138489Y-116089206D01*
X147190000Y-116078000D01*
X150244000Y-116078000D01*
X150311039Y-116097685D01*
G37*
%TD.AperFunction*%
%TD*%
%TA.AperFunction,Conductor*%
%TO.N,GND*%
G36*
X160217039Y-115081685D02*
G01*
X160262794Y-115134489D01*
X160274000Y-115186000D01*
X160274000Y-117478000D01*
X160254315Y-117545039D01*
X160201511Y-117590794D01*
X160150000Y-117602000D01*
X157858000Y-117602000D01*
X157790961Y-117582315D01*
X157745206Y-117529511D01*
X157734000Y-117478000D01*
X157734000Y-115186000D01*
X157753685Y-115118961D01*
X157806489Y-115073206D01*
X157858000Y-115062000D01*
X160150000Y-115062000D01*
X160217039Y-115081685D01*
G37*
%TD.AperFunction*%
%TD*%
%TA.AperFunction,Conductor*%
%TO.N,5V*%
G36*
X164535039Y-110255685D02*
G01*
X164580794Y-110308489D01*
X164592000Y-110360000D01*
X164592000Y-111760000D01*
X164751500Y-111972666D01*
X165353999Y-112776000D01*
X165354000Y-112776000D01*
X166246000Y-112776000D01*
X166313039Y-112795685D01*
X166358794Y-112848489D01*
X166370000Y-112900000D01*
X166370000Y-114046000D01*
X164846000Y-114046000D01*
X163346800Y-112047066D01*
X163322324Y-111981624D01*
X163322000Y-111972666D01*
X163322000Y-110360000D01*
X163341685Y-110292961D01*
X163394489Y-110247206D01*
X163446000Y-110236000D01*
X164468000Y-110236000D01*
X164535039Y-110255685D01*
G37*
%TD.AperFunction*%
%TD*%
%TA.AperFunction,Conductor*%
%TO.N,GND*%
G36*
X214779306Y-120482306D02*
G01*
X214942694Y-120645694D01*
X214961000Y-120689888D01*
X214961000Y-122524112D01*
X214942694Y-122568306D01*
X214779306Y-122731694D01*
X214735112Y-122750000D01*
X214453000Y-122750000D01*
X213408888Y-122750000D01*
X213364694Y-122731694D01*
X213201306Y-122568306D01*
X213183000Y-122524112D01*
X213183000Y-121683834D01*
X213183468Y-121676198D01*
X213231040Y-121289763D01*
X213232433Y-121282263D01*
X213383276Y-120678893D01*
X213405446Y-120644792D01*
X213620046Y-120477236D01*
X213658509Y-120464000D01*
X214735112Y-120464000D01*
X214779306Y-120482306D01*
G37*
%TD.AperFunction*%
%TD*%
%TA.AperFunction,Conductor*%
%TO.N,GND*%
G36*
X209389926Y-112603165D02*
G01*
X211634871Y-114349233D01*
X211658517Y-114390816D01*
X211659000Y-114398568D01*
X211659000Y-116146000D01*
X212905543Y-117143234D01*
X212928618Y-117185136D01*
X212929000Y-117192038D01*
X212929000Y-120909500D01*
X212910694Y-120953694D01*
X212866500Y-120972000D01*
X211467500Y-120972000D01*
X211423306Y-120953694D01*
X211405000Y-120909500D01*
X211405000Y-119448001D01*
X211405000Y-119448000D01*
X211151000Y-118940000D01*
X211150999Y-118940000D01*
X208611000Y-118940000D01*
X208611000Y-116146000D01*
X208361782Y-112656952D01*
X208376892Y-112611567D01*
X208419670Y-112590159D01*
X208424123Y-112590000D01*
X209351555Y-112590000D01*
X209389926Y-112603165D01*
G37*
%TD.AperFunction*%
%TD*%
%TA.AperFunction,Conductor*%
%TO.N,GND*%
G36*
X200755306Y-124546306D02*
G01*
X201226694Y-125017694D01*
X201245000Y-125061888D01*
X201245000Y-127005500D01*
X201226694Y-127049694D01*
X201182500Y-127068000D01*
X196989500Y-127068000D01*
X196945306Y-127049694D01*
X196927000Y-127005500D01*
X196927000Y-124590500D01*
X196945306Y-124546306D01*
X196989500Y-124528000D01*
X200711112Y-124528000D01*
X200755306Y-124546306D01*
G37*
%TD.AperFunction*%
%TD*%
%TA.AperFunction,Conductor*%
%TO.N,5V*%
G36*
X197407399Y-110059433D02*
G01*
X200229000Y-110177000D01*
X203052065Y-110294627D01*
X203094567Y-110313808D01*
X203259605Y-110485865D01*
X203277000Y-110529130D01*
X203277000Y-121480000D01*
X203431789Y-121606645D01*
X203431790Y-121606647D01*
X203431792Y-121606650D01*
X205916204Y-123639349D01*
X206071000Y-123766000D01*
X208639112Y-123766000D01*
X208683306Y-123784306D01*
X208846694Y-123947694D01*
X208865000Y-123991888D01*
X208865000Y-125064112D01*
X208846694Y-125108306D01*
X208683306Y-125271694D01*
X208639112Y-125290000D01*
X202979821Y-125290000D01*
X202958809Y-125286362D01*
X202624398Y-125166989D01*
X202605833Y-125156499D01*
X202546930Y-125108306D01*
X200751538Y-123639349D01*
X197867888Y-121279999D01*
X197346670Y-120853548D01*
X197329770Y-120831942D01*
X197187021Y-120530705D01*
X197181000Y-120503941D01*
X197181000Y-110276653D01*
X197199306Y-110232459D01*
X197200199Y-110231583D01*
X197361591Y-110076775D01*
X197406156Y-110059395D01*
X197407399Y-110059433D01*
G37*
%TD.AperFunction*%
%TD*%
%TA.AperFunction,Conductor*%
%TO.N,5V*%
G36*
X164846000Y-114046000D02*
G01*
X166370000Y-114046000D01*
X166370000Y-115954000D01*
X166350315Y-116021039D01*
X166297511Y-116066794D01*
X166246000Y-116078000D01*
X164716000Y-116078000D01*
X164648961Y-116058315D01*
X164603206Y-116005511D01*
X164592000Y-115954000D01*
X164592000Y-113707333D01*
X164846000Y-114046000D01*
G37*
%TD.AperFunction*%
%TD*%
%TA.AperFunction,Conductor*%
%TO.N,GND*%
G36*
X181299039Y-120669685D02*
G01*
X181344794Y-120722489D01*
X181356000Y-120774000D01*
X181356000Y-121636728D01*
X181342909Y-121692182D01*
X181110999Y-122156002D01*
X181087771Y-122188229D01*
X180848000Y-122427999D01*
X180848000Y-122906728D01*
X180834909Y-122962182D01*
X180630245Y-123371511D01*
X180628273Y-123375454D01*
X180580686Y-123426613D01*
X180517364Y-123444000D01*
X180464000Y-123444000D01*
X180396961Y-123424315D01*
X180351206Y-123371511D01*
X180340000Y-123320000D01*
X180340000Y-122479362D01*
X180359685Y-122412323D01*
X180376319Y-122391681D01*
X180594000Y-122174000D01*
X180594000Y-120774000D01*
X180613685Y-120706961D01*
X180666489Y-120661206D01*
X180718000Y-120650000D01*
X181232000Y-120650000D01*
X181299039Y-120669685D01*
G37*
%TD.AperFunction*%
%TD*%
%TA.AperFunction,Conductor*%
%TO.N,GND*%
G36*
X213881694Y-100118306D02*
G01*
X213900000Y-100162500D01*
X213900000Y-104637500D01*
X213881694Y-104681694D01*
X213837500Y-104700000D01*
X210662500Y-104700000D01*
X210618306Y-104681694D01*
X210600000Y-104637500D01*
X210600000Y-100162500D01*
X210618306Y-100118306D01*
X210662500Y-100100000D01*
X213837500Y-100100000D01*
X213881694Y-100118306D01*
G37*
%TD.AperFunction*%
%TD*%
%TA.AperFunction,Conductor*%
%TO.N,Net-(D2-K)*%
G36*
X210394567Y-107274306D02*
G01*
X210406273Y-107290546D01*
X210643000Y-107764000D01*
X213120500Y-107764000D01*
X213164694Y-107782306D01*
X213183000Y-107826500D01*
X213183000Y-116083500D01*
X213164694Y-116127694D01*
X213120500Y-116146000D01*
X211975500Y-116146000D01*
X211931306Y-116127694D01*
X211913000Y-116083500D01*
X211913000Y-114114000D01*
X209144739Y-112100719D01*
X209119765Y-112059921D01*
X209119000Y-112050173D01*
X209119000Y-110557999D01*
X207849000Y-108272000D01*
X201053500Y-108272000D01*
X201009306Y-108253694D01*
X200991000Y-108209500D01*
X200991000Y-107318500D01*
X201009306Y-107274306D01*
X201053500Y-107256000D01*
X210350373Y-107256000D01*
X210394567Y-107274306D01*
G37*
%TD.AperFunction*%
%TD*%
%TA.AperFunction,Conductor*%
%TO.N,GND*%
G36*
X159455039Y-100095685D02*
G01*
X159500794Y-100148489D01*
X159512000Y-100200000D01*
X159512000Y-101730000D01*
X159492315Y-101797039D01*
X159439511Y-101842794D01*
X159388000Y-101854000D01*
X147444000Y-101854000D01*
X147376961Y-101834315D01*
X147331206Y-101781511D01*
X147320000Y-101730000D01*
X147320000Y-100200000D01*
X147339685Y-100132961D01*
X147392489Y-100087206D01*
X147444000Y-100076000D01*
X159388000Y-100076000D01*
X159455039Y-100095685D01*
G37*
%TD.AperFunction*%
%TD*%
%TA.AperFunction,Conductor*%
%TO.N,3.3V*%
G36*
X170957677Y-122701685D02*
G01*
X170978319Y-122718319D01*
X171413681Y-123153681D01*
X171447166Y-123215004D01*
X171450000Y-123241362D01*
X171450000Y-125984000D01*
X172466000Y-127000000D01*
X172466000Y-128270000D01*
X171066000Y-128270000D01*
X170998961Y-128250315D01*
X170953206Y-128197511D01*
X170942000Y-128146000D01*
X170942000Y-127000000D01*
X170216319Y-126274319D01*
X170182834Y-126212996D01*
X170180000Y-126186638D01*
X170180000Y-122806000D01*
X170199685Y-122738961D01*
X170252489Y-122693206D01*
X170304000Y-122682000D01*
X170890638Y-122682000D01*
X170957677Y-122701685D01*
G37*
%TD.AperFunction*%
%TD*%
%TA.AperFunction,Conductor*%
%TO.N,GND*%
G36*
X207184482Y-113610758D02*
G01*
X207187295Y-113611923D01*
X207187299Y-113611923D01*
X207187301Y-113611924D01*
X207324998Y-113630052D01*
X207325000Y-113630052D01*
X207325002Y-113630052D01*
X207462698Y-113611924D01*
X207462698Y-113611923D01*
X207462705Y-113611923D01*
X207465518Y-113610758D01*
X207489436Y-113606000D01*
X208229570Y-113606000D01*
X208229571Y-113606000D01*
X208429571Y-113606000D01*
X208611000Y-116146000D01*
X208611000Y-118432000D01*
X208611000Y-119140000D01*
X208611000Y-120746112D01*
X208592694Y-120790306D01*
X208429306Y-120953694D01*
X208385112Y-120972000D01*
X205788888Y-120972000D01*
X205744694Y-120953694D01*
X205581306Y-120790306D01*
X205563000Y-120746112D01*
X205563000Y-113831888D01*
X205581306Y-113787694D01*
X205744694Y-113624306D01*
X205788888Y-113606000D01*
X207160564Y-113606000D01*
X207184482Y-113610758D01*
G37*
%TD.AperFunction*%
%TD*%
%TA.AperFunction,Conductor*%
%TO.N,3.3V*%
G36*
X167329039Y-117113685D02*
G01*
X167374794Y-117166489D01*
X167386000Y-117218000D01*
X167386000Y-121796000D01*
X167366315Y-121863039D01*
X167313511Y-121908794D01*
X167262000Y-121920000D01*
X165224000Y-121920000D01*
X165156961Y-121900315D01*
X165111206Y-121847511D01*
X165100000Y-121796000D01*
X165100000Y-117218000D01*
X165119685Y-117150961D01*
X165172489Y-117105206D01*
X165224000Y-117094000D01*
X167262000Y-117094000D01*
X167329039Y-117113685D01*
G37*
%TD.AperFunction*%
%TD*%
%TA.AperFunction,Conductor*%
%TO.N,3.3V*%
G36*
X192278000Y-126306000D02*
G01*
X192278000Y-128146000D01*
X192258315Y-128213039D01*
X192205511Y-128258794D01*
X192154000Y-128270000D01*
X182165449Y-128270000D01*
X182098505Y-128250342D01*
X182051126Y-128269416D01*
X182039103Y-128270000D01*
X172466000Y-128270000D01*
X172466000Y-127000000D01*
X172726500Y-127000000D01*
X172793539Y-127019685D01*
X172839294Y-127072489D01*
X172850500Y-127124000D01*
X172850500Y-127425485D01*
X172856791Y-127475275D01*
X172865384Y-127543293D01*
X172895290Y-127618827D01*
X172923746Y-127690702D01*
X172923747Y-127690703D01*
X173016937Y-127818967D01*
X173139097Y-127920026D01*
X173139098Y-127920026D01*
X173139100Y-127920028D01*
X173210824Y-127953778D01*
X173282551Y-127987531D01*
X173438286Y-128017239D01*
X173596516Y-128007284D01*
X173747300Y-127958291D01*
X173881162Y-127873340D01*
X173989693Y-127757767D01*
X174066072Y-127618834D01*
X174105500Y-127465272D01*
X174105500Y-127124000D01*
X174125185Y-127056961D01*
X174177989Y-127011206D01*
X174229500Y-127000000D01*
X181366500Y-127000000D01*
X181433539Y-127019685D01*
X181479294Y-127072489D01*
X181490500Y-127124000D01*
X181490500Y-127435485D01*
X181502677Y-127531871D01*
X181505384Y-127553293D01*
X181535290Y-127628827D01*
X181563746Y-127700702D01*
X181563747Y-127700703D01*
X181656937Y-127828967D01*
X181779097Y-127930026D01*
X181779098Y-127930026D01*
X181779100Y-127930028D01*
X181850824Y-127963778D01*
X181922551Y-127997531D01*
X182062340Y-128024197D01*
X182102691Y-128044903D01*
X182130514Y-128027023D01*
X182157663Y-128022245D01*
X182236516Y-128017284D01*
X182387300Y-127968291D01*
X182521162Y-127883340D01*
X182629693Y-127767767D01*
X182706072Y-127628834D01*
X182745500Y-127475272D01*
X182745500Y-127124000D01*
X182765185Y-127056961D01*
X182817989Y-127011206D01*
X182869500Y-127000000D01*
X189992000Y-127000000D01*
X189992000Y-126306000D01*
X189992000Y-125730000D01*
X192278000Y-125730000D01*
X192278000Y-126306000D01*
G37*
%TD.AperFunction*%
%TD*%
%TA.AperFunction,Conductor*%
%TO.N,GND*%
G36*
X186887039Y-124733685D02*
G01*
X186932794Y-124786489D01*
X186944000Y-124838000D01*
X186944000Y-126114000D01*
X186924315Y-126181039D01*
X186871511Y-126226794D01*
X186820000Y-126238000D01*
X185471362Y-126238000D01*
X185404323Y-126218315D01*
X185383681Y-126201681D01*
X185202319Y-126020319D01*
X185168834Y-125958996D01*
X185166000Y-125932638D01*
X185166000Y-125251272D01*
X185179091Y-125195818D01*
X185383756Y-124786489D01*
X185385727Y-124782546D01*
X185433314Y-124731387D01*
X185496636Y-124714000D01*
X186820000Y-124714000D01*
X186887039Y-124733685D01*
G37*
%TD.AperFunction*%
%TD*%
%TA.AperFunction,Conductor*%
%TO.N,GND*%
G36*
X175203039Y-120923685D02*
G01*
X175248794Y-120976489D01*
X175260000Y-121028000D01*
X175260000Y-122122638D01*
X175240315Y-122189677D01*
X175223681Y-122210319D01*
X175006000Y-122427999D01*
X175006000Y-123066000D01*
X174986315Y-123133039D01*
X174933511Y-123178794D01*
X174882000Y-123190000D01*
X174876000Y-123190000D01*
X174808961Y-123170315D01*
X174763206Y-123117511D01*
X174752000Y-123066000D01*
X174752000Y-122428000D01*
X174280319Y-121956319D01*
X174246834Y-121894996D01*
X174244000Y-121868638D01*
X174244000Y-121028000D01*
X174263685Y-120960961D01*
X174316489Y-120915206D01*
X174368000Y-120904000D01*
X175136000Y-120904000D01*
X175203039Y-120923685D01*
G37*
%TD.AperFunction*%
%TD*%
M02*
