M48
; DRILL file {KiCad 7.0.10-7.0.10~ubuntu22.04.1} date Wed 14 Aug 2024 07:23:41 AM CDT
; FORMAT={-:-/ absolute / inch / decimal}
; #@! TF.CreationDate,2024-08-14T07:23:41-05:00
; #@! TF.GenerationSoftware,Kicad,Pcbnew,7.0.10-7.0.10~ubuntu22.04.1
; #@! TF.FileFunction,Plated,1,2,PTH
FMAT,2
INCH
; #@! TA.AperFunction,Plated,PTH,ViaDrill
T1C0.0157
; #@! TA.AperFunction,Plated,PTH,ComponentDrill
T2C0.0197
; #@! TA.AperFunction,Plated,PTH,ComponentDrill
T3C0.0236
; #@! TA.AperFunction,Plated,PTH,ComponentDrill
T4C0.0394
%
G90
G05
T1
X5.87Y-4.65
X5.98Y-3.98
X6.12Y-3.98
X6.2Y-4.28
X6.29Y-4.61
X6.33Y-4.04
X6.35Y-4.14
X6.38Y-4.52
X6.38Y-4.58
X6.38Y-4.64
X6.38Y-4.71
X6.38Y-4.78
X6.46Y-4.3
X6.5Y-4.48
X6.52Y-4.31
X6.54Y-4.48
X6.57Y-4.78
X6.62Y-4.46
X6.71Y-4.84
X6.72Y-4.55
X6.77Y-4.35
X6.87Y-4.76
X6.94Y-3.97
X6.99Y-4.62
X7.0826Y-4.0161
X7.14Y-4.76
X7.15Y-4.57
X7.1866Y-4.0257
X7.31Y-4.94
X7.38Y-4.1
X7.4051Y-4.51
X7.4465Y-4.51
X7.4993Y-4.6756
X7.4993Y-4.717
X7.78Y-4.48
X7.78Y-4.52
X7.83Y-4.48
X7.83Y-4.52
X7.88Y-4.48
X7.88Y-4.52
X7.9252Y-4.1142
X8.0276Y-3.8976
X8.0669Y-3.8976
X8.0866Y-3.9291
X8.1063Y-3.8976
X8.113Y-4.6127
X8.126Y-3.9449
X8.1417Y-3.9094
X8.153Y-4.6127
X8.153Y-4.6627
X8.153Y-4.7127
X8.1535Y-3.9724
X8.1624Y-4.4527
X8.1772Y-3.937
X8.193Y-4.6127
X8.193Y-4.6627
X8.1969Y-3.9724
X8.243Y-4.6627
X8.293Y-4.6127
X8.311Y-3.9646
X8.323Y-4.6427
X8.333Y-4.6027
X8.343Y-4.7127
X8.3504Y-3.9646
X8.3504Y-4.0079
X8.3504Y-4.0512
X8.3504Y-4.0984
X8.363Y-4.6427
X8.3937Y-3.9646
X8.3937Y-4.0079
X8.3937Y-4.0512
X8.3937Y-4.0984
X8.413Y-4.8127
X8.433Y-4.6827
T2
X7.11Y-4.19
X7.11Y-4.31
X7.31Y-4.19
X7.31Y-4.31
T4
X7.59Y-4.06
X7.69Y-4.06
X7.79Y-4.06
T2
G00X6.9961Y-3.9827
M15
G01X6.9961Y-3.9433
M16
G05
G00X7.2835Y-3.9827
M15
G01X7.2835Y-3.9433
M16
G05
T3
G00X6.8298Y-4.964
M15
G01X6.8298Y-5.0152
M16
G05
G00X6.8302Y-4.7916
M15
G01X6.8302Y-4.8309
M16
G05
G00X6.8302Y-4.8309
M15
G01X6.8539Y-4.8309
M16
G05
G00X7.1464Y-4.8309
M15
G01X7.17Y-4.8309
M16
G05
G00X7.17Y-4.7916
M15
G01X7.17Y-4.8309
M16
G05
G00X7.17Y-4.9644
M15
G01X7.17Y-5.0156
M16
G05
M30
