%TF.GenerationSoftware,KiCad,Pcbnew,7.0.10-7.0.10~ubuntu22.04.1*%
%TF.CreationDate,2024-08-14T07:23:37-05:00*%
%TF.ProjectId,MicroSDV2,4d696372-6f53-4445-9632-2e6b69636164,rev?*%
%TF.SameCoordinates,Original*%
%TF.FileFunction,Copper,L2,Bot*%
%TF.FilePolarity,Positive*%
%FSLAX46Y46*%
G04 Gerber Fmt 4.6, Leading zero omitted, Abs format (unit mm)*
G04 Created by KiCad (PCBNEW 7.0.10-7.0.10~ubuntu22.04.1) date 2024-08-14 07:23:37*
%MOMM*%
%LPD*%
G01*
G04 APERTURE LIST*
%ADD10C,0.100000*%
%ADD11C,0.150000*%
%ADD12C,0.300000*%
%ADD13C,0.400000*%
%TA.AperFunction,ComponentPad*%
%ADD14R,1.700000X1.700000*%
%TD*%
%TA.AperFunction,ComponentPad*%
%ADD15O,1.700000X1.700000*%
%TD*%
%TA.AperFunction,ComponentPad*%
%ADD16R,0.850000X0.850000*%
%TD*%
%TA.AperFunction,ComponentPad*%
%ADD17O,1.000000X2.300000*%
%TD*%
%TA.AperFunction,ComponentPad*%
%ADD18O,1.000000X2.000000*%
%TD*%
%TA.AperFunction,ComponentPad*%
%ADD19O,1.540000X1.000000*%
%TD*%
%TA.AperFunction,ViaPad*%
%ADD20C,0.800000*%
%TD*%
%TA.AperFunction,Conductor*%
%ADD21C,0.250000*%
%TD*%
%TA.AperFunction,Conductor*%
%ADD22C,0.350000*%
%TD*%
%TA.AperFunction,Conductor*%
%ADD23C,0.500000*%
%TD*%
%TA.AperFunction,Conductor*%
%ADD24C,0.200000*%
%TD*%
G04 APERTURE END LIST*
D10*
D11*
X177002200Y-166007200D02*
X285002200Y-166007200D01*
X285002200Y-198007200D01*
X177002200Y-198007200D01*
X177002200Y-166007200D01*
D10*
D11*
X10000000Y-10000000D02*
X287002200Y-10000000D01*
X287002200Y-200007200D01*
X10000000Y-200007200D01*
X10000000Y-10000000D01*
D10*
D11*
X12000000Y-12000000D02*
X285002200Y-12000000D01*
X285002200Y-198007200D01*
X12000000Y-198007200D01*
X12000000Y-12000000D01*
D10*
D11*
X60000000Y-12000000D02*
X60000000Y-10000000D01*
D10*
D11*
X110000000Y-12000000D02*
X110000000Y-10000000D01*
D10*
D11*
X160000000Y-12000000D02*
X160000000Y-10000000D01*
D10*
D11*
X210000000Y-12000000D02*
X210000000Y-10000000D01*
D10*
D11*
X260000000Y-12000000D02*
X260000000Y-10000000D01*
D10*
D11*
X36089160Y-11593604D02*
X35346303Y-11593604D01*
X35717731Y-11593604D02*
X35717731Y-10293604D01*
X35717731Y-10293604D02*
X35593922Y-10479319D01*
X35593922Y-10479319D02*
X35470112Y-10603128D01*
X35470112Y-10603128D02*
X35346303Y-10665033D01*
D10*
D11*
X85346303Y-10417414D02*
X85408207Y-10355509D01*
X85408207Y-10355509D02*
X85532017Y-10293604D01*
X85532017Y-10293604D02*
X85841541Y-10293604D01*
X85841541Y-10293604D02*
X85965350Y-10355509D01*
X85965350Y-10355509D02*
X86027255Y-10417414D01*
X86027255Y-10417414D02*
X86089160Y-10541223D01*
X86089160Y-10541223D02*
X86089160Y-10665033D01*
X86089160Y-10665033D02*
X86027255Y-10850747D01*
X86027255Y-10850747D02*
X85284398Y-11593604D01*
X85284398Y-11593604D02*
X86089160Y-11593604D01*
D10*
D11*
X135284398Y-10293604D02*
X136089160Y-10293604D01*
X136089160Y-10293604D02*
X135655826Y-10788842D01*
X135655826Y-10788842D02*
X135841541Y-10788842D01*
X135841541Y-10788842D02*
X135965350Y-10850747D01*
X135965350Y-10850747D02*
X136027255Y-10912652D01*
X136027255Y-10912652D02*
X136089160Y-11036461D01*
X136089160Y-11036461D02*
X136089160Y-11345985D01*
X136089160Y-11345985D02*
X136027255Y-11469795D01*
X136027255Y-11469795D02*
X135965350Y-11531700D01*
X135965350Y-11531700D02*
X135841541Y-11593604D01*
X135841541Y-11593604D02*
X135470112Y-11593604D01*
X135470112Y-11593604D02*
X135346303Y-11531700D01*
X135346303Y-11531700D02*
X135284398Y-11469795D01*
D10*
D11*
X185965350Y-10726938D02*
X185965350Y-11593604D01*
X185655826Y-10231700D02*
X185346303Y-11160271D01*
X185346303Y-11160271D02*
X186151064Y-11160271D01*
D10*
D11*
X236027255Y-10293604D02*
X235408207Y-10293604D01*
X235408207Y-10293604D02*
X235346303Y-10912652D01*
X235346303Y-10912652D02*
X235408207Y-10850747D01*
X235408207Y-10850747D02*
X235532017Y-10788842D01*
X235532017Y-10788842D02*
X235841541Y-10788842D01*
X235841541Y-10788842D02*
X235965350Y-10850747D01*
X235965350Y-10850747D02*
X236027255Y-10912652D01*
X236027255Y-10912652D02*
X236089160Y-11036461D01*
X236089160Y-11036461D02*
X236089160Y-11345985D01*
X236089160Y-11345985D02*
X236027255Y-11469795D01*
X236027255Y-11469795D02*
X235965350Y-11531700D01*
X235965350Y-11531700D02*
X235841541Y-11593604D01*
X235841541Y-11593604D02*
X235532017Y-11593604D01*
X235532017Y-11593604D02*
X235408207Y-11531700D01*
X235408207Y-11531700D02*
X235346303Y-11469795D01*
D10*
D11*
X285965350Y-10293604D02*
X285717731Y-10293604D01*
X285717731Y-10293604D02*
X285593922Y-10355509D01*
X285593922Y-10355509D02*
X285532017Y-10417414D01*
X285532017Y-10417414D02*
X285408207Y-10603128D01*
X285408207Y-10603128D02*
X285346303Y-10850747D01*
X285346303Y-10850747D02*
X285346303Y-11345985D01*
X285346303Y-11345985D02*
X285408207Y-11469795D01*
X285408207Y-11469795D02*
X285470112Y-11531700D01*
X285470112Y-11531700D02*
X285593922Y-11593604D01*
X285593922Y-11593604D02*
X285841541Y-11593604D01*
X285841541Y-11593604D02*
X285965350Y-11531700D01*
X285965350Y-11531700D02*
X286027255Y-11469795D01*
X286027255Y-11469795D02*
X286089160Y-11345985D01*
X286089160Y-11345985D02*
X286089160Y-11036461D01*
X286089160Y-11036461D02*
X286027255Y-10912652D01*
X286027255Y-10912652D02*
X285965350Y-10850747D01*
X285965350Y-10850747D02*
X285841541Y-10788842D01*
X285841541Y-10788842D02*
X285593922Y-10788842D01*
X285593922Y-10788842D02*
X285470112Y-10850747D01*
X285470112Y-10850747D02*
X285408207Y-10912652D01*
X285408207Y-10912652D02*
X285346303Y-11036461D01*
D10*
D11*
X60000000Y-198007200D02*
X60000000Y-200007200D01*
D10*
D11*
X110000000Y-198007200D02*
X110000000Y-200007200D01*
D10*
D11*
X160000000Y-198007200D02*
X160000000Y-200007200D01*
D10*
D11*
X210000000Y-198007200D02*
X210000000Y-200007200D01*
D10*
D11*
X260000000Y-198007200D02*
X260000000Y-200007200D01*
D10*
D11*
X36089160Y-199600804D02*
X35346303Y-199600804D01*
X35717731Y-199600804D02*
X35717731Y-198300804D01*
X35717731Y-198300804D02*
X35593922Y-198486519D01*
X35593922Y-198486519D02*
X35470112Y-198610328D01*
X35470112Y-198610328D02*
X35346303Y-198672233D01*
D10*
D11*
X85346303Y-198424614D02*
X85408207Y-198362709D01*
X85408207Y-198362709D02*
X85532017Y-198300804D01*
X85532017Y-198300804D02*
X85841541Y-198300804D01*
X85841541Y-198300804D02*
X85965350Y-198362709D01*
X85965350Y-198362709D02*
X86027255Y-198424614D01*
X86027255Y-198424614D02*
X86089160Y-198548423D01*
X86089160Y-198548423D02*
X86089160Y-198672233D01*
X86089160Y-198672233D02*
X86027255Y-198857947D01*
X86027255Y-198857947D02*
X85284398Y-199600804D01*
X85284398Y-199600804D02*
X86089160Y-199600804D01*
D10*
D11*
X135284398Y-198300804D02*
X136089160Y-198300804D01*
X136089160Y-198300804D02*
X135655826Y-198796042D01*
X135655826Y-198796042D02*
X135841541Y-198796042D01*
X135841541Y-198796042D02*
X135965350Y-198857947D01*
X135965350Y-198857947D02*
X136027255Y-198919852D01*
X136027255Y-198919852D02*
X136089160Y-199043661D01*
X136089160Y-199043661D02*
X136089160Y-199353185D01*
X136089160Y-199353185D02*
X136027255Y-199476995D01*
X136027255Y-199476995D02*
X135965350Y-199538900D01*
X135965350Y-199538900D02*
X135841541Y-199600804D01*
X135841541Y-199600804D02*
X135470112Y-199600804D01*
X135470112Y-199600804D02*
X135346303Y-199538900D01*
X135346303Y-199538900D02*
X135284398Y-199476995D01*
D10*
D11*
X185965350Y-198734138D02*
X185965350Y-199600804D01*
X185655826Y-198238900D02*
X185346303Y-199167471D01*
X185346303Y-199167471D02*
X186151064Y-199167471D01*
D10*
D11*
X236027255Y-198300804D02*
X235408207Y-198300804D01*
X235408207Y-198300804D02*
X235346303Y-198919852D01*
X235346303Y-198919852D02*
X235408207Y-198857947D01*
X235408207Y-198857947D02*
X235532017Y-198796042D01*
X235532017Y-198796042D02*
X235841541Y-198796042D01*
X235841541Y-198796042D02*
X235965350Y-198857947D01*
X235965350Y-198857947D02*
X236027255Y-198919852D01*
X236027255Y-198919852D02*
X236089160Y-199043661D01*
X236089160Y-199043661D02*
X236089160Y-199353185D01*
X236089160Y-199353185D02*
X236027255Y-199476995D01*
X236027255Y-199476995D02*
X235965350Y-199538900D01*
X235965350Y-199538900D02*
X235841541Y-199600804D01*
X235841541Y-199600804D02*
X235532017Y-199600804D01*
X235532017Y-199600804D02*
X235408207Y-199538900D01*
X235408207Y-199538900D02*
X235346303Y-199476995D01*
D10*
D11*
X285965350Y-198300804D02*
X285717731Y-198300804D01*
X285717731Y-198300804D02*
X285593922Y-198362709D01*
X285593922Y-198362709D02*
X285532017Y-198424614D01*
X285532017Y-198424614D02*
X285408207Y-198610328D01*
X285408207Y-198610328D02*
X285346303Y-198857947D01*
X285346303Y-198857947D02*
X285346303Y-199353185D01*
X285346303Y-199353185D02*
X285408207Y-199476995D01*
X285408207Y-199476995D02*
X285470112Y-199538900D01*
X285470112Y-199538900D02*
X285593922Y-199600804D01*
X285593922Y-199600804D02*
X285841541Y-199600804D01*
X285841541Y-199600804D02*
X285965350Y-199538900D01*
X285965350Y-199538900D02*
X286027255Y-199476995D01*
X286027255Y-199476995D02*
X286089160Y-199353185D01*
X286089160Y-199353185D02*
X286089160Y-199043661D01*
X286089160Y-199043661D02*
X286027255Y-198919852D01*
X286027255Y-198919852D02*
X285965350Y-198857947D01*
X285965350Y-198857947D02*
X285841541Y-198796042D01*
X285841541Y-198796042D02*
X285593922Y-198796042D01*
X285593922Y-198796042D02*
X285470112Y-198857947D01*
X285470112Y-198857947D02*
X285408207Y-198919852D01*
X285408207Y-198919852D02*
X285346303Y-199043661D01*
D10*
D11*
X10000000Y-60000000D02*
X12000000Y-60000000D01*
D10*
D11*
X10000000Y-110000000D02*
X12000000Y-110000000D01*
D10*
D11*
X10000000Y-160000000D02*
X12000000Y-160000000D01*
D10*
D11*
X10690476Y-35222176D02*
X11309523Y-35222176D01*
X10566666Y-35593604D02*
X10999999Y-34293604D01*
X10999999Y-34293604D02*
X11433333Y-35593604D01*
D10*
D11*
X11092857Y-84912652D02*
X11278571Y-84974557D01*
X11278571Y-84974557D02*
X11340476Y-85036461D01*
X11340476Y-85036461D02*
X11402380Y-85160271D01*
X11402380Y-85160271D02*
X11402380Y-85345985D01*
X11402380Y-85345985D02*
X11340476Y-85469795D01*
X11340476Y-85469795D02*
X11278571Y-85531700D01*
X11278571Y-85531700D02*
X11154761Y-85593604D01*
X11154761Y-85593604D02*
X10659523Y-85593604D01*
X10659523Y-85593604D02*
X10659523Y-84293604D01*
X10659523Y-84293604D02*
X11092857Y-84293604D01*
X11092857Y-84293604D02*
X11216666Y-84355509D01*
X11216666Y-84355509D02*
X11278571Y-84417414D01*
X11278571Y-84417414D02*
X11340476Y-84541223D01*
X11340476Y-84541223D02*
X11340476Y-84665033D01*
X11340476Y-84665033D02*
X11278571Y-84788842D01*
X11278571Y-84788842D02*
X11216666Y-84850747D01*
X11216666Y-84850747D02*
X11092857Y-84912652D01*
X11092857Y-84912652D02*
X10659523Y-84912652D01*
D10*
D11*
X11402380Y-135469795D02*
X11340476Y-135531700D01*
X11340476Y-135531700D02*
X11154761Y-135593604D01*
X11154761Y-135593604D02*
X11030952Y-135593604D01*
X11030952Y-135593604D02*
X10845238Y-135531700D01*
X10845238Y-135531700D02*
X10721428Y-135407890D01*
X10721428Y-135407890D02*
X10659523Y-135284080D01*
X10659523Y-135284080D02*
X10597619Y-135036461D01*
X10597619Y-135036461D02*
X10597619Y-134850747D01*
X10597619Y-134850747D02*
X10659523Y-134603128D01*
X10659523Y-134603128D02*
X10721428Y-134479319D01*
X10721428Y-134479319D02*
X10845238Y-134355509D01*
X10845238Y-134355509D02*
X11030952Y-134293604D01*
X11030952Y-134293604D02*
X11154761Y-134293604D01*
X11154761Y-134293604D02*
X11340476Y-134355509D01*
X11340476Y-134355509D02*
X11402380Y-134417414D01*
D10*
D11*
X10659523Y-185593604D02*
X10659523Y-184293604D01*
X10659523Y-184293604D02*
X10969047Y-184293604D01*
X10969047Y-184293604D02*
X11154761Y-184355509D01*
X11154761Y-184355509D02*
X11278571Y-184479319D01*
X11278571Y-184479319D02*
X11340476Y-184603128D01*
X11340476Y-184603128D02*
X11402380Y-184850747D01*
X11402380Y-184850747D02*
X11402380Y-185036461D01*
X11402380Y-185036461D02*
X11340476Y-185284080D01*
X11340476Y-185284080D02*
X11278571Y-185407890D01*
X11278571Y-185407890D02*
X11154761Y-185531700D01*
X11154761Y-185531700D02*
X10969047Y-185593604D01*
X10969047Y-185593604D02*
X10659523Y-185593604D01*
D10*
D11*
X287002200Y-60000000D02*
X285002200Y-60000000D01*
D10*
D11*
X287002200Y-110000000D02*
X285002200Y-110000000D01*
D10*
D11*
X287002200Y-160000000D02*
X285002200Y-160000000D01*
D10*
D11*
X285692676Y-35222176D02*
X286311723Y-35222176D01*
X285568866Y-35593604D02*
X286002199Y-34293604D01*
X286002199Y-34293604D02*
X286435533Y-35593604D01*
D10*
D11*
X286095057Y-84912652D02*
X286280771Y-84974557D01*
X286280771Y-84974557D02*
X286342676Y-85036461D01*
X286342676Y-85036461D02*
X286404580Y-85160271D01*
X286404580Y-85160271D02*
X286404580Y-85345985D01*
X286404580Y-85345985D02*
X286342676Y-85469795D01*
X286342676Y-85469795D02*
X286280771Y-85531700D01*
X286280771Y-85531700D02*
X286156961Y-85593604D01*
X286156961Y-85593604D02*
X285661723Y-85593604D01*
X285661723Y-85593604D02*
X285661723Y-84293604D01*
X285661723Y-84293604D02*
X286095057Y-84293604D01*
X286095057Y-84293604D02*
X286218866Y-84355509D01*
X286218866Y-84355509D02*
X286280771Y-84417414D01*
X286280771Y-84417414D02*
X286342676Y-84541223D01*
X286342676Y-84541223D02*
X286342676Y-84665033D01*
X286342676Y-84665033D02*
X286280771Y-84788842D01*
X286280771Y-84788842D02*
X286218866Y-84850747D01*
X286218866Y-84850747D02*
X286095057Y-84912652D01*
X286095057Y-84912652D02*
X285661723Y-84912652D01*
D10*
D11*
X286404580Y-135469795D02*
X286342676Y-135531700D01*
X286342676Y-135531700D02*
X286156961Y-135593604D01*
X286156961Y-135593604D02*
X286033152Y-135593604D01*
X286033152Y-135593604D02*
X285847438Y-135531700D01*
X285847438Y-135531700D02*
X285723628Y-135407890D01*
X285723628Y-135407890D02*
X285661723Y-135284080D01*
X285661723Y-135284080D02*
X285599819Y-135036461D01*
X285599819Y-135036461D02*
X285599819Y-134850747D01*
X285599819Y-134850747D02*
X285661723Y-134603128D01*
X285661723Y-134603128D02*
X285723628Y-134479319D01*
X285723628Y-134479319D02*
X285847438Y-134355509D01*
X285847438Y-134355509D02*
X286033152Y-134293604D01*
X286033152Y-134293604D02*
X286156961Y-134293604D01*
X286156961Y-134293604D02*
X286342676Y-134355509D01*
X286342676Y-134355509D02*
X286404580Y-134417414D01*
D10*
D11*
X285661723Y-185593604D02*
X285661723Y-184293604D01*
X285661723Y-184293604D02*
X285971247Y-184293604D01*
X285971247Y-184293604D02*
X286156961Y-184355509D01*
X286156961Y-184355509D02*
X286280771Y-184479319D01*
X286280771Y-184479319D02*
X286342676Y-184603128D01*
X286342676Y-184603128D02*
X286404580Y-184850747D01*
X286404580Y-184850747D02*
X286404580Y-185036461D01*
X286404580Y-185036461D02*
X286342676Y-185284080D01*
X286342676Y-185284080D02*
X286280771Y-185407890D01*
X286280771Y-185407890D02*
X286156961Y-185531700D01*
X286156961Y-185531700D02*
X285971247Y-185593604D01*
X285971247Y-185593604D02*
X285661723Y-185593604D01*
D10*
D11*
X200458026Y-193793328D02*
X200458026Y-192293328D01*
X200458026Y-192293328D02*
X200815169Y-192293328D01*
X200815169Y-192293328D02*
X201029455Y-192364757D01*
X201029455Y-192364757D02*
X201172312Y-192507614D01*
X201172312Y-192507614D02*
X201243741Y-192650471D01*
X201243741Y-192650471D02*
X201315169Y-192936185D01*
X201315169Y-192936185D02*
X201315169Y-193150471D01*
X201315169Y-193150471D02*
X201243741Y-193436185D01*
X201243741Y-193436185D02*
X201172312Y-193579042D01*
X201172312Y-193579042D02*
X201029455Y-193721900D01*
X201029455Y-193721900D02*
X200815169Y-193793328D01*
X200815169Y-193793328D02*
X200458026Y-193793328D01*
X202600884Y-193793328D02*
X202600884Y-193007614D01*
X202600884Y-193007614D02*
X202529455Y-192864757D01*
X202529455Y-192864757D02*
X202386598Y-192793328D01*
X202386598Y-192793328D02*
X202100884Y-192793328D01*
X202100884Y-192793328D02*
X201958026Y-192864757D01*
X202600884Y-193721900D02*
X202458026Y-193793328D01*
X202458026Y-193793328D02*
X202100884Y-193793328D01*
X202100884Y-193793328D02*
X201958026Y-193721900D01*
X201958026Y-193721900D02*
X201886598Y-193579042D01*
X201886598Y-193579042D02*
X201886598Y-193436185D01*
X201886598Y-193436185D02*
X201958026Y-193293328D01*
X201958026Y-193293328D02*
X202100884Y-193221900D01*
X202100884Y-193221900D02*
X202458026Y-193221900D01*
X202458026Y-193221900D02*
X202600884Y-193150471D01*
X203100884Y-192793328D02*
X203672312Y-192793328D01*
X203315169Y-192293328D02*
X203315169Y-193579042D01*
X203315169Y-193579042D02*
X203386598Y-193721900D01*
X203386598Y-193721900D02*
X203529455Y-193793328D01*
X203529455Y-193793328D02*
X203672312Y-193793328D01*
X204743741Y-193721900D02*
X204600884Y-193793328D01*
X204600884Y-193793328D02*
X204315170Y-193793328D01*
X204315170Y-193793328D02*
X204172312Y-193721900D01*
X204172312Y-193721900D02*
X204100884Y-193579042D01*
X204100884Y-193579042D02*
X204100884Y-193007614D01*
X204100884Y-193007614D02*
X204172312Y-192864757D01*
X204172312Y-192864757D02*
X204315170Y-192793328D01*
X204315170Y-192793328D02*
X204600884Y-192793328D01*
X204600884Y-192793328D02*
X204743741Y-192864757D01*
X204743741Y-192864757D02*
X204815170Y-193007614D01*
X204815170Y-193007614D02*
X204815170Y-193150471D01*
X204815170Y-193150471D02*
X204100884Y-193293328D01*
X205458026Y-193650471D02*
X205529455Y-193721900D01*
X205529455Y-193721900D02*
X205458026Y-193793328D01*
X205458026Y-193793328D02*
X205386598Y-193721900D01*
X205386598Y-193721900D02*
X205458026Y-193650471D01*
X205458026Y-193650471D02*
X205458026Y-193793328D01*
X205458026Y-192864757D02*
X205529455Y-192936185D01*
X205529455Y-192936185D02*
X205458026Y-193007614D01*
X205458026Y-193007614D02*
X205386598Y-192936185D01*
X205386598Y-192936185D02*
X205458026Y-192864757D01*
X205458026Y-192864757D02*
X205458026Y-193007614D01*
D10*
D11*
X177002200Y-194507200D02*
X285002200Y-194507200D01*
D10*
D11*
X178458026Y-196593328D02*
X178458026Y-195093328D01*
X179315169Y-196593328D02*
X178672312Y-195736185D01*
X179315169Y-195093328D02*
X178458026Y-195950471D01*
X179958026Y-196593328D02*
X179958026Y-195593328D01*
X179958026Y-195093328D02*
X179886598Y-195164757D01*
X179886598Y-195164757D02*
X179958026Y-195236185D01*
X179958026Y-195236185D02*
X180029455Y-195164757D01*
X180029455Y-195164757D02*
X179958026Y-195093328D01*
X179958026Y-195093328D02*
X179958026Y-195236185D01*
X181529455Y-196450471D02*
X181458027Y-196521900D01*
X181458027Y-196521900D02*
X181243741Y-196593328D01*
X181243741Y-196593328D02*
X181100884Y-196593328D01*
X181100884Y-196593328D02*
X180886598Y-196521900D01*
X180886598Y-196521900D02*
X180743741Y-196379042D01*
X180743741Y-196379042D02*
X180672312Y-196236185D01*
X180672312Y-196236185D02*
X180600884Y-195950471D01*
X180600884Y-195950471D02*
X180600884Y-195736185D01*
X180600884Y-195736185D02*
X180672312Y-195450471D01*
X180672312Y-195450471D02*
X180743741Y-195307614D01*
X180743741Y-195307614D02*
X180886598Y-195164757D01*
X180886598Y-195164757D02*
X181100884Y-195093328D01*
X181100884Y-195093328D02*
X181243741Y-195093328D01*
X181243741Y-195093328D02*
X181458027Y-195164757D01*
X181458027Y-195164757D02*
X181529455Y-195236185D01*
X182815170Y-196593328D02*
X182815170Y-195807614D01*
X182815170Y-195807614D02*
X182743741Y-195664757D01*
X182743741Y-195664757D02*
X182600884Y-195593328D01*
X182600884Y-195593328D02*
X182315170Y-195593328D01*
X182315170Y-195593328D02*
X182172312Y-195664757D01*
X182815170Y-196521900D02*
X182672312Y-196593328D01*
X182672312Y-196593328D02*
X182315170Y-196593328D01*
X182315170Y-196593328D02*
X182172312Y-196521900D01*
X182172312Y-196521900D02*
X182100884Y-196379042D01*
X182100884Y-196379042D02*
X182100884Y-196236185D01*
X182100884Y-196236185D02*
X182172312Y-196093328D01*
X182172312Y-196093328D02*
X182315170Y-196021900D01*
X182315170Y-196021900D02*
X182672312Y-196021900D01*
X182672312Y-196021900D02*
X182815170Y-195950471D01*
X184172313Y-196593328D02*
X184172313Y-195093328D01*
X184172313Y-196521900D02*
X184029455Y-196593328D01*
X184029455Y-196593328D02*
X183743741Y-196593328D01*
X183743741Y-196593328D02*
X183600884Y-196521900D01*
X183600884Y-196521900D02*
X183529455Y-196450471D01*
X183529455Y-196450471D02*
X183458027Y-196307614D01*
X183458027Y-196307614D02*
X183458027Y-195879042D01*
X183458027Y-195879042D02*
X183529455Y-195736185D01*
X183529455Y-195736185D02*
X183600884Y-195664757D01*
X183600884Y-195664757D02*
X183743741Y-195593328D01*
X183743741Y-195593328D02*
X184029455Y-195593328D01*
X184029455Y-195593328D02*
X184172313Y-195664757D01*
X186029455Y-195807614D02*
X186529455Y-195807614D01*
X186743741Y-196593328D02*
X186029455Y-196593328D01*
X186029455Y-196593328D02*
X186029455Y-195093328D01*
X186029455Y-195093328D02*
X186743741Y-195093328D01*
X187386598Y-196450471D02*
X187458027Y-196521900D01*
X187458027Y-196521900D02*
X187386598Y-196593328D01*
X187386598Y-196593328D02*
X187315170Y-196521900D01*
X187315170Y-196521900D02*
X187386598Y-196450471D01*
X187386598Y-196450471D02*
X187386598Y-196593328D01*
X188100884Y-196593328D02*
X188100884Y-195093328D01*
X188100884Y-195093328D02*
X188458027Y-195093328D01*
X188458027Y-195093328D02*
X188672313Y-195164757D01*
X188672313Y-195164757D02*
X188815170Y-195307614D01*
X188815170Y-195307614D02*
X188886599Y-195450471D01*
X188886599Y-195450471D02*
X188958027Y-195736185D01*
X188958027Y-195736185D02*
X188958027Y-195950471D01*
X188958027Y-195950471D02*
X188886599Y-196236185D01*
X188886599Y-196236185D02*
X188815170Y-196379042D01*
X188815170Y-196379042D02*
X188672313Y-196521900D01*
X188672313Y-196521900D02*
X188458027Y-196593328D01*
X188458027Y-196593328D02*
X188100884Y-196593328D01*
X189600884Y-196450471D02*
X189672313Y-196521900D01*
X189672313Y-196521900D02*
X189600884Y-196593328D01*
X189600884Y-196593328D02*
X189529456Y-196521900D01*
X189529456Y-196521900D02*
X189600884Y-196450471D01*
X189600884Y-196450471D02*
X189600884Y-196593328D01*
X190243742Y-196164757D02*
X190958028Y-196164757D01*
X190100885Y-196593328D02*
X190600885Y-195093328D01*
X190600885Y-195093328D02*
X191100885Y-196593328D01*
X191600884Y-196450471D02*
X191672313Y-196521900D01*
X191672313Y-196521900D02*
X191600884Y-196593328D01*
X191600884Y-196593328D02*
X191529456Y-196521900D01*
X191529456Y-196521900D02*
X191600884Y-196450471D01*
X191600884Y-196450471D02*
X191600884Y-196593328D01*
X194600884Y-196593328D02*
X194600884Y-195093328D01*
X194743742Y-196021900D02*
X195172313Y-196593328D01*
X195172313Y-195593328D02*
X194600884Y-196164757D01*
X195815170Y-196593328D02*
X195815170Y-195593328D01*
X195815170Y-195093328D02*
X195743742Y-195164757D01*
X195743742Y-195164757D02*
X195815170Y-195236185D01*
X195815170Y-195236185D02*
X195886599Y-195164757D01*
X195886599Y-195164757D02*
X195815170Y-195093328D01*
X195815170Y-195093328D02*
X195815170Y-195236185D01*
X197172314Y-196521900D02*
X197029456Y-196593328D01*
X197029456Y-196593328D02*
X196743742Y-196593328D01*
X196743742Y-196593328D02*
X196600885Y-196521900D01*
X196600885Y-196521900D02*
X196529456Y-196450471D01*
X196529456Y-196450471D02*
X196458028Y-196307614D01*
X196458028Y-196307614D02*
X196458028Y-195879042D01*
X196458028Y-195879042D02*
X196529456Y-195736185D01*
X196529456Y-195736185D02*
X196600885Y-195664757D01*
X196600885Y-195664757D02*
X196743742Y-195593328D01*
X196743742Y-195593328D02*
X197029456Y-195593328D01*
X197029456Y-195593328D02*
X197172314Y-195664757D01*
X198458028Y-196593328D02*
X198458028Y-195807614D01*
X198458028Y-195807614D02*
X198386599Y-195664757D01*
X198386599Y-195664757D02*
X198243742Y-195593328D01*
X198243742Y-195593328D02*
X197958028Y-195593328D01*
X197958028Y-195593328D02*
X197815170Y-195664757D01*
X198458028Y-196521900D02*
X198315170Y-196593328D01*
X198315170Y-196593328D02*
X197958028Y-196593328D01*
X197958028Y-196593328D02*
X197815170Y-196521900D01*
X197815170Y-196521900D02*
X197743742Y-196379042D01*
X197743742Y-196379042D02*
X197743742Y-196236185D01*
X197743742Y-196236185D02*
X197815170Y-196093328D01*
X197815170Y-196093328D02*
X197958028Y-196021900D01*
X197958028Y-196021900D02*
X198315170Y-196021900D01*
X198315170Y-196021900D02*
X198458028Y-195950471D01*
X199815171Y-196593328D02*
X199815171Y-195093328D01*
X199815171Y-196521900D02*
X199672313Y-196593328D01*
X199672313Y-196593328D02*
X199386599Y-196593328D01*
X199386599Y-196593328D02*
X199243742Y-196521900D01*
X199243742Y-196521900D02*
X199172313Y-196450471D01*
X199172313Y-196450471D02*
X199100885Y-196307614D01*
X199100885Y-196307614D02*
X199100885Y-195879042D01*
X199100885Y-195879042D02*
X199172313Y-195736185D01*
X199172313Y-195736185D02*
X199243742Y-195664757D01*
X199243742Y-195664757D02*
X199386599Y-195593328D01*
X199386599Y-195593328D02*
X199672313Y-195593328D01*
X199672313Y-195593328D02*
X199815171Y-195664757D01*
X201529456Y-195093328D02*
X202529456Y-195093328D01*
X202529456Y-195093328D02*
X201886599Y-196593328D01*
X203100884Y-196450471D02*
X203172313Y-196521900D01*
X203172313Y-196521900D02*
X203100884Y-196593328D01*
X203100884Y-196593328D02*
X203029456Y-196521900D01*
X203029456Y-196521900D02*
X203100884Y-196450471D01*
X203100884Y-196450471D02*
X203100884Y-196593328D01*
X204100885Y-195093328D02*
X204243742Y-195093328D01*
X204243742Y-195093328D02*
X204386599Y-195164757D01*
X204386599Y-195164757D02*
X204458028Y-195236185D01*
X204458028Y-195236185D02*
X204529456Y-195379042D01*
X204529456Y-195379042D02*
X204600885Y-195664757D01*
X204600885Y-195664757D02*
X204600885Y-196021900D01*
X204600885Y-196021900D02*
X204529456Y-196307614D01*
X204529456Y-196307614D02*
X204458028Y-196450471D01*
X204458028Y-196450471D02*
X204386599Y-196521900D01*
X204386599Y-196521900D02*
X204243742Y-196593328D01*
X204243742Y-196593328D02*
X204100885Y-196593328D01*
X204100885Y-196593328D02*
X203958028Y-196521900D01*
X203958028Y-196521900D02*
X203886599Y-196450471D01*
X203886599Y-196450471D02*
X203815170Y-196307614D01*
X203815170Y-196307614D02*
X203743742Y-196021900D01*
X203743742Y-196021900D02*
X203743742Y-195664757D01*
X203743742Y-195664757D02*
X203815170Y-195379042D01*
X203815170Y-195379042D02*
X203886599Y-195236185D01*
X203886599Y-195236185D02*
X203958028Y-195164757D01*
X203958028Y-195164757D02*
X204100885Y-195093328D01*
X205243741Y-196450471D02*
X205315170Y-196521900D01*
X205315170Y-196521900D02*
X205243741Y-196593328D01*
X205243741Y-196593328D02*
X205172313Y-196521900D01*
X205172313Y-196521900D02*
X205243741Y-196450471D01*
X205243741Y-196450471D02*
X205243741Y-196593328D01*
X206743742Y-196593328D02*
X205886599Y-196593328D01*
X206315170Y-196593328D02*
X206315170Y-195093328D01*
X206315170Y-195093328D02*
X206172313Y-195307614D01*
X206172313Y-195307614D02*
X206029456Y-195450471D01*
X206029456Y-195450471D02*
X205886599Y-195521900D01*
X207672313Y-195093328D02*
X207815170Y-195093328D01*
X207815170Y-195093328D02*
X207958027Y-195164757D01*
X207958027Y-195164757D02*
X208029456Y-195236185D01*
X208029456Y-195236185D02*
X208100884Y-195379042D01*
X208100884Y-195379042D02*
X208172313Y-195664757D01*
X208172313Y-195664757D02*
X208172313Y-196021900D01*
X208172313Y-196021900D02*
X208100884Y-196307614D01*
X208100884Y-196307614D02*
X208029456Y-196450471D01*
X208029456Y-196450471D02*
X207958027Y-196521900D01*
X207958027Y-196521900D02*
X207815170Y-196593328D01*
X207815170Y-196593328D02*
X207672313Y-196593328D01*
X207672313Y-196593328D02*
X207529456Y-196521900D01*
X207529456Y-196521900D02*
X207458027Y-196450471D01*
X207458027Y-196450471D02*
X207386598Y-196307614D01*
X207386598Y-196307614D02*
X207315170Y-196021900D01*
X207315170Y-196021900D02*
X207315170Y-195664757D01*
X207315170Y-195664757D02*
X207386598Y-195379042D01*
X207386598Y-195379042D02*
X207458027Y-195236185D01*
X207458027Y-195236185D02*
X207529456Y-195164757D01*
X207529456Y-195164757D02*
X207672313Y-195093328D01*
X208815169Y-196021900D02*
X209958027Y-196021900D01*
X210529455Y-195093328D02*
X211529455Y-195093328D01*
X211529455Y-195093328D02*
X210886598Y-196593328D01*
X212100883Y-196450471D02*
X212172312Y-196521900D01*
X212172312Y-196521900D02*
X212100883Y-196593328D01*
X212100883Y-196593328D02*
X212029455Y-196521900D01*
X212029455Y-196521900D02*
X212100883Y-196450471D01*
X212100883Y-196450471D02*
X212100883Y-196593328D01*
X213100884Y-195093328D02*
X213243741Y-195093328D01*
X213243741Y-195093328D02*
X213386598Y-195164757D01*
X213386598Y-195164757D02*
X213458027Y-195236185D01*
X213458027Y-195236185D02*
X213529455Y-195379042D01*
X213529455Y-195379042D02*
X213600884Y-195664757D01*
X213600884Y-195664757D02*
X213600884Y-196021900D01*
X213600884Y-196021900D02*
X213529455Y-196307614D01*
X213529455Y-196307614D02*
X213458027Y-196450471D01*
X213458027Y-196450471D02*
X213386598Y-196521900D01*
X213386598Y-196521900D02*
X213243741Y-196593328D01*
X213243741Y-196593328D02*
X213100884Y-196593328D01*
X213100884Y-196593328D02*
X212958027Y-196521900D01*
X212958027Y-196521900D02*
X212886598Y-196450471D01*
X212886598Y-196450471D02*
X212815169Y-196307614D01*
X212815169Y-196307614D02*
X212743741Y-196021900D01*
X212743741Y-196021900D02*
X212743741Y-195664757D01*
X212743741Y-195664757D02*
X212815169Y-195379042D01*
X212815169Y-195379042D02*
X212886598Y-195236185D01*
X212886598Y-195236185D02*
X212958027Y-195164757D01*
X212958027Y-195164757D02*
X213100884Y-195093328D01*
X214243740Y-196450471D02*
X214315169Y-196521900D01*
X214315169Y-196521900D02*
X214243740Y-196593328D01*
X214243740Y-196593328D02*
X214172312Y-196521900D01*
X214172312Y-196521900D02*
X214243740Y-196450471D01*
X214243740Y-196450471D02*
X214243740Y-196593328D01*
X215743741Y-196593328D02*
X214886598Y-196593328D01*
X215315169Y-196593328D02*
X215315169Y-195093328D01*
X215315169Y-195093328D02*
X215172312Y-195307614D01*
X215172312Y-195307614D02*
X215029455Y-195450471D01*
X215029455Y-195450471D02*
X214886598Y-195521900D01*
X216672312Y-195093328D02*
X216815169Y-195093328D01*
X216815169Y-195093328D02*
X216958026Y-195164757D01*
X216958026Y-195164757D02*
X217029455Y-195236185D01*
X217029455Y-195236185D02*
X217100883Y-195379042D01*
X217100883Y-195379042D02*
X217172312Y-195664757D01*
X217172312Y-195664757D02*
X217172312Y-196021900D01*
X217172312Y-196021900D02*
X217100883Y-196307614D01*
X217100883Y-196307614D02*
X217029455Y-196450471D01*
X217029455Y-196450471D02*
X216958026Y-196521900D01*
X216958026Y-196521900D02*
X216815169Y-196593328D01*
X216815169Y-196593328D02*
X216672312Y-196593328D01*
X216672312Y-196593328D02*
X216529455Y-196521900D01*
X216529455Y-196521900D02*
X216458026Y-196450471D01*
X216458026Y-196450471D02*
X216386597Y-196307614D01*
X216386597Y-196307614D02*
X216315169Y-196021900D01*
X216315169Y-196021900D02*
X216315169Y-195664757D01*
X216315169Y-195664757D02*
X216386597Y-195379042D01*
X216386597Y-195379042D02*
X216458026Y-195236185D01*
X216458026Y-195236185D02*
X216529455Y-195164757D01*
X216529455Y-195164757D02*
X216672312Y-195093328D01*
X217600883Y-196021900D02*
X217672311Y-195950471D01*
X217672311Y-195950471D02*
X217815168Y-195879042D01*
X217815168Y-195879042D02*
X218100883Y-196021900D01*
X218100883Y-196021900D02*
X218243740Y-195950471D01*
X218243740Y-195950471D02*
X218315168Y-195879042D01*
X219529455Y-195593328D02*
X219529455Y-196593328D01*
X218886597Y-195593328D02*
X218886597Y-196379042D01*
X218886597Y-196379042D02*
X218958026Y-196521900D01*
X218958026Y-196521900D02*
X219100883Y-196593328D01*
X219100883Y-196593328D02*
X219315169Y-196593328D01*
X219315169Y-196593328D02*
X219458026Y-196521900D01*
X219458026Y-196521900D02*
X219529455Y-196450471D01*
X220243740Y-196593328D02*
X220243740Y-195093328D01*
X220243740Y-195664757D02*
X220386598Y-195593328D01*
X220386598Y-195593328D02*
X220672312Y-195593328D01*
X220672312Y-195593328D02*
X220815169Y-195664757D01*
X220815169Y-195664757D02*
X220886598Y-195736185D01*
X220886598Y-195736185D02*
X220958026Y-195879042D01*
X220958026Y-195879042D02*
X220958026Y-196307614D01*
X220958026Y-196307614D02*
X220886598Y-196450471D01*
X220886598Y-196450471D02*
X220815169Y-196521900D01*
X220815169Y-196521900D02*
X220672312Y-196593328D01*
X220672312Y-196593328D02*
X220386598Y-196593328D01*
X220386598Y-196593328D02*
X220243740Y-196521900D01*
X222243741Y-195593328D02*
X222243741Y-196593328D01*
X221600883Y-195593328D02*
X221600883Y-196379042D01*
X221600883Y-196379042D02*
X221672312Y-196521900D01*
X221672312Y-196521900D02*
X221815169Y-196593328D01*
X221815169Y-196593328D02*
X222029455Y-196593328D01*
X222029455Y-196593328D02*
X222172312Y-196521900D01*
X222172312Y-196521900D02*
X222243741Y-196450471D01*
X222958026Y-195593328D02*
X222958026Y-196593328D01*
X222958026Y-195736185D02*
X223029455Y-195664757D01*
X223029455Y-195664757D02*
X223172312Y-195593328D01*
X223172312Y-195593328D02*
X223386598Y-195593328D01*
X223386598Y-195593328D02*
X223529455Y-195664757D01*
X223529455Y-195664757D02*
X223600884Y-195807614D01*
X223600884Y-195807614D02*
X223600884Y-196593328D01*
X224100884Y-195593328D02*
X224672312Y-195593328D01*
X224315169Y-195093328D02*
X224315169Y-196379042D01*
X224315169Y-196379042D02*
X224386598Y-196521900D01*
X224386598Y-196521900D02*
X224529455Y-196593328D01*
X224529455Y-196593328D02*
X224672312Y-196593328D01*
X225815170Y-195593328D02*
X225815170Y-196593328D01*
X225172312Y-195593328D02*
X225172312Y-196379042D01*
X225172312Y-196379042D02*
X225243741Y-196521900D01*
X225243741Y-196521900D02*
X225386598Y-196593328D01*
X225386598Y-196593328D02*
X225600884Y-196593328D01*
X225600884Y-196593328D02*
X225743741Y-196521900D01*
X225743741Y-196521900D02*
X225815170Y-196450471D01*
X226458027Y-195236185D02*
X226529455Y-195164757D01*
X226529455Y-195164757D02*
X226672313Y-195093328D01*
X226672313Y-195093328D02*
X227029455Y-195093328D01*
X227029455Y-195093328D02*
X227172313Y-195164757D01*
X227172313Y-195164757D02*
X227243741Y-195236185D01*
X227243741Y-195236185D02*
X227315170Y-195379042D01*
X227315170Y-195379042D02*
X227315170Y-195521900D01*
X227315170Y-195521900D02*
X227243741Y-195736185D01*
X227243741Y-195736185D02*
X226386598Y-196593328D01*
X226386598Y-196593328D02*
X227315170Y-196593328D01*
X227886598Y-195236185D02*
X227958026Y-195164757D01*
X227958026Y-195164757D02*
X228100884Y-195093328D01*
X228100884Y-195093328D02*
X228458026Y-195093328D01*
X228458026Y-195093328D02*
X228600884Y-195164757D01*
X228600884Y-195164757D02*
X228672312Y-195236185D01*
X228672312Y-195236185D02*
X228743741Y-195379042D01*
X228743741Y-195379042D02*
X228743741Y-195521900D01*
X228743741Y-195521900D02*
X228672312Y-195736185D01*
X228672312Y-195736185D02*
X227815169Y-196593328D01*
X227815169Y-196593328D02*
X228743741Y-196593328D01*
X229386597Y-196450471D02*
X229458026Y-196521900D01*
X229458026Y-196521900D02*
X229386597Y-196593328D01*
X229386597Y-196593328D02*
X229315169Y-196521900D01*
X229315169Y-196521900D02*
X229386597Y-196450471D01*
X229386597Y-196450471D02*
X229386597Y-196593328D01*
X230386598Y-195093328D02*
X230529455Y-195093328D01*
X230529455Y-195093328D02*
X230672312Y-195164757D01*
X230672312Y-195164757D02*
X230743741Y-195236185D01*
X230743741Y-195236185D02*
X230815169Y-195379042D01*
X230815169Y-195379042D02*
X230886598Y-195664757D01*
X230886598Y-195664757D02*
X230886598Y-196021900D01*
X230886598Y-196021900D02*
X230815169Y-196307614D01*
X230815169Y-196307614D02*
X230743741Y-196450471D01*
X230743741Y-196450471D02*
X230672312Y-196521900D01*
X230672312Y-196521900D02*
X230529455Y-196593328D01*
X230529455Y-196593328D02*
X230386598Y-196593328D01*
X230386598Y-196593328D02*
X230243741Y-196521900D01*
X230243741Y-196521900D02*
X230172312Y-196450471D01*
X230172312Y-196450471D02*
X230100883Y-196307614D01*
X230100883Y-196307614D02*
X230029455Y-196021900D01*
X230029455Y-196021900D02*
X230029455Y-195664757D01*
X230029455Y-195664757D02*
X230100883Y-195379042D01*
X230100883Y-195379042D02*
X230172312Y-195236185D01*
X230172312Y-195236185D02*
X230243741Y-195164757D01*
X230243741Y-195164757D02*
X230386598Y-195093328D01*
X232172312Y-195593328D02*
X232172312Y-196593328D01*
X231815169Y-195021900D02*
X231458026Y-196093328D01*
X231458026Y-196093328D02*
X232386597Y-196093328D01*
X232958025Y-196450471D02*
X233029454Y-196521900D01*
X233029454Y-196521900D02*
X232958025Y-196593328D01*
X232958025Y-196593328D02*
X232886597Y-196521900D01*
X232886597Y-196521900D02*
X232958025Y-196450471D01*
X232958025Y-196450471D02*
X232958025Y-196593328D01*
X234458026Y-196593328D02*
X233600883Y-196593328D01*
X234029454Y-196593328D02*
X234029454Y-195093328D01*
X234029454Y-195093328D02*
X233886597Y-195307614D01*
X233886597Y-195307614D02*
X233743740Y-195450471D01*
X233743740Y-195450471D02*
X233600883Y-195521900D01*
D10*
D11*
X177002200Y-191507200D02*
X285002200Y-191507200D01*
D10*
D12*
X264413853Y-193785528D02*
X263913853Y-193071242D01*
X263556710Y-193785528D02*
X263556710Y-192285528D01*
X263556710Y-192285528D02*
X264128139Y-192285528D01*
X264128139Y-192285528D02*
X264270996Y-192356957D01*
X264270996Y-192356957D02*
X264342425Y-192428385D01*
X264342425Y-192428385D02*
X264413853Y-192571242D01*
X264413853Y-192571242D02*
X264413853Y-192785528D01*
X264413853Y-192785528D02*
X264342425Y-192928385D01*
X264342425Y-192928385D02*
X264270996Y-192999814D01*
X264270996Y-192999814D02*
X264128139Y-193071242D01*
X264128139Y-193071242D02*
X263556710Y-193071242D01*
X265628139Y-193714100D02*
X265485282Y-193785528D01*
X265485282Y-193785528D02*
X265199568Y-193785528D01*
X265199568Y-193785528D02*
X265056710Y-193714100D01*
X265056710Y-193714100D02*
X264985282Y-193571242D01*
X264985282Y-193571242D02*
X264985282Y-192999814D01*
X264985282Y-192999814D02*
X265056710Y-192856957D01*
X265056710Y-192856957D02*
X265199568Y-192785528D01*
X265199568Y-192785528D02*
X265485282Y-192785528D01*
X265485282Y-192785528D02*
X265628139Y-192856957D01*
X265628139Y-192856957D02*
X265699568Y-192999814D01*
X265699568Y-192999814D02*
X265699568Y-193142671D01*
X265699568Y-193142671D02*
X264985282Y-193285528D01*
X266199567Y-192785528D02*
X266556710Y-193785528D01*
X266556710Y-193785528D02*
X266913853Y-192785528D01*
X267485281Y-193642671D02*
X267556710Y-193714100D01*
X267556710Y-193714100D02*
X267485281Y-193785528D01*
X267485281Y-193785528D02*
X267413853Y-193714100D01*
X267413853Y-193714100D02*
X267485281Y-193642671D01*
X267485281Y-193642671D02*
X267485281Y-193785528D01*
X267485281Y-192856957D02*
X267556710Y-192928385D01*
X267556710Y-192928385D02*
X267485281Y-192999814D01*
X267485281Y-192999814D02*
X267413853Y-192928385D01*
X267413853Y-192928385D02*
X267485281Y-192856957D01*
X267485281Y-192856957D02*
X267485281Y-192999814D01*
D10*
D11*
X178386598Y-193721900D02*
X178600884Y-193793328D01*
X178600884Y-193793328D02*
X178958026Y-193793328D01*
X178958026Y-193793328D02*
X179100884Y-193721900D01*
X179100884Y-193721900D02*
X179172312Y-193650471D01*
X179172312Y-193650471D02*
X179243741Y-193507614D01*
X179243741Y-193507614D02*
X179243741Y-193364757D01*
X179243741Y-193364757D02*
X179172312Y-193221900D01*
X179172312Y-193221900D02*
X179100884Y-193150471D01*
X179100884Y-193150471D02*
X178958026Y-193079042D01*
X178958026Y-193079042D02*
X178672312Y-193007614D01*
X178672312Y-193007614D02*
X178529455Y-192936185D01*
X178529455Y-192936185D02*
X178458026Y-192864757D01*
X178458026Y-192864757D02*
X178386598Y-192721900D01*
X178386598Y-192721900D02*
X178386598Y-192579042D01*
X178386598Y-192579042D02*
X178458026Y-192436185D01*
X178458026Y-192436185D02*
X178529455Y-192364757D01*
X178529455Y-192364757D02*
X178672312Y-192293328D01*
X178672312Y-192293328D02*
X179029455Y-192293328D01*
X179029455Y-192293328D02*
X179243741Y-192364757D01*
X179886597Y-193793328D02*
X179886597Y-192793328D01*
X179886597Y-192293328D02*
X179815169Y-192364757D01*
X179815169Y-192364757D02*
X179886597Y-192436185D01*
X179886597Y-192436185D02*
X179958026Y-192364757D01*
X179958026Y-192364757D02*
X179886597Y-192293328D01*
X179886597Y-192293328D02*
X179886597Y-192436185D01*
X180458026Y-192793328D02*
X181243741Y-192793328D01*
X181243741Y-192793328D02*
X180458026Y-193793328D01*
X180458026Y-193793328D02*
X181243741Y-193793328D01*
X182386598Y-193721900D02*
X182243741Y-193793328D01*
X182243741Y-193793328D02*
X181958027Y-193793328D01*
X181958027Y-193793328D02*
X181815169Y-193721900D01*
X181815169Y-193721900D02*
X181743741Y-193579042D01*
X181743741Y-193579042D02*
X181743741Y-193007614D01*
X181743741Y-193007614D02*
X181815169Y-192864757D01*
X181815169Y-192864757D02*
X181958027Y-192793328D01*
X181958027Y-192793328D02*
X182243741Y-192793328D01*
X182243741Y-192793328D02*
X182386598Y-192864757D01*
X182386598Y-192864757D02*
X182458027Y-193007614D01*
X182458027Y-193007614D02*
X182458027Y-193150471D01*
X182458027Y-193150471D02*
X181743741Y-193293328D01*
X183100883Y-193650471D02*
X183172312Y-193721900D01*
X183172312Y-193721900D02*
X183100883Y-193793328D01*
X183100883Y-193793328D02*
X183029455Y-193721900D01*
X183029455Y-193721900D02*
X183100883Y-193650471D01*
X183100883Y-193650471D02*
X183100883Y-193793328D01*
X183100883Y-192864757D02*
X183172312Y-192936185D01*
X183172312Y-192936185D02*
X183100883Y-193007614D01*
X183100883Y-193007614D02*
X183029455Y-192936185D01*
X183029455Y-192936185D02*
X183100883Y-192864757D01*
X183100883Y-192864757D02*
X183100883Y-193007614D01*
X184886598Y-193364757D02*
X185600884Y-193364757D01*
X184743741Y-193793328D02*
X185243741Y-192293328D01*
X185243741Y-192293328D02*
X185743741Y-193793328D01*
X186886598Y-192793328D02*
X186886598Y-193793328D01*
X186529455Y-192221900D02*
X186172312Y-193293328D01*
X186172312Y-193293328D02*
X187100883Y-193293328D01*
D10*
D11*
X263458026Y-196593328D02*
X263458026Y-195093328D01*
X264815170Y-196593328D02*
X264815170Y-195093328D01*
X264815170Y-196521900D02*
X264672312Y-196593328D01*
X264672312Y-196593328D02*
X264386598Y-196593328D01*
X264386598Y-196593328D02*
X264243741Y-196521900D01*
X264243741Y-196521900D02*
X264172312Y-196450471D01*
X264172312Y-196450471D02*
X264100884Y-196307614D01*
X264100884Y-196307614D02*
X264100884Y-195879042D01*
X264100884Y-195879042D02*
X264172312Y-195736185D01*
X264172312Y-195736185D02*
X264243741Y-195664757D01*
X264243741Y-195664757D02*
X264386598Y-195593328D01*
X264386598Y-195593328D02*
X264672312Y-195593328D01*
X264672312Y-195593328D02*
X264815170Y-195664757D01*
X265529455Y-196450471D02*
X265600884Y-196521900D01*
X265600884Y-196521900D02*
X265529455Y-196593328D01*
X265529455Y-196593328D02*
X265458027Y-196521900D01*
X265458027Y-196521900D02*
X265529455Y-196450471D01*
X265529455Y-196450471D02*
X265529455Y-196593328D01*
X265529455Y-195664757D02*
X265600884Y-195736185D01*
X265600884Y-195736185D02*
X265529455Y-195807614D01*
X265529455Y-195807614D02*
X265458027Y-195736185D01*
X265458027Y-195736185D02*
X265529455Y-195664757D01*
X265529455Y-195664757D02*
X265529455Y-195807614D01*
X268172313Y-196593328D02*
X267315170Y-196593328D01*
X267743741Y-196593328D02*
X267743741Y-195093328D01*
X267743741Y-195093328D02*
X267600884Y-195307614D01*
X267600884Y-195307614D02*
X267458027Y-195450471D01*
X267458027Y-195450471D02*
X267315170Y-195521900D01*
X269886598Y-195021900D02*
X268600884Y-196950471D01*
X271172313Y-196593328D02*
X270315170Y-196593328D01*
X270743741Y-196593328D02*
X270743741Y-195093328D01*
X270743741Y-195093328D02*
X270600884Y-195307614D01*
X270600884Y-195307614D02*
X270458027Y-195450471D01*
X270458027Y-195450471D02*
X270315170Y-195521900D01*
D10*
D11*
X177002200Y-187507200D02*
X285002200Y-187507200D01*
D10*
D13*
X178693928Y-188211638D02*
X179836785Y-188211638D01*
X179015357Y-190211638D02*
X179265357Y-188211638D01*
X180253452Y-190211638D02*
X180420119Y-188878304D01*
X180503452Y-188211638D02*
X180396309Y-188306876D01*
X180396309Y-188306876D02*
X180479643Y-188402114D01*
X180479643Y-188402114D02*
X180586786Y-188306876D01*
X180586786Y-188306876D02*
X180503452Y-188211638D01*
X180503452Y-188211638D02*
X180479643Y-188402114D01*
X181086786Y-188878304D02*
X181848690Y-188878304D01*
X181455833Y-188211638D02*
X181241548Y-189925923D01*
X181241548Y-189925923D02*
X181312976Y-190116400D01*
X181312976Y-190116400D02*
X181491548Y-190211638D01*
X181491548Y-190211638D02*
X181682024Y-190211638D01*
X182634405Y-190211638D02*
X182455833Y-190116400D01*
X182455833Y-190116400D02*
X182384405Y-189925923D01*
X182384405Y-189925923D02*
X182598690Y-188211638D01*
X184170119Y-190116400D02*
X183967738Y-190211638D01*
X183967738Y-190211638D02*
X183586785Y-190211638D01*
X183586785Y-190211638D02*
X183408214Y-190116400D01*
X183408214Y-190116400D02*
X183336785Y-189925923D01*
X183336785Y-189925923D02*
X183432024Y-189164019D01*
X183432024Y-189164019D02*
X183551071Y-188973542D01*
X183551071Y-188973542D02*
X183753452Y-188878304D01*
X183753452Y-188878304D02*
X184134404Y-188878304D01*
X184134404Y-188878304D02*
X184312976Y-188973542D01*
X184312976Y-188973542D02*
X184384404Y-189164019D01*
X184384404Y-189164019D02*
X184360595Y-189354495D01*
X184360595Y-189354495D02*
X183384404Y-189544971D01*
X185134405Y-190021161D02*
X185217738Y-190116400D01*
X185217738Y-190116400D02*
X185110595Y-190211638D01*
X185110595Y-190211638D02*
X185027262Y-190116400D01*
X185027262Y-190116400D02*
X185134405Y-190021161D01*
X185134405Y-190021161D02*
X185110595Y-190211638D01*
X185265357Y-188973542D02*
X185348690Y-189068780D01*
X185348690Y-189068780D02*
X185241548Y-189164019D01*
X185241548Y-189164019D02*
X185158214Y-189068780D01*
X185158214Y-189068780D02*
X185265357Y-188973542D01*
X185265357Y-188973542D02*
X185241548Y-189164019D01*
D10*
D11*
X178958026Y-185607614D02*
X178458026Y-185607614D01*
X178458026Y-186393328D02*
X178458026Y-184893328D01*
X178458026Y-184893328D02*
X179172312Y-184893328D01*
X179743740Y-186393328D02*
X179743740Y-185393328D01*
X179743740Y-184893328D02*
X179672312Y-184964757D01*
X179672312Y-184964757D02*
X179743740Y-185036185D01*
X179743740Y-185036185D02*
X179815169Y-184964757D01*
X179815169Y-184964757D02*
X179743740Y-184893328D01*
X179743740Y-184893328D02*
X179743740Y-185036185D01*
X180672312Y-186393328D02*
X180529455Y-186321900D01*
X180529455Y-186321900D02*
X180458026Y-186179042D01*
X180458026Y-186179042D02*
X180458026Y-184893328D01*
X181815169Y-186321900D02*
X181672312Y-186393328D01*
X181672312Y-186393328D02*
X181386598Y-186393328D01*
X181386598Y-186393328D02*
X181243740Y-186321900D01*
X181243740Y-186321900D02*
X181172312Y-186179042D01*
X181172312Y-186179042D02*
X181172312Y-185607614D01*
X181172312Y-185607614D02*
X181243740Y-185464757D01*
X181243740Y-185464757D02*
X181386598Y-185393328D01*
X181386598Y-185393328D02*
X181672312Y-185393328D01*
X181672312Y-185393328D02*
X181815169Y-185464757D01*
X181815169Y-185464757D02*
X181886598Y-185607614D01*
X181886598Y-185607614D02*
X181886598Y-185750471D01*
X181886598Y-185750471D02*
X181172312Y-185893328D01*
X182529454Y-186250471D02*
X182600883Y-186321900D01*
X182600883Y-186321900D02*
X182529454Y-186393328D01*
X182529454Y-186393328D02*
X182458026Y-186321900D01*
X182458026Y-186321900D02*
X182529454Y-186250471D01*
X182529454Y-186250471D02*
X182529454Y-186393328D01*
X182529454Y-185464757D02*
X182600883Y-185536185D01*
X182600883Y-185536185D02*
X182529454Y-185607614D01*
X182529454Y-185607614D02*
X182458026Y-185536185D01*
X182458026Y-185536185D02*
X182529454Y-185464757D01*
X182529454Y-185464757D02*
X182529454Y-185607614D01*
X184386597Y-186393328D02*
X184386597Y-184893328D01*
X184386597Y-184893328D02*
X184886597Y-185964757D01*
X184886597Y-185964757D02*
X185386597Y-184893328D01*
X185386597Y-184893328D02*
X185386597Y-186393328D01*
X186100883Y-186393328D02*
X186100883Y-185393328D01*
X186100883Y-184893328D02*
X186029455Y-184964757D01*
X186029455Y-184964757D02*
X186100883Y-185036185D01*
X186100883Y-185036185D02*
X186172312Y-184964757D01*
X186172312Y-184964757D02*
X186100883Y-184893328D01*
X186100883Y-184893328D02*
X186100883Y-185036185D01*
X187458027Y-186321900D02*
X187315169Y-186393328D01*
X187315169Y-186393328D02*
X187029455Y-186393328D01*
X187029455Y-186393328D02*
X186886598Y-186321900D01*
X186886598Y-186321900D02*
X186815169Y-186250471D01*
X186815169Y-186250471D02*
X186743741Y-186107614D01*
X186743741Y-186107614D02*
X186743741Y-185679042D01*
X186743741Y-185679042D02*
X186815169Y-185536185D01*
X186815169Y-185536185D02*
X186886598Y-185464757D01*
X186886598Y-185464757D02*
X187029455Y-185393328D01*
X187029455Y-185393328D02*
X187315169Y-185393328D01*
X187315169Y-185393328D02*
X187458027Y-185464757D01*
X188100883Y-186393328D02*
X188100883Y-185393328D01*
X188100883Y-185679042D02*
X188172312Y-185536185D01*
X188172312Y-185536185D02*
X188243741Y-185464757D01*
X188243741Y-185464757D02*
X188386598Y-185393328D01*
X188386598Y-185393328D02*
X188529455Y-185393328D01*
X189243740Y-186393328D02*
X189100883Y-186321900D01*
X189100883Y-186321900D02*
X189029454Y-186250471D01*
X189029454Y-186250471D02*
X188958026Y-186107614D01*
X188958026Y-186107614D02*
X188958026Y-185679042D01*
X188958026Y-185679042D02*
X189029454Y-185536185D01*
X189029454Y-185536185D02*
X189100883Y-185464757D01*
X189100883Y-185464757D02*
X189243740Y-185393328D01*
X189243740Y-185393328D02*
X189458026Y-185393328D01*
X189458026Y-185393328D02*
X189600883Y-185464757D01*
X189600883Y-185464757D02*
X189672312Y-185536185D01*
X189672312Y-185536185D02*
X189743740Y-185679042D01*
X189743740Y-185679042D02*
X189743740Y-186107614D01*
X189743740Y-186107614D02*
X189672312Y-186250471D01*
X189672312Y-186250471D02*
X189600883Y-186321900D01*
X189600883Y-186321900D02*
X189458026Y-186393328D01*
X189458026Y-186393328D02*
X189243740Y-186393328D01*
X190315169Y-186321900D02*
X190529455Y-186393328D01*
X190529455Y-186393328D02*
X190886597Y-186393328D01*
X190886597Y-186393328D02*
X191029455Y-186321900D01*
X191029455Y-186321900D02*
X191100883Y-186250471D01*
X191100883Y-186250471D02*
X191172312Y-186107614D01*
X191172312Y-186107614D02*
X191172312Y-185964757D01*
X191172312Y-185964757D02*
X191100883Y-185821900D01*
X191100883Y-185821900D02*
X191029455Y-185750471D01*
X191029455Y-185750471D02*
X190886597Y-185679042D01*
X190886597Y-185679042D02*
X190600883Y-185607614D01*
X190600883Y-185607614D02*
X190458026Y-185536185D01*
X190458026Y-185536185D02*
X190386597Y-185464757D01*
X190386597Y-185464757D02*
X190315169Y-185321900D01*
X190315169Y-185321900D02*
X190315169Y-185179042D01*
X190315169Y-185179042D02*
X190386597Y-185036185D01*
X190386597Y-185036185D02*
X190458026Y-184964757D01*
X190458026Y-184964757D02*
X190600883Y-184893328D01*
X190600883Y-184893328D02*
X190958026Y-184893328D01*
X190958026Y-184893328D02*
X191172312Y-184964757D01*
X191815168Y-186393328D02*
X191815168Y-184893328D01*
X191815168Y-184893328D02*
X192172311Y-184893328D01*
X192172311Y-184893328D02*
X192386597Y-184964757D01*
X192386597Y-184964757D02*
X192529454Y-185107614D01*
X192529454Y-185107614D02*
X192600883Y-185250471D01*
X192600883Y-185250471D02*
X192672311Y-185536185D01*
X192672311Y-185536185D02*
X192672311Y-185750471D01*
X192672311Y-185750471D02*
X192600883Y-186036185D01*
X192600883Y-186036185D02*
X192529454Y-186179042D01*
X192529454Y-186179042D02*
X192386597Y-186321900D01*
X192386597Y-186321900D02*
X192172311Y-186393328D01*
X192172311Y-186393328D02*
X191815168Y-186393328D01*
X193100883Y-184893328D02*
X193600883Y-186393328D01*
X193600883Y-186393328D02*
X194100883Y-184893328D01*
X194529454Y-185036185D02*
X194600882Y-184964757D01*
X194600882Y-184964757D02*
X194743740Y-184893328D01*
X194743740Y-184893328D02*
X195100882Y-184893328D01*
X195100882Y-184893328D02*
X195243740Y-184964757D01*
X195243740Y-184964757D02*
X195315168Y-185036185D01*
X195315168Y-185036185D02*
X195386597Y-185179042D01*
X195386597Y-185179042D02*
X195386597Y-185321900D01*
X195386597Y-185321900D02*
X195315168Y-185536185D01*
X195315168Y-185536185D02*
X194458025Y-186393328D01*
X194458025Y-186393328D02*
X195386597Y-186393328D01*
X196029453Y-186250471D02*
X196100882Y-186321900D01*
X196100882Y-186321900D02*
X196029453Y-186393328D01*
X196029453Y-186393328D02*
X195958025Y-186321900D01*
X195958025Y-186321900D02*
X196029453Y-186250471D01*
X196029453Y-186250471D02*
X196029453Y-186393328D01*
X196743739Y-186393328D02*
X196743739Y-184893328D01*
X196886597Y-185821900D02*
X197315168Y-186393328D01*
X197315168Y-185393328D02*
X196743739Y-185964757D01*
X197958025Y-186393328D02*
X197958025Y-185393328D01*
X197958025Y-184893328D02*
X197886597Y-184964757D01*
X197886597Y-184964757D02*
X197958025Y-185036185D01*
X197958025Y-185036185D02*
X198029454Y-184964757D01*
X198029454Y-184964757D02*
X197958025Y-184893328D01*
X197958025Y-184893328D02*
X197958025Y-185036185D01*
X199315169Y-186321900D02*
X199172311Y-186393328D01*
X199172311Y-186393328D02*
X198886597Y-186393328D01*
X198886597Y-186393328D02*
X198743740Y-186321900D01*
X198743740Y-186321900D02*
X198672311Y-186250471D01*
X198672311Y-186250471D02*
X198600883Y-186107614D01*
X198600883Y-186107614D02*
X198600883Y-185679042D01*
X198600883Y-185679042D02*
X198672311Y-185536185D01*
X198672311Y-185536185D02*
X198743740Y-185464757D01*
X198743740Y-185464757D02*
X198886597Y-185393328D01*
X198886597Y-185393328D02*
X199172311Y-185393328D01*
X199172311Y-185393328D02*
X199315169Y-185464757D01*
X200600883Y-186393328D02*
X200600883Y-185607614D01*
X200600883Y-185607614D02*
X200529454Y-185464757D01*
X200529454Y-185464757D02*
X200386597Y-185393328D01*
X200386597Y-185393328D02*
X200100883Y-185393328D01*
X200100883Y-185393328D02*
X199958025Y-185464757D01*
X200600883Y-186321900D02*
X200458025Y-186393328D01*
X200458025Y-186393328D02*
X200100883Y-186393328D01*
X200100883Y-186393328D02*
X199958025Y-186321900D01*
X199958025Y-186321900D02*
X199886597Y-186179042D01*
X199886597Y-186179042D02*
X199886597Y-186036185D01*
X199886597Y-186036185D02*
X199958025Y-185893328D01*
X199958025Y-185893328D02*
X200100883Y-185821900D01*
X200100883Y-185821900D02*
X200458025Y-185821900D01*
X200458025Y-185821900D02*
X200600883Y-185750471D01*
X201958026Y-186393328D02*
X201958026Y-184893328D01*
X201958026Y-186321900D02*
X201815168Y-186393328D01*
X201815168Y-186393328D02*
X201529454Y-186393328D01*
X201529454Y-186393328D02*
X201386597Y-186321900D01*
X201386597Y-186321900D02*
X201315168Y-186250471D01*
X201315168Y-186250471D02*
X201243740Y-186107614D01*
X201243740Y-186107614D02*
X201243740Y-185679042D01*
X201243740Y-185679042D02*
X201315168Y-185536185D01*
X201315168Y-185536185D02*
X201386597Y-185464757D01*
X201386597Y-185464757D02*
X201529454Y-185393328D01*
X201529454Y-185393328D02*
X201815168Y-185393328D01*
X201815168Y-185393328D02*
X201958026Y-185464757D01*
X202315169Y-186536185D02*
X203458026Y-186536185D01*
X203815168Y-185393328D02*
X203815168Y-186893328D01*
X203815168Y-185464757D02*
X203958026Y-185393328D01*
X203958026Y-185393328D02*
X204243740Y-185393328D01*
X204243740Y-185393328D02*
X204386597Y-185464757D01*
X204386597Y-185464757D02*
X204458026Y-185536185D01*
X204458026Y-185536185D02*
X204529454Y-185679042D01*
X204529454Y-185679042D02*
X204529454Y-186107614D01*
X204529454Y-186107614D02*
X204458026Y-186250471D01*
X204458026Y-186250471D02*
X204386597Y-186321900D01*
X204386597Y-186321900D02*
X204243740Y-186393328D01*
X204243740Y-186393328D02*
X203958026Y-186393328D01*
X203958026Y-186393328D02*
X203815168Y-186321900D01*
X205815169Y-186321900D02*
X205672311Y-186393328D01*
X205672311Y-186393328D02*
X205386597Y-186393328D01*
X205386597Y-186393328D02*
X205243740Y-186321900D01*
X205243740Y-186321900D02*
X205172311Y-186250471D01*
X205172311Y-186250471D02*
X205100883Y-186107614D01*
X205100883Y-186107614D02*
X205100883Y-185679042D01*
X205100883Y-185679042D02*
X205172311Y-185536185D01*
X205172311Y-185536185D02*
X205243740Y-185464757D01*
X205243740Y-185464757D02*
X205386597Y-185393328D01*
X205386597Y-185393328D02*
X205672311Y-185393328D01*
X205672311Y-185393328D02*
X205815169Y-185464757D01*
X206458025Y-186393328D02*
X206458025Y-184893328D01*
X206458025Y-185464757D02*
X206600883Y-185393328D01*
X206600883Y-185393328D02*
X206886597Y-185393328D01*
X206886597Y-185393328D02*
X207029454Y-185464757D01*
X207029454Y-185464757D02*
X207100883Y-185536185D01*
X207100883Y-185536185D02*
X207172311Y-185679042D01*
X207172311Y-185679042D02*
X207172311Y-186107614D01*
X207172311Y-186107614D02*
X207100883Y-186250471D01*
X207100883Y-186250471D02*
X207029454Y-186321900D01*
X207029454Y-186321900D02*
X206886597Y-186393328D01*
X206886597Y-186393328D02*
X206600883Y-186393328D01*
X206600883Y-186393328D02*
X206458025Y-186321900D01*
D10*
D11*
X177002200Y-181507200D02*
X285002200Y-181507200D01*
D10*
D11*
X178386598Y-183621900D02*
X178600884Y-183693328D01*
X178600884Y-183693328D02*
X178958026Y-183693328D01*
X178958026Y-183693328D02*
X179100884Y-183621900D01*
X179100884Y-183621900D02*
X179172312Y-183550471D01*
X179172312Y-183550471D02*
X179243741Y-183407614D01*
X179243741Y-183407614D02*
X179243741Y-183264757D01*
X179243741Y-183264757D02*
X179172312Y-183121900D01*
X179172312Y-183121900D02*
X179100884Y-183050471D01*
X179100884Y-183050471D02*
X178958026Y-182979042D01*
X178958026Y-182979042D02*
X178672312Y-182907614D01*
X178672312Y-182907614D02*
X178529455Y-182836185D01*
X178529455Y-182836185D02*
X178458026Y-182764757D01*
X178458026Y-182764757D02*
X178386598Y-182621900D01*
X178386598Y-182621900D02*
X178386598Y-182479042D01*
X178386598Y-182479042D02*
X178458026Y-182336185D01*
X178458026Y-182336185D02*
X178529455Y-182264757D01*
X178529455Y-182264757D02*
X178672312Y-182193328D01*
X178672312Y-182193328D02*
X179029455Y-182193328D01*
X179029455Y-182193328D02*
X179243741Y-182264757D01*
X179886597Y-183693328D02*
X179886597Y-182193328D01*
X180529455Y-183693328D02*
X180529455Y-182907614D01*
X180529455Y-182907614D02*
X180458026Y-182764757D01*
X180458026Y-182764757D02*
X180315169Y-182693328D01*
X180315169Y-182693328D02*
X180100883Y-182693328D01*
X180100883Y-182693328D02*
X179958026Y-182764757D01*
X179958026Y-182764757D02*
X179886597Y-182836185D01*
X181815169Y-183621900D02*
X181672312Y-183693328D01*
X181672312Y-183693328D02*
X181386598Y-183693328D01*
X181386598Y-183693328D02*
X181243740Y-183621900D01*
X181243740Y-183621900D02*
X181172312Y-183479042D01*
X181172312Y-183479042D02*
X181172312Y-182907614D01*
X181172312Y-182907614D02*
X181243740Y-182764757D01*
X181243740Y-182764757D02*
X181386598Y-182693328D01*
X181386598Y-182693328D02*
X181672312Y-182693328D01*
X181672312Y-182693328D02*
X181815169Y-182764757D01*
X181815169Y-182764757D02*
X181886598Y-182907614D01*
X181886598Y-182907614D02*
X181886598Y-183050471D01*
X181886598Y-183050471D02*
X181172312Y-183193328D01*
X183100883Y-183621900D02*
X182958026Y-183693328D01*
X182958026Y-183693328D02*
X182672312Y-183693328D01*
X182672312Y-183693328D02*
X182529454Y-183621900D01*
X182529454Y-183621900D02*
X182458026Y-183479042D01*
X182458026Y-183479042D02*
X182458026Y-182907614D01*
X182458026Y-182907614D02*
X182529454Y-182764757D01*
X182529454Y-182764757D02*
X182672312Y-182693328D01*
X182672312Y-182693328D02*
X182958026Y-182693328D01*
X182958026Y-182693328D02*
X183100883Y-182764757D01*
X183100883Y-182764757D02*
X183172312Y-182907614D01*
X183172312Y-182907614D02*
X183172312Y-183050471D01*
X183172312Y-183050471D02*
X182458026Y-183193328D01*
X183600883Y-182693328D02*
X184172311Y-182693328D01*
X183815168Y-182193328D02*
X183815168Y-183479042D01*
X183815168Y-183479042D02*
X183886597Y-183621900D01*
X183886597Y-183621900D02*
X184029454Y-183693328D01*
X184029454Y-183693328D02*
X184172311Y-183693328D01*
X184672311Y-183550471D02*
X184743740Y-183621900D01*
X184743740Y-183621900D02*
X184672311Y-183693328D01*
X184672311Y-183693328D02*
X184600883Y-183621900D01*
X184600883Y-183621900D02*
X184672311Y-183550471D01*
X184672311Y-183550471D02*
X184672311Y-183693328D01*
X184672311Y-182764757D02*
X184743740Y-182836185D01*
X184743740Y-182836185D02*
X184672311Y-182907614D01*
X184672311Y-182907614D02*
X184600883Y-182836185D01*
X184600883Y-182836185D02*
X184672311Y-182764757D01*
X184672311Y-182764757D02*
X184672311Y-182907614D01*
D10*
D12*
D10*
D11*
D10*
D11*
D10*
D11*
D10*
D11*
D10*
D11*
X197002200Y-191507200D02*
X197002200Y-194507200D01*
D10*
D11*
X261002200Y-191507200D02*
X261002200Y-198007200D01*
D14*
%TO.P,SW2,1,A*%
%TO.N,VBUS*%
X197866000Y-103124000D03*
D15*
%TO.P,SW2,2,B*%
%TO.N,SIGNAL*%
X195326000Y-103124000D03*
%TO.P,SW2,3,C*%
%TO.N,GND*%
X192786000Y-103124000D03*
%TD*%
D16*
%TO.P,J1,1,Pin_1*%
%TO.N,Net-(J1-Pin_1)*%
X180594000Y-106426000D03*
%TD*%
%TO.P,J2,1,Pin_1*%
%TO.N,5V*%
X185674000Y-106426000D03*
%TD*%
%TO.P,J3,1,Pin_1*%
%TO.N,3.3V*%
X185674000Y-109474000D03*
%TD*%
%TO.P,J4,1,Pin_1*%
%TO.N,Net-(J4-Pin_1)*%
X180594000Y-109474000D03*
%TD*%
D17*
%TO.P,U8,S1,SHIELD*%
%TO.N,unconnected-(U8-SHIELD-PadS1)*%
X173478000Y-126736000D03*
D18*
X173488000Y-122206000D03*
D19*
X173788000Y-122706000D03*
X181818000Y-122706000D03*
D18*
X182118000Y-122206000D03*
D17*
X182118000Y-126746000D03*
%TD*%
D18*
%TO.P,USB_C3.0_UP1,1,SHIELD*%
%TO.N,unconnected-(USB_C3.0_UP1-SHIELD-Pad1)*%
X185000000Y-100660000D03*
X177700000Y-100660000D03*
%TD*%
D20*
%TO.N,VBUS*%
X204900000Y-99000000D03*
%TO.N,GND*%
X174498000Y-120904000D03*
X181356000Y-120904000D03*
X176276000Y-100838000D03*
%TO.N,VBUS*%
X208200000Y-100900000D03*
X179897220Y-102007693D03*
X206800000Y-99300000D03*
X203900000Y-99000000D03*
X207100000Y-100900000D03*
X207700000Y-100000000D03*
X206400000Y-100200000D03*
X205900000Y-99000000D03*
X205400000Y-99800000D03*
X182538856Y-102252144D03*
%TO.N,GND*%
X185674000Y-125476000D03*
X207087000Y-119702000D03*
X213200000Y-101800000D03*
X213691000Y-122242000D03*
X159766000Y-117094000D03*
X213200000Y-100700000D03*
X171958000Y-110490000D03*
X181610000Y-116078000D03*
X170688000Y-115570000D03*
X211659000Y-116908000D03*
X212100000Y-100700000D03*
X207087000Y-118432000D03*
X210643000Y-117162000D03*
X162052000Y-116332000D03*
X212100000Y-102900000D03*
X208103000Y-118432000D03*
X161290000Y-105156000D03*
X162052000Y-117856000D03*
X212100000Y-101800000D03*
X213200000Y-104100000D03*
X155448000Y-101092000D03*
X206071000Y-117162000D03*
X177546000Y-117348000D03*
X201300000Y-104500000D03*
X212100000Y-104100000D03*
X187452000Y-104140000D03*
X149098000Y-118110000D03*
X162052000Y-121412000D03*
X213200000Y-102900000D03*
X208103000Y-117162000D03*
X207087000Y-117162000D03*
X209373000Y-118432000D03*
X211913000Y-119702000D03*
X212421000Y-117924000D03*
X162052000Y-114808000D03*
X151892000Y-101092000D03*
X211405000Y-117924000D03*
X162052000Y-119634000D03*
X211100000Y-100700000D03*
%TO.N,5V*%
X166116000Y-113792000D03*
X200152000Y-114808000D03*
X197612000Y-114808000D03*
X198882000Y-114808000D03*
X165100000Y-113792000D03*
X197612000Y-113792000D03*
X198882000Y-113792000D03*
X200152000Y-113792000D03*
%TO.N,Net-(U3-SS)*%
X214199000Y-118940000D03*
X207325000Y-113098000D03*
%TO.N,3.3V*%
X166878000Y-121412000D03*
X164084000Y-109220000D03*
X170434000Y-122936000D03*
%TO.N,Net-(U2-PMOS)*%
X168148000Y-113284000D03*
X160782000Y-102616000D03*
%TO.N,/D2-*%
X190483452Y-118761044D03*
X189140000Y-114554000D03*
%TO.N,/D2+*%
X188090000Y-114554000D03*
X190483452Y-119811044D03*
%TO.N,Net-(U6-VDD)*%
X165608000Y-109474000D03*
X157480000Y-108712000D03*
%TD*%
D21*
%TO.N,Net-(U2-PMOS)*%
X160782000Y-102616000D02*
X165862000Y-102616000D01*
X165862000Y-102616000D02*
X169672000Y-106426000D01*
X169672000Y-106426000D02*
X169672000Y-108204000D01*
X169672000Y-108204000D02*
X171196000Y-109728000D01*
X171196000Y-109728000D02*
X171196000Y-112776000D01*
X171196000Y-112776000D02*
X170688000Y-113284000D01*
X170688000Y-113284000D02*
X168148000Y-113284000D01*
D22*
%TO.N,Net-(U3-SS)*%
X209627000Y-117670000D02*
X210897000Y-118940000D01*
X210897000Y-118940000D02*
X214199000Y-118940000D01*
X209373000Y-113098000D02*
X209627000Y-113352000D01*
X209627000Y-113352000D02*
X209627000Y-117670000D01*
X207325000Y-113098000D02*
X209373000Y-113098000D01*
D23*
%TO.N,3.3V*%
X164592000Y-109728000D02*
X164084000Y-109220000D01*
X167259000Y-121031000D02*
X167259000Y-113411000D01*
X166878000Y-121920000D02*
X166878000Y-121412000D01*
X166370000Y-112522000D02*
X165608000Y-112522000D01*
X167259000Y-113411000D02*
X166370000Y-112522000D01*
X164592000Y-111506000D02*
X164592000Y-109728000D01*
X170434000Y-122936000D02*
X167894000Y-122936000D01*
X165608000Y-112522000D02*
X164592000Y-111506000D01*
X166878000Y-121412000D02*
X167259000Y-121031000D01*
X167894000Y-122936000D02*
X166878000Y-121920000D01*
D24*
%TO.N,/D2-*%
X188840001Y-114853999D02*
X189140000Y-114554000D01*
X190069849Y-118761044D02*
X188840001Y-117531196D01*
X188840001Y-117531196D02*
X188840001Y-114853999D01*
X190483452Y-118761044D02*
X190069849Y-118761044D01*
%TO.N,/D2+*%
X190483452Y-119811044D02*
X188389999Y-117717591D01*
X188389999Y-117717591D02*
X188389999Y-114853999D01*
X188389999Y-114853999D02*
X188090000Y-114554000D01*
D23*
%TO.N,Net-(U6-VDD)*%
X157480000Y-111252000D02*
X157480000Y-108712000D01*
X158496000Y-112268000D02*
X157480000Y-111252000D01*
X162814000Y-108712000D02*
X162814000Y-110236000D01*
X163322000Y-108204000D02*
X162814000Y-108712000D01*
X160782000Y-112268000D02*
X158496000Y-112268000D01*
X165608000Y-108204000D02*
X163322000Y-108204000D01*
X165608000Y-109474000D02*
X165608000Y-108204000D01*
X162814000Y-110236000D02*
X160782000Y-112268000D01*
%TD*%
%TA.AperFunction,Conductor*%
%TO.N,GND*%
G36*
X176702779Y-98570306D02*
G01*
X176721085Y-98614500D01*
X176707250Y-98653717D01*
X176695891Y-98667811D01*
X176677585Y-98712008D01*
X176670026Y-98750010D01*
X176667500Y-98762711D01*
X176667500Y-100037500D01*
X176677586Y-100088206D01*
X176687633Y-100112461D01*
X176695890Y-100132396D01*
X176695898Y-100132413D01*
X176709464Y-100157257D01*
X176709465Y-100157258D01*
X176709467Y-100157261D01*
X176767600Y-100204108D01*
X176811794Y-100222414D01*
X176862500Y-100232500D01*
X177010000Y-100232500D01*
X177054194Y-100250806D01*
X177072500Y-100295000D01*
X177072500Y-101199476D01*
X177077528Y-101239272D01*
X177087384Y-101317292D01*
X177087385Y-101317297D01*
X177145745Y-101464699D01*
X177145747Y-101464703D01*
X177238937Y-101592968D01*
X177361092Y-101694022D01*
X177361097Y-101694026D01*
X177504551Y-101761531D01*
X177660286Y-101791239D01*
X177660286Y-101791238D01*
X177660287Y-101791239D01*
X177669129Y-101790682D01*
X177818516Y-101781284D01*
X177969300Y-101732291D01*
X178103162Y-101647340D01*
X178211693Y-101531767D01*
X178288072Y-101392834D01*
X178327500Y-101239272D01*
X178327500Y-100295000D01*
X178345806Y-100250806D01*
X178390000Y-100232500D01*
X179605000Y-100232500D01*
X179649194Y-100250806D01*
X179667500Y-100295000D01*
X179667500Y-101490121D01*
X179649194Y-101534315D01*
X179634372Y-101544225D01*
X179634745Y-101544871D01*
X179631200Y-101546917D01*
X179571187Y-101592967D01*
X179521002Y-101631475D01*
X179436449Y-101741667D01*
X179419850Y-101781742D01*
X179383296Y-101869991D01*
X179383295Y-101869994D01*
X179365168Y-102007691D01*
X179365168Y-102007694D01*
X179383295Y-102145391D01*
X179383296Y-102145394D01*
X179383297Y-102145398D01*
X179436449Y-102273719D01*
X179521002Y-102383911D01*
X179631194Y-102468464D01*
X179759515Y-102521616D01*
X179759519Y-102521616D01*
X179759521Y-102521617D01*
X179897218Y-102539745D01*
X179897220Y-102539745D01*
X179897222Y-102539745D01*
X179948188Y-102533035D01*
X179956346Y-102532500D01*
X180250277Y-102532500D01*
X180250281Y-102532500D01*
X180286808Y-102527366D01*
X180319933Y-102517866D01*
X180319947Y-102517861D01*
X180319960Y-102517857D01*
X180332560Y-102513545D01*
X180332559Y-102513545D01*
X180332566Y-102513543D01*
X180391284Y-102467432D01*
X180419058Y-102428486D01*
X180440287Y-102381348D01*
X180611672Y-101638681D01*
X180727503Y-101136745D01*
X180727503Y-101136741D01*
X180727506Y-101136731D01*
X180730048Y-101121934D01*
X180731649Y-101107880D01*
X180732500Y-101092883D01*
X180732500Y-100295000D01*
X180750806Y-100250806D01*
X180795000Y-100232500D01*
X181705000Y-100232500D01*
X181749194Y-100250806D01*
X181767500Y-100295000D01*
X181767500Y-101092899D01*
X181768350Y-101107871D01*
X181768352Y-101107896D01*
X181769951Y-101121933D01*
X181772496Y-101136745D01*
X182012651Y-102177415D01*
X182013717Y-102199626D01*
X182006804Y-102252140D01*
X182006804Y-102252146D01*
X182024931Y-102389842D01*
X182024932Y-102389845D01*
X182024933Y-102389849D01*
X182078085Y-102518170D01*
X182162638Y-102628362D01*
X182272830Y-102712915D01*
X182401151Y-102766067D01*
X182401155Y-102766067D01*
X182401157Y-102766068D01*
X182538854Y-102784196D01*
X182538856Y-102784196D01*
X182538858Y-102784196D01*
X182676554Y-102766068D01*
X182676554Y-102766067D01*
X182676561Y-102766067D01*
X182804882Y-102712915D01*
X182915074Y-102628362D01*
X182999627Y-102518170D01*
X183052779Y-102389849D01*
X183063646Y-102307306D01*
X183070908Y-102252145D01*
X183070908Y-102252142D01*
X183052780Y-102114445D01*
X183052779Y-102114442D01*
X183052779Y-102114439D01*
X182999627Y-101986118D01*
X182915074Y-101875926D01*
X182915071Y-101875924D01*
X182915070Y-101875922D01*
X182856952Y-101831326D01*
X182833035Y-101789900D01*
X182832500Y-101781742D01*
X182832500Y-100395000D01*
X182850806Y-100350806D01*
X182895000Y-100332500D01*
X184310000Y-100332500D01*
X184354194Y-100350806D01*
X184372500Y-100395000D01*
X184372500Y-101199476D01*
X184377528Y-101239272D01*
X184387384Y-101317292D01*
X184387385Y-101317297D01*
X184445745Y-101464699D01*
X184445747Y-101464703D01*
X184538937Y-101592968D01*
X184661092Y-101694022D01*
X184661097Y-101694026D01*
X184804551Y-101761531D01*
X184960286Y-101791239D01*
X184960286Y-101791238D01*
X184960287Y-101791239D01*
X184969129Y-101790682D01*
X185118516Y-101781284D01*
X185269300Y-101732291D01*
X185403162Y-101647340D01*
X185511693Y-101531767D01*
X185588072Y-101392834D01*
X185627500Y-101239272D01*
X185627500Y-100372018D01*
X185645806Y-100327824D01*
X185689934Y-100309518D01*
X185728224Y-100309479D01*
X186107047Y-100233713D01*
X186119304Y-100232500D01*
X196909000Y-100232500D01*
X196953194Y-100250806D01*
X196971500Y-100295000D01*
X196971500Y-102116984D01*
X196953194Y-102161178D01*
X196943723Y-102168951D01*
X196924077Y-102182077D01*
X196895898Y-102224250D01*
X196895898Y-102224251D01*
X196888500Y-102261442D01*
X196888500Y-103986557D01*
X196895898Y-104023748D01*
X196895898Y-104023749D01*
X196924077Y-104065922D01*
X196952257Y-104084750D01*
X196966252Y-104094102D01*
X197003442Y-104101500D01*
X197003443Y-104101500D01*
X198728557Y-104101500D01*
X198728558Y-104101500D01*
X198765748Y-104094102D01*
X198807922Y-104065922D01*
X198836102Y-104023748D01*
X198843500Y-103986558D01*
X198843500Y-102261442D01*
X198836102Y-102224252D01*
X198836101Y-102224250D01*
X198807922Y-102182077D01*
X198788277Y-102168951D01*
X198761701Y-102129177D01*
X198760500Y-102116984D01*
X198760500Y-100295000D01*
X198778806Y-100250806D01*
X198823000Y-100232500D01*
X205075914Y-100232500D01*
X205113961Y-100245415D01*
X205133971Y-100260769D01*
X205133970Y-100260769D01*
X205133973Y-100260770D01*
X205133974Y-100260771D01*
X205262295Y-100313923D01*
X205262299Y-100313923D01*
X205262301Y-100313924D01*
X205399998Y-100332052D01*
X205400000Y-100332052D01*
X205400002Y-100332052D01*
X205537698Y-100313924D01*
X205537698Y-100313923D01*
X205537705Y-100313923D01*
X205666026Y-100260771D01*
X205686039Y-100245415D01*
X205724086Y-100232500D01*
X205817416Y-100232500D01*
X205861610Y-100250806D01*
X205879381Y-100286843D01*
X205886075Y-100337697D01*
X205886076Y-100337701D01*
X205886077Y-100337705D01*
X205939229Y-100466026D01*
X206023782Y-100576218D01*
X206133974Y-100660771D01*
X206262295Y-100713923D01*
X206262299Y-100713923D01*
X206262301Y-100713924D01*
X206399998Y-100732052D01*
X206400000Y-100732052D01*
X206400002Y-100732052D01*
X206512655Y-100717221D01*
X206558861Y-100729601D01*
X206582778Y-100771028D01*
X206582778Y-100787343D01*
X206567948Y-100899996D01*
X206567948Y-100900001D01*
X206586075Y-101037698D01*
X206586076Y-101037701D01*
X206586077Y-101037705D01*
X206639229Y-101166026D01*
X206639230Y-101166027D01*
X206723779Y-101276215D01*
X206723780Y-101276216D01*
X206723782Y-101276218D01*
X206743047Y-101291000D01*
X206766965Y-101332424D01*
X206767500Y-101340584D01*
X206767500Y-104337500D01*
X206777586Y-104388206D01*
X206789609Y-104417232D01*
X206795890Y-104432396D01*
X206795898Y-104432413D01*
X206809464Y-104457257D01*
X206809465Y-104457258D01*
X206809467Y-104457261D01*
X206867600Y-104504108D01*
X206911794Y-104522414D01*
X206962500Y-104532500D01*
X208237500Y-104532500D01*
X208288206Y-104522414D01*
X208332400Y-104504108D01*
X208357261Y-104490533D01*
X208404108Y-104432400D01*
X208422414Y-104388206D01*
X208432500Y-104337500D01*
X208432500Y-101416211D01*
X208450806Y-101372017D01*
X208463756Y-101362081D01*
X208466018Y-101360773D01*
X208466026Y-101360771D01*
X208576218Y-101276218D01*
X208660771Y-101166026D01*
X208713923Y-101037705D01*
X208732052Y-100900000D01*
X208732051Y-100899996D01*
X208713924Y-100762301D01*
X208713923Y-100762298D01*
X208713923Y-100762295D01*
X208660771Y-100633974D01*
X208576218Y-100523782D01*
X208466026Y-100439229D01*
X208466025Y-100439228D01*
X208466023Y-100439227D01*
X208462885Y-100437928D01*
X208429059Y-100404105D01*
X208426099Y-100395067D01*
X208419117Y-100366589D01*
X208419116Y-100366586D01*
X208398251Y-100323552D01*
X208398248Y-100323548D01*
X208398248Y-100323547D01*
X208367051Y-100282322D01*
X208355802Y-100272323D01*
X208237688Y-100167332D01*
X208216819Y-100124289D01*
X208217246Y-100112461D01*
X208220440Y-100088206D01*
X208232052Y-100000000D01*
X208231291Y-99994223D01*
X208213924Y-99862301D01*
X208213923Y-99862298D01*
X208213923Y-99862295D01*
X208160771Y-99733974D01*
X208076218Y-99623782D01*
X207966026Y-99539229D01*
X207837705Y-99486077D01*
X207837702Y-99486076D01*
X207837701Y-99486076D01*
X207837698Y-99486075D01*
X207700002Y-99467948D01*
X207699998Y-99467948D01*
X207562301Y-99486075D01*
X207562291Y-99486078D01*
X207536380Y-99496810D01*
X207488544Y-99496809D01*
X207470941Y-99485780D01*
X207437446Y-99456007D01*
X207349474Y-99377809D01*
X207328605Y-99334766D01*
X207329032Y-99322937D01*
X207332052Y-99300001D01*
X207332052Y-99299998D01*
X207313924Y-99162301D01*
X207313923Y-99162298D01*
X207313923Y-99162295D01*
X207260771Y-99033974D01*
X207176218Y-98923782D01*
X207066026Y-98839229D01*
X206937705Y-98786077D01*
X206937702Y-98786076D01*
X206937701Y-98786076D01*
X206937698Y-98786075D01*
X206800003Y-98767948D01*
X206799997Y-98767948D01*
X206709330Y-98779883D01*
X206663125Y-98767502D01*
X206659651Y-98764632D01*
X206633261Y-98741175D01*
X206605698Y-98716675D01*
X206564968Y-98691936D01*
X206564964Y-98691934D01*
X206523659Y-98676149D01*
X206522864Y-98676001D01*
X206522548Y-98675942D01*
X206522261Y-98675755D01*
X206520938Y-98675383D01*
X206521054Y-98674970D01*
X206482455Y-98649852D01*
X206472553Y-98603053D01*
X206498644Y-98562959D01*
X206533996Y-98552000D01*
X214089356Y-98552000D01*
X214111753Y-98556150D01*
X214259440Y-98612842D01*
X214260866Y-98613411D01*
X214408006Y-98674357D01*
X214412430Y-98676397D01*
X214555007Y-98749045D01*
X214556825Y-98750010D01*
X214695463Y-98826632D01*
X214699244Y-98828901D01*
X214833822Y-98916297D01*
X214835914Y-98917719D01*
X214844460Y-98923782D01*
X214964739Y-99009125D01*
X214967904Y-99011525D01*
X215092723Y-99112601D01*
X215095031Y-99114564D01*
X215148449Y-99162301D01*
X215212712Y-99219730D01*
X215215259Y-99222139D01*
X215328859Y-99335739D01*
X215331268Y-99338286D01*
X215436428Y-99455960D01*
X215438397Y-99458275D01*
X215539473Y-99583094D01*
X215541873Y-99586259D01*
X215633268Y-99715067D01*
X215634713Y-99717194D01*
X215722089Y-99851741D01*
X215724374Y-99855549D01*
X215800978Y-99994154D01*
X215801964Y-99996012D01*
X215874598Y-100138564D01*
X215876652Y-100143019D01*
X215895242Y-100187897D01*
X215900000Y-100211816D01*
X215900000Y-126582182D01*
X215895242Y-126606101D01*
X215876651Y-126650981D01*
X215874597Y-126655436D01*
X215801964Y-126797986D01*
X215800978Y-126799844D01*
X215724374Y-126938449D01*
X215722089Y-126942257D01*
X215634713Y-127076804D01*
X215633268Y-127078931D01*
X215541873Y-127207739D01*
X215539473Y-127210904D01*
X215438397Y-127335723D01*
X215436428Y-127338038D01*
X215331268Y-127455712D01*
X215328859Y-127458259D01*
X215215259Y-127571859D01*
X215212712Y-127574268D01*
X215095038Y-127679428D01*
X215092723Y-127681397D01*
X214967904Y-127782473D01*
X214964739Y-127784873D01*
X214835931Y-127876268D01*
X214833804Y-127877713D01*
X214699257Y-127965089D01*
X214695449Y-127967374D01*
X214556844Y-128043978D01*
X214554987Y-128044964D01*
X214412446Y-128117593D01*
X214407989Y-128119648D01*
X214260912Y-128180569D01*
X214259392Y-128181175D01*
X214110790Y-128238217D01*
X214105695Y-128239925D01*
X214009788Y-128267557D01*
X213992485Y-128270000D01*
X205925175Y-128270000D01*
X205880981Y-128251694D01*
X205862675Y-128207500D01*
X205865206Y-128189893D01*
X205867133Y-128183331D01*
X205872500Y-128146000D01*
X205872500Y-124076000D01*
X205869472Y-124047834D01*
X205858266Y-123996323D01*
X205828931Y-123937720D01*
X205811888Y-123918051D01*
X205783177Y-123884917D01*
X205783176Y-123884916D01*
X205720370Y-123844552D01*
X205720367Y-123844550D01*
X205653337Y-123824868D01*
X205653333Y-123824867D01*
X205616002Y-123819500D01*
X205616000Y-123819500D01*
X203070000Y-123819500D01*
X203069992Y-123819500D01*
X203041841Y-123822527D01*
X203041838Y-123822527D01*
X203041834Y-123822528D01*
X202990323Y-123833734D01*
X202990322Y-123833734D01*
X202990319Y-123833735D01*
X202931720Y-123863068D01*
X202878917Y-123908822D01*
X202838550Y-123971632D01*
X202818868Y-124038662D01*
X202818867Y-124038666D01*
X202813500Y-124075998D01*
X202813500Y-126551000D01*
X202795194Y-126595194D01*
X202751000Y-126613500D01*
X182869492Y-126613500D01*
X182841336Y-126616527D01*
X182841328Y-126616529D01*
X182821282Y-126620889D01*
X182774207Y-126612394D01*
X182746928Y-126573099D01*
X182745500Y-126559817D01*
X182745500Y-126056524D01*
X182741937Y-126028319D01*
X182730616Y-125938707D01*
X182672253Y-125791297D01*
X182579063Y-125663033D01*
X182579064Y-125663033D01*
X182579062Y-125663031D01*
X182456907Y-125561977D01*
X182456906Y-125561976D01*
X182456903Y-125561974D01*
X182313449Y-125494469D01*
X182313447Y-125494468D01*
X182313446Y-125494468D01*
X182157716Y-125464761D01*
X182157712Y-125464760D01*
X181999484Y-125474716D01*
X181848702Y-125523708D01*
X181848700Y-125523708D01*
X181848700Y-125523709D01*
X181809637Y-125548499D01*
X181714837Y-125608660D01*
X181606309Y-125724230D01*
X181606304Y-125724237D01*
X181529928Y-125863164D01*
X181526491Y-125876552D01*
X181490500Y-126016728D01*
X181490500Y-126016731D01*
X181490500Y-126560825D01*
X181472194Y-126605019D01*
X181428000Y-126623325D01*
X181410394Y-126620794D01*
X181403831Y-126618867D01*
X181366502Y-126613500D01*
X181366500Y-126613500D01*
X174229500Y-126613500D01*
X174229492Y-126613500D01*
X174201336Y-126616527D01*
X174201328Y-126616529D01*
X174181282Y-126620889D01*
X174134207Y-126612394D01*
X174106928Y-126573099D01*
X174105500Y-126559817D01*
X174105500Y-126046524D01*
X174090616Y-125928707D01*
X174032253Y-125781297D01*
X173980840Y-125710533D01*
X173939062Y-125653031D01*
X173816907Y-125551977D01*
X173816906Y-125551976D01*
X173816903Y-125551974D01*
X173673449Y-125484469D01*
X173673447Y-125484468D01*
X173673446Y-125484468D01*
X173517716Y-125454761D01*
X173517712Y-125454760D01*
X173359484Y-125464716D01*
X173208702Y-125513708D01*
X173208700Y-125513708D01*
X173208700Y-125513709D01*
X173177235Y-125533677D01*
X173074837Y-125598660D01*
X172966309Y-125714230D01*
X172966304Y-125714237D01*
X172889928Y-125853164D01*
X172888977Y-125856868D01*
X172850500Y-126006728D01*
X172850500Y-126006731D01*
X172850500Y-126560825D01*
X172832194Y-126605019D01*
X172788000Y-126623325D01*
X172770394Y-126620794D01*
X172763831Y-126618867D01*
X172726502Y-126613500D01*
X172726500Y-126613500D01*
X169105000Y-126613500D01*
X169060806Y-126595194D01*
X169042500Y-126551000D01*
X169042500Y-126108007D01*
X169042499Y-126107992D01*
X169039472Y-126079834D01*
X169028266Y-126028323D01*
X168998931Y-125969720D01*
X168953176Y-125916916D01*
X168890370Y-125876552D01*
X168890367Y-125876550D01*
X168823337Y-125856868D01*
X168823333Y-125856867D01*
X168786002Y-125851500D01*
X168786000Y-125851500D01*
X167995040Y-125851500D01*
X167950846Y-125833194D01*
X167943980Y-125825043D01*
X167920161Y-125791300D01*
X166171164Y-123313553D01*
X164989940Y-121640152D01*
X164978500Y-121604109D01*
X164978500Y-116527000D01*
X164996806Y-116482806D01*
X165041000Y-116464500D01*
X166245993Y-116464500D01*
X166246000Y-116464500D01*
X166274166Y-116461472D01*
X166325677Y-116450266D01*
X166384280Y-116420931D01*
X166437084Y-116375176D01*
X166477448Y-116312370D01*
X166497133Y-116245331D01*
X166502500Y-116208000D01*
X166502500Y-114176034D01*
X166515415Y-114137987D01*
X166521642Y-114129870D01*
X166576771Y-114058026D01*
X166629923Y-113929705D01*
X166648052Y-113792000D01*
X166641834Y-113744771D01*
X166629924Y-113654301D01*
X166629923Y-113654298D01*
X166629923Y-113654295D01*
X166576771Y-113525974D01*
X166575942Y-113524894D01*
X166515415Y-113446012D01*
X166503069Y-113409643D01*
X166502694Y-113409663D01*
X166502679Y-113409665D01*
X166502678Y-113409664D01*
X166502589Y-113409669D01*
X166502500Y-113408010D01*
X166502500Y-113408000D01*
X166499472Y-113379834D01*
X166490643Y-113339251D01*
X166499136Y-113292179D01*
X166538429Y-113264896D01*
X166585504Y-113273389D01*
X166595909Y-113281774D01*
X166863194Y-113549059D01*
X166881500Y-113593253D01*
X166881500Y-120824676D01*
X166863194Y-120868870D01*
X166827158Y-120886641D01*
X166740301Y-120898075D01*
X166740298Y-120898076D01*
X166740295Y-120898076D01*
X166740295Y-120898077D01*
X166611974Y-120951229D01*
X166501782Y-121035782D01*
X166417229Y-121145974D01*
X166371782Y-121255695D01*
X166364076Y-121274298D01*
X166364075Y-121274301D01*
X166345948Y-121411998D01*
X166345948Y-121412001D01*
X166364075Y-121549698D01*
X166364076Y-121549701D01*
X166364077Y-121549705D01*
X166417229Y-121678026D01*
X166487585Y-121769716D01*
X166500500Y-121807763D01*
X166500500Y-121874364D01*
X166499170Y-121887190D01*
X166495607Y-121904182D01*
X166495606Y-121904186D01*
X166500020Y-121939588D01*
X166500500Y-121947319D01*
X166500500Y-121951280D01*
X166504150Y-121973161D01*
X166504522Y-121975713D01*
X166511190Y-122029207D01*
X166512668Y-122034169D01*
X166512617Y-122034183D01*
X166514285Y-122039388D01*
X166514335Y-122039371D01*
X166516016Y-122044269D01*
X166541673Y-122091678D01*
X166542855Y-122093975D01*
X166566521Y-122142385D01*
X166569531Y-122146600D01*
X166569487Y-122146631D01*
X166572757Y-122151016D01*
X166572800Y-122150984D01*
X166575977Y-122155067D01*
X166575980Y-122155071D01*
X166575983Y-122155073D01*
X166575984Y-122155075D01*
X166615646Y-122191587D01*
X166617510Y-122193375D01*
X167594800Y-123170666D01*
X167602924Y-123180669D01*
X167612424Y-123195209D01*
X167612425Y-123195210D01*
X167640574Y-123217119D01*
X167646380Y-123222246D01*
X167649186Y-123225052D01*
X167667268Y-123237962D01*
X167669319Y-123239493D01*
X167682955Y-123250106D01*
X167711845Y-123272592D01*
X167711849Y-123272593D01*
X167716403Y-123275058D01*
X167716376Y-123275106D01*
X167721232Y-123277605D01*
X167721256Y-123277557D01*
X167725907Y-123279831D01*
X167777580Y-123295214D01*
X167780027Y-123295998D01*
X167831006Y-123313500D01*
X167831007Y-123313500D01*
X167836115Y-123314353D01*
X167836106Y-123314405D01*
X167841514Y-123315193D01*
X167841521Y-123315141D01*
X167846656Y-123315781D01*
X167846659Y-123315780D01*
X167846660Y-123315781D01*
X167900523Y-123313553D01*
X167903106Y-123313500D01*
X170038236Y-123313500D01*
X170076283Y-123326415D01*
X170122297Y-123361722D01*
X170167974Y-123396771D01*
X170296295Y-123449923D01*
X170296299Y-123449923D01*
X170296301Y-123449924D01*
X170433998Y-123468052D01*
X170434000Y-123468052D01*
X170434002Y-123468052D01*
X170571698Y-123449924D01*
X170571698Y-123449923D01*
X170571705Y-123449923D01*
X170700026Y-123396771D01*
X170810218Y-123312218D01*
X170894771Y-123202026D01*
X170947923Y-123073705D01*
X170966052Y-122936000D01*
X170961503Y-122901450D01*
X170947924Y-122798301D01*
X170947923Y-122798298D01*
X170947923Y-122798295D01*
X170926045Y-122745476D01*
X172860500Y-122745476D01*
X172873656Y-122849610D01*
X172875384Y-122863292D01*
X172875385Y-122863297D01*
X172933745Y-123010699D01*
X172933747Y-123010703D01*
X173026937Y-123138968D01*
X173130996Y-123225052D01*
X173149097Y-123240026D01*
X173292551Y-123307531D01*
X173448286Y-123337239D01*
X173505761Y-123333622D01*
X173509685Y-123333500D01*
X173830833Y-123333500D01*
X173875027Y-123351806D01*
X173893333Y-123396000D01*
X173889724Y-123416930D01*
X173878653Y-123448079D01*
X173868796Y-123592194D01*
X173868796Y-123592199D01*
X173898186Y-123733634D01*
X173898186Y-123733635D01*
X173960291Y-123853490D01*
X173964646Y-123861895D01*
X173986146Y-123884916D01*
X174063244Y-123967468D01*
X174063245Y-123967469D01*
X174186671Y-124042526D01*
X174275322Y-124067364D01*
X174325769Y-124081499D01*
X174325769Y-124081500D01*
X174325772Y-124081500D01*
X174433948Y-124081500D01*
X174433949Y-124081500D01*
X174541111Y-124066771D01*
X174673609Y-124009219D01*
X174785665Y-123918054D01*
X174868971Y-123800037D01*
X174917346Y-123663921D01*
X174922252Y-123592199D01*
X180668796Y-123592199D01*
X180698186Y-123733634D01*
X180698186Y-123733635D01*
X180760291Y-123853490D01*
X180764646Y-123861895D01*
X180786146Y-123884916D01*
X180863244Y-123967468D01*
X180863245Y-123967469D01*
X180986671Y-124042526D01*
X181075322Y-124067364D01*
X181125769Y-124081499D01*
X181125769Y-124081500D01*
X181125772Y-124081500D01*
X181233948Y-124081500D01*
X181233949Y-124081500D01*
X181341111Y-124066771D01*
X181473609Y-124009219D01*
X181585665Y-123918054D01*
X181668971Y-123800037D01*
X181717346Y-123663921D01*
X181727204Y-123519801D01*
X181712684Y-123449924D01*
X181704121Y-123408716D01*
X181713053Y-123361722D01*
X181752598Y-123334807D01*
X181765314Y-123333500D01*
X182052777Y-123333500D01*
X182064487Y-123334606D01*
X182078286Y-123337239D01*
X182078286Y-123337238D01*
X182078287Y-123337239D01*
X182087129Y-123336682D01*
X182236516Y-123327284D01*
X182387300Y-123278291D01*
X182521162Y-123193340D01*
X182629693Y-123077767D01*
X182706072Y-122938834D01*
X182745500Y-122785272D01*
X182745500Y-121666524D01*
X182730616Y-121548707D01*
X182672253Y-121401297D01*
X182617267Y-121325616D01*
X182579062Y-121273031D01*
X182456907Y-121171977D01*
X182456906Y-121171976D01*
X182456903Y-121171974D01*
X182313449Y-121104469D01*
X182313447Y-121104468D01*
X182313446Y-121104468D01*
X182157716Y-121074761D01*
X182157712Y-121074760D01*
X181999484Y-121084716D01*
X181848702Y-121133708D01*
X181848700Y-121133708D01*
X181848700Y-121133709D01*
X181829013Y-121146203D01*
X181714837Y-121218660D01*
X181606309Y-121334230D01*
X181606304Y-121334237D01*
X181529928Y-121473164D01*
X181514156Y-121534590D01*
X181490500Y-121626728D01*
X181490500Y-121626731D01*
X181490500Y-122025675D01*
X181472194Y-122069869D01*
X181435835Y-122087682D01*
X181390706Y-122093384D01*
X181390702Y-122093385D01*
X181243300Y-122151745D01*
X181243296Y-122151747D01*
X181115031Y-122244937D01*
X181013977Y-122367092D01*
X181013975Y-122367095D01*
X181013974Y-122367097D01*
X180963090Y-122475230D01*
X180946468Y-122510553D01*
X180916761Y-122666283D01*
X180916761Y-122666286D01*
X180926716Y-122824516D01*
X180963861Y-122938835D01*
X180975710Y-122975303D01*
X180988450Y-122995378D01*
X180996675Y-123042501D01*
X180969169Y-123081637D01*
X180960581Y-123086192D01*
X180922389Y-123102781D01*
X180810336Y-123193945D01*
X180810333Y-123193948D01*
X180727028Y-123311963D01*
X180678653Y-123448079D01*
X180668796Y-123592194D01*
X180668796Y-123592199D01*
X174922252Y-123592199D01*
X174927204Y-123519801D01*
X174897814Y-123378366D01*
X174831354Y-123250105D01*
X174732755Y-123144531D01*
X174732754Y-123144530D01*
X174634880Y-123085012D01*
X174606631Y-123046409D01*
X174610802Y-123005000D01*
X174659531Y-122901449D01*
X174689239Y-122745714D01*
X174679284Y-122587484D01*
X174630291Y-122436700D01*
X174545340Y-122302838D01*
X174429767Y-122194307D01*
X174428072Y-122193375D01*
X174290835Y-122117928D01*
X174252108Y-122107984D01*
X174162455Y-122084966D01*
X174124204Y-122056245D01*
X174115500Y-122024430D01*
X174115500Y-121666524D01*
X174110473Y-121626731D01*
X174100616Y-121548707D01*
X174042253Y-121401297D01*
X173987267Y-121325616D01*
X173949062Y-121273031D01*
X173826907Y-121171977D01*
X173826906Y-121171976D01*
X173826903Y-121171974D01*
X173683449Y-121104469D01*
X173683447Y-121104468D01*
X173683446Y-121104468D01*
X173527716Y-121074761D01*
X173527712Y-121074760D01*
X173369484Y-121084716D01*
X173218702Y-121133708D01*
X173218700Y-121133708D01*
X173218700Y-121133709D01*
X173199013Y-121146203D01*
X173084837Y-121218660D01*
X172976309Y-121334230D01*
X172976304Y-121334237D01*
X172899928Y-121473164D01*
X172884156Y-121534590D01*
X172860500Y-121626728D01*
X172860500Y-122745476D01*
X170926045Y-122745476D01*
X170894771Y-122669974D01*
X170810218Y-122559782D01*
X170700026Y-122475229D01*
X170571705Y-122422077D01*
X170571702Y-122422076D01*
X170571701Y-122422076D01*
X170571698Y-122422075D01*
X170434002Y-122403948D01*
X170433998Y-122403948D01*
X170296301Y-122422075D01*
X170296298Y-122422076D01*
X170296295Y-122422076D01*
X170296295Y-122422077D01*
X170167974Y-122475229D01*
X170167972Y-122475230D01*
X170076283Y-122545585D01*
X170038236Y-122558500D01*
X168076253Y-122558500D01*
X168032059Y-122540194D01*
X167304205Y-121812339D01*
X167285899Y-121768145D01*
X167298815Y-121730097D01*
X167338769Y-121678028D01*
X167338771Y-121678026D01*
X167391923Y-121549705D01*
X167407008Y-121435120D01*
X167424777Y-121399087D01*
X167493668Y-121330196D01*
X167503675Y-121322071D01*
X167518209Y-121312576D01*
X167540122Y-121284422D01*
X167545255Y-121278610D01*
X167548052Y-121275814D01*
X167560971Y-121257718D01*
X167562454Y-121255729D01*
X167595592Y-121213155D01*
X167595593Y-121213149D01*
X167598057Y-121208599D01*
X167598105Y-121208625D01*
X167600607Y-121203765D01*
X167600557Y-121203741D01*
X167602833Y-121199086D01*
X167618211Y-121147429D01*
X167618990Y-121144995D01*
X167636500Y-121093994D01*
X167636500Y-121093991D01*
X167637353Y-121088885D01*
X167637405Y-121088893D01*
X167638193Y-121083482D01*
X167638140Y-121083476D01*
X167638780Y-121078343D01*
X167636553Y-121024491D01*
X167636500Y-121021908D01*
X167636500Y-114554001D01*
X187557948Y-114554001D01*
X187576075Y-114691698D01*
X187576076Y-114691701D01*
X187576077Y-114691705D01*
X187629229Y-114820026D01*
X187713782Y-114930218D01*
X187823974Y-115014771D01*
X187952295Y-115067923D01*
X187952299Y-115067923D01*
X187952301Y-115067924D01*
X187994626Y-115073495D01*
X188090000Y-115086052D01*
X188091833Y-115085810D01*
X188092735Y-115086052D01*
X188094097Y-115086052D01*
X188094097Y-115086416D01*
X188138038Y-115098183D01*
X188161963Y-115139606D01*
X188162499Y-115147774D01*
X188162499Y-117710018D01*
X188162413Y-117713289D01*
X188160280Y-117753972D01*
X188160281Y-117753977D01*
X188169430Y-117777811D01*
X188172215Y-117787211D01*
X188177355Y-117811393D01*
X188177525Y-117812190D01*
X188177527Y-117812194D01*
X188183505Y-117820422D01*
X188191291Y-117834761D01*
X188194938Y-117844263D01*
X188212992Y-117862317D01*
X188219361Y-117869774D01*
X188234371Y-117890433D01*
X188234373Y-117890434D01*
X188234375Y-117890436D01*
X188243186Y-117895523D01*
X188256130Y-117905455D01*
X189955957Y-119605282D01*
X189974263Y-119649476D01*
X189970319Y-119669312D01*
X189970589Y-119669385D01*
X189969527Y-119673345D01*
X189951400Y-119811042D01*
X189951400Y-119811045D01*
X189969527Y-119948742D01*
X189969528Y-119948745D01*
X189969529Y-119948749D01*
X190022681Y-120077070D01*
X190107234Y-120187262D01*
X190217426Y-120271815D01*
X190345747Y-120324967D01*
X190345751Y-120324967D01*
X190345753Y-120324968D01*
X190483450Y-120343096D01*
X190483452Y-120343096D01*
X190483454Y-120343096D01*
X190621150Y-120324968D01*
X190621150Y-120324967D01*
X190621157Y-120324967D01*
X190749478Y-120271815D01*
X190859670Y-120187262D01*
X190944223Y-120077070D01*
X190997375Y-119948749D01*
X191015504Y-119811044D01*
X190997375Y-119673339D01*
X190944223Y-119545018D01*
X190859670Y-119434826D01*
X190749478Y-119350273D01*
X190733817Y-119343786D01*
X190699993Y-119309963D01*
X190699992Y-119262127D01*
X190733815Y-119228302D01*
X190749478Y-119221815D01*
X190859670Y-119137262D01*
X190944223Y-119027070D01*
X190997375Y-118898749D01*
X190997376Y-118898742D01*
X191015504Y-118761045D01*
X191015504Y-118761042D01*
X190997376Y-118623345D01*
X190997375Y-118623342D01*
X190997375Y-118623339D01*
X190944223Y-118495018D01*
X190859670Y-118384826D01*
X190749478Y-118300273D01*
X190621157Y-118247121D01*
X190621154Y-118247120D01*
X190621153Y-118247120D01*
X190621150Y-118247119D01*
X190483454Y-118228992D01*
X190483450Y-118228992D01*
X190345753Y-118247119D01*
X190345750Y-118247120D01*
X190345747Y-118247120D01*
X190345747Y-118247121D01*
X190217426Y-118300273D01*
X190107234Y-118384826D01*
X190107232Y-118384827D01*
X190107227Y-118384832D01*
X190105488Y-118386571D01*
X190104343Y-118387044D01*
X190103985Y-118387320D01*
X190103911Y-118387223D01*
X190061292Y-118404872D01*
X190017105Y-118386566D01*
X189085807Y-117455268D01*
X189067501Y-117411074D01*
X189067501Y-115147774D01*
X189085807Y-115103580D01*
X189130001Y-115085274D01*
X189138154Y-115085809D01*
X189140000Y-115086052D01*
X189261894Y-115070004D01*
X189277698Y-115067924D01*
X189277698Y-115067923D01*
X189277705Y-115067923D01*
X189406026Y-115014771D01*
X189516218Y-114930218D01*
X189600771Y-114820026D01*
X189605752Y-114808001D01*
X197079948Y-114808001D01*
X197098075Y-114945698D01*
X197098076Y-114945701D01*
X197098077Y-114945705D01*
X197151229Y-115074026D01*
X197235782Y-115184218D01*
X197345974Y-115268771D01*
X197474295Y-115321923D01*
X197474299Y-115321923D01*
X197474301Y-115321924D01*
X197611998Y-115340052D01*
X197612000Y-115340052D01*
X197612002Y-115340052D01*
X197749698Y-115321924D01*
X197749698Y-115321923D01*
X197749705Y-115321923D01*
X197878026Y-115268771D01*
X197988218Y-115184218D01*
X198072771Y-115074026D01*
X198125923Y-114945705D01*
X198144052Y-114808001D01*
X198349948Y-114808001D01*
X198368075Y-114945698D01*
X198368076Y-114945701D01*
X198368077Y-114945705D01*
X198421229Y-115074026D01*
X198505782Y-115184218D01*
X198615974Y-115268771D01*
X198744295Y-115321923D01*
X198744299Y-115321923D01*
X198744301Y-115321924D01*
X198881998Y-115340052D01*
X198882000Y-115340052D01*
X198882002Y-115340052D01*
X199019698Y-115321924D01*
X199019698Y-115321923D01*
X199019705Y-115321923D01*
X199148026Y-115268771D01*
X199258218Y-115184218D01*
X199342771Y-115074026D01*
X199395923Y-114945705D01*
X199414052Y-114808001D01*
X199619948Y-114808001D01*
X199638075Y-114945698D01*
X199638076Y-114945701D01*
X199638077Y-114945705D01*
X199691229Y-115074026D01*
X199775782Y-115184218D01*
X199885974Y-115268771D01*
X200014295Y-115321923D01*
X200014299Y-115321923D01*
X200014301Y-115321924D01*
X200151998Y-115340052D01*
X200152000Y-115340052D01*
X200152002Y-115340052D01*
X200289698Y-115321924D01*
X200289698Y-115321923D01*
X200289705Y-115321923D01*
X200418026Y-115268771D01*
X200528218Y-115184218D01*
X200612771Y-115074026D01*
X200665923Y-114945705D01*
X200684052Y-114808000D01*
X200683325Y-114802480D01*
X200665924Y-114670301D01*
X200665923Y-114670298D01*
X200665923Y-114670295D01*
X200612771Y-114541974D01*
X200528218Y-114431782D01*
X200528216Y-114431781D01*
X200528216Y-114431780D01*
X200421096Y-114349585D01*
X200397178Y-114308158D01*
X200409558Y-114261953D01*
X200421096Y-114250415D01*
X200528218Y-114168218D01*
X200612771Y-114058026D01*
X200665923Y-113929705D01*
X200684052Y-113792000D01*
X200677834Y-113744771D01*
X200665924Y-113654301D01*
X200665923Y-113654298D01*
X200665923Y-113654295D01*
X200612771Y-113525974D01*
X200528218Y-113415782D01*
X200418026Y-113331229D01*
X200289705Y-113278077D01*
X200289702Y-113278076D01*
X200289701Y-113278076D01*
X200289698Y-113278075D01*
X200152002Y-113259948D01*
X200151998Y-113259948D01*
X200014301Y-113278075D01*
X200014298Y-113278076D01*
X200014295Y-113278076D01*
X200014295Y-113278077D01*
X199885974Y-113331229D01*
X199775782Y-113415782D01*
X199691229Y-113525974D01*
X199684820Y-113541448D01*
X199638076Y-113654298D01*
X199638075Y-113654301D01*
X199619948Y-113791998D01*
X199619948Y-113792001D01*
X199638075Y-113929698D01*
X199638076Y-113929701D01*
X199638077Y-113929705D01*
X199691229Y-114058026D01*
X199775782Y-114168218D01*
X199882904Y-114250415D01*
X199906821Y-114291842D01*
X199894441Y-114338048D01*
X199882905Y-114349583D01*
X199775782Y-114431782D01*
X199691229Y-114541974D01*
X199664061Y-114607565D01*
X199638076Y-114670298D01*
X199638075Y-114670301D01*
X199619948Y-114807998D01*
X199619948Y-114808001D01*
X199414052Y-114808001D01*
X199414052Y-114808000D01*
X199413325Y-114802480D01*
X199395924Y-114670301D01*
X199395923Y-114670298D01*
X199395923Y-114670295D01*
X199342771Y-114541974D01*
X199258218Y-114431782D01*
X199258216Y-114431781D01*
X199258216Y-114431780D01*
X199151096Y-114349585D01*
X199127178Y-114308158D01*
X199139558Y-114261953D01*
X199151096Y-114250415D01*
X199258218Y-114168218D01*
X199342771Y-114058026D01*
X199395923Y-113929705D01*
X199414052Y-113792000D01*
X199407834Y-113744771D01*
X199395924Y-113654301D01*
X199395923Y-113654298D01*
X199395923Y-113654295D01*
X199342771Y-113525974D01*
X199258218Y-113415782D01*
X199148026Y-113331229D01*
X199019705Y-113278077D01*
X199019702Y-113278076D01*
X199019701Y-113278076D01*
X199019698Y-113278075D01*
X198882002Y-113259948D01*
X198881998Y-113259948D01*
X198744301Y-113278075D01*
X198744298Y-113278076D01*
X198744295Y-113278076D01*
X198744295Y-113278077D01*
X198615974Y-113331229D01*
X198505782Y-113415782D01*
X198421229Y-113525974D01*
X198414820Y-113541448D01*
X198368076Y-113654298D01*
X198368075Y-113654301D01*
X198349948Y-113791998D01*
X198349948Y-113792001D01*
X198368075Y-113929698D01*
X198368076Y-113929701D01*
X198368077Y-113929705D01*
X198421229Y-114058026D01*
X198505782Y-114168218D01*
X198612904Y-114250415D01*
X198636821Y-114291842D01*
X198624441Y-114338048D01*
X198612905Y-114349583D01*
X198505782Y-114431782D01*
X198421229Y-114541974D01*
X198394061Y-114607565D01*
X198368076Y-114670298D01*
X198368075Y-114670301D01*
X198349948Y-114807998D01*
X198349948Y-114808001D01*
X198144052Y-114808001D01*
X198144052Y-114808000D01*
X198143325Y-114802480D01*
X198125924Y-114670301D01*
X198125923Y-114670298D01*
X198125923Y-114670295D01*
X198072771Y-114541974D01*
X197988218Y-114431782D01*
X197988216Y-114431781D01*
X197988216Y-114431780D01*
X197881096Y-114349585D01*
X197857178Y-114308158D01*
X197869558Y-114261953D01*
X197881096Y-114250415D01*
X197988218Y-114168218D01*
X198072771Y-114058026D01*
X198125923Y-113929705D01*
X198144052Y-113792000D01*
X198137834Y-113744771D01*
X198125924Y-113654301D01*
X198125923Y-113654298D01*
X198125923Y-113654295D01*
X198072771Y-113525974D01*
X197988218Y-113415782D01*
X197878026Y-113331229D01*
X197749705Y-113278077D01*
X197749702Y-113278076D01*
X197749701Y-113278076D01*
X197749698Y-113278075D01*
X197612002Y-113259948D01*
X197611998Y-113259948D01*
X197474301Y-113278075D01*
X197474298Y-113278076D01*
X197474295Y-113278076D01*
X197474295Y-113278077D01*
X197345974Y-113331229D01*
X197235782Y-113415782D01*
X197151229Y-113525974D01*
X197144820Y-113541448D01*
X197098076Y-113654298D01*
X197098075Y-113654301D01*
X197079948Y-113791998D01*
X197079948Y-113792001D01*
X197098075Y-113929698D01*
X197098076Y-113929701D01*
X197098077Y-113929705D01*
X197151229Y-114058026D01*
X197235782Y-114168218D01*
X197342904Y-114250415D01*
X197366821Y-114291842D01*
X197354441Y-114338048D01*
X197342905Y-114349583D01*
X197235782Y-114431782D01*
X197151229Y-114541974D01*
X197124061Y-114607565D01*
X197098076Y-114670298D01*
X197098075Y-114670301D01*
X197079948Y-114807998D01*
X197079948Y-114808001D01*
X189605752Y-114808001D01*
X189653923Y-114691705D01*
X189672052Y-114554000D01*
X189653923Y-114416295D01*
X189600771Y-114287974D01*
X189516218Y-114177782D01*
X189406026Y-114093229D01*
X189277705Y-114040077D01*
X189277702Y-114040076D01*
X189277701Y-114040076D01*
X189277698Y-114040075D01*
X189140002Y-114021948D01*
X189139998Y-114021948D01*
X189002301Y-114040075D01*
X189002298Y-114040076D01*
X189002295Y-114040076D01*
X189002295Y-114040077D01*
X188958962Y-114058026D01*
X188873974Y-114093229D01*
X188763782Y-114177782D01*
X188679227Y-114287977D01*
X188672742Y-114303634D01*
X188638918Y-114337459D01*
X188591082Y-114337458D01*
X188557258Y-114303634D01*
X188550772Y-114287977D01*
X188550771Y-114287974D01*
X188466218Y-114177782D01*
X188356026Y-114093229D01*
X188227705Y-114040077D01*
X188227702Y-114040076D01*
X188227701Y-114040076D01*
X188227698Y-114040075D01*
X188090002Y-114021948D01*
X188089998Y-114021948D01*
X187952301Y-114040075D01*
X187952298Y-114040076D01*
X187952295Y-114040076D01*
X187952295Y-114040077D01*
X187908962Y-114058026D01*
X187823974Y-114093229D01*
X187713782Y-114177782D01*
X187629229Y-114287974D01*
X187576076Y-114416298D01*
X187576075Y-114416301D01*
X187557948Y-114553998D01*
X187557948Y-114554001D01*
X167636500Y-114554001D01*
X167636500Y-113668033D01*
X167654806Y-113623839D01*
X167699000Y-113605533D01*
X167743194Y-113623839D01*
X167748579Y-113629979D01*
X167771782Y-113660218D01*
X167881974Y-113744771D01*
X168010295Y-113797923D01*
X168010299Y-113797923D01*
X168010301Y-113797924D01*
X168147998Y-113816052D01*
X168148000Y-113816052D01*
X168148002Y-113816052D01*
X168285698Y-113797924D01*
X168285698Y-113797923D01*
X168285705Y-113797923D01*
X168414026Y-113744771D01*
X168524218Y-113660218D01*
X168600386Y-113560952D01*
X168641813Y-113537035D01*
X168649971Y-113536500D01*
X170656970Y-113536500D01*
X170669163Y-113537700D01*
X170688000Y-113541448D01*
X170771210Y-113524894D01*
X170771213Y-113524895D01*
X170771213Y-113524894D01*
X170771214Y-113524894D01*
X170786521Y-113521850D01*
X170870043Y-113466043D01*
X170880713Y-113450072D01*
X170888482Y-113440605D01*
X171231086Y-113098001D01*
X206792948Y-113098001D01*
X206811075Y-113235698D01*
X206811076Y-113235701D01*
X206811077Y-113235705D01*
X206864229Y-113364026D01*
X206948782Y-113474218D01*
X207058974Y-113558771D01*
X207187295Y-113611923D01*
X207187299Y-113611923D01*
X207187301Y-113611924D01*
X207324998Y-113630052D01*
X207325000Y-113630052D01*
X207325002Y-113630052D01*
X207462698Y-113611924D01*
X207462698Y-113611923D01*
X207462705Y-113611923D01*
X207591026Y-113558771D01*
X207701218Y-113474218D01*
X207739021Y-113424951D01*
X207780448Y-113401035D01*
X207788606Y-113400500D01*
X209221812Y-113400500D01*
X209266004Y-113418804D01*
X209306194Y-113458994D01*
X209324500Y-113503186D01*
X209324500Y-117610458D01*
X209322666Y-117621698D01*
X209323011Y-117621747D01*
X209322210Y-117627485D01*
X209324433Y-117675545D01*
X209324500Y-117678432D01*
X209324500Y-117698035D01*
X209324996Y-117700686D01*
X209325992Y-117709279D01*
X209327433Y-117740454D01*
X209327434Y-117740459D01*
X209333170Y-117753450D01*
X209337430Y-117767206D01*
X209340040Y-117781167D01*
X209340040Y-117781168D01*
X209340041Y-117781169D01*
X209356472Y-117807706D01*
X209360504Y-117815355D01*
X209373115Y-117843915D01*
X209383155Y-117853955D01*
X209392098Y-117865245D01*
X209394903Y-117869774D01*
X209399577Y-117877323D01*
X209423677Y-117895523D01*
X209424488Y-117896135D01*
X209431017Y-117901817D01*
X210640997Y-119111796D01*
X210647652Y-119121042D01*
X210647929Y-119120834D01*
X210651419Y-119125456D01*
X210686989Y-119157882D01*
X210689077Y-119159876D01*
X210702922Y-119173721D01*
X210705145Y-119175244D01*
X210711926Y-119180615D01*
X210734996Y-119201646D01*
X210748237Y-119206775D01*
X210760981Y-119213493D01*
X210772693Y-119221516D01*
X210772695Y-119221517D01*
X210772698Y-119221519D01*
X210803083Y-119228665D01*
X210811349Y-119231224D01*
X210822820Y-119235668D01*
X210840452Y-119242500D01*
X210840453Y-119242500D01*
X210854651Y-119242500D01*
X210868960Y-119244159D01*
X210882787Y-119247412D01*
X210913705Y-119243098D01*
X210922340Y-119242500D01*
X213735394Y-119242500D01*
X213779588Y-119260806D01*
X213784979Y-119266952D01*
X213820372Y-119313078D01*
X213822782Y-119316218D01*
X213932974Y-119400771D01*
X214061295Y-119453923D01*
X214061299Y-119453923D01*
X214061301Y-119453924D01*
X214198998Y-119472052D01*
X214199000Y-119472052D01*
X214199002Y-119472052D01*
X214336698Y-119453924D01*
X214336698Y-119453923D01*
X214336705Y-119453923D01*
X214465026Y-119400771D01*
X214575218Y-119316218D01*
X214659771Y-119206026D01*
X214712923Y-119077705D01*
X214728209Y-118961594D01*
X214731052Y-118940001D01*
X214731052Y-118939998D01*
X214712924Y-118802301D01*
X214712923Y-118802298D01*
X214712923Y-118802295D01*
X214659771Y-118673974D01*
X214575218Y-118563782D01*
X214465026Y-118479229D01*
X214336705Y-118426077D01*
X214336702Y-118426076D01*
X214336701Y-118426076D01*
X214336698Y-118426075D01*
X214199002Y-118407948D01*
X214198998Y-118407948D01*
X214061301Y-118426075D01*
X214061298Y-118426076D01*
X214061295Y-118426076D01*
X214061295Y-118426077D01*
X213932974Y-118479229D01*
X213822780Y-118563783D01*
X213784979Y-118613048D01*
X213743552Y-118636965D01*
X213735394Y-118637500D01*
X211048187Y-118637500D01*
X211003993Y-118619194D01*
X209947806Y-117563007D01*
X209929500Y-117518813D01*
X209929500Y-113411540D01*
X209931334Y-113400298D01*
X209930989Y-113400250D01*
X209931789Y-113394514D01*
X209929567Y-113346453D01*
X209929500Y-113343566D01*
X209929500Y-113323970D01*
X209929500Y-113323968D01*
X209929003Y-113321313D01*
X209928006Y-113312712D01*
X209927586Y-113303630D01*
X209926566Y-113281542D01*
X209920829Y-113268550D01*
X209916567Y-113254785D01*
X209913959Y-113240830D01*
X209913957Y-113240826D01*
X209897524Y-113214286D01*
X209893488Y-113206629D01*
X209880884Y-113178086D01*
X209880884Y-113178085D01*
X209870844Y-113168045D01*
X209861899Y-113156752D01*
X209854423Y-113144677D01*
X209829507Y-113125861D01*
X209822978Y-113120179D01*
X209629003Y-112926204D01*
X209622351Y-112916959D01*
X209622074Y-112917169D01*
X209618582Y-112912545D01*
X209583010Y-112880117D01*
X209580942Y-112878143D01*
X209567078Y-112864279D01*
X209564856Y-112862757D01*
X209558074Y-112857385D01*
X209535004Y-112836354D01*
X209535002Y-112836353D01*
X209521762Y-112831224D01*
X209509018Y-112824507D01*
X209508203Y-112823949D01*
X209497302Y-112816481D01*
X209497301Y-112816480D01*
X209466916Y-112809334D01*
X209458649Y-112806774D01*
X209429547Y-112795500D01*
X209415349Y-112795500D01*
X209401039Y-112793840D01*
X209387213Y-112790588D01*
X209387212Y-112790588D01*
X209356292Y-112794901D01*
X209347658Y-112795500D01*
X207788606Y-112795500D01*
X207744412Y-112777194D01*
X207739021Y-112771048D01*
X207738274Y-112770075D01*
X207701218Y-112721782D01*
X207591026Y-112637229D01*
X207462705Y-112584077D01*
X207462702Y-112584076D01*
X207462701Y-112584076D01*
X207462698Y-112584075D01*
X207325002Y-112565948D01*
X207324998Y-112565948D01*
X207187301Y-112584075D01*
X207187298Y-112584076D01*
X207187295Y-112584076D01*
X207187295Y-112584077D01*
X207058974Y-112637229D01*
X206948782Y-112721782D01*
X206864229Y-112831974D01*
X206812010Y-112958044D01*
X206811076Y-112960298D01*
X206811075Y-112960301D01*
X206792948Y-113097998D01*
X206792948Y-113098001D01*
X171231086Y-113098001D01*
X171352605Y-112976482D01*
X171362073Y-112968713D01*
X171374663Y-112960301D01*
X171378043Y-112958043D01*
X171433850Y-112874521D01*
X171448500Y-112800870D01*
X171453447Y-112776000D01*
X171452268Y-112770075D01*
X171449701Y-112757167D01*
X171448500Y-112744974D01*
X171448500Y-109911558D01*
X180041500Y-109911558D01*
X180046118Y-109934771D01*
X180048898Y-109948748D01*
X180048898Y-109948749D01*
X180077077Y-109990922D01*
X180099721Y-110006052D01*
X180119252Y-110019102D01*
X180156442Y-110026500D01*
X180156443Y-110026500D01*
X181031557Y-110026500D01*
X181031558Y-110026500D01*
X181068748Y-110019102D01*
X181110922Y-109990922D01*
X181139102Y-109948748D01*
X181146500Y-109911558D01*
X185121500Y-109911558D01*
X185126118Y-109934771D01*
X185128898Y-109948748D01*
X185128898Y-109948749D01*
X185157077Y-109990922D01*
X185179721Y-110006052D01*
X185199252Y-110019102D01*
X185236442Y-110026500D01*
X185236443Y-110026500D01*
X186111557Y-110026500D01*
X186111558Y-110026500D01*
X186148748Y-110019102D01*
X186190922Y-109990922D01*
X186219102Y-109948748D01*
X186226500Y-109911558D01*
X186226500Y-109036442D01*
X186219102Y-108999252D01*
X186219101Y-108999250D01*
X186190922Y-108957077D01*
X186148748Y-108928898D01*
X186111558Y-108921500D01*
X185236442Y-108921500D01*
X185217847Y-108925199D01*
X185199251Y-108928898D01*
X185199250Y-108928898D01*
X185157077Y-108957077D01*
X185128898Y-108999250D01*
X185128898Y-108999251D01*
X185128898Y-108999252D01*
X185121500Y-109036442D01*
X185121500Y-109911558D01*
X181146500Y-109911558D01*
X181146500Y-109036442D01*
X181139102Y-108999252D01*
X181139101Y-108999250D01*
X181110922Y-108957077D01*
X181068748Y-108928898D01*
X181031558Y-108921500D01*
X180156442Y-108921500D01*
X180137847Y-108925199D01*
X180119251Y-108928898D01*
X180119250Y-108928898D01*
X180077077Y-108957077D01*
X180048898Y-108999250D01*
X180048898Y-108999251D01*
X180048898Y-108999252D01*
X180041500Y-109036442D01*
X180041500Y-109911558D01*
X171448500Y-109911558D01*
X171448500Y-109759025D01*
X171449701Y-109746831D01*
X171452269Y-109733924D01*
X171453447Y-109728000D01*
X171433850Y-109629479D01*
X171411626Y-109596218D01*
X171378043Y-109545957D01*
X171378040Y-109545954D01*
X171362073Y-109535286D01*
X171352602Y-109527513D01*
X169942806Y-108117717D01*
X169924500Y-108073523D01*
X169924500Y-106863557D01*
X180041500Y-106863557D01*
X180048898Y-106900748D01*
X180048898Y-106900749D01*
X180077077Y-106942922D01*
X180105257Y-106961750D01*
X180119252Y-106971102D01*
X180156442Y-106978500D01*
X180156443Y-106978500D01*
X181031557Y-106978500D01*
X181031558Y-106978500D01*
X181068748Y-106971102D01*
X181110922Y-106942922D01*
X181139102Y-106900748D01*
X181146500Y-106863558D01*
X181146500Y-106863557D01*
X185121500Y-106863557D01*
X185128898Y-106900748D01*
X185128898Y-106900749D01*
X185157077Y-106942922D01*
X185185257Y-106961750D01*
X185199252Y-106971102D01*
X185236442Y-106978500D01*
X185236443Y-106978500D01*
X186111557Y-106978500D01*
X186111558Y-106978500D01*
X186148748Y-106971102D01*
X186190922Y-106942922D01*
X186219102Y-106900748D01*
X186226500Y-106863558D01*
X186226500Y-105988442D01*
X186219102Y-105951252D01*
X186219101Y-105951250D01*
X186190922Y-105909077D01*
X186148748Y-105880898D01*
X186111558Y-105873500D01*
X185236442Y-105873500D01*
X185217847Y-105877199D01*
X185199251Y-105880898D01*
X185199250Y-105880898D01*
X185157077Y-105909077D01*
X185128898Y-105951250D01*
X185128898Y-105951251D01*
X185121500Y-105988442D01*
X185121500Y-106863557D01*
X181146500Y-106863557D01*
X181146500Y-105988442D01*
X181139102Y-105951252D01*
X181139101Y-105951250D01*
X181110922Y-105909077D01*
X181068748Y-105880898D01*
X181031558Y-105873500D01*
X180156442Y-105873500D01*
X180137847Y-105877199D01*
X180119251Y-105880898D01*
X180119250Y-105880898D01*
X180077077Y-105909077D01*
X180048898Y-105951250D01*
X180048898Y-105951251D01*
X180041500Y-105988442D01*
X180041500Y-106863557D01*
X169924500Y-106863557D01*
X169924500Y-106457030D01*
X169925701Y-106444836D01*
X169929448Y-106426000D01*
X169911051Y-106333517D01*
X169910747Y-106330438D01*
X169909850Y-106327479D01*
X169854043Y-106243957D01*
X169854040Y-106243954D01*
X169838070Y-106233284D01*
X169828599Y-106225511D01*
X166062485Y-102459396D01*
X166054712Y-102449925D01*
X166044043Y-102433957D01*
X166002282Y-102406053D01*
X165960522Y-102378150D01*
X165960520Y-102378149D01*
X165937144Y-102373500D01*
X165862000Y-102358552D01*
X165861999Y-102358552D01*
X165843164Y-102362299D01*
X165830970Y-102363500D01*
X161283971Y-102363500D01*
X161239777Y-102345194D01*
X161234386Y-102339047D01*
X161158219Y-102239783D01*
X161158218Y-102239782D01*
X161074784Y-102175761D01*
X168579787Y-102175761D01*
X168607595Y-102428485D01*
X168609414Y-102445018D01*
X168677928Y-102707088D01*
X168783870Y-102956390D01*
X168857338Y-103076771D01*
X168924983Y-103187612D01*
X169098253Y-103395818D01*
X169098267Y-103395832D01*
X169299988Y-103576574D01*
X169299993Y-103576578D01*
X169299998Y-103576582D01*
X169300003Y-103576585D01*
X169525906Y-103726042D01*
X169525908Y-103726043D01*
X169525910Y-103726044D01*
X169771176Y-103841020D01*
X170030569Y-103919060D01*
X170298561Y-103958500D01*
X170298562Y-103958500D01*
X170501628Y-103958500D01*
X170501631Y-103958500D01*
X170501634Y-103958499D01*
X170501652Y-103958499D01*
X170704147Y-103943678D01*
X170704149Y-103943677D01*
X170704156Y-103943677D01*
X170968553Y-103884780D01*
X171221558Y-103788014D01*
X171457777Y-103655441D01*
X171672177Y-103489888D01*
X171860186Y-103294881D01*
X171938992Y-103184730D01*
X171982441Y-103124000D01*
X194343770Y-103124000D01*
X194362642Y-103315622D01*
X194362643Y-103315624D01*
X194418538Y-103499883D01*
X194452112Y-103562695D01*
X194509302Y-103669692D01*
X194509306Y-103669698D01*
X194631459Y-103818541D01*
X194780302Y-103940694D01*
X194780304Y-103940695D01*
X194780307Y-103940697D01*
X194813613Y-103958499D01*
X194950117Y-104031462D01*
X195134376Y-104087357D01*
X195326000Y-104106230D01*
X195517624Y-104087357D01*
X195701883Y-104031462D01*
X195871698Y-103940694D01*
X196020541Y-103818541D01*
X196142694Y-103669698D01*
X196233462Y-103499883D01*
X196289357Y-103315624D01*
X196308230Y-103124000D01*
X196289357Y-102932376D01*
X196233462Y-102748117D01*
X196142694Y-102578302D01*
X196020541Y-102429459D01*
X195871698Y-102307306D01*
X195871692Y-102307302D01*
X195745369Y-102239782D01*
X195701883Y-102216538D01*
X195567461Y-102175761D01*
X195517622Y-102160642D01*
X195326000Y-102141770D01*
X195134377Y-102160642D01*
X195042792Y-102188425D01*
X194950117Y-102216538D01*
X194950115Y-102216538D01*
X194950115Y-102216539D01*
X194780307Y-102307302D01*
X194780301Y-102307306D01*
X194631459Y-102429459D01*
X194509306Y-102578301D01*
X194509302Y-102578307D01*
X194440469Y-102707087D01*
X194418538Y-102748117D01*
X194398369Y-102814604D01*
X194362642Y-102932377D01*
X194343770Y-103123999D01*
X194343770Y-103124000D01*
X171982441Y-103124000D01*
X172017795Y-103074585D01*
X172017795Y-103074583D01*
X172017799Y-103074579D01*
X172141656Y-102833675D01*
X172164721Y-102766068D01*
X172184842Y-102707087D01*
X172229118Y-102577305D01*
X172278319Y-102310933D01*
X172288212Y-102040235D01*
X172258586Y-101770982D01*
X172190072Y-101508912D01*
X172084130Y-101259610D01*
X171943018Y-101028390D01*
X171858619Y-100926974D01*
X171769746Y-100820181D01*
X171769732Y-100820167D01*
X171568011Y-100639425D01*
X171568004Y-100639420D01*
X171568002Y-100639418D01*
X171537666Y-100619348D01*
X171342093Y-100489957D01*
X171342091Y-100489956D01*
X171139673Y-100395067D01*
X171096824Y-100374980D01*
X171096821Y-100374979D01*
X171096819Y-100374978D01*
X170837440Y-100296942D01*
X170837426Y-100296939D01*
X170569445Y-100257500D01*
X170569439Y-100257500D01*
X170366369Y-100257500D01*
X170366347Y-100257500D01*
X170163852Y-100272321D01*
X169899447Y-100331220D01*
X169899445Y-100331220D01*
X169646440Y-100427986D01*
X169410223Y-100560558D01*
X169195824Y-100726111D01*
X169195815Y-100726118D01*
X169007817Y-100921115D01*
X169007809Y-100921124D01*
X168850204Y-101141414D01*
X168726340Y-101382332D01*
X168638886Y-101638681D01*
X168638880Y-101638701D01*
X168589682Y-101905058D01*
X168589680Y-101905079D01*
X168579787Y-102175761D01*
X161074784Y-102175761D01*
X161048026Y-102155229D01*
X160919705Y-102102077D01*
X160919702Y-102102076D01*
X160919701Y-102102076D01*
X160919698Y-102102075D01*
X160782002Y-102083948D01*
X160781998Y-102083948D01*
X160644301Y-102102075D01*
X160644298Y-102102076D01*
X160644295Y-102102076D01*
X160644295Y-102102077D01*
X160515974Y-102155229D01*
X160405782Y-102239782D01*
X160321229Y-102349974D01*
X160288306Y-102429459D01*
X160268076Y-102478298D01*
X160268075Y-102478301D01*
X160249948Y-102615998D01*
X160249948Y-102616001D01*
X160268075Y-102753698D01*
X160268076Y-102753701D01*
X160268077Y-102753705D01*
X160321229Y-102882026D01*
X160405782Y-102992218D01*
X160515974Y-103076771D01*
X160644295Y-103129923D01*
X160644299Y-103129923D01*
X160644301Y-103129924D01*
X160781998Y-103148052D01*
X160782000Y-103148052D01*
X160782002Y-103148052D01*
X160919698Y-103129924D01*
X160919698Y-103129923D01*
X160919705Y-103129923D01*
X161048026Y-103076771D01*
X161158218Y-102992218D01*
X161234386Y-102892952D01*
X161275813Y-102869035D01*
X161283971Y-102868500D01*
X165731523Y-102868500D01*
X165775717Y-102886806D01*
X169401194Y-106512282D01*
X169419500Y-106556476D01*
X169419500Y-108172969D01*
X169418299Y-108185162D01*
X169414552Y-108203999D01*
X169425990Y-108261500D01*
X169434150Y-108302521D01*
X169434150Y-108302522D01*
X169456374Y-108335782D01*
X169489957Y-108386043D01*
X169505925Y-108396712D01*
X169515396Y-108404485D01*
X170925194Y-109814283D01*
X170943500Y-109858477D01*
X170943500Y-112645523D01*
X170925194Y-112689717D01*
X170601717Y-113013194D01*
X170557523Y-113031500D01*
X168649971Y-113031500D01*
X168605777Y-113013194D01*
X168600386Y-113007047D01*
X168564512Y-112960295D01*
X168524218Y-112907782D01*
X168414026Y-112823229D01*
X168285705Y-112770077D01*
X168285702Y-112770076D01*
X168285701Y-112770076D01*
X168285698Y-112770075D01*
X168148002Y-112751948D01*
X168147998Y-112751948D01*
X168010301Y-112770075D01*
X168010298Y-112770076D01*
X168010295Y-112770076D01*
X168010295Y-112770077D01*
X167881974Y-112823229D01*
X167771782Y-112907782D01*
X167731488Y-112960295D01*
X167687227Y-113017977D01*
X167639264Y-113133770D01*
X167605440Y-113167595D01*
X167557604Y-113167594D01*
X167539192Y-113155835D01*
X167532978Y-113150115D01*
X167521352Y-113139412D01*
X167519488Y-113137623D01*
X166669201Y-112287335D01*
X166661073Y-112277326D01*
X166651578Y-112262793D01*
X166651576Y-112262791D01*
X166623420Y-112240876D01*
X166617615Y-112235749D01*
X166614814Y-112232948D01*
X166596731Y-112220036D01*
X166594678Y-112218505D01*
X166557972Y-112189936D01*
X166552155Y-112185408D01*
X166552152Y-112185407D01*
X166547598Y-112182942D01*
X166547623Y-112182895D01*
X166542760Y-112180392D01*
X166542737Y-112180441D01*
X166538091Y-112178169D01*
X166538089Y-112178168D01*
X166486426Y-112162787D01*
X166483973Y-112162001D01*
X166467885Y-112156478D01*
X166432994Y-112144500D01*
X166432993Y-112144500D01*
X166432990Y-112144499D01*
X166427884Y-112143647D01*
X166427892Y-112143594D01*
X166422485Y-112142806D01*
X166422479Y-112142859D01*
X166417343Y-112142218D01*
X166363477Y-112144447D01*
X166360894Y-112144500D01*
X165790253Y-112144500D01*
X165746059Y-112126194D01*
X164987806Y-111367940D01*
X164969500Y-111323746D01*
X164969500Y-109773630D01*
X164970830Y-109760804D01*
X164971203Y-109759025D01*
X164974392Y-109743816D01*
X164974391Y-109743812D01*
X164974392Y-109743810D01*
X164969980Y-109708419D01*
X164969500Y-109700688D01*
X164969500Y-109696723D01*
X164969499Y-109696715D01*
X164966838Y-109680771D01*
X164965840Y-109674792D01*
X164965473Y-109672268D01*
X164960140Y-109629480D01*
X164958809Y-109618796D01*
X164958807Y-109618792D01*
X164957332Y-109613836D01*
X164957384Y-109613820D01*
X164955714Y-109608609D01*
X164955664Y-109608627D01*
X164953984Y-109603732D01*
X164928336Y-109556339D01*
X164927154Y-109554042D01*
X164903477Y-109505612D01*
X164900467Y-109501396D01*
X164900510Y-109501364D01*
X164897241Y-109496980D01*
X164897199Y-109497014D01*
X164894019Y-109492927D01*
X164854364Y-109456423D01*
X164852500Y-109454634D01*
X164630777Y-109232911D01*
X164613006Y-109196875D01*
X164597923Y-109082295D01*
X164544771Y-108953974D01*
X164460218Y-108843782D01*
X164350026Y-108759229D01*
X164221705Y-108706077D01*
X164221702Y-108706076D01*
X164221701Y-108706076D01*
X164221698Y-108706075D01*
X164220859Y-108705965D01*
X164220489Y-108705751D01*
X164217745Y-108705016D01*
X164217942Y-108704280D01*
X164179433Y-108682048D01*
X164167052Y-108635842D01*
X164190969Y-108594416D01*
X164229017Y-108581500D01*
X165168000Y-108581500D01*
X165212194Y-108599806D01*
X165230500Y-108644000D01*
X165230500Y-109078236D01*
X165217585Y-109116283D01*
X165147229Y-109207974D01*
X165094076Y-109336298D01*
X165094075Y-109336301D01*
X165075948Y-109473998D01*
X165075948Y-109474001D01*
X165094075Y-109611698D01*
X165094076Y-109611701D01*
X165094077Y-109611705D01*
X165147229Y-109740026D01*
X165231782Y-109850218D01*
X165341974Y-109934771D01*
X165470295Y-109987923D01*
X165470299Y-109987923D01*
X165470301Y-109987924D01*
X165607998Y-110006052D01*
X165608000Y-110006052D01*
X165608002Y-110006052D01*
X165745698Y-109987924D01*
X165745698Y-109987923D01*
X165745705Y-109987923D01*
X165874026Y-109934771D01*
X165984218Y-109850218D01*
X166068771Y-109740026D01*
X166121923Y-109611705D01*
X166140052Y-109474000D01*
X166137502Y-109454634D01*
X166121924Y-109336301D01*
X166121923Y-109336298D01*
X166121923Y-109336295D01*
X166068771Y-109207974D01*
X165998415Y-109116283D01*
X165985500Y-109078236D01*
X165985500Y-108222207D01*
X165985713Y-108217046D01*
X165986794Y-108203999D01*
X165989413Y-108172395D01*
X165978416Y-108128971D01*
X165977355Y-108123914D01*
X165976321Y-108117717D01*
X165969983Y-108079731D01*
X165966105Y-108072566D01*
X165960485Y-108058163D01*
X165958485Y-108050263D01*
X165933983Y-108012760D01*
X165931339Y-108008323D01*
X165928497Y-108003073D01*
X165910020Y-107968929D01*
X165910018Y-107968927D01*
X165910017Y-107968925D01*
X165904027Y-107963412D01*
X165894031Y-107951610D01*
X165889576Y-107944791D01*
X165889575Y-107944790D01*
X165854223Y-107917274D01*
X165850282Y-107913936D01*
X165817327Y-107883599D01*
X165809867Y-107880327D01*
X165796585Y-107872413D01*
X165790153Y-107867406D01*
X165747792Y-107852864D01*
X165742981Y-107850987D01*
X165701953Y-107832991D01*
X165693826Y-107832317D01*
X165678703Y-107829146D01*
X165670994Y-107826500D01*
X165626208Y-107826500D01*
X165621048Y-107826287D01*
X165600531Y-107824587D01*
X165576395Y-107822587D01*
X165576394Y-107822587D01*
X165576393Y-107822587D01*
X165576392Y-107822587D01*
X165568497Y-107824587D01*
X165553153Y-107826500D01*
X163367630Y-107826500D01*
X163354804Y-107825170D01*
X163337816Y-107821608D01*
X163337814Y-107821607D01*
X163305661Y-107825615D01*
X163302417Y-107826020D01*
X163294689Y-107826500D01*
X163290718Y-107826500D01*
X163268815Y-107830154D01*
X163266262Y-107830526D01*
X163212795Y-107837190D01*
X163207837Y-107838667D01*
X163207822Y-107838616D01*
X163202612Y-107840285D01*
X163202630Y-107840335D01*
X163197730Y-107842017D01*
X163150320Y-107867673D01*
X163148026Y-107868854D01*
X163099608Y-107892524D01*
X163095395Y-107895533D01*
X163095365Y-107895492D01*
X163090982Y-107898760D01*
X163091014Y-107898801D01*
X163086927Y-107901981D01*
X163050422Y-107941635D01*
X163048635Y-107943497D01*
X162579333Y-108412799D01*
X162569326Y-108420926D01*
X162554793Y-108430421D01*
X162554791Y-108430423D01*
X162532873Y-108458581D01*
X162527758Y-108464375D01*
X162524948Y-108467185D01*
X162512061Y-108485233D01*
X162510521Y-108487298D01*
X162477409Y-108529843D01*
X162474944Y-108534399D01*
X162474898Y-108534374D01*
X162472396Y-108539235D01*
X162472443Y-108539258D01*
X162470166Y-108543915D01*
X162454785Y-108595574D01*
X162453998Y-108598031D01*
X162436499Y-108649006D01*
X162435647Y-108654116D01*
X162435594Y-108654107D01*
X162434806Y-108659514D01*
X162434859Y-108659521D01*
X162434218Y-108664656D01*
X162436447Y-108718521D01*
X162436500Y-108721104D01*
X162436500Y-110053746D01*
X162418194Y-110097940D01*
X160643940Y-111872194D01*
X160599746Y-111890500D01*
X158678253Y-111890500D01*
X158634059Y-111872194D01*
X157875806Y-111113940D01*
X157857500Y-111069746D01*
X157857500Y-109107763D01*
X157870414Y-109069716D01*
X157940771Y-108978026D01*
X157993923Y-108849705D01*
X158005834Y-108759229D01*
X158012052Y-108712001D01*
X158012052Y-108711998D01*
X157993924Y-108574301D01*
X157993923Y-108574298D01*
X157993923Y-108574295D01*
X157940771Y-108445974D01*
X157856218Y-108335782D01*
X157746026Y-108251229D01*
X157617705Y-108198077D01*
X157617702Y-108198076D01*
X157617701Y-108198076D01*
X157617698Y-108198075D01*
X157480002Y-108179948D01*
X157479998Y-108179948D01*
X157342301Y-108198075D01*
X157342298Y-108198076D01*
X157342295Y-108198076D01*
X157342295Y-108198077D01*
X157213974Y-108251229D01*
X157103782Y-108335782D01*
X157019229Y-108445974D01*
X156978663Y-108543911D01*
X156966076Y-108574298D01*
X156966075Y-108574301D01*
X156947948Y-108711998D01*
X156947948Y-108712001D01*
X156966075Y-108849698D01*
X156966076Y-108849701D01*
X156966077Y-108849705D01*
X157019229Y-108978026D01*
X157089585Y-109069716D01*
X157102500Y-109107763D01*
X157102500Y-111206364D01*
X157101170Y-111219190D01*
X157097607Y-111236182D01*
X157097606Y-111236186D01*
X157102020Y-111271588D01*
X157102500Y-111279319D01*
X157102500Y-111283280D01*
X157106150Y-111305161D01*
X157106522Y-111307713D01*
X157113190Y-111361207D01*
X157114668Y-111366169D01*
X157114617Y-111366183D01*
X157116285Y-111371388D01*
X157116335Y-111371371D01*
X157118016Y-111376269D01*
X157143673Y-111423678D01*
X157144855Y-111425975D01*
X157168521Y-111474385D01*
X157171531Y-111478600D01*
X157171487Y-111478631D01*
X157174757Y-111483016D01*
X157174800Y-111482984D01*
X157177977Y-111487067D01*
X157177980Y-111487071D01*
X157177983Y-111487073D01*
X157177984Y-111487075D01*
X157217646Y-111523587D01*
X157219510Y-111525375D01*
X158196800Y-112502666D01*
X158204924Y-112512669D01*
X158214424Y-112527209D01*
X158214425Y-112527210D01*
X158242574Y-112549119D01*
X158248380Y-112554246D01*
X158251186Y-112557052D01*
X158269268Y-112569962D01*
X158271319Y-112571493D01*
X158287486Y-112584076D01*
X158313845Y-112604592D01*
X158313849Y-112604593D01*
X158318403Y-112607058D01*
X158318376Y-112607106D01*
X158323232Y-112609605D01*
X158323256Y-112609557D01*
X158327907Y-112611831D01*
X158379580Y-112627214D01*
X158382027Y-112627998D01*
X158433006Y-112645500D01*
X158433007Y-112645500D01*
X158438115Y-112646353D01*
X158438106Y-112646405D01*
X158443514Y-112647193D01*
X158443521Y-112647141D01*
X158448656Y-112647781D01*
X158448659Y-112647780D01*
X158448660Y-112647781D01*
X158502523Y-112645553D01*
X158505106Y-112645500D01*
X160736365Y-112645500D01*
X160749191Y-112646830D01*
X160766184Y-112650393D01*
X160766185Y-112650392D01*
X160766186Y-112650393D01*
X160801588Y-112645980D01*
X160809319Y-112645500D01*
X160813275Y-112645500D01*
X160813281Y-112645500D01*
X160835217Y-112641838D01*
X160837664Y-112641482D01*
X160891203Y-112634810D01*
X160891209Y-112634806D01*
X160896169Y-112633331D01*
X160896184Y-112633384D01*
X160901387Y-112631717D01*
X160901369Y-112631665D01*
X160906267Y-112629983D01*
X160906269Y-112629983D01*
X160953679Y-112604324D01*
X160955956Y-112603152D01*
X161004389Y-112579476D01*
X161004393Y-112579471D01*
X161008604Y-112576466D01*
X161008636Y-112576511D01*
X161013015Y-112573246D01*
X161012981Y-112573203D01*
X161017068Y-112570022D01*
X161017068Y-112570021D01*
X161017071Y-112570020D01*
X161053622Y-112530313D01*
X161055340Y-112528523D01*
X163048668Y-110535196D01*
X163058672Y-110527072D01*
X163066903Y-110521695D01*
X163073205Y-110517579D01*
X163073206Y-110517577D01*
X163073209Y-110517576D01*
X163095120Y-110489422D01*
X163100245Y-110483619D01*
X163103052Y-110480814D01*
X163115971Y-110462718D01*
X163117454Y-110460729D01*
X163150592Y-110418155D01*
X163150593Y-110418149D01*
X163153057Y-110413599D01*
X163153105Y-110413625D01*
X163155607Y-110408765D01*
X163155557Y-110408741D01*
X163157833Y-110404086D01*
X163160029Y-110396706D01*
X163173220Y-110352398D01*
X163173982Y-110350018D01*
X163191500Y-110298994D01*
X163191500Y-110298991D01*
X163191501Y-110298989D01*
X163192353Y-110293885D01*
X163192405Y-110293893D01*
X163193194Y-110288482D01*
X163193141Y-110288476D01*
X163193781Y-110283343D01*
X163191553Y-110229477D01*
X163191500Y-110226894D01*
X163191500Y-108894253D01*
X163209806Y-108850059D01*
X163460059Y-108599806D01*
X163504253Y-108581500D01*
X163938983Y-108581500D01*
X163983177Y-108599806D01*
X164001483Y-108644000D01*
X163983177Y-108688194D01*
X163950116Y-108704497D01*
X163950255Y-108705016D01*
X163947649Y-108705714D01*
X163947141Y-108705965D01*
X163946301Y-108706075D01*
X163946298Y-108706076D01*
X163946295Y-108706076D01*
X163946295Y-108706077D01*
X163817974Y-108759229D01*
X163707782Y-108843782D01*
X163623229Y-108953974D01*
X163571759Y-109078236D01*
X163570076Y-109082298D01*
X163570075Y-109082301D01*
X163551948Y-109219998D01*
X163551948Y-109220001D01*
X163570075Y-109357698D01*
X163570076Y-109357701D01*
X163570077Y-109357705D01*
X163623229Y-109486026D01*
X163707782Y-109596218D01*
X163817974Y-109680771D01*
X163946295Y-109733923D01*
X163946301Y-109733923D01*
X163946302Y-109733924D01*
X163959411Y-109735649D01*
X164060877Y-109749007D01*
X164096913Y-109766778D01*
X164196194Y-109866059D01*
X164214500Y-109910253D01*
X164214500Y-111460364D01*
X164213170Y-111473190D01*
X164209607Y-111490182D01*
X164209606Y-111490186D01*
X164214020Y-111525588D01*
X164214500Y-111533319D01*
X164214500Y-111537280D01*
X164218150Y-111559161D01*
X164218522Y-111561713D01*
X164225190Y-111615207D01*
X164226668Y-111620169D01*
X164226617Y-111620183D01*
X164228285Y-111625388D01*
X164228335Y-111625371D01*
X164230016Y-111630269D01*
X164255673Y-111677678D01*
X164256855Y-111679975D01*
X164280521Y-111728385D01*
X164283531Y-111732600D01*
X164283487Y-111732631D01*
X164286757Y-111737016D01*
X164286800Y-111736984D01*
X164289977Y-111741067D01*
X164289980Y-111741071D01*
X164289983Y-111741073D01*
X164289984Y-111741075D01*
X164329646Y-111777587D01*
X164331510Y-111779375D01*
X165308800Y-112756666D01*
X165316924Y-112766669D01*
X165326424Y-112781209D01*
X165326425Y-112781210D01*
X165354574Y-112803119D01*
X165360380Y-112808246D01*
X165363186Y-112811052D01*
X165381268Y-112823962D01*
X165383319Y-112825493D01*
X165422566Y-112856040D01*
X165425845Y-112858592D01*
X165425849Y-112858593D01*
X165430403Y-112861058D01*
X165430376Y-112861106D01*
X165435232Y-112863605D01*
X165435256Y-112863557D01*
X165439907Y-112865831D01*
X165491580Y-112881214D01*
X165494027Y-112881998D01*
X165545006Y-112899500D01*
X165545007Y-112899500D01*
X165550115Y-112900353D01*
X165550106Y-112900405D01*
X165555514Y-112901193D01*
X165555521Y-112901141D01*
X165560656Y-112901781D01*
X165560659Y-112901780D01*
X165560660Y-112901781D01*
X165614523Y-112899553D01*
X165617106Y-112899500D01*
X166187747Y-112899500D01*
X166231941Y-112917806D01*
X166375862Y-113061727D01*
X166394168Y-113105921D01*
X166375862Y-113150115D01*
X166331668Y-113168421D01*
X166314061Y-113165890D01*
X166283331Y-113156867D01*
X166246002Y-113151500D01*
X166246000Y-113151500D01*
X163192000Y-113151500D01*
X163191992Y-113151500D01*
X163163841Y-113154527D01*
X163163838Y-113154527D01*
X163163834Y-113154528D01*
X163112323Y-113165734D01*
X163112322Y-113165734D01*
X163112319Y-113165735D01*
X163053720Y-113195068D01*
X163000917Y-113240822D01*
X162960550Y-113303632D01*
X162940868Y-113370662D01*
X162940867Y-113370666D01*
X162935500Y-113407998D01*
X162935500Y-122387126D01*
X162935570Y-122391480D01*
X162935833Y-122399557D01*
X162935834Y-122399561D01*
X162943838Y-122440786D01*
X162967854Y-122506392D01*
X162967858Y-122506403D01*
X162985731Y-122539612D01*
X167147582Y-128170351D01*
X167159130Y-128216771D01*
X167134470Y-128257761D01*
X167097321Y-128270000D01*
X148315514Y-128270000D01*
X148298211Y-128267557D01*
X148202303Y-128239925D01*
X148197208Y-128238217D01*
X148048606Y-128181175D01*
X148047086Y-128180569D01*
X147900009Y-128119648D01*
X147895552Y-128117593D01*
X147753011Y-128044964D01*
X147751154Y-128043978D01*
X147612549Y-127967374D01*
X147608741Y-127965089D01*
X147474194Y-127877713D01*
X147472067Y-127876268D01*
X147343259Y-127784873D01*
X147340094Y-127782473D01*
X147215275Y-127681397D01*
X147212960Y-127679428D01*
X147095286Y-127574268D01*
X147092739Y-127571859D01*
X146979139Y-127458259D01*
X146976730Y-127455712D01*
X146871570Y-127338038D01*
X146869601Y-127335723D01*
X146768525Y-127210904D01*
X146766125Y-127207739D01*
X146674730Y-127078931D01*
X146673297Y-127076822D01*
X146585901Y-126942244D01*
X146583632Y-126938463D01*
X146507010Y-126799825D01*
X146506034Y-126797987D01*
X146433397Y-126655430D01*
X146431357Y-126651006D01*
X146370411Y-126503866D01*
X146369842Y-126502440D01*
X146312777Y-126353779D01*
X146311074Y-126348698D01*
X146306442Y-126332617D01*
X146304000Y-126315318D01*
X146304000Y-123765761D01*
X152831787Y-123765761D01*
X152857156Y-123996319D01*
X152861414Y-124035018D01*
X152929928Y-124297088D01*
X153035870Y-124546390D01*
X153108000Y-124664579D01*
X153176983Y-124777612D01*
X153350253Y-124985818D01*
X153350267Y-124985832D01*
X153551988Y-125166574D01*
X153551993Y-125166578D01*
X153551998Y-125166582D01*
X153552003Y-125166585D01*
X153777906Y-125316042D01*
X153777908Y-125316043D01*
X153777910Y-125316044D01*
X154023176Y-125431020D01*
X154282569Y-125509060D01*
X154550561Y-125548500D01*
X154550562Y-125548500D01*
X154753628Y-125548500D01*
X154753631Y-125548500D01*
X154753634Y-125548499D01*
X154753652Y-125548499D01*
X154956147Y-125533678D01*
X154956149Y-125533677D01*
X154956156Y-125533677D01*
X155220553Y-125474780D01*
X155473558Y-125378014D01*
X155709777Y-125245441D01*
X155924177Y-125079888D01*
X156112186Y-124884881D01*
X156269799Y-124664579D01*
X156393656Y-124423675D01*
X156481118Y-124167305D01*
X156530319Y-123900933D01*
X156540212Y-123630235D01*
X156510586Y-123360982D01*
X156442072Y-123098912D01*
X156336130Y-122849610D01*
X156195018Y-122618390D01*
X156146244Y-122559782D01*
X156021746Y-122410181D01*
X156021732Y-122410167D01*
X155820011Y-122229425D01*
X155820004Y-122229420D01*
X155820002Y-122229418D01*
X155766932Y-122194307D01*
X155594093Y-122079957D01*
X155594091Y-122079956D01*
X155452610Y-122013633D01*
X155348824Y-121964980D01*
X155348821Y-121964979D01*
X155348819Y-121964978D01*
X155089440Y-121886942D01*
X155089426Y-121886939D01*
X154821445Y-121847500D01*
X154821439Y-121847500D01*
X154618369Y-121847500D01*
X154618347Y-121847500D01*
X154415852Y-121862321D01*
X154151447Y-121921220D01*
X154151445Y-121921220D01*
X153898440Y-122017986D01*
X153662223Y-122150558D01*
X153447824Y-122316111D01*
X153447815Y-122316118D01*
X153259817Y-122511115D01*
X153259809Y-122511124D01*
X153102204Y-122731414D01*
X152978340Y-122972332D01*
X152890886Y-123228681D01*
X152890880Y-123228701D01*
X152841682Y-123495058D01*
X152841680Y-123495079D01*
X152831787Y-123765761D01*
X146304000Y-123765761D01*
X146304000Y-112189936D01*
X147741668Y-112189936D01*
X147772134Y-112362707D01*
X147772135Y-112362711D01*
X147841623Y-112523804D01*
X147946390Y-112664530D01*
X147946391Y-112664531D01*
X147946392Y-112664532D01*
X148080783Y-112777300D01*
X148080784Y-112777300D01*
X148080786Y-112777302D01*
X148237567Y-112856040D01*
X148269486Y-112863605D01*
X148408273Y-112896499D01*
X148408277Y-112896499D01*
X148408279Y-112896500D01*
X148408280Y-112896500D01*
X148539709Y-112896500D01*
X148539724Y-112896499D01*
X148628791Y-112886087D01*
X148670255Y-112881241D01*
X148835117Y-112821237D01*
X148981696Y-112724830D01*
X149102092Y-112597218D01*
X149189812Y-112445281D01*
X149240130Y-112277210D01*
X149250331Y-112102065D01*
X149219865Y-111929289D01*
X149150377Y-111768196D01*
X149045610Y-111627470D01*
X149045607Y-111627468D01*
X149045607Y-111627467D01*
X148911216Y-111514699D01*
X148754436Y-111435961D01*
X148754427Y-111435958D01*
X148583726Y-111395500D01*
X148583721Y-111395500D01*
X148452291Y-111395500D01*
X148452275Y-111395500D01*
X148321747Y-111410758D01*
X148156883Y-111470762D01*
X148010305Y-111567168D01*
X147889909Y-111694780D01*
X147889907Y-111694783D01*
X147802187Y-111846721D01*
X147751869Y-112014792D01*
X147741668Y-112189936D01*
X146304000Y-112189936D01*
X146304000Y-104189936D01*
X147741668Y-104189936D01*
X147757058Y-104277210D01*
X147772135Y-104362711D01*
X147841623Y-104523804D01*
X147946390Y-104664530D01*
X147946391Y-104664531D01*
X147946392Y-104664532D01*
X148080783Y-104777300D01*
X148080784Y-104777300D01*
X148080786Y-104777302D01*
X148237567Y-104856040D01*
X148289601Y-104868372D01*
X148408273Y-104896499D01*
X148408277Y-104896499D01*
X148408279Y-104896500D01*
X148408280Y-104896500D01*
X148539709Y-104896500D01*
X148539724Y-104896499D01*
X148628791Y-104886087D01*
X148670255Y-104881241D01*
X148835117Y-104821237D01*
X148981696Y-104724830D01*
X149102092Y-104597218D01*
X149189812Y-104445281D01*
X149240130Y-104277210D01*
X149250331Y-104102065D01*
X149250231Y-104101500D01*
X149229963Y-103986557D01*
X149219865Y-103929289D01*
X149150377Y-103768196D01*
X149045610Y-103627470D01*
X149045607Y-103627468D01*
X149045607Y-103627467D01*
X148911216Y-103514699D01*
X148754436Y-103435961D01*
X148754427Y-103435958D01*
X148583726Y-103395500D01*
X148583721Y-103395500D01*
X148452291Y-103395500D01*
X148452275Y-103395500D01*
X148321747Y-103410758D01*
X148156883Y-103470762D01*
X148010305Y-103567168D01*
X147889909Y-103694780D01*
X147889907Y-103694783D01*
X147802187Y-103846721D01*
X147751869Y-104014792D01*
X147741668Y-104189936D01*
X146304000Y-104189936D01*
X146304000Y-100478681D01*
X146306442Y-100461382D01*
X146311074Y-100445301D01*
X146312774Y-100440227D01*
X146369864Y-100291500D01*
X146370389Y-100290184D01*
X146431366Y-100142974D01*
X146433388Y-100138588D01*
X146506070Y-99995941D01*
X146506983Y-99994223D01*
X146583646Y-99855511D01*
X146585885Y-99851780D01*
X146673327Y-99717131D01*
X146674687Y-99715130D01*
X146766148Y-99586227D01*
X146768501Y-99583125D01*
X146869641Y-99458227D01*
X146871529Y-99456007D01*
X146976764Y-99338249D01*
X146979103Y-99335776D01*
X147092776Y-99222103D01*
X147095249Y-99219764D01*
X147213007Y-99114529D01*
X147215227Y-99112641D01*
X147340125Y-99011501D01*
X147343227Y-99009148D01*
X147472130Y-98917687D01*
X147474131Y-98916327D01*
X147608780Y-98828885D01*
X147612511Y-98826646D01*
X147751223Y-98749983D01*
X147752941Y-98749070D01*
X147895588Y-98676388D01*
X147899974Y-98674366D01*
X148047184Y-98613389D01*
X148048500Y-98612864D01*
X148196247Y-98556150D01*
X148218643Y-98552000D01*
X176658585Y-98552000D01*
X176702779Y-98570306D01*
G37*
%TD.AperFunction*%
%TD*%
%TA.AperFunction,Conductor*%
%TO.N,5V*%
G36*
X166313039Y-113303685D02*
G01*
X166358794Y-113356489D01*
X166370000Y-113408000D01*
X166370000Y-116208000D01*
X166350315Y-116275039D01*
X166297511Y-116320794D01*
X166246000Y-116332000D01*
X164846000Y-116332000D01*
X164846000Y-121666000D01*
X167894000Y-125984000D01*
X168786000Y-125984000D01*
X168853039Y-126003685D01*
X168898794Y-126056489D01*
X168910000Y-126108000D01*
X168910000Y-128270000D01*
X167448543Y-128270000D01*
X167381504Y-128250315D01*
X167348825Y-128219704D01*
X163092282Y-122460852D01*
X163068264Y-122395241D01*
X163068000Y-122387148D01*
X163068000Y-113408000D01*
X163087685Y-113340961D01*
X163140489Y-113295206D01*
X163192000Y-113284000D01*
X166246000Y-113284000D01*
X166313039Y-113303685D01*
G37*
%TD.AperFunction*%
%TD*%
%TA.AperFunction,Conductor*%
%TO.N,5V*%
G36*
X205683039Y-123971685D02*
G01*
X205728794Y-124024489D01*
X205740000Y-124076000D01*
X205740000Y-128146000D01*
X205720315Y-128213039D01*
X205667511Y-128258794D01*
X205616000Y-128270000D01*
X182165449Y-128270000D01*
X182098505Y-128250342D01*
X182051126Y-128269416D01*
X182039103Y-128270000D01*
X168910000Y-128270000D01*
X168910000Y-126746000D01*
X172726500Y-126746000D01*
X172793539Y-126765685D01*
X172839294Y-126818489D01*
X172850500Y-126870000D01*
X172850500Y-127425485D01*
X172856791Y-127475275D01*
X172865384Y-127543293D01*
X172895290Y-127618827D01*
X172923746Y-127690702D01*
X172923747Y-127690703D01*
X173016937Y-127818967D01*
X173139097Y-127920026D01*
X173139098Y-127920026D01*
X173139100Y-127920028D01*
X173210824Y-127953778D01*
X173282551Y-127987531D01*
X173438286Y-128017239D01*
X173596516Y-128007284D01*
X173747300Y-127958291D01*
X173881162Y-127873340D01*
X173989693Y-127757767D01*
X174066072Y-127618834D01*
X174105500Y-127465272D01*
X174105500Y-126870000D01*
X174125185Y-126802961D01*
X174177989Y-126757206D01*
X174229500Y-126746000D01*
X181366500Y-126746000D01*
X181433539Y-126765685D01*
X181479294Y-126818489D01*
X181490500Y-126870000D01*
X181490500Y-127435485D01*
X181502677Y-127531871D01*
X181505384Y-127553293D01*
X181535290Y-127628827D01*
X181563746Y-127700702D01*
X181563747Y-127700703D01*
X181656937Y-127828967D01*
X181779097Y-127930026D01*
X181779098Y-127930026D01*
X181779100Y-127930028D01*
X181850824Y-127963778D01*
X181922551Y-127997531D01*
X182062340Y-128024197D01*
X182102691Y-128044903D01*
X182130514Y-128027023D01*
X182157663Y-128022245D01*
X182236516Y-128017284D01*
X182387300Y-127968291D01*
X182521162Y-127883340D01*
X182629693Y-127767767D01*
X182706072Y-127628834D01*
X182745500Y-127475272D01*
X182745500Y-126870000D01*
X182765185Y-126802961D01*
X182817989Y-126757206D01*
X182869500Y-126746000D01*
X202946000Y-126746000D01*
X202946000Y-124076000D01*
X202965685Y-124008961D01*
X203018489Y-123963206D01*
X203070000Y-123952000D01*
X205616000Y-123952000D01*
X205683039Y-123971685D01*
G37*
%TD.AperFunction*%
%TD*%
%TA.AperFunction,Conductor*%
%TO.N,VBUS*%
G36*
X206476358Y-98799920D02*
G01*
X206517670Y-98815707D01*
X208279023Y-100381354D01*
X208299892Y-100424396D01*
X208300000Y-100428066D01*
X208300000Y-104337500D01*
X208281694Y-104381694D01*
X208237500Y-104400000D01*
X206962500Y-104400000D01*
X206918306Y-104381694D01*
X206900000Y-104337500D01*
X206900000Y-100800000D01*
X206100000Y-100100000D01*
X198628000Y-100100000D01*
X198628000Y-98806000D01*
X197104000Y-98806000D01*
X197104000Y-100100000D01*
X186099996Y-100100000D01*
X185702238Y-100179552D01*
X185655312Y-100170269D01*
X185628695Y-100130523D01*
X185627604Y-100122187D01*
X185627499Y-100120516D01*
X185624907Y-100100000D01*
X185612616Y-100002707D01*
X185554253Y-99855297D01*
X185461063Y-99727033D01*
X185461064Y-99727033D01*
X185461062Y-99727031D01*
X185338907Y-99625977D01*
X185338906Y-99625976D01*
X185338903Y-99625974D01*
X185195449Y-99558469D01*
X185195447Y-99558468D01*
X185195446Y-99558468D01*
X185039716Y-99528761D01*
X185039712Y-99528760D01*
X184881484Y-99538716D01*
X184730702Y-99587708D01*
X184596837Y-99672660D01*
X184488309Y-99788230D01*
X184488304Y-99788237D01*
X184411928Y-99927164D01*
X184396156Y-99988590D01*
X184372500Y-100080728D01*
X184372500Y-100080731D01*
X184372500Y-100137500D01*
X184354194Y-100181694D01*
X184310000Y-100200000D01*
X182700000Y-100200000D01*
X182700000Y-102337500D01*
X182681694Y-102381694D01*
X182637500Y-102400000D01*
X182249719Y-102400000D01*
X182205525Y-102381694D01*
X182188820Y-102351554D01*
X181901601Y-101106937D01*
X181900000Y-101092883D01*
X181900000Y-100100000D01*
X180600000Y-100100000D01*
X180600000Y-101092883D01*
X180598399Y-101106937D01*
X180311180Y-102351554D01*
X180283406Y-102390500D01*
X180250281Y-102400000D01*
X179862500Y-102400000D01*
X179818306Y-102381694D01*
X179800000Y-102337500D01*
X179800000Y-100100000D01*
X178380008Y-100100000D01*
X178335814Y-100081694D01*
X178318001Y-100045334D01*
X178317011Y-100037500D01*
X178312616Y-100002707D01*
X178254253Y-99855297D01*
X178161063Y-99727033D01*
X178161064Y-99727033D01*
X178161062Y-99727031D01*
X178038907Y-99625977D01*
X178038906Y-99625976D01*
X178038903Y-99625974D01*
X177895449Y-99558469D01*
X177895447Y-99558468D01*
X177895446Y-99558468D01*
X177739716Y-99528761D01*
X177739712Y-99528760D01*
X177581484Y-99538716D01*
X177430702Y-99587708D01*
X177296837Y-99672660D01*
X177188309Y-99788230D01*
X177188304Y-99788237D01*
X177111928Y-99927164D01*
X177098294Y-99980264D01*
X177079607Y-100053044D01*
X177050887Y-100091296D01*
X177019072Y-100100000D01*
X176862500Y-100100000D01*
X176818306Y-100081694D01*
X176800000Y-100037500D01*
X176800000Y-98762711D01*
X176818306Y-98718517D01*
X176862500Y-98700211D01*
X176862667Y-98700211D01*
X206476358Y-98799920D01*
G37*
%TD.AperFunction*%
%TD*%
%TA.AperFunction,Conductor*%
%TO.N,VBUS*%
G36*
X198628000Y-100100000D02*
G01*
X198628000Y-103762000D01*
X198608315Y-103829039D01*
X198555511Y-103874794D01*
X198504000Y-103886000D01*
X197228000Y-103886000D01*
X197160961Y-103866315D01*
X197115206Y-103813511D01*
X197104000Y-103762000D01*
X197104000Y-100100000D01*
X197104000Y-98806000D01*
X198628000Y-98806000D01*
X198628000Y-100100000D01*
G37*
%TD.AperFunction*%
%TD*%
M02*
