%TF.GenerationSoftware,KiCad,Pcbnew,7.0.10-7.0.10~ubuntu22.04.1*%
%TF.CreationDate,2024-08-14T07:23:38-05:00*%
%TF.ProjectId,MicroSDV2,4d696372-6f53-4445-9632-2e6b69636164,rev?*%
%TF.SameCoordinates,Original*%
%TF.FileFunction,Legend,Top*%
%TF.FilePolarity,Positive*%
%FSLAX46Y46*%
G04 Gerber Fmt 4.6, Leading zero omitted, Abs format (unit mm)*
G04 Created by KiCad (PCBNEW 7.0.10-7.0.10~ubuntu22.04.1) date 2024-08-14 07:23:38*
%MOMM*%
%LPD*%
G01*
G04 APERTURE LIST*
%ADD10C,0.100000*%
%ADD11C,0.150000*%
%ADD12C,0.300000*%
%ADD13C,0.400000*%
%ADD14C,0.254000*%
%ADD15C,0.120000*%
%ADD16C,0.200000*%
G04 APERTURE END LIST*
D10*
D11*
X177002200Y-166007200D02*
X285002200Y-166007200D01*
X285002200Y-198007200D01*
X177002200Y-198007200D01*
X177002200Y-166007200D01*
D10*
D11*
X10000000Y-10000000D02*
X287002200Y-10000000D01*
X287002200Y-200007200D01*
X10000000Y-200007200D01*
X10000000Y-10000000D01*
D10*
D11*
X12000000Y-12000000D02*
X285002200Y-12000000D01*
X285002200Y-198007200D01*
X12000000Y-198007200D01*
X12000000Y-12000000D01*
D10*
D11*
X60000000Y-12000000D02*
X60000000Y-10000000D01*
D10*
D11*
X110000000Y-12000000D02*
X110000000Y-10000000D01*
D10*
D11*
X160000000Y-12000000D02*
X160000000Y-10000000D01*
D10*
D11*
X210000000Y-12000000D02*
X210000000Y-10000000D01*
D10*
D11*
X260000000Y-12000000D02*
X260000000Y-10000000D01*
D10*
D11*
X36089160Y-11593604D02*
X35346303Y-11593604D01*
X35717731Y-11593604D02*
X35717731Y-10293604D01*
X35717731Y-10293604D02*
X35593922Y-10479319D01*
X35593922Y-10479319D02*
X35470112Y-10603128D01*
X35470112Y-10603128D02*
X35346303Y-10665033D01*
D10*
D11*
X85346303Y-10417414D02*
X85408207Y-10355509D01*
X85408207Y-10355509D02*
X85532017Y-10293604D01*
X85532017Y-10293604D02*
X85841541Y-10293604D01*
X85841541Y-10293604D02*
X85965350Y-10355509D01*
X85965350Y-10355509D02*
X86027255Y-10417414D01*
X86027255Y-10417414D02*
X86089160Y-10541223D01*
X86089160Y-10541223D02*
X86089160Y-10665033D01*
X86089160Y-10665033D02*
X86027255Y-10850747D01*
X86027255Y-10850747D02*
X85284398Y-11593604D01*
X85284398Y-11593604D02*
X86089160Y-11593604D01*
D10*
D11*
X135284398Y-10293604D02*
X136089160Y-10293604D01*
X136089160Y-10293604D02*
X135655826Y-10788842D01*
X135655826Y-10788842D02*
X135841541Y-10788842D01*
X135841541Y-10788842D02*
X135965350Y-10850747D01*
X135965350Y-10850747D02*
X136027255Y-10912652D01*
X136027255Y-10912652D02*
X136089160Y-11036461D01*
X136089160Y-11036461D02*
X136089160Y-11345985D01*
X136089160Y-11345985D02*
X136027255Y-11469795D01*
X136027255Y-11469795D02*
X135965350Y-11531700D01*
X135965350Y-11531700D02*
X135841541Y-11593604D01*
X135841541Y-11593604D02*
X135470112Y-11593604D01*
X135470112Y-11593604D02*
X135346303Y-11531700D01*
X135346303Y-11531700D02*
X135284398Y-11469795D01*
D10*
D11*
X185965350Y-10726938D02*
X185965350Y-11593604D01*
X185655826Y-10231700D02*
X185346303Y-11160271D01*
X185346303Y-11160271D02*
X186151064Y-11160271D01*
D10*
D11*
X236027255Y-10293604D02*
X235408207Y-10293604D01*
X235408207Y-10293604D02*
X235346303Y-10912652D01*
X235346303Y-10912652D02*
X235408207Y-10850747D01*
X235408207Y-10850747D02*
X235532017Y-10788842D01*
X235532017Y-10788842D02*
X235841541Y-10788842D01*
X235841541Y-10788842D02*
X235965350Y-10850747D01*
X235965350Y-10850747D02*
X236027255Y-10912652D01*
X236027255Y-10912652D02*
X236089160Y-11036461D01*
X236089160Y-11036461D02*
X236089160Y-11345985D01*
X236089160Y-11345985D02*
X236027255Y-11469795D01*
X236027255Y-11469795D02*
X235965350Y-11531700D01*
X235965350Y-11531700D02*
X235841541Y-11593604D01*
X235841541Y-11593604D02*
X235532017Y-11593604D01*
X235532017Y-11593604D02*
X235408207Y-11531700D01*
X235408207Y-11531700D02*
X235346303Y-11469795D01*
D10*
D11*
X285965350Y-10293604D02*
X285717731Y-10293604D01*
X285717731Y-10293604D02*
X285593922Y-10355509D01*
X285593922Y-10355509D02*
X285532017Y-10417414D01*
X285532017Y-10417414D02*
X285408207Y-10603128D01*
X285408207Y-10603128D02*
X285346303Y-10850747D01*
X285346303Y-10850747D02*
X285346303Y-11345985D01*
X285346303Y-11345985D02*
X285408207Y-11469795D01*
X285408207Y-11469795D02*
X285470112Y-11531700D01*
X285470112Y-11531700D02*
X285593922Y-11593604D01*
X285593922Y-11593604D02*
X285841541Y-11593604D01*
X285841541Y-11593604D02*
X285965350Y-11531700D01*
X285965350Y-11531700D02*
X286027255Y-11469795D01*
X286027255Y-11469795D02*
X286089160Y-11345985D01*
X286089160Y-11345985D02*
X286089160Y-11036461D01*
X286089160Y-11036461D02*
X286027255Y-10912652D01*
X286027255Y-10912652D02*
X285965350Y-10850747D01*
X285965350Y-10850747D02*
X285841541Y-10788842D01*
X285841541Y-10788842D02*
X285593922Y-10788842D01*
X285593922Y-10788842D02*
X285470112Y-10850747D01*
X285470112Y-10850747D02*
X285408207Y-10912652D01*
X285408207Y-10912652D02*
X285346303Y-11036461D01*
D10*
D11*
X60000000Y-198007200D02*
X60000000Y-200007200D01*
D10*
D11*
X110000000Y-198007200D02*
X110000000Y-200007200D01*
D10*
D11*
X160000000Y-198007200D02*
X160000000Y-200007200D01*
D10*
D11*
X210000000Y-198007200D02*
X210000000Y-200007200D01*
D10*
D11*
X260000000Y-198007200D02*
X260000000Y-200007200D01*
D10*
D11*
X36089160Y-199600804D02*
X35346303Y-199600804D01*
X35717731Y-199600804D02*
X35717731Y-198300804D01*
X35717731Y-198300804D02*
X35593922Y-198486519D01*
X35593922Y-198486519D02*
X35470112Y-198610328D01*
X35470112Y-198610328D02*
X35346303Y-198672233D01*
D10*
D11*
X85346303Y-198424614D02*
X85408207Y-198362709D01*
X85408207Y-198362709D02*
X85532017Y-198300804D01*
X85532017Y-198300804D02*
X85841541Y-198300804D01*
X85841541Y-198300804D02*
X85965350Y-198362709D01*
X85965350Y-198362709D02*
X86027255Y-198424614D01*
X86027255Y-198424614D02*
X86089160Y-198548423D01*
X86089160Y-198548423D02*
X86089160Y-198672233D01*
X86089160Y-198672233D02*
X86027255Y-198857947D01*
X86027255Y-198857947D02*
X85284398Y-199600804D01*
X85284398Y-199600804D02*
X86089160Y-199600804D01*
D10*
D11*
X135284398Y-198300804D02*
X136089160Y-198300804D01*
X136089160Y-198300804D02*
X135655826Y-198796042D01*
X135655826Y-198796042D02*
X135841541Y-198796042D01*
X135841541Y-198796042D02*
X135965350Y-198857947D01*
X135965350Y-198857947D02*
X136027255Y-198919852D01*
X136027255Y-198919852D02*
X136089160Y-199043661D01*
X136089160Y-199043661D02*
X136089160Y-199353185D01*
X136089160Y-199353185D02*
X136027255Y-199476995D01*
X136027255Y-199476995D02*
X135965350Y-199538900D01*
X135965350Y-199538900D02*
X135841541Y-199600804D01*
X135841541Y-199600804D02*
X135470112Y-199600804D01*
X135470112Y-199600804D02*
X135346303Y-199538900D01*
X135346303Y-199538900D02*
X135284398Y-199476995D01*
D10*
D11*
X185965350Y-198734138D02*
X185965350Y-199600804D01*
X185655826Y-198238900D02*
X185346303Y-199167471D01*
X185346303Y-199167471D02*
X186151064Y-199167471D01*
D10*
D11*
X236027255Y-198300804D02*
X235408207Y-198300804D01*
X235408207Y-198300804D02*
X235346303Y-198919852D01*
X235346303Y-198919852D02*
X235408207Y-198857947D01*
X235408207Y-198857947D02*
X235532017Y-198796042D01*
X235532017Y-198796042D02*
X235841541Y-198796042D01*
X235841541Y-198796042D02*
X235965350Y-198857947D01*
X235965350Y-198857947D02*
X236027255Y-198919852D01*
X236027255Y-198919852D02*
X236089160Y-199043661D01*
X236089160Y-199043661D02*
X236089160Y-199353185D01*
X236089160Y-199353185D02*
X236027255Y-199476995D01*
X236027255Y-199476995D02*
X235965350Y-199538900D01*
X235965350Y-199538900D02*
X235841541Y-199600804D01*
X235841541Y-199600804D02*
X235532017Y-199600804D01*
X235532017Y-199600804D02*
X235408207Y-199538900D01*
X235408207Y-199538900D02*
X235346303Y-199476995D01*
D10*
D11*
X285965350Y-198300804D02*
X285717731Y-198300804D01*
X285717731Y-198300804D02*
X285593922Y-198362709D01*
X285593922Y-198362709D02*
X285532017Y-198424614D01*
X285532017Y-198424614D02*
X285408207Y-198610328D01*
X285408207Y-198610328D02*
X285346303Y-198857947D01*
X285346303Y-198857947D02*
X285346303Y-199353185D01*
X285346303Y-199353185D02*
X285408207Y-199476995D01*
X285408207Y-199476995D02*
X285470112Y-199538900D01*
X285470112Y-199538900D02*
X285593922Y-199600804D01*
X285593922Y-199600804D02*
X285841541Y-199600804D01*
X285841541Y-199600804D02*
X285965350Y-199538900D01*
X285965350Y-199538900D02*
X286027255Y-199476995D01*
X286027255Y-199476995D02*
X286089160Y-199353185D01*
X286089160Y-199353185D02*
X286089160Y-199043661D01*
X286089160Y-199043661D02*
X286027255Y-198919852D01*
X286027255Y-198919852D02*
X285965350Y-198857947D01*
X285965350Y-198857947D02*
X285841541Y-198796042D01*
X285841541Y-198796042D02*
X285593922Y-198796042D01*
X285593922Y-198796042D02*
X285470112Y-198857947D01*
X285470112Y-198857947D02*
X285408207Y-198919852D01*
X285408207Y-198919852D02*
X285346303Y-199043661D01*
D10*
D11*
X10000000Y-60000000D02*
X12000000Y-60000000D01*
D10*
D11*
X10000000Y-110000000D02*
X12000000Y-110000000D01*
D10*
D11*
X10000000Y-160000000D02*
X12000000Y-160000000D01*
D10*
D11*
X10690476Y-35222176D02*
X11309523Y-35222176D01*
X10566666Y-35593604D02*
X10999999Y-34293604D01*
X10999999Y-34293604D02*
X11433333Y-35593604D01*
D10*
D11*
X11092857Y-84912652D02*
X11278571Y-84974557D01*
X11278571Y-84974557D02*
X11340476Y-85036461D01*
X11340476Y-85036461D02*
X11402380Y-85160271D01*
X11402380Y-85160271D02*
X11402380Y-85345985D01*
X11402380Y-85345985D02*
X11340476Y-85469795D01*
X11340476Y-85469795D02*
X11278571Y-85531700D01*
X11278571Y-85531700D02*
X11154761Y-85593604D01*
X11154761Y-85593604D02*
X10659523Y-85593604D01*
X10659523Y-85593604D02*
X10659523Y-84293604D01*
X10659523Y-84293604D02*
X11092857Y-84293604D01*
X11092857Y-84293604D02*
X11216666Y-84355509D01*
X11216666Y-84355509D02*
X11278571Y-84417414D01*
X11278571Y-84417414D02*
X11340476Y-84541223D01*
X11340476Y-84541223D02*
X11340476Y-84665033D01*
X11340476Y-84665033D02*
X11278571Y-84788842D01*
X11278571Y-84788842D02*
X11216666Y-84850747D01*
X11216666Y-84850747D02*
X11092857Y-84912652D01*
X11092857Y-84912652D02*
X10659523Y-84912652D01*
D10*
D11*
X11402380Y-135469795D02*
X11340476Y-135531700D01*
X11340476Y-135531700D02*
X11154761Y-135593604D01*
X11154761Y-135593604D02*
X11030952Y-135593604D01*
X11030952Y-135593604D02*
X10845238Y-135531700D01*
X10845238Y-135531700D02*
X10721428Y-135407890D01*
X10721428Y-135407890D02*
X10659523Y-135284080D01*
X10659523Y-135284080D02*
X10597619Y-135036461D01*
X10597619Y-135036461D02*
X10597619Y-134850747D01*
X10597619Y-134850747D02*
X10659523Y-134603128D01*
X10659523Y-134603128D02*
X10721428Y-134479319D01*
X10721428Y-134479319D02*
X10845238Y-134355509D01*
X10845238Y-134355509D02*
X11030952Y-134293604D01*
X11030952Y-134293604D02*
X11154761Y-134293604D01*
X11154761Y-134293604D02*
X11340476Y-134355509D01*
X11340476Y-134355509D02*
X11402380Y-134417414D01*
D10*
D11*
X10659523Y-185593604D02*
X10659523Y-184293604D01*
X10659523Y-184293604D02*
X10969047Y-184293604D01*
X10969047Y-184293604D02*
X11154761Y-184355509D01*
X11154761Y-184355509D02*
X11278571Y-184479319D01*
X11278571Y-184479319D02*
X11340476Y-184603128D01*
X11340476Y-184603128D02*
X11402380Y-184850747D01*
X11402380Y-184850747D02*
X11402380Y-185036461D01*
X11402380Y-185036461D02*
X11340476Y-185284080D01*
X11340476Y-185284080D02*
X11278571Y-185407890D01*
X11278571Y-185407890D02*
X11154761Y-185531700D01*
X11154761Y-185531700D02*
X10969047Y-185593604D01*
X10969047Y-185593604D02*
X10659523Y-185593604D01*
D10*
D11*
X287002200Y-60000000D02*
X285002200Y-60000000D01*
D10*
D11*
X287002200Y-110000000D02*
X285002200Y-110000000D01*
D10*
D11*
X287002200Y-160000000D02*
X285002200Y-160000000D01*
D10*
D11*
X285692676Y-35222176D02*
X286311723Y-35222176D01*
X285568866Y-35593604D02*
X286002199Y-34293604D01*
X286002199Y-34293604D02*
X286435533Y-35593604D01*
D10*
D11*
X286095057Y-84912652D02*
X286280771Y-84974557D01*
X286280771Y-84974557D02*
X286342676Y-85036461D01*
X286342676Y-85036461D02*
X286404580Y-85160271D01*
X286404580Y-85160271D02*
X286404580Y-85345985D01*
X286404580Y-85345985D02*
X286342676Y-85469795D01*
X286342676Y-85469795D02*
X286280771Y-85531700D01*
X286280771Y-85531700D02*
X286156961Y-85593604D01*
X286156961Y-85593604D02*
X285661723Y-85593604D01*
X285661723Y-85593604D02*
X285661723Y-84293604D01*
X285661723Y-84293604D02*
X286095057Y-84293604D01*
X286095057Y-84293604D02*
X286218866Y-84355509D01*
X286218866Y-84355509D02*
X286280771Y-84417414D01*
X286280771Y-84417414D02*
X286342676Y-84541223D01*
X286342676Y-84541223D02*
X286342676Y-84665033D01*
X286342676Y-84665033D02*
X286280771Y-84788842D01*
X286280771Y-84788842D02*
X286218866Y-84850747D01*
X286218866Y-84850747D02*
X286095057Y-84912652D01*
X286095057Y-84912652D02*
X285661723Y-84912652D01*
D10*
D11*
X286404580Y-135469795D02*
X286342676Y-135531700D01*
X286342676Y-135531700D02*
X286156961Y-135593604D01*
X286156961Y-135593604D02*
X286033152Y-135593604D01*
X286033152Y-135593604D02*
X285847438Y-135531700D01*
X285847438Y-135531700D02*
X285723628Y-135407890D01*
X285723628Y-135407890D02*
X285661723Y-135284080D01*
X285661723Y-135284080D02*
X285599819Y-135036461D01*
X285599819Y-135036461D02*
X285599819Y-134850747D01*
X285599819Y-134850747D02*
X285661723Y-134603128D01*
X285661723Y-134603128D02*
X285723628Y-134479319D01*
X285723628Y-134479319D02*
X285847438Y-134355509D01*
X285847438Y-134355509D02*
X286033152Y-134293604D01*
X286033152Y-134293604D02*
X286156961Y-134293604D01*
X286156961Y-134293604D02*
X286342676Y-134355509D01*
X286342676Y-134355509D02*
X286404580Y-134417414D01*
D10*
D11*
X285661723Y-185593604D02*
X285661723Y-184293604D01*
X285661723Y-184293604D02*
X285971247Y-184293604D01*
X285971247Y-184293604D02*
X286156961Y-184355509D01*
X286156961Y-184355509D02*
X286280771Y-184479319D01*
X286280771Y-184479319D02*
X286342676Y-184603128D01*
X286342676Y-184603128D02*
X286404580Y-184850747D01*
X286404580Y-184850747D02*
X286404580Y-185036461D01*
X286404580Y-185036461D02*
X286342676Y-185284080D01*
X286342676Y-185284080D02*
X286280771Y-185407890D01*
X286280771Y-185407890D02*
X286156961Y-185531700D01*
X286156961Y-185531700D02*
X285971247Y-185593604D01*
X285971247Y-185593604D02*
X285661723Y-185593604D01*
D10*
D11*
X200458026Y-193793328D02*
X200458026Y-192293328D01*
X200458026Y-192293328D02*
X200815169Y-192293328D01*
X200815169Y-192293328D02*
X201029455Y-192364757D01*
X201029455Y-192364757D02*
X201172312Y-192507614D01*
X201172312Y-192507614D02*
X201243741Y-192650471D01*
X201243741Y-192650471D02*
X201315169Y-192936185D01*
X201315169Y-192936185D02*
X201315169Y-193150471D01*
X201315169Y-193150471D02*
X201243741Y-193436185D01*
X201243741Y-193436185D02*
X201172312Y-193579042D01*
X201172312Y-193579042D02*
X201029455Y-193721900D01*
X201029455Y-193721900D02*
X200815169Y-193793328D01*
X200815169Y-193793328D02*
X200458026Y-193793328D01*
X202600884Y-193793328D02*
X202600884Y-193007614D01*
X202600884Y-193007614D02*
X202529455Y-192864757D01*
X202529455Y-192864757D02*
X202386598Y-192793328D01*
X202386598Y-192793328D02*
X202100884Y-192793328D01*
X202100884Y-192793328D02*
X201958026Y-192864757D01*
X202600884Y-193721900D02*
X202458026Y-193793328D01*
X202458026Y-193793328D02*
X202100884Y-193793328D01*
X202100884Y-193793328D02*
X201958026Y-193721900D01*
X201958026Y-193721900D02*
X201886598Y-193579042D01*
X201886598Y-193579042D02*
X201886598Y-193436185D01*
X201886598Y-193436185D02*
X201958026Y-193293328D01*
X201958026Y-193293328D02*
X202100884Y-193221900D01*
X202100884Y-193221900D02*
X202458026Y-193221900D01*
X202458026Y-193221900D02*
X202600884Y-193150471D01*
X203100884Y-192793328D02*
X203672312Y-192793328D01*
X203315169Y-192293328D02*
X203315169Y-193579042D01*
X203315169Y-193579042D02*
X203386598Y-193721900D01*
X203386598Y-193721900D02*
X203529455Y-193793328D01*
X203529455Y-193793328D02*
X203672312Y-193793328D01*
X204743741Y-193721900D02*
X204600884Y-193793328D01*
X204600884Y-193793328D02*
X204315170Y-193793328D01*
X204315170Y-193793328D02*
X204172312Y-193721900D01*
X204172312Y-193721900D02*
X204100884Y-193579042D01*
X204100884Y-193579042D02*
X204100884Y-193007614D01*
X204100884Y-193007614D02*
X204172312Y-192864757D01*
X204172312Y-192864757D02*
X204315170Y-192793328D01*
X204315170Y-192793328D02*
X204600884Y-192793328D01*
X204600884Y-192793328D02*
X204743741Y-192864757D01*
X204743741Y-192864757D02*
X204815170Y-193007614D01*
X204815170Y-193007614D02*
X204815170Y-193150471D01*
X204815170Y-193150471D02*
X204100884Y-193293328D01*
X205458026Y-193650471D02*
X205529455Y-193721900D01*
X205529455Y-193721900D02*
X205458026Y-193793328D01*
X205458026Y-193793328D02*
X205386598Y-193721900D01*
X205386598Y-193721900D02*
X205458026Y-193650471D01*
X205458026Y-193650471D02*
X205458026Y-193793328D01*
X205458026Y-192864757D02*
X205529455Y-192936185D01*
X205529455Y-192936185D02*
X205458026Y-193007614D01*
X205458026Y-193007614D02*
X205386598Y-192936185D01*
X205386598Y-192936185D02*
X205458026Y-192864757D01*
X205458026Y-192864757D02*
X205458026Y-193007614D01*
D10*
D11*
X177002200Y-194507200D02*
X285002200Y-194507200D01*
D10*
D11*
X178458026Y-196593328D02*
X178458026Y-195093328D01*
X179315169Y-196593328D02*
X178672312Y-195736185D01*
X179315169Y-195093328D02*
X178458026Y-195950471D01*
X179958026Y-196593328D02*
X179958026Y-195593328D01*
X179958026Y-195093328D02*
X179886598Y-195164757D01*
X179886598Y-195164757D02*
X179958026Y-195236185D01*
X179958026Y-195236185D02*
X180029455Y-195164757D01*
X180029455Y-195164757D02*
X179958026Y-195093328D01*
X179958026Y-195093328D02*
X179958026Y-195236185D01*
X181529455Y-196450471D02*
X181458027Y-196521900D01*
X181458027Y-196521900D02*
X181243741Y-196593328D01*
X181243741Y-196593328D02*
X181100884Y-196593328D01*
X181100884Y-196593328D02*
X180886598Y-196521900D01*
X180886598Y-196521900D02*
X180743741Y-196379042D01*
X180743741Y-196379042D02*
X180672312Y-196236185D01*
X180672312Y-196236185D02*
X180600884Y-195950471D01*
X180600884Y-195950471D02*
X180600884Y-195736185D01*
X180600884Y-195736185D02*
X180672312Y-195450471D01*
X180672312Y-195450471D02*
X180743741Y-195307614D01*
X180743741Y-195307614D02*
X180886598Y-195164757D01*
X180886598Y-195164757D02*
X181100884Y-195093328D01*
X181100884Y-195093328D02*
X181243741Y-195093328D01*
X181243741Y-195093328D02*
X181458027Y-195164757D01*
X181458027Y-195164757D02*
X181529455Y-195236185D01*
X182815170Y-196593328D02*
X182815170Y-195807614D01*
X182815170Y-195807614D02*
X182743741Y-195664757D01*
X182743741Y-195664757D02*
X182600884Y-195593328D01*
X182600884Y-195593328D02*
X182315170Y-195593328D01*
X182315170Y-195593328D02*
X182172312Y-195664757D01*
X182815170Y-196521900D02*
X182672312Y-196593328D01*
X182672312Y-196593328D02*
X182315170Y-196593328D01*
X182315170Y-196593328D02*
X182172312Y-196521900D01*
X182172312Y-196521900D02*
X182100884Y-196379042D01*
X182100884Y-196379042D02*
X182100884Y-196236185D01*
X182100884Y-196236185D02*
X182172312Y-196093328D01*
X182172312Y-196093328D02*
X182315170Y-196021900D01*
X182315170Y-196021900D02*
X182672312Y-196021900D01*
X182672312Y-196021900D02*
X182815170Y-195950471D01*
X184172313Y-196593328D02*
X184172313Y-195093328D01*
X184172313Y-196521900D02*
X184029455Y-196593328D01*
X184029455Y-196593328D02*
X183743741Y-196593328D01*
X183743741Y-196593328D02*
X183600884Y-196521900D01*
X183600884Y-196521900D02*
X183529455Y-196450471D01*
X183529455Y-196450471D02*
X183458027Y-196307614D01*
X183458027Y-196307614D02*
X183458027Y-195879042D01*
X183458027Y-195879042D02*
X183529455Y-195736185D01*
X183529455Y-195736185D02*
X183600884Y-195664757D01*
X183600884Y-195664757D02*
X183743741Y-195593328D01*
X183743741Y-195593328D02*
X184029455Y-195593328D01*
X184029455Y-195593328D02*
X184172313Y-195664757D01*
X186029455Y-195807614D02*
X186529455Y-195807614D01*
X186743741Y-196593328D02*
X186029455Y-196593328D01*
X186029455Y-196593328D02*
X186029455Y-195093328D01*
X186029455Y-195093328D02*
X186743741Y-195093328D01*
X187386598Y-196450471D02*
X187458027Y-196521900D01*
X187458027Y-196521900D02*
X187386598Y-196593328D01*
X187386598Y-196593328D02*
X187315170Y-196521900D01*
X187315170Y-196521900D02*
X187386598Y-196450471D01*
X187386598Y-196450471D02*
X187386598Y-196593328D01*
X188100884Y-196593328D02*
X188100884Y-195093328D01*
X188100884Y-195093328D02*
X188458027Y-195093328D01*
X188458027Y-195093328D02*
X188672313Y-195164757D01*
X188672313Y-195164757D02*
X188815170Y-195307614D01*
X188815170Y-195307614D02*
X188886599Y-195450471D01*
X188886599Y-195450471D02*
X188958027Y-195736185D01*
X188958027Y-195736185D02*
X188958027Y-195950471D01*
X188958027Y-195950471D02*
X188886599Y-196236185D01*
X188886599Y-196236185D02*
X188815170Y-196379042D01*
X188815170Y-196379042D02*
X188672313Y-196521900D01*
X188672313Y-196521900D02*
X188458027Y-196593328D01*
X188458027Y-196593328D02*
X188100884Y-196593328D01*
X189600884Y-196450471D02*
X189672313Y-196521900D01*
X189672313Y-196521900D02*
X189600884Y-196593328D01*
X189600884Y-196593328D02*
X189529456Y-196521900D01*
X189529456Y-196521900D02*
X189600884Y-196450471D01*
X189600884Y-196450471D02*
X189600884Y-196593328D01*
X190243742Y-196164757D02*
X190958028Y-196164757D01*
X190100885Y-196593328D02*
X190600885Y-195093328D01*
X190600885Y-195093328D02*
X191100885Y-196593328D01*
X191600884Y-196450471D02*
X191672313Y-196521900D01*
X191672313Y-196521900D02*
X191600884Y-196593328D01*
X191600884Y-196593328D02*
X191529456Y-196521900D01*
X191529456Y-196521900D02*
X191600884Y-196450471D01*
X191600884Y-196450471D02*
X191600884Y-196593328D01*
X194600884Y-196593328D02*
X194600884Y-195093328D01*
X194743742Y-196021900D02*
X195172313Y-196593328D01*
X195172313Y-195593328D02*
X194600884Y-196164757D01*
X195815170Y-196593328D02*
X195815170Y-195593328D01*
X195815170Y-195093328D02*
X195743742Y-195164757D01*
X195743742Y-195164757D02*
X195815170Y-195236185D01*
X195815170Y-195236185D02*
X195886599Y-195164757D01*
X195886599Y-195164757D02*
X195815170Y-195093328D01*
X195815170Y-195093328D02*
X195815170Y-195236185D01*
X197172314Y-196521900D02*
X197029456Y-196593328D01*
X197029456Y-196593328D02*
X196743742Y-196593328D01*
X196743742Y-196593328D02*
X196600885Y-196521900D01*
X196600885Y-196521900D02*
X196529456Y-196450471D01*
X196529456Y-196450471D02*
X196458028Y-196307614D01*
X196458028Y-196307614D02*
X196458028Y-195879042D01*
X196458028Y-195879042D02*
X196529456Y-195736185D01*
X196529456Y-195736185D02*
X196600885Y-195664757D01*
X196600885Y-195664757D02*
X196743742Y-195593328D01*
X196743742Y-195593328D02*
X197029456Y-195593328D01*
X197029456Y-195593328D02*
X197172314Y-195664757D01*
X198458028Y-196593328D02*
X198458028Y-195807614D01*
X198458028Y-195807614D02*
X198386599Y-195664757D01*
X198386599Y-195664757D02*
X198243742Y-195593328D01*
X198243742Y-195593328D02*
X197958028Y-195593328D01*
X197958028Y-195593328D02*
X197815170Y-195664757D01*
X198458028Y-196521900D02*
X198315170Y-196593328D01*
X198315170Y-196593328D02*
X197958028Y-196593328D01*
X197958028Y-196593328D02*
X197815170Y-196521900D01*
X197815170Y-196521900D02*
X197743742Y-196379042D01*
X197743742Y-196379042D02*
X197743742Y-196236185D01*
X197743742Y-196236185D02*
X197815170Y-196093328D01*
X197815170Y-196093328D02*
X197958028Y-196021900D01*
X197958028Y-196021900D02*
X198315170Y-196021900D01*
X198315170Y-196021900D02*
X198458028Y-195950471D01*
X199815171Y-196593328D02*
X199815171Y-195093328D01*
X199815171Y-196521900D02*
X199672313Y-196593328D01*
X199672313Y-196593328D02*
X199386599Y-196593328D01*
X199386599Y-196593328D02*
X199243742Y-196521900D01*
X199243742Y-196521900D02*
X199172313Y-196450471D01*
X199172313Y-196450471D02*
X199100885Y-196307614D01*
X199100885Y-196307614D02*
X199100885Y-195879042D01*
X199100885Y-195879042D02*
X199172313Y-195736185D01*
X199172313Y-195736185D02*
X199243742Y-195664757D01*
X199243742Y-195664757D02*
X199386599Y-195593328D01*
X199386599Y-195593328D02*
X199672313Y-195593328D01*
X199672313Y-195593328D02*
X199815171Y-195664757D01*
X201529456Y-195093328D02*
X202529456Y-195093328D01*
X202529456Y-195093328D02*
X201886599Y-196593328D01*
X203100884Y-196450471D02*
X203172313Y-196521900D01*
X203172313Y-196521900D02*
X203100884Y-196593328D01*
X203100884Y-196593328D02*
X203029456Y-196521900D01*
X203029456Y-196521900D02*
X203100884Y-196450471D01*
X203100884Y-196450471D02*
X203100884Y-196593328D01*
X204100885Y-195093328D02*
X204243742Y-195093328D01*
X204243742Y-195093328D02*
X204386599Y-195164757D01*
X204386599Y-195164757D02*
X204458028Y-195236185D01*
X204458028Y-195236185D02*
X204529456Y-195379042D01*
X204529456Y-195379042D02*
X204600885Y-195664757D01*
X204600885Y-195664757D02*
X204600885Y-196021900D01*
X204600885Y-196021900D02*
X204529456Y-196307614D01*
X204529456Y-196307614D02*
X204458028Y-196450471D01*
X204458028Y-196450471D02*
X204386599Y-196521900D01*
X204386599Y-196521900D02*
X204243742Y-196593328D01*
X204243742Y-196593328D02*
X204100885Y-196593328D01*
X204100885Y-196593328D02*
X203958028Y-196521900D01*
X203958028Y-196521900D02*
X203886599Y-196450471D01*
X203886599Y-196450471D02*
X203815170Y-196307614D01*
X203815170Y-196307614D02*
X203743742Y-196021900D01*
X203743742Y-196021900D02*
X203743742Y-195664757D01*
X203743742Y-195664757D02*
X203815170Y-195379042D01*
X203815170Y-195379042D02*
X203886599Y-195236185D01*
X203886599Y-195236185D02*
X203958028Y-195164757D01*
X203958028Y-195164757D02*
X204100885Y-195093328D01*
X205243741Y-196450471D02*
X205315170Y-196521900D01*
X205315170Y-196521900D02*
X205243741Y-196593328D01*
X205243741Y-196593328D02*
X205172313Y-196521900D01*
X205172313Y-196521900D02*
X205243741Y-196450471D01*
X205243741Y-196450471D02*
X205243741Y-196593328D01*
X206743742Y-196593328D02*
X205886599Y-196593328D01*
X206315170Y-196593328D02*
X206315170Y-195093328D01*
X206315170Y-195093328D02*
X206172313Y-195307614D01*
X206172313Y-195307614D02*
X206029456Y-195450471D01*
X206029456Y-195450471D02*
X205886599Y-195521900D01*
X207672313Y-195093328D02*
X207815170Y-195093328D01*
X207815170Y-195093328D02*
X207958027Y-195164757D01*
X207958027Y-195164757D02*
X208029456Y-195236185D01*
X208029456Y-195236185D02*
X208100884Y-195379042D01*
X208100884Y-195379042D02*
X208172313Y-195664757D01*
X208172313Y-195664757D02*
X208172313Y-196021900D01*
X208172313Y-196021900D02*
X208100884Y-196307614D01*
X208100884Y-196307614D02*
X208029456Y-196450471D01*
X208029456Y-196450471D02*
X207958027Y-196521900D01*
X207958027Y-196521900D02*
X207815170Y-196593328D01*
X207815170Y-196593328D02*
X207672313Y-196593328D01*
X207672313Y-196593328D02*
X207529456Y-196521900D01*
X207529456Y-196521900D02*
X207458027Y-196450471D01*
X207458027Y-196450471D02*
X207386598Y-196307614D01*
X207386598Y-196307614D02*
X207315170Y-196021900D01*
X207315170Y-196021900D02*
X207315170Y-195664757D01*
X207315170Y-195664757D02*
X207386598Y-195379042D01*
X207386598Y-195379042D02*
X207458027Y-195236185D01*
X207458027Y-195236185D02*
X207529456Y-195164757D01*
X207529456Y-195164757D02*
X207672313Y-195093328D01*
X208815169Y-196021900D02*
X209958027Y-196021900D01*
X210529455Y-195093328D02*
X211529455Y-195093328D01*
X211529455Y-195093328D02*
X210886598Y-196593328D01*
X212100883Y-196450471D02*
X212172312Y-196521900D01*
X212172312Y-196521900D02*
X212100883Y-196593328D01*
X212100883Y-196593328D02*
X212029455Y-196521900D01*
X212029455Y-196521900D02*
X212100883Y-196450471D01*
X212100883Y-196450471D02*
X212100883Y-196593328D01*
X213100884Y-195093328D02*
X213243741Y-195093328D01*
X213243741Y-195093328D02*
X213386598Y-195164757D01*
X213386598Y-195164757D02*
X213458027Y-195236185D01*
X213458027Y-195236185D02*
X213529455Y-195379042D01*
X213529455Y-195379042D02*
X213600884Y-195664757D01*
X213600884Y-195664757D02*
X213600884Y-196021900D01*
X213600884Y-196021900D02*
X213529455Y-196307614D01*
X213529455Y-196307614D02*
X213458027Y-196450471D01*
X213458027Y-196450471D02*
X213386598Y-196521900D01*
X213386598Y-196521900D02*
X213243741Y-196593328D01*
X213243741Y-196593328D02*
X213100884Y-196593328D01*
X213100884Y-196593328D02*
X212958027Y-196521900D01*
X212958027Y-196521900D02*
X212886598Y-196450471D01*
X212886598Y-196450471D02*
X212815169Y-196307614D01*
X212815169Y-196307614D02*
X212743741Y-196021900D01*
X212743741Y-196021900D02*
X212743741Y-195664757D01*
X212743741Y-195664757D02*
X212815169Y-195379042D01*
X212815169Y-195379042D02*
X212886598Y-195236185D01*
X212886598Y-195236185D02*
X212958027Y-195164757D01*
X212958027Y-195164757D02*
X213100884Y-195093328D01*
X214243740Y-196450471D02*
X214315169Y-196521900D01*
X214315169Y-196521900D02*
X214243740Y-196593328D01*
X214243740Y-196593328D02*
X214172312Y-196521900D01*
X214172312Y-196521900D02*
X214243740Y-196450471D01*
X214243740Y-196450471D02*
X214243740Y-196593328D01*
X215743741Y-196593328D02*
X214886598Y-196593328D01*
X215315169Y-196593328D02*
X215315169Y-195093328D01*
X215315169Y-195093328D02*
X215172312Y-195307614D01*
X215172312Y-195307614D02*
X215029455Y-195450471D01*
X215029455Y-195450471D02*
X214886598Y-195521900D01*
X216672312Y-195093328D02*
X216815169Y-195093328D01*
X216815169Y-195093328D02*
X216958026Y-195164757D01*
X216958026Y-195164757D02*
X217029455Y-195236185D01*
X217029455Y-195236185D02*
X217100883Y-195379042D01*
X217100883Y-195379042D02*
X217172312Y-195664757D01*
X217172312Y-195664757D02*
X217172312Y-196021900D01*
X217172312Y-196021900D02*
X217100883Y-196307614D01*
X217100883Y-196307614D02*
X217029455Y-196450471D01*
X217029455Y-196450471D02*
X216958026Y-196521900D01*
X216958026Y-196521900D02*
X216815169Y-196593328D01*
X216815169Y-196593328D02*
X216672312Y-196593328D01*
X216672312Y-196593328D02*
X216529455Y-196521900D01*
X216529455Y-196521900D02*
X216458026Y-196450471D01*
X216458026Y-196450471D02*
X216386597Y-196307614D01*
X216386597Y-196307614D02*
X216315169Y-196021900D01*
X216315169Y-196021900D02*
X216315169Y-195664757D01*
X216315169Y-195664757D02*
X216386597Y-195379042D01*
X216386597Y-195379042D02*
X216458026Y-195236185D01*
X216458026Y-195236185D02*
X216529455Y-195164757D01*
X216529455Y-195164757D02*
X216672312Y-195093328D01*
X217600883Y-196021900D02*
X217672311Y-195950471D01*
X217672311Y-195950471D02*
X217815168Y-195879042D01*
X217815168Y-195879042D02*
X218100883Y-196021900D01*
X218100883Y-196021900D02*
X218243740Y-195950471D01*
X218243740Y-195950471D02*
X218315168Y-195879042D01*
X219529455Y-195593328D02*
X219529455Y-196593328D01*
X218886597Y-195593328D02*
X218886597Y-196379042D01*
X218886597Y-196379042D02*
X218958026Y-196521900D01*
X218958026Y-196521900D02*
X219100883Y-196593328D01*
X219100883Y-196593328D02*
X219315169Y-196593328D01*
X219315169Y-196593328D02*
X219458026Y-196521900D01*
X219458026Y-196521900D02*
X219529455Y-196450471D01*
X220243740Y-196593328D02*
X220243740Y-195093328D01*
X220243740Y-195664757D02*
X220386598Y-195593328D01*
X220386598Y-195593328D02*
X220672312Y-195593328D01*
X220672312Y-195593328D02*
X220815169Y-195664757D01*
X220815169Y-195664757D02*
X220886598Y-195736185D01*
X220886598Y-195736185D02*
X220958026Y-195879042D01*
X220958026Y-195879042D02*
X220958026Y-196307614D01*
X220958026Y-196307614D02*
X220886598Y-196450471D01*
X220886598Y-196450471D02*
X220815169Y-196521900D01*
X220815169Y-196521900D02*
X220672312Y-196593328D01*
X220672312Y-196593328D02*
X220386598Y-196593328D01*
X220386598Y-196593328D02*
X220243740Y-196521900D01*
X222243741Y-195593328D02*
X222243741Y-196593328D01*
X221600883Y-195593328D02*
X221600883Y-196379042D01*
X221600883Y-196379042D02*
X221672312Y-196521900D01*
X221672312Y-196521900D02*
X221815169Y-196593328D01*
X221815169Y-196593328D02*
X222029455Y-196593328D01*
X222029455Y-196593328D02*
X222172312Y-196521900D01*
X222172312Y-196521900D02*
X222243741Y-196450471D01*
X222958026Y-195593328D02*
X222958026Y-196593328D01*
X222958026Y-195736185D02*
X223029455Y-195664757D01*
X223029455Y-195664757D02*
X223172312Y-195593328D01*
X223172312Y-195593328D02*
X223386598Y-195593328D01*
X223386598Y-195593328D02*
X223529455Y-195664757D01*
X223529455Y-195664757D02*
X223600884Y-195807614D01*
X223600884Y-195807614D02*
X223600884Y-196593328D01*
X224100884Y-195593328D02*
X224672312Y-195593328D01*
X224315169Y-195093328D02*
X224315169Y-196379042D01*
X224315169Y-196379042D02*
X224386598Y-196521900D01*
X224386598Y-196521900D02*
X224529455Y-196593328D01*
X224529455Y-196593328D02*
X224672312Y-196593328D01*
X225815170Y-195593328D02*
X225815170Y-196593328D01*
X225172312Y-195593328D02*
X225172312Y-196379042D01*
X225172312Y-196379042D02*
X225243741Y-196521900D01*
X225243741Y-196521900D02*
X225386598Y-196593328D01*
X225386598Y-196593328D02*
X225600884Y-196593328D01*
X225600884Y-196593328D02*
X225743741Y-196521900D01*
X225743741Y-196521900D02*
X225815170Y-196450471D01*
X226458027Y-195236185D02*
X226529455Y-195164757D01*
X226529455Y-195164757D02*
X226672313Y-195093328D01*
X226672313Y-195093328D02*
X227029455Y-195093328D01*
X227029455Y-195093328D02*
X227172313Y-195164757D01*
X227172313Y-195164757D02*
X227243741Y-195236185D01*
X227243741Y-195236185D02*
X227315170Y-195379042D01*
X227315170Y-195379042D02*
X227315170Y-195521900D01*
X227315170Y-195521900D02*
X227243741Y-195736185D01*
X227243741Y-195736185D02*
X226386598Y-196593328D01*
X226386598Y-196593328D02*
X227315170Y-196593328D01*
X227886598Y-195236185D02*
X227958026Y-195164757D01*
X227958026Y-195164757D02*
X228100884Y-195093328D01*
X228100884Y-195093328D02*
X228458026Y-195093328D01*
X228458026Y-195093328D02*
X228600884Y-195164757D01*
X228600884Y-195164757D02*
X228672312Y-195236185D01*
X228672312Y-195236185D02*
X228743741Y-195379042D01*
X228743741Y-195379042D02*
X228743741Y-195521900D01*
X228743741Y-195521900D02*
X228672312Y-195736185D01*
X228672312Y-195736185D02*
X227815169Y-196593328D01*
X227815169Y-196593328D02*
X228743741Y-196593328D01*
X229386597Y-196450471D02*
X229458026Y-196521900D01*
X229458026Y-196521900D02*
X229386597Y-196593328D01*
X229386597Y-196593328D02*
X229315169Y-196521900D01*
X229315169Y-196521900D02*
X229386597Y-196450471D01*
X229386597Y-196450471D02*
X229386597Y-196593328D01*
X230386598Y-195093328D02*
X230529455Y-195093328D01*
X230529455Y-195093328D02*
X230672312Y-195164757D01*
X230672312Y-195164757D02*
X230743741Y-195236185D01*
X230743741Y-195236185D02*
X230815169Y-195379042D01*
X230815169Y-195379042D02*
X230886598Y-195664757D01*
X230886598Y-195664757D02*
X230886598Y-196021900D01*
X230886598Y-196021900D02*
X230815169Y-196307614D01*
X230815169Y-196307614D02*
X230743741Y-196450471D01*
X230743741Y-196450471D02*
X230672312Y-196521900D01*
X230672312Y-196521900D02*
X230529455Y-196593328D01*
X230529455Y-196593328D02*
X230386598Y-196593328D01*
X230386598Y-196593328D02*
X230243741Y-196521900D01*
X230243741Y-196521900D02*
X230172312Y-196450471D01*
X230172312Y-196450471D02*
X230100883Y-196307614D01*
X230100883Y-196307614D02*
X230029455Y-196021900D01*
X230029455Y-196021900D02*
X230029455Y-195664757D01*
X230029455Y-195664757D02*
X230100883Y-195379042D01*
X230100883Y-195379042D02*
X230172312Y-195236185D01*
X230172312Y-195236185D02*
X230243741Y-195164757D01*
X230243741Y-195164757D02*
X230386598Y-195093328D01*
X232172312Y-195593328D02*
X232172312Y-196593328D01*
X231815169Y-195021900D02*
X231458026Y-196093328D01*
X231458026Y-196093328D02*
X232386597Y-196093328D01*
X232958025Y-196450471D02*
X233029454Y-196521900D01*
X233029454Y-196521900D02*
X232958025Y-196593328D01*
X232958025Y-196593328D02*
X232886597Y-196521900D01*
X232886597Y-196521900D02*
X232958025Y-196450471D01*
X232958025Y-196450471D02*
X232958025Y-196593328D01*
X234458026Y-196593328D02*
X233600883Y-196593328D01*
X234029454Y-196593328D02*
X234029454Y-195093328D01*
X234029454Y-195093328D02*
X233886597Y-195307614D01*
X233886597Y-195307614D02*
X233743740Y-195450471D01*
X233743740Y-195450471D02*
X233600883Y-195521900D01*
D10*
D11*
X177002200Y-191507200D02*
X285002200Y-191507200D01*
D10*
D12*
X264413853Y-193785528D02*
X263913853Y-193071242D01*
X263556710Y-193785528D02*
X263556710Y-192285528D01*
X263556710Y-192285528D02*
X264128139Y-192285528D01*
X264128139Y-192285528D02*
X264270996Y-192356957D01*
X264270996Y-192356957D02*
X264342425Y-192428385D01*
X264342425Y-192428385D02*
X264413853Y-192571242D01*
X264413853Y-192571242D02*
X264413853Y-192785528D01*
X264413853Y-192785528D02*
X264342425Y-192928385D01*
X264342425Y-192928385D02*
X264270996Y-192999814D01*
X264270996Y-192999814D02*
X264128139Y-193071242D01*
X264128139Y-193071242D02*
X263556710Y-193071242D01*
X265628139Y-193714100D02*
X265485282Y-193785528D01*
X265485282Y-193785528D02*
X265199568Y-193785528D01*
X265199568Y-193785528D02*
X265056710Y-193714100D01*
X265056710Y-193714100D02*
X264985282Y-193571242D01*
X264985282Y-193571242D02*
X264985282Y-192999814D01*
X264985282Y-192999814D02*
X265056710Y-192856957D01*
X265056710Y-192856957D02*
X265199568Y-192785528D01*
X265199568Y-192785528D02*
X265485282Y-192785528D01*
X265485282Y-192785528D02*
X265628139Y-192856957D01*
X265628139Y-192856957D02*
X265699568Y-192999814D01*
X265699568Y-192999814D02*
X265699568Y-193142671D01*
X265699568Y-193142671D02*
X264985282Y-193285528D01*
X266199567Y-192785528D02*
X266556710Y-193785528D01*
X266556710Y-193785528D02*
X266913853Y-192785528D01*
X267485281Y-193642671D02*
X267556710Y-193714100D01*
X267556710Y-193714100D02*
X267485281Y-193785528D01*
X267485281Y-193785528D02*
X267413853Y-193714100D01*
X267413853Y-193714100D02*
X267485281Y-193642671D01*
X267485281Y-193642671D02*
X267485281Y-193785528D01*
X267485281Y-192856957D02*
X267556710Y-192928385D01*
X267556710Y-192928385D02*
X267485281Y-192999814D01*
X267485281Y-192999814D02*
X267413853Y-192928385D01*
X267413853Y-192928385D02*
X267485281Y-192856957D01*
X267485281Y-192856957D02*
X267485281Y-192999814D01*
D10*
D11*
X178386598Y-193721900D02*
X178600884Y-193793328D01*
X178600884Y-193793328D02*
X178958026Y-193793328D01*
X178958026Y-193793328D02*
X179100884Y-193721900D01*
X179100884Y-193721900D02*
X179172312Y-193650471D01*
X179172312Y-193650471D02*
X179243741Y-193507614D01*
X179243741Y-193507614D02*
X179243741Y-193364757D01*
X179243741Y-193364757D02*
X179172312Y-193221900D01*
X179172312Y-193221900D02*
X179100884Y-193150471D01*
X179100884Y-193150471D02*
X178958026Y-193079042D01*
X178958026Y-193079042D02*
X178672312Y-193007614D01*
X178672312Y-193007614D02*
X178529455Y-192936185D01*
X178529455Y-192936185D02*
X178458026Y-192864757D01*
X178458026Y-192864757D02*
X178386598Y-192721900D01*
X178386598Y-192721900D02*
X178386598Y-192579042D01*
X178386598Y-192579042D02*
X178458026Y-192436185D01*
X178458026Y-192436185D02*
X178529455Y-192364757D01*
X178529455Y-192364757D02*
X178672312Y-192293328D01*
X178672312Y-192293328D02*
X179029455Y-192293328D01*
X179029455Y-192293328D02*
X179243741Y-192364757D01*
X179886597Y-193793328D02*
X179886597Y-192793328D01*
X179886597Y-192293328D02*
X179815169Y-192364757D01*
X179815169Y-192364757D02*
X179886597Y-192436185D01*
X179886597Y-192436185D02*
X179958026Y-192364757D01*
X179958026Y-192364757D02*
X179886597Y-192293328D01*
X179886597Y-192293328D02*
X179886597Y-192436185D01*
X180458026Y-192793328D02*
X181243741Y-192793328D01*
X181243741Y-192793328D02*
X180458026Y-193793328D01*
X180458026Y-193793328D02*
X181243741Y-193793328D01*
X182386598Y-193721900D02*
X182243741Y-193793328D01*
X182243741Y-193793328D02*
X181958027Y-193793328D01*
X181958027Y-193793328D02*
X181815169Y-193721900D01*
X181815169Y-193721900D02*
X181743741Y-193579042D01*
X181743741Y-193579042D02*
X181743741Y-193007614D01*
X181743741Y-193007614D02*
X181815169Y-192864757D01*
X181815169Y-192864757D02*
X181958027Y-192793328D01*
X181958027Y-192793328D02*
X182243741Y-192793328D01*
X182243741Y-192793328D02*
X182386598Y-192864757D01*
X182386598Y-192864757D02*
X182458027Y-193007614D01*
X182458027Y-193007614D02*
X182458027Y-193150471D01*
X182458027Y-193150471D02*
X181743741Y-193293328D01*
X183100883Y-193650471D02*
X183172312Y-193721900D01*
X183172312Y-193721900D02*
X183100883Y-193793328D01*
X183100883Y-193793328D02*
X183029455Y-193721900D01*
X183029455Y-193721900D02*
X183100883Y-193650471D01*
X183100883Y-193650471D02*
X183100883Y-193793328D01*
X183100883Y-192864757D02*
X183172312Y-192936185D01*
X183172312Y-192936185D02*
X183100883Y-193007614D01*
X183100883Y-193007614D02*
X183029455Y-192936185D01*
X183029455Y-192936185D02*
X183100883Y-192864757D01*
X183100883Y-192864757D02*
X183100883Y-193007614D01*
X184886598Y-193364757D02*
X185600884Y-193364757D01*
X184743741Y-193793328D02*
X185243741Y-192293328D01*
X185243741Y-192293328D02*
X185743741Y-193793328D01*
X186886598Y-192793328D02*
X186886598Y-193793328D01*
X186529455Y-192221900D02*
X186172312Y-193293328D01*
X186172312Y-193293328D02*
X187100883Y-193293328D01*
D10*
D11*
X263458026Y-196593328D02*
X263458026Y-195093328D01*
X264815170Y-196593328D02*
X264815170Y-195093328D01*
X264815170Y-196521900D02*
X264672312Y-196593328D01*
X264672312Y-196593328D02*
X264386598Y-196593328D01*
X264386598Y-196593328D02*
X264243741Y-196521900D01*
X264243741Y-196521900D02*
X264172312Y-196450471D01*
X264172312Y-196450471D02*
X264100884Y-196307614D01*
X264100884Y-196307614D02*
X264100884Y-195879042D01*
X264100884Y-195879042D02*
X264172312Y-195736185D01*
X264172312Y-195736185D02*
X264243741Y-195664757D01*
X264243741Y-195664757D02*
X264386598Y-195593328D01*
X264386598Y-195593328D02*
X264672312Y-195593328D01*
X264672312Y-195593328D02*
X264815170Y-195664757D01*
X265529455Y-196450471D02*
X265600884Y-196521900D01*
X265600884Y-196521900D02*
X265529455Y-196593328D01*
X265529455Y-196593328D02*
X265458027Y-196521900D01*
X265458027Y-196521900D02*
X265529455Y-196450471D01*
X265529455Y-196450471D02*
X265529455Y-196593328D01*
X265529455Y-195664757D02*
X265600884Y-195736185D01*
X265600884Y-195736185D02*
X265529455Y-195807614D01*
X265529455Y-195807614D02*
X265458027Y-195736185D01*
X265458027Y-195736185D02*
X265529455Y-195664757D01*
X265529455Y-195664757D02*
X265529455Y-195807614D01*
X268172313Y-196593328D02*
X267315170Y-196593328D01*
X267743741Y-196593328D02*
X267743741Y-195093328D01*
X267743741Y-195093328D02*
X267600884Y-195307614D01*
X267600884Y-195307614D02*
X267458027Y-195450471D01*
X267458027Y-195450471D02*
X267315170Y-195521900D01*
X269886598Y-195021900D02*
X268600884Y-196950471D01*
X271172313Y-196593328D02*
X270315170Y-196593328D01*
X270743741Y-196593328D02*
X270743741Y-195093328D01*
X270743741Y-195093328D02*
X270600884Y-195307614D01*
X270600884Y-195307614D02*
X270458027Y-195450471D01*
X270458027Y-195450471D02*
X270315170Y-195521900D01*
D10*
D11*
X177002200Y-187507200D02*
X285002200Y-187507200D01*
D10*
D13*
X178693928Y-188211638D02*
X179836785Y-188211638D01*
X179015357Y-190211638D02*
X179265357Y-188211638D01*
X180253452Y-190211638D02*
X180420119Y-188878304D01*
X180503452Y-188211638D02*
X180396309Y-188306876D01*
X180396309Y-188306876D02*
X180479643Y-188402114D01*
X180479643Y-188402114D02*
X180586786Y-188306876D01*
X180586786Y-188306876D02*
X180503452Y-188211638D01*
X180503452Y-188211638D02*
X180479643Y-188402114D01*
X181086786Y-188878304D02*
X181848690Y-188878304D01*
X181455833Y-188211638D02*
X181241548Y-189925923D01*
X181241548Y-189925923D02*
X181312976Y-190116400D01*
X181312976Y-190116400D02*
X181491548Y-190211638D01*
X181491548Y-190211638D02*
X181682024Y-190211638D01*
X182634405Y-190211638D02*
X182455833Y-190116400D01*
X182455833Y-190116400D02*
X182384405Y-189925923D01*
X182384405Y-189925923D02*
X182598690Y-188211638D01*
X184170119Y-190116400D02*
X183967738Y-190211638D01*
X183967738Y-190211638D02*
X183586785Y-190211638D01*
X183586785Y-190211638D02*
X183408214Y-190116400D01*
X183408214Y-190116400D02*
X183336785Y-189925923D01*
X183336785Y-189925923D02*
X183432024Y-189164019D01*
X183432024Y-189164019D02*
X183551071Y-188973542D01*
X183551071Y-188973542D02*
X183753452Y-188878304D01*
X183753452Y-188878304D02*
X184134404Y-188878304D01*
X184134404Y-188878304D02*
X184312976Y-188973542D01*
X184312976Y-188973542D02*
X184384404Y-189164019D01*
X184384404Y-189164019D02*
X184360595Y-189354495D01*
X184360595Y-189354495D02*
X183384404Y-189544971D01*
X185134405Y-190021161D02*
X185217738Y-190116400D01*
X185217738Y-190116400D02*
X185110595Y-190211638D01*
X185110595Y-190211638D02*
X185027262Y-190116400D01*
X185027262Y-190116400D02*
X185134405Y-190021161D01*
X185134405Y-190021161D02*
X185110595Y-190211638D01*
X185265357Y-188973542D02*
X185348690Y-189068780D01*
X185348690Y-189068780D02*
X185241548Y-189164019D01*
X185241548Y-189164019D02*
X185158214Y-189068780D01*
X185158214Y-189068780D02*
X185265357Y-188973542D01*
X185265357Y-188973542D02*
X185241548Y-189164019D01*
D10*
D11*
X178958026Y-185607614D02*
X178458026Y-185607614D01*
X178458026Y-186393328D02*
X178458026Y-184893328D01*
X178458026Y-184893328D02*
X179172312Y-184893328D01*
X179743740Y-186393328D02*
X179743740Y-185393328D01*
X179743740Y-184893328D02*
X179672312Y-184964757D01*
X179672312Y-184964757D02*
X179743740Y-185036185D01*
X179743740Y-185036185D02*
X179815169Y-184964757D01*
X179815169Y-184964757D02*
X179743740Y-184893328D01*
X179743740Y-184893328D02*
X179743740Y-185036185D01*
X180672312Y-186393328D02*
X180529455Y-186321900D01*
X180529455Y-186321900D02*
X180458026Y-186179042D01*
X180458026Y-186179042D02*
X180458026Y-184893328D01*
X181815169Y-186321900D02*
X181672312Y-186393328D01*
X181672312Y-186393328D02*
X181386598Y-186393328D01*
X181386598Y-186393328D02*
X181243740Y-186321900D01*
X181243740Y-186321900D02*
X181172312Y-186179042D01*
X181172312Y-186179042D02*
X181172312Y-185607614D01*
X181172312Y-185607614D02*
X181243740Y-185464757D01*
X181243740Y-185464757D02*
X181386598Y-185393328D01*
X181386598Y-185393328D02*
X181672312Y-185393328D01*
X181672312Y-185393328D02*
X181815169Y-185464757D01*
X181815169Y-185464757D02*
X181886598Y-185607614D01*
X181886598Y-185607614D02*
X181886598Y-185750471D01*
X181886598Y-185750471D02*
X181172312Y-185893328D01*
X182529454Y-186250471D02*
X182600883Y-186321900D01*
X182600883Y-186321900D02*
X182529454Y-186393328D01*
X182529454Y-186393328D02*
X182458026Y-186321900D01*
X182458026Y-186321900D02*
X182529454Y-186250471D01*
X182529454Y-186250471D02*
X182529454Y-186393328D01*
X182529454Y-185464757D02*
X182600883Y-185536185D01*
X182600883Y-185536185D02*
X182529454Y-185607614D01*
X182529454Y-185607614D02*
X182458026Y-185536185D01*
X182458026Y-185536185D02*
X182529454Y-185464757D01*
X182529454Y-185464757D02*
X182529454Y-185607614D01*
X184386597Y-186393328D02*
X184386597Y-184893328D01*
X184386597Y-184893328D02*
X184886597Y-185964757D01*
X184886597Y-185964757D02*
X185386597Y-184893328D01*
X185386597Y-184893328D02*
X185386597Y-186393328D01*
X186100883Y-186393328D02*
X186100883Y-185393328D01*
X186100883Y-184893328D02*
X186029455Y-184964757D01*
X186029455Y-184964757D02*
X186100883Y-185036185D01*
X186100883Y-185036185D02*
X186172312Y-184964757D01*
X186172312Y-184964757D02*
X186100883Y-184893328D01*
X186100883Y-184893328D02*
X186100883Y-185036185D01*
X187458027Y-186321900D02*
X187315169Y-186393328D01*
X187315169Y-186393328D02*
X187029455Y-186393328D01*
X187029455Y-186393328D02*
X186886598Y-186321900D01*
X186886598Y-186321900D02*
X186815169Y-186250471D01*
X186815169Y-186250471D02*
X186743741Y-186107614D01*
X186743741Y-186107614D02*
X186743741Y-185679042D01*
X186743741Y-185679042D02*
X186815169Y-185536185D01*
X186815169Y-185536185D02*
X186886598Y-185464757D01*
X186886598Y-185464757D02*
X187029455Y-185393328D01*
X187029455Y-185393328D02*
X187315169Y-185393328D01*
X187315169Y-185393328D02*
X187458027Y-185464757D01*
X188100883Y-186393328D02*
X188100883Y-185393328D01*
X188100883Y-185679042D02*
X188172312Y-185536185D01*
X188172312Y-185536185D02*
X188243741Y-185464757D01*
X188243741Y-185464757D02*
X188386598Y-185393328D01*
X188386598Y-185393328D02*
X188529455Y-185393328D01*
X189243740Y-186393328D02*
X189100883Y-186321900D01*
X189100883Y-186321900D02*
X189029454Y-186250471D01*
X189029454Y-186250471D02*
X188958026Y-186107614D01*
X188958026Y-186107614D02*
X188958026Y-185679042D01*
X188958026Y-185679042D02*
X189029454Y-185536185D01*
X189029454Y-185536185D02*
X189100883Y-185464757D01*
X189100883Y-185464757D02*
X189243740Y-185393328D01*
X189243740Y-185393328D02*
X189458026Y-185393328D01*
X189458026Y-185393328D02*
X189600883Y-185464757D01*
X189600883Y-185464757D02*
X189672312Y-185536185D01*
X189672312Y-185536185D02*
X189743740Y-185679042D01*
X189743740Y-185679042D02*
X189743740Y-186107614D01*
X189743740Y-186107614D02*
X189672312Y-186250471D01*
X189672312Y-186250471D02*
X189600883Y-186321900D01*
X189600883Y-186321900D02*
X189458026Y-186393328D01*
X189458026Y-186393328D02*
X189243740Y-186393328D01*
X190315169Y-186321900D02*
X190529455Y-186393328D01*
X190529455Y-186393328D02*
X190886597Y-186393328D01*
X190886597Y-186393328D02*
X191029455Y-186321900D01*
X191029455Y-186321900D02*
X191100883Y-186250471D01*
X191100883Y-186250471D02*
X191172312Y-186107614D01*
X191172312Y-186107614D02*
X191172312Y-185964757D01*
X191172312Y-185964757D02*
X191100883Y-185821900D01*
X191100883Y-185821900D02*
X191029455Y-185750471D01*
X191029455Y-185750471D02*
X190886597Y-185679042D01*
X190886597Y-185679042D02*
X190600883Y-185607614D01*
X190600883Y-185607614D02*
X190458026Y-185536185D01*
X190458026Y-185536185D02*
X190386597Y-185464757D01*
X190386597Y-185464757D02*
X190315169Y-185321900D01*
X190315169Y-185321900D02*
X190315169Y-185179042D01*
X190315169Y-185179042D02*
X190386597Y-185036185D01*
X190386597Y-185036185D02*
X190458026Y-184964757D01*
X190458026Y-184964757D02*
X190600883Y-184893328D01*
X190600883Y-184893328D02*
X190958026Y-184893328D01*
X190958026Y-184893328D02*
X191172312Y-184964757D01*
X191815168Y-186393328D02*
X191815168Y-184893328D01*
X191815168Y-184893328D02*
X192172311Y-184893328D01*
X192172311Y-184893328D02*
X192386597Y-184964757D01*
X192386597Y-184964757D02*
X192529454Y-185107614D01*
X192529454Y-185107614D02*
X192600883Y-185250471D01*
X192600883Y-185250471D02*
X192672311Y-185536185D01*
X192672311Y-185536185D02*
X192672311Y-185750471D01*
X192672311Y-185750471D02*
X192600883Y-186036185D01*
X192600883Y-186036185D02*
X192529454Y-186179042D01*
X192529454Y-186179042D02*
X192386597Y-186321900D01*
X192386597Y-186321900D02*
X192172311Y-186393328D01*
X192172311Y-186393328D02*
X191815168Y-186393328D01*
X193100883Y-184893328D02*
X193600883Y-186393328D01*
X193600883Y-186393328D02*
X194100883Y-184893328D01*
X194529454Y-185036185D02*
X194600882Y-184964757D01*
X194600882Y-184964757D02*
X194743740Y-184893328D01*
X194743740Y-184893328D02*
X195100882Y-184893328D01*
X195100882Y-184893328D02*
X195243740Y-184964757D01*
X195243740Y-184964757D02*
X195315168Y-185036185D01*
X195315168Y-185036185D02*
X195386597Y-185179042D01*
X195386597Y-185179042D02*
X195386597Y-185321900D01*
X195386597Y-185321900D02*
X195315168Y-185536185D01*
X195315168Y-185536185D02*
X194458025Y-186393328D01*
X194458025Y-186393328D02*
X195386597Y-186393328D01*
X196029453Y-186250471D02*
X196100882Y-186321900D01*
X196100882Y-186321900D02*
X196029453Y-186393328D01*
X196029453Y-186393328D02*
X195958025Y-186321900D01*
X195958025Y-186321900D02*
X196029453Y-186250471D01*
X196029453Y-186250471D02*
X196029453Y-186393328D01*
X196743739Y-186393328D02*
X196743739Y-184893328D01*
X196886597Y-185821900D02*
X197315168Y-186393328D01*
X197315168Y-185393328D02*
X196743739Y-185964757D01*
X197958025Y-186393328D02*
X197958025Y-185393328D01*
X197958025Y-184893328D02*
X197886597Y-184964757D01*
X197886597Y-184964757D02*
X197958025Y-185036185D01*
X197958025Y-185036185D02*
X198029454Y-184964757D01*
X198029454Y-184964757D02*
X197958025Y-184893328D01*
X197958025Y-184893328D02*
X197958025Y-185036185D01*
X199315169Y-186321900D02*
X199172311Y-186393328D01*
X199172311Y-186393328D02*
X198886597Y-186393328D01*
X198886597Y-186393328D02*
X198743740Y-186321900D01*
X198743740Y-186321900D02*
X198672311Y-186250471D01*
X198672311Y-186250471D02*
X198600883Y-186107614D01*
X198600883Y-186107614D02*
X198600883Y-185679042D01*
X198600883Y-185679042D02*
X198672311Y-185536185D01*
X198672311Y-185536185D02*
X198743740Y-185464757D01*
X198743740Y-185464757D02*
X198886597Y-185393328D01*
X198886597Y-185393328D02*
X199172311Y-185393328D01*
X199172311Y-185393328D02*
X199315169Y-185464757D01*
X200600883Y-186393328D02*
X200600883Y-185607614D01*
X200600883Y-185607614D02*
X200529454Y-185464757D01*
X200529454Y-185464757D02*
X200386597Y-185393328D01*
X200386597Y-185393328D02*
X200100883Y-185393328D01*
X200100883Y-185393328D02*
X199958025Y-185464757D01*
X200600883Y-186321900D02*
X200458025Y-186393328D01*
X200458025Y-186393328D02*
X200100883Y-186393328D01*
X200100883Y-186393328D02*
X199958025Y-186321900D01*
X199958025Y-186321900D02*
X199886597Y-186179042D01*
X199886597Y-186179042D02*
X199886597Y-186036185D01*
X199886597Y-186036185D02*
X199958025Y-185893328D01*
X199958025Y-185893328D02*
X200100883Y-185821900D01*
X200100883Y-185821900D02*
X200458025Y-185821900D01*
X200458025Y-185821900D02*
X200600883Y-185750471D01*
X201958026Y-186393328D02*
X201958026Y-184893328D01*
X201958026Y-186321900D02*
X201815168Y-186393328D01*
X201815168Y-186393328D02*
X201529454Y-186393328D01*
X201529454Y-186393328D02*
X201386597Y-186321900D01*
X201386597Y-186321900D02*
X201315168Y-186250471D01*
X201315168Y-186250471D02*
X201243740Y-186107614D01*
X201243740Y-186107614D02*
X201243740Y-185679042D01*
X201243740Y-185679042D02*
X201315168Y-185536185D01*
X201315168Y-185536185D02*
X201386597Y-185464757D01*
X201386597Y-185464757D02*
X201529454Y-185393328D01*
X201529454Y-185393328D02*
X201815168Y-185393328D01*
X201815168Y-185393328D02*
X201958026Y-185464757D01*
X202315169Y-186536185D02*
X203458026Y-186536185D01*
X203815168Y-185393328D02*
X203815168Y-186893328D01*
X203815168Y-185464757D02*
X203958026Y-185393328D01*
X203958026Y-185393328D02*
X204243740Y-185393328D01*
X204243740Y-185393328D02*
X204386597Y-185464757D01*
X204386597Y-185464757D02*
X204458026Y-185536185D01*
X204458026Y-185536185D02*
X204529454Y-185679042D01*
X204529454Y-185679042D02*
X204529454Y-186107614D01*
X204529454Y-186107614D02*
X204458026Y-186250471D01*
X204458026Y-186250471D02*
X204386597Y-186321900D01*
X204386597Y-186321900D02*
X204243740Y-186393328D01*
X204243740Y-186393328D02*
X203958026Y-186393328D01*
X203958026Y-186393328D02*
X203815168Y-186321900D01*
X205815169Y-186321900D02*
X205672311Y-186393328D01*
X205672311Y-186393328D02*
X205386597Y-186393328D01*
X205386597Y-186393328D02*
X205243740Y-186321900D01*
X205243740Y-186321900D02*
X205172311Y-186250471D01*
X205172311Y-186250471D02*
X205100883Y-186107614D01*
X205100883Y-186107614D02*
X205100883Y-185679042D01*
X205100883Y-185679042D02*
X205172311Y-185536185D01*
X205172311Y-185536185D02*
X205243740Y-185464757D01*
X205243740Y-185464757D02*
X205386597Y-185393328D01*
X205386597Y-185393328D02*
X205672311Y-185393328D01*
X205672311Y-185393328D02*
X205815169Y-185464757D01*
X206458025Y-186393328D02*
X206458025Y-184893328D01*
X206458025Y-185464757D02*
X206600883Y-185393328D01*
X206600883Y-185393328D02*
X206886597Y-185393328D01*
X206886597Y-185393328D02*
X207029454Y-185464757D01*
X207029454Y-185464757D02*
X207100883Y-185536185D01*
X207100883Y-185536185D02*
X207172311Y-185679042D01*
X207172311Y-185679042D02*
X207172311Y-186107614D01*
X207172311Y-186107614D02*
X207100883Y-186250471D01*
X207100883Y-186250471D02*
X207029454Y-186321900D01*
X207029454Y-186321900D02*
X206886597Y-186393328D01*
X206886597Y-186393328D02*
X206600883Y-186393328D01*
X206600883Y-186393328D02*
X206458025Y-186321900D01*
D10*
D11*
X177002200Y-181507200D02*
X285002200Y-181507200D01*
D10*
D11*
X178386598Y-183621900D02*
X178600884Y-183693328D01*
X178600884Y-183693328D02*
X178958026Y-183693328D01*
X178958026Y-183693328D02*
X179100884Y-183621900D01*
X179100884Y-183621900D02*
X179172312Y-183550471D01*
X179172312Y-183550471D02*
X179243741Y-183407614D01*
X179243741Y-183407614D02*
X179243741Y-183264757D01*
X179243741Y-183264757D02*
X179172312Y-183121900D01*
X179172312Y-183121900D02*
X179100884Y-183050471D01*
X179100884Y-183050471D02*
X178958026Y-182979042D01*
X178958026Y-182979042D02*
X178672312Y-182907614D01*
X178672312Y-182907614D02*
X178529455Y-182836185D01*
X178529455Y-182836185D02*
X178458026Y-182764757D01*
X178458026Y-182764757D02*
X178386598Y-182621900D01*
X178386598Y-182621900D02*
X178386598Y-182479042D01*
X178386598Y-182479042D02*
X178458026Y-182336185D01*
X178458026Y-182336185D02*
X178529455Y-182264757D01*
X178529455Y-182264757D02*
X178672312Y-182193328D01*
X178672312Y-182193328D02*
X179029455Y-182193328D01*
X179029455Y-182193328D02*
X179243741Y-182264757D01*
X179886597Y-183693328D02*
X179886597Y-182193328D01*
X180529455Y-183693328D02*
X180529455Y-182907614D01*
X180529455Y-182907614D02*
X180458026Y-182764757D01*
X180458026Y-182764757D02*
X180315169Y-182693328D01*
X180315169Y-182693328D02*
X180100883Y-182693328D01*
X180100883Y-182693328D02*
X179958026Y-182764757D01*
X179958026Y-182764757D02*
X179886597Y-182836185D01*
X181815169Y-183621900D02*
X181672312Y-183693328D01*
X181672312Y-183693328D02*
X181386598Y-183693328D01*
X181386598Y-183693328D02*
X181243740Y-183621900D01*
X181243740Y-183621900D02*
X181172312Y-183479042D01*
X181172312Y-183479042D02*
X181172312Y-182907614D01*
X181172312Y-182907614D02*
X181243740Y-182764757D01*
X181243740Y-182764757D02*
X181386598Y-182693328D01*
X181386598Y-182693328D02*
X181672312Y-182693328D01*
X181672312Y-182693328D02*
X181815169Y-182764757D01*
X181815169Y-182764757D02*
X181886598Y-182907614D01*
X181886598Y-182907614D02*
X181886598Y-183050471D01*
X181886598Y-183050471D02*
X181172312Y-183193328D01*
X183100883Y-183621900D02*
X182958026Y-183693328D01*
X182958026Y-183693328D02*
X182672312Y-183693328D01*
X182672312Y-183693328D02*
X182529454Y-183621900D01*
X182529454Y-183621900D02*
X182458026Y-183479042D01*
X182458026Y-183479042D02*
X182458026Y-182907614D01*
X182458026Y-182907614D02*
X182529454Y-182764757D01*
X182529454Y-182764757D02*
X182672312Y-182693328D01*
X182672312Y-182693328D02*
X182958026Y-182693328D01*
X182958026Y-182693328D02*
X183100883Y-182764757D01*
X183100883Y-182764757D02*
X183172312Y-182907614D01*
X183172312Y-182907614D02*
X183172312Y-183050471D01*
X183172312Y-183050471D02*
X182458026Y-183193328D01*
X183600883Y-182693328D02*
X184172311Y-182693328D01*
X183815168Y-182193328D02*
X183815168Y-183479042D01*
X183815168Y-183479042D02*
X183886597Y-183621900D01*
X183886597Y-183621900D02*
X184029454Y-183693328D01*
X184029454Y-183693328D02*
X184172311Y-183693328D01*
X184672311Y-183550471D02*
X184743740Y-183621900D01*
X184743740Y-183621900D02*
X184672311Y-183693328D01*
X184672311Y-183693328D02*
X184600883Y-183621900D01*
X184600883Y-183621900D02*
X184672311Y-183550471D01*
X184672311Y-183550471D02*
X184672311Y-183693328D01*
X184672311Y-182764757D02*
X184743740Y-182836185D01*
X184743740Y-182836185D02*
X184672311Y-182907614D01*
X184672311Y-182907614D02*
X184600883Y-182836185D01*
X184600883Y-182836185D02*
X184672311Y-182764757D01*
X184672311Y-182764757D02*
X184672311Y-182907614D01*
D10*
D12*
D10*
D11*
D10*
D11*
D10*
D11*
D10*
D11*
D10*
D11*
X197002200Y-191507200D02*
X197002200Y-194507200D01*
D10*
D11*
X261002200Y-191507200D02*
X261002200Y-198007200D01*
X200603200Y-104457332D02*
X200650819Y-104314475D01*
X200650819Y-104314475D02*
X200650819Y-104076380D01*
X200650819Y-104076380D02*
X200603200Y-103981142D01*
X200603200Y-103981142D02*
X200555580Y-103933523D01*
X200555580Y-103933523D02*
X200460342Y-103885904D01*
X200460342Y-103885904D02*
X200365104Y-103885904D01*
X200365104Y-103885904D02*
X200269866Y-103933523D01*
X200269866Y-103933523D02*
X200222247Y-103981142D01*
X200222247Y-103981142D02*
X200174628Y-104076380D01*
X200174628Y-104076380D02*
X200127009Y-104266856D01*
X200127009Y-104266856D02*
X200079390Y-104362094D01*
X200079390Y-104362094D02*
X200031771Y-104409713D01*
X200031771Y-104409713D02*
X199936533Y-104457332D01*
X199936533Y-104457332D02*
X199841295Y-104457332D01*
X199841295Y-104457332D02*
X199746057Y-104409713D01*
X199746057Y-104409713D02*
X199698438Y-104362094D01*
X199698438Y-104362094D02*
X199650819Y-104266856D01*
X199650819Y-104266856D02*
X199650819Y-104028761D01*
X199650819Y-104028761D02*
X199698438Y-103885904D01*
X199650819Y-103552570D02*
X200650819Y-103314475D01*
X200650819Y-103314475D02*
X199936533Y-103123999D01*
X199936533Y-103123999D02*
X200650819Y-102933523D01*
X200650819Y-102933523D02*
X199650819Y-102695428D01*
X199746057Y-102362094D02*
X199698438Y-102314475D01*
X199698438Y-102314475D02*
X199650819Y-102219237D01*
X199650819Y-102219237D02*
X199650819Y-101981142D01*
X199650819Y-101981142D02*
X199698438Y-101885904D01*
X199698438Y-101885904D02*
X199746057Y-101838285D01*
X199746057Y-101838285D02*
X199841295Y-101790666D01*
X199841295Y-101790666D02*
X199936533Y-101790666D01*
X199936533Y-101790666D02*
X200079390Y-101838285D01*
X200079390Y-101838285D02*
X200650819Y-102409713D01*
X200650819Y-102409713D02*
X200650819Y-101790666D01*
X204087833Y-117439580D02*
X204040214Y-117487200D01*
X204040214Y-117487200D02*
X203897357Y-117534819D01*
X203897357Y-117534819D02*
X203802119Y-117534819D01*
X203802119Y-117534819D02*
X203659262Y-117487200D01*
X203659262Y-117487200D02*
X203564024Y-117391961D01*
X203564024Y-117391961D02*
X203516405Y-117296723D01*
X203516405Y-117296723D02*
X203468786Y-117106247D01*
X203468786Y-117106247D02*
X203468786Y-116963390D01*
X203468786Y-116963390D02*
X203516405Y-116772914D01*
X203516405Y-116772914D02*
X203564024Y-116677676D01*
X203564024Y-116677676D02*
X203659262Y-116582438D01*
X203659262Y-116582438D02*
X203802119Y-116534819D01*
X203802119Y-116534819D02*
X203897357Y-116534819D01*
X203897357Y-116534819D02*
X204040214Y-116582438D01*
X204040214Y-116582438D02*
X204087833Y-116630057D01*
X204992595Y-116534819D02*
X204516405Y-116534819D01*
X204516405Y-116534819D02*
X204468786Y-117011009D01*
X204468786Y-117011009D02*
X204516405Y-116963390D01*
X204516405Y-116963390D02*
X204611643Y-116915771D01*
X204611643Y-116915771D02*
X204849738Y-116915771D01*
X204849738Y-116915771D02*
X204944976Y-116963390D01*
X204944976Y-116963390D02*
X204992595Y-117011009D01*
X204992595Y-117011009D02*
X205040214Y-117106247D01*
X205040214Y-117106247D02*
X205040214Y-117344342D01*
X205040214Y-117344342D02*
X204992595Y-117439580D01*
X204992595Y-117439580D02*
X204944976Y-117487200D01*
X204944976Y-117487200D02*
X204849738Y-117534819D01*
X204849738Y-117534819D02*
X204611643Y-117534819D01*
X204611643Y-117534819D02*
X204516405Y-117487200D01*
X204516405Y-117487200D02*
X204468786Y-117439580D01*
X164425333Y-112722819D02*
X164092000Y-112246628D01*
X163853905Y-112722819D02*
X163853905Y-111722819D01*
X163853905Y-111722819D02*
X164234857Y-111722819D01*
X164234857Y-111722819D02*
X164330095Y-111770438D01*
X164330095Y-111770438D02*
X164377714Y-111818057D01*
X164377714Y-111818057D02*
X164425333Y-111913295D01*
X164425333Y-111913295D02*
X164425333Y-112056152D01*
X164425333Y-112056152D02*
X164377714Y-112151390D01*
X164377714Y-112151390D02*
X164330095Y-112199009D01*
X164330095Y-112199009D02*
X164234857Y-112246628D01*
X164234857Y-112246628D02*
X163853905Y-112246628D01*
X164758667Y-111722819D02*
X165425333Y-111722819D01*
X165425333Y-111722819D02*
X164996762Y-112722819D01*
X211608580Y-107422666D02*
X211656200Y-107470285D01*
X211656200Y-107470285D02*
X211703819Y-107613142D01*
X211703819Y-107613142D02*
X211703819Y-107708380D01*
X211703819Y-107708380D02*
X211656200Y-107851237D01*
X211656200Y-107851237D02*
X211560961Y-107946475D01*
X211560961Y-107946475D02*
X211465723Y-107994094D01*
X211465723Y-107994094D02*
X211275247Y-108041713D01*
X211275247Y-108041713D02*
X211132390Y-108041713D01*
X211132390Y-108041713D02*
X210941914Y-107994094D01*
X210941914Y-107994094D02*
X210846676Y-107946475D01*
X210846676Y-107946475D02*
X210751438Y-107851237D01*
X210751438Y-107851237D02*
X210703819Y-107708380D01*
X210703819Y-107708380D02*
X210703819Y-107613142D01*
X210703819Y-107613142D02*
X210751438Y-107470285D01*
X210751438Y-107470285D02*
X210799057Y-107422666D01*
X210799057Y-107041713D02*
X210751438Y-106994094D01*
X210751438Y-106994094D02*
X210703819Y-106898856D01*
X210703819Y-106898856D02*
X210703819Y-106660761D01*
X210703819Y-106660761D02*
X210751438Y-106565523D01*
X210751438Y-106565523D02*
X210799057Y-106517904D01*
X210799057Y-106517904D02*
X210894295Y-106470285D01*
X210894295Y-106470285D02*
X210989533Y-106470285D01*
X210989533Y-106470285D02*
X211132390Y-106517904D01*
X211132390Y-106517904D02*
X211703819Y-107089332D01*
X211703819Y-107089332D02*
X211703819Y-106470285D01*
X214907819Y-115868094D02*
X213907819Y-115868094D01*
X213907819Y-115868094D02*
X213907819Y-115629999D01*
X213907819Y-115629999D02*
X213955438Y-115487142D01*
X213955438Y-115487142D02*
X214050676Y-115391904D01*
X214050676Y-115391904D02*
X214145914Y-115344285D01*
X214145914Y-115344285D02*
X214336390Y-115296666D01*
X214336390Y-115296666D02*
X214479247Y-115296666D01*
X214479247Y-115296666D02*
X214669723Y-115344285D01*
X214669723Y-115344285D02*
X214764961Y-115391904D01*
X214764961Y-115391904D02*
X214860200Y-115487142D01*
X214860200Y-115487142D02*
X214907819Y-115629999D01*
X214907819Y-115629999D02*
X214907819Y-115868094D01*
X214003057Y-114915713D02*
X213955438Y-114868094D01*
X213955438Y-114868094D02*
X213907819Y-114772856D01*
X213907819Y-114772856D02*
X213907819Y-114534761D01*
X213907819Y-114534761D02*
X213955438Y-114439523D01*
X213955438Y-114439523D02*
X214003057Y-114391904D01*
X214003057Y-114391904D02*
X214098295Y-114344285D01*
X214098295Y-114344285D02*
X214193533Y-114344285D01*
X214193533Y-114344285D02*
X214336390Y-114391904D01*
X214336390Y-114391904D02*
X214907819Y-114963332D01*
X214907819Y-114963332D02*
X214907819Y-114344285D01*
X180260666Y-104320819D02*
X180260666Y-105035104D01*
X180260666Y-105035104D02*
X180213047Y-105177961D01*
X180213047Y-105177961D02*
X180117809Y-105273200D01*
X180117809Y-105273200D02*
X179974952Y-105320819D01*
X179974952Y-105320819D02*
X179879714Y-105320819D01*
X181260666Y-105320819D02*
X180689238Y-105320819D01*
X180974952Y-105320819D02*
X180974952Y-104320819D01*
X180974952Y-104320819D02*
X180879714Y-104463676D01*
X180879714Y-104463676D02*
X180784476Y-104558914D01*
X180784476Y-104558914D02*
X180689238Y-104606533D01*
X185340666Y-104320819D02*
X185340666Y-105035104D01*
X185340666Y-105035104D02*
X185293047Y-105177961D01*
X185293047Y-105177961D02*
X185197809Y-105273200D01*
X185197809Y-105273200D02*
X185054952Y-105320819D01*
X185054952Y-105320819D02*
X184959714Y-105320819D01*
X185769238Y-104416057D02*
X185816857Y-104368438D01*
X185816857Y-104368438D02*
X185912095Y-104320819D01*
X185912095Y-104320819D02*
X186150190Y-104320819D01*
X186150190Y-104320819D02*
X186245428Y-104368438D01*
X186245428Y-104368438D02*
X186293047Y-104416057D01*
X186293047Y-104416057D02*
X186340666Y-104511295D01*
X186340666Y-104511295D02*
X186340666Y-104606533D01*
X186340666Y-104606533D02*
X186293047Y-104749390D01*
X186293047Y-104749390D02*
X185721619Y-105320819D01*
X185721619Y-105320819D02*
X186340666Y-105320819D01*
X189470080Y-105576666D02*
X189517700Y-105624285D01*
X189517700Y-105624285D02*
X189565319Y-105767142D01*
X189565319Y-105767142D02*
X189565319Y-105862380D01*
X189565319Y-105862380D02*
X189517700Y-106005237D01*
X189517700Y-106005237D02*
X189422461Y-106100475D01*
X189422461Y-106100475D02*
X189327223Y-106148094D01*
X189327223Y-106148094D02*
X189136747Y-106195713D01*
X189136747Y-106195713D02*
X188993890Y-106195713D01*
X188993890Y-106195713D02*
X188803414Y-106148094D01*
X188803414Y-106148094D02*
X188708176Y-106100475D01*
X188708176Y-106100475D02*
X188612938Y-106005237D01*
X188612938Y-106005237D02*
X188565319Y-105862380D01*
X188565319Y-105862380D02*
X188565319Y-105767142D01*
X188565319Y-105767142D02*
X188612938Y-105624285D01*
X188612938Y-105624285D02*
X188660557Y-105576666D01*
X188993890Y-105005237D02*
X188946271Y-105100475D01*
X188946271Y-105100475D02*
X188898652Y-105148094D01*
X188898652Y-105148094D02*
X188803414Y-105195713D01*
X188803414Y-105195713D02*
X188755795Y-105195713D01*
X188755795Y-105195713D02*
X188660557Y-105148094D01*
X188660557Y-105148094D02*
X188612938Y-105100475D01*
X188612938Y-105100475D02*
X188565319Y-105005237D01*
X188565319Y-105005237D02*
X188565319Y-104814761D01*
X188565319Y-104814761D02*
X188612938Y-104719523D01*
X188612938Y-104719523D02*
X188660557Y-104671904D01*
X188660557Y-104671904D02*
X188755795Y-104624285D01*
X188755795Y-104624285D02*
X188803414Y-104624285D01*
X188803414Y-104624285D02*
X188898652Y-104671904D01*
X188898652Y-104671904D02*
X188946271Y-104719523D01*
X188946271Y-104719523D02*
X188993890Y-104814761D01*
X188993890Y-104814761D02*
X188993890Y-105005237D01*
X188993890Y-105005237D02*
X189041509Y-105100475D01*
X189041509Y-105100475D02*
X189089128Y-105148094D01*
X189089128Y-105148094D02*
X189184366Y-105195713D01*
X189184366Y-105195713D02*
X189374842Y-105195713D01*
X189374842Y-105195713D02*
X189470080Y-105148094D01*
X189470080Y-105148094D02*
X189517700Y-105100475D01*
X189517700Y-105100475D02*
X189565319Y-105005237D01*
X189565319Y-105005237D02*
X189565319Y-104814761D01*
X189565319Y-104814761D02*
X189517700Y-104719523D01*
X189517700Y-104719523D02*
X189470080Y-104671904D01*
X189470080Y-104671904D02*
X189374842Y-104624285D01*
X189374842Y-104624285D02*
X189184366Y-104624285D01*
X189184366Y-104624285D02*
X189089128Y-104671904D01*
X189089128Y-104671904D02*
X189041509Y-104719523D01*
X189041509Y-104719523D02*
X188993890Y-104814761D01*
X202366580Y-124694666D02*
X202414200Y-124742285D01*
X202414200Y-124742285D02*
X202461819Y-124885142D01*
X202461819Y-124885142D02*
X202461819Y-124980380D01*
X202461819Y-124980380D02*
X202414200Y-125123237D01*
X202414200Y-125123237D02*
X202318961Y-125218475D01*
X202318961Y-125218475D02*
X202223723Y-125266094D01*
X202223723Y-125266094D02*
X202033247Y-125313713D01*
X202033247Y-125313713D02*
X201890390Y-125313713D01*
X201890390Y-125313713D02*
X201699914Y-125266094D01*
X201699914Y-125266094D02*
X201604676Y-125218475D01*
X201604676Y-125218475D02*
X201509438Y-125123237D01*
X201509438Y-125123237D02*
X201461819Y-124980380D01*
X201461819Y-124980380D02*
X201461819Y-124885142D01*
X201461819Y-124885142D02*
X201509438Y-124742285D01*
X201509438Y-124742285D02*
X201557057Y-124694666D01*
X201461819Y-123837523D02*
X201461819Y-124027999D01*
X201461819Y-124027999D02*
X201509438Y-124123237D01*
X201509438Y-124123237D02*
X201557057Y-124170856D01*
X201557057Y-124170856D02*
X201699914Y-124266094D01*
X201699914Y-124266094D02*
X201890390Y-124313713D01*
X201890390Y-124313713D02*
X202271342Y-124313713D01*
X202271342Y-124313713D02*
X202366580Y-124266094D01*
X202366580Y-124266094D02*
X202414200Y-124218475D01*
X202414200Y-124218475D02*
X202461819Y-124123237D01*
X202461819Y-124123237D02*
X202461819Y-123932761D01*
X202461819Y-123932761D02*
X202414200Y-123837523D01*
X202414200Y-123837523D02*
X202366580Y-123789904D01*
X202366580Y-123789904D02*
X202271342Y-123742285D01*
X202271342Y-123742285D02*
X202033247Y-123742285D01*
X202033247Y-123742285D02*
X201938009Y-123789904D01*
X201938009Y-123789904D02*
X201890390Y-123837523D01*
X201890390Y-123837523D02*
X201842771Y-123932761D01*
X201842771Y-123932761D02*
X201842771Y-124123237D01*
X201842771Y-124123237D02*
X201890390Y-124218475D01*
X201890390Y-124218475D02*
X201938009Y-124266094D01*
X201938009Y-124266094D02*
X202033247Y-124313713D01*
X164171333Y-107388819D02*
X163838000Y-106912628D01*
X163599905Y-107388819D02*
X163599905Y-106388819D01*
X163599905Y-106388819D02*
X163980857Y-106388819D01*
X163980857Y-106388819D02*
X164076095Y-106436438D01*
X164076095Y-106436438D02*
X164123714Y-106484057D01*
X164123714Y-106484057D02*
X164171333Y-106579295D01*
X164171333Y-106579295D02*
X164171333Y-106722152D01*
X164171333Y-106722152D02*
X164123714Y-106817390D01*
X164123714Y-106817390D02*
X164076095Y-106865009D01*
X164076095Y-106865009D02*
X163980857Y-106912628D01*
X163980857Y-106912628D02*
X163599905Y-106912628D01*
X165028476Y-106388819D02*
X164838000Y-106388819D01*
X164838000Y-106388819D02*
X164742762Y-106436438D01*
X164742762Y-106436438D02*
X164695143Y-106484057D01*
X164695143Y-106484057D02*
X164599905Y-106626914D01*
X164599905Y-106626914D02*
X164552286Y-106817390D01*
X164552286Y-106817390D02*
X164552286Y-107198342D01*
X164552286Y-107198342D02*
X164599905Y-107293580D01*
X164599905Y-107293580D02*
X164647524Y-107341200D01*
X164647524Y-107341200D02*
X164742762Y-107388819D01*
X164742762Y-107388819D02*
X164933238Y-107388819D01*
X164933238Y-107388819D02*
X165028476Y-107341200D01*
X165028476Y-107341200D02*
X165076095Y-107293580D01*
X165076095Y-107293580D02*
X165123714Y-107198342D01*
X165123714Y-107198342D02*
X165123714Y-106960247D01*
X165123714Y-106960247D02*
X165076095Y-106865009D01*
X165076095Y-106865009D02*
X165028476Y-106817390D01*
X165028476Y-106817390D02*
X164933238Y-106769771D01*
X164933238Y-106769771D02*
X164742762Y-106769771D01*
X164742762Y-106769771D02*
X164647524Y-106817390D01*
X164647524Y-106817390D02*
X164599905Y-106865009D01*
X164599905Y-106865009D02*
X164552286Y-106960247D01*
X167714819Y-119546666D02*
X167238628Y-119879999D01*
X167714819Y-120118094D02*
X166714819Y-120118094D01*
X166714819Y-120118094D02*
X166714819Y-119737142D01*
X166714819Y-119737142D02*
X166762438Y-119641904D01*
X166762438Y-119641904D02*
X166810057Y-119594285D01*
X166810057Y-119594285D02*
X166905295Y-119546666D01*
X166905295Y-119546666D02*
X167048152Y-119546666D01*
X167048152Y-119546666D02*
X167143390Y-119594285D01*
X167143390Y-119594285D02*
X167191009Y-119641904D01*
X167191009Y-119641904D02*
X167238628Y-119737142D01*
X167238628Y-119737142D02*
X167238628Y-120118094D01*
X166714819Y-118641904D02*
X166714819Y-119118094D01*
X166714819Y-119118094D02*
X167191009Y-119165713D01*
X167191009Y-119165713D02*
X167143390Y-119118094D01*
X167143390Y-119118094D02*
X167095771Y-119022856D01*
X167095771Y-119022856D02*
X167095771Y-118784761D01*
X167095771Y-118784761D02*
X167143390Y-118689523D01*
X167143390Y-118689523D02*
X167191009Y-118641904D01*
X167191009Y-118641904D02*
X167286247Y-118594285D01*
X167286247Y-118594285D02*
X167524342Y-118594285D01*
X167524342Y-118594285D02*
X167619580Y-118641904D01*
X167619580Y-118641904D02*
X167667200Y-118689523D01*
X167667200Y-118689523D02*
X167714819Y-118784761D01*
X167714819Y-118784761D02*
X167714819Y-119022856D01*
X167714819Y-119022856D02*
X167667200Y-119118094D01*
X167667200Y-119118094D02*
X167619580Y-119165713D01*
D14*
X152150318Y-110063619D02*
X153178413Y-110063619D01*
X153178413Y-110063619D02*
X153299365Y-110003142D01*
X153299365Y-110003142D02*
X153359842Y-109942666D01*
X153359842Y-109942666D02*
X153420318Y-109821714D01*
X153420318Y-109821714D02*
X153420318Y-109579809D01*
X153420318Y-109579809D02*
X153359842Y-109458857D01*
X153359842Y-109458857D02*
X153299365Y-109398380D01*
X153299365Y-109398380D02*
X153178413Y-109337904D01*
X153178413Y-109337904D02*
X152150318Y-109337904D01*
X152150318Y-108188857D02*
X152150318Y-108430762D01*
X152150318Y-108430762D02*
X152210794Y-108551714D01*
X152210794Y-108551714D02*
X152271270Y-108612190D01*
X152271270Y-108612190D02*
X152452699Y-108733143D01*
X152452699Y-108733143D02*
X152694603Y-108793619D01*
X152694603Y-108793619D02*
X153178413Y-108793619D01*
X153178413Y-108793619D02*
X153299365Y-108733143D01*
X153299365Y-108733143D02*
X153359842Y-108672666D01*
X153359842Y-108672666D02*
X153420318Y-108551714D01*
X153420318Y-108551714D02*
X153420318Y-108309809D01*
X153420318Y-108309809D02*
X153359842Y-108188857D01*
X153359842Y-108188857D02*
X153299365Y-108128381D01*
X153299365Y-108128381D02*
X153178413Y-108067904D01*
X153178413Y-108067904D02*
X152876032Y-108067904D01*
X152876032Y-108067904D02*
X152755080Y-108128381D01*
X152755080Y-108128381D02*
X152694603Y-108188857D01*
X152694603Y-108188857D02*
X152634127Y-108309809D01*
X152634127Y-108309809D02*
X152634127Y-108551714D01*
X152634127Y-108551714D02*
X152694603Y-108672666D01*
X152694603Y-108672666D02*
X152755080Y-108733143D01*
X152755080Y-108733143D02*
X152876032Y-108793619D01*
D11*
X204087833Y-113189580D02*
X204040214Y-113237200D01*
X204040214Y-113237200D02*
X203897357Y-113284819D01*
X203897357Y-113284819D02*
X203802119Y-113284819D01*
X203802119Y-113284819D02*
X203659262Y-113237200D01*
X203659262Y-113237200D02*
X203564024Y-113141961D01*
X203564024Y-113141961D02*
X203516405Y-113046723D01*
X203516405Y-113046723D02*
X203468786Y-112856247D01*
X203468786Y-112856247D02*
X203468786Y-112713390D01*
X203468786Y-112713390D02*
X203516405Y-112522914D01*
X203516405Y-112522914D02*
X203564024Y-112427676D01*
X203564024Y-112427676D02*
X203659262Y-112332438D01*
X203659262Y-112332438D02*
X203802119Y-112284819D01*
X203802119Y-112284819D02*
X203897357Y-112284819D01*
X203897357Y-112284819D02*
X204040214Y-112332438D01*
X204040214Y-112332438D02*
X204087833Y-112380057D01*
X204421167Y-112284819D02*
X205040214Y-112284819D01*
X205040214Y-112284819D02*
X204706881Y-112665771D01*
X204706881Y-112665771D02*
X204849738Y-112665771D01*
X204849738Y-112665771D02*
X204944976Y-112713390D01*
X204944976Y-112713390D02*
X204992595Y-112761009D01*
X204992595Y-112761009D02*
X205040214Y-112856247D01*
X205040214Y-112856247D02*
X205040214Y-113094342D01*
X205040214Y-113094342D02*
X204992595Y-113189580D01*
X204992595Y-113189580D02*
X204944976Y-113237200D01*
X204944976Y-113237200D02*
X204849738Y-113284819D01*
X204849738Y-113284819D02*
X204564024Y-113284819D01*
X204564024Y-113284819D02*
X204468786Y-113237200D01*
X204468786Y-113237200D02*
X204421167Y-113189580D01*
X163949142Y-119895580D02*
X163901523Y-119943200D01*
X163901523Y-119943200D02*
X163758666Y-119990819D01*
X163758666Y-119990819D02*
X163663428Y-119990819D01*
X163663428Y-119990819D02*
X163520571Y-119943200D01*
X163520571Y-119943200D02*
X163425333Y-119847961D01*
X163425333Y-119847961D02*
X163377714Y-119752723D01*
X163377714Y-119752723D02*
X163330095Y-119562247D01*
X163330095Y-119562247D02*
X163330095Y-119419390D01*
X163330095Y-119419390D02*
X163377714Y-119228914D01*
X163377714Y-119228914D02*
X163425333Y-119133676D01*
X163425333Y-119133676D02*
X163520571Y-119038438D01*
X163520571Y-119038438D02*
X163663428Y-118990819D01*
X163663428Y-118990819D02*
X163758666Y-118990819D01*
X163758666Y-118990819D02*
X163901523Y-119038438D01*
X163901523Y-119038438D02*
X163949142Y-119086057D01*
X164901523Y-119990819D02*
X164330095Y-119990819D01*
X164615809Y-119990819D02*
X164615809Y-118990819D01*
X164615809Y-118990819D02*
X164520571Y-119133676D01*
X164520571Y-119133676D02*
X164425333Y-119228914D01*
X164425333Y-119228914D02*
X164330095Y-119276533D01*
X165520571Y-118990819D02*
X165615809Y-118990819D01*
X165615809Y-118990819D02*
X165711047Y-119038438D01*
X165711047Y-119038438D02*
X165758666Y-119086057D01*
X165758666Y-119086057D02*
X165806285Y-119181295D01*
X165806285Y-119181295D02*
X165853904Y-119371771D01*
X165853904Y-119371771D02*
X165853904Y-119609866D01*
X165853904Y-119609866D02*
X165806285Y-119800342D01*
X165806285Y-119800342D02*
X165758666Y-119895580D01*
X165758666Y-119895580D02*
X165711047Y-119943200D01*
X165711047Y-119943200D02*
X165615809Y-119990819D01*
X165615809Y-119990819D02*
X165520571Y-119990819D01*
X165520571Y-119990819D02*
X165425333Y-119943200D01*
X165425333Y-119943200D02*
X165377714Y-119895580D01*
X165377714Y-119895580D02*
X165330095Y-119800342D01*
X165330095Y-119800342D02*
X165282476Y-119609866D01*
X165282476Y-119609866D02*
X165282476Y-119371771D01*
X165282476Y-119371771D02*
X165330095Y-119181295D01*
X165330095Y-119181295D02*
X165377714Y-119086057D01*
X165377714Y-119086057D02*
X165425333Y-119038438D01*
X165425333Y-119038438D02*
X165520571Y-118990819D01*
X173276628Y-110276190D02*
X173752819Y-110276190D01*
X172752819Y-110609523D02*
X173276628Y-110276190D01*
X173276628Y-110276190D02*
X172752819Y-109942857D01*
X173752819Y-109085714D02*
X173752819Y-109657142D01*
X173752819Y-109371428D02*
X172752819Y-109371428D01*
X172752819Y-109371428D02*
X172895676Y-109466666D01*
X172895676Y-109466666D02*
X172990914Y-109561904D01*
X172990914Y-109561904D02*
X173038533Y-109657142D01*
X163949142Y-123451580D02*
X163901523Y-123499200D01*
X163901523Y-123499200D02*
X163758666Y-123546819D01*
X163758666Y-123546819D02*
X163663428Y-123546819D01*
X163663428Y-123546819D02*
X163520571Y-123499200D01*
X163520571Y-123499200D02*
X163425333Y-123403961D01*
X163425333Y-123403961D02*
X163377714Y-123308723D01*
X163377714Y-123308723D02*
X163330095Y-123118247D01*
X163330095Y-123118247D02*
X163330095Y-122975390D01*
X163330095Y-122975390D02*
X163377714Y-122784914D01*
X163377714Y-122784914D02*
X163425333Y-122689676D01*
X163425333Y-122689676D02*
X163520571Y-122594438D01*
X163520571Y-122594438D02*
X163663428Y-122546819D01*
X163663428Y-122546819D02*
X163758666Y-122546819D01*
X163758666Y-122546819D02*
X163901523Y-122594438D01*
X163901523Y-122594438D02*
X163949142Y-122642057D01*
X164901523Y-123546819D02*
X164330095Y-123546819D01*
X164615809Y-123546819D02*
X164615809Y-122546819D01*
X164615809Y-122546819D02*
X164520571Y-122689676D01*
X164520571Y-122689676D02*
X164425333Y-122784914D01*
X164425333Y-122784914D02*
X164330095Y-122832533D01*
X165853904Y-123546819D02*
X165282476Y-123546819D01*
X165568190Y-123546819D02*
X165568190Y-122546819D01*
X165568190Y-122546819D02*
X165472952Y-122689676D01*
X165472952Y-122689676D02*
X165377714Y-122784914D01*
X165377714Y-122784914D02*
X165282476Y-122832533D01*
X179584819Y-116466666D02*
X179108628Y-116799999D01*
X179584819Y-117038094D02*
X178584819Y-117038094D01*
X178584819Y-117038094D02*
X178584819Y-116657142D01*
X178584819Y-116657142D02*
X178632438Y-116561904D01*
X178632438Y-116561904D02*
X178680057Y-116514285D01*
X178680057Y-116514285D02*
X178775295Y-116466666D01*
X178775295Y-116466666D02*
X178918152Y-116466666D01*
X178918152Y-116466666D02*
X179013390Y-116514285D01*
X179013390Y-116514285D02*
X179061009Y-116561904D01*
X179061009Y-116561904D02*
X179108628Y-116657142D01*
X179108628Y-116657142D02*
X179108628Y-117038094D01*
X178918152Y-115609523D02*
X179584819Y-115609523D01*
X178537200Y-115847618D02*
X179251485Y-116085713D01*
X179251485Y-116085713D02*
X179251485Y-115466666D01*
X172436319Y-115315904D02*
X173245842Y-115315904D01*
X173245842Y-115315904D02*
X173341080Y-115268285D01*
X173341080Y-115268285D02*
X173388700Y-115220666D01*
X173388700Y-115220666D02*
X173436319Y-115125428D01*
X173436319Y-115125428D02*
X173436319Y-114934952D01*
X173436319Y-114934952D02*
X173388700Y-114839714D01*
X173388700Y-114839714D02*
X173341080Y-114792095D01*
X173341080Y-114792095D02*
X173245842Y-114744476D01*
X173245842Y-114744476D02*
X172436319Y-114744476D01*
X172531557Y-114315904D02*
X172483938Y-114268285D01*
X172483938Y-114268285D02*
X172436319Y-114173047D01*
X172436319Y-114173047D02*
X172436319Y-113934952D01*
X172436319Y-113934952D02*
X172483938Y-113839714D01*
X172483938Y-113839714D02*
X172531557Y-113792095D01*
X172531557Y-113792095D02*
X172626795Y-113744476D01*
X172626795Y-113744476D02*
X172722033Y-113744476D01*
X172722033Y-113744476D02*
X172864890Y-113792095D01*
X172864890Y-113792095D02*
X173436319Y-114363523D01*
X173436319Y-114363523D02*
X173436319Y-113744476D01*
X196254819Y-109466666D02*
X196254819Y-109942856D01*
X196254819Y-109942856D02*
X195254819Y-109942856D01*
X196254819Y-108609523D02*
X196254819Y-109180951D01*
X196254819Y-108895237D02*
X195254819Y-108895237D01*
X195254819Y-108895237D02*
X195397676Y-108990475D01*
X195397676Y-108990475D02*
X195492914Y-109085713D01*
X195492914Y-109085713D02*
X195540533Y-109180951D01*
X185340666Y-107368819D02*
X185340666Y-108083104D01*
X185340666Y-108083104D02*
X185293047Y-108225961D01*
X185293047Y-108225961D02*
X185197809Y-108321200D01*
X185197809Y-108321200D02*
X185054952Y-108368819D01*
X185054952Y-108368819D02*
X184959714Y-108368819D01*
X185721619Y-107368819D02*
X186340666Y-107368819D01*
X186340666Y-107368819D02*
X186007333Y-107749771D01*
X186007333Y-107749771D02*
X186150190Y-107749771D01*
X186150190Y-107749771D02*
X186245428Y-107797390D01*
X186245428Y-107797390D02*
X186293047Y-107845009D01*
X186293047Y-107845009D02*
X186340666Y-107940247D01*
X186340666Y-107940247D02*
X186340666Y-108178342D01*
X186340666Y-108178342D02*
X186293047Y-108273580D01*
X186293047Y-108273580D02*
X186245428Y-108321200D01*
X186245428Y-108321200D02*
X186150190Y-108368819D01*
X186150190Y-108368819D02*
X185864476Y-108368819D01*
X185864476Y-108368819D02*
X185769238Y-108321200D01*
X185769238Y-108321200D02*
X185721619Y-108273580D01*
X210605819Y-110049904D02*
X211415342Y-110049904D01*
X211415342Y-110049904D02*
X211510580Y-110002285D01*
X211510580Y-110002285D02*
X211558200Y-109954666D01*
X211558200Y-109954666D02*
X211605819Y-109859428D01*
X211605819Y-109859428D02*
X211605819Y-109668952D01*
X211605819Y-109668952D02*
X211558200Y-109573714D01*
X211558200Y-109573714D02*
X211510580Y-109526095D01*
X211510580Y-109526095D02*
X211415342Y-109478476D01*
X211415342Y-109478476D02*
X210605819Y-109478476D01*
X210605819Y-109097523D02*
X210605819Y-108478476D01*
X210605819Y-108478476D02*
X210986771Y-108811809D01*
X210986771Y-108811809D02*
X210986771Y-108668952D01*
X210986771Y-108668952D02*
X211034390Y-108573714D01*
X211034390Y-108573714D02*
X211082009Y-108526095D01*
X211082009Y-108526095D02*
X211177247Y-108478476D01*
X211177247Y-108478476D02*
X211415342Y-108478476D01*
X211415342Y-108478476D02*
X211510580Y-108526095D01*
X211510580Y-108526095D02*
X211558200Y-108573714D01*
X211558200Y-108573714D02*
X211605819Y-108668952D01*
X211605819Y-108668952D02*
X211605819Y-108954666D01*
X211605819Y-108954666D02*
X211558200Y-109049904D01*
X211558200Y-109049904D02*
X211510580Y-109097523D01*
X209411333Y-100997580D02*
X209363714Y-101045200D01*
X209363714Y-101045200D02*
X209220857Y-101092819D01*
X209220857Y-101092819D02*
X209125619Y-101092819D01*
X209125619Y-101092819D02*
X208982762Y-101045200D01*
X208982762Y-101045200D02*
X208887524Y-100949961D01*
X208887524Y-100949961D02*
X208839905Y-100854723D01*
X208839905Y-100854723D02*
X208792286Y-100664247D01*
X208792286Y-100664247D02*
X208792286Y-100521390D01*
X208792286Y-100521390D02*
X208839905Y-100330914D01*
X208839905Y-100330914D02*
X208887524Y-100235676D01*
X208887524Y-100235676D02*
X208982762Y-100140438D01*
X208982762Y-100140438D02*
X209125619Y-100092819D01*
X209125619Y-100092819D02*
X209220857Y-100092819D01*
X209220857Y-100092819D02*
X209363714Y-100140438D01*
X209363714Y-100140438D02*
X209411333Y-100188057D01*
X210363714Y-101092819D02*
X209792286Y-101092819D01*
X210078000Y-101092819D02*
X210078000Y-100092819D01*
X210078000Y-100092819D02*
X209982762Y-100235676D01*
X209982762Y-100235676D02*
X209887524Y-100330914D01*
X209887524Y-100330914D02*
X209792286Y-100378533D01*
X2713095Y270180D02*
X2713095Y1270180D01*
X2713095Y793990D02*
X3284523Y793990D01*
X3284523Y270180D02*
X3284523Y1270180D01*
X3713095Y1174942D02*
X3760714Y1222561D01*
X3760714Y1222561D02*
X3855952Y1270180D01*
X3855952Y1270180D02*
X4094047Y1270180D01*
X4094047Y1270180D02*
X4189285Y1222561D01*
X4189285Y1222561D02*
X4236904Y1174942D01*
X4236904Y1174942D02*
X4284523Y1079704D01*
X4284523Y1079704D02*
X4284523Y984466D01*
X4284523Y984466D02*
X4236904Y841609D01*
X4236904Y841609D02*
X3665476Y270180D01*
X3665476Y270180D02*
X4284523Y270180D01*
X186854333Y-124379580D02*
X186806714Y-124427200D01*
X186806714Y-124427200D02*
X186663857Y-124474819D01*
X186663857Y-124474819D02*
X186568619Y-124474819D01*
X186568619Y-124474819D02*
X186425762Y-124427200D01*
X186425762Y-124427200D02*
X186330524Y-124331961D01*
X186330524Y-124331961D02*
X186282905Y-124236723D01*
X186282905Y-124236723D02*
X186235286Y-124046247D01*
X186235286Y-124046247D02*
X186235286Y-123903390D01*
X186235286Y-123903390D02*
X186282905Y-123712914D01*
X186282905Y-123712914D02*
X186330524Y-123617676D01*
X186330524Y-123617676D02*
X186425762Y-123522438D01*
X186425762Y-123522438D02*
X186568619Y-123474819D01*
X186568619Y-123474819D02*
X186663857Y-123474819D01*
X186663857Y-123474819D02*
X186806714Y-123522438D01*
X186806714Y-123522438D02*
X186854333Y-123570057D01*
X187187667Y-123474819D02*
X187854333Y-123474819D01*
X187854333Y-123474819D02*
X187425762Y-124474819D01*
X180260666Y-107368819D02*
X180260666Y-108083104D01*
X180260666Y-108083104D02*
X180213047Y-108225961D01*
X180213047Y-108225961D02*
X180117809Y-108321200D01*
X180117809Y-108321200D02*
X179974952Y-108368819D01*
X179974952Y-108368819D02*
X179879714Y-108368819D01*
X181165428Y-107702152D02*
X181165428Y-108368819D01*
X180927333Y-107321200D02*
X180689238Y-108035485D01*
X180689238Y-108035485D02*
X181308285Y-108035485D01*
X214558580Y-117582666D02*
X214606200Y-117630285D01*
X214606200Y-117630285D02*
X214653819Y-117773142D01*
X214653819Y-117773142D02*
X214653819Y-117868380D01*
X214653819Y-117868380D02*
X214606200Y-118011237D01*
X214606200Y-118011237D02*
X214510961Y-118106475D01*
X214510961Y-118106475D02*
X214415723Y-118154094D01*
X214415723Y-118154094D02*
X214225247Y-118201713D01*
X214225247Y-118201713D02*
X214082390Y-118201713D01*
X214082390Y-118201713D02*
X213891914Y-118154094D01*
X213891914Y-118154094D02*
X213796676Y-118106475D01*
X213796676Y-118106475D02*
X213701438Y-118011237D01*
X213701438Y-118011237D02*
X213653819Y-117868380D01*
X213653819Y-117868380D02*
X213653819Y-117773142D01*
X213653819Y-117773142D02*
X213701438Y-117630285D01*
X213701438Y-117630285D02*
X213749057Y-117582666D01*
X213987152Y-116725523D02*
X214653819Y-116725523D01*
X213606200Y-116963618D02*
X214320485Y-117201713D01*
X214320485Y-117201713D02*
X214320485Y-116582666D01*
X209190333Y-122060819D02*
X208857000Y-121584628D01*
X208618905Y-122060819D02*
X208618905Y-121060819D01*
X208618905Y-121060819D02*
X208999857Y-121060819D01*
X208999857Y-121060819D02*
X209095095Y-121108438D01*
X209095095Y-121108438D02*
X209142714Y-121156057D01*
X209142714Y-121156057D02*
X209190333Y-121251295D01*
X209190333Y-121251295D02*
X209190333Y-121394152D01*
X209190333Y-121394152D02*
X209142714Y-121489390D01*
X209142714Y-121489390D02*
X209095095Y-121537009D01*
X209095095Y-121537009D02*
X208999857Y-121584628D01*
X208999857Y-121584628D02*
X208618905Y-121584628D01*
X209523667Y-121060819D02*
X210142714Y-121060819D01*
X210142714Y-121060819D02*
X209809381Y-121441771D01*
X209809381Y-121441771D02*
X209952238Y-121441771D01*
X209952238Y-121441771D02*
X210047476Y-121489390D01*
X210047476Y-121489390D02*
X210095095Y-121537009D01*
X210095095Y-121537009D02*
X210142714Y-121632247D01*
X210142714Y-121632247D02*
X210142714Y-121870342D01*
X210142714Y-121870342D02*
X210095095Y-121965580D01*
X210095095Y-121965580D02*
X210047476Y-122013200D01*
X210047476Y-122013200D02*
X209952238Y-122060819D01*
X209952238Y-122060819D02*
X209666524Y-122060819D01*
X209666524Y-122060819D02*
X209571286Y-122013200D01*
X209571286Y-122013200D02*
X209523667Y-121965580D01*
X164403833Y-113995580D02*
X164356214Y-114043200D01*
X164356214Y-114043200D02*
X164213357Y-114090819D01*
X164213357Y-114090819D02*
X164118119Y-114090819D01*
X164118119Y-114090819D02*
X163975262Y-114043200D01*
X163975262Y-114043200D02*
X163880024Y-113947961D01*
X163880024Y-113947961D02*
X163832405Y-113852723D01*
X163832405Y-113852723D02*
X163784786Y-113662247D01*
X163784786Y-113662247D02*
X163784786Y-113519390D01*
X163784786Y-113519390D02*
X163832405Y-113328914D01*
X163832405Y-113328914D02*
X163880024Y-113233676D01*
X163880024Y-113233676D02*
X163975262Y-113138438D01*
X163975262Y-113138438D02*
X164118119Y-113090819D01*
X164118119Y-113090819D02*
X164213357Y-113090819D01*
X164213357Y-113090819D02*
X164356214Y-113138438D01*
X164356214Y-113138438D02*
X164403833Y-113186057D01*
X164880024Y-114090819D02*
X165070500Y-114090819D01*
X165070500Y-114090819D02*
X165165738Y-114043200D01*
X165165738Y-114043200D02*
X165213357Y-113995580D01*
X165213357Y-113995580D02*
X165308595Y-113852723D01*
X165308595Y-113852723D02*
X165356214Y-113662247D01*
X165356214Y-113662247D02*
X165356214Y-113281295D01*
X165356214Y-113281295D02*
X165308595Y-113186057D01*
X165308595Y-113186057D02*
X165260976Y-113138438D01*
X165260976Y-113138438D02*
X165165738Y-113090819D01*
X165165738Y-113090819D02*
X164975262Y-113090819D01*
X164975262Y-113090819D02*
X164880024Y-113138438D01*
X164880024Y-113138438D02*
X164832405Y-113186057D01*
X164832405Y-113186057D02*
X164784786Y-113281295D01*
X164784786Y-113281295D02*
X164784786Y-113519390D01*
X164784786Y-113519390D02*
X164832405Y-113614628D01*
X164832405Y-113614628D02*
X164880024Y-113662247D01*
X164880024Y-113662247D02*
X164975262Y-113709866D01*
X164975262Y-113709866D02*
X165165738Y-113709866D01*
X165165738Y-113709866D02*
X165260976Y-113662247D01*
X165260976Y-113662247D02*
X165308595Y-113614628D01*
X165308595Y-113614628D02*
X165356214Y-113519390D01*
X182092395Y-117832319D02*
X182092395Y-118641842D01*
X182092395Y-118641842D02*
X182140014Y-118737080D01*
X182140014Y-118737080D02*
X182187633Y-118784700D01*
X182187633Y-118784700D02*
X182282871Y-118832319D01*
X182282871Y-118832319D02*
X182473347Y-118832319D01*
X182473347Y-118832319D02*
X182568585Y-118784700D01*
X182568585Y-118784700D02*
X182616204Y-118737080D01*
X182616204Y-118737080D02*
X182663823Y-118641842D01*
X182663823Y-118641842D02*
X182663823Y-117832319D01*
X183663823Y-118832319D02*
X183092395Y-118832319D01*
X183378109Y-118832319D02*
X183378109Y-117832319D01*
X183378109Y-117832319D02*
X183282871Y-117975176D01*
X183282871Y-117975176D02*
X183187633Y-118070414D01*
X183187633Y-118070414D02*
X183092395Y-118118033D01*
D10*
X177016095Y-124679419D02*
X177016095Y-125488942D01*
X177016095Y-125488942D02*
X177063714Y-125584180D01*
X177063714Y-125584180D02*
X177111333Y-125631800D01*
X177111333Y-125631800D02*
X177206571Y-125679419D01*
X177206571Y-125679419D02*
X177397047Y-125679419D01*
X177397047Y-125679419D02*
X177492285Y-125631800D01*
X177492285Y-125631800D02*
X177539904Y-125584180D01*
X177539904Y-125584180D02*
X177587523Y-125488942D01*
X177587523Y-125488942D02*
X177587523Y-124679419D01*
X178206571Y-125107990D02*
X178111333Y-125060371D01*
X178111333Y-125060371D02*
X178063714Y-125012752D01*
X178063714Y-125012752D02*
X178016095Y-124917514D01*
X178016095Y-124917514D02*
X178016095Y-124869895D01*
X178016095Y-124869895D02*
X178063714Y-124774657D01*
X178063714Y-124774657D02*
X178111333Y-124727038D01*
X178111333Y-124727038D02*
X178206571Y-124679419D01*
X178206571Y-124679419D02*
X178397047Y-124679419D01*
X178397047Y-124679419D02*
X178492285Y-124727038D01*
X178492285Y-124727038D02*
X178539904Y-124774657D01*
X178539904Y-124774657D02*
X178587523Y-124869895D01*
X178587523Y-124869895D02*
X178587523Y-124917514D01*
X178587523Y-124917514D02*
X178539904Y-125012752D01*
X178539904Y-125012752D02*
X178492285Y-125060371D01*
X178492285Y-125060371D02*
X178397047Y-125107990D01*
X178397047Y-125107990D02*
X178206571Y-125107990D01*
X178206571Y-125107990D02*
X178111333Y-125155609D01*
X178111333Y-125155609D02*
X178063714Y-125203228D01*
X178063714Y-125203228D02*
X178016095Y-125298466D01*
X178016095Y-125298466D02*
X178016095Y-125488942D01*
X178016095Y-125488942D02*
X178063714Y-125584180D01*
X178063714Y-125584180D02*
X178111333Y-125631800D01*
X178111333Y-125631800D02*
X178206571Y-125679419D01*
X178206571Y-125679419D02*
X178397047Y-125679419D01*
X178397047Y-125679419D02*
X178492285Y-125631800D01*
X178492285Y-125631800D02*
X178539904Y-125584180D01*
X178539904Y-125584180D02*
X178587523Y-125488942D01*
X178587523Y-125488942D02*
X178587523Y-125298466D01*
X178587523Y-125298466D02*
X178539904Y-125203228D01*
X178539904Y-125203228D02*
X178492285Y-125155609D01*
X178492285Y-125155609D02*
X178397047Y-125107990D01*
X176182836Y-127999609D02*
X176182836Y-127499609D01*
X176182836Y-127499609D02*
X176373312Y-127499609D01*
X176373312Y-127499609D02*
X176420931Y-127523419D01*
X176420931Y-127523419D02*
X176444741Y-127547228D01*
X176444741Y-127547228D02*
X176468550Y-127594847D01*
X176468550Y-127594847D02*
X176468550Y-127666276D01*
X176468550Y-127666276D02*
X176444741Y-127713895D01*
X176444741Y-127713895D02*
X176420931Y-127737704D01*
X176420931Y-127737704D02*
X176373312Y-127761514D01*
X176373312Y-127761514D02*
X176182836Y-127761514D01*
X176968550Y-127951990D02*
X176944741Y-127975800D01*
X176944741Y-127975800D02*
X176873312Y-127999609D01*
X176873312Y-127999609D02*
X176825693Y-127999609D01*
X176825693Y-127999609D02*
X176754265Y-127975800D01*
X176754265Y-127975800D02*
X176706646Y-127928180D01*
X176706646Y-127928180D02*
X176682836Y-127880561D01*
X176682836Y-127880561D02*
X176659027Y-127785323D01*
X176659027Y-127785323D02*
X176659027Y-127713895D01*
X176659027Y-127713895D02*
X176682836Y-127618657D01*
X176682836Y-127618657D02*
X176706646Y-127571038D01*
X176706646Y-127571038D02*
X176754265Y-127523419D01*
X176754265Y-127523419D02*
X176825693Y-127499609D01*
X176825693Y-127499609D02*
X176873312Y-127499609D01*
X176873312Y-127499609D02*
X176944741Y-127523419D01*
X176944741Y-127523419D02*
X176968550Y-127547228D01*
X177349503Y-127737704D02*
X177420931Y-127761514D01*
X177420931Y-127761514D02*
X177444741Y-127785323D01*
X177444741Y-127785323D02*
X177468550Y-127832942D01*
X177468550Y-127832942D02*
X177468550Y-127904371D01*
X177468550Y-127904371D02*
X177444741Y-127951990D01*
X177444741Y-127951990D02*
X177420931Y-127975800D01*
X177420931Y-127975800D02*
X177373312Y-127999609D01*
X177373312Y-127999609D02*
X177182836Y-127999609D01*
X177182836Y-127999609D02*
X177182836Y-127499609D01*
X177182836Y-127499609D02*
X177349503Y-127499609D01*
X177349503Y-127499609D02*
X177397122Y-127523419D01*
X177397122Y-127523419D02*
X177420931Y-127547228D01*
X177420931Y-127547228D02*
X177444741Y-127594847D01*
X177444741Y-127594847D02*
X177444741Y-127642466D01*
X177444741Y-127642466D02*
X177420931Y-127690085D01*
X177420931Y-127690085D02*
X177397122Y-127713895D01*
X177397122Y-127713895D02*
X177349503Y-127737704D01*
X177349503Y-127737704D02*
X177182836Y-127737704D01*
X178063788Y-127737704D02*
X178230455Y-127737704D01*
X178301883Y-127999609D02*
X178063788Y-127999609D01*
X178063788Y-127999609D02*
X178063788Y-127499609D01*
X178063788Y-127499609D02*
X178301883Y-127499609D01*
X178730455Y-127999609D02*
X178730455Y-127499609D01*
X178730455Y-127975800D02*
X178682836Y-127999609D01*
X178682836Y-127999609D02*
X178587598Y-127999609D01*
X178587598Y-127999609D02*
X178539979Y-127975800D01*
X178539979Y-127975800D02*
X178516169Y-127951990D01*
X178516169Y-127951990D02*
X178492360Y-127904371D01*
X178492360Y-127904371D02*
X178492360Y-127761514D01*
X178492360Y-127761514D02*
X178516169Y-127713895D01*
X178516169Y-127713895D02*
X178539979Y-127690085D01*
X178539979Y-127690085D02*
X178587598Y-127666276D01*
X178587598Y-127666276D02*
X178682836Y-127666276D01*
X178682836Y-127666276D02*
X178730455Y-127690085D01*
X179182836Y-127666276D02*
X179182836Y-128071038D01*
X179182836Y-128071038D02*
X179159026Y-128118657D01*
X179159026Y-128118657D02*
X179135217Y-128142466D01*
X179135217Y-128142466D02*
X179087598Y-128166276D01*
X179087598Y-128166276D02*
X179016169Y-128166276D01*
X179016169Y-128166276D02*
X178968550Y-128142466D01*
X179182836Y-127975800D02*
X179135217Y-127999609D01*
X179135217Y-127999609D02*
X179039979Y-127999609D01*
X179039979Y-127999609D02*
X178992360Y-127975800D01*
X178992360Y-127975800D02*
X178968550Y-127951990D01*
X178968550Y-127951990D02*
X178944741Y-127904371D01*
X178944741Y-127904371D02*
X178944741Y-127761514D01*
X178944741Y-127761514D02*
X178968550Y-127713895D01*
X178968550Y-127713895D02*
X178992360Y-127690085D01*
X178992360Y-127690085D02*
X179039979Y-127666276D01*
X179039979Y-127666276D02*
X179135217Y-127666276D01*
X179135217Y-127666276D02*
X179182836Y-127690085D01*
X179611407Y-127975800D02*
X179563788Y-127999609D01*
X179563788Y-127999609D02*
X179468550Y-127999609D01*
X179468550Y-127999609D02*
X179420931Y-127975800D01*
X179420931Y-127975800D02*
X179397122Y-127928180D01*
X179397122Y-127928180D02*
X179397122Y-127737704D01*
X179397122Y-127737704D02*
X179420931Y-127690085D01*
X179420931Y-127690085D02*
X179468550Y-127666276D01*
X179468550Y-127666276D02*
X179563788Y-127666276D01*
X179563788Y-127666276D02*
X179611407Y-127690085D01*
X179611407Y-127690085D02*
X179635217Y-127737704D01*
X179635217Y-127737704D02*
X179635217Y-127785323D01*
X179635217Y-127785323D02*
X179397122Y-127832942D01*
D11*
X203541333Y-102816819D02*
X203208000Y-102340628D01*
X202969905Y-102816819D02*
X202969905Y-101816819D01*
X202969905Y-101816819D02*
X203350857Y-101816819D01*
X203350857Y-101816819D02*
X203446095Y-101864438D01*
X203446095Y-101864438D02*
X203493714Y-101912057D01*
X203493714Y-101912057D02*
X203541333Y-102007295D01*
X203541333Y-102007295D02*
X203541333Y-102150152D01*
X203541333Y-102150152D02*
X203493714Y-102245390D01*
X203493714Y-102245390D02*
X203446095Y-102293009D01*
X203446095Y-102293009D02*
X203350857Y-102340628D01*
X203350857Y-102340628D02*
X202969905Y-102340628D01*
X204493714Y-102816819D02*
X203922286Y-102816819D01*
X204208000Y-102816819D02*
X204208000Y-101816819D01*
X204208000Y-101816819D02*
X204112762Y-101959676D01*
X204112762Y-101959676D02*
X204017524Y-102054914D01*
X204017524Y-102054914D02*
X203922286Y-102102533D01*
X194133095Y-118394819D02*
X194133095Y-119204342D01*
X194133095Y-119204342D02*
X194180714Y-119299580D01*
X194180714Y-119299580D02*
X194228333Y-119347200D01*
X194228333Y-119347200D02*
X194323571Y-119394819D01*
X194323571Y-119394819D02*
X194514047Y-119394819D01*
X194514047Y-119394819D02*
X194609285Y-119347200D01*
X194609285Y-119347200D02*
X194656904Y-119299580D01*
X194656904Y-119299580D02*
X194704523Y-119204342D01*
X194704523Y-119204342D02*
X194704523Y-118394819D01*
X195085476Y-118394819D02*
X195752142Y-118394819D01*
X195752142Y-118394819D02*
X195323571Y-119394819D01*
X168171905Y-123518819D02*
X168171905Y-122518819D01*
X168171905Y-122518819D02*
X168410000Y-122518819D01*
X168410000Y-122518819D02*
X168552857Y-122566438D01*
X168552857Y-122566438D02*
X168648095Y-122661676D01*
X168648095Y-122661676D02*
X168695714Y-122756914D01*
X168695714Y-122756914D02*
X168743333Y-122947390D01*
X168743333Y-122947390D02*
X168743333Y-123090247D01*
X168743333Y-123090247D02*
X168695714Y-123280723D01*
X168695714Y-123280723D02*
X168648095Y-123375961D01*
X168648095Y-123375961D02*
X168552857Y-123471200D01*
X168552857Y-123471200D02*
X168410000Y-123518819D01*
X168410000Y-123518819D02*
X168171905Y-123518819D01*
X169695714Y-123518819D02*
X169124286Y-123518819D01*
X169410000Y-123518819D02*
X169410000Y-122518819D01*
X169410000Y-122518819D02*
X169314762Y-122661676D01*
X169314762Y-122661676D02*
X169219524Y-122756914D01*
X169219524Y-122756914D02*
X169124286Y-122804533D01*
D10*
X186512285Y-104041580D02*
X186512285Y-103232057D01*
X186512285Y-103232057D02*
X186464666Y-103136819D01*
X186464666Y-103136819D02*
X186417047Y-103089200D01*
X186417047Y-103089200D02*
X186321809Y-103041580D01*
X186321809Y-103041580D02*
X186131333Y-103041580D01*
X186131333Y-103041580D02*
X186036095Y-103089200D01*
X186036095Y-103089200D02*
X185988476Y-103136819D01*
X185988476Y-103136819D02*
X185940857Y-103232057D01*
X185940857Y-103232057D02*
X185940857Y-104041580D01*
X185512285Y-103089200D02*
X185369428Y-103041580D01*
X185369428Y-103041580D02*
X185131333Y-103041580D01*
X185131333Y-103041580D02*
X185036095Y-103089200D01*
X185036095Y-103089200D02*
X184988476Y-103136819D01*
X184988476Y-103136819D02*
X184940857Y-103232057D01*
X184940857Y-103232057D02*
X184940857Y-103327295D01*
X184940857Y-103327295D02*
X184988476Y-103422533D01*
X184988476Y-103422533D02*
X185036095Y-103470152D01*
X185036095Y-103470152D02*
X185131333Y-103517771D01*
X185131333Y-103517771D02*
X185321809Y-103565390D01*
X185321809Y-103565390D02*
X185417047Y-103613009D01*
X185417047Y-103613009D02*
X185464666Y-103660628D01*
X185464666Y-103660628D02*
X185512285Y-103755866D01*
X185512285Y-103755866D02*
X185512285Y-103851104D01*
X185512285Y-103851104D02*
X185464666Y-103946342D01*
X185464666Y-103946342D02*
X185417047Y-103993961D01*
X185417047Y-103993961D02*
X185321809Y-104041580D01*
X185321809Y-104041580D02*
X185083714Y-104041580D01*
X185083714Y-104041580D02*
X184940857Y-103993961D01*
X184178952Y-103565390D02*
X184036095Y-103517771D01*
X184036095Y-103517771D02*
X183988476Y-103470152D01*
X183988476Y-103470152D02*
X183940857Y-103374914D01*
X183940857Y-103374914D02*
X183940857Y-103232057D01*
X183940857Y-103232057D02*
X183988476Y-103136819D01*
X183988476Y-103136819D02*
X184036095Y-103089200D01*
X184036095Y-103089200D02*
X184131333Y-103041580D01*
X184131333Y-103041580D02*
X184512285Y-103041580D01*
X184512285Y-103041580D02*
X184512285Y-104041580D01*
X184512285Y-104041580D02*
X184178952Y-104041580D01*
X184178952Y-104041580D02*
X184083714Y-103993961D01*
X184083714Y-103993961D02*
X184036095Y-103946342D01*
X184036095Y-103946342D02*
X183988476Y-103851104D01*
X183988476Y-103851104D02*
X183988476Y-103755866D01*
X183988476Y-103755866D02*
X184036095Y-103660628D01*
X184036095Y-103660628D02*
X184083714Y-103613009D01*
X184083714Y-103613009D02*
X184178952Y-103565390D01*
X184178952Y-103565390D02*
X184512285Y-103565390D01*
X183750381Y-102946342D02*
X182988476Y-102946342D01*
X182178952Y-103136819D02*
X182226571Y-103089200D01*
X182226571Y-103089200D02*
X182369428Y-103041580D01*
X182369428Y-103041580D02*
X182464666Y-103041580D01*
X182464666Y-103041580D02*
X182607523Y-103089200D01*
X182607523Y-103089200D02*
X182702761Y-103184438D01*
X182702761Y-103184438D02*
X182750380Y-103279676D01*
X182750380Y-103279676D02*
X182797999Y-103470152D01*
X182797999Y-103470152D02*
X182797999Y-103613009D01*
X182797999Y-103613009D02*
X182750380Y-103803485D01*
X182750380Y-103803485D02*
X182702761Y-103898723D01*
X182702761Y-103898723D02*
X182607523Y-103993961D01*
X182607523Y-103993961D02*
X182464666Y-104041580D01*
X182464666Y-104041580D02*
X182369428Y-104041580D01*
X182369428Y-104041580D02*
X182226571Y-103993961D01*
X182226571Y-103993961D02*
X182178952Y-103946342D01*
X181845618Y-104041580D02*
X181226571Y-104041580D01*
X181226571Y-104041580D02*
X181559904Y-103660628D01*
X181559904Y-103660628D02*
X181417047Y-103660628D01*
X181417047Y-103660628D02*
X181321809Y-103613009D01*
X181321809Y-103613009D02*
X181274190Y-103565390D01*
X181274190Y-103565390D02*
X181226571Y-103470152D01*
X181226571Y-103470152D02*
X181226571Y-103232057D01*
X181226571Y-103232057D02*
X181274190Y-103136819D01*
X181274190Y-103136819D02*
X181321809Y-103089200D01*
X181321809Y-103089200D02*
X181417047Y-103041580D01*
X181417047Y-103041580D02*
X181702761Y-103041580D01*
X181702761Y-103041580D02*
X181797999Y-103089200D01*
X181797999Y-103089200D02*
X181845618Y-103136819D01*
X180797999Y-103136819D02*
X180750380Y-103089200D01*
X180750380Y-103089200D02*
X180797999Y-103041580D01*
X180797999Y-103041580D02*
X180845618Y-103089200D01*
X180845618Y-103089200D02*
X180797999Y-103136819D01*
X180797999Y-103136819D02*
X180797999Y-103041580D01*
X180131333Y-104041580D02*
X180036095Y-104041580D01*
X180036095Y-104041580D02*
X179940857Y-103993961D01*
X179940857Y-103993961D02*
X179893238Y-103946342D01*
X179893238Y-103946342D02*
X179845619Y-103851104D01*
X179845619Y-103851104D02*
X179798000Y-103660628D01*
X179798000Y-103660628D02*
X179798000Y-103422533D01*
X179798000Y-103422533D02*
X179845619Y-103232057D01*
X179845619Y-103232057D02*
X179893238Y-103136819D01*
X179893238Y-103136819D02*
X179940857Y-103089200D01*
X179940857Y-103089200D02*
X180036095Y-103041580D01*
X180036095Y-103041580D02*
X180131333Y-103041580D01*
X180131333Y-103041580D02*
X180226571Y-103089200D01*
X180226571Y-103089200D02*
X180274190Y-103136819D01*
X180274190Y-103136819D02*
X180321809Y-103232057D01*
X180321809Y-103232057D02*
X180369428Y-103422533D01*
X180369428Y-103422533D02*
X180369428Y-103660628D01*
X180369428Y-103660628D02*
X180321809Y-103851104D01*
X180321809Y-103851104D02*
X180274190Y-103946342D01*
X180274190Y-103946342D02*
X180226571Y-103993961D01*
X180226571Y-103993961D02*
X180131333Y-104041580D01*
X179607524Y-102946342D02*
X178845619Y-102946342D01*
X178607523Y-104041580D02*
X178607523Y-103232057D01*
X178607523Y-103232057D02*
X178559904Y-103136819D01*
X178559904Y-103136819D02*
X178512285Y-103089200D01*
X178512285Y-103089200D02*
X178417047Y-103041580D01*
X178417047Y-103041580D02*
X178226571Y-103041580D01*
X178226571Y-103041580D02*
X178131333Y-103089200D01*
X178131333Y-103089200D02*
X178083714Y-103136819D01*
X178083714Y-103136819D02*
X178036095Y-103232057D01*
X178036095Y-103232057D02*
X178036095Y-104041580D01*
X177559904Y-103041580D02*
X177559904Y-104041580D01*
X177559904Y-104041580D02*
X177178952Y-104041580D01*
X177178952Y-104041580D02*
X177083714Y-103993961D01*
X177083714Y-103993961D02*
X177036095Y-103946342D01*
X177036095Y-103946342D02*
X176988476Y-103851104D01*
X176988476Y-103851104D02*
X176988476Y-103708247D01*
X176988476Y-103708247D02*
X177036095Y-103613009D01*
X177036095Y-103613009D02*
X177083714Y-103565390D01*
X177083714Y-103565390D02*
X177178952Y-103517771D01*
X177178952Y-103517771D02*
X177559904Y-103517771D01*
X176036095Y-103041580D02*
X176607523Y-103041580D01*
X176321809Y-103041580D02*
X176321809Y-104041580D01*
X176321809Y-104041580D02*
X176417047Y-103898723D01*
X176417047Y-103898723D02*
X176512285Y-103803485D01*
X176512285Y-103803485D02*
X176607523Y-103755866D01*
D11*
X212254333Y-124982819D02*
X211921000Y-124506628D01*
X211682905Y-124982819D02*
X211682905Y-123982819D01*
X211682905Y-123982819D02*
X212063857Y-123982819D01*
X212063857Y-123982819D02*
X212159095Y-124030438D01*
X212159095Y-124030438D02*
X212206714Y-124078057D01*
X212206714Y-124078057D02*
X212254333Y-124173295D01*
X212254333Y-124173295D02*
X212254333Y-124316152D01*
X212254333Y-124316152D02*
X212206714Y-124411390D01*
X212206714Y-124411390D02*
X212159095Y-124459009D01*
X212159095Y-124459009D02*
X212063857Y-124506628D01*
X212063857Y-124506628D02*
X211682905Y-124506628D01*
X212635286Y-124078057D02*
X212682905Y-124030438D01*
X212682905Y-124030438D02*
X212778143Y-123982819D01*
X212778143Y-123982819D02*
X213016238Y-123982819D01*
X213016238Y-123982819D02*
X213111476Y-124030438D01*
X213111476Y-124030438D02*
X213159095Y-124078057D01*
X213159095Y-124078057D02*
X213206714Y-124173295D01*
X213206714Y-124173295D02*
X213206714Y-124268533D01*
X213206714Y-124268533D02*
X213159095Y-124411390D01*
X213159095Y-124411390D02*
X212587667Y-124982819D01*
X212587667Y-124982819D02*
X213206714Y-124982819D01*
D15*
%TO.C,SW2*%
X191456000Y-101794000D02*
X191456000Y-104454000D01*
X196596000Y-101794000D02*
X191456000Y-101794000D01*
X197866000Y-101794000D02*
X199196000Y-101794000D01*
X196596000Y-104454000D02*
X191456000Y-104454000D01*
X199196000Y-101794000D02*
X199196000Y-103124000D01*
X196596000Y-101794000D02*
X196596000Y-104454000D01*
%TO.C,C5*%
X203543248Y-118020000D02*
X204965752Y-118020000D01*
X203543248Y-120740000D02*
X204965752Y-120740000D01*
%TO.C,R7*%
X164337276Y-110191500D02*
X164846724Y-110191500D01*
X164337276Y-111236500D02*
X164846724Y-111236500D01*
%TO.C,C2*%
X212194000Y-107517252D02*
X212194000Y-106994748D01*
X213664000Y-107517252D02*
X213664000Y-106994748D01*
%TO.C,D2*%
X213549000Y-116490000D02*
X213549000Y-113770000D01*
X213549000Y-116490000D02*
X208489000Y-116490000D01*
X213549000Y-113770000D02*
X208489000Y-113770000D01*
%TO.C,J1*%
X179899000Y-105741000D02*
X180594000Y-105741000D01*
X179899000Y-106426000D02*
X179899000Y-105741000D01*
X179899000Y-107111000D02*
X179899000Y-106986000D01*
X179899000Y-107111000D02*
X179985724Y-107111000D01*
X179899000Y-107111000D02*
X181289000Y-107111000D01*
X181202276Y-107111000D02*
X181289000Y-107111000D01*
X181289000Y-107111000D02*
X181289000Y-106986000D01*
%TO.C,J2*%
X184979000Y-105741000D02*
X185674000Y-105741000D01*
X184979000Y-106426000D02*
X184979000Y-105741000D01*
X184979000Y-107111000D02*
X184979000Y-106986000D01*
X184979000Y-107111000D02*
X185065724Y-107111000D01*
X184979000Y-107111000D02*
X186369000Y-107111000D01*
X186282276Y-107111000D02*
X186369000Y-107111000D01*
X186369000Y-107111000D02*
X186369000Y-106986000D01*
%TO.C,C8*%
X188165500Y-105148748D02*
X188165500Y-105671252D01*
X186695500Y-105148748D02*
X186695500Y-105671252D01*
%TO.C,C6*%
X199494000Y-124281252D02*
X199494000Y-123758748D01*
X200964000Y-124281252D02*
X200964000Y-123758748D01*
%TO.C,R6*%
X164337276Y-107681500D02*
X164846724Y-107681500D01*
X164337276Y-108726500D02*
X164846724Y-108726500D01*
%TO.C,R5*%
X168175000Y-120623064D02*
X168175000Y-120168936D01*
X169645000Y-120623064D02*
X169645000Y-120168936D01*
D10*
%TO.C,U6*%
X156746000Y-101947000D02*
X156746000Y-101947000D01*
X156746000Y-101947000D02*
X151246000Y-101947000D01*
X151246000Y-101947000D02*
X156746000Y-101947000D01*
X151246000Y-101947000D02*
X151246000Y-101947000D01*
X145996000Y-101947000D02*
X145996000Y-101947000D01*
X145996000Y-101947000D02*
X144496000Y-101947000D01*
X144496000Y-101947000D02*
X145996000Y-101947000D01*
X144496000Y-101947000D02*
X144496000Y-101947000D01*
X144496000Y-101947000D02*
X144496000Y-101947000D01*
X144496000Y-101947000D02*
X144496000Y-116697000D01*
D16*
X161146000Y-111322000D02*
X161146000Y-111322000D01*
X161146000Y-111322000D02*
X161146000Y-111322000D01*
X161146000Y-111422000D02*
X161146000Y-111422000D01*
D10*
X158996000Y-112322000D02*
X158996000Y-112322000D01*
X158996000Y-112322000D02*
X158996000Y-114322000D01*
X158996000Y-114322000D02*
X158996000Y-112322000D01*
X158996000Y-114322000D02*
X158996000Y-114322000D01*
X156496000Y-116697000D02*
X156496000Y-116697000D01*
X156496000Y-116697000D02*
X151246000Y-116697000D01*
X151246000Y-116697000D02*
X156496000Y-116697000D01*
X151246000Y-116697000D02*
X151246000Y-116697000D01*
X146496000Y-116697000D02*
X146496000Y-116697000D01*
X146496000Y-116697000D02*
X144496000Y-116697000D01*
X144496000Y-116697000D02*
X144496000Y-101947000D01*
X144496000Y-116697000D02*
X146496000Y-116697000D01*
X144496000Y-116697000D02*
X144496000Y-116697000D01*
X144496000Y-116697000D02*
X144496000Y-116697000D01*
D16*
X161146000Y-111422000D02*
G75*
G03*
X161146000Y-111322000I0J50000D01*
G01*
X161146000Y-111322000D02*
G75*
G03*
X161146000Y-111422000I0J-50000D01*
G01*
X161146000Y-111322000D02*
G75*
G03*
X161146000Y-111422000I0J-50000D01*
G01*
D15*
%TO.C,C3*%
X203543248Y-113770000D02*
X204965752Y-113770000D01*
X203543248Y-116490000D02*
X204965752Y-116490000D01*
%TO.C,C10*%
X164853252Y-118591000D02*
X164330748Y-118591000D01*
X164853252Y-117121000D02*
X164330748Y-117121000D01*
%TO.C,Y1*%
X178770000Y-105880000D02*
X177500000Y-105880000D01*
X178770000Y-105880000D02*
X178770000Y-113720000D01*
X174430000Y-105880000D02*
X175700000Y-105880000D01*
X174430000Y-105880000D02*
X174430000Y-113720000D01*
X178770000Y-113720000D02*
X177500000Y-113720000D01*
X174430000Y-113720000D02*
X175700000Y-113720000D01*
%TO.C,C11*%
X164853252Y-122147000D02*
X164330748Y-122147000D01*
X164853252Y-120677000D02*
X164330748Y-120677000D01*
%TO.C,R4*%
X178222500Y-116045276D02*
X178222500Y-116554724D01*
X177177500Y-116045276D02*
X177177500Y-116554724D01*
D11*
%TO.C,U2*%
X172181500Y-112554000D02*
X172181500Y-116554000D01*
X166781500Y-112554000D02*
X166781500Y-116554000D01*
D15*
X172511500Y-112444000D02*
X172181500Y-112204000D01*
X172511500Y-111964000D01*
X172511500Y-112444000D01*
G36*
X172511500Y-112444000D02*
G01*
X172181500Y-112204000D01*
X172511500Y-111964000D01*
X172511500Y-112444000D01*
G37*
%TO.C,L1*%
X203075000Y-106188000D02*
X202625000Y-106188000D01*
X203075000Y-106188000D02*
X203075000Y-112388000D01*
X196875000Y-106188000D02*
X197325000Y-106188000D01*
X203075000Y-112388000D02*
X202625000Y-112388000D01*
X196875000Y-112388000D02*
X196875000Y-106188000D01*
X196875000Y-112388000D02*
X197325000Y-112388000D01*
%TO.C,J3*%
X184979000Y-108789000D02*
X185674000Y-108789000D01*
X184979000Y-109474000D02*
X184979000Y-108789000D01*
X184979000Y-110159000D02*
X184979000Y-110034000D01*
X184979000Y-110159000D02*
X185065724Y-110159000D01*
X184979000Y-110159000D02*
X186369000Y-110159000D01*
X186282276Y-110159000D02*
X186369000Y-110159000D01*
X186369000Y-110159000D02*
X186369000Y-110034000D01*
D11*
%TO.C,U3*%
X210092000Y-106451000D02*
X210092000Y-110601000D01*
X204942000Y-106451000D02*
X204942000Y-110601000D01*
D15*
X210322000Y-106091000D02*
X209992000Y-105851000D01*
X210322000Y-105611000D01*
X210322000Y-106091000D01*
G36*
X210322000Y-106091000D02*
G01*
X209992000Y-105851000D01*
X210322000Y-105611000D01*
X210322000Y-106091000D01*
G37*
%TO.C,C1*%
X208866748Y-101578000D02*
X210289252Y-101578000D01*
X208866748Y-104298000D02*
X210289252Y-104298000D01*
%TO.C,C7*%
X187790252Y-126279000D02*
X187267748Y-126279000D01*
X187790252Y-124809000D02*
X187267748Y-124809000D01*
%TO.C,J4*%
X179899000Y-108789000D02*
X180594000Y-108789000D01*
X179899000Y-109474000D02*
X179899000Y-108789000D01*
X179899000Y-110159000D02*
X179899000Y-110034000D01*
X179899000Y-110159000D02*
X179985724Y-110159000D01*
X179899000Y-110159000D02*
X181289000Y-110159000D01*
X181202276Y-110159000D02*
X181289000Y-110159000D01*
X181289000Y-110159000D02*
X181289000Y-110034000D01*
%TO.C,C4*%
X214934000Y-119694748D02*
X214934000Y-120217252D01*
X213464000Y-119694748D02*
X213464000Y-120217252D01*
%TO.C,R3*%
X209584064Y-120691000D02*
X209129936Y-120691000D01*
X209584064Y-119221000D02*
X209129936Y-119221000D01*
%TO.C,C9*%
X164309248Y-114581000D02*
X164831752Y-114581000D01*
X164309248Y-116051000D02*
X164831752Y-116051000D01*
D11*
%TO.C,U1*%
X184708600Y-117552500D02*
X181000000Y-117552500D01*
X184708600Y-112202500D02*
X181000000Y-112202500D01*
D15*
X186909300Y-117317500D02*
X186579300Y-117077500D01*
X186909300Y-116837500D01*
X186909300Y-117317500D01*
G36*
X186909300Y-117317500D02*
G01*
X186579300Y-117077500D01*
X186909300Y-116837500D01*
X186909300Y-117317500D01*
G37*
D10*
%TO.C,U8*%
X183108000Y-128406000D02*
X172448000Y-128406000D01*
D15*
%TO.C,R1*%
X204027064Y-104935000D02*
X203572936Y-104935000D01*
X204027064Y-103465000D02*
X203572936Y-103465000D01*
%TO.C,U7*%
X196491000Y-126922000D02*
X192731000Y-126922000D01*
X196491000Y-120102000D02*
X192731000Y-120102000D01*
X192731000Y-126922000D02*
X192731000Y-125662000D01*
X192731000Y-120102000D02*
X192731000Y-121362000D01*
X198011000Y-127152000D02*
X197531000Y-127152000D01*
X197771000Y-126822000D01*
X198011000Y-127152000D01*
G36*
X198011000Y-127152000D02*
G01*
X197531000Y-127152000D01*
X197771000Y-126822000D01*
X198011000Y-127152000D01*
G37*
%TO.C,D1*%
X169444936Y-123979000D02*
X169899064Y-123979000D01*
X169444936Y-125449000D02*
X169899064Y-125449000D01*
D10*
%TO.C,USB_C3.0_UP1*%
X185900000Y-102560000D02*
X176800000Y-102560000D01*
X176800000Y-102560000D02*
X176800000Y-98160000D01*
X176800000Y-98160000D02*
X185900000Y-98160000D01*
X185900000Y-98160000D02*
X185900000Y-102560000D01*
D15*
%TO.C,R2*%
X209145936Y-123793000D02*
X209600064Y-123793000D01*
X209145936Y-125263000D02*
X209600064Y-125263000D01*
%TD*%
M02*
